<?xml version="1.0" standalone="no"?>
<!DOCTYPE svg PUBLIC "-//W3C//DTD SVG 1.1//EN" "http://www.w3.org/Graphics/SVG/1.1/DTD/svg11.dtd" >
<svg xmlns="http://www.w3.org/2000/svg" xmlns:xlink="http://www.w3.org/1999/xlink" version="1.1">
<metadata>
Created by FontForge 20170731 at Tue May 17 10:19:39 2016
 By Aleksey,,,
Published by Die Gestalten Verlag GmbH &#38; Co. KG, 2008
Copyright (c) by Binnenland and re-p.org, 2008. All rights reserved. This software may not be reproduced, used, displayed, modified, disclosed or transferred without the express written approval of (Binnenland). 
</metadata>
<defs>
<font id="BlenderW00-Book" horiz-adv-x="963" >
  <font-face 
    font-family="BlenderW00-Book"
    font-weight="400"
    font-stretch="normal"
    units-per-em="2048"
    panose-1="2 0 5 6 3 0 0 2 0 4"
    ascent="1638"
    descent="-410"
    x-height="881"
    cap-height="1229"
    bbox="-147 -354 1935 1729"
    underline-thickness="102"
    underline-position="-358"
    unicode-range="U+0020-FB02"
  />
<missing-glyph horiz-adv-x="2048" 
 />
    <glyph glyph-name=".notdef" horiz-adv-x="2048" 
 />
    <glyph glyph-name="glyph1" horiz-adv-x="1024" 
 />
    <glyph glyph-name="glyph2" horiz-adv-x="1024" 
 />
    <glyph glyph-name="space" unicode=" " horiz-adv-x="467" 
 />
    <glyph glyph-name="exclam" unicode="!" horiz-adv-x="463" 
d="M117 346v881h110v-881h-110zM90 0v160h160v-160h-160z" />
    <glyph glyph-name="quotedbl" unicode="&#x22;" horiz-adv-x="760" 
d="M553 946h-109l15 139v242h106v-268zM258 946h-108l14 139v242h106v-268z" />
    <glyph glyph-name="numbersign" unicode="#" horiz-adv-x="1073" 
d="M885 721h-180l-41 -234h180l-19 -106h-180l-39 -219h-108l39 219h-197l-39 -219h-108l38 219h-180l19 106h180l41 234h-180l18 106h180l37 211h109l-37 -211h196l37 211h109l-37 -211h180zM399 721l-41 -234h197l41 234h-197z" />
    <glyph glyph-name="dollar" unicode="$" horiz-adv-x="1122" 
d="M948 264q0 -26 -5 -52t-19 -48q-9 -13 -27 -33.5t-39 -41.5t-41.5 -39.5t-34.5 -26.5q-21 -14 -50 -23.5t-54 -9.5h-125v-183h-104v183h-111q-25 0 -55 9.5t-52 23.5q-16 10 -34 26t-35 34t-32 36t-26 33t-23 36.5t-22 42.5l117 33q6 -14 10 -19q2 -4 4 -5q11 -19 27 -39
t33.5 -37.5t34.5 -31.5t30 -21q5 -4 13 -5.5t16 -1.5h105v469l-250 68q-30 9 -53.5 28t-40 45t-25 57t-8.5 63v127q0 26 5 52t19 48q9 13 27 34t39 42.5t41.5 40t34.5 26.5q21 14 50 23.5t54 9.5h107v174h104v-174h98q25 0 54 -9.5t51 -23.5q16 -10 34 -26t35 -34t32 -36
t26 -33t24.5 -36.5t22.5 -43.5l-119 -34q-3 7 -5.5 12t-4.5 8q-3 4 -4 6q-10 18 -26 38t-33.5 38t-35 32t-30.5 21q-5 3 -12 4.5t-15 1.5h-92v-456l264 -72q30 -9 54 -27.5t41.5 -44t26.5 -56.5t9 -63v-139zM553 545v-441h117q16 0 24 7q12 6 30 20.5t37 32.5t35.5 38
t26.5 38q6 12 6 26v125q0 31 -18 59.5t-47 36.5zM190 842q0 -31 18 -57.5t46 -34.5l195 -56v428h-97q-17 0 -26 -6q-12 -6 -30 -20.5t-36 -32.5t-34.5 -38t-26.5 -38l-6 -12t-3 -14v-119z" />
    <glyph glyph-name="percent" unicode="%" horiz-adv-x="1460" 
d="M578 838q0 -29 -5.5 -53t-19.5 -46q-5 -8 -15.5 -20t-22.5 -25t-25 -25t-23 -20q-22 -15 -53 -26t-62 -11h-84q-29 0 -59 11t-53 26q-10 8 -23 20t-25 25t-22.5 25t-15.5 20q-14 22 -19.5 46t-5.5 53v180q0 29 5.5 54t19.5 46q5 8 15.5 20t22.5 25t25 25t23 20
q23 14 53 24.5t59 10.5h84q31 0 62 -10.5t53 -24.5q10 -8 23 -20t25 -25t22.5 -25t15.5 -20q14 -21 19.5 -46t5.5 -54v-180zM469 1014v18.5t-2 14.5v-3q-6 11 -16 24t-22 25t-24 23t-22 17q-8 5 -16.5 6.5t-14.5 1.5h-82q-6 0 -14 -1.5t-16 -6.5q-10 -6 -22 -16.5t-23 -22.5
t-21 -25t-16 -25q-3 -6 -3.5 -13.5t-0.5 -16.5v-172q0 -10 0.5 -17.5t3.5 -13.5q6 -12 16 -24.5t21 -24t23 -21.5t22 -16q8 -5 16 -6.5t14 -1.5h82q6 0 14.5 1.5t16.5 6.5q10 6 22 16t24 22t22 24.5t16 23.5v-2q2 6 2 14v19v172zM1290 215q0 -29 -5 -54t-19 -46
q-6 -7 -16.5 -19t-22.5 -24.5t-24.5 -25t-22.5 -19.5q-23 -16 -53.5 -26.5t-61.5 -10.5h-84q-29 0 -60 10.5t-53 26.5q-10 7 -22.5 19.5t-24.5 25t-22.5 24.5t-16.5 19q-14 21 -19 46t-5 54v180q0 29 5 54t19 47q6 7 16.5 19t22.5 24.5t24.5 24.5t22.5 20q22 15 53 26t60 11
h84q31 0 61.5 -11t53.5 -26q10 -8 22.5 -20t24.5 -24.5t22.5 -24.5t16.5 -19q14 -22 19 -47t5 -54v-180zM1182 391v19t-2 14v-2q-6 11 -16.5 24t-22.5 25t-24 22.5t-21 16.5q-8 5 -16.5 6.5t-14.5 1.5h-82q-6 0 -14.5 -1.5t-16.5 -6.5q-11 -6 -23 -16t-23 -22t-20.5 -25
t-15.5 -25q-3 -6 -3.5 -14t-0.5 -17v-172q0 -9 0.5 -16.5t3.5 -14.5q6 -11 15.5 -24t20.5 -25t23 -21.5t23 -15.5q8 -5 16.5 -6.5t14.5 -1.5h82q6 0 14.5 1.5t16.5 6.5q9 6 21 16t24 22t22.5 24.5t16.5 23.5v-2q2 7 2 14.5v18.5v172zM406 0h-127l647 1229h125z" />
    <glyph glyph-name="ampersand" unicode="&#x26;" horiz-adv-x="1137" 
d="M905 440v-196q0 -59 -31 -105q-5 -8 -18 -23t-28 -31.5t-30.5 -31.5t-25.5 -22q-25 -19 -59 -29t-66 -10h-309q-32 0 -64 10t-57 29q-10 7 -25.5 22t-30.5 31.5t-28 31.5t-18 23q-31 46 -31 105v184q0 61 31 107q4 7 13 17.5t20.5 22.5t23.5 24t23 22q-11 10 -23 22
t-23.5 24t-20.5 22.5t-13 17.5q-16 23 -23.5 51t-7.5 57v166q0 29 7.5 57.5t23.5 51.5q5 8 18 23t28 31t30.5 30t25.5 22q25 19 57 30t64 11h197q24 0 54 -9.5t52 -23.5q16 -10 34 -26t35 -34.5t32 -37t26 -33.5t23.5 -36.5t21.5 -43.5l-117 -32q-9 21 -25.5 44.5t-36 45
t-39.5 38.5t-36 25q-5 3 -14 4.5t-17 1.5h-188q-20 0 -33 -8q-12 -7 -26.5 -18.5t-28 -25t-25 -28.5t-18.5 -28q-3 -6 -4.5 -16t-1.5 -19v-158q0 -9 1.5 -18.5t4.5 -16.5q7 -13 18.5 -27t25 -27.5t28 -25t26.5 -18.5q13 -8 33 -8h240v-113h-240q-20 0 -33 -8
q-12 -7 -26.5 -18.5t-28 -25t-25 -28.5t-18.5 -28q-3 -6 -4.5 -15t-1.5 -18v-176q0 -9 1.5 -18t4.5 -15q7 -13 18.5 -27.5t25 -28t28 -24.5t26.5 -18q13 -8 33 -8h307q9 0 18 1.5t17 6.5q12 7 26.5 18t28 24.5t25 28t18.5 27.5q3 6 4.5 15t1.5 18v303h201v-111h-82z" />
    <glyph glyph-name="quotesingle" unicode="'" horiz-adv-x="465" 
d="M258 946h-108l14 139v242h106v-268z" />
    <glyph glyph-name="parenleft" unicode="(" horiz-adv-x="639" 
d="M375 -94l-178 176q-25 25 -48 52t-34 42q-14 22 -20.5 47t-6.5 51v691q0 26 6.5 51t20.5 47q11 15 34 43t48 53l178 176l80 -84l-172 -170q-22 -20 -41 -41t-31 -43q-3 -6 -4.5 -17t-1.5 -19v-682q0 -8 1.5 -17.5t4.5 -15.5q12 -22 31 -45t41 -43l172 -168z" />
    <glyph glyph-name="parenright" unicode=")" horiz-adv-x="655" 
d="M102 -10l172 168q22 20 41 43t31 45q3 6 4.5 15.5t1.5 17.5v682q0 8 -1.5 19t-4.5 17q-12 22 -31 43t-41 41l-172 170l80 84l178 -176q25 -25 48 -53t34 -43q14 -22 20.5 -47t6.5 -51v-691q0 -26 -6.5 -51t-20.5 -47q-11 -15 -34 -42t-48 -52l-178 -176z" />
    <glyph glyph-name="asterisk" unicode="*" horiz-adv-x="926" 
d="M473 1055l246 82l33 -105l-246 -78l153 -206l-86 -64l-151 209l-150 -209l-88 64l154 206l-246 78l33 105l244 -82l-2 258h110z" />
    <glyph glyph-name="plus" unicode="+" horiz-adv-x="1071" 
d="M528 457v-307h-106v307h-307v106h307v307h106v-307h308v-106h-308z" />
    <glyph glyph-name="comma" unicode="," horiz-adv-x="465" 
d="M137 -178h-127l142 344l108 -39z" />
    <glyph glyph-name="hyphen" unicode="-" horiz-adv-x="739" 
d="M82 455v106h469v-106h-469z" />
    <glyph glyph-name="period" unicode="." horiz-adv-x="453" 
d="M82 0v160h160v-160h-160z" />
    <glyph glyph-name="slash" unicode="/" horiz-adv-x="864" 
d="M131 0h-131l649 1229h129z" />
    <glyph glyph-name="zero" unicode="0" horiz-adv-x="1032" 
d="M848 244q0 -59 -31 -105q-5 -8 -18 -23t-28.5 -31.5t-30.5 -31.5t-25 -22q-25 -19 -58 -29t-65 -10h-256q-32 0 -64 10t-57 29q-10 7 -25.5 22t-30.5 31.5t-28 31.5t-18 23q-31 46 -31 105v739q0 61 31 107q5 8 18 23t28 31.5t30.5 31t25.5 22.5q25 19 57 29t64 10h256
q32 0 65 -10t58 -29q10 -8 25 -22.5t30.5 -31t28.5 -31.5t18 -23q31 -46 31 -107v-739zM729 979q0 9 -1.5 19t-4.5 16q-7 13 -18.5 28t-25 28.5t-28 25t-26.5 18.5q-15 8 -35 8h-252q-9 0 -18 -1.5t-17 -6.5q-12 -7 -26.5 -18.5t-28 -25t-25 -28.5t-18.5 -28q-3 -6 -3.5 -16
t-0.5 -19v-731q0 -9 0.5 -18t3.5 -15q7 -13 18.5 -28t25 -28.5t28 -25t26.5 -18.5q15 -9 35 -9h252q18 0 35 9q12 7 26.5 18.5t28 25t25 28.5t18.5 28q3 6 4.5 15t1.5 18v731z" />
    <glyph glyph-name="one" unicode="1" horiz-adv-x="1032" 
d="M133 0v115h297v999h-278v115h397v-1114h276v-115h-692z" />
    <glyph glyph-name="two" unicode="2" horiz-adv-x="1032" 
d="M846 840q0 -32 -10 -61t-27.5 -53.5t-41 -44t-50.5 -34.5l-428 -229q-28 -16 -47 -41t-19 -55v-207h606v-115h-725v332q0 65 36 111.5t96 78.5l430 230q26 14 43.5 38.5t17.5 55.5v133q0 9 -1.5 19t-4.5 16q-7 13 -19 28t-25.5 28.5t-27.5 25t-26 18.5q-15 8 -35 8h-223
q-8 0 -17 -1.5t-14 -4.5q-16 -8 -36 -25.5t-39.5 -39t-36 -45.5t-25.5 -45l-117 34q9 22 21.5 43.5t23.5 36.5t26 33t32 36t35 34t34 26q22 14 52 23.5t54 9.5h232q32 0 65 -10t58 -29q10 -8 25 -22.5t30.5 -31t28.5 -31.5t18 -23q31 -46 31 -107v-143z" />
    <glyph glyph-name="three" unicode="3" horiz-adv-x="1032" 
d="M852 244q0 -61 -31 -107q-5 -8 -18 -23t-28.5 -31.5t-30.5 -31.5t-25 -22q-25 -19 -57 -29t-64 -10h-240q-24 0 -53 9.5t-51 23.5q-16 10 -34 25.5t-35 33t-32 35.5t-26 33t-24.5 37.5t-22.5 43.5l119 33q10 -21 27 -44t36 -44.5t38.5 -39t35.5 -25.5q5 -4 13 -5.5
t16 -1.5h231q9 0 18 2t17 7q12 7 26 18.5t27.5 25t24.5 28.5t18 28q6 12 6 33v182q0 9 -1.5 18t-4.5 15q-7 13 -18 27.5t-24.5 28t-27.5 24.5t-26 18q-6 3 -15 5.5t-18 2.5h-246v115h244q9 0 19 1.5t16 4.5q12 7 26 18.5t27.5 25t24.5 27.5t18 27q3 7 4.5 16.5t1.5 18.5v158
q0 9 -1.5 19t-4.5 16q-7 13 -18 28t-24.5 29.5t-27.5 26t-26 18.5q-8 5 -17 5.5t-18 0.5h-231q-8 0 -16 -1.5t-13 -4.5q-16 -8 -36 -25t-39.5 -38.5t-36 -45t-25.5 -44.5l-117 32q9 22 21.5 43.5t23.5 36.5t26 33.5t32 37t35 34.5t34 26q22 14 51 22.5t53 8.5h240
q32 0 64 -10t57 -29q10 -8 25 -22.5t30.5 -31t28.5 -31.5t18 -23q31 -46 31 -107v-166q0 -29 -7.5 -56t-23.5 -50q-5 -7 -13.5 -17.5t-20 -22.5t-23.5 -24t-23 -22q11 -10 23 -22t23.5 -24t20 -22.5t13.5 -17.5q31 -46 31 -107v-188z" />
    <glyph glyph-name="four" unicode="4" horiz-adv-x="1032" 
d="M899 403v-114h-133v-289h-119v289h-575v114l520 826h174v-826h133zM207 403h440v701z" />
    <glyph glyph-name="five" unicode="5" horiz-adv-x="1032" 
d="M854 244q0 -61 -31 -107q-5 -8 -18 -23t-28 -31.5t-30.5 -31.5t-25.5 -22q-25 -19 -58 -29t-65 -10h-238q-24 0 -54 9.5t-52 23.5q-16 10 -34 25.5t-35 33t-32 35.5t-26 33t-24.5 37.5t-22.5 43.5l119 33q10 -21 27 -44t36 -44.5t38.5 -39t35.5 -25.5q5 -4 14 -5.5
t17 -1.5h229q9 0 19 2t18 7q12 7 26 18.5t27.5 25t24.5 28.5t18 28q6 12 6 33v233q0 10 -1.5 19.5t-4.5 15.5q-7 13 -18 27.5t-24.5 28t-27.5 24.5t-26 18q-8 5 -18 7t-19 2h-455v608h650v-115h-531v-379h338q32 0 65 -11t58 -30q10 -8 25.5 -22t30.5 -29.5t28 -30t18 -22.5
q31 -46 31 -107v-239z" />
    <glyph glyph-name="six" unicode="6" horiz-adv-x="1032" 
d="M846 244q0 -61 -31 -107q-5 -8 -18 -23t-28.5 -31.5t-30.5 -31.5t-25 -22q-25 -19 -57 -29t-64 -10h-256q-32 0 -64 10t-57 29q-10 7 -25.5 22t-30.5 31.5t-28 31.5t-18 23q-31 46 -31 107v739q0 61 31 107q5 8 18 23t28 31.5t30.5 31t25.5 22.5q25 19 57 29t64 10h233
q25 0 54 -8.5t51 -22.5q16 -10 34 -26t35 -34.5t32 -37t26 -33.5t24.5 -36.5t22.5 -43.5l-119 -32q-9 21 -25.5 44.5t-36 45t-39.5 38.5t-36 25q-5 3 -14 4.5t-17 1.5h-223q-9 0 -18 -0.5t-17 -5.5q-12 -7 -26 -18.5t-27.5 -26t-24.5 -29.5t-18 -28q-3 -6 -4.5 -16t-1.5 -19
v-320q18 20 36 38.5t35 29.5q22 14 52 21.5t55 7.5h213q32 0 64 -9.5t57 -27.5q10 -8 25 -22t30.5 -29.5t28.5 -30t18 -23.5q16 -23 23.5 -51t7.5 -57v-262zM727 504q0 19 -6 33q-7 13 -18.5 27.5t-24.5 28t-27 25.5t-26 19q-15 8 -35 8h-205q-8 0 -16 -1.5t-13 -4.5
q-13 -7 -33 -20t-41.5 -30t-40.5 -36t-30 -37q-2 -3 -5 -9t-5 -11v-250q0 -21 6 -33q7 -13 18.5 -28t25 -28.5t28 -25t26.5 -18.5q13 -9 33 -9h252q9 0 18 2t17 7q12 7 26 18.5t27 25t24.5 28.5t18.5 28q6 12 6 33v258z" />
    <glyph glyph-name="seven" unicode="7" horiz-adv-x="1032" 
d="M309 0h-131l527 1114h-633v115h766v-103z" />
    <glyph glyph-name="eight" unicode="8" horiz-adv-x="1032" 
d="M846 244q0 -61 -31 -107q-5 -8 -18 -23t-28.5 -31.5t-30.5 -31.5t-25 -22q-25 -19 -57 -29t-64 -10h-256q-32 0 -64 10t-57 29q-10 7 -25.5 22t-30.5 31.5t-28 31.5t-18 23q-31 46 -31 107v186q0 61 31 107q4 7 13 17.5t20.5 22.5t23.5 24t23 22q-11 10 -23 22
t-23.5 24.5t-20.5 23.5t-13 18q-16 23 -23.5 50t-7.5 56v166q0 29 7.5 57.5t23.5 51.5q5 8 18 23t28 31t30.5 30t25.5 22q25 19 57 29t64 10h256q32 0 64 -10t57 -29q10 -8 25 -22t30.5 -30t28.5 -31t18 -23q16 -23 23.5 -51.5t7.5 -57.5v-166q0 -29 -7.5 -56t-23.5 -50
q-5 -7 -13.5 -18t-20 -23.5t-23.5 -24.5t-23 -22q11 -10 23 -22t23.5 -24t20 -22.5t13.5 -17.5q31 -46 31 -107v-186zM727 979q0 9 -1.5 19t-4.5 16q-7 13 -19 28t-25.5 28.5t-27.5 25t-26 18.5q-15 8 -33 8h-252q-9 0 -18 -1.5t-17 -6.5q-12 -7 -26 -18.5t-27.5 -25
t-24.5 -28.5t-18 -28q-3 -6 -4.5 -16t-1.5 -19v-158q0 -9 1.5 -18.5t4.5 -16.5q7 -13 18 -27.5t24.5 -28t27.5 -25.5t26 -19q8 -5 17 -5.5t18 -0.5h252q18 0 33 8q12 7 26 18.5t27.5 25t25.5 27.5t19 27q3 7 4.5 16.5t1.5 18.5v158zM727 426q0 9 -1.5 18t-4.5 15
q-7 13 -19 27.5t-25.5 28t-27.5 24.5t-26 18q-15 8 -33 8h-252q-9 0 -18 -1.5t-17 -6.5q-12 -7 -26 -18t-27.5 -24.5t-24.5 -28t-18 -27.5q-3 -6 -4.5 -15t-1.5 -18v-180q0 -21 6 -33q7 -13 18 -28t24.5 -28.5t27.5 -25t26 -18.5q8 -5 17 -7t18 -2h252q9 0 17 2t16 7
q12 7 26 18.5t27.5 25t25.5 28.5t19 28q6 12 6 33v180z" />
    <glyph glyph-name="nine" unicode="9" horiz-adv-x="1032" 
d="M848 244q0 -61 -31 -107q-5 -8 -18 -23t-28.5 -31.5t-30.5 -31.5t-25 -22q-25 -19 -58 -29t-65 -10h-232q-24 0 -53 8t-51 22q-16 10 -34 26.5t-35 35t-32 37t-26 33.5t-25.5 36.5t-23.5 42.5l119 33q9 -21 26 -44.5t36.5 -45t40 -38.5t36.5 -25q5 -4 14 -5.5t17 -1.5
h221q9 0 19 1t18 6q12 7 26 18.5t27.5 26t24.5 29.5t18 28q3 6 4.5 16t1.5 19v327q-18 -20 -37.5 -38t-36.5 -29q-21 -14 -50 -21.5t-54 -7.5h-213q-32 0 -65 9.5t-58 27.5q-10 8 -25.5 22t-30.5 29.5t-28 30t-18 23.5q-16 23 -23.5 51t-7.5 57v254q0 61 31 107q5 8 18 23
t28 31.5t30.5 31t25.5 22.5q25 19 58 29t65 10h254q32 0 65 -10t58 -29q10 -8 25 -22.5t30.5 -31t28.5 -31.5t18 -23q31 -46 31 -107v-739zM729 981q0 9 -1.5 18t-4.5 15q-7 13 -18.5 28t-25 28.5t-28 25t-26.5 18.5q-15 8 -35 8h-250q-9 0 -19 -1.5t-18 -6.5
q-12 -7 -26 -18.5t-27.5 -25t-24.5 -28.5t-18 -28q-3 -6 -4.5 -15t-1.5 -18v-250q0 -20 6 -33q7 -13 18 -27.5t24.5 -28.5t27.5 -25.5t26 -18.5q8 -5 18 -6.5t19 -1.5h205q17 0 26 6q13 7 33.5 20t42.5 30t41.5 36t30.5 37q2 3 5 9t5 11v242z" />
    <glyph glyph-name="colon" unicode=":" horiz-adv-x="453" 
d="M82 586v159h160v-159h-160zM82 0v160h160v-160h-160z" />
    <glyph glyph-name="semicolon" unicode=";" horiz-adv-x="465" 
d="M88 586v159h160v-159h-160zM137 -178h-127l142 344l108 -39z" />
    <glyph glyph-name="less" unicode="&#x3c;" horiz-adv-x="1468" 
d="M221 563l563 -563h-147l-617 616l617 619h147l-563 -563h1063v-109h-1063z" />
    <glyph glyph-name="equal" unicode="=" horiz-adv-x="975" 
d="M86 569v111h705v-111h-705zM86 340v111h705v-111h-705z" />
    <glyph glyph-name="greater" unicode="&#x3e;" horiz-adv-x="1468" 
d="M709 0h-148l563 563h-1063v109h1063l-563 563h148l616 -619z" />
    <glyph glyph-name="question" unicode="?" horiz-adv-x="930" 
d="M831 844q0 -65 -37.5 -115t-91.5 -78l-135 -71q-26 -14 -45.5 -40t-19.5 -57v-135h-119v146q0 65 34.5 112t94.5 78l139 72q26 14 44 38.5t18 55.5v129q0 9 -1.5 19t-4.5 16q-7 13 -19 28t-25.5 28.5t-28 25t-26.5 18.5q-13 8 -35 8h-243q-8 0 -17 -1.5t-14 -4.5
q-16 -8 -36 -25.5t-39.5 -39t-36 -45.5t-25.5 -45l-117 34q28 59 71.5 113t100.5 96q20 16 51 24.5t56 8.5h251q32 0 65.5 -10t57.5 -29q10 -8 25.5 -22.5t30.5 -31t28 -31.5t19 -23q30 -47 30 -107v-139zM365 0v156h155v-156h-155z" />
    <glyph glyph-name="at" unicode="@" horiz-adv-x="1290" 
d="M811 1237q25 0 55 -9.5t52 -23.5q45 -28 78.5 -67t58.5 -76q14 -22 20 -48t6 -52v-816l13 -145h-111l-12 106q-20 -23 -41 -41t-39 -32q-23 -17 -50 -30t-53 -13h-98q-35 0 -67.5 10t-57.5 29q-10 8 -23 21t-26.5 27.5t-25 27.5t-17.5 22q-31 48 -31 109v395q0 32 8 58.5
t23 49.5q6 9 17.5 22t25 27.5t26.5 27.5t23 22q25 18 57.5 28.5t67.5 10.5h98q26 0 53 -12t50 -29q18 -14 38 -31.5t42 -40.5h2v197q0 8 -1.5 16t-4.5 14q-10 18 -27.5 38.5t-37 39.5t-38 34t-30.5 21q-11 6 -27 6h-434q-18 0 -27 -6q-12 -6 -31.5 -21.5t-39.5 -35.5
t-38 -41t-28 -39q-6 -12 -6 -31v-1019q0 -15 6 -27q10 -18 28 -39t38 -41t39.5 -35.5t31.5 -21.5q9 -6 27 -6h65l17 -107h-93q-24 0 -53 9.5t-51 23.5q-14 8 -34.5 26.5t-41 39.5t-38 41.5t-25.5 33.5q-14 22 -19.5 48t-5.5 52v1027q0 26 4.5 52t18.5 48q8 13 26 34t39 42.5
t41.5 40t34.5 26.5q22 14 51 23.5t53 9.5h449zM553 240q0 -23 6 -35q7 -13 18.5 -28t24.5 -28.5t27 -25.5t26 -19q15 -8 37 -8h90q17 0 29 6t34.5 19.5t46 31t44.5 37t31 37.5q0 1 1 3q2 4 3 8v391q-1 3 -3 7q-1 2 -1 3q-10 18 -31 38t-44.5 37t-46 30.5t-34.5 19.5t-29 6
h-90q-22 0 -37 -8q-12 -7 -26 -19t-27 -25.5t-24.5 -28t-18.5 -27.5q-6 -14 -6 -35v-387z" />
    <glyph glyph-name="A" unicode="A" horiz-adv-x="1100" 
d="M874 0l-92 285h-569l-94 -285h-125l412 1229h184l411 -1229h-127zM250 399h495l-235 713h-27z" />
    <glyph glyph-name="B" unicode="B" horiz-adv-x="1108" 
d="M907 252q0 -29 -6.5 -55.5t-21.5 -49.5q-6 -8 -19 -23t-28 -31.5t-30.5 -31.5t-25.5 -22q-25 -19 -58 -29t-65 -10h-553v1229h553q32 0 65 -11.5t58 -29.5q10 -8 25.5 -22.5t30.5 -30.5t28 -30.5t19 -23.5q15 -23 21.5 -51t6.5 -57v-158q0 -29 -6.5 -57t-21.5 -51
q-5 -7 -14 -17.5t-20.5 -22.5t-23.5 -24l-22 -22l22 -22t23.5 -24t20.5 -22.5t14 -17.5q15 -23 21.5 -51.5t6.5 -57.5v-174zM788 971q0 19 -6 33q-7 13 -18 27.5t-24.5 29t-27.5 26.5t-26 19q-13 8 -35 8h-432v-438h434q10 0 18.5 2.5t14.5 5.5q12 7 26 18.5t27.5 25.5
t24.5 28.5t18 27.5q3 7 4.5 16.5t1.5 18.5v152zM788 424q0 9 -1.5 18t-4.5 15q-7 13 -18 28t-24.5 28.5t-27.5 25t-26 18.5q-12 6 -33 6h-434v-448h432q22 0 35 8q12 7 26 18.5t27.5 25t24.5 28.5t18 28q3 6 4.5 15t1.5 18v168z" />
    <glyph glyph-name="C" unicode="C" horiz-adv-x="1069" 
d="M911 231q-9 -21 -22.5 -42.5t-24.5 -36.5t-26 -33t-32 -36t-35 -34t-34 -26q-21 -14 -50 -23.5t-54 -9.5h-271q-24 0 -54 9.5t-52 23.5q-14 8 -34.5 26.5t-41 39.5t-38 41.5t-25.5 33.5q-14 22 -20.5 47t-6.5 51v701q0 26 6.5 51t20.5 47q8 13 25.5 34t38 42.5t41 40
t34.5 26.5q22 14 51 23.5t53 9.5h273q25 0 54 -9.5t50 -23.5q16 -10 34 -26t35 -34t32 -36t26 -33t24.5 -36.5t22.5 -43.5l-118 -34q-9 21 -26 45t-36.5 45.5t-39.5 39t-36 25.5q-5 3 -12.5 4.5t-15.5 1.5h-256q-18 0 -27 -6q-12 -6 -30 -20.5t-36.5 -32.5t-35.5 -38
t-27 -38q-6 -12 -6 -29v-692q0 -14 6 -26q10 -18 27 -38t35.5 -38t36.5 -32.5t30 -20.5q8 -7 27 -7h256q8 0 15.5 1.5t12.5 5.5q16 8 35.5 25.5t38.5 39t36 44.5t28 44z" />
    <glyph glyph-name="D" unicode="D" horiz-adv-x="1114" 
d="M909 272q0 -26 -5 -51t-19 -47q-9 -13 -26.5 -33.5t-38 -41.5t-41 -39.5t-34.5 -26.5q-21 -14 -50 -23.5t-54 -9.5h-541v1229h541q25 0 54 -8.5t50 -22.5q14 -8 34.5 -27t41 -41t38 -43t26.5 -34q14 -22 19 -47.5t5 -51.5v-682zM791 950q0 17 -7 31q-10 18 -26.5 37.5
t-34.5 37.5t-36 32t-30 20q-9 6 -26 6h-412v-999h412q17 0 26 6q12 6 30 20.5t36 32.5t34.5 38t26.5 38q3 6 5 12t2 14v674z" />
    <glyph glyph-name="E" unicode="E" horiz-adv-x="1020" 
d="M100 0v1229h705v-115h-586v-442h555v-115h-555v-442h586v-115h-705z" />
    <glyph glyph-name="F" unicode="F" horiz-adv-x="985" 
d="M219 1114v-442h555v-115h-555v-557h-119v1229h705v-115h-586z" />
    <glyph glyph-name="G" unicode="G" horiz-adv-x="1182" 
d="M868 0l-14 100q-9 -11 -19 -22.5t-19.5 -22.5t-18.5 -19.5t-15 -12.5q-21 -14 -50 -23.5t-54 -9.5h-316q-24 0 -54 9.5t-52 23.5q-14 8 -34.5 26.5t-41 39.5t-38 41.5t-25.5 33.5q-14 22 -20.5 47t-6.5 51v699q0 26 6.5 52t20.5 48q8 13 25.5 34t38 42.5t41 40t34.5 26.5
q22 14 52 23.5t54 9.5h316q25 0 55 -9.5t51 -23.5q16 -10 34 -26t35 -34.5t32 -37t26 -33.5t24.5 -35.5t22.5 -42.5l-118 -34q-9 21 -26 45t-37 45.5t-40.5 39t-36.5 25.5q-5 3 -12.5 4.5t-15.5 1.5h-301q-18 0 -27 -6q-12 -6 -30 -20.5t-36.5 -32.5t-35.5 -38t-27 -38
q-6 -12 -6 -31v-690q0 -14 6 -26q10 -18 27 -38t35.5 -38t36.5 -32.5t30 -20.5q5 -4 13 -5.5t16 -1.5h295q8 0 14.5 1.5t11.5 5.5q12 6 30.5 20.5t37.5 33.5t36 39t27 38q6 12 6 26v297h-280v113h399v-436q0 -23 3.5 -55.5t8.5 -67t10 -66.5t9 -53h-113z" />
    <glyph glyph-name="H" unicode="H" horiz-adv-x="1139" 
d="M799 0v557h-580v-557h-119v1229h119v-557h580v557h119v-1229h-119z" />
    <glyph glyph-name="I" unicode="I" horiz-adv-x="442" 
d="M100 0v1229h119v-1229h-119z" />
    <glyph glyph-name="J" unicode="J" horiz-adv-x="932" 
d="M727 266q0 -26 -6.5 -52t-20.5 -48q-8 -13 -25.5 -33.5t-37.5 -41.5t-40 -39.5t-34 -26.5q-21 -14 -51.5 -23.5t-54.5 -9.5h-160q-25 0 -55 9.5t-52 23.5q-16 10 -33.5 26t-34 34t-31.5 36t-25 33q-11 15 -23.5 36.5t-22.5 42.5l115 33q11 -21 27.5 -44t35.5 -44.5
t38.5 -39t35.5 -25.5q5 -3 14 -5t17 -2h143q14 0 25 7q12 6 30 20.5t36.5 32.5t35.5 38t27 38q3 6 5.5 12t2.5 14v961h119v-963z" />
    <glyph glyph-name="K" unicode="K" horiz-adv-x="1028" 
d="M754 0l-510 557h-25v-557h-119v1229h119v-559h25l508 559h155l-563 -615l565 -614h-155z" />
    <glyph glyph-name="L" unicode="L" horiz-adv-x="932" 
d="M100 0v1229h119v-1114h574v-115h-693z" />
    <glyph glyph-name="M" unicode="M" horiz-adv-x="1331" 
d="M995 0v1102l-350 -772h-80l-348 772v-1102h-115v1229h170l334 -719l336 719h168v-1229h-115z" />
    <glyph glyph-name="N" unicode="N" horiz-adv-x="1126" 
d="M752 0l-535 1049v-1049h-115v1229h158l531 -1059v1059h114v-1229h-153z" />
    <glyph glyph-name="O" unicode="O" horiz-adv-x="1161" 
d="M956 264q0 -26 -6 -52t-20 -48q-9 -13 -26.5 -33.5t-38 -41.5t-41 -39.5t-33.5 -26.5q-22 -14 -52 -23.5t-55 -9.5h-324q-24 0 -53 9.5t-51 23.5q-14 8 -34.5 26.5t-41.5 39.5t-39 41.5t-26 33.5q-14 22 -19.5 48t-5.5 52v697q0 26 5.5 52t19.5 48q8 13 26 34t39 42.5
t41.5 40t34.5 26.5q22 14 51 23.5t53 9.5h324q25 0 55 -9.5t52 -23.5q13 -8 33.5 -26.5t41 -40t38 -42.5t26.5 -34q14 -22 20 -48t6 -52v-697zM838 956q0 8 -1.5 16.5t-5.5 14.5q-10 18 -26.5 38t-35.5 38t-37 32.5t-30 20.5q-9 6 -26 6h-305q-18 0 -27 -6q-12 -6 -30 -20.5
t-36 -32.5t-34.5 -38t-26.5 -38q-3 -6 -5.5 -14.5t-2.5 -16.5v-690q0 -8 2.5 -14t5.5 -12q10 -18 26.5 -38t34.5 -38t36 -32.5t30 -20.5q8 -7 27 -7h305q8 0 14.5 1.5t11.5 5.5q12 6 30 20.5t37 32.5t35.5 38t26.5 38q7 11 7 26v690z" />
    <glyph glyph-name="P" unicode="P" horiz-adv-x="1069" 
d="M909 795q0 -61 -30 -107q-6 -8 -19 -23t-29 -31t-31.5 -30.5t-25.5 -21.5q-25 -19 -57 -29t-64 -10h-434v-543h-119v1229h553q32 0 64 -10.5t57 -28.5q10 -8 25.5 -22.5t31.5 -31t29 -31.5t19 -24q30 -45 30 -106v-180zM791 971q0 9 -0.5 18.5t-4.5 16.5q-7 13 -18.5 28
t-25.5 29t-29 26t-27 19q-8 5 -16.5 5.5t-18.5 0.5h-432v-457h432q22 0 35 9q12 7 27 18t29 24.5t25.5 28t18.5 27.5q4 6 4.5 15.5t0.5 19.5v172z" />
    <glyph glyph-name="Q" unicode="Q" horiz-adv-x="1157" 
d="M958 262q0 -26 -6 -52.5t-20 -47.5q-9 -13 -26.5 -33.5t-38 -42t-41 -39.5t-33.5 -27q-22 -14 -51 -23t-54 -9h-14l78 -185h-123l-74 185h-193q-24 0 -54 9t-52 23q-14 9 -34.5 27t-41 39.5t-38 42t-25.5 33.5q-14 21 -20.5 47.5t-6.5 52.5v701q0 26 6.5 52t20.5 48
q8 13 25.5 34t38 42.5t41 40t34.5 26.5q22 14 52 22.5t54 8.5h326q25 0 54 -8.5t51 -22.5q13 -8 33.5 -26.5t41 -40t38 -42.5t26.5 -34q14 -22 20 -48t6 -52v-701zM840 961q0 16 -6 28q-10 18 -27 38t-35.5 38t-36.5 32.5t-30 20.5q-5 3 -12 3.5t-15 0.5h-307q-8 0 -15 -0.5
t-12 -3.5q-12 -6 -30 -20.5t-36.5 -32.5t-35.5 -38t-27 -38q-6 -12 -6 -28v-697q0 -8 2.5 -14t5.5 -12q10 -18 26.5 -38t34.5 -38.5t36 -32.5t30 -20q5 -4 13 -5.5t16 -1.5h133l-23 60l107 37l39 -97h49q17 0 27 7q12 6 30 20t36.5 32.5t35.5 38.5t27 38q6 12 6 26v697z" />
    <glyph glyph-name="R" unicode="R" horiz-adv-x="1128" 
d="M909 795q0 -61 -30 -107q-6 -8 -19 -23t-29 -31t-31.5 -30.5t-25.5 -21.5q-51 -39 -115 -39l306 -543h-136l-303 543h-307v-543h-119v1229h553q32 0 64 -10.5t57 -28.5q10 -8 25.5 -22.5t31.5 -31t29 -31.5t19 -24q30 -45 30 -106v-180zM791 971q0 9 -0.5 18.5t-4.5 16.5
q-7 13 -18.5 28t-25.5 29t-29 26t-27 19q-8 5 -16.5 5.5t-18.5 0.5h-432v-457h432q22 0 35 9q12 7 27 18t29 24.5t25.5 28t18.5 27.5q4 6 4.5 15.5t0.5 19.5v172z" />
    <glyph glyph-name="S" unicode="S" horiz-adv-x="1122" 
d="M948 264q0 -26 -5 -52t-19 -48q-9 -13 -27 -33.5t-39 -41.5t-41.5 -39.5t-34.5 -26.5q-21 -14 -50 -23.5t-54 -9.5h-340q-25 0 -55 9.5t-52 23.5q-16 10 -34 26t-35 34t-32 36t-26 33t-23 36.5t-22 42.5l117 33q6 -14 10 -19q2 -4 4 -5q11 -19 27 -39t33.5 -37.5
t34.5 -31.5t30 -21q5 -4 13 -5.5t16 -1.5h326q16 0 24 7q12 6 30 19t37 30t35.5 36t26.5 37q6 13 6 27v131q0 31 -18 59.5t-47 36.5l-561 154q-30 9 -53.5 28t-40 45t-25 57t-8.5 63v127q0 26 5 52t19 48q9 13 27 34t39 42.5t41.5 40t34.5 26.5q21 14 50 23.5t54 9.5h305
q25 0 54 -9.5t51 -23.5q16 -10 34 -26t35 -34t32 -36t26 -33t24.5 -36.5t22.5 -43.5l-119 -34q-3 7 -5.5 12t-4.5 8q-3 4 -4 6q-10 18 -26 38t-33.5 38t-35 32t-30.5 21q-5 3 -12 4.5t-15 1.5h-289q-17 0 -26 -6q-12 -6 -30 -18.5t-36 -29t-34.5 -35t-26.5 -36.5
q-3 -6 -5.5 -12t-2.5 -14v-129q0 -31 17.5 -57.5t45.5 -34.5l559 -156q30 -9 54 -27.5t41.5 -44t26.5 -56.5t9 -63v-139z" />
    <glyph glyph-name="T" unicode="T" 
d="M485 1114v-1114h-118v1114h-351v115h820v-115h-351z" />
    <glyph glyph-name="U" unicode="U" horiz-adv-x="1120" 
d="M915 262q0 -26 -5 -51t-19 -47q-9 -13 -26.5 -33.5t-38 -41.5t-41 -39.5t-33.5 -26.5q-22 -14 -51 -23.5t-54 -9.5h-274q-25 0 -55 9.5t-52 23.5q-14 8 -34 26.5t-40.5 39.5t-38 41.5t-26.5 33.5q-27 43 -27 98v967h119v-963q0 -8 2.5 -14t5.5 -12q10 -18 27 -38
t35.5 -38t36.5 -32.5t30 -20.5q5 -4 12 -5.5t15 -1.5h254q17 0 27 7q12 6 29 20.5t35 32.5t34 38t26 38q4 6 6.5 12t2.5 14v963h118v-967z" />
    <glyph glyph-name="V" unicode="V" horiz-adv-x="1067" 
d="M565 0h-184l-391 1229h125l344 -1102h28l342 1102h125z" />
    <glyph glyph-name="W" unicode="W" horiz-adv-x="1499" 
d="M1114 0h-170l-250 1071l-241 -1071h-170l-273 1229h123l229 -1100h13l241 1100h154l252 -1100h12l219 1100h127z" />
    <glyph glyph-name="X" unicode="X" horiz-adv-x="1018" 
d="M451 522l-324 -522h-133l391 629l-371 600h131l306 -494q74 121 151.5 247t153.5 247h131l-369 -600l389 -629h-133z" />
    <glyph glyph-name="Y" unicode="Y" horiz-adv-x="930" 
d="M479 524v-524h-119v524l-380 705h131l309 -584l313 584h129z" />
    <glyph glyph-name="Z" unicode="Z" horiz-adv-x="983" 
d="M78 0v102l602 1012h-602v115h745v-107l-598 -1007h598v-115h-745z" />
    <glyph glyph-name="bracketleft" unicode="[" horiz-adv-x="590" 
d="M88 0v1229h318v-107h-199v-1016h199v-106h-318z" />
    <glyph glyph-name="backslash" unicode="\" horiz-adv-x="864" 
d="M690 0l-645 1237h129l647 -1237h-131z" />
    <glyph glyph-name="bracketright" unicode="]" horiz-adv-x="641" 
d="M102 0v106h199v1016h-199v107h318v-1229h-318z" />
    <glyph glyph-name="asciicircum" unicode="^" horiz-adv-x="621" 
d="M266 1110l-141 -477h-109l195 596h115l192 -596h-110z" />
    <glyph glyph-name="underscore" unicode="_" horiz-adv-x="926" 
d="M72 -141v106h741v-106h-741z" />
    <glyph glyph-name="grave" unicode="`" horiz-adv-x="760" 
d="M406 1042l-209 265h143l174 -228z" />
    <glyph glyph-name="a" unicode="a" 
d="M664 0l-19 102q-18 -20 -39.5 -38.5t-38.5 -30.5q-23 -17 -48.5 -30t-51.5 -13h-180q-35 0 -67.5 10t-57.5 29q-10 8 -23 21t-26 26.5t-24 26.5t-17 22q-31 46 -31 108v41q0 63 31 109q6 9 17 22t24 26.5t26 26.5t23 21q25 19 57.5 29t67.5 10h356v125q0 12 -1 20t-3 13
q-7 13 -18.5 28t-25 28.5t-28 25t-26.5 18.5q-15 8 -37 8h-193q-20 0 -35 -8q-12 -7 -25.5 -18.5t-27 -26t-25 -29.5t-20.5 -28l-106 35q5 8 12 20.5t18 26.5q7 10 18.5 23t24.5 27t26 26.5t24 21.5q24 19 55.5 28t66.5 9h189q35 0 68.5 -10t58.5 -29q12 -7 25.5 -19.5
t26 -27t23.5 -28t17 -21.5q17 -23 23 -51.5t6 -59.5v-500l20 -145h-110zM489 102q12 6 34 19.5t45 31t44 37t31 37.5v187h-354q-24 0 -37 -8q-12 -7 -26 -18.5t-26.5 -25t-23.5 -28t-18 -27.5q-6 -12 -6 -33v-41q0 -20 6 -32q7 -13 18 -27t23.5 -27.5t26.5 -24.5t26 -18
q13 -8 37 -8h172q16 0 28 6z" />
    <glyph glyph-name="b" unicode="b" horiz-adv-x="989" 
d="M764 754q15 -23 23 -50t8 -59v-409q0 -61 -31 -109q-6 -9 -17.5 -22t-25 -27.5t-26.5 -27.5t-23 -21q-25 -19 -57.5 -29t-67.5 -10h-160q-26 0 -52.5 13t-49.5 30q-19 14 -39.5 33.5t-40.5 42.5l-12 -109h-111l12 145v1084h111v-455q21 23 41 41.5t39 32.5q23 17 49.5 30
t52.5 13h160q35 0 67.5 -10t57.5 -29q11 -7 24.5 -20t26.5 -27.5t24 -28.5t17 -22zM684 641q0 23 -6 35q-7 13 -18.5 28t-24.5 28.5t-27 25t-26 18.5q-15 8 -37 8h-152q-16 0 -28 -6t-34.5 -19.5t-46 -30.5t-44.5 -37t-31 -38q0 -1 -1 -3q-2 -4 -3 -7v-405q1 -4 3 -8
q1 -2 1 -3q10 -18 31 -37.5t44.5 -37t46 -31t34.5 -19.5t28 -6h152q22 0 37 8q12 7 26 19t27 25.5t24.5 28.5t18.5 28q6 12 6 35v401z" />
    <glyph glyph-name="c" unicode="c" horiz-adv-x="934" 
d="M774 172q-9 -17 -22 -36.5t-29 -39t-34 -37t-36 -30.5q-24 -19 -57.5 -29t-67.5 -10h-209q-34 0 -68 10t-58 29q-11 7 -24.5 20.5t-26.5 27.5t-24.5 27.5t-17.5 22.5q-15 23 -21.5 50.5t-6.5 58.5v409q0 31 6.5 58.5t21.5 50.5q6 8 17.5 21.5t24.5 28t26.5 27.5t24.5 21
q24 19 58 29t68 10h203q34 0 67 -10t58 -29q19 -14 36.5 -32.5t33 -38t28.5 -39t23 -35.5l-106 -35q-6 13 -18 28.5t-25.5 30t-28.5 26.5t-27 19q-13 8 -37 8h-204q-24 0 -37 -8q-12 -7 -26 -18.5t-27.5 -25t-25 -28.5t-18.5 -28q-6 -12 -6 -35v-401q0 -23 6 -35
q7 -13 18 -28t24 -28.5t27 -25.5t26 -19q13 -8 36 -8h213q24 0 37 8q12 7 27 19.5t28.5 26.5t24.5 28.5t17 26.5l2 4z" />
    <glyph glyph-name="d" unicode="d" horiz-adv-x="979" 
d="M102 754q6 8 17.5 21t25 27.5t27 27.5t23.5 22q24 19 56.5 29t67.5 10h160q26 0 53 -13t50 -30q18 -14 38 -32.5t42 -41.5v455h110v-1084l12 -145h-110l-12 109q-20 -23 -41 -42.5t-39 -33.5q-23 -17 -50 -30t-53 -13h-160q-35 0 -67.5 10t-56.5 29q-10 8 -23.5 21
t-27 27.5t-25 27.5t-17.5 22q-30 46 -30 109v409q0 62 30 109zM182 240q0 -23 6 -35q7 -13 18.5 -28t25 -28.5t27.5 -25.5t26 -19q13 -8 37 -8h151q17 0 29 6t34.5 19.5t46 31t44 37t30.5 37.5q0 1 1 3l4 8v405l-5 10q-10 18 -30.5 38t-44 37t-46 30.5t-34.5 19.5t-29 6
h-151q-24 0 -37 -8q-12 -7 -26 -18.5t-27.5 -25t-25 -28.5t-18.5 -28q-6 -12 -6 -35v-401z" />
    <glyph glyph-name="e" unicode="e" horiz-adv-x="965" 
d="M666 205l2 4l108 -37q-6 -12 -12.5 -21.5t-15.5 -23.5q-6 -9 -17.5 -22.5t-24.5 -27.5t-26.5 -27.5t-24.5 -20.5q-24 -19 -57.5 -29t-67.5 -10h-208q-35 0 -69 10t-58 29q-11 7 -24.5 20.5t-26.5 27.5t-24.5 27.5t-17.5 22.5q-30 46 -30 109v409q0 62 30 109
q6 8 17.5 21.5t24.5 28t26.5 27.5t24.5 21q24 19 58 29t69 10h204q34 0 68.5 -10t58.5 -29q11 -8 24.5 -21t26.5 -27.5t24 -28t17 -21.5q16 -23 22.5 -50.5t6.5 -58.5v-252h-592v-153q0 -23 6 -35q7 -13 18.5 -28t25 -28.5t27.5 -25.5t26 -19q13 -8 34 -8h216q23 0 36 8
q12 7 26 19.5t27.5 26.5t24.5 28.5t17 26.5zM188 676q-6 -12 -6 -35v-143h482v143q0 11 -0.5 20t-4.5 15q-7 13 -18.5 28t-25 28.5t-28 25t-26.5 18.5q-13 8 -37 8h-202q-22 0 -35 -8q-12 -7 -26.5 -18.5t-28 -25t-25.5 -28.5t-19 -28z" />
    <glyph glyph-name="f" unicode="f" horiz-adv-x="668" 
d="M416 1130q-11 0 -23 -0.5t-20 -5.5q-12 -7 -25.5 -18t-26 -24.5t-23 -28t-17.5 -27.5q-4 -6 -4.5 -16t-0.5 -21v-108h250v-107h-250v-774h-110v774h-146v107h146v112q0 31 6.5 58.5t22.5 50.5q6 8 17 21.5t24 28t26.5 27.5t24.5 21q24 19 58.5 28t68.5 9h172v-107h-170z
" />
    <glyph glyph-name="g" unicode="g" horiz-adv-x="1014" 
d="M795 733v-842q0 -63 -29 -108q-6 -9 -17 -22.5t-24.5 -27.5t-27 -27.5t-23.5 -20.5q-25 -19 -60 -29t-67 -10h-209q-32 0 -66 10t-59 29q-19 13 -36.5 31.5t-33 38t-28.5 39t-23 36.5l107 35l2 -4q5 -12 16 -26.5t24.5 -28.5t28.5 -26.5t27 -19.5q13 -8 35 -8h213
q22 0 37 8q12 7 26.5 19t28 25.5t25 28.5t18.5 28q3 6 3.5 15t0.5 20v210q-20 -21 -40.5 -40t-39.5 -33q-22 -16 -49 -29.5t-53 -13.5h-172q-32 0 -67 10t-60 29q-11 7 -24.5 20.5t-26.5 27.5t-24 27.5t-17 22.5q-16 23 -22.5 50.5t-6.5 58.5v409q0 31 6.5 58.5t22.5 50.5
q6 8 17 21.5t24 28t26.5 27.5t24.5 21q25 19 60 29t67 10h172q26 0 53 -14t49 -29q19 -14 40.5 -34t41.5 -42l12 109h111zM684 643l-4 10q-13 18 -34 37t-43 36.5t-43 31t-34 20.5q-6 3 -14 4.5t-16 1.5h-164q-24 0 -37 -8q-12 -7 -26 -18.5t-27.5 -25t-24.5 -28.5t-18 -28
q-6 -12 -6 -35v-401q0 -23 6 -35q7 -13 18 -28t24.5 -28.5t27.5 -25.5t26 -19q13 -8 37 -8h164q8 0 16 1.5t14 4.5q13 7 34 21t43 31t43 36t34 37l4 11v405z" />
    <glyph glyph-name="h" unicode="h" horiz-adv-x="971" 
d="M659 0v641q0 23 -6 35q-7 13 -18 28t-24.5 28.5t-27.5 25t-26 18.5q-13 8 -37 8h-139q-8 0 -16.5 -1.5t-14.5 -4.5q-13 -7 -34.5 -20t-44.5 -30t-43.5 -36.5t-30.5 -38.5q-2 -2 -2 -4t-2 -4v-645h-111v1229h111v-455q20 22 40.5 41t38.5 33q22 15 49.5 29t53.5 14h147
q32 0 66 -10t59 -29q11 -8 24.5 -21t26.5 -27.5t24 -28t17 -21.5q31 -46 31 -109v-645h-111z" />
    <glyph glyph-name="i" unicode="i" horiz-adv-x="430" 
d="M109 0v881h110v-881h-110zM86 1081v158h156v-158h-156z" />
    <glyph glyph-name="j" unicode="j" horiz-adv-x="440" 
d="M231 -109q0 -62 -30 -108q-6 -9 -17 -22.5t-24 -27.5t-26 -27.5t-23 -20.5q-25 -19 -59 -28t-66 -9h-123v106q54 1 85 1.5t47.5 2t23 3t10.5 3.5q24 14 48 42.5t38 54.5q6 12 6 35v985h110v-990zM96 1081v158h156v-158h-156z" />
    <glyph glyph-name="k" unicode="k" horiz-adv-x="870" 
d="M618 0l-380 408h-43v-408h-111v1229h111v-717h41l350 369h147l-401 -418l436 -463h-150z" />
    <glyph glyph-name="l" unicode="l" horiz-adv-x="412" 
d="M113 0q-3 26 -11 57.5t-8 57.5v1114h111v-1090q0 -34 7.5 -69.5t10.5 -69.5h-110z" />
    <glyph glyph-name="m" unicode="m" horiz-adv-x="1458" 
d="M387 784q-16 0 -29 -6q-13 -7 -34 -20t-43.5 -29.5t-43 -35.5t-32.5 -38v-655h-111v735l-12 146h111l12 -105q18 20 39.5 39.5t38.5 32.5q21 15 47.5 29t52.5 14h102q32 0 67.5 -10t59.5 -29q11 -8 24.5 -21t26.5 -27.5t24.5 -28t17.5 -21.5l2 -4q23 26 50 53.5t50 44.5
q22 15 49 29t53 14h97q32 0 67 -10t60 -29q10 -8 23.5 -21t26.5 -27.5t24.5 -28t17.5 -21.5q15 -23 21.5 -50.5t6.5 -58.5v-645h-110v641q0 23 -6 35q-7 13 -18.5 28t-25 29.5t-27.5 26t-26 18.5q-8 5 -16.5 5.5t-19.5 0.5h-89q-8 0 -16 -1.5t-14 -4.5q-12 -7 -33 -19.5
t-43.5 -29t-43 -35t-32.5 -37.5v-12v-645h-108v641q0 11 -1.5 20t-5.5 15q-7 13 -18.5 28t-25 29.5t-28 26t-26.5 18.5q-8 5 -17 5.5t-20 0.5h-96z" />
    <glyph glyph-name="n" unicode="n" horiz-adv-x="985" 
d="M674 0v641q0 11 -0.5 20t-3.5 15q-7 13 -19 28t-25.5 28.5t-28 25t-26.5 18.5q-13 8 -36 8h-146q-16 0 -29 -6q-13 -7 -34 -20t-43.5 -29.5t-43 -35.5t-32.5 -38v-655h-111v735l-14 146h111l12 -103q18 20 38.5 38.5t37.5 31.5q21 15 48.5 29t53.5 14h154q34 0 68 -10
t59 -29q10 -8 23.5 -21t26.5 -27.5t24.5 -28t17.5 -21.5q15 -23 21.5 -50.5t6.5 -58.5v-645h-110z" />
    <glyph glyph-name="o" unicode="o" horiz-adv-x="967" 
d="M772 236q0 -31 -6.5 -58.5t-22.5 -50.5q-6 -9 -17 -22.5t-24 -27.5t-26.5 -27.5t-24.5 -20.5q-25 -19 -59 -29t-68 -10h-205q-34 0 -68 10t-58 29q-11 7 -24.5 20.5t-26.5 27.5t-24.5 27.5t-17.5 22.5q-15 23 -21.5 50.5t-6.5 58.5v409q0 31 6.5 58.5t21.5 50.5
q6 8 17.5 21.5t24.5 28t26.5 27.5t24.5 21q24 19 58 29t68 10h205q34 0 68 -10t59 -29q11 -8 24.5 -21t26.5 -27.5t24 -28t17 -21.5q16 -23 22.5 -50.5t6.5 -58.5v-409zM662 641q0 11 -0.5 20t-4.5 15q-7 13 -18.5 28t-25 28.5t-28 25t-26.5 18.5q-13 8 -37 8h-200
q-24 0 -37 -8q-12 -7 -26 -18.5t-27.5 -25t-25 -28.5t-18.5 -28q-6 -12 -6 -35v-401q0 -23 6 -35q7 -13 18.5 -28t25 -28.5t27.5 -25.5t26 -19q13 -8 37 -8h200q24 0 37 8q12 7 26.5 19t28 25.5t25 28.5t18.5 28q4 6 4.5 15t0.5 20v401z" />
    <glyph glyph-name="p" unicode="p" horiz-adv-x="989" 
d="M764 127q-6 -9 -17 -22.5t-24.5 -27.5t-27 -27.5t-23.5 -20.5q-25 -19 -58 -29t-67 -10h-160q-26 0 -53.5 13.5t-48.5 29.5q-19 14 -39.5 33t-40.5 40v-450h-111v1079l-12 146h111l12 -109q20 22 40.5 42t39.5 34q21 15 48.5 29t53.5 14h160q34 0 67 -10t58 -29
q10 -8 23.5 -21t27 -27.5t24.5 -28t17 -21.5q31 -48 31 -109v-409q0 -61 -31 -109zM684 641q0 23 -6 35q-7 13 -18.5 28t-24.5 28.5t-27 25t-26 18.5q-15 8 -37 8h-152q-16 0 -28 -6q-13 -7 -35 -20.5t-45.5 -30.5t-44 -36.5t-31.5 -37.5q-4 -8 -4 -12v-403q0 -4 1 -6t3 -5
q11 -19 31.5 -38.5t44 -36t45.5 -30t35 -20.5q12 -6 28 -6h152q22 0 37 8q12 7 26 19t27 25.5t24.5 28.5t18.5 28q6 12 6 35v401z" />
    <glyph glyph-name="q" unicode="q" horiz-adv-x="979" 
d="M113 131q-31 46 -31 109v405q0 63 31 109q6 8 17 21.5t24 28t26.5 27.5t24.5 21q25 19 58 29t67 10h159q26 0 53.5 -14t49.5 -29q18 -14 39 -34t41 -42l12 109h111l-13 -146v-1079h-110v455q-20 -22 -41 -41t-39 -33q-22 -16 -49.5 -29.5t-53.5 -13.5h-159q-34 0 -67 10
t-58 29q-11 7 -24.5 20.5t-26.5 28t-24 28t-17 21.5zM193 641v-397q0 -23 6 -35q7 -13 18 -28t24.5 -28.5t27.5 -25t26 -18.5q13 -9 37 -9h151q17 0 29 6q13 7 35 20.5t45 30t44 36t32 38.5q4 10 4 11v399q0 4 -4 12q-11 18 -32 37.5t-44 36.5t-45 30.5t-35 20.5
q-12 6 -29 6h-151q-24 0 -37 -8q-12 -7 -26 -18.5t-27.5 -25t-24.5 -28.5t-18 -28q-6 -12 -6 -35z" />
    <glyph glyph-name="r" unicode="r" horiz-adv-x="852" 
d="M627 674q-8 12 -20 26.5t-25.5 29t-27.5 27t-26 19.5q-13 8 -36 8h-101q-8 0 -16 -1.5t-15 -4.5q-13 -7 -35 -20t-45 -30t-44 -36.5t-31 -38.5v-653h-111v735l-14 146h113l12 -105l39.5 39.5t38.5 32.5q21 15 48.5 29t53.5 14h102q34 0 67.5 -10t57.5 -29q11 -8 24 -21
t26 -27.5t23.5 -28t16.5 -21.5q10 -13 18 -25t13 -20z" />
    <glyph glyph-name="s" unicode="s" horiz-adv-x="956" 
d="M772 227q0 -62 -31 -108q-6 -9 -16 -21t-21.5 -25t-23.5 -25t-23 -19q-24 -19 -58.5 -29t-66.5 -10h-245q-32 0 -66 10t-59 29q-11 7 -24 20t-26 27t-23.5 27t-16.5 22l-17 25.5t-12 21.5l107 37q6 -13 17 -28.5t24.5 -30t28 -27t26.5 -19.5q13 -8 37 -8h247q22 0 35 8
q25 14 50.5 40.5t39.5 52.5q7 14 7 34v74q0 31 -23 52t-55 24l-338 25q-38 3 -70.5 18.5t-56.5 40t-37.5 57t-13.5 70.5v61q0 62 30 109q6 8 16 20.5t21.5 25t23.5 24.5t23 20q25 19 59 29t66 10h213q32 0 66 -10t59 -29q11 -8 24.5 -21t26.5 -27.5t24 -28t17 -21.5
q10 -13 18 -25t11 -20l-107 -37q-6 13 -17.5 28.5t-25 30t-28.5 26.5t-27 19q-13 8 -35 8h-217q-22 0 -37 -8q-24 -14 -49 -39t-39 -51q-6 -12 -6 -35v-61q0 -31 23 -52t55 -24l338 -27q37 -3 69.5 -18.5t56.5 -40t38 -57.5t14 -70v-74z" />
    <glyph glyph-name="t" unicode="t" horiz-adv-x="690" 
d="M276 774v-524q0 -11 2 -22t5 -17q7 -13 17.5 -27t23 -27t26 -24t25.5 -18q8 -5 19 -7t22 -2h129v-106h-131q-34 0 -67 10t-58 29q-11 7 -24.5 20.5t-26.5 28t-24 28t-17 21.5q-31 46 -31 109v528h-146v107h146v348h110v-348h271v-107h-271z" />
    <glyph glyph-name="u" unicode="u" horiz-adv-x="971" 
d="M666 0l-13 102q-18 -20 -38 -38.5t-37 -30.5q-22 -16 -49.5 -29.5t-53.5 -13.5h-153q-35 0 -69 10t-58 29q-11 7 -24.5 20.5t-26.5 27.5t-24.5 27.5t-17.5 22.5q-15 23 -21.5 50.5t-6.5 58.5v645h110v-641q0 -11 0.5 -20t3.5 -15q7 -13 19 -28t25.5 -28.5t28 -25.5
t26.5 -19q13 -8 37 -8h145q15 0 29 6q13 7 34 20.5t44 30t43.5 35.5t31.5 37v656h111v-736l14 -145h-110z" />
    <glyph glyph-name="v" unicode="v" horiz-adv-x="868" 
d="M383 113l242 768h116l-286 -881h-154l-291 881h119l242 -768h12v0z" />
    <glyph glyph-name="w" unicode="w" horiz-adv-x="1364" 
d="M999 0h-153l-217 752l-209 -752h-154l-256 881h119l209 -762h12l201 762h158l209 -762h12l200 762h117z" />
    <glyph glyph-name="x" unicode="x" horiz-adv-x="881" 
d="M606 0l-227 358l-227 -358h-132l293 453l-282 428h135l213 -342l207 342h135l-277 -428l293 -453h-131v0z" />
    <glyph glyph-name="y" unicode="y" horiz-adv-x="866" 
d="M625 881h118l-399 -1225h-117l117 344h-47l-287 881h119l242 -768h12l242 768v0z" />
    <glyph glyph-name="z" unicode="z" horiz-adv-x="864" 
d="M78 0v98l463 676h-480v107h617v-101l-461 -674h483v-106h-622z" />
    <glyph glyph-name="braceleft" unicode="{" horiz-adv-x="653" 
d="M356 -8q-24 0 -53 9.5t-51 23.5q-14 8 -34.5 26.5t-41.5 39.5t-39 41.5t-26 33.5q-14 22 -18.5 48t-4.5 52v695q0 26 5.5 52t19.5 48q8 13 25.5 34t37.5 42.5t40 40t34 26.5q22 14 52 23.5t54 9.5h113v-115h-102q-18 0 -27 -6q-12 -6 -30 -20.5t-36 -32.5t-34.5 -38
t-26.5 -38q-6 -12 -6 -31v-688q0 -14 6 -26q10 -18 26.5 -38t34.5 -38t36 -32.5t30 -20.5q10 -7 27 -7h102v-114h-113z" />
    <glyph glyph-name="bar" unicode="|" horiz-adv-x="358" 
d="M84 -193v1594h111v-1594h-111z" />
    <glyph glyph-name="braceright" unicode="}" horiz-adv-x="672" 
d="M485 266q0 -26 -5 -52t-19 -48q-9 -13 -27 -33.5t-39 -41.5t-41.5 -39.5t-34.5 -26.5q-21 -14 -50 -23.5t-54 -9.5h-113v114h103q15 0 26 7q12 6 30 20.5t36 32.5t34.5 38t26.5 38l6 12t3 14v688q0 8 -3 16.5t-6 14.5q-10 18 -26.5 38t-34.5 38t-36 32.5t-30 20.5
q-9 6 -26 6h-103v115h113q25 0 55 -9.5t52 -23.5q13 -8 33 -26.5t40.5 -40t37.5 -42.5t26 -34q14 -22 20 -48t6 -52v-695z" />
    <glyph glyph-name="asciitilde" unicode="~" horiz-adv-x="946" 
d="M586 430q-10 29 -37.5 42.5t-59.5 8.5l-149 -37q-36 -9 -71.5 -4t-65.5 21.5t-53 44t-33 63.5l104 25q9 -29 36.5 -42.5t59.5 -8.5l150 37q36 9 71.5 4t65.5 -21.5t52.5 -44t33.5 -63.5z" />
    <glyph glyph-name="uni00A0" unicode="&#xa0;" horiz-adv-x="467" 
 />
    <glyph glyph-name="exclamdown" unicode="&#xa1;" horiz-adv-x="471" 
d="M223 881v-881h-110v881h110zM250 1227v-160h-160v160h160z" />
    <glyph glyph-name="cent" unicode="&#xa2;" horiz-adv-x="924" 
d="M801 172q-3 -8 -11 -20.5t-16 -24.5q-6 -9 -16.5 -22.5t-23.5 -27.5t-26 -27.5t-24 -20.5q-25 -19 -58 -29t-67 -10h-70v-187h-110v187h-49q-34 0 -68 10t-59 29q-11 7 -24.5 20.5t-26.5 27.5t-24 27.5t-17 22.5q-16 23 -22.5 50.5t-6.5 58.5v409q0 31 6.5 58.5
t22.5 50.5q6 8 17 21.5t24 28t26.5 27.5t24.5 21q25 19 59 29t68 10h49v213h110v-213h64q34 0 67 -10t58 -29q11 -8 24 -21.5t26 -28t23.5 -28.5l16.5 -22q8 -13 17 -25t12 -20l-105 -35l-2 4q-5 12 -16 26.5t-24.5 28.5t-28.5 26t-27 19q-8 5 -17 6.5t-20 1.5h-68v-688h74
q24 0 37 8q12 7 26.5 19.5t27.5 26.5t24 28.5t16 26.5l2 4zM379 784h-47q-24 0 -37 -8q-12 -7 -26 -18.5t-27.5 -25t-24.5 -28.5t-18 -28q-6 -12 -6 -35v-401q0 -23 6 -35q7 -13 18 -28t24.5 -28.5t27.5 -25.5t26 -19q13 -8 37 -8h47v688z" />
    <glyph glyph-name="sterling" unicode="&#xa3;" horiz-adv-x="1194" 
d="M1008 242q-10 -22 -22 -44.5t-23 -37.5t-26 -33t-32 -35.5t-35 -33t-34 -25.5q-22 -14 -51 -23.5t-54 -9.5h-561v332h-84v106h84v119h-84v107h84v297q0 26 5.5 51t19.5 47q8 13 25.5 34t38 42.5t41 40t34.5 26.5q21 14 50.5 23.5t53.5 9.5h258v-115h-247q-18 0 -27 -6
q-12 -6 -30 -20.5t-37 -32.5t-35.5 -38t-26.5 -38q-2 -3 -2.5 -14t-1 -24t-0.5 -24.5v-15.5v-243h487v-107h-487v-119h487v-106h-487v-217h436q8 0 16 1.5t13 4.5q16 8 36.5 25.5t40 39t36.5 45.5t26 45z" />
    <glyph glyph-name="currency" unicode="&#xa4;" horiz-adv-x="1145" 
d="M881 367l-78 -78l-90 88q-43 -25 -99 -25h-172q-55 0 -98 25l-88 -88l-78 78l80 82q-23 23 -35 38q-18 25 -28.5 58t-10.5 67v52q0 34 10.5 67t28.5 57q6 10 16.5 20t22.5 21l-82 82l78 78l88 -88q22 11 46 17t50 6h172q26 0 50.5 -5t46.5 -18l90 90l78 -80l-84 -82
q12 -11 21 -22t15 -19q19 -24 29 -57t10 -67v-52q0 -34 -10 -67t-29 -58q-6 -8 -14.5 -16.5l-19.5 -19.5zM616 461q23 0 35 6q13 7 28 20.5t29.5 29.5t26.5 32.5t19 28.5q8 13 8 36v48q0 23 -8 36q-7 12 -19 28.5t-26.5 32.5t-29.5 29.5t-28 20.5q-12 6 -35 6h-176
q-22 0 -34 -6q-13 -7 -28.5 -20.5t-30.5 -29.5t-27 -32.5t-19 -28.5q-8 -13 -8 -36v-48q0 -23 8 -36q7 -12 19 -28.5t27 -32.5t30.5 -29.5t28.5 -20.5q12 -6 34 -6h176z" />
    <glyph glyph-name="yen" unicode="&#xa5;" horiz-adv-x="995" 
d="M612 666h205v-107h-262l-18 -35v-84h280v-106h-280v-334h-119v334h-291v106h291v84l-19 35h-272v107h215l-305 563h131l297 -563h22l304 563h129z" />
    <glyph glyph-name="brokenbar" unicode="&#xa6;" horiz-adv-x="309" 
d="M41 698v703h111v-703h-111zM41 -193v701h111v-701h-111z" />
    <glyph glyph-name="section" unicode="&#xa7;" horiz-adv-x="1024" 
d="M608 881q34 0 68 -10.5t59 -28.5q11 -8 24.5 -21t26.5 -27.5t24 -28t17 -22.5q16 -23 22.5 -50t6.5 -58v-53q0 -31 -6.5 -58.5t-22.5 -50.5q-8 -11 -25.5 -29.5t-37.5 -35.5q37 -25 58.5 -64.5t21.5 -87.5v-29q0 -62 -31 -108q-6 -9 -16 -21t-21.5 -25t-23.5 -25t-23 -19
q-25 -19 -59 -29t-66 -10h-274q-32 0 -66 10t-59 29q-11 7 -24.5 20.5t-26.5 27.5t-24 27.5t-17 22.5q-10 12 -18 24.5t-11 20.5l106 37q6 -13 18 -28.5t25.5 -30t28.5 -27t27 -19.5q13 -8 35 -8h278q11 0 20 1.5t17 6.5q25 14 49.5 39.5t38.5 51.5q6 12 6 34v29
q0 31 -23 52.5t-55 23.5l-307 10q-34 0 -68 10t-59 29q-11 7 -24 20.5t-26.5 28t-24.5 28t-17 21.5q-29 45 -29 109v53q0 31 9 55t24 47q6 10 22.5 28.5t34.5 35.5q-46 28 -70 67t-24 95v28q0 63 31 109q6 8 16 20.5t21.5 25.5t23.5 24.5t23 19.5q25 19 59 29t66 10h262
q32 0 66 -10t59 -29q11 -8 24.5 -21t26.5 -27.5t24 -28t17 -21.5q9 -13 17.5 -25t11.5 -20l-107 -37q-6 13 -17.5 28.5t-25 30t-28.5 26.5t-27 19q-13 8 -35 8h-266q-11 0 -20 -1.5t-17 -6.5q-25 -14 -49.5 -39t-38.5 -51q-6 -12 -6 -35v-28q0 -31 23 -52.5t55 -23.5z
M745 631q0 11 -0.5 19.5t-3.5 15.5q-7 13 -18.5 27.5t-25 28.5t-28 25.5t-26.5 18.5q-13 8 -37 8l-256 8q-22 0 -37 -8q-12 -7 -26 -18.5t-27 -25t-24.5 -28.5t-18.5 -28q-6 -12 -6 -35v-45q0 -23 6 -35q7 -13 18.5 -28t24.5 -28.5t27 -25t26 -18.5q15 -8 37 -8l256 -9
q24 0 37 9q12 7 26.5 18.5t28 25t25 28.5t18.5 28q3 6 3.5 15t0.5 20v45z" />
    <glyph glyph-name="dieresis" unicode="&#xa8;" horiz-adv-x="743" 
d="M498 1081v158h155v-158h-155zM199 1081v158h155v-158h-155z" />
    <glyph glyph-name="copyright" unicode="&#xa9;" horiz-adv-x="1311" 
d="M895 416q-23 -28 -50.5 -58t-51.5 -49q-22 -15 -49 -29t-52 -14h-129q-32 0 -65 10.5t-58 28.5q-10 8 -23 21t-26 27t-24 27t-17 21q-31 48 -31 107v227q0 59 31 107q6 8 17 21.5t24 27.5t26 26.5t23 20.5q25 19 58 28t65 9h129q25 0 52 -13t49 -28q24 -19 50.5 -48
t49.5 -57l-102 -32q-8 9 -18.5 19t-21 19.5t-20 17t-16.5 11.5q-5 3 -12 3.5t-15 0.5h-123q-9 0 -18 -0.5t-17 -5.5q-12 -7 -26 -18t-27 -24.5t-24.5 -28t-18.5 -27.5q-3 -6 -4.5 -15t-1.5 -18v-219q0 -9 1.5 -19t4.5 -16q7 -13 18.5 -27.5t24.5 -28t27 -24.5t26 -18
q8 -5 17 -5.5t18 -0.5h123q8 0 15 0.5t12 3.5q7 4 16.5 11.5t20 17.5t20.5 21t19 22zM1126 266q0 -26 -6 -51t-20 -47q-9 -13 -26.5 -33.5t-38 -41.5t-41 -39.5t-33.5 -26.5q-22 -14 -52 -23.5t-55 -9.5h-504q-25 0 -54 9.5t-50 23.5q-14 8 -34.5 26.5t-41 39.5t-38 41.5
t-26.5 33.5q-14 22 -19 47t-5 51v695q0 26 5 51t19 47q9 13 26.5 34.5t38 43t41 40.5t34.5 27q21 14 50 23.5t54 9.5h504q25 0 55 -9.5t52 -23.5q13 -8 33.5 -27t41 -40.5t38 -43t26.5 -34.5q14 -22 20 -47t6 -51v-695zM1012 956q0 8 -2.5 16.5t-5.5 14.5q-10 18 -27.5 38.5
t-37 39.5t-38.5 34t-31 21q-9 6 -26 6h-484q-17 0 -26 -6q-12 -6 -30.5 -21t-37.5 -34t-36 -39.5t-27 -38.5q-6 -12 -6 -31v-686q0 -14 6 -26q10 -18 27 -38.5t36 -39.5t37.5 -34t30.5 -21q5 -4 11.5 -5.5t14.5 -1.5h484q8 0 14.5 1.5t11.5 5.5q12 6 31 21t39 34t38 39.5
t28 38.5q6 12 6 26v686z" />
    <glyph glyph-name="ordfeminine" unicode="&#xaa;" horiz-adv-x="762" 
d="M528 623q-3 14 -7.5 29t-6.5 30q-11 -12 -27.5 -24t-34.5 -22.5t-37 -17t-34 -6.5h-70q-28 0 -58.5 11t-53.5 26q-10 8 -23 20t-25 25t-22.5 25t-15.5 20q-14 22 -19.5 46t-5.5 53v180q0 29 5.5 54t19.5 46q5 8 15.5 20t22.5 25t25 25t23 20q23 14 53.5 24.5t58.5 10.5
h84q15 0 31 -5t31 -13t29 -17t26 -16v-2v45h109v-481q0 -34 5 -67t11 -64h-109zM512 811v244q-11 21 -37.5 43t-48.5 35q-8 5 -16.5 6.5t-14.5 1.5h-82q-6 0 -14 -1.5t-14 -6.5q-11 -6 -23 -16.5t-23.5 -22.5t-21.5 -25t-16 -25q-3 -6 -3.5 -13.5t-0.5 -16.5v-172
q0 -10 0.5 -17.5t3.5 -13.5q6 -12 16 -24.5t21.5 -24t23.5 -21.5t23 -16q6 -5 14 -6.5t14 -1.5h68q6 0 14.5 1.5t16.5 6.5q10 6 25 16t29.5 21.5t27 24t18.5 24.5z" />
    <glyph glyph-name="guillemotleft" unicode="&#xab;" horiz-adv-x="1114" 
d="M397 190l-295 316l295 319l121 -37l-268 -280l268 -283zM748 190l-295 316l295 319l120 -37l-268 -280l268 -283z" />
    <glyph glyph-name="logicalnot" unicode="&#xac;" horiz-adv-x="1120" 
d="M926 563v-348h-109v240h-745v106l854 2v0z" />
    <glyph glyph-name="registered" unicode="&#xae;" horiz-adv-x="1311" 
d="M1126 266q0 -26 -6 -51t-20 -47q-9 -13 -26.5 -33.5t-38 -41.5t-41 -39.5t-33.5 -26.5q-22 -14 -52 -23.5t-55 -9.5h-504q-25 0 -54 9.5t-50 23.5q-14 8 -34.5 26.5t-41 39.5t-38 41.5t-26.5 33.5q-14 22 -19 47t-5 51v695q0 26 5 51t19 47q9 13 26.5 34.5t38 43t41 40.5
t34.5 27q21 14 50 23.5t54 9.5h504q25 0 55 -9.5t52 -23.5q13 -8 33.5 -27t41 -40.5t38 -43t26.5 -34.5q14 -22 20 -47t6 -51v-695zM1012 956q0 8 -2.5 16.5t-5.5 14.5q-10 18 -27.5 38.5t-37 39.5t-38.5 34t-31 21q-9 6 -26 6h-484q-17 0 -26 -6q-12 -6 -30.5 -21
t-37.5 -34t-36 -39.5t-27 -38.5q-6 -12 -6 -31v-686q0 -14 6 -26q10 -18 27 -38.5t36 -39.5t37.5 -34t30.5 -21q5 -4 11.5 -5.5t14.5 -1.5h484q8 0 14.5 1.5t11.5 5.5q12 6 31 21t39 34t38 39.5t28 38.5q6 12 6 26v686zM885 723q0 -29 -6.5 -57.5t-22.5 -51.5q-5 -8 -18 -21
t-28.5 -26.5t-30.5 -26t-25 -20.5l-15 -10l152 -260h-129l-127 231h-182v-231h-113v741h291q32 0 65 -10t58 -29q10 -8 25 -22t30.5 -29.5t28.5 -30t18 -22.5q16 -23 22.5 -48.5t6.5 -54.5v-22zM776 745q0 21 -6 33q-7 13 -19 27t-26.5 27t-29.5 24t-27 18q-8 5 -18 7t-19 2
h-178v-293h178q9 0 19 1.5t18 6.5q12 7 27 17t29.5 22t26.5 25t19 26q3 6 4.5 16t1.5 19v22z" />
    <glyph glyph-name="macron" unicode="&#xaf;" horiz-adv-x="786" 
d="M94 1137v102h520v-102h-520z" />
    <glyph glyph-name="degree" unicode="&#xb0;" horiz-adv-x="766" 
d="M526 1198q0 -41 -15.5 -76t-42 -61.5t-62.5 -41.5t-76 -15q-41 0 -76 15t-61 41.5t-41 61.5t-15 76t15 76.5t41 62t61 41.5t76 15q40 0 76 -15t62.5 -41.5t42 -62t15.5 -76.5zM449 1198q0 24 -9.5 45.5t-26 37t-38 25t-45.5 9.5t-45 -9.5t-36.5 -25t-24.5 -37t-9 -45.5
t9 -45t24.5 -37t36.5 -25.5t45 -9.5t45.5 9.5t38 25.5t26 37t9.5 45z" />
    <glyph glyph-name="plusminus" unicode="&#xb1;" horiz-adv-x="1071" 
d="M528 457v-307h-106v307h-307v106h307v307h106v-307h308v-106h-308zM123 -139v104h704v-104h-704z" />
    <glyph glyph-name="uni00B2" unicode="&#xb2;" horiz-adv-x="621" 
d="M553 1028q0 -30 -9 -51t-25 -35.5t-38 -24.5t-47 -18l-235 -78q-25 -12 -35 -25.5t-10 -41.5v-25h397v-96h-496v129q0 59 31 96.5t88 54.5l225 70q12 6 22.5 11t18.5 11t12.5 14.5t4.5 22.5v13q0 9 -0.5 10.5t-3.5 7.5q-13 23 -36 37t-44 27q-6 3 -15 4.5t-18 1.5h-92
q-6 0 -14 -0.5t-13 -3.5q-23 -13 -53 -35.5t-57 -42.5l-66 65q32 25 57 45.5t54 38.5q20 13 46.5 21t49.5 8h92q29 0 54 -9.5t48 -25.5q22 -14 45.5 -34.5t34.5 -34.5q16 -20 20.5 -35t6.5 -41v-31z" />
    <glyph glyph-name="uni00B3" unicode="&#xb3;" horiz-adv-x="621" 
d="M557 817q0 -26 -5.5 -43t-21.5 -37q-5 -7 -15 -16t-21 -18.5t-22.5 -18.5t-20.5 -16q-22 -17 -49 -25t-56 -8h-92q-23 0 -48.5 7t-45.5 20q-29 18 -55 38.5t-58 44.5l68 66q28 -20 56.5 -42.5t51.5 -35.5q5 -3 13 -3.5t14 -0.5h92q9 0 18 1.5t15 4.5q21 13 44 26t36 36
q3 6 5.5 7.5t0.5 10.5l-2 21q-3 27 -18 36t-38 21h-163v86h163q12 6 21.5 11t16.5 11t11.5 14.5t6.5 22.5l2 17q2 9 -0.5 11.5t-5.5 8.5q-13 23 -36 37t-44 27q-6 3 -15 4.5t-18 1.5h-92q-6 0 -14 -1.5t-13 -4.5q-23 -13 -51.5 -35.5t-56.5 -42.5l-68 67q32 25 58 43.5
t55 36.5q20 13 45.5 21t48.5 8h92q29 0 54.5 -8.5t48.5 -24.5q20 -14 45 -33.5t36 -33.5q16 -20 21.5 -36t5.5 -42v-33q0 -62 -35 -92q35 -35 35 -86v-31z" />
    <glyph glyph-name="acute" unicode="&#xb4;" horiz-adv-x="760" 
d="M287 1079l174 228h143l-209 -265z" />
    <glyph glyph-name="uni00B5" unicode="&#xb5;" horiz-adv-x="991" 
d="M782 145l17 -145h-109l-14 100q-19 -20 -39 -37.5t-39 -29.5q-22 -16 -48.5 -29.5t-53.5 -13.5h-109q-26 0 -53.5 9.5t-48.5 25.5q-19 14 -39.5 33t-40.5 40v-442h-111v1225h111v-641q0 -3 1 -5.5t3 -5.5q11 -19 31.5 -38.5t44 -36t45.5 -30t35 -20.5q6 -3 13 -5.5
t15 -2.5h96q17 0 29 6q13 7 34 20.5t43.5 30t43.5 35.5t33 37v656h110v-736z" />
    <glyph glyph-name="paragraph" unicode="&#xb6;" horiz-adv-x="1059" 
d="M799 0v553h-125v-553h-109v553h-219q-32 0 -65 10t-58 29q-10 7 -25.5 21.5t-31 30.5t-29 31t-18.5 23q-31 46 -31 107v170q0 29 7.5 56t23.5 50q5 9 18.5 24t29 31.5t31 31t25.5 22.5q25 18 58 28.5t65 10.5h572v-1229h-119zM799 1114h-125v-446h125v446zM565 1114h-217
q-9 0 -19 -0.5t-18 -5.5q-12 -7 -26 -19t-27.5 -26t-24.5 -29t-18 -28q-3 -7 -4.5 -16.5t-1.5 -18.5v-162q0 -9 1.5 -19t4.5 -16q7 -13 18 -27.5t24.5 -28t27.5 -24.5t26 -18q8 -5 18 -6.5t19 -1.5h217v446z" />
    <glyph glyph-name="periodcentered" unicode="&#xb7;" horiz-adv-x="596" 
d="M147 434v160h160v-160h-160z" />
    <glyph glyph-name="cedilla" unicode="&#xb8;" horiz-adv-x="831" 
d="M340 -344h-121l170 266l98 -39z" />
    <glyph glyph-name="uni00B9" unicode="&#xb9;" horiz-adv-x="621" 
d="M135 633v84h121v430h-121v84h205v-514h117v-84h-322z" />
    <glyph glyph-name="ordmasculine" unicode="&#xba;" horiz-adv-x="801" 
d="M618 838q0 -29 -5 -53t-19 -46q-5 -8 -15.5 -20t-22.5 -25t-25 -25t-23 -20q-22 -15 -53 -26t-62 -11h-84q-28 0 -58.5 11t-53.5 26q-10 8 -23 20t-25 25t-22.5 25t-15.5 20q-14 22 -19.5 46t-5.5 53v180q0 29 5.5 54t19.5 46q5 8 15.5 20t22.5 25t25 25t23 20
q23 14 53.5 24.5t58.5 10.5h84q31 0 62 -10.5t53 -24.5q10 -8 23 -20t25 -25t22.5 -25t15.5 -20q14 -21 19 -46t5 -54v-180zM510 1014v18.5t-2 14.5v-3q-5 11 -15 24t-22 25t-24.5 23t-22.5 17q-8 5 -16.5 6.5t-14.5 1.5h-82q-6 0 -14 -1.5t-14 -6.5q-11 -6 -23 -16.5
t-23.5 -22.5t-21.5 -25t-16 -25q-3 -6 -3.5 -13.5t-0.5 -16.5v-172q0 -10 0.5 -17.5t3.5 -13.5q6 -12 16 -24.5t21.5 -24t23.5 -21.5t23 -16q6 -5 14 -6.5t14 -1.5h82q6 0 14.5 1.5t16.5 6.5q10 6 22.5 16t24.5 22t22 24.5t15 23.5v-2q2 6 2 14v19v172z" />
    <glyph glyph-name="guillemotright" unicode="&#xbb;" horiz-adv-x="1114" 
d="M453 225l268 283l-268 280l120 37l295 -319l-295 -316zM102 225l269 283l-269 280l121 37l295 -319l-295 -316z" />
    <glyph glyph-name="onequarter" unicode="&#xbc;" horiz-adv-x="1350" 
d="M391 0h-125l643 1229h125zM135 633v84h121v428h-121v84h205v-512h117v-84h-322zM1051 147v-147h-84v147h-303v86l303 373h84v-373h100v-86h-100zM967 473l-195 -240h195v240z" />
    <glyph glyph-name="onehalf" unicode="&#xbd;" horiz-adv-x="1348" 
d="M391 0h-125l643 1231h125zM135 633v84h121v428h-121v84h205v-512h117v-84h-322zM1262 395q0 -30 -9 -51t-25 -35.5t-38 -24.5t-47 -18l-236 -78q-25 -12 -35 -25.5t-10 -41.5v-25h398v-96h-496v129q0 59 31 97t88 55l225 69l22 11t18 11.5t12.5 15t4.5 22.5v12
q0 9 -0.5 10.5t-3.5 7.5q-12 23 -35 37t-45 27q-12 6 -32 6h-93q-6 0 -13.5 -0.5t-12.5 -3.5q-23 -13 -53 -35.5t-58 -42.5l-65 66q32 24 56.5 44.5t53.5 39.5q20 12 47 20t50 8h92q29 0 54 -9.5t48 -25.5q22 -14 45.5 -34.5t34.5 -34.5q15 -20 20 -35t7 -41v-31z" />
    <glyph glyph-name="threequarters" unicode="&#xbe;" horiz-adv-x="1350" 
d="M391 0h-125l643 1231h125zM557 817q0 -26 -5.5 -43t-21.5 -37q-5 -7 -15 -16t-21 -18.5t-22.5 -18.5t-20.5 -16q-22 -17 -49 -25t-56 -8h-92q-23 0 -48.5 7t-45.5 20q-29 18 -55 38.5t-58 44.5l68 66q28 -20 56.5 -42.5t51.5 -35.5q5 -3 13 -3.5t14 -0.5h92q9 0 18 1.5
t15 4.5q21 13 44 26t36 36q3 6 5.5 7.5t0.5 10.5l-2 21q-3 27 -18 36t-38 21h-163v86h163q12 6 21.5 11t16.5 11t11.5 14.5t6.5 22.5l2 17q2 9 -0.5 11.5t-5.5 8.5q-13 23 -36 37t-44 27q-6 3 -15 4.5t-18 1.5h-92q-6 0 -14 -1.5t-13 -4.5q-23 -13 -51.5 -35.5t-56.5 -42.5
l-68 67q32 25 58 43.5t55 36.5q20 13 45.5 21t48.5 8h92q29 0 54.5 -8.5t48.5 -24.5q20 -14 45 -33.5t36 -33.5q16 -20 21.5 -36t5.5 -42v-33q0 -62 -35 -92q35 -35 35 -86v-31zM1051 147v-147h-84v147h-303v86l303 373h84v-373h100v-86h-100zM967 473l-195 -240h195v240z
" />
    <glyph glyph-name="questiondown" unicode="&#xbf;" horiz-adv-x="932" 
d="M397 1071v158h158v-158h-158zM872 236q-9 -22 -21.5 -43.5t-23.5 -36.5t-26 -33t-32 -36t-35 -34t-34 -26q-21 -14 -51 -23.5t-55 -9.5h-250q-32 0 -66 10t-59 29q-10 7 -25 22t-30.5 31.5t-28.5 31.5t-18 23q-16 23 -22.5 50.5t-6.5 56.5v141q0 65 36.5 115t90.5 78
l137 71q28 14 47 40t19 57v131h119v-142q0 -65 -35.5 -111.5t-95.5 -78.5l-138 -74q-26 -14 -43.5 -37.5t-17.5 -54.5v-131q0 -9 1.5 -19t4.5 -16q7 -13 18 -28t24.5 -28.5t27.5 -25t26 -18.5q8 -5 18 -6.5t19 -1.5h244q8 0 15.5 1.5t12.5 4.5q16 8 36.5 25t40 38.5t36.5 45
t27 44.5z" />
    <glyph glyph-name="Agrave" unicode="&#xc0;" horiz-adv-x="1100" 
d="M874 0l-92 285h-569l-94 -285h-125l412 1229h184l411 -1229h-127zM250 399h495l-235 713h-27zM526 1335l-209 264h144l174 -227z" />
    <glyph glyph-name="Aacute" unicode="&#xc1;" horiz-adv-x="1100" 
d="M874 0l-92 285h-569l-94 -285h-125l412 1229h184l411 -1229h-127zM250 399h495l-235 713h-27zM342 1366l174 227h143l-208 -264z" />
    <glyph glyph-name="Acircumflex" unicode="&#xc2;" horiz-adv-x="1100" 
d="M874 0l-92 285h-569l-94 -285h-125l412 1229h184l411 -1229h-127zM250 399h495l-235 713h-27zM250 1352l190 237h117l191 -237h-140l-110 139l-109 -139h-139z" />
    <glyph glyph-name="Atilde" unicode="&#xc3;" horiz-adv-x="1100" 
d="M874 0l-92 285h-569l-94 -285h-125l412 1229h184l411 -1229h-127zM250 399h495l-235 713h-27zM676 1372q-9 29 -36.5 42.5t-59.5 8.5l-150 -37q-36 -9 -71.5 -4t-65.5 21.5t-52.5 44t-33.5 63.5l104 25q10 -29 37.5 -42.5t59.5 -8.5l149 37q36 9 71.5 4t65.5 -21.5
t52.5 -44t33.5 -63.5z" />
    <glyph glyph-name="Adieresis" unicode="&#xc4;" horiz-adv-x="1100" 
d="M874 0l-92 285h-569l-94 -285h-125l412 1229h184l411 -1229h-127zM250 399h495l-235 713h-27zM573 1354v157h156v-157h-156zM274 1354v157h156v-157h-156z" />
    <glyph glyph-name="Aring" unicode="&#xc5;" horiz-adv-x="1100" 
d="M874 0l-92 285h-569l-94 -285h-125l412 1229h184l411 -1229h-127zM250 399h495l-235 713h-27zM692 1534q0 -41 -15.5 -76.5t-42 -62t-62.5 -41.5t-76 -15q-41 0 -76 15t-61 41.5t-41 62t-15 76.5q0 40 15 76t41 62t61 41.5t76 15.5q40 0 76 -15.5t62.5 -41.5t42 -62
t15.5 -76zM614 1534q0 24 -9.5 45t-26 37t-37.5 25.5t-45 9.5t-45 -9.5t-36.5 -25.5t-24.5 -37t-9 -45t9 -45.5t24.5 -37t36.5 -25t45 -9.5t45 9.5t37.5 25t26 37t9.5 45.5z" />
    <glyph glyph-name="AE" unicode="&#xc6;" horiz-adv-x="1522" 
d="M635 0v283h-420l-92 -283h-129l412 1229h901v-115h-553v-442h524v-115h-524v-442h553v-115h-672zM485 1112l-235 -715h385v715h-150z" />
    <glyph glyph-name="Ccedilla" unicode="&#xc7;" horiz-adv-x="1069" 
d="M90 0zM911 231q-9 -21 -22.5 -42.5t-24.5 -36.5t-26 -33t-32 -36t-35 -34t-34 -26q-21 -14 -50 -23.5t-54 -9.5h-271q-24 0 -54 9.5t-52 23.5q-14 8 -34.5 26.5t-41 39.5t-38 41.5t-25.5 33.5q-14 22 -20.5 47t-6.5 51v701q0 26 6.5 51t20.5 47q8 13 25.5 34t38 42.5
t41 40t34.5 26.5q22 14 51 23.5t53 9.5h273q25 0 54 -9.5t50 -23.5q16 -10 34 -26t35 -34t32 -36t26 -33t24.5 -36.5t22.5 -43.5l-118 -34q-9 21 -26 45t-36.5 45.5t-39.5 39t-36 25.5q-5 3 -12.5 4.5t-15.5 1.5h-256q-18 0 -27 -6q-12 -6 -30 -20.5t-36.5 -32.5t-35.5 -38
t-27 -38q-6 -12 -6 -29v-692q0 -14 6 -26q10 -18 27 -38t35.5 -38t36.5 -32.5t30 -20.5q8 -7 27 -7h256q8 0 15.5 1.5t12.5 5.5q16 8 35.5 25.5t38.5 39t36 44.5t28 44zM446 -344h-121l170 266l98 -39z" />
    <glyph glyph-name="Egrave" unicode="&#xc8;" horiz-adv-x="1026" 
d="M100 0v1229h705v-115h-586v-442h555v-115h-555v-442h586v-115h-705zM465 1329l-209 264h143l174 -227z" />
    <glyph glyph-name="Eacute" unicode="&#xc9;" horiz-adv-x="1026" 
d="M100 0v1229h705v-115h-586v-442h555v-115h-555v-442h586v-115h-705zM334 1366l174 227h143l-209 -264z" />
    <glyph glyph-name="Ecircumflex" unicode="&#xca;" horiz-adv-x="1026" 
d="M100 0v1229h705v-115h-586v-442h555v-115h-555v-442h586v-115h-705zM215 1352l191 237h116l191 -237h-140l-110 139l-109 -139h-139z" />
    <glyph glyph-name="Edieresis" unicode="&#xcb;" horiz-adv-x="1026" 
d="M100 0v1229h705v-115h-586v-442h555v-115h-555v-442h586v-115h-705zM551 1354v157h156v-157h-156zM252 1354v157h156v-157h-156z" />
    <glyph glyph-name="Igrave" unicode="&#xcc;" horiz-adv-x="471" 
d="M100 0v1229h119v-1229h-119zM145 1329l-208 264h143l174 -227z" />
    <glyph glyph-name="Iacute" unicode="&#xcd;" horiz-adv-x="471" 
d="M100 0v1229h119v-1229h-119zM45 1366l174 227h143l-208 -264z" />
    <glyph glyph-name="Icircumflex" unicode="&#xce;" horiz-adv-x="471" 
d="M100 0v1229h119v-1229h-119zM-90 1352l190 237h117l191 -237h-140l-110 139l-109 -139h-139z" />
    <glyph glyph-name="Idieresis" unicode="&#xcf;" horiz-adv-x="471" 
d="M100 0v1229h119v-1229h-119zM231 1364v158h156v-158h-156zM-68 1364v158h156v-158h-156z" />
    <glyph glyph-name="Eth" unicode="&#xd0;" horiz-adv-x="1176" 
d="M946 1053q14 -22 19.5 -47.5t5.5 -51.5v-682q0 -26 -5.5 -51t-19.5 -47q-8 -13 -25.5 -33.5t-38 -41.5t-41 -39.5t-34.5 -26.5q-22 -14 -51 -23.5t-54 -9.5h-540v557h-178v115h178v557h540q25 0 54 -8.5t51 -22.5q14 -8 34.5 -27t41 -41t38 -43t25.5 -34zM852 950
q0 19 -6 31q-10 18 -26.5 37.5t-34.5 37.5t-36 32t-30 20q-5 3 -12 4.5t-15 1.5h-411v-442h282v-115h-282v-442h411q8 0 15 1.5t12 4.5q12 6 30 20.5t36 32.5t34.5 38t26.5 38q6 12 6 26v674z" />
    <glyph glyph-name="Ntilde" unicode="&#xd1;" horiz-adv-x="1128" 
d="M752 0l-535 1049v-1049h-115v1229h158l531 -1059v1059h114v-1229h-153zM690 1372q-9 29 -36.5 42.5t-59.5 8.5l-150 -37q-36 -9 -71.5 -4t-65.5 21.5t-52.5 44t-33.5 63.5l105 25q9 -29 36.5 -42.5t59.5 -8.5l149 37q36 9 71.5 4t66 -21.5t53 -44t33.5 -63.5z" />
    <glyph glyph-name="Ograve" unicode="&#xd2;" horiz-adv-x="1155" 
d="M956 264q0 -26 -6 -52t-20 -48q-9 -13 -26.5 -33.5t-38 -41.5t-41 -39.5t-33.5 -26.5q-22 -14 -52 -23.5t-55 -9.5h-324q-24 0 -53 9.5t-51 23.5q-14 8 -34.5 26.5t-41.5 39.5t-39 41.5t-26 33.5q-14 22 -19.5 48t-5.5 52v697q0 26 5.5 52t19.5 48q8 13 26 34t39 42.5
t41.5 40t34.5 26.5q22 14 51 23.5t53 9.5h324q25 0 55 -9.5t52 -23.5q13 -8 33.5 -26.5t41 -40t38 -42.5t26.5 -34q14 -22 20 -48t6 -52v-697zM838 956q0 8 -1.5 16.5t-5.5 14.5q-10 18 -26.5 38t-35.5 38t-37 32.5t-30 20.5q-9 6 -26 6h-305q-18 0 -27 -6q-12 -6 -30 -20.5
t-36 -32.5t-34.5 -38t-26.5 -38q-3 -6 -5.5 -14.5t-2.5 -16.5v-690q0 -8 2.5 -14t5.5 -12q10 -18 26.5 -38t34.5 -38t36 -32.5t30 -20.5q8 -7 27 -7h305q8 0 14.5 1.5t11.5 5.5q12 6 30 20.5t37 32.5t35.5 38t26.5 38q7 11 7 26v690zM539 1329l-209 264h143l174 -227z" />
    <glyph glyph-name="Oacute" unicode="&#xd3;" horiz-adv-x="1155" 
d="M956 264q0 -26 -6 -52t-20 -48q-9 -13 -26.5 -33.5t-38 -41.5t-41 -39.5t-33.5 -26.5q-22 -14 -52 -23.5t-55 -9.5h-324q-24 0 -53 9.5t-51 23.5q-14 8 -34.5 26.5t-41.5 39.5t-39 41.5t-26 33.5q-14 22 -19.5 48t-5.5 52v697q0 26 5.5 52t19.5 48q8 13 26 34t39 42.5
t41.5 40t34.5 26.5q22 14 51 23.5t53 9.5h324q25 0 55 -9.5t52 -23.5q13 -8 33.5 -26.5t41 -40t38 -42.5t26.5 -34q14 -22 20 -48t6 -52v-697zM838 956q0 8 -1.5 16.5t-5.5 14.5q-10 18 -26.5 38t-35.5 38t-37 32.5t-30 20.5q-9 6 -26 6h-305q-18 0 -27 -6q-12 -6 -30 -20.5
t-36 -32.5t-34.5 -38t-26.5 -38q-3 -6 -5.5 -14.5t-2.5 -16.5v-690q0 -8 2.5 -14t5.5 -12q10 -18 26.5 -38t34.5 -38t36 -32.5t30 -20.5q8 -7 27 -7h305q8 0 14.5 1.5t11.5 5.5q12 6 30 20.5t37 32.5t35.5 38t26.5 38q7 11 7 26v690zM367 1366l174 227h143l-209 -264z" />
    <glyph glyph-name="Ocircumflex" unicode="&#xd4;" horiz-adv-x="1155" 
d="M956 264q0 -26 -6 -52t-20 -48q-9 -13 -26.5 -33.5t-38 -41.5t-41 -39.5t-33.5 -26.5q-22 -14 -52 -23.5t-55 -9.5h-324q-24 0 -53 9.5t-51 23.5q-14 8 -34.5 26.5t-41.5 39.5t-39 41.5t-26 33.5q-14 22 -19.5 48t-5.5 52v697q0 26 5.5 52t19.5 48q8 13 26 34t39 42.5
t41.5 40t34.5 26.5q22 14 51 23.5t53 9.5h324q25 0 55 -9.5t52 -23.5q13 -8 33.5 -26.5t41 -40t38 -42.5t26.5 -34q14 -22 20 -48t6 -52v-697zM838 956q0 8 -1.5 16.5t-5.5 14.5q-10 18 -26.5 38t-35.5 38t-37 32.5t-30 20.5q-9 6 -26 6h-305q-18 0 -27 -6q-12 -6 -30 -20.5
t-36 -32.5t-34.5 -38t-26.5 -38q-3 -6 -5.5 -14.5t-2.5 -16.5v-690q0 -8 2.5 -14t5.5 -12q10 -18 26.5 -38t34.5 -38t36 -32.5t30 -20.5q8 -7 27 -7h305q8 0 14.5 1.5t11.5 5.5q12 6 30 20.5t37 32.5t35.5 38t26.5 38q7 11 7 26v690zM285 1352l190 237h117l190 -237h-139
l-111 139l-108 -139h-139z" />
    <glyph glyph-name="Otilde" unicode="&#xd5;" horiz-adv-x="1155" 
d="M956 264q0 -26 -6 -52t-20 -48q-9 -13 -26.5 -33.5t-38 -41.5t-41 -39.5t-33.5 -26.5q-22 -14 -52 -23.5t-55 -9.5h-324q-24 0 -53 9.5t-51 23.5q-14 8 -34.5 26.5t-41.5 39.5t-39 41.5t-26 33.5q-14 22 -19.5 48t-5.5 52v697q0 26 5.5 52t19.5 48q8 13 26 34t39 42.5
t41.5 40t34.5 26.5q22 14 51 23.5t53 9.5h324q25 0 55 -9.5t52 -23.5q13 -8 33.5 -26.5t41 -40t38 -42.5t26.5 -34q14 -22 20 -48t6 -52v-697zM838 956q0 8 -1.5 16.5t-5.5 14.5q-10 18 -26.5 38t-35.5 38t-37 32.5t-30 20.5q-9 6 -26 6h-305q-18 0 -27 -6q-12 -6 -30 -20.5
t-36 -32.5t-34.5 -38t-26.5 -38q-3 -6 -5.5 -14.5t-2.5 -16.5v-690q0 -8 2.5 -14t5.5 -12q10 -18 26.5 -38t34.5 -38t36 -32.5t30 -20.5q8 -7 27 -7h305q8 0 14.5 1.5t11.5 5.5q12 6 30 20.5t37 32.5t35.5 38t26.5 38q7 11 7 26v690zM709 1372q-10 29 -37.5 42.5t-59.5 8.5
l-149 -37q-36 -9 -71.5 -4t-65.5 21.5t-53 44t-33 63.5l104 25q9 -29 36.5 -42.5t59.5 -8.5l150 37q36 9 71.5 4t65.5 -21.5t52.5 -44t33.5 -63.5z" />
    <glyph glyph-name="Odieresis" unicode="&#xd6;" horiz-adv-x="1155" 
d="M956 264q0 -26 -6 -52t-20 -48q-9 -13 -26.5 -33.5t-38 -41.5t-41 -39.5t-33.5 -26.5q-22 -14 -52 -23.5t-55 -9.5h-324q-24 0 -53 9.5t-51 23.5q-14 8 -34.5 26.5t-41.5 39.5t-39 41.5t-26 33.5q-14 22 -19.5 48t-5.5 52v697q0 26 5.5 52t19.5 48q8 13 26 34t39 42.5
t41.5 40t34.5 26.5q22 14 51 23.5t53 9.5h324q25 0 55 -9.5t52 -23.5q13 -8 33.5 -26.5t41 -40t38 -42.5t26.5 -34q14 -22 20 -48t6 -52v-697zM838 956q0 8 -1.5 16.5t-5.5 14.5q-10 18 -26.5 38t-35.5 38t-37 32.5t-30 20.5q-9 6 -26 6h-305q-18 0 -27 -6q-12 -6 -30 -20.5
t-36 -32.5t-34.5 -38t-26.5 -38q-3 -6 -5.5 -14.5t-2.5 -16.5v-690q0 -8 2.5 -14t5.5 -12q10 -18 26.5 -38t34.5 -38t36 -32.5t30 -20.5q8 -7 27 -7h305q8 0 14.5 1.5t11.5 5.5q12 6 30 20.5t37 32.5t35.5 38t26.5 38q7 11 7 26v690zM594 1354v157h156v-157h-156zM295 1354
v157h156v-157h-156z" />
    <glyph glyph-name="multiply" unicode="&#xd7;" horiz-adv-x="881" 
d="M758 233l-78 -77l-274 274l-273 -274l-78 77l273 275l-271 270l78 78l271 -270l272 272l78 -80l-273 -270l275 -275v0z" />
    <glyph glyph-name="Oslash" unicode="&#xd8;" horiz-adv-x="1178" 
d="M977 268q0 -26 -6.5 -52t-20.5 -48q-8 -13 -25.5 -33.5t-37.5 -41.5t-40 -39.5t-34 -26.5q-22 -14 -52 -23.5t-54 -9.5h-349q-18 0 -39.5 5.5t-39.5 14.5l-37 -71h-131l75 143q-23 23 -42.5 45.5t-28.5 36.5q-14 22 -19.5 48t-5.5 52v693q0 26 5.5 52t19.5 48
q8 13 25.5 34t38 42.5t41 40t34.5 26.5q22 14 51 23.5t53 9.5h349q18 0 38.5 -5t40.5 -13l31 57h129l-69 -129q23 -23 43.5 -47t29.5 -39q14 -22 20.5 -48t6.5 -52v-693zM858 956q0 19 -6 31q-6 11 -15 22t-20 23l-481 -911l6 -6q9 -6 27 -6h329q18 0 27 6q12 6 30 20.5
t36 32.5t34.5 38t26.5 38q6 12 6 26v686zM725 1114q-8 8 -27 8h-329q-18 0 -27 -6q-12 -6 -29.5 -20.5t-35.5 -32.5t-34 -38t-26 -38q-3 -6 -5.5 -14.5t-2.5 -16.5v-686q0 -8 2.5 -14t5.5 -12q6 -11 14 -21.5t17 -21.5l481 909z" />
    <glyph glyph-name="Ugrave" unicode="&#xd9;" horiz-adv-x="1096" 
d="M915 262q0 -26 -5 -51t-19 -47q-9 -13 -26.5 -33.5t-38 -41.5t-41 -39.5t-33.5 -26.5q-22 -14 -51 -23.5t-54 -9.5h-274q-25 0 -55 9.5t-52 23.5q-14 8 -34 26.5t-40.5 39.5t-38 41.5t-26.5 33.5q-27 43 -27 98v967h119v-963q0 -8 2.5 -14t5.5 -12q10 -18 27 -38
t35.5 -38t36.5 -32.5t30 -20.5q5 -4 12 -5.5t15 -1.5h254q17 0 27 7q12 6 29 20.5t35 32.5t34 38t26 38q4 6 6.5 12t2.5 14v963h118v-967zM514 1329l-209 264h144l174 -227z" />
    <glyph glyph-name="Uacute" unicode="&#xda;" horiz-adv-x="1096" 
d="M915 262q0 -26 -5 -51t-19 -47q-9 -13 -26.5 -33.5t-38 -41.5t-41 -39.5t-33.5 -26.5q-22 -14 -51 -23.5t-54 -9.5h-274q-25 0 -55 9.5t-52 23.5q-14 8 -34 26.5t-40.5 39.5t-38 41.5t-26.5 33.5q-27 43 -27 98v967h119v-963q0 -8 2.5 -14t5.5 -12q10 -18 27 -38
t35.5 -38t36.5 -32.5t30 -20.5q5 -4 12 -5.5t15 -1.5h254q17 0 27 7q12 6 29 20.5t35 32.5t34 38t26 38q4 6 6.5 12t2.5 14v963h118v-967zM352 1366l174 227h144l-209 -264z" />
    <glyph glyph-name="Ucircumflex" unicode="&#xdb;" horiz-adv-x="1096" 
d="M915 262q0 -26 -5 -51t-19 -47q-9 -13 -26.5 -33.5t-38 -41.5t-41 -39.5t-33.5 -26.5q-22 -14 -51 -23.5t-54 -9.5h-274q-25 0 -55 9.5t-52 23.5q-14 8 -34 26.5t-40.5 39.5t-38 41.5t-26.5 33.5q-27 43 -27 98v967h119v-963q0 -8 2.5 -14t5.5 -12q10 -18 27 -38
t35.5 -38t36.5 -32.5t30 -20.5q5 -4 12 -5.5t15 -1.5h254q17 0 27 7q12 6 29 20.5t35 32.5t34 38t26 38q4 6 6.5 12t2.5 14v963h118v-967zM250 1352l190 237h117l191 -237h-140l-110 139l-109 -139h-139z" />
    <glyph glyph-name="Udieresis" unicode="&#xdc;" horiz-adv-x="1096" 
d="M915 262q0 -26 -5 -51t-19 -47q-9 -13 -26.5 -33.5t-38 -41.5t-41 -39.5t-33.5 -26.5q-22 -14 -51 -23.5t-54 -9.5h-274q-25 0 -55 9.5t-52 23.5q-14 8 -34 26.5t-40.5 39.5t-38 41.5t-26.5 33.5q-27 43 -27 98v967h119v-963q0 -8 2.5 -14t5.5 -12q10 -18 27 -38
t35.5 -38t36.5 -32.5t30 -20.5q5 -4 12 -5.5t15 -1.5h254q17 0 27 7q12 6 29 20.5t35 32.5t34 38t26 38q4 6 6.5 12t2.5 14v963h118v-967zM582 1354v157h155v-157h-155zM283 1354v157h155v-157h-155z" />
    <glyph glyph-name="Yacute" unicode="&#xdd;" horiz-adv-x="915" 
d="M465 524v-524h-119v524l-381 705h131l310 -584l313 584h129zM252 1366l174 227h143l-209 -264z" />
    <glyph glyph-name="Thorn" unicode="&#xde;" horiz-adv-x="1069" 
d="M879 813q30 -47 30 -106v-181q0 -60 -30 -106q-6 -9 -19 -23.5t-29 -30.5t-31.5 -30.5t-25.5 -22.5q-25 -18 -57 -28.5t-64 -10.5h-434v-274h-119v1229h119v-268h434q32 0 64 -10.5t57 -28.5q10 -8 25.5 -22.5t31.5 -31t29 -31.5t19 -24zM791 530v172q0 10 -0.5 19.5
t-4.5 15.5q-7 13 -18.5 28t-25.5 29.5t-29 26.5t-27 19q-8 5 -16.5 5.5t-18.5 0.5h-432v-457h432q22 0 35 8q12 7 27 18.5t29 25t25.5 28t18.5 27.5q4 6 4.5 15.5t0.5 18.5z" />
    <glyph glyph-name="germandbls" unicode="&#xdf;" horiz-adv-x="1075" 
d="M911 227q0 -62 -30 -108q-6 -9 -16 -21t-21.5 -25t-24 -25t-22.5 -19q-25 -19 -59 -29t-66 -10h-226q-26 0 -55.5 7t-48.5 21l64 86q13 -8 36 -8h228q20 0 35 8q24 14 50 39.5t40 51.5q3 6 4.5 15.5t1.5 20.5v97q0 31 -23 52t-55 23l-129 9q-40 3 -73 18.5t-56 40t-36 57
t-13 70.5v57q0 62 30 109q4 6 18 19.5t31 28.5t33 29.5t25 22.5q15 16 28 29t19 27q2 3 3 9t1 17v39q0 11 -1.5 23t-4.5 18q-7 13 -18.5 27.5t-25 28t-28 24.5t-26.5 18q-8 5 -16 5.5t-19 0.5h-90q-15 0 -27 -6q-12 -7 -31 -23t-38.5 -36t-37.5 -42t-28 -40q-6 -12 -6 -31
v-841l-14 -111h-113l16 145v811q0 28 5.5 54.5t21.5 48.5q9 14 26.5 35t37.5 43t40 40.5t35 26.5q23 14 53 23.5t56 9.5h96q34 0 67 -9t58 -28q11 -8 24.5 -21t26.5 -27.5t24 -28t17 -21.5q16 -23 23.5 -51.5t7.5 -59.5v-33q0 -37 -7 -66.5t-26 -53.5q-5 -7 -15 -18
t-21.5 -22t-22.5 -20.5t-17 -13.5q-20 -16 -41.5 -37t-32.5 -41q-6 -12 -6 -35v-55q0 -31 23 -51t55 -25l129 -10q38 -2 70.5 -17t56.5 -39t37.5 -56.5t13.5 -69.5v-101z" />
    <glyph glyph-name="agrave" unicode="&#xe0;" 
d="M657 0l-12 102q-18 -20 -39.5 -38.5t-38.5 -30.5q-23 -17 -48.5 -30t-51.5 -13h-180q-35 0 -67.5 10t-57.5 29q-10 8 -23 21t-26 26.5t-24 26.5t-17 22q-31 46 -31 108v41q0 63 31 109q6 9 17 22t24 26.5t26 26.5t23 21q25 19 57.5 29t67.5 10h356v125q0 12 -1 20t-3 13
q-7 13 -18.5 28t-25 28.5t-28 25t-26.5 18.5q-15 8 -37 8h-193q-20 0 -35 -8q-12 -7 -25.5 -18.5t-27 -26t-25 -29.5t-20.5 -28l-106 35q5 8 12 20.5t18 26.5q7 10 18.5 23t24.5 27t26 26.5t24 21.5q24 19 55.5 28t66.5 9h189q35 0 68.5 -10t58.5 -29q12 -7 25.5 -19.5
t26 -27t23.5 -28t17 -21.5q17 -23 23 -51.5t6 -59.5v-500l14 -145h-111zM489 102q12 6 34 19.5t45 31t44 37t31 37.5v187h-354q-24 0 -37 -8q-12 -7 -26 -18.5t-26.5 -25t-23.5 -28t-18 -27.5q-6 -12 -6 -33v-41q0 -20 6 -32q7 -13 18 -27t23.5 -27.5t26.5 -24.5t26 -18
q13 -8 37 -8h172q16 0 28 6zM406 1042l-209 265h143l174 -228z" />
    <glyph glyph-name="aacute" unicode="&#xe1;" 
d="M657 0l-12 102q-18 -20 -39.5 -38.5t-38.5 -30.5q-23 -17 -48.5 -30t-51.5 -13h-180q-35 0 -67.5 10t-57.5 29q-10 8 -23 21t-26 26.5t-24 26.5t-17 22q-31 46 -31 108v41q0 63 31 109q6 9 17 22t24 26.5t26 26.5t23 21q25 19 57.5 29t67.5 10h356v125q0 12 -1 20t-3 13
q-7 13 -18.5 28t-25 28.5t-28 25t-26.5 18.5q-15 8 -37 8h-193q-20 0 -35 -8q-12 -7 -25.5 -18.5t-27 -26t-25 -29.5t-20.5 -28l-106 35q5 8 12 20.5t18 26.5q7 10 18.5 23t24.5 27t26 26.5t24 21.5q24 19 55.5 28t66.5 9h189q35 0 68.5 -10t58.5 -29q12 -7 25.5 -19.5
t26 -27t23.5 -28t17 -21.5q17 -23 23 -51.5t6 -59.5v-500l14 -145h-111zM489 102q12 6 34 19.5t45 31t44 37t31 37.5v187h-354q-24 0 -37 -8q-12 -7 -26 -18.5t-26.5 -25t-23.5 -28t-18 -27.5q-6 -12 -6 -33v-41q0 -20 6 -32q7 -13 18 -27t23.5 -27.5t26.5 -24.5t26 -18
q13 -8 37 -8h172q16 0 28 6zM287 1079l174 228h143l-209 -265z" />
    <glyph glyph-name="acircumflex" unicode="&#xe2;" 
d="M657 0l-12 102q-18 -20 -39.5 -38.5t-38.5 -30.5q-23 -17 -48.5 -30t-51.5 -13h-180q-35 0 -67.5 10t-57.5 29q-10 8 -23 21t-26 26.5t-24 26.5t-17 22q-31 46 -31 108v41q0 63 31 109q6 9 17 22t24 26.5t26 26.5t23 21q25 19 57.5 29t67.5 10h356v125q0 12 -1 20t-3 13
q-7 13 -18.5 28t-25 28.5t-28 25t-26.5 18.5q-15 8 -37 8h-193q-20 0 -35 -8q-12 -7 -25.5 -18.5t-27 -26t-25 -29.5t-20.5 -28l-106 35q5 8 12 20.5t18 26.5q7 10 18.5 23t24.5 27t26 26.5t24 21.5q24 19 55.5 28t66.5 9h189q35 0 68.5 -10t58.5 -29q12 -7 25.5 -19.5
t26 -27t23.5 -28t17 -21.5q17 -23 23 -51.5t6 -59.5v-500l14 -145h-111zM489 102q12 6 34 19.5t45 31t44 37t31 37.5v187h-354q-24 0 -37 -8q-12 -7 -26 -18.5t-26.5 -25t-23.5 -28t-18 -27.5q-6 -12 -6 -33v-41q0 -20 6 -32q7 -13 18 -27t23.5 -27.5t26.5 -24.5t26 -18
q13 -8 37 -8h172q16 0 28 6zM176 1065l191 238h116l191 -238h-139l-111 139l-109 -139h-139z" />
    <glyph glyph-name="atilde" unicode="&#xe3;" 
d="M657 0l-12 102q-18 -20 -39.5 -38.5t-38.5 -30.5q-23 -17 -48.5 -30t-51.5 -13h-180q-35 0 -67.5 10t-57.5 29q-10 8 -23 21t-26 26.5t-24 26.5t-17 22q-31 46 -31 108v41q0 63 31 109q6 9 17 22t24 26.5t26 26.5t23 21q25 19 57.5 29t67.5 10h356v125q0 12 -1 20t-3 13
q-7 13 -18.5 28t-25 28.5t-28 25t-26.5 18.5q-15 8 -37 8h-193q-20 0 -35 -8q-12 -7 -25.5 -18.5t-27 -26t-25 -29.5t-20.5 -28l-106 35q5 8 12 20.5t18 26.5q7 10 18.5 23t24.5 27t26 26.5t24 21.5q24 19 55.5 28t66.5 9h189q35 0 68.5 -10t58.5 -29q12 -7 25.5 -19.5
t26 -27t23.5 -28t17 -21.5q17 -23 23 -51.5t6 -59.5v-500l14 -145h-111zM489 102q12 6 34 19.5t45 31t44 37t31 37.5v187h-354q-24 0 -37 -8q-12 -7 -26 -18.5t-26.5 -25t-23.5 -28t-18 -27.5q-6 -12 -6 -33v-41q0 -20 6 -32q7 -13 18 -27t23.5 -27.5t26.5 -24.5t26 -18
q13 -8 37 -8h172q16 0 28 6zM616 1085q-9 29 -36.5 43t-59.5 9l-149 -37q-36 -9 -71.5 -4.5t-66 21t-53 44.5t-33.5 64l105 24q9 -29 36.5 -42.5t59.5 -8.5l150 37q36 9 71.5 4.5t65.5 -21.5t52.5 -44.5t33.5 -63.5z" />
    <glyph glyph-name="adieresis" unicode="&#xe4;" 
d="M657 0l-12 102q-18 -20 -39.5 -38.5t-38.5 -30.5q-23 -17 -48.5 -30t-51.5 -13h-180q-35 0 -67.5 10t-57.5 29q-10 8 -23 21t-26 26.5t-24 26.5t-17 22q-31 46 -31 108v41q0 63 31 109q6 9 17 22t24 26.5t26 26.5t23 21q25 19 57.5 29t67.5 10h356v125q0 12 -1 20t-3 13
q-7 13 -18.5 28t-25 28.5t-28 25t-26.5 18.5q-15 8 -37 8h-193q-20 0 -35 -8q-12 -7 -25.5 -18.5t-27 -26t-25 -29.5t-20.5 -28l-106 35q5 8 12 20.5t18 26.5q7 10 18.5 23t24.5 27t26 26.5t24 21.5q24 19 55.5 28t66.5 9h189q35 0 68.5 -10t58.5 -29q12 -7 25.5 -19.5
t26 -27t23.5 -28t17 -21.5q17 -23 23 -51.5t6 -59.5v-500l14 -145h-111zM489 102q12 6 34 19.5t45 31t44 37t31 37.5v187h-354q-24 0 -37 -8q-12 -7 -26 -18.5t-26.5 -25t-23.5 -28t-18 -27.5q-6 -12 -6 -33v-41q0 -20 6 -32q7 -13 18 -27t23.5 -27.5t26.5 -24.5t26 -18
q13 -8 37 -8h172q16 0 28 6zM498 1081v158h155v-158h-155zM199 1081v158h155v-158h-155z" />
    <glyph glyph-name="aring" unicode="&#xe5;" 
d="M657 0l-12 102q-18 -20 -39.5 -38.5t-38.5 -30.5q-23 -17 -48.5 -30t-51.5 -13h-180q-35 0 -67.5 10t-57.5 29q-10 8 -23 21t-26 26.5t-24 26.5t-17 22q-31 46 -31 108v41q0 63 31 109q6 9 17 22t24 26.5t26 26.5t23 21q25 19 57.5 29t67.5 10h356v125q0 12 -1 20t-3 13
q-7 13 -18.5 28t-25 28.5t-28 25t-26.5 18.5q-15 8 -37 8h-193q-20 0 -35 -8q-12 -7 -25.5 -18.5t-27 -26t-25 -29.5t-20.5 -28l-106 35q5 8 12 20.5t18 26.5q7 10 18.5 23t24.5 27t26 26.5t24 21.5q24 19 55.5 28t66.5 9h189q35 0 68.5 -10t58.5 -29q12 -7 25.5 -19.5
t26 -27t23.5 -28t17 -21.5q17 -23 23 -51.5t6 -59.5v-500l14 -145h-111zM489 102q12 6 34 19.5t45 31t44 37t31 37.5v187h-354q-24 0 -37 -8q-12 -7 -26 -18.5t-26.5 -25t-23.5 -28t-18 -27.5q-6 -12 -6 -33v-41q0 -20 6 -32q7 -13 18 -27t23.5 -27.5t26.5 -24.5t26 -18
q13 -8 37 -8h172q16 0 28 6zM614 1227q0 -41 -15.5 -76.5t-42 -62t-62.5 -41.5t-76 -15q-41 0 -76 15t-61 41.5t-41 62t-15 76.5q0 40 15 75.5t41 62t61 41.5t76 15q40 0 76 -15t62.5 -41.5t42 -62t15.5 -75.5zM537 1227q0 24 -9.5 45t-26 36.5t-38 25t-45.5 9.5t-45 -9.5
t-36.5 -25t-24.5 -36.5t-9 -45t9 -45.5t24.5 -37t36.5 -25t45 -9.5t45.5 9.5t38 25t26 37t9.5 45.5z" />
    <glyph glyph-name="ae" unicode="&#xe6;" horiz-adv-x="1530" 
d="M698 96q-15 -18 -33 -38t-32 -29q-25 -19 -59 -29t-68 -10h-219q-35 0 -67.5 10t-57.5 29q-10 8 -23 21t-26 26.5t-24 26.5t-17 22q-31 46 -31 108v41q0 63 31 109q6 9 17 22t24 26.5t26 26.5t23 21q25 19 57.5 29t67.5 10h356v137q0 13 -4 21q-7 13 -18.5 28t-25 28.5
t-28 25t-26.5 18.5q-15 8 -37 8h-193q-20 0 -35 -8q-12 -7 -25.5 -18.5t-27 -26t-25 -29.5t-20.5 -28l-106 35q5 8 12 20.5t18 26.5q7 10 18.5 23t24.5 27t26 26.5t24 21.5q24 19 55.5 28t66.5 9h189q35 0 68.5 -10t58.5 -29q15 -9 33.5 -28t33.5 -38q16 19 34 37t32 29
q25 19 59 29t68 10h205q34 0 68 -10t59 -29q10 -8 23.5 -21t26.5 -27.5t24.5 -28t17.5 -21.5q29 -45 29 -109v-244h-592v-174q0 -13 6 -22q7 -13 18.5 -28t25 -28.5t28 -25.5t26.5 -19q13 -8 35 -8h213q11 0 20 1.5t17 6.5q12 7 26 19.5t27 26.5t24 28.5t17 26.5l2 4
l109 -37q-7 -12 -13.5 -22.5t-15.5 -22.5q-6 -9 -17 -22.5t-24.5 -27.5t-27 -27.5t-23.5 -20.5q-25 -19 -58 -29t-67 -10h-209q-34 0 -68 10t-59 29q-14 9 -33 29t-35 38zM643 412h-354q-24 0 -37 -9q-12 -7 -26 -18t-26.5 -24t-23.5 -27t-18 -27q-6 -12 -6 -33v-41
q0 -20 6 -32q7 -13 18 -27t23.5 -27.5t26.5 -24.5t26 -18q13 -8 37 -8h215q22 0 37 8q12 7 26.5 19t28 25.5t25 28.5t18.5 28q4 8 4 16v191zM760 676q-6 -9 -6 -25v-143h481v133q0 11 -0.5 20t-3.5 15q-7 13 -19 28t-25.5 28.5t-27.5 25t-26 18.5q-15 8 -37 8h-203
q-22 0 -35 -8q-12 -7 -26.5 -18.5t-28 -25t-25 -28.5t-18.5 -28z" />
    <glyph glyph-name="ccedilla" unicode="&#xe7;" horiz-adv-x="934" 
d="M774 172q-9 -17 -22 -36.5t-29 -39t-34 -37t-36 -30.5q-24 -19 -57.5 -29t-67.5 -10h-209q-34 0 -68 10t-58 29q-11 7 -24.5 20.5t-26.5 27.5t-24.5 27.5t-17.5 22.5q-15 23 -21.5 50.5t-6.5 58.5v409q0 31 6.5 58.5t21.5 50.5q6 8 17.5 21.5t24.5 28t26.5 27.5t24.5 21
q24 19 58 29t68 10h203q34 0 67 -10t58 -29q19 -14 36.5 -32.5t33 -38t28.5 -39t23 -35.5l-106 -35q-6 13 -18 28.5t-25.5 30t-28.5 26.5t-27 19q-13 8 -37 8h-204q-24 0 -37 -8q-12 -7 -26 -18.5t-27.5 -25t-25 -28.5t-18.5 -28q-6 -12 -6 -35v-401q0 -23 6 -35
q7 -13 18 -28t24 -28.5t27 -25.5t26 -19q13 -8 36 -8h213q24 0 37 8q12 7 27 19.5t28.5 26.5t24.5 28.5t17 26.5l2 4zM383 -344h-121l170 266l98 -39z" />
    <glyph glyph-name="egrave" unicode="&#xe8;" horiz-adv-x="969" 
d="M676 205l2 4l108 -37q-6 -12 -12.5 -21.5t-15.5 -23.5q-6 -9 -17.5 -22.5t-24.5 -27.5t-26.5 -27.5t-23.5 -20.5q-25 -19 -58 -29t-67 -10h-209q-34 0 -68 10t-59 29q-11 7 -24.5 20.5t-26.5 27.5t-24 27.5t-17 22.5q-31 46 -31 109v409q0 63 31 109q6 8 17 21.5t24 28
t26.5 27.5t24.5 21q25 19 59 29t68 10h205q34 0 68 -10t59 -29q10 -8 23.5 -21t26.5 -27.5t24.5 -28t17.5 -21.5q15 -23 21.5 -50.5t6.5 -58.5v-252h-591v-153q0 -23 6 -35q7 -13 18 -28t24.5 -28.5t27.5 -25.5t26 -19q13 -8 35 -8h215q22 0 37 8q12 7 26 19.5t27 26.5
t24 28.5t17 26.5zM199 676q-6 -12 -6 -35v-143h481v143q0 11 -0.5 20t-3.5 15q-7 13 -19 28t-25.5 28.5t-28 25t-26.5 18.5q-13 8 -36 8h-203q-22 0 -35 -8q-12 -7 -26.5 -18.5t-28 -25t-25 -28.5t-18.5 -28zM406 1042l-209 265h143l174 -228z" />
    <glyph glyph-name="eacute" unicode="&#xe9;" horiz-adv-x="969" 
d="M676 205l2 4l108 -37q-6 -12 -12.5 -21.5t-15.5 -23.5q-6 -9 -17.5 -22.5t-24.5 -27.5t-26.5 -27.5t-23.5 -20.5q-25 -19 -58 -29t-67 -10h-209q-34 0 -68 10t-59 29q-11 7 -24.5 20.5t-26.5 27.5t-24 27.5t-17 22.5q-31 46 -31 109v409q0 63 31 109q6 8 17 21.5t24 28
t26.5 27.5t24.5 21q25 19 59 29t68 10h205q34 0 68 -10t59 -29q10 -8 23.5 -21t26.5 -27.5t24.5 -28t17.5 -21.5q15 -23 21.5 -50.5t6.5 -58.5v-252h-591v-153q0 -23 6 -35q7 -13 18 -28t24.5 -28.5t27.5 -25.5t26 -19q13 -8 35 -8h215q22 0 37 8q12 7 26 19.5t27 26.5
t24 28.5t17 26.5zM199 676q-6 -12 -6 -35v-143h481v143q0 11 -0.5 20t-3.5 15q-7 13 -19 28t-25.5 28.5t-28 25t-26.5 18.5q-13 8 -36 8h-203q-22 0 -35 -8q-12 -7 -26.5 -18.5t-28 -25t-25 -28.5t-18.5 -28zM287 1079l174 228h143l-209 -265z" />
    <glyph glyph-name="ecircumflex" unicode="&#xea;" horiz-adv-x="969" 
d="M676 205l2 4l108 -37q-6 -12 -12.5 -21.5t-15.5 -23.5q-6 -9 -17.5 -22.5t-24.5 -27.5t-26.5 -27.5t-23.5 -20.5q-25 -19 -58 -29t-67 -10h-209q-34 0 -68 10t-59 29q-11 7 -24.5 20.5t-26.5 27.5t-24 27.5t-17 22.5q-31 46 -31 109v409q0 63 31 109q6 8 17 21.5t24 28
t26.5 27.5t24.5 21q25 19 59 29t68 10h205q34 0 68 -10t59 -29q10 -8 23.5 -21t26.5 -27.5t24.5 -28t17.5 -21.5q15 -23 21.5 -50.5t6.5 -58.5v-252h-591v-153q0 -23 6 -35q7 -13 18 -28t24.5 -28.5t27.5 -25.5t26 -19q13 -8 35 -8h215q22 0 37 8q12 7 26 19.5t27 26.5
t24 28.5t17 26.5zM199 676q-6 -12 -6 -35v-143h481v143q0 11 -0.5 20t-3.5 15q-7 13 -19 28t-25.5 28.5t-28 25t-26.5 18.5q-13 8 -36 8h-203q-22 0 -35 -8q-12 -7 -26.5 -18.5t-28 -25t-25 -28.5t-18.5 -28zM180 1065l191 238h116l191 -238h-139l-111 139l-109 -139h-139z
" />
    <glyph glyph-name="edieresis" unicode="&#xeb;" horiz-adv-x="969" 
d="M676 205l2 4l108 -37q-6 -12 -12.5 -21.5t-15.5 -23.5q-6 -9 -17.5 -22.5t-24.5 -27.5t-26.5 -27.5t-23.5 -20.5q-25 -19 -58 -29t-67 -10h-209q-34 0 -68 10t-59 29q-11 7 -24.5 20.5t-26.5 27.5t-24 27.5t-17 22.5q-31 46 -31 109v409q0 63 31 109q6 8 17 21.5t24 28
t26.5 27.5t24.5 21q25 19 59 29t68 10h205q34 0 68 -10t59 -29q10 -8 23.5 -21t26.5 -27.5t24.5 -28t17.5 -21.5q15 -23 21.5 -50.5t6.5 -58.5v-252h-591v-153q0 -23 6 -35q7 -13 18 -28t24.5 -28.5t27.5 -25.5t26 -19q13 -8 35 -8h215q22 0 37 8q12 7 26 19.5t27 26.5
t24 28.5t17 26.5zM199 676q-6 -12 -6 -35v-143h481v143q0 11 -0.5 20t-3.5 15q-7 13 -19 28t-25.5 28.5t-28 25t-26.5 18.5q-13 8 -36 8h-203q-22 0 -35 -8q-12 -7 -26.5 -18.5t-28 -25t-25 -28.5t-18.5 -28zM498 1081v158h155v-158h-155zM199 1081v158h155v-158h-155z" />
    <glyph glyph-name="igrave" unicode="&#xec;" horiz-adv-x="422" 
d="M100 0v881h111v-881h-111zM86 1042l-209 265h143l175 -228z" />
    <glyph glyph-name="iacute" unicode="&#xed;" horiz-adv-x="422" 
d="M100 0v881h111v-881h-111zM98 1079l174 228h144l-209 -265z" />
    <glyph glyph-name="icircumflex" unicode="&#xee;" horiz-adv-x="422" 
d="M100 0v881h111v-881h-111zM-92 1065l190 238h117l191 -238h-140l-110 139l-109 -139h-139z" />
    <glyph glyph-name="idieresis" unicode="&#xef;" horiz-adv-x="422" 
d="M100 0v881h111v-881h-111zM229 1081v158h156v-158h-156zM-70 1081v158h156v-158h-156z" />
    <glyph glyph-name="eth" unicode="&#xf0;" horiz-adv-x="973" 
d="M778 242q0 -28 -6.5 -55t-21.5 -50q-6 -8 -19 -23t-28 -31.5t-29.5 -31.5t-24.5 -22q-25 -19 -56.5 -29t-62.5 -10h-198q-31 0 -62.5 10t-56.5 29q-10 7 -25 22t-30 31.5t-27.5 31.5t-17.5 23q-16 22 -23.5 49t-7.5 56v401q0 28 7.5 57t23.5 52q5 8 17.5 22.5t27.5 29.5
t30 28.5t25 21.5q25 19 56.5 28t62.5 9h153q25 0 56 -6t51 -23q41 -34 76 -82v58q0 32 -19.5 58.5t-48.5 41.5l-113 61l-116 -55l-24 40q-9 15 -16 28t-7 14l59 29q-48 24 -91 46.5t-91 47.5l49 92l246 -127q45 23 87 46.5t87 47.5l47 -88l-113 -61l45 -23
q60 -32 94.5 -78.5t34.5 -109.5v-606zM668 635l-9 16q-11 21 -30.5 41.5t-41 37.5t-42 30.5t-35.5 21.5q-3 3 -12 4.5t-19 1.5h-145q-24 0 -37 -8q-13 -7 -27.5 -18.5t-28 -25.5t-24.5 -29.5t-18 -30.5q-6 -12 -6 -35v-397q0 -23 6 -35q7 -14 18 -29t24.5 -29.5t28 -26.5
t27.5 -20t37 -8h194q22 0 35 8q12 8 26.5 20.5t28 27t25.5 29.5t19 28q6 12 6 35v391z" />
    <glyph glyph-name="ntilde" unicode="&#xf1;" horiz-adv-x="985" 
d="M674 0v641q0 11 -0.5 20t-3.5 15q-7 13 -19 28t-25.5 28.5t-28 25t-26.5 18.5q-13 8 -36 8h-146q-16 0 -29 -6q-13 -7 -34 -20t-43.5 -29.5t-43 -35.5t-32.5 -38v-655h-111v735l-14 146h111l12 -103q18 20 38.5 38.5t37.5 31.5q21 15 48.5 29t53.5 14h154q34 0 68 -10
t59 -29q10 -8 23.5 -21t26.5 -27.5t24.5 -28t17.5 -21.5q15 -23 21.5 -50.5t6.5 -58.5v-645h-110zM621 1085q-10 29 -37.5 43t-59.5 9l-149 -37q-36 -9 -71.5 -4.5t-65.5 21t-53 44.5t-33 64l104 24q9 -29 36.5 -42.5t59.5 -8.5l150 37q36 9 71.5 4.5t65.5 -21.5t52.5 -44.5
t33.5 -63.5z" />
    <glyph glyph-name="ograve" unicode="&#xf2;" horiz-adv-x="956" 
d="M772 236q0 -31 -6.5 -58.5t-22.5 -50.5q-6 -9 -17 -22.5t-24 -27.5t-26.5 -27.5t-24.5 -20.5q-25 -19 -59 -29t-68 -10h-205q-34 0 -68 10t-58 29q-11 7 -24.5 20.5t-26.5 27.5t-24.5 27.5t-17.5 22.5q-15 23 -21.5 50.5t-6.5 58.5v409q0 31 6.5 58.5t21.5 50.5
q6 8 17.5 21.5t24.5 28t26.5 27.5t24.5 21q24 19 58 29t68 10h205q34 0 68 -10t59 -29q11 -8 24.5 -21t26.5 -27.5t24 -28t17 -21.5q16 -23 22.5 -50.5t6.5 -58.5v-409zM662 641q0 11 -0.5 20t-4.5 15q-7 13 -18.5 28t-25 28.5t-28 25t-26.5 18.5q-13 8 -37 8h-200
q-24 0 -37 -8q-12 -7 -26 -18.5t-27.5 -25t-25 -28.5t-18.5 -28q-6 -12 -6 -35v-401q0 -23 6 -35q7 -13 18.5 -28t25 -28.5t27.5 -25.5t26 -19q13 -8 37 -8h200q24 0 37 8q12 7 26.5 19t28 25.5t25 28.5t18.5 28q4 6 4.5 15t0.5 20v401zM406 1042l-209 265h143l174 -228z
" />
    <glyph glyph-name="oacute" unicode="&#xf3;" horiz-adv-x="956" 
d="M772 236q0 -31 -6.5 -58.5t-22.5 -50.5q-6 -9 -17 -22.5t-24 -27.5t-26.5 -27.5t-24.5 -20.5q-25 -19 -59 -29t-68 -10h-205q-34 0 -68 10t-58 29q-11 7 -24.5 20.5t-26.5 27.5t-24.5 27.5t-17.5 22.5q-15 23 -21.5 50.5t-6.5 58.5v409q0 31 6.5 58.5t21.5 50.5
q6 8 17.5 21.5t24.5 28t26.5 27.5t24.5 21q24 19 58 29t68 10h205q34 0 68 -10t59 -29q11 -8 24.5 -21t26.5 -27.5t24 -28t17 -21.5q16 -23 22.5 -50.5t6.5 -58.5v-409zM662 641q0 11 -0.5 20t-4.5 15q-7 13 -18.5 28t-25 28.5t-28 25t-26.5 18.5q-13 8 -37 8h-200
q-24 0 -37 -8q-12 -7 -26 -18.5t-27.5 -25t-25 -28.5t-18.5 -28q-6 -12 -6 -35v-401q0 -23 6 -35q7 -13 18.5 -28t25 -28.5t27.5 -25.5t26 -19q13 -8 37 -8h200q24 0 37 8q12 7 26.5 19t28 25.5t25 28.5t18.5 28q4 6 4.5 15t0.5 20v401zM287 1079l174 228h143l-209 -265z
" />
    <glyph glyph-name="ocircumflex" unicode="&#xf4;" horiz-adv-x="956" 
d="M772 236q0 -31 -6.5 -58.5t-22.5 -50.5q-6 -9 -17 -22.5t-24 -27.5t-26.5 -27.5t-24.5 -20.5q-25 -19 -59 -29t-68 -10h-205q-34 0 -68 10t-58 29q-11 7 -24.5 20.5t-26.5 27.5t-24.5 27.5t-17.5 22.5q-15 23 -21.5 50.5t-6.5 58.5v409q0 31 6.5 58.5t21.5 50.5
q6 8 17.5 21.5t24.5 28t26.5 27.5t24.5 21q24 19 58 29t68 10h205q34 0 68 -10t59 -29q11 -8 24.5 -21t26.5 -27.5t24 -28t17 -21.5q16 -23 22.5 -50.5t6.5 -58.5v-409zM662 641q0 11 -0.5 20t-4.5 15q-7 13 -18.5 28t-25 28.5t-28 25t-26.5 18.5q-13 8 -37 8h-200
q-24 0 -37 -8q-12 -7 -26 -18.5t-27.5 -25t-25 -28.5t-18.5 -28q-6 -12 -6 -35v-401q0 -23 6 -35q7 -13 18.5 -28t25 -28.5t27.5 -25.5t26 -19q13 -8 37 -8h200q24 0 37 8q12 7 26.5 19t28 25.5t25 28.5t18.5 28q4 6 4.5 15t0.5 20v401zM178 1065l191 238h116l191 -238h-139
l-111 139l-109 -139h-139z" />
    <glyph glyph-name="otilde" unicode="&#xf5;" horiz-adv-x="956" 
d="M772 236q0 -31 -6.5 -58.5t-22.5 -50.5q-6 -9 -17 -22.5t-24 -27.5t-26.5 -27.5t-24.5 -20.5q-25 -19 -59 -29t-68 -10h-205q-34 0 -68 10t-58 29q-11 7 -24.5 20.5t-26.5 27.5t-24.5 27.5t-17.5 22.5q-15 23 -21.5 50.5t-6.5 58.5v409q0 31 6.5 58.5t21.5 50.5
q6 8 17.5 21.5t24.5 28t26.5 27.5t24.5 21q24 19 58 29t68 10h205q34 0 68 -10t59 -29q11 -8 24.5 -21t26.5 -27.5t24 -28t17 -21.5q16 -23 22.5 -50.5t6.5 -58.5v-409zM662 641q0 11 -0.5 20t-4.5 15q-7 13 -18.5 28t-25 28.5t-28 25t-26.5 18.5q-13 8 -37 8h-200
q-24 0 -37 -8q-12 -7 -26 -18.5t-27.5 -25t-25 -28.5t-18.5 -28q-6 -12 -6 -35v-401q0 -23 6 -35q7 -13 18.5 -28t25 -28.5t27.5 -25.5t26 -19q13 -8 37 -8h200q24 0 37 8q12 7 26.5 19t28 25.5t25 28.5t18.5 28q4 6 4.5 15t0.5 20v401zM621 1085q-10 29 -37.5 43t-59.5 9
l-149 -37q-36 -9 -71.5 -4.5t-65.5 21t-53 44.5t-33 64l104 24q9 -29 36.5 -42.5t59.5 -8.5l150 37q36 9 71.5 4.5t65.5 -21.5t52.5 -44.5t33.5 -63.5z" />
    <glyph glyph-name="odieresis" unicode="&#xf6;" horiz-adv-x="956" 
d="M772 236q0 -31 -6.5 -58.5t-22.5 -50.5q-6 -9 -17 -22.5t-24 -27.5t-26.5 -27.5t-24.5 -20.5q-25 -19 -59 -29t-68 -10h-205q-34 0 -68 10t-58 29q-11 7 -24.5 20.5t-26.5 27.5t-24.5 27.5t-17.5 22.5q-15 23 -21.5 50.5t-6.5 58.5v409q0 31 6.5 58.5t21.5 50.5
q6 8 17.5 21.5t24.5 28t26.5 27.5t24.5 21q24 19 58 29t68 10h205q34 0 68 -10t59 -29q11 -8 24.5 -21t26.5 -27.5t24 -28t17 -21.5q16 -23 22.5 -50.5t6.5 -58.5v-409zM662 641q0 11 -0.5 20t-4.5 15q-7 13 -18.5 28t-25 28.5t-28 25t-26.5 18.5q-13 8 -37 8h-200
q-24 0 -37 -8q-12 -7 -26 -18.5t-27.5 -25t-25 -28.5t-18.5 -28q-6 -12 -6 -35v-401q0 -23 6 -35q7 -13 18.5 -28t25 -28.5t27.5 -25.5t26 -19q13 -8 37 -8h200q24 0 37 8q12 7 26.5 19t28 25.5t25 28.5t18.5 28q4 6 4.5 15t0.5 20v401zM498 1081v158h155v-158h-155z
M199 1081v158h155v-158h-155z" />
    <glyph glyph-name="divide" unicode="&#xf7;" horiz-adv-x="932" 
d="M82 455v106h666v-106h-666zM336 725v160h160v-160h-160zM336 139v160h160v-160h-160z" />
    <glyph glyph-name="oslash" unicode="&#xf8;" horiz-adv-x="987" 
d="M690 836q22 -19 42.5 -43.5t31.5 -38.5q29 -45 29 -109v-409q0 -64 -29 -109q-6 -9 -17 -22.5t-24.5 -27.5t-27 -27.5t-23.5 -20.5q-25 -19 -59 -29t-68 -10h-226q-15 0 -31.5 1.5t-31.5 6.5l-25 -47h-114l51 98q-20 19 -39 41.5t-29 36.5q-15 23 -21.5 50.5t-6.5 58.5
v409q0 31 6.5 58.5t21.5 50.5q6 8 17.5 21.5t24.5 28t26.5 27.5t24.5 21q24 19 58 29t68 10h226q14 0 28.5 -1.5t28.5 -6.5l25 47h112zM682 641q0 11 -0.5 20t-3.5 15q-8 12 -18.5 26.5t-24.5 28.5l-328 -635h15h221q22 0 37 8q12 7 26 19t27.5 25.5t25.5 28.5t19 28
q3 6 3.5 15t0.5 20v401zM188 205q7 -11 15.5 -24t19.5 -25l328 628h-8h-221q-24 0 -37 -8q-12 -7 -26 -18.5t-27.5 -25t-25 -28.5t-18.5 -28q-6 -12 -6 -35v-401q0 -23 6 -35z" />
    <glyph glyph-name="ugrave" unicode="&#xf9;" horiz-adv-x="971" 
d="M666 0l-13 102q-18 -20 -38 -38.5t-37 -30.5q-22 -16 -49.5 -29.5t-53.5 -13.5h-153q-35 0 -69 10t-58 29q-11 7 -24.5 20.5t-26.5 27.5t-24.5 27.5t-17.5 22.5q-15 23 -21.5 50.5t-6.5 58.5v645h110v-641q0 -11 0.5 -20t3.5 -15q7 -13 19 -28t25.5 -28.5t28 -25.5
t26.5 -19q13 -8 37 -8h145q15 0 29 6q13 7 34 20.5t44 30t43.5 35.5t31.5 37v656h111v-736l14 -145h-110zM406 1042l-209 265h143l174 -228z" />
    <glyph glyph-name="uacute" unicode="&#xfa;" horiz-adv-x="971" 
d="M666 0l-13 102q-18 -20 -38 -38.5t-37 -30.5q-22 -16 -49.5 -29.5t-53.5 -13.5h-153q-35 0 -69 10t-58 29q-11 7 -24.5 20.5t-26.5 27.5t-24.5 27.5t-17.5 22.5q-15 23 -21.5 50.5t-6.5 58.5v645h110v-641q0 -11 0.5 -20t3.5 -15q7 -13 19 -28t25.5 -28.5t28 -25.5
t26.5 -19q13 -8 37 -8h145q15 0 29 6q13 7 34 20.5t44 30t43.5 35.5t31.5 37v656h111v-736l14 -145h-110zM287 1079l174 228h143l-209 -265z" />
    <glyph glyph-name="ucircumflex" unicode="&#xfb;" horiz-adv-x="971" 
d="M666 0l-13 102q-18 -20 -38 -38.5t-37 -30.5q-22 -16 -49.5 -29.5t-53.5 -13.5h-153q-35 0 -69 10t-58 29q-11 7 -24.5 20.5t-26.5 27.5t-24.5 27.5t-17.5 22.5q-15 23 -21.5 50.5t-6.5 58.5v645h110v-641q0 -11 0.5 -20t3.5 -15q7 -13 19 -28t25.5 -28.5t28 -25.5
t26.5 -19q13 -8 37 -8h145q15 0 29 6q13 7 34 20.5t44 30t43.5 35.5t31.5 37v656h111v-736l14 -145h-110zM164 1065l190 238h117l191 -238h-140l-110 139l-109 -139h-139z" />
    <glyph glyph-name="udieresis" unicode="&#xfc;" horiz-adv-x="971" 
d="M666 0l-13 102q-18 -20 -38 -38.5t-37 -30.5q-22 -16 -49.5 -29.5t-53.5 -13.5h-153q-35 0 -69 10t-58 29q-11 7 -24.5 20.5t-26.5 27.5t-24.5 27.5t-17.5 22.5q-15 23 -21.5 50.5t-6.5 58.5v645h110v-641q0 -11 0.5 -20t3.5 -15q7 -13 19 -28t25.5 -28.5t28 -25.5
t26.5 -19q13 -8 37 -8h145q15 0 29 6q13 7 34 20.5t44 30t43.5 35.5t31.5 37v656h111v-736l14 -145h-110zM504 1081v158h155v-158h-155zM205 1081v158h155v-158h-155z" />
    <glyph glyph-name="yacute" unicode="&#xfd;" horiz-adv-x="860" 
d="M625 881h118l-399 -1225h-117l117 344h-47l-287 881h119l242 -768h12zM287 1079l174 228h143l-209 -265z" />
    <glyph glyph-name="thorn" unicode="&#xfe;" horiz-adv-x="989" 
d="M764 756q31 -51 31 -109v-420q0 -60 -31 -108q-6 -8 -17 -21.5t-24.5 -28t-27 -28t-23.5 -21.5q-25 -17 -58 -26.5t-67 -9.5h-160q-26 0 -53.5 13t-48.5 30q-19 12 -39.5 31t-40.5 40v-444h-111v1575h111v-455q20 22 40.5 42t39.5 34q21 15 48.5 29t53.5 14h160
q34 0 67 -10.5t58 -30.5q10 -7 23.5 -19.5t27 -27t24.5 -28t17 -21.5zM684 233v410q0 23 -6 35q-7 13 -18.5 27.5t-24.5 28t-27 25t-26 19.5q-15 8 -37 8h-152q-17 0 -28 -8q-13 -6 -35 -19t-45.5 -30t-44 -36t-31.5 -38q0 -3 -1 -5t-3 -5v-418q4 -4 4 -8q11 -18 31.5 -37.5
t44 -36t45.5 -30t35 -19.5q6 -5 13 -5.5t15 -0.5h152q11 0 20 1t17 7q12 7 26 18.5t27 25t24.5 28.5t18.5 29q3 5 4.5 14t1.5 20z" />
    <glyph glyph-name="ydieresis" unicode="&#xff;" horiz-adv-x="860" 
d="M625 881h118l-399 -1225h-117l117 344h-47l-287 881h119l242 -768h12zM449 1081v158h155v-158h-155zM150 1081v158h155v-158h-155z" />
    <glyph glyph-name="Amacron" unicode="&#x100;" horiz-adv-x="1100" 
d="M874 0l-92 285h-569l-94 -285h-125l412 1229h184l411 -1229h-127zM250 399h495l-235 713h-27zM238 1423v103h520v-103h-520z" />
    <glyph glyph-name="amacron" unicode="&#x101;" 
d="M657 0l-12 102q-18 -20 -39.5 -38.5t-38.5 -30.5q-23 -17 -48.5 -30t-51.5 -13h-180q-35 0 -67.5 10t-57.5 29q-10 8 -23 21t-26 26.5t-24 26.5t-17 22q-31 46 -31 108v41q0 63 31 109q6 9 17 22t24 26.5t26 26.5t23 21q25 19 57.5 29t67.5 10h356v125q0 12 -1 20t-3 13
q-7 13 -18.5 28t-25 28.5t-28 25t-26.5 18.5q-15 8 -37 8h-193q-20 0 -35 -8q-12 -7 -25.5 -18.5t-27 -26t-25 -29.5t-20.5 -28l-106 35q5 8 12 20.5t18 26.5q7 10 18.5 23t24.5 27t26 26.5t24 21.5q24 19 55.5 28t66.5 9h189q35 0 68.5 -10t58.5 -29q12 -7 25.5 -19.5
t26 -27t23.5 -28t17 -21.5q17 -23 23 -51.5t6 -59.5v-500l14 -145h-111zM489 102q12 6 34 19.5t45 31t44 37t31 37.5v187h-354q-24 0 -37 -8q-12 -7 -26 -18.5t-26.5 -25t-23.5 -28t-18 -27.5q-6 -12 -6 -33v-41q0 -20 6 -32q7 -13 18 -27t23.5 -27.5t26.5 -24.5t26 -18
q13 -8 37 -8h172q16 0 28 6zM152 1137v102h520v-102h-520z" />
    <glyph glyph-name="Abreve" unicode="&#x102;" horiz-adv-x="1100" 
d="M874 0l-92 285h-569l-94 -285h-125l412 1229h184l411 -1229h-127zM250 399h495l-235 713h-27zM614 1540h78q0 -41 -15.5 -76t-42 -61.5t-62.5 -41.5t-76 -15q-41 0 -76 15t-61 41.5t-41 61.5t-15 76h78q0 -24 9 -45t24.5 -37t36.5 -25.5t45 -9.5t45 9.5t37.5 25.5t26 37
t9.5 45z" />
    <glyph glyph-name="abreve" unicode="&#x103;" 
d="M657 0l-12 102q-18 -20 -39.5 -38.5t-38.5 -30.5q-23 -17 -48.5 -30t-51.5 -13h-180q-35 0 -67.5 10t-57.5 29q-10 8 -23 21t-26 26.5t-24 26.5t-17 22q-31 46 -31 108v41q0 63 31 109q6 9 17 22t24 26.5t26 26.5t23 21q25 19 57.5 29t67.5 10h356v125q0 12 -1 20t-3 13
q-7 13 -18.5 28t-25 28.5t-28 25t-26.5 18.5q-15 8 -37 8h-193q-20 0 -35 -8q-12 -7 -25.5 -18.5t-27 -26t-25 -29.5t-20.5 -28l-106 35q5 8 12 20.5t18 26.5q7 10 18.5 23t24.5 27t26 26.5t24 21.5q24 19 55.5 28t66.5 9h189q35 0 68.5 -10t58.5 -29q12 -7 25.5 -19.5
t26 -27t23.5 -28t17 -21.5q17 -23 23 -51.5t6 -59.5v-500l14 -145h-111zM489 102q12 6 34 19.5t45 31t44 37t31 37.5v187h-354q-24 0 -37 -8q-12 -7 -26 -18.5t-26.5 -25t-23.5 -28t-18 -27.5q-6 -12 -6 -33v-41q0 -20 6 -32q7 -13 18 -27t23.5 -27.5t26.5 -24.5t26 -18
q13 -8 37 -8h172q16 0 28 6zM532 1253h78q0 -41 -15.5 -76t-42 -61.5t-62.5 -41.5t-76 -15q-41 0 -76 15t-61 41.5t-41 61.5t-15 76h78q0 -24 9 -45t24.5 -36.5t36.5 -25t45 -9.5t45 9.5t37.5 25t26 36.5t9.5 45z" />
    <glyph glyph-name="Aogonek" unicode="&#x104;" horiz-adv-x="1100" 
d="M874 0l-92 285h-569l-94 -285h-125l412 1229h184l411 -1229h-127zM250 399h495l-235 713h-27zM786 -117l99 39l170 -266h-121z" />
    <glyph glyph-name="aogonek" unicode="&#x105;" 
d="M657 0l-12 102q-18 -20 -39.5 -38.5t-38.5 -30.5q-23 -17 -48.5 -30t-51.5 -13h-180q-35 0 -67.5 10t-57.5 29q-10 8 -23 21t-26 26.5t-24 26.5t-17 22q-31 46 -31 108v41q0 63 31 109q6 9 17 22t24 26.5t26 26.5t23 21q25 19 57.5 29t67.5 10h356v125q0 12 -1 20t-3 13
q-7 13 -18.5 28t-25 28.5t-28 25t-26.5 18.5q-15 8 -37 8h-193q-20 0 -35 -8q-12 -7 -25.5 -18.5t-27 -26t-25 -29.5t-20.5 -28l-106 35q5 8 12 20.5t18 26.5q7 10 18.5 23t24.5 27t26 26.5t24 21.5q24 19 55.5 28t66.5 9h189q35 0 68.5 -10t58.5 -29q12 -7 25.5 -19.5
t26 -27t23.5 -28t17 -21.5q17 -23 23 -51.5t6 -59.5v-500l14 -145h-111zM489 102q12 6 34 19.5t45 31t44 37t31 37.5v187h-354q-24 0 -37 -8q-12 -7 -26 -18.5t-26.5 -25t-23.5 -28t-18 -27.5q-6 -12 -6 -33v-41q0 -20 6 -32q7 -13 18 -27t23.5 -27.5t26.5 -24.5t26 -18
q13 -8 37 -8h172q16 0 28 6zM549 -117l98 39l170 -266h-121z" />
    <glyph glyph-name="Cacute" unicode="&#x106;" horiz-adv-x="1069" 
d="M90 0zM911 231q-9 -21 -22.5 -42.5t-24.5 -36.5t-26 -33t-32 -36t-35 -34t-34 -26q-21 -14 -50 -23.5t-54 -9.5h-271q-24 0 -54 9.5t-52 23.5q-14 8 -34.5 26.5t-41 39.5t-38 41.5t-25.5 33.5q-14 22 -20.5 47t-6.5 51v701q0 26 6.5 51t20.5 47q8 13 25.5 34t38 42.5
t41 40t34.5 26.5q22 14 51 23.5t53 9.5h273q25 0 54 -9.5t50 -23.5q16 -10 34 -26t35 -34t32 -36t26 -33t24.5 -36.5t22.5 -43.5l-118 -34q-9 21 -26 45t-36.5 45.5t-39.5 39t-36 25.5q-5 3 -12.5 4.5t-15.5 1.5h-256q-18 0 -27 -6q-12 -6 -30 -20.5t-36.5 -32.5t-35.5 -38
t-27 -38q-6 -12 -6 -29v-692q0 -14 6 -26q10 -18 27 -38t35.5 -38t36.5 -32.5t30 -20.5q8 -7 27 -7h256q8 0 15.5 1.5t12.5 5.5q16 8 35.5 25.5t38.5 39t36 44.5t28 44zM359 1366l174 228h143l-209 -265z" />
    <glyph glyph-name="cacute" unicode="&#x107;" horiz-adv-x="934" 
d="M774 172q-9 -17 -22 -36.5t-29 -39t-34 -37t-36 -30.5q-24 -19 -57.5 -29t-67.5 -10h-209q-34 0 -68 10t-58 29q-11 7 -24.5 20.5t-26.5 27.5t-24.5 27.5t-17.5 22.5q-15 23 -21.5 50.5t-6.5 58.5v409q0 31 6.5 58.5t21.5 50.5q6 8 17.5 21.5t24.5 28t26.5 27.5t24.5 21
q24 19 58 29t68 10h203q34 0 67 -10t58 -29q19 -14 36.5 -32.5t33 -38t28.5 -39t23 -35.5l-106 -35q-6 13 -18 28.5t-25.5 30t-28.5 26.5t-27 19q-13 8 -37 8h-204q-24 0 -37 -8q-12 -7 -26 -18.5t-27.5 -25t-25 -28.5t-18.5 -28q-6 -12 -6 -35v-401q0 -23 6 -35
q7 -13 18 -28t24 -28.5t27 -25.5t26 -19q13 -8 36 -8h213q24 0 37 8q12 7 27 19.5t28.5 26.5t24.5 28.5t17 26.5l2 4zM276 1079l175 228h143l-209 -265z" />
    <glyph glyph-name="Ccircumflex" unicode="&#x108;" horiz-adv-x="1069" 
d="M90 0zM911 231q-9 -21 -22.5 -42.5t-24.5 -36.5t-26 -33t-32 -36t-35 -34t-34 -26q-21 -14 -50 -23.5t-54 -9.5h-271q-24 0 -54 9.5t-52 23.5q-14 8 -34.5 26.5t-41 39.5t-38 41.5t-25.5 33.5q-14 22 -20.5 47t-6.5 51v701q0 26 6.5 51t20.5 47q8 13 25.5 34t38 42.5
t41 40t34.5 26.5q22 14 51 23.5t53 9.5h273q25 0 54 -9.5t50 -23.5q16 -10 34 -26t35 -34t32 -36t26 -33t24.5 -36.5t22.5 -43.5l-118 -34q-9 21 -26 45t-36.5 45.5t-39.5 39t-36 25.5q-5 3 -12.5 4.5t-15.5 1.5h-256q-18 0 -27 -6q-12 -6 -30 -20.5t-36.5 -32.5t-35.5 -38
t-27 -38q-6 -12 -6 -29v-692q0 -14 6 -26q10 -18 27 -38t35.5 -38t36.5 -32.5t30 -20.5q8 -7 27 -7h256q8 0 15.5 1.5t12.5 5.5q16 8 35.5 25.5t38.5 39t36 44.5t28 44zM248 1352l191 238h116l191 -238h-139l-111 139l-109 -139h-139z" />
    <glyph glyph-name="ccircumflex" unicode="&#x109;" horiz-adv-x="934" 
d="M774 172q-9 -17 -22 -36.5t-29 -39t-34 -37t-36 -30.5q-24 -19 -57.5 -29t-67.5 -10h-209q-34 0 -68 10t-58 29q-11 7 -24.5 20.5t-26.5 27.5t-24.5 27.5t-17.5 22.5q-15 23 -21.5 50.5t-6.5 58.5v409q0 31 6.5 58.5t21.5 50.5q6 8 17.5 21.5t24.5 28t26.5 27.5t24.5 21
q24 19 58 29t68 10h203q34 0 67 -10t58 -29q19 -14 36.5 -32.5t33 -38t28.5 -39t23 -35.5l-106 -35q-6 13 -18 28.5t-25.5 30t-28.5 26.5t-27 19q-13 8 -37 8h-204q-24 0 -37 -8q-12 -7 -26 -18.5t-27.5 -25t-25 -28.5t-18.5 -28q-6 -12 -6 -35v-401q0 -23 6 -35
q7 -13 18 -28t24 -28.5t27 -25.5t26 -19q13 -8 36 -8h213q24 0 37 8q12 7 27 19.5t28.5 26.5t24.5 28.5t17 26.5l2 4zM170 1065l190 238h117l191 -238h-140l-110 139l-109 -139h-139z" />
    <glyph glyph-name="Cdotaccent" unicode="&#x10a;" horiz-adv-x="1069" 
d="M90 0zM911 231q-9 -21 -22.5 -42.5t-24.5 -36.5t-26 -33t-32 -36t-35 -34t-34 -26q-21 -14 -50 -23.5t-54 -9.5h-271q-24 0 -54 9.5t-52 23.5q-14 8 -34.5 26.5t-41 39.5t-38 41.5t-25.5 33.5q-14 22 -20.5 47t-6.5 51v701q0 26 6.5 51t20.5 47q8 13 25.5 34t38 42.5
t41 40t34.5 26.5q22 14 51 23.5t53 9.5h273q25 0 54 -9.5t50 -23.5q16 -10 34 -26t35 -34t32 -36t26 -33t24.5 -36.5t22.5 -43.5l-118 -34q-9 21 -26 45t-36.5 45.5t-39.5 39t-36 25.5q-5 3 -12.5 4.5t-15.5 1.5h-256q-18 0 -27 -6q-12 -6 -30 -20.5t-36.5 -32.5t-35.5 -38
t-27 -38q-6 -12 -6 -29v-692q0 -14 6 -26q10 -18 27 -38t35.5 -38t36.5 -32.5t30 -20.5q8 -7 27 -7h256q8 0 15.5 1.5t12.5 5.5q16 8 35.5 25.5t38.5 39t36 44.5t28 44zM430 1368v158h156v-158h-156z" />
    <glyph glyph-name="cdotaccent" unicode="&#x10b;" horiz-adv-x="934" 
d="M774 172q-9 -17 -22 -36.5t-29 -39t-34 -37t-36 -30.5q-24 -19 -57.5 -29t-67.5 -10h-209q-34 0 -68 10t-58 29q-11 7 -24.5 20.5t-26.5 27.5t-24.5 27.5t-17.5 22.5q-15 23 -21.5 50.5t-6.5 58.5v409q0 31 6.5 58.5t21.5 50.5q6 8 17.5 21.5t24.5 28t26.5 27.5t24.5 21
q24 19 58 29t68 10h203q34 0 67 -10t58 -29q19 -14 36.5 -32.5t33 -38t28.5 -39t23 -35.5l-106 -35q-6 13 -18 28.5t-25.5 30t-28.5 26.5t-27 19q-13 8 -37 8h-204q-24 0 -37 -8q-12 -7 -26 -18.5t-27.5 -25t-25 -28.5t-18.5 -28q-6 -12 -6 -35v-401q0 -23 6 -35
q7 -13 18 -28t24 -28.5t27 -25.5t26 -19q13 -8 36 -8h213q24 0 37 8q12 7 27 19.5t28.5 26.5t24.5 28.5t17 26.5l2 4zM369 1081v158h155v-158h-155z" />
    <glyph glyph-name="Ccaron" unicode="&#x10c;" horiz-adv-x="1069" 
d="M90 0zM911 231q-9 -21 -22.5 -42.5t-24.5 -36.5t-26 -33t-32 -36t-35 -34t-34 -26q-21 -14 -50 -23.5t-54 -9.5h-271q-24 0 -54 9.5t-52 23.5q-14 8 -34.5 26.5t-41 39.5t-38 41.5t-25.5 33.5q-14 22 -20.5 47t-6.5 51v701q0 26 6.5 51t20.5 47q8 13 25.5 34t38 42.5
t41 40t34.5 26.5q22 14 51 23.5t53 9.5h273q25 0 54 -9.5t50 -23.5q16 -10 34 -26t35 -34t32 -36t26 -33t24.5 -36.5t22.5 -43.5l-118 -34q-9 21 -26 45t-36.5 45.5t-39.5 39t-36 25.5q-5 3 -12.5 4.5t-15.5 1.5h-256q-18 0 -27 -6q-12 -6 -30 -20.5t-36.5 -32.5t-35.5 -38
t-27 -38q-6 -12 -6 -29v-692q0 -14 6 -26q10 -18 27 -38t35.5 -38t36.5 -32.5t30 -20.5q8 -7 27 -7h256q8 0 15.5 1.5t12.5 5.5q16 8 35.5 25.5t38.5 39t36 44.5t28 44zM735 1590l-191 -238h-116l-191 238h139l111 -136l109 136h139z" />
    <glyph glyph-name="ccaron" unicode="&#x10d;" horiz-adv-x="934" 
d="M774 172q-9 -17 -22 -36.5t-29 -39t-34 -37t-36 -30.5q-24 -19 -57.5 -29t-67.5 -10h-209q-34 0 -68 10t-58 29q-11 7 -24.5 20.5t-26.5 27.5t-24.5 27.5t-17.5 22.5q-15 23 -21.5 50.5t-6.5 58.5v409q0 31 6.5 58.5t21.5 50.5q6 8 17.5 21.5t24.5 28t26.5 27.5t24.5 21
q24 19 58 29t68 10h203q34 0 67 -10t58 -29q19 -14 36.5 -32.5t33 -38t28.5 -39t23 -35.5l-106 -35q-6 13 -18 28.5t-25.5 30t-28.5 26.5t-27 19q-13 8 -37 8h-204q-24 0 -37 -8q-12 -7 -26 -18.5t-27.5 -25t-25 -28.5t-18.5 -28q-6 -12 -6 -35v-401q0 -23 6 -35
q7 -13 18 -28t24 -28.5t27 -25.5t26 -19q13 -8 36 -8h213q24 0 37 8q12 7 27 19.5t28.5 26.5t24.5 28.5t17 26.5l2 4zM676 1303l-191 -238h-116l-191 238h139l111 -136l109 136h139z" />
    <glyph glyph-name="Dcaron" unicode="&#x10e;" horiz-adv-x="1114" 
d="M909 272q0 -26 -5 -51t-19 -47q-9 -13 -26.5 -33.5t-38 -41.5t-41 -39.5t-34.5 -26.5q-21 -14 -50 -23.5t-54 -9.5h-541v1229h541q25 0 54 -8.5t50 -22.5q14 -8 34.5 -27t41 -41t38 -43t26.5 -34q14 -22 19 -47.5t5 -51.5v-682zM791 950q0 17 -7 31q-10 18 -26.5 37.5
t-34.5 37.5t-36 32t-30 20q-9 6 -26 6h-412v-999h412q17 0 26 6q12 6 30 20.5t36 32.5t34.5 38t26.5 38q3 6 5 12t2 14v674zM711 1589l-191 -237h-117l-190 237h139l111 -135l108 135h140z" />
    <glyph glyph-name="dcaron" unicode="&#x10f;" horiz-adv-x="1061" 
d="M1020 1327h127l-141 -344l-109 39zM102 754q6 8 17.5 21t25 27.5t27 27.5t23.5 22q24 19 56.5 29t67.5 10h160q26 0 53 -13t50 -30q18 -14 38 -32.5t42 -41.5v455h110v-1084l12 -145h-110l-12 109q-20 -23 -41 -42.5t-39 -33.5q-23 -17 -50 -30t-53 -13h-160
q-35 0 -67.5 10t-56.5 29q-10 8 -23.5 21t-27 27.5t-25 27.5t-17.5 22q-30 46 -30 109v409q0 62 30 109zM182 240q0 -23 6 -35q7 -13 18.5 -28t25 -28.5t27.5 -25.5t26 -19q13 -8 37 -8h151q17 0 29 6t34.5 19.5t46 31t44 37t30.5 37.5q0 1 1 3l4 8v405l-5 10
q-10 18 -30.5 38t-44 37t-46 30.5t-34.5 19.5t-29 6h-151q-24 0 -37 -8q-12 -7 -26 -18.5t-27.5 -25t-25 -28.5t-18.5 -28q-6 -12 -6 -35v-401z" />
    <glyph glyph-name="Dcroat" unicode="&#x110;" horiz-adv-x="1176" 
d="M946 1053q14 -22 19.5 -47.5t5.5 -51.5v-682q0 -26 -5.5 -51t-19.5 -47q-8 -13 -25.5 -33.5t-38 -41.5t-41 -39.5t-34.5 -26.5q-22 -14 -51 -23.5t-54 -9.5h-540v557h-178v115h178v557h540q25 0 54 -8.5t51 -22.5q14 -8 34.5 -27t41 -41t38 -43t25.5 -34zM852 276v674
q0 19 -6 31q-10 18 -26.5 37.5t-34.5 37.5t-36 32t-30 20q-5 3 -12 4.5t-15 1.5h-411v-442h282v-115h-282v-442h411q8 0 15 1.5t12 4.5q12 6 30 20.5t36 32.5t34.5 38t26.5 38q6 12 6 26z" />
    <glyph glyph-name="dcroat" unicode="&#x111;" horiz-adv-x="979" 
d="M772 1010v-867l14 -145h-112l-12 108q-19 -24 -39.5 -43t-40.5 -34q-23 -16 -49 -29.5t-54 -13.5h-157q-74 0 -127 39l-22 22t-26.5 27t-25 27t-17.5 22q-15 25 -23.5 52t-8.5 56v412q0 32 8.5 58t23.5 51q6 8 17.5 21t25 26.5l26.5 26.5l22 22q26 20 57.5 30.5
t69.5 10.5h157q28 0 54 -13t49 -30q20 -16 40 -33.5t40 -40.5v238h-265v108h265v111h110v-111h111v-108h-111zM662 236v403q-3 4 -3 8v4q-11 18 -31.5 37.5t-44 37t-46 30.5t-35.5 18q-11 8 -29 8h-151q-24 0 -35 -8q-13 -8 -27.5 -19.5t-28 -25t-24.5 -28t-17 -27.5
q-6 -12 -6 -35v-401q0 -25 6 -37q6 -13 17 -27.5t24.5 -28t28 -25.5t27.5 -20q6 -5 15 -5.5t20 -0.5h151q9 0 16 0.5t13 5.5q13 6 35.5 19t46 30t44 36.5t31.5 37.5v4q0 3 3 9z" />
    <glyph glyph-name="Emacron" unicode="&#x112;" horiz-adv-x="1020" 
d="M100 0v1229h705v-115h-586v-442h555v-115h-555v-442h586v-115h-705zM193 1423v103h520v-103h-520z" />
    <glyph glyph-name="emacron" unicode="&#x113;" horiz-adv-x="969" 
d="M676 205l2 4l108 -37q-6 -12 -12.5 -21.5t-15.5 -23.5q-6 -9 -17.5 -22.5t-24.5 -27.5t-26.5 -27.5t-23.5 -20.5q-25 -19 -58 -29t-67 -10h-209q-34 0 -68 10t-59 29q-11 7 -24.5 20.5t-26.5 27.5t-24 27.5t-17 22.5q-31 46 -31 109v409q0 63 31 109q6 8 17 21.5t24 28
t26.5 27.5t24.5 21q25 19 59 29t68 10h205q34 0 68 -10t59 -29q10 -8 23.5 -21t26.5 -27.5t24.5 -28t17.5 -21.5q15 -23 21.5 -50.5t6.5 -58.5v-252h-591v-153q0 -23 6 -35q7 -13 18 -28t24.5 -28.5t27.5 -25.5t26 -19q13 -8 35 -8h215q22 0 37 8q12 7 26 19.5t27 26.5
t24 28.5t17 26.5zM199 676q-6 -12 -6 -35v-143h481v143q0 11 -0.5 20t-3.5 15q-7 13 -19 28t-25.5 28.5t-28 25t-26.5 18.5q-13 8 -36 8h-203q-22 0 -35 -8q-12 -7 -26.5 -18.5t-28 -25t-25 -28.5t-18.5 -28zM172 1137v102h520v-102h-520z" />
    <glyph glyph-name="Ebreve" unicode="&#x114;" horiz-adv-x="1020" 
d="M100 0v1229h705v-115h-586v-442h555v-115h-555v-442h586v-115h-705zM571 1540h78q0 -41 -15.5 -76t-42 -61.5t-62.5 -41.5t-76 -15q-41 0 -76 15t-61 41.5t-41 61.5t-15 76h78q0 -24 9 -45t24.5 -37t36.5 -25.5t45 -9.5t45 9.5t37.5 25.5t26 37t9.5 45z" />
    <glyph glyph-name="ebreve" unicode="&#x115;" horiz-adv-x="969" 
d="M676 205l2 4l108 -37q-6 -12 -12.5 -21.5t-15.5 -23.5q-6 -9 -17.5 -22.5t-24.5 -27.5t-26.5 -27.5t-23.5 -20.5q-25 -19 -58 -29t-67 -10h-209q-34 0 -68 10t-59 29q-11 7 -24.5 20.5t-26.5 27.5t-24 27.5t-17 22.5q-31 46 -31 109v409q0 63 31 109q6 8 17 21.5t24 28
t26.5 27.5t24.5 21q25 19 59 29t68 10h205q34 0 68 -10t59 -29q10 -8 23.5 -21t26.5 -27.5t24.5 -28t17.5 -21.5q15 -23 21.5 -50.5t6.5 -58.5v-252h-591v-153q0 -23 6 -35q7 -13 18 -28t24.5 -28.5t27.5 -25.5t26 -19q13 -8 35 -8h215q22 0 37 8q12 7 26 19.5t27 26.5
t24 28.5t17 26.5zM199 676q-6 -12 -6 -35v-143h481v143q0 11 -0.5 20t-3.5 15q-7 13 -19 28t-25.5 28.5t-28 25t-26.5 18.5q-13 8 -36 8h-203q-22 0 -35 -8q-12 -7 -26.5 -18.5t-28 -25t-25 -28.5t-18.5 -28zM553 1253h78q0 -41 -15.5 -76t-42 -61.5t-62.5 -41.5t-77 -15
t-76 15t-60.5 41.5t-40.5 61.5t-15 76h77q0 -24 9 -45t25 -36.5t36.5 -25t44.5 -9.5t45.5 9.5t38 25t26 36.5t9.5 45z" />
    <glyph glyph-name="Edotaccent" unicode="&#x116;" horiz-adv-x="1020" 
d="M100 0v1229h705v-115h-586v-442h555v-115h-555v-442h586v-115h-705zM406 1368v158h155v-158h-155z" />
    <glyph glyph-name="edotaccent" unicode="&#x117;" horiz-adv-x="969" 
d="M676 205l2 4l108 -37q-6 -12 -12.5 -21.5t-15.5 -23.5q-6 -9 -17.5 -22.5t-24.5 -27.5t-26.5 -27.5t-23.5 -20.5q-25 -19 -58 -29t-67 -10h-209q-34 0 -68 10t-59 29q-11 7 -24.5 20.5t-26.5 27.5t-24 27.5t-17 22.5q-31 46 -31 109v409q0 63 31 109q6 8 17 21.5t24 28
t26.5 27.5t24.5 21q25 19 59 29t68 10h205q34 0 68 -10t59 -29q10 -8 23.5 -21t26.5 -27.5t24.5 -28t17.5 -21.5q15 -23 21.5 -50.5t6.5 -58.5v-252h-591v-153q0 -23 6 -35q7 -13 18 -28t24.5 -28.5t27.5 -25.5t26 -19q13 -8 35 -8h215q22 0 37 8q12 7 26 19.5t27 26.5
t24 28.5t17 26.5zM199 676q-6 -12 -6 -35v-143h481v143q0 11 -0.5 20t-3.5 15q-7 13 -19 28t-25.5 28.5t-28 25t-26.5 18.5q-13 8 -36 8h-203q-22 0 -35 -8q-12 -7 -26.5 -18.5t-28 -25t-25 -28.5t-18.5 -28zM367 1081v158h155v-158h-155z" />
    <glyph glyph-name="Eogonek" unicode="&#x118;" horiz-adv-x="1020" 
d="M100 0v1229h705v-115h-586v-442h555v-115h-555v-442h586v-115h-705zM651 -117l99 39l170 -266h-121z" />
    <glyph glyph-name="eogonek" unicode="&#x119;" horiz-adv-x="969" 
d="M676 205l2 4l108 -37q-6 -12 -12.5 -21.5t-15.5 -23.5q-6 -9 -17.5 -22.5t-24.5 -27.5t-26.5 -27.5t-23.5 -20.5q-25 -19 -58 -29t-67 -10h-209q-34 0 -68 10t-59 29q-11 7 -24.5 20.5t-26.5 27.5t-24 27.5t-17 22.5q-31 46 -31 109v409q0 63 31 109q6 8 17 21.5t24 28
t26.5 27.5t24.5 21q25 19 59 29t68 10h205q34 0 68 -10t59 -29q10 -8 23.5 -21t26.5 -27.5t24.5 -28t17.5 -21.5q15 -23 21.5 -50.5t6.5 -58.5v-252h-591v-153q0 -23 6 -35q7 -13 18 -28t24.5 -28.5t27.5 -25.5t26 -19q13 -8 35 -8h215q22 0 37 8q12 7 26 19.5t27 26.5
t24 28.5t17 26.5zM199 676q-6 -12 -6 -35v-143h481v143q0 11 -0.5 20t-3.5 15q-7 13 -19 28t-25.5 28.5t-28 25t-26.5 18.5q-13 8 -36 8h-203q-22 0 -35 -8q-12 -7 -26.5 -18.5t-28 -25t-25 -28.5t-18.5 -28zM301 -117l98 39l170 -266h-120z" />
    <glyph glyph-name="Ecaron" unicode="&#x11a;" horiz-adv-x="1020" 
d="M100 0v1229h705v-115h-586v-442h555v-115h-555v-442h586v-115h-705zM715 1589l-191 -237h-116l-191 237h139l111 -135l108 135h140z" />
    <glyph glyph-name="ecaron" unicode="&#x11b;" horiz-adv-x="969" 
d="M676 205l2 4l108 -37q-6 -12 -12.5 -21.5t-15.5 -23.5q-6 -9 -17.5 -22.5t-24.5 -27.5t-26.5 -27.5t-23.5 -20.5q-25 -19 -58 -29t-67 -10h-209q-34 0 -68 10t-59 29q-11 7 -24.5 20.5t-26.5 27.5t-24 27.5t-17 22.5q-31 46 -31 109v409q0 63 31 109q6 8 17 21.5t24 28
t26.5 27.5t24.5 21q25 19 59 29t68 10h205q34 0 68 -10t59 -29q10 -8 23.5 -21t26.5 -27.5t24.5 -28t17.5 -21.5q15 -23 21.5 -50.5t6.5 -58.5v-252h-591v-153q0 -23 6 -35q7 -13 18 -28t24.5 -28.5t27.5 -25.5t26 -19q13 -8 35 -8h215q22 0 37 8q12 7 26 19.5t27 26.5
t24 28.5t17 26.5zM199 676q-6 -12 -6 -35v-143h481v143q0 11 -0.5 20t-3.5 15q-7 13 -19 28t-25.5 28.5t-28 25t-26.5 18.5q-13 8 -36 8h-203q-22 0 -35 -8q-12 -7 -26.5 -18.5t-28 -25t-25 -28.5t-18.5 -28zM692 1303l-190 -238h-117l-190 238h139l110 -136l109 136h139z
" />
    <glyph glyph-name="Gcircumflex" unicode="&#x11c;" horiz-adv-x="1182" 
d="M868 0l-14 100q-9 -11 -19 -22.5t-19.5 -22.5t-18.5 -19.5t-15 -12.5q-21 -14 -50 -23.5t-54 -9.5h-316q-24 0 -54 9.5t-52 23.5q-14 8 -34.5 26.5t-41 39.5t-38 41.5t-25.5 33.5q-14 22 -20.5 47t-6.5 51v699q0 26 6.5 52t20.5 48q8 13 25.5 34t38 42.5t41 40t34.5 26.5
q22 14 52 23.5t54 9.5h316q25 0 55 -9.5t51 -23.5q16 -10 34 -26t35 -34.5t32 -37t26 -33.5t24.5 -35.5t22.5 -42.5l-118 -34q-9 21 -26 45t-37 45.5t-40.5 39t-36.5 25.5q-5 3 -12.5 4.5t-15.5 1.5h-301q-18 0 -27 -6q-12 -6 -30 -20.5t-36.5 -32.5t-35.5 -38t-27 -38
q-6 -12 -6 -31v-690q0 -14 6 -26q10 -18 27 -38t35.5 -38t36.5 -32.5t30 -20.5q5 -4 13 -5.5t16 -1.5h295q8 0 14.5 1.5t11.5 5.5q12 6 30.5 20.5t37.5 33.5t36 39t27 38q6 12 6 26v297h-280v113h399v-436q0 -23 3.5 -55.5t8.5 -67t10 -66.5t9 -53h-113zM276 1352l191 237
h117l190 -237h-139l-111 139l-108 -139h-140z" />
    <glyph glyph-name="gcircumflex" unicode="&#x11d;" horiz-adv-x="1014" 
d="M795 733v-842q0 -63 -29 -108q-6 -9 -17 -22.5t-24.5 -27.5t-27 -27.5t-23.5 -20.5q-25 -19 -60 -29t-67 -10h-209q-32 0 -66 10t-59 29q-19 13 -36.5 31.5t-33 38t-28.5 39t-23 36.5l107 35l2 -4q5 -12 16 -26.5t24.5 -28.5t28.5 -26.5t27 -19.5q13 -8 35 -8h213
q22 0 37 8q12 7 26.5 19t28 25.5t25 28.5t18.5 28q3 6 3.5 15t0.5 20v210q-20 -21 -40.5 -40t-39.5 -33q-22 -16 -49 -29.5t-53 -13.5h-172q-32 0 -67 10t-60 29q-11 7 -24.5 20.5t-26.5 27.5t-24 27.5t-17 22.5q-16 23 -22.5 50.5t-6.5 58.5v409q0 31 6.5 58.5t22.5 50.5
q6 8 17 21.5t24 28t26.5 27.5t24.5 21q25 19 60 29t67 10h172q26 0 53 -14t49 -29q19 -14 40.5 -34t41.5 -42l12 109h111zM684 643l-4 10q-13 18 -34 37t-43 36.5t-43 31t-34 20.5q-6 3 -14 4.5t-16 1.5h-164q-24 0 -37 -8q-12 -7 -26 -18.5t-27.5 -25t-24.5 -28.5t-18 -28
q-6 -12 -6 -35v-401q0 -23 6 -35q7 -13 18 -28t24.5 -28.5t27.5 -25.5t26 -19q13 -8 37 -8h164q8 0 16 1.5t14 4.5q13 7 34 21t43 31t43 36t34 37l4 11v405zM213 1065l190 238h117l191 -238h-140l-110 139l-109 -139h-139z" />
    <glyph glyph-name="Gbreve" unicode="&#x11e;" horiz-adv-x="1182" 
d="M868 0l-14 100q-9 -11 -19 -22.5t-19.5 -22.5t-18.5 -19.5t-15 -12.5q-21 -14 -50 -23.5t-54 -9.5h-316q-24 0 -54 9.5t-52 23.5q-14 8 -34.5 26.5t-41 39.5t-38 41.5t-25.5 33.5q-14 22 -20.5 47t-6.5 51v699q0 26 6.5 52t20.5 48q8 13 25.5 34t38 42.5t41 40t34.5 26.5
q22 14 52 23.5t54 9.5h316q25 0 55 -9.5t51 -23.5q16 -10 34 -26t35 -34.5t32 -37t26 -33.5t24.5 -35.5t22.5 -42.5l-118 -34q-9 21 -26 45t-37 45.5t-40.5 39t-36.5 25.5q-5 3 -12.5 4.5t-15.5 1.5h-301q-18 0 -27 -6q-12 -6 -30 -20.5t-36.5 -32.5t-35.5 -38t-27 -38
q-6 -12 -6 -31v-690q0 -14 6 -26q10 -18 27 -38t35.5 -38t36.5 -32.5t30 -20.5q5 -4 13 -5.5t16 -1.5h295q8 0 14.5 1.5t11.5 5.5q12 6 30.5 20.5t37.5 33.5t36 39t27 38q6 12 6 26v297h-280v113h399v-436q0 -23 3.5 -55.5t8.5 -67t10 -66.5t9 -53h-113zM639 1540h78
q0 -41 -15.5 -76t-42 -61.5t-62.5 -41.5t-77 -15t-76 15t-60.5 41.5t-40.5 61.5t-15 76h78q0 -24 9 -45t24.5 -37t36 -25.5t44.5 -9.5t45.5 9.5t38 25.5t26 37t9.5 45z" />
    <glyph glyph-name="gbreve" unicode="&#x11f;" horiz-adv-x="1014" 
d="M795 733v-842q0 -63 -29 -108q-6 -9 -17 -22.5t-24.5 -27.5t-27 -27.5t-23.5 -20.5q-25 -19 -60 -29t-67 -10h-209q-32 0 -66 10t-59 29q-19 13 -36.5 31.5t-33 38t-28.5 39t-23 36.5l107 35l2 -4q5 -12 16 -26.5t24.5 -28.5t28.5 -26.5t27 -19.5q13 -8 35 -8h213
q22 0 37 8q12 7 26.5 19t28 25.5t25 28.5t18.5 28q3 6 3.5 15t0.5 20v210q-20 -21 -40.5 -40t-39.5 -33q-22 -16 -49 -29.5t-53 -13.5h-172q-32 0 -67 10t-60 29q-11 7 -24.5 20.5t-26.5 27.5t-24 27.5t-17 22.5q-16 23 -22.5 50.5t-6.5 58.5v409q0 31 6.5 58.5t22.5 50.5
q6 8 17 21.5t24 28t26.5 27.5t24.5 21q25 19 60 29t67 10h172q26 0 53 -14t49 -29q19 -14 40.5 -34t41.5 -42l12 109h111zM684 643l-4 10q-13 18 -34 37t-43 36.5t-43 31t-34 20.5q-6 3 -14 4.5t-16 1.5h-164q-24 0 -37 -8q-12 -7 -26 -18.5t-27.5 -25t-24.5 -28.5t-18 -28
q-6 -12 -6 -35v-401q0 -23 6 -35q7 -13 18 -28t24.5 -28.5t27.5 -25.5t26 -19q13 -8 37 -8h164q8 0 16 1.5t14 4.5q13 7 34 21t43 31t43 36t34 37l4 11v405zM573 1253h78q0 -41 -15.5 -76t-42 -61.5t-62.5 -41.5t-76 -15q-41 0 -76 15t-61 41.5t-41 61.5t-15 76h78
q0 -24 9 -45t24.5 -36.5t36.5 -25t45 -9.5t45 9.5t37.5 25t26 36.5t9.5 45z" />
    <glyph glyph-name="Gdotaccent" unicode="&#x120;" horiz-adv-x="1182" 
d="M868 0l-14 100q-9 -11 -19 -22.5t-19.5 -22.5t-18.5 -19.5t-15 -12.5q-21 -14 -50 -23.5t-54 -9.5h-316q-24 0 -54 9.5t-52 23.5q-14 8 -34.5 26.5t-41 39.5t-38 41.5t-25.5 33.5q-14 22 -20.5 47t-6.5 51v699q0 26 6.5 52t20.5 48q8 13 25.5 34t38 42.5t41 40t34.5 26.5
q22 14 52 23.5t54 9.5h316q25 0 55 -9.5t51 -23.5q16 -10 34 -26t35 -34.5t32 -37t26 -33.5t24.5 -35.5t22.5 -42.5l-118 -34q-9 21 -26 45t-37 45.5t-40.5 39t-36.5 25.5q-5 3 -12.5 4.5t-15.5 1.5h-301q-18 0 -27 -6q-12 -6 -30 -20.5t-36.5 -32.5t-35.5 -38t-27 -38
q-6 -12 -6 -31v-690q0 -14 6 -26q10 -18 27 -38t35.5 -38t36.5 -32.5t30 -20.5q5 -4 13 -5.5t16 -1.5h295q8 0 14.5 1.5t11.5 5.5q12 6 30.5 20.5t37.5 33.5t36 39t27 38q6 12 6 26v297h-280v113h399v-436q0 -23 3.5 -55.5t8.5 -67t10 -66.5t9 -53h-113zM477 1368v158h156
v-158h-156z" />
    <glyph glyph-name="gdotaccent" unicode="&#x121;" horiz-adv-x="1014" 
d="M795 733v-842q0 -63 -29 -108q-6 -9 -17 -22.5t-24.5 -27.5t-27 -27.5t-23.5 -20.5q-25 -19 -60 -29t-67 -10h-209q-32 0 -66 10t-59 29q-19 13 -36.5 31.5t-33 38t-28.5 39t-23 36.5l107 35l2 -4q5 -12 16 -26.5t24.5 -28.5t28.5 -26.5t27 -19.5q13 -8 35 -8h213
q22 0 37 8q12 7 26.5 19t28 25.5t25 28.5t18.5 28q3 6 3.5 15t0.5 20v210q-20 -21 -40.5 -40t-39.5 -33q-22 -16 -49 -29.5t-53 -13.5h-172q-32 0 -67 10t-60 29q-11 7 -24.5 20.5t-26.5 27.5t-24 27.5t-17 22.5q-16 23 -22.5 50.5t-6.5 58.5v409q0 31 6.5 58.5t22.5 50.5
q6 8 17 21.5t24 28t26.5 27.5t24.5 21q25 19 60 29t67 10h172q26 0 53 -14t49 -29q19 -14 40.5 -34t41.5 -42l12 109h111zM684 643l-4 10q-13 18 -34 37t-43 36.5t-43 31t-34 20.5q-6 3 -14 4.5t-16 1.5h-164q-24 0 -37 -8q-12 -7 -26 -18.5t-27.5 -25t-24.5 -28.5t-18 -28
q-6 -12 -6 -35v-401q0 -23 6 -35q7 -13 18 -28t24.5 -28.5t27.5 -25.5t26 -19q13 -8 37 -8h164q8 0 16 1.5t14 4.5q13 7 34 21t43 31t43 36t34 37l4 11v405zM365 1081v158h155v-158h-155z" />
    <glyph glyph-name="Gcommaaccent" unicode="&#x122;" horiz-adv-x="1182" 
d="M868 0l-14 100q-9 -11 -19 -22.5t-19.5 -22.5t-18.5 -19.5t-15 -12.5q-21 -14 -50 -23.5t-54 -9.5h-316q-24 0 -54 9.5t-52 23.5q-14 8 -34.5 26.5t-41 39.5t-38 41.5t-25.5 33.5q-14 22 -20.5 47t-6.5 51v699q0 26 6.5 52t20.5 48q8 13 25.5 34t38 42.5t41 40t34.5 26.5
q22 14 52 23.5t54 9.5h316q25 0 55 -9.5t51 -23.5q16 -10 34 -26t35 -34.5t32 -37t26 -33.5t24.5 -35.5t22.5 -42.5l-118 -34q-9 21 -26 45t-37 45.5t-40.5 39t-36.5 25.5q-5 3 -12.5 4.5t-15.5 1.5h-301q-18 0 -27 -6q-12 -6 -30 -20.5t-36.5 -32.5t-35.5 -38t-27 -38
q-6 -12 -6 -31v-690q0 -14 6 -26q10 -18 27 -38t35.5 -38t36.5 -32.5t30 -20.5q5 -4 13 -5.5t16 -1.5h295q8 0 14.5 1.5t11.5 5.5q12 6 30.5 20.5t37.5 33.5t36 39t27 38q6 12 6 26v297h-280v113h399v-436q0 -23 3.5 -55.5t8.5 -67t10 -66.5t9 -53h-113zM522 -344h-121
l170 266l99 -39z" />
    <glyph glyph-name="gcommaaccent" unicode="&#x123;" horiz-adv-x="1014" 
d="M795 733v-842q0 -63 -29 -108q-6 -9 -17 -22.5t-24.5 -27.5t-27 -27.5t-23.5 -20.5q-25 -19 -60 -29t-67 -10h-209q-32 0 -66 10t-59 29q-19 13 -36.5 31.5t-33 38t-28.5 39t-23 36.5l107 35l2 -4q5 -12 16 -26.5t24.5 -28.5t28.5 -26.5t27 -19.5q13 -8 35 -8h213
q22 0 37 8q12 7 26.5 19t28 25.5t25 28.5t18.5 28q3 6 3.5 15t0.5 20v210q-20 -21 -40.5 -40t-39.5 -33q-22 -16 -49 -29.5t-53 -13.5h-172q-32 0 -67 10t-60 29q-11 7 -24.5 20.5t-26.5 27.5t-24 27.5t-17 22.5q-16 23 -22.5 50.5t-6.5 58.5v409q0 31 6.5 58.5t22.5 50.5
q6 8 17 21.5t24 28t26.5 27.5t24.5 21q25 19 60 29t67 10h172q26 0 53 -14t49 -29q19 -14 40.5 -34t41.5 -42l12 109h111zM684 643l-4 10q-13 18 -34 37t-43 36.5t-43 31t-34 20.5q-6 3 -14 4.5t-16 1.5h-164q-24 0 -37 -8q-12 -7 -26 -18.5t-27.5 -25t-24.5 -28.5t-18 -28
q-6 -12 -6 -35v-401q0 -23 6 -35q7 -13 18 -28t24.5 -28.5t27.5 -25.5t26 -19q13 -8 37 -8h164q8 0 16 1.5t14 4.5q13 7 34 21t43 31t43 36t34 37l4 11v405zM485 1116h-120l170 266l98 -39z" />
    <glyph glyph-name="Hcircumflex" unicode="&#x124;" horiz-adv-x="1139" 
d="M799 0v557h-580v-557h-119v1229h119v-557h580v557h119v-1229h-119zM264 1352l191 237h116l191 -237h-139l-111 139l-109 -139h-139z" />
    <glyph glyph-name="hcircumflex" unicode="&#x125;" horiz-adv-x="971" 
d="M659 0v641q0 23 -6 35q-7 13 -18 28t-24.5 28.5t-27.5 25t-26 18.5q-13 8 -37 8h-139q-8 0 -16.5 -1.5t-14.5 -4.5q-13 -7 -34.5 -20t-44.5 -30t-43.5 -36.5t-30.5 -38.5q-2 -2 -2 -4t-2 -4v-645h-111v1229h111v-455q20 22 40.5 41t38.5 33q22 15 49.5 29t53.5 14h147
q32 0 66 -10t59 -29q11 -8 24.5 -21t26.5 -27.5t24 -28t17 -21.5q31 -46 31 -109v-645h-111zM188 1352l191 237h117l190 -237h-139l-111 139l-108 -139h-140z" />
    <glyph glyph-name="Hbar" unicode="&#x126;" horiz-adv-x="1139" 
d="M1024 999h-106v-999h-119v557h-580v-557h-119v1001h-100v115h100v113h119v-113h580v113h119v-113h106v-117zM799 672v327l-580 2v-329h580z" />
    <glyph glyph-name="hbar" unicode="&#x127;" horiz-adv-x="971" 
d="M739 754q31 -46 31 -109v-645h-111v641q0 23 -6 35q-7 13 -18 28t-24.5 28.5t-27.5 25t-26 18.5q-13 8 -37 8h-139q-8 0 -16.5 -1.5t-14.5 -4.5q-13 -7 -34.5 -20t-44.5 -30t-43.5 -36.5t-30.5 -38.5q-2 -2 -2 -4t-2 -4v-645h-111v1006h-92v110h92v113h111v-113h282v-110
h-282v-232q20 22 40.5 41t38.5 33q22 15 49.5 29t53.5 14h147q32 0 66 -10t59 -29q11 -8 24.5 -21t26.5 -27.5t24 -28t17 -21.5z" />
    <glyph glyph-name="Itilde" unicode="&#x128;" horiz-adv-x="442" 
d="M100 0v1229h119v-1229h-119zM340 1372q-9 29 -36.5 42.5t-59.5 8.5l-150 -37q-36 -9 -71.5 -4t-65.5 21.5t-52.5 44t-33.5 63.5l104 25q10 -29 37.5 -42.5t59.5 -8.5l149 37q36 9 71.5 4t65.5 -21.5t52.5 -44t33.5 -63.5z" />
    <glyph glyph-name="itilde" unicode="&#x129;" horiz-adv-x="422" 
d="M100 0v881h111v-881h-111zM336 1085q-9 29 -36.5 43t-59.5 9l-150 -37q-36 -9 -71.5 -4.5t-65.5 21t-52.5 44.5t-33.5 64l104 24q10 -29 37.5 -42.5t59.5 -8.5l149 37q36 9 71.5 4.5t65.5 -21.5t52.5 -44.5t33.5 -63.5z" />
    <glyph glyph-name="Imacron" unicode="&#x12a;" horiz-adv-x="442" 
d="M100 0v1229h119v-1229h-119zM-96 1423v103h520v-103h-520z" />
    <glyph glyph-name="imacron" unicode="&#x12b;" horiz-adv-x="422" 
d="M100 0v881h111v-881h-111zM-104 1137v102h520v-102h-520z" />
    <glyph glyph-name="Ibreve" unicode="&#x12c;" horiz-adv-x="442" 
d="M100 0v1229h119v-1229h-119zM279 1540h77q0 -41 -15.5 -76t-42 -61.5t-62.5 -41.5t-76 -15q-41 0 -76 15t-61 41.5t-41 61.5t-15 76h78q0 -24 9 -45t24.5 -37t36.5 -25.5t45 -9.5t45.5 9.5t38 25.5t26 37t9.5 45z" />
    <glyph glyph-name="ibreve" unicode="&#x12d;" horiz-adv-x="422" 
d="M100 0v881h111v-881h-111zM274 1253h78q0 -41 -15.5 -76t-42 -61.5t-62.5 -41.5t-76 -15q-41 0 -76 15t-61 41.5t-41 61.5t-15 76h78q0 -24 9 -45t24.5 -36.5t36.5 -25t45 -9.5t45 9.5t37.5 25t26 36.5t9.5 45z" />
    <glyph glyph-name="Iogonek" unicode="&#x12e;" horiz-adv-x="442" 
d="M100 0v1229h119v-1229h-119zM68 -117l98 39l170 -266h-121z" />
    <glyph glyph-name="iogonek" unicode="&#x12f;" horiz-adv-x="422" 
d="M100 0v881h111v-881h-111zM78 1081v158h155v-158h-155zM84 -117l98 39l170 -266h-121z" />
    <glyph glyph-name="Idotaccent" unicode="&#x130;" horiz-adv-x="442" 
d="M100 0v1229h119v-1229h-119zM96 1368v158h156v-158h-156z" />
    <glyph glyph-name="dotlessi" unicode="&#x131;" horiz-adv-x="422" 
d="M100 0v881h111v-881h-111z" />
    <glyph glyph-name="IJ" unicode="&#x132;" horiz-adv-x="1339" 
d="M100 0v1229h119v-1229h-119zM1135 266q0 -26 -6.5 -52t-20.5 -48q-9 -13 -26 -33.5t-37 -41.5t-40 -39.5t-34 -26.5q-22 -14 -52 -23.5t-55 -9.5h-159q-25 0 -55 9.5t-52 23.5q-16 10 -33.5 26t-34 34t-31.5 36t-26 33t-23.5 36.5t-21.5 42.5l115 33q10 -21 27 -44
t36 -44.5t38.5 -39t35.5 -25.5q5 -3 14 -5t17 -2h143q13 0 25 7q12 6 30 20.5t36.5 32.5t35.5 38t27 38q3 6 5.5 12t2.5 14v961h119v-963z" />
    <glyph glyph-name="ij" unicode="&#x133;" horiz-adv-x="821" 
d="M100 0v881h111v-881h-111zM78 1081v158h155v-158h-155zM625 -109q0 -60 -31 -108q-6 -9 -17 -22.5t-23.5 -27.5t-26 -27.5t-23.5 -20.5q-25 -19 -59 -28t-66 -9h-123v106q54 1 85 1.5t48 2t23 3t10 3.5q25 14 48.5 42.5t37.5 54.5q6 12 6 35v985h111v-990zM489 1081v158
h156v-158h-156z" />
    <glyph glyph-name="Jcircumflex" unicode="&#x134;" horiz-adv-x="932" 
d="M727 266q0 -26 -6.5 -52t-20.5 -48q-8 -13 -25.5 -33.5t-37.5 -41.5t-40 -39.5t-34 -26.5q-21 -14 -51.5 -23.5t-54.5 -9.5h-160q-25 0 -55 9.5t-52 23.5q-16 10 -33.5 26t-34 34t-31.5 36t-25 33q-11 15 -23.5 36.5t-22.5 42.5l115 33q11 -21 27.5 -44t35.5 -44.5
t38.5 -39t35.5 -25.5q5 -3 14 -5t17 -2h143q14 0 25 7q12 6 30 20.5t36.5 32.5t35.5 38t27 38q3 6 5.5 12t2.5 14v961h119v-963zM422 1352l190 237h117l191 -237h-140l-110 139l-109 -139h-139z" />
    <glyph glyph-name="jcircumflex" unicode="&#x135;" horiz-adv-x="428" 
d="M231 -109q0 -62 -30 -108q-6 -9 -17 -22.5t-24 -27.5t-26 -27.5t-23 -20.5q-25 -19 -59 -28t-66 -9h-129v106h127q11 0 19.5 0.5t16.5 5.5q12 7 26 19t27 25.5t24 28.5t18 28q6 12 6 35v985h110v-990zM-76 1065l191 238h116l191 -238h-139l-111 139l-109 -139h-139z" />
    <glyph glyph-name="Kcommaaccent" unicode="&#x136;" horiz-adv-x="1038" 
d="M754 0l-510 557h-25v-557h-119v1229h119v-559h25l508 559h155l-563 -615l565 -614h-155zM270 -344h-120l169 266l99 -39z" />
    <glyph glyph-name="kcommaaccent" unicode="&#x137;" horiz-adv-x="877" 
d="M618 0l-380 408h-43v-408h-111v1229h111v-717h41l350 369h147l-401 -418l436 -463h-150zM248 -344h-121l170 266l98 -39z" />
    <glyph glyph-name="kgreenlandic" unicode="&#x138;" horiz-adv-x="877" 
d="M332 463l436 -463h-150l-380 408h-43v-408h-111v881h111v-369h41l266 285q24 27 47 45q25 18 58 28.5t67 10.5h69v-107h-67q-11 0 -22 -1.5t-19 -6.5q-28 -15 -57 -47z" />
    <glyph glyph-name="Lacute" unicode="&#x139;" horiz-adv-x="932" 
d="M100 0v1229h119v-1114h574v-115h-693zM287 1366l174 227h143l-209 -264z" />
    <glyph glyph-name="lacute" unicode="&#x13a;" horiz-adv-x="420" 
d="M113 0q-3 26 -11 57.5t-8 57.5v1114h111v-1090q0 -34 7.5 -69.5t10.5 -69.5h-110zM104 1366l175 227h143l-209 -264z" />
    <glyph glyph-name="Lcommaaccent" unicode="&#x13b;" horiz-adv-x="932" 
d="M100 0v1229h119v-1114h574v-115h-693zM432 -344h-121l170 266l99 -39z" />
    <glyph glyph-name="lcommaaccent" unicode="&#x13c;" horiz-adv-x="420" 
d="M113 0q-3 26 -11 57.5t-8 57.5v1114h111v-1090q0 -34 7.5 -69.5t10.5 -69.5h-110zM102 -350h-120l170 266l98 -39z" />
    <glyph glyph-name="Lcaron" unicode="&#x13d;" horiz-adv-x="932" 
d="M100 0v1229h119v-1114h574v-115h-693zM494 1327h127l-142 -344l-108 39z" />
    <glyph glyph-name="lcaron" unicode="&#x13e;" horiz-adv-x="494" 
d="M113 0q-3 26 -11 57.5t-8 57.5v1114h111v-1090q0 -34 7.5 -69.5t10.5 -69.5h-110zM471 1327h127l-141 -344l-109 39z" />
    <glyph glyph-name="Ldot" unicode="&#x13f;" horiz-adv-x="932" 
d="M100 0v1229h119v-1114h574v-115h-693zM598 541v157h156v-157h-156z" />
    <glyph glyph-name="ldot" unicode="&#x140;" horiz-adv-x="553" 
d="M113 0q-3 26 -11 57.5t-8 57.5v1114h111v-1090q0 -34 7.5 -69.5t10.5 -69.5h-110zM354 522v158h156v-158h-156z" />
    <glyph glyph-name="Lslash" unicode="&#x141;" horiz-adv-x="932" 
d="M219 115h574v-115h-693v485l-120 -65l-48 98l168 90v621h119v-557l143 76l46 -99l-189 -100v-434v0z" />
    <glyph glyph-name="lslash" unicode="&#x142;" horiz-adv-x="555" 
d="M258 541v-402q0 -34 7.5 -69.5t10.5 -69.5h-110q-3 26 -11 57.5t-8 57.5v366l-122 -65l-48 100l170 90v623h111v-563l150 79l45 -100z" />
    <glyph glyph-name="Nacute" unicode="&#x143;" horiz-adv-x="1128" 
d="M752 0l-535 1049v-1049h-115v1229h158l531 -1059v1059h114v-1229h-153zM379 1366l174 227h143l-209 -264z" />
    <glyph glyph-name="nacute" unicode="&#x144;" horiz-adv-x="985" 
d="M674 0v641q0 11 -0.5 20t-3.5 15q-7 13 -19 28t-25.5 28.5t-28 25t-26.5 18.5q-13 8 -36 8h-146q-16 0 -29 -6q-13 -7 -34 -20t-43.5 -29.5t-43 -35.5t-32.5 -38v-655h-111v735l-14 146h111l12 -103q18 20 38.5 38.5t37.5 31.5q21 15 48.5 29t53.5 14h154q34 0 68 -10
t59 -29q10 -8 23.5 -21t26.5 -27.5t24.5 -28t17.5 -21.5q15 -23 21.5 -50.5t6.5 -58.5v-645h-110zM309 1079l174 228h144l-209 -265z" />
    <glyph glyph-name="Ncommaaccent" unicode="&#x145;" horiz-adv-x="1128" 
d="M752 0l-535 1049v-1049h-115v1229h158l531 -1059v1059h114v-1229h-153zM504 -344h-121l170 266l98 -39z" />
    <glyph glyph-name="ncommaaccent" unicode="&#x146;" horiz-adv-x="985" 
d="M674 0v641q0 11 -0.5 20t-3.5 15q-7 13 -19 28t-25.5 28.5t-28 25t-26.5 18.5q-13 8 -36 8h-146q-16 0 -29 -6q-13 -7 -34 -20t-43.5 -29.5t-43 -35.5t-32.5 -38v-655h-111v735l-14 146h111l12 -103q18 20 38.5 38.5t37.5 31.5q21 15 48.5 29t53.5 14h154q34 0 68 -10
t59 -29q10 -8 23.5 -21t26.5 -27.5t24.5 -28t17.5 -21.5q15 -23 21.5 -50.5t6.5 -58.5v-645h-110zM401 -344h-120l170 266l98 -39z" />
    <glyph glyph-name="Ncaron" unicode="&#x147;" horiz-adv-x="1128" 
d="M752 0l-535 1049v-1049h-115v1229h158l531 -1059v1059h114v-1229h-153zM758 1589l-191 -237h-116l-191 237h139l111 -135l108 135h140z" />
    <glyph glyph-name="ncaron" unicode="&#x148;" horiz-adv-x="985" 
d="M674 0v641q0 11 -0.5 20t-3.5 15q-7 13 -19 28t-25.5 28.5t-28 25t-26.5 18.5q-13 8 -36 8h-146q-16 0 -29 -6q-13 -7 -34 -20t-43.5 -29.5t-43 -35.5t-32.5 -38v-655h-111v735l-14 146h111l12 -103q18 20 38.5 38.5t37.5 31.5q21 15 48.5 29t53.5 14h154q34 0 68 -10
t59 -29q10 -8 23.5 -21t26.5 -27.5t24.5 -28t17.5 -21.5q15 -23 21.5 -50.5t6.5 -58.5v-645h-110zM713 1303l-191 -238h-116l-191 238h139l111 -136l108 136h140z" />
    <glyph glyph-name="napostrophe" unicode="&#x149;" horiz-adv-x="985" 
d="M674 0v641q0 11 -0.5 20t-3.5 15q-7 13 -19 28t-25.5 28.5t-28 25t-26.5 18.5q-13 8 -36 8h-146q-16 0 -29 -6q-13 -7 -34 -20t-43.5 -29.5t-43 -35.5t-32.5 -38v-655h-111v735l-14 146h111l12 -103q18 20 38.5 38.5t37.5 31.5q21 15 48.5 29t53.5 14h154q34 0 68 -10
t59 -29q10 -8 23.5 -21t26.5 -27.5t24.5 -28t17.5 -21.5q15 -23 21.5 -50.5t6.5 -58.5v-645h-110zM-25 1327h127l-141 -344l-108 39z" />
    <glyph glyph-name="Eng" unicode="&#x14a;" horiz-adv-x="1128" 
d="M907 -109q0 -62 -30 -108q-6 -9 -17 -22.5t-24 -27.5t-26 -27.5t-24 -20.5q-24 -19 -58 -28t-66 -9h-130v106h127q11 0 20 0.5t17 5.5q12 7 26 19t27 25.5t24 28.5t18 28q6 12 6 35l-45 104l-535 1049v-1049h-115v1229h158l531 -1059v1059h114z" />
    <glyph glyph-name="eng" unicode="&#x14b;" horiz-adv-x="985" 
d="M782 -109q0 -62 -30 -108q-6 -9 -17 -22.5t-24 -27.5t-26 -27.5t-23 -20.5q-25 -19 -59 -28t-66 -9h-129v106h127q11 0 19.5 0.5t16.5 5.5q12 7 26 19t27 25.5t24 28.5t18 28q6 12 6 35l2 745q0 11 -0.5 20t-3.5 15q-7 13 -19 28t-25.5 28.5t-28 25t-26.5 18.5
q-13 8 -36 8h-146q-16 0 -29 -6q-13 -7 -34 -20t-43.5 -29.5t-43 -35.5t-32.5 -38v-655h-111v735l-14 146h111l12 -103q18 20 38.5 38.5t37.5 31.5q21 15 48.5 29t53.5 14h154q34 0 68 -10t59 -29q10 -8 23.5 -21t26.5 -27.5t24.5 -28t17.5 -21.5q15 -23 21.5 -50.5
t6.5 -58.5z" />
    <glyph glyph-name="Omacron" unicode="&#x14c;" horiz-adv-x="1153" 
d="M956 264q0 -26 -6 -52t-20 -48q-9 -13 -26.5 -33.5t-38 -41.5t-41 -39.5t-33.5 -26.5q-22 -14 -52 -23.5t-55 -9.5h-324q-24 0 -53 9.5t-51 23.5q-14 8 -34.5 26.5t-41.5 39.5t-39 41.5t-26 33.5q-14 22 -19.5 48t-5.5 52v697q0 26 5.5 52t19.5 48q8 13 26 34t39 42.5
t41.5 40t34.5 26.5q22 14 51 23.5t53 9.5h324q25 0 55 -9.5t52 -23.5q13 -8 33.5 -26.5t41 -40t38 -42.5t26.5 -34q14 -22 20 -48t6 -52v-697zM838 956q0 8 -1.5 16.5t-5.5 14.5q-10 18 -26.5 38t-35.5 38t-37 32.5t-30 20.5q-9 6 -26 6h-305q-18 0 -27 -6q-12 -6 -30 -20.5
t-36 -32.5t-34.5 -38t-26.5 -38q-3 -6 -5.5 -14.5t-2.5 -16.5v-690q0 -8 2.5 -14t5.5 -12q10 -18 26.5 -38t34.5 -38t36 -32.5t30 -20.5q8 -7 27 -7h305q8 0 14.5 1.5t11.5 5.5q12 6 30 20.5t37 32.5t35.5 38t26.5 38q7 11 7 26v690zM260 1423v103h520v-103h-520z" />
    <glyph glyph-name="omacron" unicode="&#x14d;" horiz-adv-x="967" 
d="M772 236q0 -31 -6.5 -58.5t-22.5 -50.5q-6 -9 -17 -22.5t-24 -27.5t-26.5 -27.5t-24.5 -20.5q-25 -19 -59 -29t-68 -10h-205q-34 0 -68 10t-58 29q-11 7 -24.5 20.5t-26.5 27.5t-24.5 27.5t-17.5 22.5q-15 23 -21.5 50.5t-6.5 58.5v409q0 31 6.5 58.5t21.5 50.5
q6 8 17.5 21.5t24.5 28t26.5 27.5t24.5 21q24 19 58 29t68 10h205q34 0 68 -10t59 -29q11 -8 24.5 -21t26.5 -27.5t24 -28t17 -21.5q16 -23 22.5 -50.5t6.5 -58.5v-409zM662 641q0 11 -0.5 20t-4.5 15q-7 13 -18.5 28t-25 28.5t-28 25t-26.5 18.5q-13 8 -37 8h-200
q-24 0 -37 -8q-12 -7 -26 -18.5t-27.5 -25t-25 -28.5t-18.5 -28q-6 -12 -6 -35v-401q0 -23 6 -35q7 -13 18.5 -28t25 -28.5t27.5 -25.5t26 -19q13 -8 37 -8h200q24 0 37 8q12 7 26.5 19t28 25.5t25 28.5t18.5 28q4 6 4.5 15t0.5 20v401zM166 1137v102h520v-102h-520z" />
    <glyph glyph-name="Obreve" unicode="&#x14e;" horiz-adv-x="1153" 
d="M956 264q0 -26 -6 -52t-20 -48q-9 -13 -26.5 -33.5t-38 -41.5t-41 -39.5t-33.5 -26.5q-22 -14 -52 -23.5t-55 -9.5h-324q-24 0 -53 9.5t-51 23.5q-14 8 -34.5 26.5t-41.5 39.5t-39 41.5t-26 33.5q-14 22 -19.5 48t-5.5 52v697q0 26 5.5 52t19.5 48q8 13 26 34t39 42.5
t41.5 40t34.5 26.5q22 14 51 23.5t53 9.5h324q25 0 55 -9.5t52 -23.5q13 -8 33.5 -26.5t41 -40t38 -42.5t26.5 -34q14 -22 20 -48t6 -52v-697zM838 956q0 8 -1.5 16.5t-5.5 14.5q-10 18 -26.5 38t-35.5 38t-37 32.5t-30 20.5q-9 6 -26 6h-305q-18 0 -27 -6q-12 -6 -30 -20.5
t-36 -32.5t-34.5 -38t-26.5 -38q-3 -6 -5.5 -14.5t-2.5 -16.5v-690q0 -8 2.5 -14t5.5 -12q10 -18 26.5 -38t34.5 -38t36 -32.5t30 -20.5q8 -7 27 -7h305q8 0 14.5 1.5t11.5 5.5q12 6 30 20.5t37 32.5t35.5 38t26.5 38q7 11 7 26v690zM647 1540h78q0 -41 -15.5 -76t-42 -61.5
t-62.5 -41.5t-77 -15t-76 15t-60.5 41.5t-40.5 61.5t-15 76h78q0 -24 9 -45t24.5 -37t36 -25.5t44.5 -9.5t45.5 9.5t38 25.5t26 37t9.5 45z" />
    <glyph glyph-name="obreve" unicode="&#x14f;" horiz-adv-x="967" 
d="M772 236q0 -31 -6.5 -58.5t-22.5 -50.5q-6 -9 -17 -22.5t-24 -27.5t-26.5 -27.5t-24.5 -20.5q-25 -19 -59 -29t-68 -10h-205q-34 0 -68 10t-58 29q-11 7 -24.5 20.5t-26.5 27.5t-24.5 27.5t-17.5 22.5q-15 23 -21.5 50.5t-6.5 58.5v409q0 31 6.5 58.5t21.5 50.5
q6 8 17.5 21.5t24.5 28t26.5 27.5t24.5 21q24 19 58 29t68 10h205q34 0 68 -10t59 -29q11 -8 24.5 -21t26.5 -27.5t24 -28t17 -21.5q16 -23 22.5 -50.5t6.5 -58.5v-409zM662 641q0 11 -0.5 20t-4.5 15q-7 13 -18.5 28t-25 28.5t-28 25t-26.5 18.5q-13 8 -37 8h-200
q-24 0 -37 -8q-12 -7 -26 -18.5t-27.5 -25t-25 -28.5t-18.5 -28q-6 -12 -6 -35v-401q0 -23 6 -35q7 -13 18.5 -28t25 -28.5t27.5 -25.5t26 -19q13 -8 37 -8h200q24 0 37 8q12 7 26.5 19t28 25.5t25 28.5t18.5 28q4 6 4.5 15t0.5 20v401zM543 1253h78q0 -41 -15.5 -76
t-42.5 -61.5t-63 -41.5t-76 -15q-41 0 -76 15t-61 41.5t-41 61.5t-15 76h78q0 -24 9 -45t24.5 -36.5t36.5 -25t45 -9.5t45.5 9.5t38 25t26 36.5t9.5 45z" />
    <glyph glyph-name="Ohungarumlaut" unicode="&#x150;" horiz-adv-x="1153" 
d="M956 264q0 -26 -6 -52t-20 -48q-9 -13 -26.5 -33.5t-38 -41.5t-41 -39.5t-33.5 -26.5q-22 -14 -52 -23.5t-55 -9.5h-324q-24 0 -53 9.5t-51 23.5q-14 8 -34.5 26.5t-41.5 39.5t-39 41.5t-26 33.5q-14 22 -19.5 48t-5.5 52v697q0 26 5.5 52t19.5 48q8 13 26 34t39 42.5
t41.5 40t34.5 26.5q22 14 51 23.5t53 9.5h324q25 0 55 -9.5t52 -23.5q13 -8 33.5 -26.5t41 -40t38 -42.5t26.5 -34q14 -22 20 -48t6 -52v-697zM838 956q0 8 -1.5 16.5t-5.5 14.5q-10 18 -26.5 38t-35.5 38t-37 32.5t-30 20.5q-9 6 -26 6h-305q-18 0 -27 -6q-12 -6 -30 -20.5
t-36 -32.5t-34.5 -38t-26.5 -38q-3 -6 -5.5 -14.5t-2.5 -16.5v-690q0 -8 2.5 -14t5.5 -12q10 -18 26.5 -38t34.5 -38t36 -32.5t30 -20.5q8 -7 27 -7h305q8 0 14.5 1.5t11.5 5.5q12 6 30 20.5t37 32.5t35.5 38t26.5 38q7 11 7 26v690zM317 1356l175 227h133l-209 -264z
M516 1356l174 227h133l-209 -264z" />
    <glyph glyph-name="ohungarumlaut" unicode="&#x151;" horiz-adv-x="967" 
d="M772 236q0 -31 -6.5 -58.5t-22.5 -50.5q-6 -9 -17 -22.5t-24 -27.5t-26.5 -27.5t-24.5 -20.5q-25 -19 -59 -29t-68 -10h-205q-34 0 -68 10t-58 29q-11 7 -24.5 20.5t-26.5 27.5t-24.5 27.5t-17.5 22.5q-15 23 -21.5 50.5t-6.5 58.5v409q0 31 6.5 58.5t21.5 50.5
q6 8 17.5 21.5t24.5 28t26.5 27.5t24.5 21q24 19 58 29t68 10h205q34 0 68 -10t59 -29q11 -8 24.5 -21t26.5 -27.5t24 -28t17 -21.5q16 -23 22.5 -50.5t6.5 -58.5v-409zM662 641q0 11 -0.5 20t-4.5 15q-7 13 -18.5 28t-25 28.5t-28 25t-26.5 18.5q-13 8 -37 8h-200
q-24 0 -37 -8q-12 -7 -26 -18.5t-27.5 -25t-25 -28.5t-18.5 -28q-6 -12 -6 -35v-401q0 -23 6 -35q7 -13 18.5 -28t25 -28.5t27.5 -25.5t26 -19q13 -8 37 -8h200q24 0 37 8q12 7 26.5 19t28 25.5t25 28.5t18.5 28q4 6 4.5 15t0.5 20v401zM229 1079l174 228h134l-209 -265z
M428 1079l174 228h133l-209 -265z" />
    <glyph glyph-name="OE" unicode="&#x152;" horiz-adv-x="1718" 
d="M819 0v61q-14 -12 -27 -22t-22 -16q-22 -14 -52 -23.5t-54 -9.5h-304q-24 0 -53 9.5t-51 23.5q-14 8 -34.5 26.5t-41.5 39.5t-39 41.5t-26 33.5q-14 22 -19.5 48t-5.5 52v697q0 26 5.5 52t19.5 48q8 13 26 34t39 42.5t41.5 40t34.5 26.5q22 14 51 23.5t53 9.5h304
q24 0 54 -9.5t52 -23.5q9 -6 22 -16.5t27 -24.5v66h684v-115h-567v-442h537v-115h-537v-442h567v-115h-684zM817 956q0 19 -6 31q-10 18 -27 38t-35.5 38t-36.5 32.5t-30 20.5t-27 6h-284q-18 0 -27 -6q-12 -6 -30 -20.5t-36 -32.5t-34.5 -38t-26.5 -38q-3 -6 -5.5 -14.5
t-2.5 -16.5v-690q0 -8 2.5 -14t5.5 -12q10 -18 26.5 -38t34.5 -38t36 -32.5t30 -20.5q8 -7 27 -7h284q19 0 27 7q12 6 30 20.5t36.5 32.5t35.5 38t27 38q6 12 6 26v690z" />
    <glyph glyph-name="oe" unicode="&#x153;" horiz-adv-x="1548" 
d="M772 236q0 -22 6 -31q7 -13 19 -28t25.5 -28.5t28 -25.5t26.5 -19q13 -8 34 -8h213q24 0 37 8q12 7 26 19.5t27 26.5t24 28.5t17 26.5l2 4l109 -37q-6 -12 -12.5 -22.5t-16.5 -22.5q-6 -9 -17 -22.5t-24 -27.5t-26.5 -27.5t-24.5 -20.5q-25 -19 -58 -29t-67 -10h-209
q-34 0 -68 10t-59 29q-14 9 -33 28t-34 37q-16 -18 -34 -37t-32 -28q-25 -19 -59 -29t-68 -10h-205q-34 0 -68 10t-58 29q-11 7 -24.5 20.5t-26.5 27.5t-24.5 27.5t-17.5 22.5q-15 23 -21.5 50.5t-6.5 58.5v409q0 31 6.5 58.5t21.5 50.5q6 8 17.5 21.5t24.5 28t26.5 27.5
t24.5 21q24 19 58 29t68 10h205q34 0 68 -10t59 -29q14 -11 32 -29t34 -37q15 19 34 37t33 29q25 19 59 29t68 10h205q34 0 68 -10t59 -29q11 -8 24.5 -21t26.5 -27.5t24 -28t17 -21.5q16 -23 22.5 -50.5t6.5 -58.5v-244h-592v-165zM657 205q4 5 4.5 13t0.5 18v405
q0 11 -0.5 20t-4.5 15q-7 13 -18.5 28t-25 28.5t-28 25t-26.5 18.5q-13 8 -37 8h-200q-24 0 -37 -8q-12 -7 -26 -18.5t-27.5 -25t-25 -28.5t-18.5 -28q-6 -12 -6 -35v-401q0 -23 6 -35q7 -13 18.5 -28t25 -28.5t27.5 -25.5t26 -19q13 -8 37 -8h200q24 0 37 8q12 7 26.5 19
t28 25.5t25 28.5t18.5 28zM778 676q-6 -12 -6 -35v-133h481v133q0 11 -0.5 20t-3.5 15q-7 13 -18.5 28t-25 28.5t-28 25t-26.5 18.5q-8 5 -17 6.5t-20 1.5h-203q-21 0 -34 -8q-12 -7 -26.5 -18.5t-28 -25t-25.5 -28.5t-19 -28z" />
    <glyph glyph-name="Racute" unicode="&#x154;" horiz-adv-x="1128" 
d="M909 795q0 -61 -30 -107q-6 -8 -19 -23t-29 -31t-31.5 -30.5t-25.5 -21.5q-51 -39 -115 -39l306 -543h-136l-303 543h-307v-543h-119v1229h553q32 0 64 -10.5t57 -28.5q10 -8 25.5 -22.5t31.5 -31t29 -31.5t19 -24q30 -45 30 -106v-180zM791 971q0 9 -0.5 18.5t-4.5 16.5
q-7 13 -18.5 28t-25.5 29t-29 26t-27 19q-8 5 -16.5 5.5t-18.5 0.5h-432v-457h432q22 0 35 9q12 7 27 18t29 24.5t25.5 28t18.5 27.5q4 6 4.5 15.5t0.5 19.5v172zM297 1366l174 227h143l-208 -264z" />
    <glyph glyph-name="racute" unicode="&#x155;" horiz-adv-x="852" 
d="M627 674q-8 12 -20 26.5t-25.5 29t-27.5 27t-26 19.5q-13 8 -36 8h-101q-8 0 -16 -1.5t-15 -4.5q-13 -7 -35 -20t-45 -30t-44 -36.5t-31 -38.5v-653h-111v735l-14 146h113l12 -105l39.5 39.5t38.5 32.5q21 15 48.5 29t53.5 14h102q34 0 67.5 -10t57.5 -29q11 -8 24 -21
t26 -27.5t23.5 -28t16.5 -21.5q10 -13 18 -25t13 -20zM244 1079l174 228h143l-209 -265z" />
    <glyph glyph-name="Rcommaaccent" unicode="&#x156;" horiz-adv-x="1128" 
d="M909 795q0 -61 -30 -107q-6 -8 -19 -23t-29 -31t-31.5 -30.5t-25.5 -21.5q-51 -39 -115 -39l306 -543h-136l-303 543h-307v-543h-119v1229h553q32 0 64 -10.5t57 -28.5q10 -8 25.5 -22.5t31.5 -31t29 -31.5t19 -24q30 -45 30 -106v-180zM791 971q0 9 -0.5 18.5t-4.5 16.5
q-7 13 -18.5 28t-25.5 29t-29 26t-27 19q-8 5 -16.5 5.5t-18.5 0.5h-432v-457h432q22 0 35 9q12 7 27 18t29 24.5t25.5 28t18.5 27.5q4 6 4.5 15.5t0.5 19.5v172zM338 -344h-121l170 266l98 -39z" />
    <glyph glyph-name="rcommaaccent" unicode="&#x157;" horiz-adv-x="852" 
d="M627 674q-8 12 -20 26.5t-25.5 29t-27.5 27t-26 19.5q-13 8 -36 8h-101q-8 0 -16 -1.5t-15 -4.5q-13 -7 -35 -20t-45 -30t-44 -36.5t-31 -38.5v-653h-111v735l-14 146h113l12 -105l39.5 39.5t38.5 32.5q21 15 48.5 29t53.5 14h102q34 0 67.5 -10t57.5 -29q11 -8 24 -21
t26 -27.5t23.5 -28t16.5 -21.5q10 -13 18 -25t13 -20zM190 -344h-120l170 266l98 -39z" />
    <glyph glyph-name="Rcaron" unicode="&#x158;" horiz-adv-x="1128" 
d="M909 795q0 -61 -30 -107q-6 -8 -19 -23t-29 -31t-31.5 -30.5t-25.5 -21.5q-51 -39 -115 -39l306 -543h-136l-303 543h-307v-543h-119v1229h553q32 0 64 -10.5t57 -28.5q10 -8 25.5 -22.5t31.5 -31t29 -31.5t19 -24q30 -45 30 -106v-180zM791 971q0 9 -0.5 18.5t-4.5 16.5
q-7 13 -18.5 28t-25.5 29t-29 26t-27 19q-8 5 -16.5 5.5t-18.5 0.5h-432v-457h432q22 0 35 9q12 7 27 18t29 24.5t25.5 28t18.5 27.5q4 6 4.5 15.5t0.5 19.5v172zM717 1589l-191 -237h-116l-191 237h139l111 -135l109 135h139z" />
    <glyph glyph-name="rcaron" unicode="&#x159;" horiz-adv-x="852" 
d="M627 674q-8 12 -20 26.5t-25.5 29t-27.5 27t-26 19.5q-13 8 -36 8h-101q-8 0 -16 -1.5t-15 -4.5q-13 -7 -35 -20t-45 -30t-44 -36.5t-31 -38.5v-653h-111v735l-14 146h113l12 -105l39.5 39.5t38.5 32.5q21 15 48.5 29t53.5 14h102q34 0 67.5 -10t57.5 -29q11 -8 24 -21
t26 -27.5t23.5 -28t16.5 -21.5q10 -13 18 -25t13 -20zM678 1303l-191 -238h-116l-191 238h139l111 -136l109 136h139z" />
    <glyph glyph-name="Sacute" unicode="&#x15a;" horiz-adv-x="1122" 
d="M59 0zM948 264q0 -26 -5 -52t-19 -48q-9 -13 -27 -33.5t-39 -41.5t-41.5 -39.5t-34.5 -26.5q-21 -14 -50 -23.5t-54 -9.5h-340q-25 0 -55 9.5t-52 23.5q-16 10 -34 26t-35 34t-32 36t-26 33t-23 36.5t-22 42.5l117 33q6 -14 10 -19q2 -4 4 -5q11 -19 27 -39t33.5 -37.5
t34.5 -31.5t30 -21q5 -4 13 -5.5t16 -1.5h326q16 0 24 7q12 6 30 19t37 30t35.5 36t26.5 37q6 13 6 27v131q0 31 -18 59.5t-47 36.5l-561 154q-30 9 -53.5 28t-40 45t-25 57t-8.5 63v127q0 26 5 52t19 48q9 13 27 34t39 42.5t41.5 40t34.5 26.5q21 14 50 23.5t54 9.5h305
q25 0 54 -9.5t51 -23.5q16 -10 34 -26t35 -34t32 -36t26 -33t24.5 -36.5t22.5 -43.5l-119 -34q-3 7 -5.5 12t-4.5 8q-3 4 -4 6q-10 18 -26 38t-33.5 38t-35 32t-30.5 21q-5 3 -12 4.5t-15 1.5h-289q-17 0 -26 -6q-12 -6 -30 -18.5t-36 -29t-34.5 -35t-26.5 -36.5
q-3 -6 -5.5 -12t-2.5 -14v-129q0 -31 17.5 -57.5t45.5 -34.5l559 -156q30 -9 54 -27.5t41.5 -44t26.5 -56.5t9 -63v-139zM410 1366l174 228h143l-209 -265z" />
    <glyph glyph-name="sacute" unicode="&#x15b;" horiz-adv-x="956" 
d="M772 227q0 -62 -31 -108q-6 -9 -16 -21t-21.5 -25t-23.5 -25t-23 -19q-24 -19 -58.5 -29t-66.5 -10h-245q-32 0 -66 10t-59 29q-11 7 -24 20t-26 27t-23.5 27t-16.5 22l-17 25.5t-12 21.5l107 37q6 -13 17 -28.5t24.5 -30t28 -27t26.5 -19.5q13 -8 37 -8h247q22 0 35 8
q25 14 50.5 40.5t39.5 52.5q7 14 7 34v74q0 31 -23 52t-55 24l-338 25q-38 3 -70.5 18.5t-56.5 40t-37.5 57t-13.5 70.5v61q0 62 30 109q6 8 16 20.5t21.5 25t23.5 24.5t23 20q25 19 59 29t66 10h213q32 0 66 -10t59 -29q11 -8 24.5 -21t26.5 -27.5t24 -28t17 -21.5
q10 -13 18 -25t11 -20l-107 -37q-6 13 -17.5 28.5t-25 30t-28.5 26.5t-27 19q-13 8 -35 8h-217q-22 0 -37 -8q-24 -14 -49 -39t-39 -51q-6 -12 -6 -35v-61q0 -31 23 -52t55 -24l338 -27q37 -3 69.5 -18.5t56.5 -40t38 -57.5t14 -70v-74zM287 1079l174 228h143l-209 -265z
" />
    <glyph glyph-name="Scircumflex" unicode="&#x15c;" horiz-adv-x="1122" 
d="M59 0zM948 264q0 -26 -5 -52t-19 -48q-9 -13 -27 -33.5t-39 -41.5t-41.5 -39.5t-34.5 -26.5q-21 -14 -50 -23.5t-54 -9.5h-340q-25 0 -55 9.5t-52 23.5q-16 10 -34 26t-35 34t-32 36t-26 33t-23 36.5t-22 42.5l117 33q6 -14 10 -19q2 -4 4 -5q11 -19 27 -39t33.5 -37.5
t34.5 -31.5t30 -21q5 -4 13 -5.5t16 -1.5h326q16 0 24 7q12 6 30 19t37 30t35.5 36t26.5 37q6 13 6 27v131q0 31 -18 59.5t-47 36.5l-561 154q-30 9 -53.5 28t-40 45t-25 57t-8.5 63v127q0 26 5 52t19 48q9 13 27 34t39 42.5t41.5 40t34.5 26.5q21 14 50 23.5t54 9.5h305
q25 0 54 -9.5t51 -23.5q16 -10 34 -26t35 -34t32 -36t26 -33t24.5 -36.5t22.5 -43.5l-119 -34q-3 7 -5.5 12t-4.5 8q-3 4 -4 6q-10 18 -26 38t-33.5 38t-35 32t-30.5 21q-5 3 -12 4.5t-15 1.5h-289q-17 0 -26 -6q-12 -6 -30 -18.5t-36 -29t-34.5 -35t-26.5 -36.5
q-3 -6 -5.5 -12t-2.5 -14v-129q0 -31 17.5 -57.5t45.5 -34.5l559 -156q30 -9 54 -27.5t41.5 -44t26.5 -56.5t9 -63v-139zM254 1352l191 238h116l191 -238h-139l-111 139l-109 -139h-139z" />
    <glyph glyph-name="scircumflex" unicode="&#x15d;" horiz-adv-x="956" 
d="M772 227q0 -62 -31 -108q-6 -9 -16 -21t-21.5 -25t-23.5 -25t-23 -19q-24 -19 -58.5 -29t-66.5 -10h-245q-32 0 -66 10t-59 29q-11 7 -24 20t-26 27t-23.5 27t-16.5 22l-17 25.5t-12 21.5l107 37q6 -13 17 -28.5t24.5 -30t28 -27t26.5 -19.5q13 -8 37 -8h247q22 0 35 8
q25 14 50.5 40.5t39.5 52.5q7 14 7 34v74q0 31 -23 52t-55 24l-338 25q-38 3 -70.5 18.5t-56.5 40t-37.5 57t-13.5 70.5v61q0 62 30 109q6 8 16 20.5t21.5 25t23.5 24.5t23 20q25 19 59 29t66 10h213q32 0 66 -10t59 -29q11 -8 24.5 -21t26.5 -27.5t24 -28t17 -21.5
q10 -13 18 -25t11 -20l-107 -37q-6 13 -17.5 28.5t-25 30t-28.5 26.5t-27 19q-13 8 -35 8h-217q-22 0 -37 -8q-24 -14 -49 -39t-39 -51q-6 -12 -6 -35v-61q0 -31 23 -52t55 -24l338 -27q37 -3 69.5 -18.5t56.5 -40t38 -57.5t14 -70v-74zM180 1065l191 238h116l191 -238h-139
l-111 139l-109 -139h-139z" />
    <glyph glyph-name="Scedilla" unicode="&#x15e;" horiz-adv-x="1122" 
d="M59 0zM948 264q0 -26 -5 -52t-19 -48q-9 -13 -27 -33.5t-39 -41.5t-41.5 -39.5t-34.5 -26.5q-21 -14 -50 -23.5t-54 -9.5h-340q-25 0 -55 9.5t-52 23.5q-16 10 -34 26t-35 34t-32 36t-26 33t-23 36.5t-22 42.5l117 33q6 -14 10 -19q2 -4 4 -5q11 -19 27 -39t33.5 -37.5
t34.5 -31.5t30 -21q5 -4 13 -5.5t16 -1.5h326q16 0 24 7q12 6 30 19t37 30t35.5 36t26.5 37q6 13 6 27v131q0 31 -18 59.5t-47 36.5l-561 154q-30 9 -53.5 28t-40 45t-25 57t-8.5 63v127q0 26 5 52t19 48q9 13 27 34t39 42.5t41.5 40t34.5 26.5q21 14 50 23.5t54 9.5h305
q25 0 54 -9.5t51 -23.5q16 -10 34 -26t35 -34t32 -36t26 -33t24.5 -36.5t22.5 -43.5l-119 -34q-3 7 -5.5 12t-4.5 8q-3 4 -4 6q-10 18 -26 38t-33.5 38t-35 32t-30.5 21q-5 3 -12 4.5t-15 1.5h-289q-17 0 -26 -6q-12 -6 -30 -18.5t-36 -29t-34.5 -35t-26.5 -36.5
q-3 -6 -5.5 -12t-2.5 -14v-129q0 -31 17.5 -57.5t45.5 -34.5l559 -156q30 -9 54 -27.5t41.5 -44t26.5 -56.5t9 -63v-139zM463 -344h-121l170 266l98 -39z" />
    <glyph glyph-name="scedilla" unicode="&#x15f;" horiz-adv-x="956" 
d="M772 227q0 -62 -31 -108q-6 -9 -16 -21t-21.5 -25t-23.5 -25t-23 -19q-24 -19 -58.5 -29t-66.5 -10h-245q-32 0 -66 10t-59 29q-11 7 -24 20t-26 27t-23.5 27t-16.5 22l-17 25.5t-12 21.5l107 37q6 -13 17 -28.5t24.5 -30t28 -27t26.5 -19.5q13 -8 37 -8h247q22 0 35 8
q25 14 50.5 40.5t39.5 52.5q7 14 7 34v74q0 31 -23 52t-55 24l-338 25q-38 3 -70.5 18.5t-56.5 40t-37.5 57t-13.5 70.5v61q0 62 30 109q6 8 16 20.5t21.5 25t23.5 24.5t23 20q25 19 59 29t66 10h213q32 0 66 -10t59 -29q11 -8 24.5 -21t26.5 -27.5t24 -28t17 -21.5
q10 -13 18 -25t11 -20l-107 -37q-6 13 -17.5 28.5t-25 30t-28.5 26.5t-27 19q-13 8 -35 8h-217q-22 0 -37 -8q-24 -14 -49 -39t-39 -51q-6 -12 -6 -35v-61q0 -31 23 -52t55 -24l338 -27q37 -3 69.5 -18.5t56.5 -40t38 -57.5t14 -70v-74zM340 -344h-121l170 266l98 -39z" />
    <glyph glyph-name="Scaron" unicode="&#x160;" horiz-adv-x="1122" 
d="M59 0zM948 264q0 -26 -5 -52t-19 -48q-9 -13 -27 -33.5t-39 -41.5t-41.5 -39.5t-34.5 -26.5q-21 -14 -50 -23.5t-54 -9.5h-340q-25 0 -55 9.5t-52 23.5q-16 10 -34 26t-35 34t-32 36t-26 33t-23 36.5t-22 42.5l117 33q6 -14 10 -19q2 -4 4 -5q11 -19 27 -39t33.5 -37.5
t34.5 -31.5t30 -21q5 -4 13 -5.5t16 -1.5h326q16 0 24 7q12 6 30 19t37 30t35.5 36t26.5 37q6 13 6 27v131q0 31 -18 59.5t-47 36.5l-561 154q-30 9 -53.5 28t-40 45t-25 57t-8.5 63v127q0 26 5 52t19 48q9 13 27 34t39 42.5t41.5 40t34.5 26.5q21 14 50 23.5t54 9.5h305
q25 0 54 -9.5t51 -23.5q16 -10 34 -26t35 -34t32 -36t26 -33t24.5 -36.5t22.5 -43.5l-119 -34q-3 7 -5.5 12t-4.5 8q-3 4 -4 6q-10 18 -26 38t-33.5 38t-35 32t-30.5 21q-5 3 -12 4.5t-15 1.5h-289q-17 0 -26 -6q-12 -6 -30 -18.5t-36 -29t-34.5 -35t-26.5 -36.5
q-3 -6 -5.5 -12t-2.5 -14v-129q0 -31 17.5 -57.5t45.5 -34.5l559 -156q30 -9 54 -27.5t41.5 -44t26.5 -56.5t9 -63v-139zM741 1590l-191 -238h-116l-191 238h139l111 -136l109 136h139z" />
    <glyph glyph-name="scaron" unicode="&#x161;" horiz-adv-x="956" 
d="M772 227q0 -62 -31 -108q-6 -9 -16 -21t-21.5 -25t-23.5 -25t-23 -19q-24 -19 -58.5 -29t-66.5 -10h-245q-32 0 -66 10t-59 29q-11 7 -24 20t-26 27t-23.5 27t-16.5 22l-17 25.5t-12 21.5l107 37q6 -13 17 -28.5t24.5 -30t28 -27t26.5 -19.5q13 -8 37 -8h247q22 0 35 8
q25 14 50.5 40.5t39.5 52.5q7 14 7 34v74q0 31 -23 52t-55 24l-338 25q-38 3 -70.5 18.5t-56.5 40t-37.5 57t-13.5 70.5v61q0 62 30 109q6 8 16 20.5t21.5 25t23.5 24.5t23 20q25 19 59 29t66 10h213q32 0 66 -10t59 -29q11 -8 24.5 -21t26.5 -27.5t24 -28t17 -21.5
q10 -13 18 -25t11 -20l-107 -37q-6 13 -17.5 28.5t-25 30t-28.5 26.5t-27 19q-13 8 -35 8h-217q-22 0 -37 -8q-24 -14 -49 -39t-39 -51q-6 -12 -6 -35v-61q0 -31 23 -52t55 -24l338 -27q37 -3 69.5 -18.5t56.5 -40t38 -57.5t14 -70v-74zM678 1303l-191 -238h-116l-191 238
h139l111 -136l109 136h139z" />
    <glyph glyph-name="Tcommaaccent" unicode="&#x162;" 
d="M489 1114v-1114h-118v1114h-351v115h820v-115h-351zM385 -344h-121l170 266l98 -39z" />
    <glyph glyph-name="tcommaaccent" unicode="&#x163;" horiz-adv-x="690" 
d="M276 774v-524q0 -11 2 -22t5 -17q7 -13 17.5 -27t23 -27t26 -24t25.5 -18q8 -5 19 -7t22 -2h129v-106h-131q-34 0 -67 10t-58 29q-11 7 -24.5 20.5t-26.5 28t-24 28t-17 21.5q-31 46 -31 109v528h-146v107h146v348h110v-348h271v-107h-271zM340 -344h-121l170 266l98 -39
z" />
    <glyph glyph-name="Tcaron" unicode="&#x164;" 
d="M489 1114v-1114h-118v1114h-351v115h820v-115h-351zM678 1589l-191 -237h-116l-191 237h139l111 -135l109 135h139z" />
    <glyph glyph-name="tcaron" unicode="&#x165;" horiz-adv-x="770" 
d="M276 774v-524q0 -11 2 -22t5 -17q7 -13 17.5 -27t23 -27t26 -24t25.5 -18q8 -5 19 -7t22 -2h129v-106h-131q-34 0 -67 10t-58 29q-11 7 -24.5 20.5t-26.5 28t-24 28t-17 21.5q-31 46 -31 109v528h-146v107h146v348h110v-348h271v-107h-271zM664 1327h127l-142 -344
l-108 39z" />
    <glyph glyph-name="Tbar" unicode="&#x166;" 
d="M838 1114h-351v-444h185v-107h-185v-563h-118v563h-185v107h185v444h-351v115h820v-115v0z" />
    <glyph glyph-name="tbar" unicode="&#x167;" horiz-adv-x="690" 
d="M547 772h-271v-106h271v-109h-271v-309q0 -11 2.5 -22t4.5 -17q7 -13 18 -27t23.5 -27t25.5 -24t25 -18q8 -5 20 -7t23 -2h129v-106h-133q-34 0 -66.5 10t-58.5 29q-11 7 -24 20.5t-26 28t-24 28t-18 21.5q-16 23 -22.5 50.5t-6.5 58.5v313h-148v109h148v106h-145v107
h145v348h108v-348h271v-107z" />
    <glyph glyph-name="Utilde" unicode="&#x168;" horiz-adv-x="1120" 
d="M915 262q0 -26 -5 -51t-19 -47q-9 -13 -26.5 -33.5t-38 -41.5t-41 -39.5t-33.5 -26.5q-22 -14 -51 -23.5t-54 -9.5h-274q-25 0 -55 9.5t-52 23.5q-14 8 -34 26.5t-40.5 39.5t-38 41.5t-26.5 33.5q-27 43 -27 98v967h119v-963q0 -8 2.5 -14t5.5 -12q10 -18 27 -38
t35.5 -38t36.5 -32.5t30 -20.5q5 -4 12 -5.5t15 -1.5h254q17 0 27 7q12 6 29 20.5t35 32.5t34 38t26 38q4 6 6.5 12t2.5 14v963h118v-967zM700 1372q-9 29 -36.5 42.5t-59.5 8.5l-149 -37q-36 -9 -71.5 -4t-66 21.5t-53 44t-33.5 63.5l105 25q9 -29 36.5 -42.5t59.5 -8.5
l150 37q36 9 71.5 4t65.5 -21.5t52.5 -44t33.5 -63.5z" />
    <glyph glyph-name="utilde" unicode="&#x169;" horiz-adv-x="971" 
d="M666 0l-13 102q-18 -20 -38 -38.5t-37 -30.5q-22 -16 -49.5 -29.5t-53.5 -13.5h-153q-35 0 -69 10t-58 29q-11 7 -24.5 20.5t-26.5 27.5t-24.5 27.5t-17.5 22.5q-15 23 -21.5 50.5t-6.5 58.5v645h110v-641q0 -11 0.5 -20t3.5 -15q7 -13 19 -28t25.5 -28.5t28 -25.5
t26.5 -19q13 -8 37 -8h145q15 0 29 6q13 7 34 20.5t44 30t43.5 35.5t31.5 37v656h111v-736l14 -145h-110zM586 1085q-10 29 -37.5 43t-59.5 9l-149 -37q-36 -9 -71.5 -4.5t-65.5 21t-53 44.5t-33 64l104 24q9 -29 36.5 -42.5t59.5 -8.5l150 37q36 9 71.5 4.5t65.5 -21.5
t52.5 -44.5t33.5 -63.5z" />
    <glyph glyph-name="Umacron" unicode="&#x16a;" horiz-adv-x="1120" 
d="M915 262q0 -26 -5 -51t-19 -47q-9 -13 -26.5 -33.5t-38 -41.5t-41 -39.5t-33.5 -26.5q-22 -14 -51 -23.5t-54 -9.5h-274q-25 0 -55 9.5t-52 23.5q-14 8 -34 26.5t-40.5 39.5t-38 41.5t-26.5 33.5q-27 43 -27 98v967h119v-963q0 -8 2.5 -14t5.5 -12q10 -18 27 -38
t35.5 -38t36.5 -32.5t30 -20.5q5 -4 12 -5.5t15 -1.5h254q17 0 27 7q12 6 29 20.5t35 32.5t34 38t26 38q4 6 6.5 12t2.5 14v963h118v-967zM256 1423v103h520v-103h-520z" />
    <glyph glyph-name="umacron" unicode="&#x16b;" horiz-adv-x="971" 
d="M666 0l-13 102q-18 -20 -38 -38.5t-37 -30.5q-22 -16 -49.5 -29.5t-53.5 -13.5h-153q-35 0 -69 10t-58 29q-11 7 -24.5 20.5t-26.5 27.5t-24.5 27.5t-17.5 22.5q-15 23 -21.5 50.5t-6.5 58.5v645h110v-641q0 -11 0.5 -20t3.5 -15q7 -13 19 -28t25.5 -28.5t28 -25.5
t26.5 -19q13 -8 37 -8h145q15 0 29 6q13 7 34 20.5t44 30t43.5 35.5t31.5 37v656h111v-736l14 -145h-110zM147 1137v102h521v-102h-521z" />
    <glyph glyph-name="Ubreve" unicode="&#x16c;" horiz-adv-x="1120" 
d="M915 262q0 -26 -5 -51t-19 -47q-9 -13 -26.5 -33.5t-38 -41.5t-41 -39.5t-33.5 -26.5q-22 -14 -51 -23.5t-54 -9.5h-274q-25 0 -55 9.5t-52 23.5q-14 8 -34 26.5t-40.5 39.5t-38 41.5t-26.5 33.5q-27 43 -27 98v967h119v-963q0 -8 2.5 -14t5.5 -12q10 -18 27 -38
t35.5 -38t36.5 -32.5t30 -20.5q5 -4 12 -5.5t15 -1.5h254q17 0 27 7q12 6 29 20.5t35 32.5t34 38t26 38q4 6 6.5 12t2.5 14v963h118v-967zM637 1540h78q0 -41 -15.5 -76t-42 -61.5t-62.5 -41.5t-77 -15t-76 15t-60.5 41.5t-40.5 61.5t-15 76h77q0 -24 9 -45t25 -37
t36.5 -25.5t44.5 -9.5t45.5 9.5t38 25.5t26 37t9.5 45z" />
    <glyph glyph-name="ubreve" unicode="&#x16d;" horiz-adv-x="971" 
d="M666 0l-13 102q-18 -20 -38 -38.5t-37 -30.5q-22 -16 -49.5 -29.5t-53.5 -13.5h-153q-35 0 -69 10t-58 29q-11 7 -24.5 20.5t-26.5 27.5t-24.5 27.5t-17.5 22.5q-15 23 -21.5 50.5t-6.5 58.5v645h110v-641q0 -11 0.5 -20t3.5 -15q7 -13 19 -28t25.5 -28.5t28 -25.5
t26.5 -19q13 -8 37 -8h145q15 0 29 6q13 7 34 20.5t44 30t43.5 35.5t31.5 37v656h111v-736l14 -145h-110zM537 1253h77q0 -41 -15.5 -76t-42 -61.5t-62.5 -41.5t-76 -15q-41 0 -76 15t-61 41.5t-41 61.5t-15 76h78q0 -24 9 -45t24.5 -36.5t36.5 -25t45 -9.5t45.5 9.5t38 25
t26 36.5t9.5 45z" />
    <glyph glyph-name="Uring" unicode="&#x16e;" horiz-adv-x="1120" 
d="M915 262q0 -26 -5 -51t-19 -47q-9 -13 -26.5 -33.5t-38 -41.5t-41 -39.5t-33.5 -26.5q-22 -14 -51 -23.5t-54 -9.5h-274q-25 0 -55 9.5t-52 23.5q-14 8 -34 26.5t-40.5 39.5t-38 41.5t-26.5 33.5q-27 43 -27 98v967h119v-963q0 -8 2.5 -14t5.5 -12q10 -18 27 -38
t35.5 -38t36.5 -32.5t30 -20.5q5 -4 12 -5.5t15 -1.5h254q17 0 27 7q12 6 29 20.5t35 32.5t34 38t26 38q4 6 6.5 12t2.5 14v963h118v-967zM713 1534q0 -41 -15.5 -76.5t-42 -62t-62.5 -41.5t-77 -15t-76 15t-60.5 41.5t-40.5 62t-15 76.5q0 40 15 76t40.5 62t60.5 41.5
t76 15.5t77 -15.5t62.5 -41.5t42 -62t15.5 -76zM635 1534q0 24 -9.5 45t-26 37t-38 25.5t-45.5 9.5t-44.5 -9.5t-36.5 -25.5t-25 -37t-9 -45t9 -45.5t25 -37t36.5 -25t44.5 -9.5t45.5 9.5t38 25t26 37t9.5 45.5z" />
    <glyph glyph-name="uring" unicode="&#x16f;" horiz-adv-x="971" 
d="M666 0l-13 102q-18 -20 -38 -38.5t-37 -30.5q-22 -16 -49.5 -29.5t-53.5 -13.5h-153q-35 0 -69 10t-58 29q-11 7 -24.5 20.5t-26.5 27.5t-24.5 27.5t-17.5 22.5q-15 23 -21.5 50.5t-6.5 58.5v645h110v-641q0 -11 0.5 -20t3.5 -15q7 -13 19 -28t25.5 -28.5t28 -25.5
t26.5 -19q13 -8 37 -8h145q15 0 29 6q13 7 34 20.5t44 30t43.5 35.5t31.5 37v656h111v-736l14 -145h-110zM621 1227q0 -41 -15.5 -76.5t-42.5 -62t-63 -41.5t-76 -15q-41 0 -76 15t-61 41.5t-41 62t-15 76.5q0 40 15 75.5t41 62t61 41.5t76 15q40 0 76 -15t63 -41.5
t42.5 -62t15.5 -75.5zM543 1227q0 24 -9.5 45t-26 36.5t-38 25t-45.5 9.5t-45 -9.5t-36.5 -25t-24.5 -36.5t-9 -45t9 -45.5t24.5 -37t36.5 -25t45 -9.5t45.5 9.5t38 25t26 37t9.5 45.5z" />
    <glyph glyph-name="Uhungarumlaut" unicode="&#x170;" horiz-adv-x="1120" 
d="M915 262q0 -26 -5 -51t-19 -47q-9 -13 -26.5 -33.5t-38 -41.5t-41 -39.5t-33.5 -26.5q-22 -14 -51 -23.5t-54 -9.5h-274q-25 0 -55 9.5t-52 23.5q-14 8 -34 26.5t-40.5 39.5t-38 41.5t-26.5 33.5q-27 43 -27 98v967h119v-963q0 -8 2.5 -14t5.5 -12q10 -18 27 -38
t35.5 -38t36.5 -32.5t30 -20.5q5 -4 12 -5.5t15 -1.5h254q17 0 27 7q12 6 29 20.5t35 32.5t34 38t26 38q4 6 6.5 12t2.5 14v963h118v-967zM317 1366l175 227h133l-209 -264zM516 1366l174 227h133l-209 -264z" />
    <glyph glyph-name="uhungarumlaut" unicode="&#x171;" horiz-adv-x="971" 
d="M666 0l-13 102q-18 -20 -38 -38.5t-37 -30.5q-22 -16 -49.5 -29.5t-53.5 -13.5h-153q-35 0 -69 10t-58 29q-11 7 -24.5 20.5t-26.5 27.5t-24.5 27.5t-17.5 22.5q-15 23 -21.5 50.5t-6.5 58.5v645h110v-641q0 -11 0.5 -20t3.5 -15q7 -13 19 -28t25.5 -28.5t28 -25.5
t26.5 -19q13 -8 37 -8h145q15 0 29 6q13 7 34 20.5t44 30t43.5 35.5t31.5 37v656h111v-736l14 -145h-110zM229 1079l174 228h134l-209 -265zM428 1079l174 228h133l-209 -265z" />
    <glyph glyph-name="Uogonek" unicode="&#x172;" horiz-adv-x="1120" 
d="M915 262q0 -26 -5 -51t-19 -47q-9 -13 -26.5 -33.5t-38 -41.5t-41 -39.5t-33.5 -26.5q-22 -14 -51 -23.5t-54 -9.5h-274q-25 0 -55 9.5t-52 23.5q-14 8 -34 26.5t-40.5 39.5t-38 41.5t-26.5 33.5q-27 43 -27 98v967h119v-963q0 -8 2.5 -14t5.5 -12q10 -18 27 -38
t35.5 -38t36.5 -32.5t30 -20.5q5 -4 12 -5.5t15 -1.5h254q17 0 27 7q12 6 29 20.5t35 32.5t34 38t26 38q4 6 6.5 12t2.5 14v963h118v-967zM367 -117l98 39l170 -266h-121z" />
    <glyph glyph-name="uogonek" unicode="&#x173;" horiz-adv-x="971" 
d="M666 0l-13 102q-18 -20 -38 -38.5t-37 -30.5q-22 -16 -49.5 -29.5t-53.5 -13.5h-153q-35 0 -69 10t-58 29q-11 7 -24.5 20.5t-26.5 27.5t-24.5 27.5t-17.5 22.5q-15 23 -21.5 50.5t-6.5 58.5v645h110v-641q0 -11 0.5 -20t3.5 -15q7 -13 19 -28t25.5 -28.5t28 -25.5
t26.5 -19q13 -8 37 -8h145q15 0 29 6q13 7 34 20.5t44 30t43.5 35.5t31.5 37v656h111v-736l14 -145h-110zM301 -117l98 39l170 -266h-120z" />
    <glyph glyph-name="Wcircumflex" unicode="&#x174;" horiz-adv-x="1499" 
d="M1114 0h-170l-250 1071l-241 -1071h-170l-273 1229h123l229 -1100h13l241 1100h154l252 -1100h12l219 1100h127zM446 1352l191 237h117l190 -237h-139l-111 139l-108 -139h-140z" />
    <glyph glyph-name="wcircumflex" unicode="&#x175;" horiz-adv-x="1360" 
d="M999 0h-153l-217 752l-209 -752h-154l-256 881h119l209 -762h12l201 762h158l209 -762h12l200 762h117zM381 1065l190 238h117l191 -238h-140l-110 139l-109 -139h-139z" />
    <glyph glyph-name="Ycircumflex" unicode="&#x176;" horiz-adv-x="915" 
d="M465 524v-524h-119v524l-381 705h131l310 -584l313 584h129zM156 1352l190 237h117l190 -237h-139l-111 139l-108 -139h-139z" />
    <glyph glyph-name="ycircumflex" unicode="&#x177;" horiz-adv-x="860" 
d="M625 881h118l-399 -1225h-117l117 344h-47l-287 881h119l242 -768h12zM129 1065l190 238h117l191 -238h-140l-110 139l-109 -139h-139z" />
    <glyph glyph-name="Ydieresis" unicode="&#x178;" horiz-adv-x="915" 
d="M465 524v-524h-119v524l-381 705h131l310 -584l313 584h129zM483 1368v158h156v-158h-156zM184 1368v158h156v-158h-156z" />
    <glyph glyph-name="Zacute" unicode="&#x179;" horiz-adv-x="983" 
d="M78 0v102l602 1012h-602v115h745v-107l-598 -1007h598v-115h-745zM391 1366l174 227h144l-209 -264z" />
    <glyph glyph-name="zacute" unicode="&#x17a;" horiz-adv-x="864" 
d="M78 0v98l463 676h-480v107h617v-101l-461 -674h483v-106h-622zM250 1079l174 228h143l-209 -265z" />
    <glyph glyph-name="Zdotaccent" unicode="&#x17b;" horiz-adv-x="983" 
d="M78 0v102l602 1012h-602v115h745v-107l-598 -1007h598v-115h-745zM379 1368v158h156v-158h-156z" />
    <glyph glyph-name="zdotaccent" unicode="&#x17c;" horiz-adv-x="864" 
d="M78 0v98l463 676h-480v107h617v-101l-461 -674h483v-106h-622zM293 1081v158h156v-158h-156z" />
    <glyph glyph-name="Zcaron" unicode="&#x17d;" horiz-adv-x="983" 
d="M78 0v102l602 1012h-602v115h745v-107l-598 -1007h598v-115h-745zM700 1589l-190 -237h-117l-190 237h139l111 -135l108 135h139z" />
    <glyph glyph-name="zcaron" unicode="&#x17e;" horiz-adv-x="864" 
d="M78 0v98l463 676h-480v107h617v-101l-461 -674h483v-106h-622zM643 1303l-190 -238h-117l-191 238h140l110 -136l109 136h139z" />
    <glyph glyph-name="longs" unicode="&#x17f;" horiz-adv-x="606" 
d="M436 1130q-11 0 -23 -0.5t-20 -5.5q-12 -7 -25.5 -18t-26 -24.5t-23 -28t-17.5 -27.5q-3 -6 -3.5 -16t-0.5 -21v-989h-111v774h-145v107h145v112q0 64 29 109q6 8 17 21.5t24.5 28t26.5 27.5t24 21q25 19 59 28t68 9h131v-107h-129z" />
    <glyph glyph-name="florin" unicode="&#x192;" horiz-adv-x="627" 
d="M436 1130q-11 0 -23 -0.5t-20 -5.5q-12 -7 -25.5 -18t-26 -24.5t-23 -28t-17.5 -27.5q-3 -6 -3.5 -16t-0.5 -21v-108h154v-107h-154v-774v-109q0 -62 -31 -108q-6 -9 -17 -22.5t-24 -27.5t-26.5 -27.5t-24.5 -20.5q-25 -19 -59 -28t-66 -9h-129v106h127q11 0 20 0.5
t17 5.5q12 7 26 19t27.5 25.5t24.5 28.5t18 28q6 12 6 35v878h-145v107h143h2v112q0 64 29 109q6 8 17 21.5t24.5 28t26.5 27.5t24 21q25 19 59 28t68 9h131v-107h-129z" />
    <glyph glyph-name="Scommaaccent" unicode="&#x218;" horiz-adv-x="1122" 
d="M59 0zM948 264q0 -26 -5 -52t-19 -48q-9 -13 -27 -33.5t-39 -41.5t-41.5 -39.5t-34.5 -26.5q-21 -14 -50 -23.5t-54 -9.5h-340q-25 0 -55 9.5t-52 23.5q-16 10 -34 26t-35 34t-32 36t-26 33t-23 36.5t-22 42.5l117 33q6 -14 10 -19q2 -4 4 -5q11 -19 27 -39t33.5 -37.5
t34.5 -31.5t30 -21q5 -4 13 -5.5t16 -1.5h326q16 0 24 7q12 6 30 19t37 30t35.5 36t26.5 37q6 13 6 27v131q0 31 -18 59.5t-47 36.5l-561 154q-30 9 -53.5 28t-40 45t-25 57t-8.5 63v127q0 26 5 52t19 48q9 13 27 34t39 42.5t41.5 40t34.5 26.5q21 14 50 23.5t54 9.5h305
q25 0 54 -9.5t51 -23.5q16 -10 34 -26t35 -34t32 -36t26 -33t24.5 -36.5t22.5 -43.5l-119 -34q-3 7 -5.5 12t-4.5 8q-3 4 -4 6q-10 18 -26 38t-33.5 38t-35 32t-30.5 21q-5 3 -12 4.5t-15 1.5h-289q-17 0 -26 -6q-12 -6 -30 -18.5t-36 -29t-34.5 -35t-26.5 -36.5
q-3 -6 -5.5 -12t-2.5 -14v-129q0 -31 17.5 -57.5t45.5 -34.5l559 -156q30 -9 54 -27.5t41.5 -44t26.5 -56.5t9 -63v-139zM463 -344h-121l170 266l98 -39z" />
    <glyph glyph-name="scommaaccent" unicode="&#x219;" horiz-adv-x="956" 
d="M772 227q0 -62 -31 -108q-6 -9 -16 -21t-21.5 -25t-23.5 -25t-23 -19q-24 -19 -58.5 -29t-66.5 -10h-245q-32 0 -66 10t-59 29q-11 7 -24 20t-26 27t-23.5 27t-16.5 22l-17 25.5t-12 21.5l107 37q6 -13 17 -28.5t24.5 -30t28 -27t26.5 -19.5q13 -8 37 -8h247q22 0 35 8
q25 14 50.5 40.5t39.5 52.5q7 14 7 34v74q0 31 -23 52t-55 24l-338 25q-38 3 -70.5 18.5t-56.5 40t-37.5 57t-13.5 70.5v61q0 62 30 109q6 8 16 20.5t21.5 25t23.5 24.5t23 20q25 19 59 29t66 10h213q32 0 66 -10t59 -29q11 -8 24.5 -21t26.5 -27.5t24 -28t17 -21.5
q10 -13 18 -25t11 -20l-107 -37q-6 13 -17.5 28.5t-25 30t-28.5 26.5t-27 19q-13 8 -35 8h-217q-22 0 -37 -8q-24 -14 -49 -39t-39 -51q-6 -12 -6 -35v-61q0 -31 23 -52t55 -24l338 -27q37 -3 69.5 -18.5t56.5 -40t38 -57.5t14 -70v-74zM399 -344h-120l170 266l98 -39z" />
    <glyph glyph-name="circumflex" unicode="&#x2c6;" horiz-adv-x="868" 
d="M180 1065l191 238h116l191 -238h-139l-111 139l-109 -139h-139z" />
    <glyph glyph-name="caron" unicode="&#x2c7;" horiz-adv-x="868" 
d="M678 1303l-191 -238h-116l-191 238h139l111 -136l109 136h139z" />
    <glyph glyph-name="breve" unicode="&#x2d8;" horiz-adv-x="698" 
d="M449 1253h77q0 -41 -15.5 -76t-42 -61.5t-62.5 -41.5t-76 -15q-41 0 -76 15t-61 41.5t-41 61.5t-15 76h78q0 -24 9 -45t24.5 -36.5t36.5 -25t45 -9.5t45.5 9.5t38 25t26 36.5t9.5 45z" />
    <glyph glyph-name="dotaccent" unicode="&#x2d9;" horiz-adv-x="422" 
d="M94 1081v158h156v-158h-156z" />
    <glyph glyph-name="ring" unicode="&#x2da;" horiz-adv-x="766" 
d="M526 1247q0 -41 -15.5 -76t-42 -61.5t-62.5 -41.5t-76 -15q-41 0 -76 15t-61 41.5t-41 61.5t-15 76t15 76.5t41 62t61 41.5t76 15q40 0 76 -15t62.5 -41.5t42 -62t15.5 -76.5zM449 1247q0 24 -9.5 45.5t-26 37t-38 25t-45.5 9.5t-45 -9.5t-36.5 -25t-24.5 -37t-9 -45.5
t9 -45t24.5 -37t36.5 -25.5t45 -9.5t45.5 9.5t38 25.5t26 37t9.5 45z" />
    <glyph glyph-name="ogonek" unicode="&#x2db;" horiz-adv-x="831" 
d="M301 -117l98 39l170 -266h-120z" />
    <glyph glyph-name="tilde" unicode="&#x2dc;" horiz-adv-x="862" 
d="M586 1085q-10 29 -37.5 43t-59.5 9l-149 -37q-36 -9 -71.5 -4.5t-65.5 21t-53 44.5t-33 64l104 24q9 -29 36.5 -42.5t59.5 -8.5l150 37q36 9 71.5 4.5t65.5 -21.5t52.5 -44.5t33.5 -63.5z" />
    <glyph glyph-name="hungarumlaut" unicode="&#x2dd;" horiz-adv-x="760" 
d="M229 1079l174 228h134l-209 -265zM428 1079l174 228h133l-209 -265z" />
    <glyph glyph-name="pi" unicode="&#x3c0;" horiz-adv-x="1200" 
d="M774 0q-3 26 -10.5 57.5t-7.5 57.5v659h-430v-774h-111v774h-158v107h967v-107h-158v-635q0 -34 8 -69.5t11 -69.5h-111z" />
    <glyph glyph-name="afii10023" unicode="&#x401;" horiz-adv-x="1020" 
d="M100 0v1229h705v-115h-586v-442h555v-115h-555v-442h586v-115h-705zM547 1430v157h155v-157h-155zM248 1430v157h155v-157h-155z" />
    <glyph glyph-name="afii10051" unicode="&#x402;" horiz-adv-x="1270" 
d="M1069 262q0 -26 -8.5 -51t-22.5 -47q-8 -13 -26 -34t-39 -42.5t-42 -40t-36 -27.5q-22 -12 -52.5 -20t-56.5 -8h-92v114h90q15 0 29 7t31.5 21.5t35.5 31.5t34 36t26 36q3 5 5.5 11.5t2.5 12.5v379q0 23 -6 35q-14 26 -37.5 53t-48.5 41q-13 8 -37 8h-139
q-8 0 -16.5 -1.5t-14.5 -4.5q-13 -7 -34.5 -20t-44.5 -30t-43.5 -36.5t-30.5 -38.5l-4 -8v-639h-121v1114h-351v115h820v-115h-348v-326q16 18 36.5 36.5t43.5 33t49 24t53 9.5h147q32 0 66 -10t59 -29q11 -8 24.5 -21t26.5 -27.5t24 -28t17 -21.5q31 -46 31 -109v-383z" />
    <glyph glyph-name="afii10052" unicode="&#x403;" 
d="M811 1229v-115h-592v-1114h-119v1229h711v0zM410 1366l174 228h143l-209 -265z" />
    <glyph glyph-name="afii10053" unicode="&#x404;" horiz-adv-x="1090" 
d="M80 965q0 26 5.5 51t20.5 47q9 13 26 34t37.5 42.5t40.5 40t34 26.5q21 13 50 22t54 9h291q25 0 54 -8.5t50 -22.5q16 -10 34 -26t35 -34t32 -36t26 -33t23.5 -36.5t21.5 -43.5l-116 -32l-5 10q-2 4 -4 8.5t-4 7.5q-11 18 -26.5 37t-33 36.5t-34.5 31t-30 20.5
q-5 3 -13 4.5t-16 1.5h-275q-14 0 -26 -6t-29.5 -20t-35.5 -32t-34 -37.5t-26 -37.5q-3 -5 -5.5 -12.5t-2.5 -15.5v-279h540v-115h-540v-299q0 -8 2.5 -16t5.5 -14q10 -18 26 -37.5t34 -37t35.5 -31t29.5 -19.5q14 -7 26 -7h275q17 0 29 7q13 6 30 19t34.5 30.5t33 37
t26.5 38.5l8 16q3 4 5 10l116 -35q-9 -21 -21.5 -41.5t-23.5 -35.5t-26 -33t-32 -36t-35 -34t-34 -26q-21 -14 -50 -23.5t-54 -9.5h-174h-115q-26 0 -54.5 9.5t-51.5 23.5q-14 8 -34 26.5t-40.5 40t-37.5 42.5t-26 34q-14 20 -19 44.5t-7 49.5v705z" />
    <glyph glyph-name="afii10054" unicode="&#x405;" horiz-adv-x="1122" 
d="M59 0zM948 264q0 -26 -5 -52t-19 -48q-9 -13 -27 -33.5t-39 -41.5t-41.5 -39.5t-34.5 -26.5q-21 -14 -50 -23.5t-54 -9.5h-340q-25 0 -55 9.5t-52 23.5q-16 10 -34 26t-35 34t-32 36t-26 33t-23 36.5t-22 42.5l117 33q6 -14 10 -19q2 -4 4 -5q11 -19 27 -39t33.5 -37.5
t34.5 -31.5t30 -21q5 -4 13 -5.5t16 -1.5h326q16 0 24 7q12 6 30 19t37 30t35.5 36t26.5 37q6 13 6 27v131q0 31 -18 59.5t-47 36.5l-561 154q-30 9 -53.5 28t-40 45t-25 57t-8.5 63v127q0 26 5 52t19 48q9 13 27 34t39 42.5t41.5 40t34.5 26.5q21 14 50 23.5t54 9.5h305
q25 0 54 -9.5t51 -23.5q16 -10 34 -26t35 -34t32 -36t26 -33t24.5 -36.5t22.5 -43.5l-119 -34q-3 7 -5.5 12t-4.5 8q-3 4 -4 6q-10 18 -26 38t-33.5 38t-35 32t-30.5 21q-5 3 -12 4.5t-15 1.5h-289q-17 0 -26 -6q-12 -6 -30 -18.5t-36 -29t-34.5 -35t-26.5 -36.5
q-3 -6 -5.5 -12t-2.5 -14v-129q0 -31 17.5 -57.5t45.5 -34.5l559 -156q30 -9 54 -27.5t41.5 -44t26.5 -56.5t9 -63v-139z" />
    <glyph glyph-name="afii10055" unicode="&#x406;" horiz-adv-x="442" 
d="M100 0v1229h119v-1229h-119z" />
    <glyph glyph-name="afii10056" unicode="&#x407;" horiz-adv-x="471" 
d="M100 0v1229h119v-1229h-119zM231 1364v158h156v-158h-156zM-68 1364v158h156v-158h-156z" />
    <glyph glyph-name="afii10057" unicode="&#x408;" horiz-adv-x="932" 
d="M727 266q0 -26 -6.5 -52t-20.5 -48q-8 -13 -25.5 -33.5t-37.5 -41.5t-40 -39.5t-34 -26.5q-21 -14 -51.5 -23.5t-54.5 -9.5h-160q-25 0 -55 9.5t-52 23.5q-16 10 -33.5 26t-34 34t-31.5 36t-25 33q-11 15 -23.5 36.5t-22.5 42.5l115 33q11 -21 27.5 -44t35.5 -44.5
t38.5 -39t35.5 -25.5q5 -3 14 -5t17 -2h143q14 0 25 7q12 6 30 20.5t36.5 32.5t35.5 38t27 38q3 6 5.5 12t2.5 14v961h119v-963z" />
    <glyph glyph-name="afii10058" unicode="&#x409;" horiz-adv-x="1778" 
d="M1548 524q29 -46 29 -106v-168q0 -58 -29 -105q-6 -9 -19.5 -24t-29 -30.5t-30.5 -30t-25 -21.5q-25 -17 -58 -28t-65 -11h-530v1114h-480v-852q0 -53 -28 -98q-9 -13 -27 -34t-39 -42.5t-42 -40t-36 -27.5q-21 -12 -51.5 -20t-56.5 -8h-92v114h90q14 0 28 7t32 21.5
t36 31.5t33.5 36t25.5 36q5 6 7 15t2 15v961h716v-559h412q32 0 65 -10.5t58 -28.5q10 -8 25 -22.5t30.5 -30.5t29 -30.5t19.5 -23.5zM1458 418q0 19 -6 33q-7 13 -18.5 27.5t-25 28t-27.5 25.5t-25 19q-15 6 -37 6h-410v-442h410q11 0 20 2.5t17 5.5q11 7 25 18t27.5 24
t25 27t18.5 27q3 6 4.5 15t1.5 18v166z" />
    <glyph glyph-name="afii10059" unicode="&#x40a;" horiz-adv-x="1765" 
d="M1536 524q14 -23 21.5 -50t7.5 -56v-168q0 -29 -7.5 -55.5t-21.5 -49.5q-6 -9 -19.5 -24t-29 -30.5t-30.5 -30t-25 -21.5q-25 -17 -58 -28t-65 -11h-531v557h-559v-557h-119v1229h119v-557h559v557h119v-559h412q32 0 65 -10.5t58 -28.5q10 -8 25 -22.5t30.5 -30.5
t29 -30.5t19.5 -23.5zM897 557v-442h410q11 0 19.5 2.5t16.5 5.5q12 7 25.5 18t27 24t25.5 27t19 27q3 6 4.5 15t1.5 18v166q0 19 -6 33q-7 13 -19 27.5t-25.5 28t-27 25.5t-25.5 19q-15 6 -36 6h-410z" />
    <glyph glyph-name="afii10060" unicode="&#x40b;" horiz-adv-x="1270" 
d="M948 0v641q0 23 -6 35q-14 26 -37.5 53t-48.5 41q-13 8 -37 8h-139q-8 0 -16.5 -1.5t-14.5 -4.5q-13 -7 -34.5 -20t-44.5 -30t-43.5 -36.5t-30.5 -38.5l-4 -8v-639h-121v1114h-351v115h820v-115h-348v-326q16 18 36.5 36.5t43.5 33t49 24t53 9.5h147q32 0 66 -10t59 -29
q11 -8 24.5 -21t26.5 -27.5t24 -28t17 -21.5q31 -46 31 -109v-645h-121z" />
    <glyph glyph-name="afii10061" unicode="&#x40c;" horiz-adv-x="1038" 
d="M754 0l-469 557h-66v-557h-119v1229h119v-559h66l467 559h151l-518 -615l520 -614h-151zM410 1366l174 228h143l-209 -265z" />
    <glyph glyph-name="afii10062" unicode="&#x40e;" horiz-adv-x="915" 
d="M535 1602h77q0 -41 -15.5 -76.5t-42 -62t-62.5 -41.5t-76 -15q-41 0 -76 15t-61 41.5t-41 62t-15 76.5h78q0 -24 9 -45.5t24.5 -37t36.5 -25t45 -9.5t45.5 9.5t38 25t26 37t9.5 45.5zM381 0h-121l137 352h-78l-323 877h123l278 -750h45l285 750h121z" />
    <glyph glyph-name="afii10145" unicode="&#x40f;" horiz-adv-x="1128" 
d="M102 1229h119v-1112h570v1112h118v-1229h-344v-217h-116v217h-347v1229z" />
    <glyph glyph-name="afii10017" unicode="&#x410;" horiz-adv-x="1100" 
d="M874 0l-92 285h-569l-94 -285h-125l412 1229h184l411 -1229h-127zM250 399h495l-235 713h-27z" />
    <glyph glyph-name="afii10018" unicode="&#x411;" horiz-adv-x="1069" 
d="M879 522q15 -23 21.5 -49t6.5 -57v-166q0 -29 -6.5 -56.5t-21.5 -50.5q-6 -8 -19 -23t-28 -30.5t-30.5 -29.5t-25.5 -21q-25 -19 -58 -29t-65 -10h-549h-4v1225v4h731v-115h-612v-444h434q32 0 65 -11t58 -28q10 -8 25.5 -22.5t30.5 -31t28 -31.5t19 -24zM788 250v168
q0 9 -0.5 17.5t-3.5 15.5q-7 13 -18.5 27.5t-25 28t-28 25t-26.5 17.5q-6 5 -15.5 6.5t-19.5 1.5h-432v-444v2h432q10 0 19.5 1.5t15.5 4.5q12 7 26.5 18t28 24.5t25 27.5t18.5 26q3 6 3.5 15t0.5 18z" />
    <glyph glyph-name="afii10019" unicode="&#x412;" horiz-adv-x="1108" 
d="M907 252q0 -29 -6.5 -55.5t-21.5 -49.5q-6 -8 -19 -23t-28 -31.5t-30.5 -31.5t-25.5 -22q-25 -19 -58 -29t-65 -10h-553v1229h553q32 0 65 -11.5t58 -29.5q10 -8 25.5 -22.5t30.5 -30.5t28 -30.5t19 -23.5q15 -23 21.5 -51t6.5 -57v-158q0 -29 -6.5 -57t-21.5 -51
q-5 -7 -14 -17.5t-20.5 -22.5t-23.5 -24l-22 -22l22 -22t23.5 -24t20.5 -22.5t14 -17.5q15 -23 21.5 -51.5t6.5 -57.5v-174zM788 971q0 19 -6 33q-7 13 -18 27.5t-24.5 29t-27.5 26.5t-26 19q-13 8 -35 8h-432v-438h434q10 0 18.5 2.5t14.5 5.5q12 7 26 18.5t27.5 25.5
t24.5 28.5t18 27.5q3 7 4.5 16.5t1.5 18.5v152zM788 424q0 9 -1.5 18t-4.5 15q-7 13 -18 28t-24.5 28.5t-27.5 25t-26 18.5q-12 6 -33 6h-434v-448h432q22 0 35 8q12 7 26 18.5t27.5 25t24.5 28.5t18 28q3 6 4.5 15t1.5 18v168z" />
    <glyph glyph-name="afii10020" unicode="&#x413;" 
d="M811 1229v-115h-592v-1114h-119v1229h711v0z" />
    <glyph glyph-name="afii10021" unicode="&#x414;" horiz-adv-x="1196" 
d="M909 115h101l-39 -312h-117l25 197h-801v-197h-115v312h18t29.5 0.5t29 1t17.5 2.5q13 7 28 17.5t29 22.5t26.5 24.5t21.5 23.5q5 6 9.5 15.5t6.5 25.5l113 981h618v-1114zM397 1114l-104 -872q-6 -35 -18.5 -62.5t-30.5 -50.5q-5 -5 -7.5 -7t-9.5 -7h566v999h-396z" />
    <glyph glyph-name="afii10022" unicode="&#x415;" horiz-adv-x="1020" 
d="M100 0v1229h705v-115h-586v-442h555v-115h-555v-442h586v-115h-705z" />
    <glyph glyph-name="afii10024" unicode="&#x416;" horiz-adv-x="1622" 
d="M10 0l522 614l-520 615h152l469 -557h65v557h119v-557h68l465 557h149l-514 -615l516 -614h-149l-469 559h-66v-559h-119v559h-65l-469 -559h-154z" />
    <glyph glyph-name="afii10025" unicode="&#x417;" horiz-adv-x="1075" 
d="M872 244q0 -61 -30 -107q-6 -8 -19 -23t-28 -31.5t-30.5 -31.5t-25.5 -22q-24 -19 -56 -29t-65 -10h-282q-25 0 -54 9.5t-51 23.5q-16 10 -34 25.5t-35 33t-32 35.5t-26 33t-24 37.5t-23 43.5l119 33q11 -21 27.5 -44t35.5 -44.5t38.5 -39t35.5 -25.5q5 -4 13 -5.5
t16 -1.5h274q22 0 35 9q12 7 26 18.5t27.5 25t25 28.5t18.5 28q6 12 6 33v182q0 9 -1.5 18t-4.5 15q-7 13 -18.5 27.5t-25 28t-27.5 24.5t-26 18q-6 3 -14.5 5.5t-18.5 2.5h-249v115h247q10 0 19.5 1.5t15.5 4.5q12 7 26 18.5t27.5 25t25 27.5t18.5 27q3 7 4.5 16.5
t1.5 18.5v158q0 9 -1.5 19t-4.5 16q-7 13 -18.5 28t-25 29.5t-27.5 26t-26 18.5q-8 5 -16.5 5.5t-18.5 0.5h-274q-8 0 -16 -1.5t-13 -4.5q-16 -8 -36 -25t-39.5 -38.5t-36 -45t-25.5 -44.5l-117 32q10 22 22 43.5t23 36.5t26 33.5t32 37t35 34.5t34 26q22 14 51 22.5t54 8.5
h282q33 0 65 -10t56 -29q10 -8 25.5 -22.5t30.5 -31t28 -31.5t19 -23q30 -47 30 -107v-166q0 -61 -30 -106q-5 -7 -14 -17.5t-20 -22.5t-23 -24t-23 -22q11 -10 23 -22t23 -24t20 -22.5t14 -17.5q30 -47 30 -107v-188z" />
    <glyph glyph-name="afii10026" unicode="&#x418;" horiz-adv-x="1157" 
d="M936 1229v-1229h-119v1063l-555 -1063h-158v1229h119v-1049l555 1049h158v0z" />
    <glyph glyph-name="afii10027" unicode="&#x419;" horiz-adv-x="1157" 
d="M639 1532h78q0 -41 -15.5 -76.5t-42 -62t-62.5 -41.5t-77 -15t-76 15t-60.5 41.5t-40.5 62t-15 76.5h78q0 -24 9 -45.5t24.5 -37t36 -25t44.5 -9.5t45.5 9.5t38 25t26 37t9.5 45.5zM936 0h-119v1063l-555 -1063h-158v1229h119v-1049l555 1049h158v-1229z" />
    <glyph glyph-name="afii10028" unicode="&#x41a;" horiz-adv-x="1026" 
d="M754 0l-469 557h-66v-557h-119v1229h119v-559h66l467 559h151l-518 -615l520 -614h-151z" />
    <glyph glyph-name="afii10029" unicode="&#x41b;" horiz-adv-x="1157" 
d="M193 1229h745v-1229h-117v1114h-512v-852q0 -53 -28 -98q-9 -13 -27 -34t-39 -42.5t-42 -40t-36 -27.5q-21 -12 -50.5 -20t-55.5 -8h-92v114h90q14 0 28 7t32 21.5t36 31.5t33.5 36t25.5 36q5 6 7 15t2 15v961z" />
    <glyph glyph-name="afii10030" unicode="&#x41c;" horiz-adv-x="1331" 
d="M995 0v1102l-350 -772h-80l-348 772v-1102h-115v1229h170l334 -719l336 719h168v-1229h-115z" />
    <glyph glyph-name="afii10031" unicode="&#x41d;" horiz-adv-x="1139" 
d="M799 0v557h-580v-557h-119v1229h119v-557h580v557h119v-1229h-119z" />
    <glyph glyph-name="afii10032" unicode="&#x41e;" horiz-adv-x="1153" 
d="M956 264q0 -26 -6 -52t-20 -48q-9 -13 -26.5 -33.5t-38 -41.5t-41 -39.5t-33.5 -26.5q-22 -14 -52 -23.5t-55 -9.5h-324q-24 0 -53 9.5t-51 23.5q-14 8 -34.5 26.5t-41.5 39.5t-39 41.5t-26 33.5q-14 22 -19.5 48t-5.5 52v697q0 26 5.5 52t19.5 48q8 13 26 34t39 42.5
t41.5 40t34.5 26.5q22 14 51 23.5t53 9.5h324q25 0 55 -9.5t52 -23.5q13 -8 33.5 -26.5t41 -40t38 -42.5t26.5 -34q14 -22 20 -48t6 -52v-697zM838 956q0 8 -1.5 16.5t-5.5 14.5q-10 18 -26.5 38t-35.5 38t-37 32.5t-30 20.5t-26 6h-305q-18 0 -27 -6q-12 -6 -30 -20.5
t-36 -32.5t-34.5 -38t-26.5 -38q-3 -6 -5.5 -14.5t-2.5 -16.5v-690q0 -8 2.5 -14t5.5 -12q10 -18 26.5 -38t34.5 -38t36 -32.5t30 -20.5q8 -7 27 -7h305q8 0 14.5 1.5t11.5 5.5q12 6 30 20.5t37 32.5t35.5 38t26.5 38q7 11 7 26v690z" />
    <glyph glyph-name="afii10033" unicode="&#x41f;" horiz-adv-x="1135" 
d="M913 0h-118v1112h-576v-1112h-119v1229h813v-1229z" />
    <glyph glyph-name="afii10034" unicode="&#x420;" horiz-adv-x="1069" 
d="M909 795q0 -61 -30 -107q-6 -8 -19 -23t-29 -31t-31.5 -30.5t-25.5 -21.5q-25 -19 -57 -29t-64 -10h-434v-543h-119v1229h553q32 0 64 -10.5t57 -28.5q10 -8 25.5 -22.5t31.5 -31t29 -31.5t19 -24q30 -45 30 -106v-180zM791 971q0 9 -0.5 18.5t-4.5 16.5q-7 13 -18.5 28
t-25.5 29t-29 26t-27 19q-8 5 -16.5 5.5t-18.5 0.5h-432v-457h432q22 0 35 9q12 7 27 18t29 24.5t25.5 28t18.5 27.5q4 6 4.5 15.5t0.5 19.5v172z" />
    <glyph glyph-name="afii10035" unicode="&#x421;" horiz-adv-x="1069" 
d="M90 0zM911 231q-9 -21 -22.5 -42.5t-24.5 -36.5t-26 -33t-32 -36t-35 -34t-34 -26q-21 -14 -50 -23.5t-54 -9.5h-271q-24 0 -54 9.5t-52 23.5q-14 8 -34.5 26.5t-41 39.5t-38 41.5t-25.5 33.5q-14 22 -20.5 47t-6.5 51v701q0 26 6.5 51t20.5 47q8 13 25.5 34t38 42.5
t41 40t34.5 26.5q22 14 51 23.5t53 9.5h273q25 0 54 -9.5t50 -23.5q16 -10 34 -26t35 -34t32 -36t26 -33t24.5 -36.5t22.5 -43.5l-118 -34q-9 21 -26 45t-36.5 45.5t-39.5 39t-36 25.5q-5 3 -12.5 4.5t-15.5 1.5h-256q-18 0 -27 -6q-12 -6 -30 -20.5t-36.5 -32.5t-35.5 -38
t-27 -38q-6 -12 -6 -29v-692q0 -14 6 -26q10 -18 27 -38t35.5 -38t36.5 -32.5t30 -20.5q8 -7 27 -7h256q8 0 15.5 1.5t12.5 5.5q16 8 35.5 25.5t38.5 39t36 44.5t28 44z" />
    <glyph glyph-name="afii10036" unicode="&#x422;" 
d="M489 1114v-1114h-118v1114h-351v115h820v-115h-351z" />
    <glyph glyph-name="afii10037" unicode="&#x423;" horiz-adv-x="930" 
d="M381 0h-121l137 352h-78l-323 877h123l278 -750h45l285 750h121z" />
    <glyph glyph-name="afii10038" unicode="&#x424;" horiz-adv-x="1202" 
d="M1006 967v-707q0 -26 -6 -50t-21 -46q-9 -13 -26 -33.5t-37 -42t-40 -40.5t-34 -28q-22 -12 -51.5 -21t-55.5 -9h-131v-117h-112v117h-134q-26 -2 -54.5 7t-51.5 23q-14 9 -33.5 27.5t-39.5 40t-37 42.5t-25 34q-14 22 -20.5 46t-6.5 50v707q0 26 6.5 51t20.5 47
q8 13 25 34t37 42.5t39.5 40t33.5 26.5q23 14 51.5 22.5t54.5 8.5h134v119h112v-119h133q25 0 54 -8.5t51 -22.5q14 -8 34 -26.5t40 -40t38 -42.5t27 -34q14 -22 19.5 -47t5.5 -51zM367 106h125v1018h-125q-16 0 -25 -6q-12 -6 -30 -19.5t-36 -31t-34.5 -37t-26.5 -37.5
q-3 -6 -4.5 -14t-1.5 -16v-697q0 -6 1.5 -14t4.5 -14q10 -18 26.5 -38t34.5 -37.5t36 -31.5t30 -20q3 -2 10 -3.5t15 -1.5zM879 238q3 6 5.5 14t2.5 14v697q0 6 -1.5 14t-6.5 16q-11 18 -27.5 37.5t-34 37t-34.5 31t-29 19.5q-14 6 -27 6h-123v-1018h123q8 0 16 1.5t11 3.5
q12 6 29 20t35 31.5t34.5 37.5t26.5 38z" />
    <glyph glyph-name="afii10039" unicode="&#x425;" horiz-adv-x="1018" 
d="M0 0zM451 522l-324 -522h-133l391 629l-371 600h131l306 -494q74 121 151.5 247t153.5 247h131l-369 -600l389 -629h-133z" />
    <glyph glyph-name="afii10040" unicode="&#x426;" horiz-adv-x="1169" 
d="M983 115l-37 -312h-117l23 197h-752v1229h119v-1114h545v1114h119v-1114h100z" />
    <glyph glyph-name="afii10041" unicode="&#x427;" horiz-adv-x="1079" 
d="M737 1229h121v-1229h-121v559h-409q-32 0 -66 10t-59 29q-10 7 -25 21.5t-30 30t-28.5 31t-19.5 24.5q-14 21 -22 48t-8 56v420h120v-422q0 -9 1.5 -16.5t3.5 -10.5q7 -14 18.5 -29t25 -28.5t28 -24.5t26.5 -18q15 -6 37 -6h407v555z" />
    <glyph glyph-name="afii10042" unicode="&#x428;" horiz-adv-x="1321" 
d="M1100 1229v-1229h-998v1229h119v-1112h316v1112h118v-1112h326v1112h119v0z" />
    <glyph glyph-name="afii10043" unicode="&#x429;" horiz-adv-x="1386" 
d="M1198 115l-37 -312h-117l23 197h-965v1229h119v-1114h314v1114h118v-1114h326v1114h119v-1114h100z" />
    <glyph glyph-name="afii10044" unicode="&#x42a;" horiz-adv-x="1255" 
d="M1026 524q16 -24 22.5 -50.5t6.5 -57.5v-164q0 -29 -6.5 -56.5t-22.5 -50.5q-6 -9 -19.5 -24t-29 -30.5t-30.5 -30t-25 -21.5q-25 -19 -58 -29t-65 -10h-551v1118h-236v111h355v-559h432q32 0 65 -10.5t58 -28.5q10 -8 25 -22.5t30.5 -30.5t29 -30.5t19.5 -23.5zM936 254
v164q0 19 -6 33q-7 13 -19 27.5t-25.5 28t-28 25.5t-26.5 19q-6 3 -15.5 4.5t-18.5 1.5h-430v-442h430q9 0 18.5 2.5t15.5 5.5q12 7 26.5 18t28 24.5t25.5 27.5t19 26q6 12 6 35z" />
    <glyph glyph-name="afii10045" unicode="&#x42b;" horiz-adv-x="1462" 
d="M1126 1229h115v-1229h-115v1229zM774 631q10 -8 25.5 -22.5t31 -30.5t29 -30.5t19.5 -23.5q15 -23 21.5 -50t6.5 -56v-166q0 -31 -6.5 -57.5t-21.5 -49.5q-6 -9 -19.5 -24t-29 -30.5t-31 -30t-25.5 -21.5q-25 -17 -58 -28t-65 -11h-551v1229h119v-559h432q32 0 65 -10.5
t58 -28.5zM788 252v166q0 19 -6 33q-7 13 -18.5 27.5t-25 28t-27 25.5t-25.5 19q-15 6 -37 6h-430v2v-444h430q11 0 20 2.5t17 5.5q12 7 25.5 18t27 24t25 27t18.5 27q3 6 4.5 15t1.5 18z" />
    <glyph glyph-name="afii10046" unicode="&#x42c;" horiz-adv-x="1108" 
d="M879 524q28 -47 28 -106v-168q0 -57 -28 -105q-6 -9 -19.5 -24t-29 -30.5t-31 -30t-25.5 -21.5q-25 -17 -58 -28t-65 -11h-551v1229h119v-559h432q32 0 65 -10.5t58 -28.5q10 -8 25.5 -22.5t31 -30.5t29 -30.5t19.5 -23.5zM788 252v166q0 19 -6 33q-7 13 -18.5 27.5
t-25 28t-27 25.5t-25.5 19q-15 6 -37 6h-430v2v-444h430q11 0 20 2.5t17 5.5q12 7 25.5 18t27 24t25 27t18.5 27q3 6 4.5 15t1.5 18z" />
    <glyph glyph-name="afii10047" unicode="&#x42d;" horiz-adv-x="1094" 
d="M893 965v-705q-2 -25 -7.5 -49.5t-19.5 -44.5q-8 -13 -25.5 -34t-37.5 -42.5t-40 -40t-34 -26.5q-23 -14 -51.5 -23.5t-54.5 -9.5h-115h-174q-25 0 -54 9.5t-51 23.5q-16 10 -34 26t-35 34t-32 36t-26 33t-23 35.5t-22 41.5l117 35q1 -6 4 -10q2 -5 4 -9t4 -7
q11 -19 27 -38.5t33.5 -37t34.5 -30.5t30 -19q5 -3 13 -5t16 -2h274q13 0 27 7q12 6 29.5 19.5t35.5 31t34 37t26 37.5q3 6 5.5 14t2.5 16v299h-493v115h493v279q0 8 -2.5 15.5t-5.5 12.5q-10 18 -26 37.5t-34 37.5t-35.5 32t-29.5 20t-27 6h-274q-8 0 -16 -1.5t-13 -4.5
q-13 -7 -30 -20.5t-34.5 -31t-33.5 -36.5t-27 -37q-2 -3 -4 -7.5t-4 -8.5q-3 -5 -4 -10l-117 32q10 22 22 43.5t23 36.5t26 33t32 36t35 34t34 26q22 14 51 22.5t54 8.5h291q24 0 53 -9t51 -22q14 -8 34 -26.5t40 -40t37.5 -42.5t25.5 -34q16 -22 21.5 -47t5.5 -51z" />
    <glyph glyph-name="afii10048" unicode="&#x42e;" horiz-adv-x="1489" 
d="M1292 963v-701h-2q0 -26 -5 -51t-19 -47q-9 -13 -26.5 -33.5t-37.5 -41.5t-40.5 -39.5t-35.5 -26.5q-21 -14 -50 -23.5t-54 -9.5h-328q-24 0 -53.5 9.5t-50.5 23.5q-14 8 -34 26.5t-40.5 39.5t-38 41.5t-26.5 33.5q-14 22 -19.5 47t-5.5 51v297h-211v-559h-115v1229h115
v-553h211v287q0 27 5.5 52.5t19.5 47.5q8 13 25.5 33.5t37.5 41.5t40.5 39.5t35.5 26.5q21 14 50.5 23.5t53.5 9.5h328q26 0 54.5 -9.5t51.5 -23.5q14 -8 34 -26.5t40 -39.5t37.5 -41.5t26.5 -33.5q14 -22 20 -47.5t6 -52.5zM1167 236q7 14 7 30v697q0 14 -7 28
q-10 18 -26.5 37.5t-34.5 37t-36 31t-30 19.5q-5 3 -11.5 4.5t-12.5 1.5h-311q-18 0 -27 -6q-12 -6 -30 -19.5t-36 -31t-34.5 -37t-26.5 -37.5q-3 -6 -4.5 -14t-1.5 -14v-697q0 -8 1.5 -16t4.5 -14q11 -18 27.5 -37.5t34.5 -37t35.5 -31t29.5 -19.5q8 -7 27 -7h309
q8 0 14.5 1.5t11.5 5.5q12 6 30 19.5t36 31t34.5 37t26.5 37.5z" />
    <glyph glyph-name="afii10049" unicode="&#x42f;" horiz-adv-x="1135" 
d="M104 975q0 59 31 106q6 9 19 24t29 31.5t31.5 31t25.5 22.5q24 18 56 28.5t64 10.5h553v-1229h-118v543h-308l-303 -543h-135l305 543q-64 0 -114 39q-10 7 -25.5 21.5t-31.5 30.5t-29 31t-19 23q-31 48 -31 107v180zM223 799q0 -10 0.5 -19.5t3.5 -15.5q7 -13 19 -27.5
t26 -28t29 -24.5t27 -18q8 -5 16.5 -7t17.5 -2h433v457h-433q-9 0 -17.5 -0.5t-16.5 -5.5q-12 -7 -27 -19t-29 -26t-26 -29t-19 -28q-3 -7 -3.5 -16.5t-0.5 -18.5v-172z" />
    <glyph glyph-name="afii10065" unicode="&#x430;" 
d="M657 0l-12 102q-18 -20 -39.5 -38.5t-38.5 -30.5q-23 -17 -48.5 -30t-51.5 -13h-180q-35 0 -67.5 10t-57.5 29q-10 8 -23 21t-26 26.5t-24 26.5t-17 22q-31 46 -31 108v41q0 63 31 109q6 9 17 22t24 26.5t26 26.5t23 21q25 19 57.5 29t67.5 10h356v125q0 12 -1 20t-3 13
q-7 13 -18.5 28t-25 28.5t-28 25t-26.5 18.5q-15 8 -37 8h-193q-20 0 -35 -8q-12 -7 -25.5 -18.5t-27 -26t-25 -29.5t-20.5 -28l-106 35q5 8 12 20.5t18 26.5q7 10 18.5 23t24.5 27t26 26.5t24 21.5q24 19 55.5 28t66.5 9h189q35 0 68.5 -10t58.5 -29q12 -7 25.5 -19.5
t26 -27t23.5 -28t17 -21.5q17 -23 23 -51.5t6 -59.5v-500l14 -145h-111zM489 102q12 6 34 19.5t45 31t44 37t31 37.5v185h-354q-24 0 -37 -9q-12 -7 -26 -18t-26.5 -24t-23.5 -27t-18 -27q-6 -12 -6 -33v-41q0 -20 6 -32q7 -13 18 -27t23.5 -27.5t26.5 -24.5t26 -18
q13 -8 37 -8h172q16 0 28 6z" />
    <glyph glyph-name="afii10066" unicode="&#x431;" horiz-adv-x="965" 
d="M782 635v-391q0 -35 -5 -61.5t-25 -55.5q-6 -9 -17.5 -23t-25 -28t-27 -27t-23.5 -20q-31 -23 -65 -31t-72 -8h-180q-32 0 -66 10t-59 29q-11 7 -26.5 22t-31 31.5t-28.5 32t-18 24.5q-31 46 -31 109v500v229q0 61 31 102q5 9 18 24.5t28.5 32t31 31.5t26.5 23
q25 18 59 28.5t66 10.5h229l-32 -107h-195q-11 0 -20 -2.5t-17 -5.5q-12 -7 -28 -20.5t-31 -29.5t-28.5 -33t-20.5 -30q-6 -12 -6 -34v-183q21 22 40 38t39 30q23 15 49 27t52 12h149q38 0 72 -8t65 -31q11 -8 24.5 -21t27 -27.5t24.5 -28t17 -21.5q19 -31 24.5 -56.5
t5.5 -62.5zM571 106q12 7 25.5 18.5t26.5 25t24 28t19 27.5q5 8 5.5 19t0.5 18v389q0 9 -1.5 24t-4.5 21q-39 63 -97 100q-9 6 -24 7t-23 1h-143q-11 0 -20.5 -3.5t-14.5 -6.5q-12 -5 -33.5 -19t-44.5 -32t-42.5 -37.5t-26.5 -34.5l-4 -10v-389q0 -23 6 -35
q7 -13 20.5 -29.5t28.5 -32t31 -29t28 -20.5q8 -5 16 -7.5t19 -2.5h186q10 0 22.5 2.5t20.5 7.5z" />
    <glyph glyph-name="afii10067" unicode="&#x432;" horiz-adv-x="975" 
d="M756 518q-10 -14 -28.5 -35.5t-37.5 -40.5q19 -17 37.5 -37t28.5 -34q30 -47 30 -109v-39q-2 -29 -8.5 -55t-21.5 -49q-6 -9 -15.5 -21.5t-21.5 -25.5t-24.5 -24.5t-22.5 -18.5q-25 -19 -59 -29t-66 -10h-465v901h465q32 -2 66 -12.5t59 -28.5q10 -8 22.5 -19.5t24.5 -24
t21.5 -24.5t15.5 -20q30 -50 30 -111v-30q-2 -29 -8.5 -55t-21.5 -48zM545 784h-352v-288h352q9 0 18.5 1.5t16.5 4.5q12 7 25 17.5t25 23t22.5 26.5t17.5 27q6 12 6 35v20q0 19 -6 31q-7 13 -17 27t-22 26.5t-24.5 23t-24.5 17.5q-8 5 -18 6.5t-19 1.5zM670 197q6 12 6 34
v31q0 19 -6 31q-7 13 -17 26.5t-22 26t-24.5 22.5t-24.5 17q-8 5 -18 6.5t-19 1.5h-352v-297h352q9 0 18.5 1.5t16.5 6.5q24 14 50 40.5t40 52.5z" />
    <glyph glyph-name="afii10068" unicode="&#x433;" horiz-adv-x="772" 
d="M653 881v-107h-460v-774h-111v881h571v0z" />
    <glyph glyph-name="afii10069" unicode="&#x434;" horiz-adv-x="1051" 
d="M797 106h90l-39 -303h-105l23 197h-676v-197h-104v303h14.5t21.5 1t21 2t14 4q13 6 28 17.5t28.5 25t25.5 27.5t19 26q5 6 9.5 16t6.5 21l102 635h521v-775zM215 106h473v668h-321l-82 -530q-7 -38 -19.5 -71t-34.5 -54q-5 -5 -9 -8t-7 -5z" />
    <glyph glyph-name="afii10070" unicode="&#x435;" horiz-adv-x="965" 
d="M666 205l2 4l108 -37q-6 -12 -12.5 -22.5t-15.5 -22.5q-6 -9 -17.5 -22.5t-24.5 -27.5t-26.5 -27.5t-24.5 -20.5q-24 -19 -57.5 -29t-67.5 -10h-208q-35 0 -69 10t-58 29q-11 7 -24.5 20.5t-26.5 27.5t-24.5 27.5t-17.5 22.5q-30 46 -30 109v409q0 62 30 109
q6 8 17.5 21.5t24.5 28t26.5 27.5t24.5 21q24 19 58 29t69 10h204q34 0 68.5 -10t58.5 -29q11 -8 24.5 -21t26.5 -27.5t24 -28t17 -21.5q16 -23 22.5 -50.5t6.5 -58.5v-254h-592v-151q0 -23 6 -35q7 -13 18.5 -28t25 -28.5t27.5 -25.5t26 -19q13 -8 34 -8h216q23 0 36 8
q12 7 26 19.5t27.5 26.5t24.5 28.5t17 26.5zM188 676q-6 -12 -6 -35v-143h482v143q0 11 -0.5 20t-4.5 15q-7 13 -18.5 28t-25 28.5t-28 25t-26.5 18.5q-13 8 -37 8h-202q-22 0 -35 -8q-12 -7 -26.5 -18.5t-28 -25t-25.5 -28.5t-19 -28z" />
    <glyph glyph-name="afii10072" unicode="&#x436;" horiz-adv-x="1341" 
d="M825 461l424 -461h-162l-360 408h-61v-408h-111v408h-59l-363 -408h-160l424 461l-381 420h152l328 -367h59v367h111v-367h61l328 367h151l-381 -420v0z" />
    <glyph glyph-name="afii10073" unicode="&#x437;" horiz-adv-x="915" 
d="M713 371q15 -23 21.5 -50.5t6.5 -56.5v-39q0 -29 -6.5 -56t-21.5 -50q-6 -9 -16.5 -21.5t-22 -25.5t-23.5 -24.5t-22 -18.5q-26 -19 -59.5 -29t-67.5 -10h-217q-34 0 -68.5 10t-58.5 29q-10 7 -23 20.5t-26 27.5t-23.5 27.5t-15.5 22.5q-10 12 -18 25.5t-11 19.5l104 37
l2 -4q6 -12 17 -26.5t24.5 -28.5t27.5 -26.5t26 -19.5q13 -8 37 -8h221q22 0 37 8q24 14 49 40.5t41 52.5q3 6 3.5 14.5t0.5 19.5v31q0 9 -0.5 17t-3.5 14q-16 26 -41 53t-49 41q-7 3 -16.5 3.5t-20.5 0.5h-219v107h219q22 0 37 8q24 14 49 40.5t41 51.5q3 8 3.5 17t0.5 18
v20q0 10 -0.5 17.5t-3.5 13.5q-16 26 -41 52t-49 40q-7 5 -16.5 6.5t-20.5 1.5h-203q-11 0 -21 -1.5t-16 -6.5q-12 -7 -26.5 -19t-28 -26.5t-25 -30t-18.5 -28.5l-107 37l29 45q6 8 17 21.5t24 28t26.5 27.5t24.5 21q25 19 59 29t66 10h201q34 0 68 -10t59 -29
q10 -8 22 -19.5t23.5 -24.5t22 -25t16.5 -21q15 -23 20.5 -50t7.5 -59v-30q0 -55 -28 -103q-10 -14 -28.5 -35.5t-37.5 -38.5q19 -17 37.5 -39t28.5 -36z" />
    <glyph glyph-name="afii10074" unicode="&#x438;" horiz-adv-x="995" 
d="M653 881h138v-881h-111v729l-467 -729h-131v881h111v-719l460 719v0z" />
    <glyph glyph-name="afii10075" unicode="&#x439;" horiz-adv-x="995" 
d="M653 881h138v-881h-111v729l-467 -729h-131v881h111v-719zM545 1253h78q0 -41 -15.5 -76t-42 -61.5t-62.5 -41.5t-77 -15t-76 15t-61 41.5t-41 61.5t-15 76h78q0 -24 9 -45t24.5 -36.5t36.5 -25t45 -9.5t45.5 9.5t38 25t26 36.5t9.5 45z" />
    <glyph glyph-name="afii10076" unicode="&#x43a;" horiz-adv-x="874" 
d="M625 0l-359 408h-63v-408h-111v881h111v-367h63l326 367h151l-378 -420l419 -461h-159z" />
    <glyph glyph-name="afii10077" unicode="&#x43b;" horiz-adv-x="993" 
d="M788 881v-881h-110v774h-430v-536q0 -31 -7.5 -59.5t-23.5 -51.5q-4 -7 -15 -21t-25 -29t-27.5 -28.5t-22.5 -19.5q-25 -19 -60 -29t-67 -10h-57v106h55q9 0 20 1.5t19 6.5q11 6 25.5 18.5t28 27.5t24.5 29.5t16 25.5t5.5 19.5t0.5 15.5v641h651z" />
    <glyph glyph-name="afii10078" unicode="&#x43c;" horiz-adv-x="1116" 
d="M770 881h141v-881h-110v711l-262 -486h-82l-264 496v-721h-111v881h145l271 -516l272 516v0z" />
    <glyph glyph-name="afii10079" unicode="&#x43d;" horiz-adv-x="995" 
d="M680 881h111v-881h-111v410h-487v-410h-111v881h111v-365h487v365v0z" />
    <glyph glyph-name="afii10080" unicode="&#x43e;" horiz-adv-x="967" 
d="M772 236q0 -31 -6.5 -58.5t-22.5 -50.5q-6 -9 -17 -22.5t-24 -27.5t-26.5 -27.5t-24.5 -20.5q-25 -19 -59 -29t-68 -10h-205q-34 0 -68 10t-58 29q-11 7 -24.5 20.5t-26.5 27.5t-24.5 27.5t-17.5 22.5q-15 23 -21.5 50.5t-6.5 58.5v409q0 31 6.5 58.5t21.5 50.5
q6 8 17.5 21.5t24.5 28t26.5 27.5t24.5 21q24 19 58 29t68 10h205q34 0 68 -10t59 -29q11 -8 24.5 -21t26.5 -27.5t24 -28t17 -21.5q16 -23 22.5 -50.5t6.5 -58.5v-409zM662 641q0 11 -0.5 20t-4.5 15q-7 13 -18.5 28t-25 28.5t-28 25t-26.5 18.5q-13 8 -37 8h-200
q-24 0 -37 -8q-12 -7 -26 -18.5t-27.5 -25t-25 -28.5t-18.5 -28q-6 -12 -6 -35v-401q0 -23 6 -35q7 -13 18.5 -28t25 -28.5t27.5 -25.5t26 -19q13 -8 37 -8h200q24 0 37 8q12 7 26.5 19t28 25.5t25 28.5t18.5 28q4 6 4.5 15t0.5 20v401z" />
    <glyph glyph-name="afii10081" unicode="&#x43f;" horiz-adv-x="956" 
d="M82 881h670v-881h-111v774h-448v-774h-111v877v4v0z" />
    <glyph glyph-name="afii10082" unicode="&#x440;" horiz-adv-x="989" 
d="M764 127q-6 -9 -17 -22.5t-24.5 -27.5t-27 -27.5t-23.5 -20.5q-25 -19 -58 -29t-67 -10h-160q-26 0 -53.5 13.5t-48.5 29.5q-19 14 -39.5 33t-40.5 40v-450h-111v1079l-12 146h111l12 -109q20 22 40.5 42t39.5 34q21 15 48.5 29t53.5 14h160q34 0 67 -10t58 -29
q10 -8 23.5 -21t27 -27.5t24.5 -28t17 -21.5q31 -48 31 -109v-409q0 -61 -31 -109zM684 641q0 23 -6 35q-7 13 -18.5 28t-24.5 28.5t-27 25t-26 18.5q-15 8 -37 8h-152q-16 0 -28 -6q-13 -7 -35 -20.5t-45.5 -30.5t-44 -36.5t-31.5 -37.5q-4 -8 -4 -12v-403q0 -4 1 -6t3 -5
q11 -19 31.5 -38.5t44 -36t45.5 -30t35 -20.5q12 -6 28 -6h152q22 0 37 8q12 7 26 19t27 25.5t24.5 28.5t18.5 28q6 12 6 35v401z" />
    <glyph glyph-name="afii10083" unicode="&#x441;" horiz-adv-x="934" 
d="M774 172q-9 -17 -22 -36.5t-29 -39t-34 -37t-36 -30.5q-24 -19 -57.5 -29t-67.5 -10h-209q-34 0 -68 10t-58 29q-11 7 -24.5 20.5t-26.5 27.5t-24.5 27.5t-17.5 22.5q-15 23 -21.5 50.5t-6.5 58.5v409q0 31 6.5 58.5t21.5 50.5q6 8 17.5 21.5t24.5 28t26.5 27.5t24.5 21
q24 19 58 29t68 10h203q34 0 67 -10t58 -29q19 -14 36.5 -32.5t33 -38t28.5 -39t23 -35.5l-106 -35q-6 13 -18 28.5t-25.5 30t-28.5 26.5t-27 19q-13 8 -37 8h-204q-24 0 -37 -8q-12 -7 -26 -18.5t-27.5 -25t-25 -28.5t-18.5 -28q-6 -12 -6 -35v-401q0 -23 6 -35
q7 -13 18 -28t24 -28.5t27 -25.5t26 -19q13 -8 36 -8h213q24 0 37 8q12 7 27 19.5t28.5 26.5t24.5 28.5t17 26.5l2 4z" />
    <glyph glyph-name="afii10084" unicode="&#x442;" horiz-adv-x="885" 
d="M426 774v-774h-111v774h-303v107h740v-107h-326v0z" />
    <glyph glyph-name="afii10085" unicode="&#x443;" horiz-adv-x="860" 
d="M625 881h118l-399 -1225h-117l117 344h-47l-287 881h119l242 -768h12l242 768v0z" />
    <glyph glyph-name="afii10086" unicode="&#x444;" horiz-adv-x="999" 
d="M805 647v-416q0 -58 -31 -104q-6 -9 -17.5 -23t-24.5 -28t-26.5 -27t-23.5 -20q-25 -19 -59 -29t-68 -10h-61v-334h-103v334h-61q-32 0 -66 10t-59 29q-11 7 -24.5 20t-27 27t-24.5 28t-16 23q-31 46 -31 104v416q0 29 7 56.5t24 50.5q5 8 16 21.5t24.5 28t27 27.5
t24.5 21q25 19 59 29t66 10h61v338h103v-338h61q34 0 68 -10t59 -29q10 -8 23.5 -21t26.5 -27.5t24.5 -28t17.5 -21.5q31 -46 31 -107zM332 96h59v688h-59q-22 0 -37 -6q-12 -7 -26 -18.5t-27.5 -26t-24.5 -29.5t-18 -28q-6 -12 -6 -29v-414q0 -16 6 -28q7 -13 18 -28
t24.5 -28.5t27.5 -25.5t26 -19q13 -8 37 -8zM590 104q12 7 26.5 19t28 25.5t25 28.5t18.5 28q6 12 6 28v414q0 17 -6 29q-7 13 -18.5 28t-25 29.5t-28 26t-26.5 18.5q-6 3 -16 4.5t-19 1.5h-61v-688h61q9 0 19 1.5t16 6.5z" />
    <glyph glyph-name="afii10087" unicode="&#x445;" horiz-adv-x="881" 
d="M606 0l-227 358l-227 -358h-132l293 453l-282 428h135l213 -342l207 342h135l-277 -428l293 -453h-131v0z" />
    <glyph glyph-name="afii10088" unicode="&#x446;" horiz-adv-x="985" 
d="M821 106l-37 -303h-104l20 197h-618v881h111v-775h430v775h110v-775h88z" />
    <glyph glyph-name="afii10089" unicode="&#x447;" horiz-adv-x="989" 
d="M674 881h110v-881h-110v385h-352q-32 0 -66.5 9t-58.5 28q-11 7 -23.5 19t-24 25t-21.5 25t-15 21q-16 23 -22.5 49t-8.5 53v267h111v-256q0 -10 0.5 -18.5t5.5 -16.5q15 -25 39 -51.5t49 -38.5q13 -8 37 -8h350v389z" />
    <glyph glyph-name="afii10090" unicode="&#x448;" horiz-adv-x="1196" 
d="M991 881v-881h-897v881h111v-775h282v775h111v-775h283v775h110v0z" />
    <glyph glyph-name="afii10091" unicode="&#x449;" horiz-adv-x="1245" 
d="M991 106h90l-37 -303h-104l21 197h-867v881h111v-775h280v775h111v-775h285v775h110v-775v0z" />
    <glyph glyph-name="afii10092" unicode="&#x44a;" horiz-adv-x="999" 
d="M825 262v-39q-2 -29 -8.5 -55t-21.5 -49q-6 -9 -15.5 -21.5t-21.5 -25.5t-24.5 -24.5t-22.5 -18.5q-25 -19 -59 -29t-66 -10h-471v788h-150v103h260v-383h361q32 0 66 -9.5t59 -27.5q10 -8 22.5 -20t24.5 -24.5t21.5 -25t15.5 -20.5q30 -47 30 -109zM709 197q6 12 6 34
v29q0 19 -6 31q-7 13 -17 26.5t-22 26t-24.5 22.5t-24.5 17q-8 5 -18 6.5t-19 1.5h-359v-295h359q9 0 18.5 1.5t15.5 6.5q25 14 51 40.5t40 52.5z" />
    <glyph glyph-name="afii10093" unicode="&#x44b;" horiz-adv-x="1255" 
d="M793 227q0 -60 -31 -108q-5 -9 -15 -21.5t-21.5 -25.5t-24 -24.5t-23.5 -18.5q-25 -19 -59 -29t-66 -10h-471v891h111v-383h360q32 0 66 -9.5t59 -27.5q11 -8 23.5 -20t24 -24.5t21.5 -25t15 -20.5q31 -48 31 -109v-35zM682 225v39q0 15 -6 27q-14 26 -38.5 52t-49.5 40
q-8 5 -18 6.5t-19 1.5h-358v-295h358q9 0 19 1.5t16 6.5q24 14 50 40.5t40 52.5zM1051 881v-881h-111v881h111z" />
    <glyph glyph-name="afii10094" unicode="&#x44c;" horiz-adv-x="969" 
d="M793 262v-39q-2 -29 -9 -55t-22 -49q-5 -9 -15 -21.5t-21.5 -25.5t-24 -24.5t-23.5 -18.5q-25 -19 -59 -29t-66 -10h-471v891h111v-383h360q32 0 66 -9.5t59 -27.5q11 -8 23.5 -20t24 -24.5t21.5 -25t15 -20.5q31 -48 31 -109zM676 197q6 12 6 34v29q0 19 -6 31
q-14 26 -38.5 52t-49.5 40q-8 5 -18 6.5t-19 1.5h-358v-295h358q9 0 19 1.5t16 6.5q24 14 50 40.5t40 52.5z" />
    <glyph glyph-name="afii10095" unicode="&#x44d;" horiz-adv-x="961" 
d="M772 647v-416q-2 -29 -8.5 -55t-22.5 -49q-5 -9 -16 -23t-24.5 -28t-27 -27t-24.5 -20q-25 -19 -59 -29t-66 -10h-229q-34 0 -68 10t-59 29q-10 7 -23 20t-26 27t-24 27t-17 22q-8 11 -17 26t-12 21l107 37l2 -4q6 -12 17 -26.5t24 -28.5t27 -26.5t26 -19.5q13 -8 37 -8
h233q10 0 19.5 1.5t15.5 6.5q12 7 26.5 19t28 25.5t25 28.5t18.5 28q3 6 5 12.5t2 15.5v158h-396v107h396v151q0 15 -7 29q-7 13 -18.5 28t-25 28.5t-28 25t-26.5 18.5q-6 3 -15.5 4.5t-19.5 1.5h-231q-26 0 -39 -8q-12 -7 -26 -19t-27 -26t-24 -28t-17 -25l-2 -4l-107 33
q3 8 12.5 22t18.5 27q7 10 17.5 23t23 26.5t25 26t22.5 20.5q25 19 59 29t68 10h229q32 0 66 -10t59 -29q11 -8 24.5 -21t27 -27.5t24.5 -28t16 -21.5q31 -46 31 -107z" />
    <glyph glyph-name="afii10096" unicode="&#x44e;" horiz-adv-x="1235" 
d="M1040 231q-2 -29 -8.5 -55t-21.5 -49q-6 -9 -17 -23t-24 -28t-27 -27t-24 -20q-25 -19 -59 -29t-66 -10h-207q-32 0 -66 10t-59 29q-11 7 -24.5 20t-27 27t-24.5 28t-16 23q-31 46 -31 104v156h-145v-387h-111v881h111v-387h145v153q0 61 31 107q5 8 16 21.5t24.5 28
t27 27.5t24.5 21q25 19 59 29t66 10h207q32 0 66 -10t59 -29q10 -8 24 -21t27 -27.5t24 -28t17 -21.5q15 -23 21.5 -50.5t8.5 -56.5v-416zM825 104q12 7 26.5 19t28 25.5t25.5 28.5t19 28q6 12 6 28v416q0 17 -6 29q-7 13 -19 28t-25.5 28.5t-28 25t-26.5 18.5
q-6 3 -15.5 4.5t-18.5 1.5h-203q-22 0 -37 -6q-12 -7 -26 -18.5t-27.5 -25t-24.5 -28.5t-18 -28q-6 -12 -6 -29v-416q0 -16 6 -28q7 -13 18 -28t24.5 -28.5t27.5 -25.5t26 -19q8 -5 17.5 -6.5t19.5 -1.5h203q9 0 18.5 1.5t15.5 6.5z" />
    <glyph glyph-name="afii10097" unicode="&#x44f;" horiz-adv-x="981" 
d="M295 385q-26 3 -51 11t-43 24q-11 7 -23.5 19t-24 25t-21.5 25t-15 21q-31 46 -31 108v39q2 29 8.5 55.5t22.5 49.5q5 9 15 21t21.5 25t24 24.5t23.5 19.5q24 19 58.5 29t66.5 10h471v-891h-111v383h-262l-248 -383h-139zM203 684q-6 -12 -6 -35v-28q0 -19 6 -31
q14 -26 38.5 -53t49.5 -41q8 -5 17.5 -7t19.5 -2h358v297h-358q-10 0 -19.5 -1.5t-15.5 -6.5q-25 -14 -50.5 -40t-39.5 -52z" />
    <glyph glyph-name="afii10071" unicode="&#x451;" horiz-adv-x="969" 
d="M676 205l2 4l108 -37q-6 -12 -12.5 -22.5t-15.5 -22.5q-6 -9 -17.5 -22.5t-24.5 -27.5t-26.5 -27.5t-23.5 -20.5q-25 -19 -58 -29t-67 -10h-209q-34 0 -68 10t-59 29q-11 7 -24.5 20.5t-26.5 27.5t-24 27.5t-17 22.5q-31 46 -31 109v409q0 63 31 109q6 8 17 21.5t24 28
t26.5 27.5t24.5 21q25 19 59 29t68 10h205q34 0 68 -10t59 -29q10 -8 23.5 -21t26.5 -27.5t24.5 -28t17.5 -21.5q15 -23 21.5 -50.5t6.5 -58.5v-254h-591v-151q0 -23 6 -35q7 -13 18 -28t24.5 -28.5t27.5 -25.5t26 -19q13 -8 35 -8h215q22 0 37 8q12 7 26 19.5t27 26.5
t24 28.5t17 26.5zM199 676q-6 -12 -6 -35v-143h481v143q0 11 -0.5 20t-3.5 15q-7 13 -19 28t-25.5 28.5t-28 25t-26.5 18.5q-13 8 -36 8h-203q-22 0 -35 -8q-12 -7 -26.5 -18.5t-28 -25t-25 -28.5t-18.5 -28zM512 1081v158h156v-158h-156zM213 1081v158h156v-158h-156z" />
    <glyph glyph-name="afii10099" unicode="&#x452;" horiz-adv-x="971" 
d="M770 -109q0 -62 -31 -108q-6 -9 -16.5 -22.5t-23.5 -27.5t-26 -27.5t-24 -20.5q-25 -19 -59 -28t-66 -9h-129v106h127q11 0 20 0.5t17 5.5q12 7 26 19t26.5 25.5t23.5 28.5t18 28q6 12 6 35v745q0 23 -6 35q-7 13 -18 28t-24.5 28.5t-27.5 25t-26 18.5q-13 8 -37 8h-139
q-8 0 -16.5 -1.5t-14.5 -4.5q-13 -7 -34.5 -20t-44.5 -30t-43.5 -36.5t-30.5 -38.5l-4 -8v-645h-111v1010h-111v108h111v111h111v-111h264v-108h-264v-236q20 22 40.5 41t38.5 33q22 15 49.5 29t53.5 14h147q32 0 66 -10t59 -29q11 -8 24.5 -21t26.5 -27.5t24 -28t17 -21.5
q31 -46 31 -109v-754z" />
    <glyph glyph-name="afii10100" unicode="&#x453;" horiz-adv-x="772" 
d="M653 881v-107h-460v-774h-111v881h571zM285 1079l174 228h143l-209 -265z" />
    <glyph glyph-name="afii10101" unicode="&#x454;" horiz-adv-x="967" 
d="M72 647q0 60 30 107q6 8 17 21.5t24.5 28t27 27.5t24.5 21q24 19 58 29t66 10h230q34 0 68 -10t59 -29q10 -8 22 -20.5t24.5 -26t23.5 -26.5t18 -23q9 -13 18.5 -27t12.5 -22l-107 -33l-2 4q-6 11 -17 25t-24 28t-27 26t-26 19q-13 8 -39 8h-231q-10 0 -19.5 -1.5
t-15.5 -4.5q-12 -7 -26.5 -18.5t-28 -25t-25.5 -28.5t-19 -28q-6 -12 -6 -29v-151h396v-107h-396v-158q0 -16 6 -28q7 -13 19 -28t25.5 -28.5t28 -25.5t26.5 -19q6 -5 15.5 -6.5t19.5 -1.5h233q11 0 20 1.5t17 6.5q12 7 26 19.5t27 26.5t24 28.5t17 26.5l2 4l107 -37
q-3 -6 -12 -21t-17 -26q-6 -9 -17 -22t-24 -27t-26 -27t-23 -20q-25 -19 -59 -29t-68 -10h-230q-32 0 -66 10t-58 29q-11 7 -24.5 20t-27 27t-24.5 28t-17 23q-15 23 -21.5 49t-8.5 55v416z" />
    <glyph glyph-name="afii10102" unicode="&#x455;" horiz-adv-x="956" 
d="M772 227q0 -62 -31 -108q-6 -9 -16 -21t-21.5 -25t-23.5 -25t-23 -19q-24 -19 -58.5 -29t-66.5 -10h-245q-32 0 -66 10t-59 29q-11 7 -24 20t-26 27t-23.5 27t-16.5 22l-17 25.5t-12 21.5l107 37q6 -13 17 -28.5t24.5 -30t28 -27t26.5 -19.5q13 -8 37 -8h247q22 0 35 8
q25 14 50.5 40.5t39.5 52.5q7 14 7 34v74q0 31 -23 52t-55 24l-338 25q-38 3 -70.5 18.5t-56.5 40t-37.5 57t-13.5 70.5v61q0 62 30 109q6 8 16 20.5t21.5 25t23.5 24.5t23 20q25 19 59 29t66 10h213q32 0 66 -10t59 -29q11 -8 24.5 -21t26.5 -27.5t24 -28t17 -21.5
q10 -13 18 -25t11 -20l-107 -37q-6 13 -17.5 28.5t-25 30t-28.5 26.5t-27 19q-13 8 -35 8h-217q-22 0 -37 -8q-24 -14 -49 -39t-39 -51q-6 -12 -6 -35v-61q0 -31 23 -52t55 -24l338 -27q37 -3 69.5 -18.5t56.5 -40t38 -57.5t14 -70v-74z" />
    <glyph glyph-name="afii10103" unicode="&#x456;" horiz-adv-x="442" 
d="M104 0v881h111v-881h-111zM82 1081v158h156v-158h-156z" />
    <glyph glyph-name="afii10104" unicode="&#x457;" horiz-adv-x="422" 
d="M100 0v881h111v-881h-111zM229 1081v158h156v-158h-156zM-70 1081v158h156v-158h-156z" />
    <glyph glyph-name="afii10105" unicode="&#x458;" horiz-adv-x="428" 
d="M231 -109q0 -62 -30 -108q-6 -9 -17 -22.5t-24 -27.5t-26 -27.5t-23 -20.5q-25 -19 -59 -28t-66 -9h-129v106h127q11 0 19.5 0.5t16.5 5.5q12 7 26 19t27 25.5t24 28.5t18 28q6 12 6 35v985h110v-990zM96 1081v158h156v-158h-156z" />
    <glyph glyph-name="afii10106" unicode="&#x459;" horiz-adv-x="1518" 
d="M1341 233q-2 -29 -8.5 -55t-21.5 -49q-6 -9 -15.5 -21.5t-21.5 -25.5t-24.5 -24.5t-22.5 -18.5q-25 -19 -59 -29t-66 -10h-451v774h-403v-536q0 -31 -7.5 -59.5t-23.5 -51.5q-4 -7 -15 -21t-25 -29t-27.5 -28.5t-22.5 -19.5q-25 -19 -60 -29t-67 -10h-57v106h55
q9 0 20 1.5t19 6.5q11 6 25.5 18.5t28 27.5t24.5 29.5t16 25.5t5.5 19.5t0.5 15.5v641h625v-373h340q32 0 66 -9t59 -28q10 -8 22.5 -19.5t24.5 -24.5t21.5 -25.5t15.5 -20.5q30 -47 30 -109v-39zM1225 207q6 12 6 35v28q0 19 -6 31q-7 13 -17 26.5t-22 26t-24.5 22.5
t-24.5 17q-8 5 -18 6.5t-19 1.5h-338v-295h338q9 0 18.5 2t16.5 7q24 13 50 39.5t40 52.5z" />
    <glyph glyph-name="afii10107" unicode="&#x45a;" horiz-adv-x="1526" 
d="M1350 233q-2 -29 -9 -55t-22 -49q-5 -9 -15 -21.5t-21.5 -25.5t-24 -24.5t-23.5 -18.5q-25 -19 -59 -29t-66 -10h-451v401h-466v-401h-111v881h111v-373h466v373h111v-373h340q32 0 66 -9t59 -28q11 -8 23.5 -19.5t24 -24.5t21.5 -25.5t15 -20.5q31 -48 31 -109v-39z
M1233 207q6 12 6 35v28q0 19 -6 31q-14 26 -38.5 52t-49.5 40q-8 5 -18 6.5t-19 1.5h-338v-295h338q9 0 19 2t16 7q25 13 50.5 39.5t39.5 52.5z" />
    <glyph glyph-name="afii10108" unicode="&#x45b;" horiz-adv-x="971" 
d="M193 1010v-236q20 22 40.5 41t38.5 33q22 15 49.5 29t53.5 14h147q32 0 66 -10t59 -29q11 -8 24.5 -21t26.5 -27.5t24 -28t17 -21.5q31 -46 31 -109v-645h-111v641q0 23 -6 35q-7 13 -18 28t-24.5 28.5t-27.5 25t-26 18.5q-13 8 -37 8h-139q-8 0 -16.5 -1.5t-14.5 -4.5
q-13 -7 -34.5 -20t-44.5 -30t-43.5 -36.5t-30.5 -38.5l-4 -8v-645h-111v1010h-111v108h111v111h111v-111h264v-108h-264z" />
    <glyph glyph-name="afii10109" unicode="&#x45c;" horiz-adv-x="883" 
d="M614 0l-383 408h-38v-408h-111v881h111v-367h38l351 367h151l-403 -420l444 -461h-160zM330 1079l174 228h143l-209 -265z" />
    <glyph glyph-name="afii10110" unicode="&#x45e;" horiz-adv-x="860" 
d="M625 881h118l-399 -1225h-117l117 344h-47l-287 881h119l242 -768h12zM496 1253h77q0 -41 -15.5 -76t-42 -61.5t-62.5 -41.5t-76 -15q-41 0 -76 15t-61 41.5t-41 61.5t-15 76h78q0 -24 9 -45t24.5 -36.5t36.5 -25t45 -9.5t45.5 9.5t38 25t26 36.5t9.5 45z" />
    <glyph glyph-name="afii10193" unicode="&#x45f;" horiz-adv-x="946" 
d="M475 0v-197h-104v197h-289v881h111v-775h448v775h111v-881h-277z" />
    <glyph glyph-name="afii10050" unicode="&#x490;" 
d="M811 1114h-592v-1114h-119v1229h596v223h115v-338z" />
    <glyph glyph-name="afii10098" unicode="&#x491;" horiz-adv-x="793" 
d="M674 774h-481v-774h-111v881h485v219h107v-326z" />
    <glyph glyph-name="endash" unicode="&#x2013;" horiz-adv-x="932" 
d="M82 455v106h666v-106h-666z" />
    <glyph glyph-name="emdash" unicode="&#x2014;" horiz-adv-x="1120" 
d="M82 455v106h854v-106h-854z" />
    <glyph glyph-name="quoteleft" unicode="&#x2018;" horiz-adv-x="455" 
d="M170 969h-127l141 344l109 -39z" />
    <glyph glyph-name="quoteright" unicode="&#x2019;" horiz-adv-x="455" 
d="M166 1327h127l-141 -344l-109 39z" />
    <glyph glyph-name="quotesinglbase" unicode="&#x201a;" horiz-adv-x="455" 
d="M170 -178h-127l141 344l109 -39z" />
    <glyph glyph-name="quotedblleft" unicode="&#x201c;" horiz-adv-x="733" 
d="M166 1313h127l-141 -344l-109 39zM444 1313h127l-141 -344l-108 39z" />
    <glyph glyph-name="quotedblright" unicode="&#x201d;" horiz-adv-x="733" 
d="M449 985h-127l141 344l108 -39zM170 985h-127l141 344l109 -39z" />
    <glyph glyph-name="quotedblbase" unicode="&#x201e;" horiz-adv-x="733" 
d="M449 -178h-127l141 344l108 -39zM170 -178h-127l141 344l109 -39z" />
    <glyph glyph-name="dagger" unicode="&#x2020;" horiz-adv-x="682" 
d="M373 774v-516h-107v516h-143v107h143v348h107v-348h145v-107h-145z" />
    <glyph glyph-name="daggerdbl" unicode="&#x2021;" horiz-adv-x="682" 
d="M373 457h143v-107h-143v-348h-107v348h-143v107h143v317h-143v107h143v346h107v-346h143v-107h-143v-317v0z" />
    <glyph glyph-name="bullet" unicode="&#x2022;" horiz-adv-x="887" 
d="M643 496q0 -31 -10 -60.5t-27 -52.5q-7 -9 -18.5 -21.5t-24.5 -24.5t-25 -22.5t-20 -15.5q-22 -14 -45 -21.5t-51 -7.5h-55q-28 0 -51.5 7.5t-45.5 21.5q-8 5 -20.5 15.5t-26 23t-26 25.5t-19.5 22q-17 23 -26 51.5t-9 59.5v39q0 30 10 58.5t27 51.5q7 9 19 22t25.5 25.5
t25.5 23t20 15.5q44 29 97 29h55q28 0 51 -7.5t45 -21.5q8 -5 20 -15.5t25 -22.5t24.5 -24.5t18.5 -21.5q17 -23 27 -52.5t10 -59.5v-39z" />
    <glyph glyph-name="ellipsis" unicode="&#x2026;" horiz-adv-x="1251" 
d="M838 0v160h159v-160h-159zM518 0v160h160v-160h-160zM197 0v160h159v-160h-159z" />
    <glyph glyph-name="perthousand" unicode="&#x2030;" horiz-adv-x="2109" 
d="M580 838q0 -29 -5.5 -53t-19.5 -46q-5 -8 -15.5 -20t-22.5 -25t-25 -25t-23 -20q-23 -15 -54.5 -26t-60.5 -11h-84q-29 0 -60 11t-52 26q-10 8 -23 20t-25 25t-22.5 25t-15.5 20q-14 22 -19.5 46t-5.5 53v180q0 29 5.5 54t19.5 46q5 8 15.5 20t22.5 25t25 25t23 20
q21 14 52 24.5t60 10.5h84q29 0 60.5 -10.5t54.5 -24.5q10 -8 23 -20t25 -25t22.5 -25t15.5 -20q14 -21 19.5 -46t5.5 -54v-180zM471 1014v18.5t-2 14.5v-3q-6 11 -16.5 24t-22.5 25t-24 23t-21 17q-8 5 -16.5 6.5t-14.5 1.5h-82q-6 0 -14 -1.5t-16 -6.5q-11 -6 -23 -16.5
t-23.5 -22.5t-21 -25t-14.5 -25q-3 -6 -3.5 -13.5t-0.5 -16.5v-172q0 -10 0.5 -17.5t3.5 -13.5q11 -23 35.5 -48.5t46.5 -37.5q8 -5 16 -6.5t14 -1.5h82q6 0 14.5 1.5t16.5 6.5q9 6 21 16t24 22t22.5 24.5t16.5 23.5v-2q2 6 2 14v19v172zM408 0h-127l645 1229h125zM1935 215
q0 -29 -5 -54t-19 -46q-6 -7 -16.5 -19t-22.5 -24.5t-24.5 -25t-22.5 -19.5q-23 -16 -53.5 -26.5t-61.5 -10.5h-84q-29 0 -60 10.5t-53 26.5q-10 7 -22.5 19.5t-24.5 25t-22.5 24.5t-16.5 19q-14 21 -19 46t-5 54v180q0 29 5 54t19 47q6 7 16.5 19t22.5 24.5t24.5 24.5
t22.5 20q22 15 53 26t60 11h84q31 0 61.5 -11t53.5 -26q10 -8 22.5 -20t24.5 -24.5t22.5 -24.5t16.5 -19q14 -22 19 -47t5 -54v-180zM1827 391v19t-2 14v-2q-6 11 -16.5 24t-22.5 25t-24 22.5t-21 16.5q-8 5 -16.5 6.5t-14.5 1.5h-82q-6 0 -14.5 -1.5t-16.5 -6.5
q-11 -6 -23 -16t-23 -22t-20.5 -25t-14.5 -25q-4 -6 -4.5 -14t-0.5 -17v-172q0 -9 0.5 -16.5t4.5 -14.5q5 -11 14.5 -24t20.5 -25t23 -21.5t23 -15.5q8 -5 16.5 -6.5t14.5 -1.5h82q6 0 14.5 1.5t16.5 6.5q9 6 21 16t24 22t22.5 24.5t16.5 23.5v-2q2 7 2 14.5v18.5v172z
M1290 215q0 -29 -5 -54t-19 -46q-6 -7 -16.5 -19t-22.5 -24.5t-24.5 -25t-22.5 -19.5q-23 -16 -53.5 -26.5t-61.5 -10.5h-84q-29 0 -60 10.5t-53 26.5q-10 7 -22.5 19.5t-24.5 25t-22.5 24.5t-16.5 19q-14 21 -19 46t-5 54v180q0 29 5 54t19 47q6 7 16.5 19t22.5 24.5
t24.5 24.5t22.5 20q22 15 53 26t60 11h84q31 0 61.5 -11t53.5 -26q10 -8 22.5 -20t24.5 -24.5t22.5 -24.5t16.5 -19q14 -22 19 -47t5 -54v-180zM1182 391v19t-2 14v-2q-6 11 -16.5 24t-22.5 25t-24 22.5t-21 16.5q-8 5 -16.5 6.5t-14.5 1.5h-82q-6 0 -14.5 -1.5t-16.5 -6.5
q-11 -6 -23 -16t-23 -22t-20.5 -25t-15.5 -25q-3 -6 -3.5 -14t-0.5 -17v-172q0 -9 0.5 -16.5t3.5 -14.5q6 -11 15.5 -24t20.5 -25t23 -21.5t23 -15.5q8 -5 16.5 -6.5t14.5 -1.5h82q6 0 14.5 1.5t16.5 6.5q9 6 21 16t24 22t22.5 24.5t16.5 23.5v-2q2 7 2 14.5v18.5v172z" />
    <glyph glyph-name="guilsinglleft" unicode="&#x2039;" horiz-adv-x="764" 
d="M397 190l-295 316l295 319l121 -37l-268 -280l268 -283z" />
    <glyph glyph-name="guilsinglright" unicode="&#x203a;" horiz-adv-x="764" 
d="M102 225l269 283l-269 280l121 37l295 -319l-295 -316z" />
    <glyph glyph-name="fraction" unicode="&#x2044;" horiz-adv-x="1327" 
 />
    <glyph glyph-name="Euro" unicode="&#x20ac;" horiz-adv-x="1194" 
d="M1008 231q-10 -21 -22 -43.5t-23 -37.5t-26 -33t-32 -35.5t-35 -33t-34 -25.5q-22 -14 -51 -23.5t-54 -9.5h-291q-24 0 -54.5 9.5t-51.5 23.5q-14 8 -34.5 26.5t-41 39.5t-38 41.5t-25.5 33.5q-14 22 -19.5 47t-5.5 51v191h-88v106h88v119h-88v106h88v179q0 26 5.5 51
t19.5 47q8 13 25.5 34t38 42.5t41 40t34.5 26.5q21 14 50.5 23.5t53.5 9.5h293q25 0 54 -9.5t51 -23.5q16 -10 34 -26t35.5 -34t33 -36t26.5 -33t22 -36.5t21 -43.5l-115 -34q-9 21 -26 45t-36.5 45.5t-40 39t-36.5 25.5q-5 3 -13 4.5t-16 1.5h-276q-18 0 -27 -6
q-12 -6 -30 -20.5t-37 -32.5t-35.5 -38t-26.5 -38q-3 -6 -3.5 -14.5t-0.5 -16.5v-172h483v-106h-483v-119h483v-106h-483v-187q0 -8 0.5 -14t3.5 -12q10 -18 26.5 -38t35.5 -38t37 -32.5t30 -20.5q8 -7 27 -7h276q8 0 16 1.5t13 5.5q16 8 36 25t39.5 38.5t36.5 45t27 44.5z
" />
    <glyph glyph-name="afii61352" unicode="&#x2116;" horiz-adv-x="1888" 
d="M752 0l-535 1049v-1049h-115v1229h158l531 -1059v1059h114v-1229h-153zM1702 842q0 -28 -5.5 -52.5t-19.5 -46.5q-5 -8 -15 -20t-22 -24.5t-24.5 -24.5t-22.5 -19q-23 -17 -53 -27t-61 -10h-84q-29 0 -59.5 10t-53.5 27q-10 7 -22.5 19t-24.5 24.5t-22 24.5t-15 20
q-14 22 -19 46.5t-5 52.5v182q0 28 5 52.5t19 45.5q5 8 15 20t22 25t24.5 24.5t22.5 18.5q23 17 53.5 27t59.5 10h84q31 0 61 -10t53 -27q10 -7 22.5 -18.5t24.5 -24.5t22 -25t15 -20q14 -21 19.5 -45.5t5.5 -52.5v-182zM1602 1020q0 11 -0.5 18.5t-2.5 14.5q-6 11 -16.5 24
t-22.5 25.5t-25 23.5t-24 17q-8 5 -16 6.5t-16 1.5h-82q-8 0 -16.5 -1.5t-16.5 -6.5q-11 -6 -23.5 -17t-24.5 -23.5t-22 -25.5t-16 -24q-3 -7 -3.5 -14.5t-0.5 -18.5v-174q0 -11 0.5 -19t3.5 -14q6 -12 16 -25t22 -25.5t24.5 -23t23.5 -16.5q8 -5 16.5 -6.5t16.5 -1.5h82
q8 0 16 1.5t16 6.5q11 6 24 16.5t25 23t22.5 25.5t16.5 25q2 6 2.5 14t0.5 19v174z" />
    <glyph glyph-name="trademark" unicode="&#x2122;" horiz-adv-x="1257" 
d="M989 647v467l-137 -252h-68l-122 252v-467h-91v582h136l112 -232l123 232h137v-582h-90zM352 1139v-492h-92v492h-158v90h396v-90h-146z" />
    </font>
</defs>
</svg>
