<?xml version="1.0" standalone="no"?>
<!DOCTYPE svg PUBLIC "-//W3C//DTD SVG 1.1//EN" "http://www.w3.org/Graphics/SVG/1.1/DTD/svg11.dtd" >
<svg xmlns="http://www.w3.org/2000/svg" xmlns:xlink="http://www.w3.org/1999/xlink" version="1.1">
<metadata>
Created by FontForge 20170731 at Mon Apr 18 22:17:56 2016
 By Aleksey,,,
Published by Die Gestalten Verlag GmbH &#38; Co. KG, 2008
Copyright (c) by Binnenland and re-p.org, 2008. All rights reserved. This software may not be reproduced, used, displayed, modified, disclosed or transferred without the express written approval of (Binnenland). 
</metadata>
<defs>
<font id="BlenderW00-MediumItalic" horiz-adv-x="1053" >
  <font-face 
    font-family="BlenderW00-MediumItalic"
    font-weight="501"
    font-style="italic"
    font-stretch="normal"
    units-per-em="2048"
    panose-1="2 0 6 6 4 0 0 9 0 4"
    ascent="1638"
    descent="-410"
    x-height="883"
    cap-height="1229"
    bbox="-215 -363 2068.12 1708"
    underline-thickness="102"
    underline-position="-358"
    unicode-range="U+0020-FB02"
  />
<missing-glyph horiz-adv-x="2048" 
 />
    <glyph glyph-name=".notdef" horiz-adv-x="2048" 
 />
    <glyph glyph-name="glyph1" horiz-adv-x="1024" 
 />
    <glyph glyph-name="glyph2" horiz-adv-x="1024" 
 />
    <glyph glyph-name="space" unicode=" " horiz-adv-x="475" 
 />
    <glyph glyph-name="exclam" unicode="!" horiz-adv-x="504" 
d="M174 338l172 891h160l-172 -891h-160zM90 0l39 201h209l-39 -201h-209z" />
    <glyph glyph-name="quotedbl" unicode="&#x22;" horiz-adv-x="819" 
d="M780 946h-157l45 148l43 223h155l-47 -250zM461 946h-158l45 148l43 223h156l-47 -250z" />
    <glyph glyph-name="numbersign" unicode="#" horiz-adv-x="1094" 
d="M1034 690h-178l-68 -174h179l-56 -147h-178l-78 -207h-159l77 207h-147l-78 -207h-160l78 207h-178l55 147h179l67 174h-178l55 150h178l76 198h160l-76 -198h148l75 198h160l-76 -198h179zM549 690l-68 -174h148l67 174h-147z" />
    <glyph glyph-name="dollar" unicode="$" horiz-adv-x="1167" 
d="M1042 276q-6 -26 -17 -54.5t-34 -53.5q-11 -14 -33.5 -34.5t-48.5 -41.5t-51.5 -39.5t-42.5 -27.5q-28 -14 -61 -24.5t-62 -10.5h-117l-34 -183h-115l35 183h-109q-41 0 -74.5 15t-61.5 39t-49.5 53.5t-37.5 58.5q-9 17 -16.5 41.5t-18.5 64.5l158 41l12 -37
q8 -18 19.5 -35.5t24 -32.5t25 -26.5t23.5 -17.5q7 -3 10.5 -3.5t8.5 -0.5h117l77 405l-241 66q-33 9 -56 30t-35.5 49.5t-16 61.5t2.5 67l25 121q5 26 16 55t33 54q12 14 34.5 35t48.5 42.5t51.5 40t43.5 27.5q28 14 61 24.5t62 10.5h104l31 162h117l-33 -162h90
q40 0 73.5 -15.5t60.5 -39.5t48.5 -53.5t36.5 -57.5q10 -15 18 -39.5t19 -64.5l-157 -43q-5 12 -7 19t-4 11t-2 7q-5 17 -16.5 34.5t-25 32.5t-27 27t-23.5 18q-2 1 -5 2q-6 2 -11 2h-99l-75 -391l247 -67q33 -9 57 -29.5t38.5 -48.5t18.5 -60.5t-3 -66.5zM680 524l-74 -374
h99q8 0 16 4q13 6 38 22.5t49.5 37t44 40.5t21.5 33l25 116q5 25 -4.5 46t-28.5 26zM393 838q-5 -23 3.5 -43t27.5 -25l178 -51l70 360h-84q-11 0 -19 -4q-12 -6 -37 -23.5t-50.5 -38.5t-45.5 -41t-22 -32z" />
    <glyph glyph-name="percent" unicode="%" horiz-adv-x="1481" 
d="M434 0h-172l899 1229h160zM1370 195q-5 -25 -14.5 -49t-26.5 -46q-7 -6 -18.5 -16.5t-24.5 -21.5t-26.5 -21.5t-24.5 -17.5q-25 -16 -57.5 -24.5t-61.5 -8.5h-123q-29 0 -58.5 8.5t-47.5 24.5q-8 7 -17.5 17.5t-18.5 21.5t-16.5 21.5t-11.5 16.5q-11 22 -12 46t4 49
l45 231q6 25 16 48.5t27 43.5q7 7 19 18t25.5 22.5t27 22t24.5 17.5q25 15 57.5 24t61.5 9h123q29 0 58.5 -9t48.5 -24q7 -7 16.5 -17.5t18 -22t15.5 -22.5t11 -18q11 -20 11.5 -43.5t-5.5 -48.5zM1231 201q2 5 2 6.5t2 9.5l39 207q3 11 0 20q-3 13 -15.5 26t-21.5 19
q-8 7 -16 7h-117q-7 0 -17 -4q-10 -5 -22 -13.5t-23 -18t-21 -19.5t-15 -17q-6 -5 -9 -18l-39 -209q-2 -14 3 -21q9 -17 19 -27.5t24 -19.5q9 -6 16 -6h108q5 0 9 1.5t10 4.5q7 4 20.5 13t27 19.5t24 21.5t12.5 18zM733 811q-5 -25 -14.5 -49t-26.5 -45q-7 -6 -18.5 -16.5
t-24.5 -22t-26.5 -22t-24.5 -17.5q-25 -16 -57.5 -24.5t-61.5 -8.5h-123q-29 0 -58.5 8.5t-47.5 24.5q-8 7 -17.5 17.5t-18.5 22t-16.5 22t-11.5 16.5q-11 21 -12 45t4 49l45 231q6 25 16 49t27 44q7 7 19 17.5t25.5 22t27 22t24.5 17.5q25 16 57.5 24.5t61.5 8.5h123
q29 0 58.5 -8.5t48.5 -24.5q7 -7 16.5 -17.5t18 -22t15.5 -22t11 -17.5q11 -20 11.5 -44t-5.5 -49zM594 817q2 5 2 7t2 10l39 206q3 13 0 21q-3 12 -15.5 25.5t-21.5 19.5t-16 6h-117q-8 0 -16 -4q-10 -5 -22 -13t-23.5 -17.5t-21.5 -19.5t-15 -18q-3 -3 -5 -6.5t-4 -11.5
l-38 -209q-2 -8 -1 -12.5t3 -7.5q9 -17 19 -27.5t24 -20.5q9 -6 16 -6h109q5 0 8.5 1.5t9.5 4.5q7 4 20.5 13.5t27 20t24 21t12.5 17.5z" />
    <glyph glyph-name="ampersand" unicode="&#x26;" horiz-adv-x="1186" 
d="M1028 408l-29 -150q-12 -64 -57 -115q-8 -9 -24 -24t-35.5 -31.5t-38.5 -31t-31 -21.5q-32 -20 -72 -31.5t-75 -11.5h-310q-35 0 -69.5 11.5t-57.5 31.5q-9 7 -22 21.5t-26 31t-24 31.5t-16 24q-24 50 -12 115l35 178q6 32 18.5 57t29.5 46.5t39 41t48 40.5
q-18 21 -32.5 40t-23.5 40.5t-11 47t4 58.5l30 162q6 31 21.5 61.5t38.5 56.5q7 9 23.5 24.5t36 31t38.5 29.5t31 22q31 20 68.5 32.5t74.5 12.5h213q42 0 75.5 -15.5t60 -39.5t47 -54t36.5 -59q8 -15 18 -39.5t21 -66.5l-162 -39q-2 7 -3.5 13t-3.5 11t-3 11
q-6 18 -17.5 35.5t-25 33t-26.5 27.5t-23 18q-10 4 -21 4h-206q-14 0 -34.5 -12t-40.5 -28.5t-37.5 -33.5t-25.5 -28q-2 -2 -4 -8.5t-4 -14.5l-31 -155q-3 -17 0 -23q5 -9 13.5 -22.5t19.5 -25.5t23.5 -21t25.5 -9h236l-31 -157h-215q-13 0 -33 -11t-40 -26.5t-37.5 -32
t-24.5 -27.5q-5 -8 -8 -22l-35 -172q-2 -8 -1 -14t3 -9q5 -10 14 -23t20 -24.5t23 -19.5t23 -8h309q15 0 34.5 10.5t39 26t36.5 32.5t27 29q6 8 7.5 12t3.5 12l59 297h229l-32 -163h-62z" />
    <glyph glyph-name="quotesingle" unicode="'" horiz-adv-x="485" 
d="M459 946h-158l45 148l43 221h156l-47 -248z" />
    <glyph glyph-name="parenleft" unicode="(" horiz-adv-x="715" 
d="M236 944q6 28 18 56t35 53q11 14 31 33t44.5 40t52 44t54.5 44q27 22 52.5 42t46 36t35 27t20.5 16l92 -127q-4 -3 -19.5 -15.5t-38.5 -31t-51.5 -41t-56.5 -45.5q-29 -23 -56.5 -46t-49.5 -43.5t-36.5 -36.5t-15.5 -25l-127 -645q-2 -9 5 -26t20.5 -37.5t31.5 -44
t37 -46.5t37.5 -44t33 -37.5t24.5 -27.5t12 -14l-121 -104q-14 15 -44.5 49t-65.5 76q-36 42 -69 85t-48 74q-13 25 -14 53t4 56z" />
    <glyph glyph-name="parenright" unicode=")" horiz-adv-x="721" 
d="M571 287q-6 -28 -18 -56t-35 -53q-12 -14 -31.5 -33t-44 -40.5t-52 -44t-54.5 -44.5q-27 -21 -52.5 -41t-46 -36t-35 -27.5t-20.5 -15.5l-94 127q4 3 19.5 15.5t38.5 31t51 41t57 45.5l56 46t50 43.5t36 36.5t16 25l127 645q2 9 -5 25.5t-20.5 37.5t-32 44.5t-37.5 46.5
t-37 44t-32.5 37.5t-24.5 27.5t-12 14l123 104q14 -15 44.5 -49t65.5 -76t68.5 -85t48.5 -74q13 -25 14 -53t-4 -56z" />
    <glyph glyph-name="asterisk" unicode="*" horiz-adv-x="948" 
d="M664 1065l241 84l49 -145l-243 -74l153 -201l-123 -92l-145 209l-143 -209l-125 90l153 201l-243 73l47 146l237 -84l-4 256h154z" />
    <glyph glyph-name="plus" unicode="+" 
d="M635 436l-55 -286h-160l55 286h-305l29 150h305l55 284h160l-55 -284h305l-29 -150h-305z" />
    <glyph glyph-name="comma" unicode="," horiz-adv-x="549" 
d="M170 -178h-188l229 350l156 -49z" />
    <glyph glyph-name="hyphen" unicode="-" horiz-adv-x="684" 
d="M137 434l29 150h467l-29 -150h-467z" />
    <glyph glyph-name="period" unicode="." horiz-adv-x="555" 
d="M106 0l41 211h209l-41 -211h-209z" />
    <glyph glyph-name="slash" unicode="/" horiz-adv-x="885" 
d="M137 0h-180l881 1229h178z" />
    <glyph glyph-name="zero" unicode="0" 
d="M934 258q-6 -32 -21 -61t-36 -54q-8 -9 -24.5 -24t-36 -31.5t-38 -31t-30.5 -21.5q-32 -20 -71.5 -31.5t-74.5 -11.5h-276q-35 0 -69.5 11.5t-57.5 31.5q-9 7 -22.5 21.5t-26.5 31t-24 31.5t-15 24q-25 49 -13 115l140 713q6 31 20 60.5t37 55.5q7 9 23.5 24.5t36 32
t38.5 30.5t31 22q32 20 70 31.5t73 11.5h277q35 0 70.5 -11.5t58.5 -31.5q9 -8 22 -22t26.5 -30.5t24 -32t15.5 -24.5q24 -52 12 -116zM905 981q3 14 0 23q-4 10 -12 23.5t-19 24.5t-24.5 19t-28.5 8h-270q-15 0 -36 -11.5t-42 -27t-38.5 -32.5t-24.5 -29q-3 -5 -5 -12.5
t-4 -14.5l-137 -700q-2 -8 -1.5 -16.5t3.5 -14.5q6 -11 14.5 -23t19 -22t22.5 -17t24 -7h275q14 0 34.5 12t41 28.5t38 33.5t25.5 28q5 8 8 22z" />
    <glyph glyph-name="one" unicode="1" 
d="M141 0l29 150h276l179 919h-238l31 160h407l-209 -1079h263l-29 -150h-709z" />
    <glyph glyph-name="two" unicode="2" 
d="M1026 831q-7 -35 -24.5 -66t-42.5 -57.5t-54.5 -47t-60.5 -35.5l-471 -222q-26 -12 -43.5 -30t-22.5 -39l-33 -174h607l-31 -160h-774l65 342q14 71 64.5 124t120.5 85l475 219q23 11 38.5 28t20.5 40l27 143q3 14 0 23q-4 10 -12.5 23.5t-20 24.5t-24.5 19t-25 8h-230
q-9 0 -15 -2t-9 -4q-13 -6 -31 -17.5t-36 -26.5t-35 -32t-29 -34q-3 -4 -7 -9l-10 -12.5t-14 -19.5l-158 47q25 40 43 63.5t33 40.5q28 28 61 57.5t69.5 53.5t76 39.5t80.5 15.5h231q35 0 70.5 -11.5t58.5 -31.5q9 -8 22.5 -22t26.5 -30.5t23.5 -32t15.5 -24.5
q11 -26 15 -55.5t-2 -60.5z" />
    <glyph glyph-name="three" unicode="3" 
d="M909 254q-12 -63 -57 -117q-9 -9 -25.5 -24t-36 -31.5t-38.5 -31t-31 -21.5q-31 -20 -69.5 -31.5t-73.5 -11.5h-234q-40 0 -73 15t-60 39t-48 53t-36 57q-11 20 -21 45.5t-18 62.5l160 41q3 -7 5.5 -13t4.5 -11q2 -6 4 -11q8 -19 19 -36.5t22.5 -32.5t23 -26t19.5 -17
q6 -5 11 -6t12 -1h223q15 0 35.5 11.5t41.5 28t38.5 33.5t25.5 28q5 5 8 20l35 178q2 14 0 21q-4 11 -12 24t-18.5 24.5t-22 19.5t-23.5 8h-239l31 157h215q18 0 22 4q12 6 28 16.5t32 23t29.5 26t21.5 25.5q7 11 10 24l31 164q3 15 0 23q-11 20 -25 39.5t-33 31.5
q-5 3 -11.5 3.5t-12.5 0.5h-230q-3 0 -6 -0.5t-5 -0.5q-3 -1 -5 -1q-12 -5 -31.5 -17.5t-40.5 -29.5t-40.5 -36t-32.5 -38q-3 -4 -7 -9q-3 -5 -7 -10.5t-9 -12.5l-160 43q26 40 45 64.5t33 41.5q15 18 35 37t41.5 37t43.5 33t42 26q28 16 61.5 24.5t61.5 8.5h233
q35 0 69.5 -11.5t57.5 -31.5q9 -8 22.5 -22.5t26.5 -31t23.5 -32.5t15.5 -25q25 -51 13 -114l-33 -166q-6 -32 -18.5 -57t-30.5 -46.5t-40 -40.5t-48 -40q18 -21 32.5 -41t24 -41.5t12 -47t-3.5 -57.5z" />
    <glyph glyph-name="four" unicode="4" 
d="M836 266l-52 -266h-168l52 266h-576l27 142l686 821h217l-156 -803h135l-30 -160h-135zM813 1012l-485 -586h370z" />
    <glyph glyph-name="five" unicode="5" 
d="M924 258q-14 -64 -58 -117q-8 -9 -24 -24t-35.5 -31.5t-38.5 -31t-31 -21.5q-32 -20 -71 -31.5t-74 -11.5h-238q-40 0 -73.5 15t-61.5 38.5t-50 52.5t-38 58q-9 15 -17.5 41.5t-19.5 66.5l164 41q3 -9 5 -16t4 -12l3 -9q8 -18 19.5 -36t25 -34t26.5 -28t24 -16
q5 -2 8.5 -2h9.5h227q8 0 14 1t11 3q12 6 28.5 17.5t33 25.5t31 28t22.5 25q5 5 8 20l43 226q2 8 3 12.5t-1 9.5q-8 22 -25.5 41.5t-36.5 32.5q-5 3 -10.5 3.5t-13.5 0.5h-490l123 633h699l-31 -160h-529l-61 -315h311q37 0 71 -11.5t58 -31.5q9 -8 22.5 -22t26.5 -30
t23.5 -31t15.5 -24q26 -53 13 -117z" />
    <glyph glyph-name="six" unicode="6" 
d="M903 926q-3 12 -6 21.5t-6 17.5q-7 17 -18 33.5t-23.5 31t-24.5 26t-22 17.5q-5 3 -11.5 4.5t-11.5 1.5h-221q-6 0 -14 -1.5t-13 -4.5q-13 -6 -29.5 -17.5t-33 -25t-30.5 -27.5t-21 -26q-5 -8 -8 -23l-48 -245q38 29 79 47t87 18h213q35 0 69.5 -10.5t57.5 -30.5
q9 -8 22.5 -22t26.5 -29.5t23.5 -30.5t15.5 -24q26 -53 13 -117l-49 -254q-14 -64 -58 -117q-8 -9 -25 -24t-36.5 -31.5t-38.5 -31t-31 -21.5q-31 -20 -69.5 -31.5t-73.5 -11.5h-256q-35 0 -68.5 11.5t-58.5 31.5q-9 7 -22.5 21.5t-26 31t-23 31.5t-14.5 24q-26 53 -13 117
l140 715q6 31 20 60.5t37 55.5q8 9 24.5 24.5t35.5 32t38 30.5t31 22q32 20 70 31.5t73 11.5h232q28 0 58.5 -8.5t52.5 -24.5q15 -11 31 -27.5t30.5 -35t26.5 -37t20 -33.5q9 -15 19 -42t18 -64zM803 518q2 8 1 13.5t-1 7.5q-4 11 -12.5 25.5t-20 27t-24.5 21t-25 8.5h-207
q-5 0 -11 -2q-3 -1 -5 -1q-18 -8 -44 -23.5t-52 -33.5t-48 -37.5t-32 -36.5l-50 -241q-3 -15 0 -21q6 -10 15 -23.5t20 -25.5t22.5 -20.5t22.5 -8.5h254q15 0 35.5 12t40.5 28.5t37.5 34t25.5 28.5q6 4 9 20z" />
    <glyph glyph-name="seven" unicode="7" 
d="M324 0h-185l738 1069h-625l31 160h815l-27 -137z" />
    <glyph glyph-name="eight" unicode="8" 
d="M915 256q-12 -63 -57 -117q-8 -9 -25 -24t-36.5 -31.5t-38.5 -31t-31 -21.5q-31 -20 -69.5 -31.5t-73.5 -11.5h-256q-35 0 -69 11.5t-58 31.5q-9 7 -22.5 21.5t-26 31t-23 31.5t-14.5 24q-26 53 -13 117l35 178q6 32 18.5 57.5t30 47t39.5 41.5t47 41q-17 21 -31 40.5
t-23 41t-12 47t3 57.5l33 164q6 31 20 60.5t37 55.5q7 9 23.5 24.5t36 32t38.5 30.5t31 22q32 20 70 31.5t73 11.5h256q35 0 69.5 -11.5t57.5 -31.5q9 -8 22.5 -22t26.5 -30.5t23.5 -32t15.5 -24.5q11 -26 15 -55.5t-2 -60.5l-33 -164q-6 -32 -18.5 -57.5t-30 -47t-40 -41
t-48.5 -40.5q18 -21 32.5 -41t24 -41.5t12 -47t-3.5 -57.5zM887 979q3 14 0 22q-4 11 -13 24.5t-20.5 25.5t-24 20t-24.5 8h-252q-15 0 -35.5 -11.5t-41 -28t-38 -33.5t-24.5 -29q-5 -8 -8 -23l-31 -155q-2 -10 -1 -17t3 -10q4 -8 11 -20t16.5 -24t20 -20.5t21.5 -9.5h13
h252q13 0 33 11.5t40 27t37.5 32.5t24.5 28t10 24zM784 444q0 17 -2 19q-3 11 -12 24.5t-21 25.5t-25 20t-24 8h-249q-15 0 -36 -11.5t-42 -27.5t-38.5 -34t-25.5 -30q-2 -3 -3 -6.5t-3 -11.5l-35 -174q-3 -15 0 -21q6 -10 14.5 -23.5t19 -25.5t22.5 -20.5t24 -8.5h254
q13 0 33.5 11.5t41.5 28t38.5 33.5t25.5 28q2 2 4.5 7t4.5 13z" />
    <glyph glyph-name="nine" unicode="9" 
d="M258 301q6 -24 12 -39q7 -17 18 -33.5t23.5 -31t24.5 -26t22 -17.5q12 -7 23 -7h221q6 0 14 2t13 5q13 6 29.5 17.5t33 25t30 27.5t21.5 26q6 7 9 22l47 246q-37 -29 -78.5 -47t-87.5 -18h-213q-35 0 -69.5 10.5t-57.5 30.5q-9 7 -22.5 21t-26.5 30t-24 31t-15 24
q-26 53 -12 117l49 254q12 64 57 116q9 9 25.5 24.5t36 32t38.5 30.5t31 22q31 20 69.5 31.5t73.5 11.5h256q36 0 69.5 -11.5t57.5 -31.5q9 -8 22.5 -22t26 -30.5t23 -32t14.5 -24.5q13 -26 16 -55.5t-3 -60.5l-140 -715q-6 -31 -20 -61t-37 -56q-8 -9 -24 -24t-35.5 -31.5
t-38.5 -31t-31 -21.5q-32 -20 -70 -31.5t-73 -11.5h-232q-28 0 -58.5 8.5t-51.5 23.5q-15 11 -31 27.5t-31 35.5t-27 37.5t-20 33.5q-9 15 -19 42t-18 64zM358 709q-2 -8 -1 -13.5t1 -7.5q4 -12 13 -26t20 -26.5t24 -21t25 -8.5h207q8 0 11 1q3 0 6 1q18 9 44 24t51.5 33
t47.5 37.5t33 36.5l49 242q3 14 0 20q-6 10 -15 23.5t-20 25.5t-22.5 20.5t-22.5 8.5h-254q-15 0 -35.5 -12t-40.5 -28.5t-37.5 -33.5t-25.5 -28q-2 -2 -4 -7.5t-4 -13.5z" />
    <glyph glyph-name="colon" unicode=":" horiz-adv-x="555" 
d="M213 549l41 217h209l-41 -217h-209zM106 0l41 217h209l-41 -217h-209z" />
    <glyph glyph-name="semicolon" unicode=";" horiz-adv-x="549" 
d="M213 549l41 217h209l-41 -217h-209zM170 -178h-188l229 350l156 -49z" />
    <glyph glyph-name="less" unicode="&#x3c;" horiz-adv-x="1489" 
d="M377 541l477 -541h-201l-542 616l741 619h227l-647 -541h1016l-29 -153h-1042z" />
    <glyph glyph-name="equal" unicode="=" horiz-adv-x="995" 
d="M162 573l26 140h754l-27 -140h-753zM109 297l26 137h754l-27 -137h-753z" />
    <glyph glyph-name="greater" unicode="&#x3e;" horiz-adv-x="1489" 
d="M1200 694l-477 541h201l542 -617l-741 -618h-227l647 541h-1016l29 153h1042z" />
    <glyph glyph-name="question" unicode="?" horiz-adv-x="950" 
d="M1001 831q-7 -35 -24.5 -67t-41.5 -59t-53.5 -48.5t-60.5 -35.5l-149 -64q-25 -11 -44 -31.5t-22 -40.5l-31 -151h-167l30 160q15 67 49.5 110t80.5 71.5t98.5 48.5t103.5 42q23 11 42 33t24 45l26 135q3 14 0 22q-4 11 -12.5 24.5t-20 25.5t-24.5 20t-25 8h-227
q-13 0 -23 -4q-13 -6 -31.5 -18t-38 -27t-37.5 -32.5t-30 -34.5l-6 -9q-3 -5 -8.5 -12.5t-13.5 -19.5l-158 47q25 40 42.5 63.5t33.5 40.5q27 28 60 57.5t70 53.5t76 39.5t80 15.5h232q35 0 70.5 -11.5t58.5 -31.5q9 -8 22 -22t26.5 -30.5t24 -32t15.5 -24.5
q11 -26 14.5 -55.5t-2.5 -60.5zM338 0l37 197h205l-37 -197h-205z" />
    <glyph glyph-name="at" unicode="@" horiz-adv-x="1239" 
d="M1004 1241q11 0 26 -2.5t30 -7t29 -11t23 -14.5q37 -29 64.5 -69t46.5 -74q12 -22 13 -50.5t-5 -54.5l-154 -798l-10 -160h-154l-2 72q-12 -11 -24.5 -19.5t-26.5 -17.5q-26 -17 -57 -31t-62 -14h-94q-38 0 -72.5 11t-56.5 30q-10 9 -21 22t-21 26.5t-18 27t-12 22.5
q-12 25 -14 54t4 61l74 387q8 34 21 62t34 52q8 9 22 22t30 27.5t32.5 27.5t28.5 22q28 20 66.5 32.5t76.5 12.5h94q31 0 57 -13.5t46 -31.5q11 -11 15.5 -16.5t17.5 -20.5l28 151q3 13 0 21q-5 15 -15.5 32t-24 32.5t-27.5 28t-25 18.5q-3 2 -8.5 4t-11.5 2h-410
q-5 0 -10.5 -2t-7.5 -4q-13 -7 -32.5 -20t-40 -29t-38.5 -33.5t-29 -32.5q-5 -8 -8 -21l-198 -1022q-2 -6 -1 -9.5t1 -8.5q4 -15 15.5 -33.5t25.5 -35.5t28.5 -30.5t24.5 -19.5q6 -3 9.5 -3.5t8.5 -0.5l82 -2l-8 -141h-113q-51 0 -104 35q-12 8 -29.5 26.5t-34 39.5
t-30.5 41.5t-19 33.5q-11 25 -12 52.5t4 53.5l199 1028q6 26 15.5 54t31.5 51q10 14 32.5 35t48 43t50.5 40.5t41 26.5q28 16 59 24.5t57 8.5h429zM588 248q-3 -16 0 -23q4 -11 11 -24t16 -25t19 -22.5t19 -16.5t23 -6h86q5 0 9 1t9 3q12 6 34 17.5t45.5 26.5t45 32t33.5 33
q2 3 3 7.5t1 6.5l72 371v6q-6 16 -20.5 32.5t-32.5 31t-35 25t-27 15.5q-5 2 -9 3t-9 1h-86q-12 0 -27 -6q-11 -5 -24.5 -15t-27 -22t-26 -24.5t-20.5 -24.5q-2 -3 -4 -9t-4 -15z" />
    <glyph glyph-name="A" unicode="A" horiz-adv-x="1159" 
d="M885 0l-39 274h-533l-147 -274h-184l665 1229h221l191 -1229h-174zM731 1057l-334 -625h426z" />
    <glyph glyph-name="B" unicode="B" horiz-adv-x="1137" 
d="M991 266q-13 -64 -55 -114q-8 -9 -24.5 -24.5t-35.5 -32t-38 -31t-31 -21.5q-32 -20 -71 -31.5t-74 -11.5h-578l238 1229h577q37 0 70.5 -12.5t58.5 -32.5q9 -8 22.5 -22t26.5 -30t23.5 -31t15.5 -24q13 -26 14 -57t-6 -62l-28 -149q-7 -36 -20.5 -63t-32 -48.5
t-41.5 -39t-50 -35.5q18 -22 34 -41t26.5 -40.5t14 -46.5t-2.5 -59zM958 969q5 17 0 20q-4 11 -12 25t-19 26t-23.5 20.5t-24.5 8.5h-418l-72 -369h397q14 0 34.5 11.5t40.5 28t37.5 33.5t25.5 28q2 2 4 8t4 14zM858 444q2 8 1 13.5t-1 7.5q-4 9 -11.5 20.5t-16.5 22.5
t-18 20t-15 13q-2 2 -7.5 2h-13.5h-418l-73 -383h395q15 0 35 11.5t40 27.5t37 33t25 28q5 5 8 21z" />
    <glyph glyph-name="C" unicode="C" horiz-adv-x="1108" 
d="M997 262q-15 -28 -35.5 -56.5t-41.5 -49.5q-28 -28 -60.5 -57.5t-69 -53.5t-75 -39.5t-78.5 -15.5h-270q-29 0 -60 10.5t-53 24.5q-14 9 -32 27.5t-35.5 39.5t-32 41.5t-21.5 34.5q-11 25 -12.5 53t4.5 55l131 676q9 58 51 107q12 13 34 34t48 42.5t51 40.5t43 28
q28 14 61 24.5t62 10.5h273q40 0 73 -15.5t60 -39.5t48 -53.5t36 -57.5q9 -15 18.5 -39.5t20.5 -64.5l-164 -45q-5 23 -16 46t-26 43t-31.5 36.5t-31.5 27.5q-2 0 -4 1q-2 0 -4.5 0.5t-7.5 0.5h-252q-10 0 -14 -2q-12 -5 -33.5 -20t-44.5 -33.5t-44.5 -38.5t-33.5 -35
q-2 -2 -4.5 -10.5t-4 -18.5t-3 -19t-2.5 -13l-121 -625q-2 -12 7 -29.5t22.5 -34t29 -30t25.5 -18.5q4 -2 14 -2h258q10 0 13 1q3 0 4 1q18 9 42 25.5t47.5 37.5t44.5 44.5t34 47.5z" />
    <glyph glyph-name="D" unicode="D" horiz-adv-x="1153" 
d="M997 285q-6 -28 -17 -55t-34 -52q-12 -14 -34 -34.5t-47.5 -41.5t-50.5 -39.5t-42 -27.5q-28 -14 -61 -24.5t-62 -10.5h-565l238 1229h565q28 0 58.5 -8.5t51.5 -24.5q14 -9 31.5 -28.5t35 -41.5t31.5 -43t21 -34q13 -25 13 -52t-5 -55zM956 942q2 9 3 14.5t-1 10.5
q-5 14 -15 29.5t-21.5 29t-23.5 23.5t-19 14q-4 2 -8.5 4t-10.5 2h-399l-176 -909h372q11 0 19 4q13 6 38 22.5t49.5 37t44 40.5t21.5 33z" />
    <glyph glyph-name="E" unicode="E" horiz-adv-x="1047" 
d="M84 0l238 1229h753l-31 -160h-583l-74 -375h551l-31 -159h-551l-71 -375h583l-30 -160h-754z" />
    <glyph glyph-name="F" unicode="F" horiz-adv-x="1001" 
d="M461 1069l-74 -375h551l-31 -159h-551l-102 -535h-170l238 1229h751l-31 -160h-581z" />
    <glyph glyph-name="G" unicode="G" horiz-adv-x="1212" 
d="M858 0l-8 72q-18 -13 -37 -27.5t-39 -26.5t-43 -20t-49 -8h-315q-29 0 -60 10.5t-53 24.5q-14 9 -32 27.5t-35.5 39.5t-32 41.5t-21.5 34.5q-11 25 -12.5 53t4.5 55l131 674q5 28 17.5 56t33.5 53q12 13 34 34t48 42.5t51 40.5t43 28q28 14 62 24.5t63 10.5h316
q41 0 75 -15.5t61 -39.5t48 -54t37 -59q9 -15 17.5 -38.5t19.5 -63.5l-160 -45q-1 4 -3 10t-4 13q-3 7 -5 16q-6 17 -18 34.5t-25.5 33.5t-27.5 28t-24 18q-2 0 -5 1q-2 0 -5 0.5t-6 0.5h-301q-10 0 -18 -4q-12 -5 -32.5 -18.5t-42.5 -31t-42.5 -36t-32.5 -33.5q-2 -2 -4 -6
t-4 -12l-131 -668q-2 -13 7.5 -30.5t24 -35t30.5 -32t28 -20.5q4 -2 18 -2h293q6 0 9.5 1t5.5 1q13 6 38.5 23.5t51.5 39t47 42.5t24 34l50 248h-281l31 159h448l-80 -411q-12 -59 -12 -132t-2 -155h-164z" />
    <glyph glyph-name="H" unicode="H" horiz-adv-x="1157" 
d="M778 0l103 535h-525l-102 -535h-170l238 1229h170l-105 -535h524l105 535h170l-238 -1229h-170z" />
    <glyph glyph-name="I" unicode="I" horiz-adv-x="457" 
d="M80 0l237 1229h170l-237 -1229h-170z" />
    <glyph glyph-name="J" unicode="J" horiz-adv-x="956" 
d="M801 276q-6 -27 -18 -55t-35 -53q-12 -13 -34 -33.5t-47 -42t-50 -40t-42 -27.5q-27 -14 -61 -24.5t-63 -10.5h-160q-42 0 -75.5 15t-60.5 39t-48 53.5t-37 58.5q-8 15 -17 40.5t-20 65.5l160 41q4 -21 14 -43.5t24 -43t30.5 -37t31.5 -25.5q6 -3 10.5 -3.5t9.5 -0.5h150
q10 0 12 2q12 5 38 23t52 40t47 43t23 33l182 938h168z" />
    <glyph glyph-name="K" unicode="K" horiz-adv-x="1069" 
d="M969 1229h221l-660 -623l443 -606h-213l-379 535h-27l-102 -535h-168l238 1229h167l-104 -537h16z" />
    <glyph glyph-name="L" unicode="L" horiz-adv-x="973" 
d="M84 0l238 1229h170l-207 -1069h571l-31 -160h-741z" />
    <glyph glyph-name="M" unicode="M" horiz-adv-x="1372" 
d="M999 0l189 977l-449 -660h-110l-191 660l-188 -977h-166l238 1229h202l199 -670l459 670h219l-238 -1229h-164z" />
    <glyph glyph-name="N" unicode="N" horiz-adv-x="1169" 
d="M778 0l-346 938l-182 -938h-166l238 1229h182l344 -948l184 948h166l-237 -1229h-183z" />
    <glyph glyph-name="O" unicode="O" horiz-adv-x="1186" 
d="M1042 276q-6 -27 -18 -55t-35 -53q-12 -14 -34 -34.5t-47.5 -41.5t-50.5 -39.5t-42 -27.5q-28 -14 -62 -24.5t-63 -10.5h-323q-29 0 -59 10.5t-52 24.5q-14 9 -32 27.5t-36 39.5t-33 41.5t-22 34.5q-11 25 -11.5 53.5t5.5 54.5l131 674q5 26 16.5 55t32.5 54
q12 14 34.5 35t48.5 42.5t51.5 40t43.5 27.5q28 14 61 24.5t62 10.5h324q29 0 60 -10.5t52 -24.5q13 -9 31 -28t35 -40.5t31.5 -42.5t21.5 -34q13 -25 14.5 -53t-3.5 -56zM1006 958q2 7 1 12.5t-3 8.5q-8 15 -18.5 30t-21.5 28t-22 23t-20 15q-8 4 -19 4h-305q-10 0 -18 -4
q-14 -6 -39 -23t-50.5 -38t-45.5 -42t-23 -34l-129 -670q-2 -11 7 -27.5t22.5 -33t29 -30.5t25.5 -21q9 -6 20 -6h305q7 0 12.5 2t8.5 4q13 6 38 22.5t49.5 37t44 40.5t22.5 33z" />
    <glyph glyph-name="P" unicode="P" horiz-adv-x="1102" 
d="M1092 776q-7 -31 -21 -59.5t-37 -54.5q-8 -9 -24.5 -24.5t-36 -32t-39 -31t-31.5 -21.5q-32 -20 -70 -30.5t-73 -10.5h-408l-98 -512h-170l238 1229h577q35 0 70.5 -11.5t58.5 -31.5q9 -8 22.5 -22.5t26.5 -30.5t23.5 -31.5t15.5 -24.5q11 -26 15 -56t-3 -60zM961 975
q2 8 2 14v8q0 7 -8 19t-19.5 24t-23.5 20.5t-19 8.5h-12h-420l-78 -397h389q14 0 35 11.5t42.5 27t40.5 32t28 25.5q7 7 10 23z" />
    <glyph glyph-name="Q" unicode="Q" horiz-adv-x="1188" 
d="M1042 276q-6 -27 -18 -55t-35 -53q-12 -14 -34 -34.5t-47.5 -41.5t-50.5 -39.5t-42 -27.5q-23 -11 -49 -19.5t-51 -13.5l43 -180h-166l-39 178h-186q-29 0 -59 10.5t-52 24.5q-14 9 -32 27.5t-36 39.5t-33 41.5t-22 34.5q-11 25 -11.5 53.5t5.5 54.5l131 674
q5 26 16.5 55t32.5 54q12 14 34.5 35t48.5 42.5t51.5 40t43.5 27.5q28 14 61 24.5t62 10.5h324q29 0 60 -10.5t52 -24.5q13 -9 31 -28t35 -40.5t31.5 -42.5t21.5 -34q13 -25 14.5 -53t-3.5 -56zM1006 958q2 7 1 12.5t-3 8.5q-8 15 -18.5 30t-21.5 28t-22 23t-20 15
q-8 4 -19 4h-305q-10 0 -18 -4q-14 -6 -39 -23t-50.5 -38t-45.5 -42t-23 -34l-129 -670q-2 -11 7 -27.5t22.5 -33t29 -30.5t25.5 -21q9 -6 20 -6h117l-12 49l155 49l23 -98h27q5 0 9 2t7 4q13 6 38 22.5t49.5 37t44 40.5t22.5 33z" />
    <glyph glyph-name="R" unicode="R" horiz-adv-x="1178" 
d="M827 0l-194 512h-281l-98 -512h-170l238 1229h577q35 0 70.5 -11.5t58.5 -31.5q9 -8 22.5 -22.5t26.5 -30.5t23.5 -31.5t15.5 -24.5q11 -23 15 -54.5t-3 -61.5l-36 -185q-7 -31 -21 -59.5t-37 -54.5q-8 -9 -24 -24.5t-35.5 -32t-38.5 -31t-31 -21.5q-11 -7 -24.5 -14
t-27.5 -12t-28 -8.5t-24 -2.5l205 -516h-179zM961 969q3 14 0 24q-3 9 -11 21.5t-17.5 24.5t-21 20.5t-22.5 9.5h-12h-416l-78 -397h393q14 0 35 10.5t42 25t39 30t26 26.5q3 5 4.5 10.5t3.5 11.5z" />
    <glyph glyph-name="S" unicode="S" horiz-adv-x="1167" 
d="M1042 276q-6 -26 -17 -54.5t-34 -53.5q-11 -14 -33.5 -34.5t-48.5 -41.5t-51.5 -39.5t-42.5 -27.5q-28 -14 -61 -24.5t-62 -10.5h-340q-41 0 -74.5 15t-61.5 39t-49.5 53.5t-37.5 58.5q-9 17 -16.5 41.5t-18.5 64.5l158 41q3 -11 6 -20t6 -17q8 -18 19.5 -35.5t24 -32.5
t25 -26.5t23.5 -17.5q7 -3 10.5 -3.5t8.5 -0.5h330q8 0 16 4q13 6 38 22.5t49.5 37t44 40.5t21.5 33l25 116q5 25 -4.5 46t-28.5 26l-538 146q-33 9 -56 30t-35.5 49.5t-16 61.5t2.5 67l25 121q5 26 16 55t33 54q12 14 34.5 35t48.5 42.5t51.5 40t43.5 27.5q28 14 61 24.5
t62 10.5h309q40 0 73.5 -15.5t60.5 -39.5t48.5 -53.5t36.5 -57.5q10 -15 18 -39.5t19 -64.5l-157 -43q-5 12 -7 19t-4 11t-2 7q-5 17 -16.5 34.5t-25 32.5t-27 27t-23.5 18q-2 1 -5 2q-6 2 -11 2h-297q-11 0 -19 -4q-12 -6 -37 -23.5t-50.5 -38.5t-45.5 -41t-22 -32
l-21 -102q-5 -23 3.5 -43t27.5 -25l534 -149q33 -9 57 -29.5t38.5 -48.5t18.5 -60.5t-3 -66.5z" />
    <glyph glyph-name="T" unicode="T" horiz-adv-x="1032" 
d="M743 1069l-206 -1069h-170l206 1069h-350l31 160h868l-30 -160h-349z" />
    <glyph glyph-name="U" unicode="U" horiz-adv-x="1135" 
d="M991 274q-6 -27 -17 -54t-34 -52q-12 -14 -34 -34.5t-47.5 -41.5t-50.5 -39.5t-42 -27.5q-28 -14 -61 -24.5t-62 -10.5h-274q-29 0 -60 10.5t-53 24.5q-14 9 -32 27.5t-35.5 39.5t-32 41.5t-21.5 34.5q-11 25 -12.5 52t4.5 54l184 955h168l-186 -963q-2 -11 8 -28.5
t25 -34.5t31.5 -31.5t27.5 -19.5q2 0 5 -1t9 -1h252q6 0 9.5 1t5.5 1q12 5 37.5 23.5t51.5 40.5t47 43t23 32l183 938h168z" />
    <glyph glyph-name="V" unicode="V" horiz-adv-x="1108" 
d="M598 0h-221l-170 1229h170l137 -1049l543 1049h186z" />
    <glyph glyph-name="W" unicode="W" horiz-adv-x="1503" 
d="M1122 0h-211l-34 954l-406 -954h-211l-45 1229h168l20 -1006l422 1006h195l33 -1006l409 1006h176z" />
    <glyph glyph-name="X" unicode="X" 
d="M-23 0l523 639l-264 590h174l202 -453l373 453h195l-498 -606l279 -623h-175l-217 485l-395 -485h-197z" />
    <glyph glyph-name="Y" unicode="Y" horiz-adv-x="1024" 
d="M635 522l-100 -522h-168l100 522l-274 707h174l208 -537q-1 0 16.5 22.5t47 60.5t67 86t76.5 99q92 118 211 269h193z" />
    <glyph glyph-name="Z" unicode="Z" horiz-adv-x="1026" 
d="M72 0l24 129l768 940h-585l30 160h795l-27 -133l-751 -936h571l-31 -160h-794z" />
    <glyph glyph-name="bracketleft" unicode="[" horiz-adv-x="645" 
d="M53 0l238 1229h366l-28 -148h-201l-182 -934h200l-26 -147h-367z" />
    <glyph glyph-name="backslash" unicode="\" horiz-adv-x="885" 
d="M248 1229h162l430 -1229h-164z" />
    <glyph glyph-name="bracketright" unicode="]" horiz-adv-x="666" 
d="M94 0l27 147h201l182 934h-201l29 148h366l-237 -1229h-367z" />
    <glyph glyph-name="asciicircum" unicode="^" horiz-adv-x="705" 
d="M440 1229h166l92 -596h-133l-59 446l-236 -446h-151z" />
    <glyph glyph-name="underscore" unicode="_" horiz-adv-x="946" 
d="M8 -178l29 147h790l-28 -147h-791z" />
    <glyph glyph-name="grave" unicode="`" horiz-adv-x="780" 
d="M590 1034l-172 266h192l131 -225z" />
    <glyph glyph-name="a" unicode="a" horiz-adv-x="987" 
d="M643 0l-4 70q-18 -13 -39 -27t-44 -26t-46.5 -19.5t-44.5 -7.5h-180q-37 0 -73 10.5t-60 30.5q-9 8 -21 21t-23 26.5t-19.5 26.5t-12.5 22q-14 25 -16.5 55t3.5 62l7 39q6 32 20 62t37 54q9 9 23 22t30.5 26.5t33 26.5t30.5 22q31 20 69.5 29.5t75.5 9.5h332l22 112
q0 3 1 10.5t1 10.5q-9 21 -26 39t-37 30q-3 2 -8 4t-15 2h-194q-14 0 -29 -7.5t-29.5 -18.5t-27.5 -23t-23 -22q-5 -5 -10.5 -11t-10.5 -12q-6 -7 -11 -14l-152 47q14 22 35.5 47.5t45 49t47.5 43.5t42 32q32 20 71 29.5t76 9.5h189q37 0 73.5 -10.5t59.5 -30.5
q10 -9 22 -22t23.5 -26.5t20.5 -26.5t14 -21q14 -26 15 -57t-5 -62l-92 -475l-8 -162h-158zM690 389h-317q-10 0 -15 -1t-10 -3q-12 -6 -28 -16.5t-31.5 -23.5t-29 -26t-21.5 -24q-2 -2 -4.5 -6.5t-4.5 -14.5l-8 -38q-3 -18 0 -21q3 -9 10 -19.5t15 -20t17 -17.5t16 -13
l10 -4t14 -2h174q11 0 19 4q15 6 38 18.5t47.5 28t47.5 32.5t37 32z" />
    <glyph glyph-name="b" unicode="b" horiz-adv-x="1004" 
d="M862 250q-6 -32 -20 -62.5t-37 -56.5q-8 -8 -22.5 -21.5t-31 -27.5t-33.5 -27.5t-30 -21.5q-32 -20 -71 -31.5t-76 -11.5h-160q-23 0 -44.5 8t-40.5 20.5t-35 27.5t-28 30l-22 -76h-160l45 164l207 1065h160l-80 -414q18 14 39 28t43.5 25t45.5 18t44 7h160
q37 0 72.5 -10.5t58.5 -30.5q10 -9 22 -22.5t23 -28t20.5 -28t14.5 -21.5q14 -25 16 -56t-4 -63zM778 641q3 20 0 23q-3 9 -10.5 20t-16 22t-17.5 19.5t-15 13.5q-5 2 -10 3t-15 1h-155q-16 0 -44.5 -14.5t-58 -34t-55 -39.5t-35.5 -30l-72 -369q6 -11 21.5 -30.5t35.5 -39
t41 -33.5t36 -14h149q9 0 14.5 2t10.5 4q12 6 28 17.5t32.5 25t30 27.5t21.5 25q3 2 5 7.5t6 14.5z" />
    <glyph glyph-name="c" unicode="c" horiz-adv-x="977" 
d="M848 201q-17 -26 -30.5 -43.5t-22.5 -28.5q-8 -9 -22 -22t-30.5 -27.5t-33.5 -27.5t-31 -21q-31 -20 -69.5 -30.5t-76.5 -10.5h-208q-38 0 -74.5 10.5t-61.5 30.5q-9 8 -20.5 21t-22.5 27.5t-20.5 27.5t-13.5 22q-14 26 -15.5 56t4.5 61l76 391q6 31 19 61t36 56
q8 8 22.5 21t31 27.5t33.5 27.5t30 22q32 20 72.5 30.5t77.5 10.5h202q38 0 73 -10.5t58 -30.5q15 -12 32 -32.5t31.5 -44t25.5 -48.5t16 -47l-150 -45q-5 16 -15 35t-23 35t-29.5 27t-34.5 11h-205q-9 0 -14.5 -2t-11.5 -4q-12 -6 -28 -16.5t-32 -23.5t-30 -26t-21 -24
q-2 -2 -4 -7.5t-4 -14.5l-76 -387q-3 -19 0 -25q21 -41 59 -68q5 -3 10.5 -4.5t14.5 -1.5h213q9 0 14.5 2t10.5 4q32 16 62.5 45t53.5 60z" />
    <glyph glyph-name="d" unicode="d" horiz-adv-x="1010" 
d="M662 0l2 76q-19 -15 -41 -30t-45 -27.5t-47.5 -20.5t-47.5 -8h-159q-38 0 -73 11.5t-58 31.5q-10 8 -22 21.5t-23.5 27.5t-21 27.5t-13.5 21.5q-14 26 -16.5 56.5t3.5 62.5l76 383q6 32 20 63t37 56q8 8 22.5 21.5t31 28t33.5 28t30 22.5q32 20 71.5 30.5t76.5 10.5h159
q22 0 42 -7.5t38 -19.5t33.5 -26.5t28.5 -28.5l82 418h159l-206 -1065l-13 -164h-159zM766 637q-5 12 -20.5 30t-35 35t-40.5 29t-37 12h-154q-9 0 -14 -1t-10 -3q-12 -6 -28.5 -17.5t-33 -25.5t-31 -28t-22.5 -25q-2 -2 -4 -7.5t-4 -14.5l-72 -381q-3 -19 0 -25
q9 -19 25 -39.5t28 -30.5q9 -6 25 -6h164q15 0 43.5 15t58 35.5t55 41t35.5 31.5z" />
    <glyph glyph-name="e" unicode="e" horiz-adv-x="989" 
d="M850 201q-15 -23 -35 -47.5t-42.5 -47.5t-46.5 -42.5t-46 -32.5q-31 -20 -69.5 -30.5t-75.5 -10.5h-209q-38 0 -74.5 10.5t-61.5 30.5q-9 8 -20.5 21t-22.5 27.5t-20.5 27.5t-13.5 22q-14 25 -16.5 55t3.5 62l76 391q6 32 20 62t37 55q8 8 22.5 21t31 27.5t33.5 27.5
t30 22q32 20 72.5 30.5t77.5 10.5h205q37 0 73.5 -10.5t59.5 -30.5q10 -9 22 -22t23 -27.5t20.5 -27.5t14.5 -21q14 -26 15 -56t-5 -61l-51 -264h-592l-27 -135q-3 -19 0 -25q5 -10 14 -23t20 -24t23.5 -19t24.5 -8h219q9 0 14.5 2t10.5 4q12 6 26.5 15.5t28.5 21t26 23.5
t19 22l16 25zM770 647q2 8 2 15t-2 10q-9 18 -28 37t-33 28q-3 2 -8.5 4t-14.5 2h-207q-15 0 -35 -11t-40.5 -26t-37.5 -31.5t-24 -27.5q-2 -2 -4 -7.5t-4 -14.5l-21 -107h432z" />
    <glyph glyph-name="f" unicode="f" horiz-adv-x="696" 
d="M635 1090q-6 0 -16 -0.5t-15 -4.5q-10 -5 -27 -17t-34.5 -26.5t-31.5 -29.5t-17 -25q-2 -5 -2.5 -7.5t-4.5 -14.5l-16 -82h248l-29 -150h-246l-141 -733h-162l142 733h-146l29 150h145l21 98q6 32 19 62.5t36 56.5q8 8 22.5 21.5t31 27.5t33.5 27.5t30 21.5
q34 20 73 30.5t76 10.5h166l-28 -149h-156z" />
    <glyph glyph-name="g" unicode="g" horiz-adv-x="1034" 
d="M950 717l-157 -811q-8 -32 -20.5 -62.5t-37.5 -56.5q-8 -9 -22 -22t-31 -27.5t-34 -27.5t-30 -21q-32 -20 -73 -31.5t-76 -11.5h-205q-35 0 -71.5 11.5t-59.5 31.5q-15 12 -31.5 31.5t-31 43t-26 49t-15.5 48.5l151 49q5 -15 14.5 -35t22.5 -38t29 -30t33 -12h204
q10 0 15.5 2t11.5 4q9 5 28 18t38.5 28t35 30.5t17.5 24.5q2 3 2 7t2 9l31 150q-19 -14 -40 -28t-43.5 -25t-45 -18t-43.5 -7h-168q-36 0 -73.5 10.5t-62.5 30.5q-9 8 -20.5 21.5t-22.5 28.5t-20.5 28.5t-13.5 21.5q-14 26 -15.5 56.5t4.5 62.5l76 383q6 32 19 62.5t36 56.5
q8 8 22.5 21.5t31 28t33.5 28t30 22.5q32 20 73.5 30.5t76.5 10.5h168q23 0 44 -8t40 -20.5t35.5 -27.5t29.5 -30l23 76h159zM774 631q-7 10 -22.5 29t-34.5 37.5t-39.5 32t-36.5 13.5h-162q-9 0 -14.5 -2t-11.5 -4q-12 -6 -28 -17.5t-32.5 -25.5t-31.5 -28t-23 -25
q-2 -2 -4 -7.5t-4 -15.5l-72 -374q-2 -6 -2 -14t2 -11q11 -22 27 -42.5t34 -33.5q5 -3 10.5 -3.5t14.5 -0.5h162q14 0 18 2q18 9 43 23.5t50.5 31.5t48 34.5t36.5 31.5z" />
    <glyph glyph-name="h" unicode="h" horiz-adv-x="981" 
d="M623 0l122 641q4 16 0 23q-9 20 -24 43t-35 32q-8 4 -24 4h-138q-17 0 -45.5 -15.5t-58.5 -36.5t-55 -42t-35 -33l-5 -26t-13.5 -69.5t-19.5 -98.5t-22 -113q-26 -136 -59 -309h-160l238 1229h160l-80 -416q18 14 38.5 28t43 25.5t45.5 19t45 7.5h141q35 0 71.5 -11.5
t59.5 -31.5q10 -9 22 -22.5t23.5 -28t20.5 -28t14 -21.5q24 -53 12 -117l-123 -633h-159z" />
    <glyph glyph-name="i" unicode="i" horiz-adv-x="442" 
d="M260 1065l35 182h184l-35 -182h-184zM72 0l170 883h159l-170 -883h-159z" />
    <glyph glyph-name="j" unicode="j" horiz-adv-x="461" 
d="M240 -92q-7 -32 -21 -62.5t-39 -56.5q-8 -8 -22 -21.5t-31 -28.5t-34 -28.5t-30 -21.5q-17 -10 -38 -17.5t-43.5 -13t-44 -8t-39.5 -2.5h-113l29 147q48 1 76 1.5t43 1t21 1t9 2.5q11 6 26.5 18.5t31.5 27t30 29t23 26.5q2 2 4 7.5t4 14.5l186 959h160zM285 1065l34 182
h185l-35 -182h-184z" />
    <glyph glyph-name="k" unicode="k" horiz-adv-x="922" 
d="M627 0l-303 391h-33l-76 -391h-160l238 1229h160l-134 -688h23l389 342h223l-479 -424l350 -459h-198z" />
    <glyph glyph-name="l" unicode="l" horiz-adv-x="455" 
d="M98 0l-2 133l213 1096h158l-209 -1071v-158h-160z" />
    <glyph glyph-name="m" unicode="m" horiz-adv-x="1473" 
d="M1114 0l125 645q2 9 2 13.5t-2 9.5q-16 43 -57 69q-5 3 -13 4.5t-14 1.5h-100q-15 0 -40.5 -13t-52.5 -30.5t-51 -36t-34 -30.5l-123 -633h-158l125 647q3 17 0 23q-11 21 -24 38t-31 29q-5 3 -15 4.5t-16 1.5h-100h-15q-20 -2 -46 -17.5t-51 -35.5t-46.5 -39.5
t-32.5 -29.5l-119 -621h-159l139 719l12 164h160l-2 -74q18 14 40 29t45 27t46.5 20t44.5 8h119q31 2 61 -7.5t53 -31.5q14 -14 26.5 -33t25.5 -39q12 10 28.5 21t34 21.5t34.5 20t30 17.5q29 14 57 22.5t53 8.5h137q29 0 53.5 -12t43.5 -29q10 -9 21.5 -22t23 -27.5
t20.5 -27.5t14 -21q14 -26 15.5 -56t-4.5 -61l-123 -637h-160z" />
    <glyph glyph-name="n" unicode="n" horiz-adv-x="1004" 
d="M645 0l125 647q0 3 1 11.5t1 11.5q-4 9 -11.5 19t-16 20t-17 17.5t-14.5 12.5q-5 2 -10.5 3t-14.5 1h-153q-15 0 -42.5 -14t-56.5 -33t-54 -38t-34 -29l-121 -629h-159l139 719l10 164h160l-2 -72q18 14 40 28.5t45 26.5t46.5 19.5t44.5 7.5h154q37 0 73.5 -10.5
t59.5 -30.5q10 -9 22 -22t23 -27.5t20.5 -27.5t14.5 -21q14 -26 15 -56t-5 -61l-123 -637h-160z" />
    <glyph glyph-name="o" unicode="o" horiz-adv-x="991" 
d="M850 246q-6 -31 -19 -61t-36 -56q-8 -9 -22.5 -22t-31 -27.5t-34 -27.5t-31.5 -21q-31 -20 -70.5 -30.5t-77.5 -10.5h-204q-38 0 -74.5 10.5t-61.5 30.5q-9 8 -20.5 21t-22.5 27.5t-20.5 27.5t-13.5 22q-14 26 -15.5 56t4.5 61l76 391q6 31 19 61t36 56q8 8 22.5 21
t31 27.5t33.5 27.5t30 22q32 20 72.5 30.5t77.5 10.5h204q38 0 74.5 -10.5t59.5 -30.5q10 -9 21.5 -22t23 -27.5t20.5 -27.5t14 -21q14 -26 15.5 -56t-4.5 -61zM686 238q3 6 3.5 8l2.5 10l76 391q0 3 1.5 11t-1.5 14q-20 40 -61 65q-4 2 -9 4t-14 2h-205q-9 0 -14.5 -2
t-11.5 -4q-12 -6 -28 -17t-32 -24t-30 -26.5t-21 -24.5q-5 -5 -8 -22l-76 -385q-3 -18 0 -23q11 -20 27 -38.5t34 -31.5q5 -3 10.5 -4.5t14.5 -1.5h205q9 0 14 2l10 4q9 5 26.5 17t35 26t32 27.5t19.5 22.5z" />
    <glyph glyph-name="p" unicode="p" horiz-adv-x="1010" 
d="M862 250q-6 -32 -20 -63t-37 -56q-8 -8 -22.5 -21.5t-31 -28.5t-34 -28.5t-31.5 -21.5q-31 -20 -69.5 -30.5t-75.5 -10.5h-160q-21 0 -41.5 7t-39 18t-34.5 25t-28 28l-82 -422h-158l207 1073l16 164h160l-6 -76q18 15 40 30t45.5 27.5t47.5 20.5t47 8h160
q37 0 72.5 -11.5t58.5 -31.5q10 -9 22 -22t23 -27.5t20.5 -27.5t14.5 -21q14 -26 16 -56.5t-4 -62.5zM778 641q2 9 2 13.5t-2 9.5q-8 21 -24.5 41t-36.5 32q-3 2 -8 4t-15 2h-155q-15 0 -43.5 -15t-58.5 -34.5t-55.5 -40t-35.5 -30.5l-72 -371q6 -12 21.5 -31t35 -37
t40.5 -31.5t37 -13.5h151q9 0 14.5 1t10.5 3q12 6 28 18.5t32.5 26.5t30 28.5t21.5 25.5q3 5 5 9t6 13z" />
    <glyph glyph-name="q" unicode="q" horiz-adv-x="999" 
d="M942 719l-209 -1073h-160l82 422q-18 -14 -39 -28t-43.5 -25t-45 -18t-44.5 -7h-159q-38 0 -73.5 10.5t-60.5 30.5q-9 8 -20.5 21.5t-22.5 28.5t-20.5 28.5t-13.5 21.5q-14 25 -16.5 56t3.5 63l76 383q12 67 57 119q8 8 22.5 21t31 27.5t33.5 27.5t30 22q32 20 71.5 31.5
t76.5 11.5h159q23 0 44.5 -8t40.5 -20.5t35 -27.5t28 -30l22 76h160zM766 637q-5 11 -21.5 29t-37 35t-42 29.5t-36.5 12.5h-148q-9 0 -13.5 -1.5t-12.5 -4.5q-12 -5 -28.5 -16t-33 -25.5t-31 -29t-22.5 -25.5q-2 -2 -4 -7.5t-4 -15.5l-72 -374q-3 -19 0 -25
q11 -22 26 -42.5t33 -33.5q5 -3 10.5 -3.5t14.5 -0.5h154q16 0 44.5 14.5t58.5 34t55.5 39.5t35.5 31z" />
    <glyph glyph-name="r" unicode="r" horiz-adv-x="852" 
d="M750 637q-6 16 -15.5 34.5t-22.5 34.5t-29 26.5t-34 10.5h-112q-16 0 -44.5 -14t-58 -33.5t-54.5 -39.5t-34 -31l-121 -625h-159l139 719l12 164h158v-72q18 15 40 29.5t45 26t47 19t46 7.5h113q37 0 72.5 -9.5t60.5 -29.5q15 -12 31 -32.5t30 -44.5t25 -49.5t16 -47.5z
" />
    <glyph glyph-name="s" unicode="s" horiz-adv-x="961" 
d="M780 633q-5 17 -15.5 36t-24 35.5t-29 27.5t-31.5 11h-219q-17 0 -25 -4q-25 -11 -54 -36.5t-46 -47.5q-2 -2 -5 -9.5t-5 -16.5l-11 -47q-3 -17 7 -32.5t34 -17.5l338 -22q41 -3 74.5 -19.5t56 -43t32 -62t1.5 -76.5l-14 -69q-6 -32 -21.5 -61.5t-38.5 -55.5
q-8 -9 -20.5 -22t-27.5 -26t-31 -25t-29 -19q-32 -20 -70 -30.5t-76 -10.5h-245q-37 0 -72 10.5t-61 30.5q-15 12 -30 31t-29 42t-26 48t-20 49l152 49q11 -34 31 -63.5t44 -43.5q10 -4 25 -4h248q14 0 33 10t37.5 24t34.5 29.5t24 26.5q3 5 5 9.5t5 13.5l12 61
q3 17 -7.5 32t-35.5 17l-338 21q-41 3 -74 19.5t-55 43t-31 62t-1 76.5l12 59q6 32 19.5 61.5t37.5 55.5q8 9 20.5 21.5t27.5 25.5t30.5 25t28.5 20q34 20 72 30.5t75 10.5h213q37 0 72 -10.5t59 -30.5q16 -13 32 -32t30 -41.5t26 -47t21 -49.5z" />
    <glyph glyph-name="t" unicode="t" horiz-adv-x="700" 
d="M430 733l-94 -479q-3 -19 0 -29q8 -21 22.5 -39t32.5 -30q9 -6 29 -6l153 -3l-28 -147h-146q-37 0 -72.5 10.5t-60.5 30.5q-9 8 -20.5 21.5t-22.5 28.5t-20.5 28.5t-14.5 21.5q-14 26 -16 56.5t4 62.5l92 473h-145l29 150h145l68 346h159l-67 -346h270l-29 -150h-268z
" />
    <glyph glyph-name="u" unicode="u" horiz-adv-x="999" 
d="M651 0v72q-18 -14 -39 -28t-44 -25.5t-46 -19t-45 -7.5h-153q-38 0 -74.5 10.5t-59.5 30.5q-10 8 -22 21.5t-23 27.5t-20.5 27.5t-13.5 21.5q-14 26 -15.5 56t4.5 61l123 635h160l-125 -645q-2 -8 -1 -14t3 -11q6 -19 24.5 -38.5t30.5 -29.5q5 -3 10.5 -3.5t14.5 -0.5
h152q14 0 41.5 13.5t56.5 32t54.5 37t35.5 28.5l121 631h160l-140 -719l-10 -164h-160z" />
    <glyph glyph-name="v" unicode="v" horiz-adv-x="883" 
d="M469 0h-190l-138 883h164l94 -695l365 695h178z" />
    <glyph glyph-name="w" unicode="w" horiz-adv-x="1372" 
d="M1006 0h-191l-74 651l-315 -651h-190l-101 883h162l63 -686l322 686h195l63 -686l322 686h174z" />
    <glyph glyph-name="x" unicode="x" horiz-adv-x="920" 
d="M-14 0l397 461l-217 422h174l152 -301l258 301h196l-381 -441l226 -442h-170l-164 319l-271 -319h-200z" />
    <glyph glyph-name="y" unicode="y" horiz-adv-x="881" 
d="M276 -354h-163l188 354h-27l-133 883h164l98 -686l363 686h174z" />
    <glyph glyph-name="z" unicode="z" horiz-adv-x="909" 
d="M53 0l23 125l569 608h-467l29 150h686l-25 -127l-567 -606h473l-29 -150h-692z" />
    <glyph glyph-name="braceleft" unicode="{" horiz-adv-x="715" 
d="M346 -8q-29 0 -59 10.5t-51 24.5q-14 9 -32.5 27.5t-36 39.5t-32 41.5t-20.5 34.5q-13 25 -12 54t6 55l131 671q5 26 16 55t33 54q11 13 33 34t47.5 42.5t50.5 40.5t43 28q28 14 62 24.5t63 10.5h137l-31 -160h-116q-13 0 -25 -6t-31.5 -20t-40.5 -31t-40 -36t-31 -34
q-2 -2 -7 -16l-129 -670q-2 -12 7 -29t22.5 -33.5t28.5 -30t24 -17.5q3 -2 7 -3t10 -1h141l-31 -160h-137z" />
    <glyph glyph-name="bar" unicode="|" horiz-adv-x="426" 
d="M29 -193l309 1594h158l-310 -1594h-157z" />
    <glyph glyph-name="braceright" unicode="}" horiz-adv-x="733" 
d="M473 1239q29 0 59 -10.5t52 -24.5q14 -9 32 -27.5t36 -40t32.5 -42.5t20.5 -35q12 -25 11.5 -54t-5.5 -55l-131 -669q-5 -26 -16.5 -56t-33.5 -55q-11 -13 -33 -33.5t-47.5 -42t-50.5 -40t-43 -27.5q-28 -14 -62 -24.5t-63 -10.5h-139l31 160h115q12 0 24 6t31 20
t39.5 30.5t40 34t33.5 31.5q5 6 8 19l131 672q2 12 -7 29t-22.5 33.5t-28.5 29.5t-24 18q-3 2 -6.5 3t-10.5 1h-141l31 160h137z" />
    <glyph glyph-name="asciitilde" unicode="~" horiz-adv-x="932" 
d="M676 410q-13 56 -74 47l-184 -29q-46 -8 -89.5 -3.5t-78.5 22t-59.5 47.5t-32.5 73l159 47q13 -56 74 -47l187 29q46 8 88.5 3.5t77.5 -22t59 -47.5t33 -73z" />
    <glyph glyph-name="uni00A0" unicode="&#xa0;" horiz-adv-x="475" 
 />
    <glyph glyph-name="exclamdown" unicode="&#xa1;" horiz-adv-x="504" 
d="M422 891l-172 -891h-160l172 891h160zM506 1229l-39 -201h-209l39 201h209z" />
    <glyph glyph-name="cent" unicode="&#xa2;" horiz-adv-x="997" 
d="M868 201q-17 -26 -30.5 -43.5t-22.5 -28.5q-8 -9 -22 -22t-30.5 -27.5t-33.5 -27.5t-31 -21q-31 -20 -69.5 -30.5t-75.5 -10.5h-64l-67 -348h-117l68 348h-49q-38 0 -74.5 10.5t-61.5 30.5q-9 8 -20.5 21t-22.5 27.5t-20.5 27.5t-13.5 22q-14 26 -15.5 56t4.5 61l76 391
q6 31 19 61t36 56q8 8 22.5 21t31 27.5t33.5 27.5t30 22q32 20 72.5 30.5t77.5 10.5h51l65 336h117l-65 -336h55q37 0 72.5 -10.5t58.5 -30.5q15 -12 31.5 -32.5t31 -44t25.5 -48.5t16 -47l-149 -45q-5 16 -15 35t-23 35t-29.5 27t-34.5 11h-70l-117 -604h57q10 0 15 2l10 4
q32 16 63 45t54 60zM317 145q5 -3 10.5 -4.5t14.5 -1.5h59l117 604h-39q-9 0 -14.5 -2t-11.5 -4q-12 -6 -28 -16.5t-32 -23.5t-30 -26t-21 -24q-2 -2 -4 -7.5t-4 -14.5l-76 -387q-3 -19 0 -25q21 -41 59 -68z" />
    <glyph glyph-name="sterling" unicode="&#xa3;" horiz-adv-x="1214" 
d="M1079 260q-6 -9 -15 -21.5t-18.5 -25.5t-19.5 -25t-18 -20q-26 -28 -58.5 -57.5t-68.5 -54t-75 -40.5t-79 -16h-586l60 309h-84l28 150h84l21 102h-84l29 150h84l45 231q5 28 16 55t33 52q11 13 33.5 33.5t48 42.5t51 41t43.5 28q28 14 61 24.5t62 10.5h221l-31 -160
h-200q-7 0 -10 -1t-5 -1q-12 -5 -33 -20t-43 -34t-42.5 -39.5t-32.5 -35.5q-1 -1 -3.5 -10t-7.5 -34t-14 -69t-22 -114h454l-29 -150h-454l-21 -102h455l-29 -150h-454l-29 -149h399h6.5t5.5 1q3 0 5 1q12 6 31.5 18t40 28t40 33.5t31.5 34.5q8 11 13 18t7 10q3 4 3 5z" />
    <glyph glyph-name="currency" unicode="&#xa4;" horiz-adv-x="1147" 
d="M942 557q-5 -25 -14.5 -48.5t-26.5 -45.5l-6 -6l63 -80l-116 -96l-72 86q-20 -8 -41 -11.5t-41 -3.5h-225q-17 0 -33.5 2t-32.5 8l-108 -90l-92 107l98 82h-1q-1 0 -1 2q-11 22 -12 45.5t4 48.5l30 162q7 25 16.5 48.5t26.5 43.5l7 6l-66 80l119 98l69 -88q42 17 86 17
h226q41 0 80 -17l96 82l98 -106l-102 -84q8 -19 7.5 -38.5t-5.5 -41.5zM807 580l24 137q4 11 0 20q-3 13 -15 26t-21 19q-5 3 -8.5 4.5t-8.5 1.5h-219q-8 0 -16 -4q-10 -5 -22 -13t-23.5 -17.5t-21.5 -19.5t-15 -17q-3 -3 -4.5 -7t-3.5 -12l-25 -139q-2 -8 -1 -12.5t3 -7.5
q9 -17 19 -27.5t24 -19.5q8 -7 16 -7h211q8 0 19 7q7 4 20.5 13t27 19.5t24 21t12.5 17.5z" />
    <glyph glyph-name="yen" unicode="&#xa5;" horiz-adv-x="995" 
d="M776 709h199l-31 -152h-280l-21 -108h281l-29 -148h-281l-57 -301h-168l57 301h-290l28 148h291l21 108h-291l31 152h204l-209 520h172l199 -506q-1 0 15.5 21.5t44.5 56.5t63.5 80.5t72.5 93.5q87 112 199 254h191z" />
    <glyph glyph-name="brokenbar" unicode="&#xa6;" horiz-adv-x="385" 
d="M29 -193l137 699h158l-138 -699h-157zM203 705l137 698h158l-138 -698h-157z" />
    <glyph glyph-name="section" unicode="&#xa7;" horiz-adv-x="1044" 
d="M188 655q8 28 18.5 48.5t24 36.5t30 30t36.5 29q-32 23 -46.5 59t-4.5 88l4 43q6 32 19 61.5t38 55.5q8 9 20.5 21.5t27.5 26t30.5 25t28.5 19.5q34 20 72 30.5t75 10.5h254q37 0 71.5 -10.5t59.5 -30.5q16 -13 32 -32t30 -41.5t26 -47t21 -49.5l-152 -49
q-5 17 -15.5 36.5t-24 36t-29 27.5t-31.5 11h-260q-8 0 -15 -1.5t-10 -3.5q-25 -11 -54 -36.5t-46 -47.5q-2 -2 -5 -9.5t-5 -16.5l-2 -31q-4 -17 6 -22t34 -7l330 -18q35 -2 69.5 -13.5t57.5 -31.5q9 -8 22.5 -23t26.5 -31.5t23.5 -32t15.5 -24.5q25 -51 13 -114l-15 -54
q-8 -29 -18.5 -49t-24 -36t-30 -30t-37.5 -30q32 -22 47 -58t6 -87l-4 -43q-6 -32 -19.5 -61.5t-38.5 -55.5q-8 -9 -20.5 -22t-27 -26t-30 -25t-28.5 -19q-34 -20 -72 -30.5t-76 -10.5h-270q-37 0 -71.5 10.5t-59.5 30.5q-16 13 -32 32t-30 41.5t-26 47t-21 49.5l152 49
q5 -17 15.5 -36.5t24 -36t29 -27.5t31.5 -11h277q16 0 24 4q12 6 26.5 15.5t28 21.5t25.5 24t21 23q2 2 5 10t5 17l2 31q3 17 -6.5 21.5t-34.5 6.5l-330 19q-35 2 -69.5 13.5t-57.5 31.5q-9 7 -22 22t-26 31.5t-24 32t-16 24.5q-24 53 -12 115zM459 762q-12 -8 -27 -19.5
t-28.5 -24t-25.5 -24.5t-18 -22q-3 -5 -6.5 -11t-5.5 -14l-10 -53q-3 -16 0 -23q11 -20 27 -42.5t34 -34.5q5 -4 10 -6.5t11 -4.5l297 -18q13 7 28 19t28.5 24.5t25 25.5t18.5 23q3 5 6.5 11t5.5 14l11 53q3 16 0 22q-11 20 -27 43t-35 35q-5 3 -9.5 5.5t-10.5 4.5z" />
    <glyph glyph-name="dieresis" unicode="&#xa8;" horiz-adv-x="743" 
d="M698 1065l35 182h170l-35 -182h-170zM369 1065l34 182h170l-34 -182h-170z" />
    <glyph glyph-name="copyright" unicode="&#xa9;" horiz-adv-x="1323" 
d="M436 729q12 64 58 115q7 9 21.5 23t31 28.5t33 27.5t28.5 21q32 20 71.5 30.5t74.5 10.5h114q31 0 59.5 -14.5t47.5 -30.5q22 -19 46 -53.5t52 -83.5l-151 -37q-19 25 -36 43t-28 25q-2 2 -6.5 2h-7.5h-119q-11 -1 -29.5 -13t-38 -28.5t-36 -32.5t-23.5 -25q-2 -2 -4 -8
t-4 -14l-41 -219q-4 -19 0 -23q2 -8 10 -21t17.5 -25t20.5 -20.5t19 -9.5h13h112h8t7 2q14 7 40 27t54 45l164 -41q-53 -49 -94 -84t-72 -53q-25 -16 -58.5 -30.5t-64.5 -14.5h-115q-35 0 -70.5 10.5t-58.5 30.5q-9 7 -20.5 20.5t-22.5 28t-20.5 28.5t-14.5 23
q-11 26 -14.5 55t2.5 60zM1212 283q-5 -28 -17 -56t-34 -53q-12 -14 -34 -34.5t-48 -41.5t-51 -39.5t-43 -27.5q-26 -14 -61 -24.5t-64 -10.5h-516q-29 0 -58.5 10.5t-52.5 24.5q-13 9 -30.5 27.5t-34.5 39.5t-31.5 41.5t-21.5 34.5q-13 25 -13.5 53t4.5 56l132 667
q5 28 16 55t33 52q11 13 33.5 34.5t48 43.5t51 41t43.5 28q28 14 61 24.5t62 10.5h516q29 0 60 -10.5t52 -24.5q13 -9 29 -28t31 -41t27.5 -43.5t19.5 -34.5q12 -25 19.5 -52t2.5 -55zM1184 958q2 5 1 11.5t-3 9.5q-8 15 -18.5 31t-22.5 31t-23.5 27t-21.5 17q-3 2 -7 3.5
t-10 1.5h-504q-6 0 -9 -1.5t-5 -1.5q-12 -5 -34.5 -21t-46.5 -36.5t-46.5 -41.5t-34.5 -36q-3 -3 -6 -16l-127 -664q-3 -11 7 -29.5t25 -37.5t31.5 -34.5t26.5 -20.5q3 -2 5.5 -3.5t9.5 -1.5h497q7 0 11 2.5t6 2.5q13 6 40.5 24.5t55.5 41t50.5 44.5t25.5 35z" />
    <glyph glyph-name="ordfeminine" unicode="&#xaa;" horiz-adv-x="858" 
d="M655 616l2 62q-15 -12 -35.5 -25t-41 -23.5t-38.5 -17t-30 -6.5h-82q-29 0 -58.5 8.5t-47.5 24.5q-8 7 -17.5 17.5t-18.5 22t-16.5 22t-11.5 16.5q-11 21 -12 45t4 49l45 231q6 25 16 49t27 44q7 7 19 17.5t25.5 22t27 22t24.5 17.5q25 16 57.5 24.5t61.5 8.5h123
q18 0 39.5 -6.5t38.5 -17.5l4 22h135l-94 -485l-8 -144h-138zM719 1042q2 14 0 21q-5 15 -18 27.5t-27 21.5q-5 2 -8.5 3t-10.5 1h-108q-11 0 -19 -4q-9 -5 -22 -13.5t-26.5 -19t-24.5 -21t-17 -18.5q-2 -3 -4 -6.5t-4 -11.5l-41 -215q-2 -8 -1 -11.5t3 -7.5q15 -27 43 -47
l7.5 -4.5t9.5 -1.5h92q6 0 10 1.5t10 4.5q8 4 26.5 16.5t38 27.5t35 29.5t17.5 21.5z" />
    <glyph glyph-name="guillemotleft" unicode="&#xab;" horiz-adv-x="1227" 
d="M848 199l-258 317l383 324l164 -52l-334 -272l231 -272zM432 199l-258 317l383 324l164 -52l-334 -272l231 -272z" />
    <glyph glyph-name="logicalnot" unicode="&#xac;" horiz-adv-x="1090" 
d="M838 436h-695l29 150h846v2h2l-84 -438h-154l56 286v0z" />
    <glyph glyph-name="registered" unicode="&#xae;" horiz-adv-x="1331" 
d="M1212 283q-5 -28 -17 -56t-34 -53q-12 -14 -34 -34.5t-48 -41.5t-51 -39.5t-43 -27.5q-26 -14 -61 -24.5t-64 -10.5h-516q-29 0 -58.5 10.5t-52.5 24.5q-13 9 -30.5 27.5t-34.5 39.5t-31.5 41.5t-21.5 34.5q-13 25 -13.5 53t4.5 56l132 667q5 28 16 55t33 52
q11 13 33.5 34.5t48 43.5t51 41t43.5 28q28 14 61 24.5t62 10.5h516q29 0 60 -10.5t52 -24.5q13 -9 29 -28t31 -41t27.5 -43.5t19.5 -34.5q12 -25 19.5 -52t2.5 -55zM1184 958q2 5 1 11.5t-3 9.5q-8 15 -18.5 31t-22.5 31t-23.5 27t-21.5 17q-3 2 -7 3.5t-10 1.5h-504
q-6 0 -9 -1.5t-5 -1.5q-12 -5 -34.5 -21t-46.5 -36.5t-46.5 -41.5t-34.5 -36q-3 -3 -6 -16l-127 -664q-3 -11 7 -29.5t25 -37.5t31.5 -34.5t26.5 -20.5q3 -2 5.5 -3.5t9.5 -1.5h497q7 0 11 2.5t6 2.5q13 6 40.5 24.5t55.5 41t50.5 44.5t25.5 35zM1042 721q-6 -31 -13 -65
t-30 -60q-8 -10 -23.5 -23.5t-35 -28t-41 -28.5t-41.5 -24l90 -250h-164l-67 215h-139l-43 -224h-158l147 762h307q36 0 70.5 -11.5t59.5 -31.5q9 -8 22 -22t26 -29.5t24 -30.5t16 -24q11 -26 7.5 -49t-9.5 -54zM899 756q2 8 2 11.5t-2 8.5q-6 19 -24 37.5t-35 28.5
q-8 4 -23 4h-164l-47 -240h139q14 0 34.5 8.5t40.5 21.5t37.5 27t25.5 25q5 8 8 23z" />
    <glyph glyph-name="macron" unicode="&#xaf;" horiz-adv-x="676" 
d="M274 1079l29 148h414l-29 -148h-414z" />
    <glyph glyph-name="degree" unicode="&#xb0;" horiz-adv-x="690" 
d="M721 1206q-19 -90 -83 -142t-157 -52q-41 0 -74 16t-55 43t-31 62t-2 73q8 44 28.5 80t51.5 61.5t70 39.5t84 14q42 0 76 -16.5t56.5 -44t32.5 -62.5t3 -72zM621 1206q7 42 -15.5 72.5t-68.5 30.5q-20 0 -39 -8t-35 -22.5t-26.5 -33t-14.5 -39.5q-9 -43 11 -72.5
t65 -29.5q21 0 41 8t36.5 21.5t28.5 32.5t17 40z" />
    <glyph glyph-name="plusminus" unicode="&#xb1;" 
d="M92 -178l29 147h747l-28 -147h-748zM635 436l-55 -286h-160l55 286h-305l29 150h305l55 284h160l-55 -284h305l-29 -150h-305z" />
    <glyph glyph-name="uni00B2" unicode="&#xb2;" horiz-adv-x="739" 
d="M707 1049q6 18 -6.5 36.5t-36.5 18.5h-132q-18 0 -39.5 -14.5t-41.5 -32.5l-111 67q23 23 46 43.5t42 32.5q29 19 64 29t67 10h123q53 0 91.5 -28t64.5 -70q14 -23 16 -44t-4 -50l-4 -17q-6 -33 -26 -60t-47.5 -47.5t-59.5 -35t-62 -23.5l-192 -65q-11 -5 -17 -9
t-10 -8.5t-6 -10t-4 -13.5v-2h356l-26 -140h-504l28 150q14 66 58 106t110 60l183 57q5 1 17.5 7.5t25.5 15t23.5 18.5t13.5 19z" />
    <glyph glyph-name="uni00B3" unicode="&#xb3;" horiz-adv-x="823" 
d="M598 997h33.5t32.5 4t27 13.5t18 27.5q6 22 -0.5 31.5t-22.5 22.5q-3 2 -7.5 4t-12.5 2h-150q-18 0 -40 -14.5t-42 -32.5l-112 69q23 23 47 42.5t43 31.5q29 19 64 29t67 10h143q53 0 91.5 -27t66.5 -67q14 -20 14.5 -45t-4.5 -54q-5 -27 -14 -45.5t-20 -31t-23.5 -20
t-24.5 -13.5q10 -6 19.5 -13.5t15.5 -19.5t7.5 -30t-3.5 -46q-6 -29 -17.5 -56t-31.5 -50q-21 -21 -41.5 -37t-43 -27t-49 -16.5t-59.5 -5.5h-143q-32 0 -63.5 10t-53.5 29q-14 12 -30.5 31t-30.5 42l123 68q14 -19 29.5 -32t33.5 -13h158q8 0 13.5 2t10.5 4q20 11 34.5 23
t17.5 30q6 32 -14 38.5t-76 6.5h-97l25 125h92z" />
    <glyph glyph-name="acute" unicode="&#xb4;" horiz-adv-x="760" 
d="M506 1069l225 231h207l-283 -272z" />
    <glyph glyph-name="uni00B5" unicode="&#xb5;" horiz-adv-x="999" 
d="M821 162l-16 -164h-160l6 72q-18 -14 -39 -28t-44 -25.5t-46 -19t-45 -7.5h-106q-22 0 -42.5 7t-39 18t-34.5 25t-28 28l-82 -422h-157l237 1237h160l-123 -635q5 -12 20.5 -30.5t35 -36t40.5 -30t37 -12.5h94q15 1 42.5 15t57.5 33t55.5 38t35.5 29l121 629h160z" />
    <glyph glyph-name="paragraph" unicode="&#xb6;" horiz-adv-x="1079" 
d="M774 0l103 532h-76l-103 -532h-161l102 532h-195q-35 0 -70.5 10.5t-58.5 30.5q-9 8 -22.5 22.5t-27 30.5t-24.5 31.5t-16 24.5q-11 26 -14.5 55t2.5 60l33 164q6 30 20 60t37 56q8 9 24.5 24.5t36 31.5t39 30.5t31.5 22.5q32 20 71 31.5t75 11.5h596l-238 -1229h-164z
M981 1069h-76l-74 -377h76zM743 1069h-180q-6 0 -14.5 -1.5t-13.5 -4.5q-12 -6 -28.5 -18t-33 -26.5t-31 -29t-22.5 -24.5q-2 -2 -4 -8.5t-4 -14.5l-29 -151q-2 -8 -2 -16t2 -11q5 -11 13.5 -23.5t19.5 -23.5t23.5 -18t25.5 -7h205z" />
    <glyph glyph-name="periodcentered" unicode="&#xb7;" horiz-adv-x="596" 
d="M211 434l37 189h209l-37 -189h-209z" />
    <glyph glyph-name="cedilla" unicode="&#xb8;" horiz-adv-x="831" 
d="M463 -143l-187 -211h-188l229 262z" />
    <glyph glyph-name="uni00B9" unicode="&#xb9;" horiz-adv-x="700" 
d="M248 625l22 123h121l70 358h-121l25 125h253l-94 -483h117l-23 -123h-370z" />
    <glyph glyph-name="ordmasculine" unicode="&#xba;" horiz-adv-x="821" 
d="M807 811q-5 -25 -14.5 -49t-26.5 -45q-7 -6 -18.5 -16.5t-25 -22t-27 -22t-23.5 -17.5q-25 -16 -57.5 -24.5t-61.5 -8.5h-123q-29 0 -58.5 8.5t-47.5 24.5q-8 7 -17.5 17.5t-18.5 22t-16.5 22t-11.5 16.5q-11 21 -12 45t4 49l45 231q6 25 16 49t27 44q7 7 19 17.5
t25.5 22t27 22t24.5 17.5q25 16 57.5 24.5t61.5 8.5h123q29 0 58.5 -8.5t47.5 -24.5q8 -7 17 -17.5t18 -22t16 -22t11 -17.5q11 -20 11.5 -44t-5.5 -49zM668 817q2 5 2 7t2 10l39 206q3 13 0 21q-3 12 -15.5 25.5t-21.5 19.5t-17 6h-116q-9 0 -17 -4q-10 -5 -22 -13
t-23.5 -17.5t-21 -19.5t-15.5 -18q-3 -3 -4.5 -6.5t-3.5 -11.5l-39 -209q-2 -8 -1 -12.5t3 -7.5q10 -17 19.5 -27.5t23.5 -20.5q9 -6 17 -6h108q5 0 8.5 1.5l10.5 4.5q7 4 20.5 13.5t27 20t24 21t12.5 17.5z" />
    <glyph glyph-name="guillemotright" unicode="&#xbb;" horiz-adv-x="1231" 
d="M143 244l334 272l-227 272l184 52l256 -324l-381 -317zM559 244l334 272l-227 272l184 52l256 -324l-381 -317z" />
    <glyph glyph-name="onequarter" unicode="&#xbc;" horiz-adv-x="1389" 
d="M223 602l25 129h121l71 371h-121l27 131h254l-98 -502h116l-24 -129h-371zM1180 143l-27 -141h-133l27 141h-345l23 115l430 375h121l-70 -359h80l-26 -131h-80zM1104 434l-191 -160h160zM434 0h-172l907 1239h160z" />
    <glyph glyph-name="onehalf" unicode="&#xbd;" horiz-adv-x="1483" 
d="M223 604l25 129h121l71 371h-121l27 131h254l-98 -502h116l-24 -129h-371zM434 0h-172l907 1239h160zM1280 438q6 19 -6 37.5t-37 18.5h-131q-19 0 -40.5 -14.5t-41.5 -33.5l-111 68q23 23 46.5 43t41.5 33q29 18 64.5 28.5t67.5 10.5h122q53 0 91.5 -28.5t64.5 -70.5
q14 -23 16.5 -44t-4.5 -50l-4 -16q-6 -33 -26 -60t-47 -48t-59 -35.5t-62 -22.5l-193 -66q-21 -9 -26.5 -16.5t-10.5 -24.5v-2h357l-27 -139h-504l29 150q14 66 58 106t110 60l182 57q5 1 17.5 7.5t25.5 14.5t24 18t13 19z" />
    <glyph glyph-name="threequarters" unicode="&#xbe;" horiz-adv-x="1413" 
d="M1204 143l-26 -141h-134l27 141h-344l23 115l430 375h120l-69 -359h80l-27 -131h-80zM1128 434l-190 -160h160zM459 0h-172l907 1239h160zM524 997h33.5t33 4t27.5 13.5t17 27.5q6 22 -0.5 31.5t-22.5 22.5q-3 2 -7.5 4t-12.5 2h-150q-18 0 -40 -14.5t-42 -32.5l-112 69
q23 23 47 42.5t43 31.5q29 19 64 29t67 10h143q53 0 91.5 -27t66.5 -67q14 -20 14.5 -45t-4.5 -54q-5 -27 -14 -45.5t-20 -31t-23.5 -20t-24.5 -13.5q10 -6 19.5 -13.5t15.5 -19.5t8 -30t-4 -46q-6 -29 -17.5 -56t-31.5 -50q-21 -21 -41.5 -37t-43 -27t-48.5 -16.5t-59 -5.5
h-144q-32 0 -63.5 10t-52.5 29q-14 12 -31 31t-31 42l123 68q14 -19 29.5 -32t33.5 -13h158q8 0 14 2t11 4q20 11 34 23t17 30q3 16 0 25t-13.5 13.5t-29.5 5.5t-47 1h-96l24 125h92z" />
    <glyph glyph-name="questiondown" unicode="&#xbf;" horiz-adv-x="952" 
d="M143 397q7 36 24.5 67.5t42 58.5t54 48.5t60.5 36.5l149 64q25 11 44 31t22 40l30 152h168l-30 -160q-15 -68 -49.5 -110.5t-80.5 -71t-98.5 -48.5t-103.5 -42q-23 -11 -42 -33t-24 -45l-26 -135q-3 -14 0 -23q4 -11 12.5 -24t20 -25t24.5 -20t25 -8h227q14 0 22 4
q13 6 32 18t38.5 27t37.5 32.5t30 34.5q2 3 6 8q3 5 8.5 12.5t13.5 20.5l158 -47q-25 -40 -42.5 -63.5t-33.5 -40.5q-28 -29 -61 -58.5t-69.5 -53.5t-76 -39t-80.5 -15h-231q-35 0 -70.5 11.5t-58.5 31.5q-9 7 -22.5 21.5t-26.5 31t-24 31.5t-15 24q-11 26 -15 56t3 61z
M807 1229l-37 -197h-205l37 197h205z" />
    <glyph glyph-name="Agrave" unicode="&#xc0;" horiz-adv-x="1159" 
d="M0 0zM807 1327l-172 266h192l131 -225zM885 0l-39 274h-533l-147 -274h-184l665 1229h221l191 -1229h-174zM731 1057l-334 -625h426z" />
    <glyph glyph-name="Aacute" unicode="&#xc1;" horiz-adv-x="1159" 
d="M0 0zM651 1364l225 231h207l-283 -272zM885 0l-39 274h-533l-147 -274h-184l665 1229h221l191 -1229h-174zM731 1057l-334 -625h426z" />
    <glyph glyph-name="Acircumflex" unicode="&#xc2;" horiz-adv-x="1159" 
d="M0 0zM885 0l-39 274h-533l-147 -274h-184l665 1229h221l191 -1229h-174zM731 1057l-334 -625h426zM486 1352l262 243h162l168 -243h-183l-82 133l-131 -133h-196z" />
    <glyph glyph-name="Atilde" unicode="&#xc3;" horiz-adv-x="1159" 
d="M0 0zM960 1349q-9 54 -67 43l-166 -26q-42 -8 -81.5 -4t-71 20t-53.5 44t-30 67l144 28q5 -26 22.5 -37t44.5 -6l166 27q42 8 81.5 4t71 -20t53.5 -44t30 -67zM882 0l-39 274h-533l-147 -274h-184l665 1229h221l191 -1229h-174zM728 1057l-334 -625h426z" />
    <glyph glyph-name="Adieresis" unicode="&#xc4;" horiz-adv-x="1159" 
d="M0 0zM885 0l-39 274h-533l-147 -274h-184l665 1229h221l191 -1229h-174zM731 1057l-334 -625h426zM870 1391l35 182h170l-35 -182h-170zM541 1391l34 182h170l-34 -182h-170z" />
    <glyph glyph-name="Aring" unicode="&#xc5;" horiz-adv-x="1159" 
d="M0 0zM885 0l-39 274h-533l-147 -274h-184l665 1229h221l191 -1229h-174zM731 1057l-334 -625h426zM1013 1514q-9 -45 -30 -81t-52 -61.5t-71 -39t-86 -13.5q-42 0 -75 16.5t-55 43.5t-30.5 62t-1.5 73q7 43 28 79t51.5 61.5t70 39.5t83.5 14q42 0 76 -16.5t57 -43.5
t32.5 -62t2.5 -72zM913 1514q4 21 0 39.5t-15 32.5t-28.5 22t-40.5 8q-20 0 -39 -8t-34.5 -22t-26.5 -32.5t-15 -39.5q-9 -44 11 -73.5t65 -29.5q21 0 41 8t36.5 22t28.5 32.5t17 40.5z" />
    <glyph glyph-name="AE" unicode="&#xc6;" horiz-adv-x="1542" 
d="M608 0l51 272h-348l-157 -272h-199l737 1229h867l-31 -160h-543l-74 -375h510l-30 -159h-510l-72 -375h543l-31 -160h-713zM397 432h295l121 625h-43z" />
    <glyph glyph-name="Ccedilla" unicode="&#xc7;" horiz-adv-x="1108" 
d="M119 0zM584 -143l-187 -211h-188l229 262zM997 262q-15 -28 -35.5 -56.5t-41.5 -49.5q-28 -28 -60.5 -57.5t-69 -53.5t-75 -39.5t-78.5 -15.5h-270q-29 0 -60 10.5t-53 24.5q-14 9 -32 27.5t-35.5 39.5t-32 41.5t-21.5 34.5q-11 25 -12.5 53t4.5 55l131 676q9 58 51 107
q12 13 34 34t48 42.5t51 40.5t43 28q28 14 61 24.5t62 10.5h273q40 0 73 -15.5t60 -39.5t48 -53.5t36 -57.5q9 -15 18.5 -39.5t20.5 -64.5l-164 -45q-5 23 -16 46t-26 43t-31.5 36.5t-31.5 27.5q-2 0 -4 1q-2 0 -4.5 0.5t-7.5 0.5h-252q-10 0 -14 -2q-12 -5 -33.5 -20
t-44.5 -33.5t-44.5 -38.5t-33.5 -35q-2 -2 -4.5 -10.5t-4 -18.5t-3 -19t-2.5 -13l-121 -625q-2 -12 7 -29.5t22.5 -34t29 -30t25.5 -18.5q4 -2 14 -2h258q10 0 13 1q3 0 4 1q18 9 42 25.5t47.5 37.5t44.5 44.5t34 47.5z" />
    <glyph glyph-name="Egrave" unicode="&#xc8;" horiz-adv-x="1047" 
d="M84 0zM84 0l238 1229h753l-31 -160h-583l-74 -375h551l-31 -159h-551l-71 -375h583l-30 -160h-754zM719 1329l-172 266h192l131 -225z" />
    <glyph glyph-name="Eacute" unicode="&#xc9;" horiz-adv-x="1047" 
d="M84 0zM561 1362l225 231h207l-283 -272zM84 0l238 1229h753l-31 -160h-583l-74 -375h551l-31 -159h-551l-71 -375h583l-30 -160h-754z" />
    <glyph glyph-name="Ecircumflex" unicode="&#xca;" horiz-adv-x="1047" 
d="M84 0zM84 0l238 1229h753l-31 -160h-583l-74 -375h551l-31 -159h-551l-71 -375h583l-30 -160h-754zM436 1352l262 243h162l168 -243h-183l-82 133l-131 -133h-196z" />
    <glyph glyph-name="Edieresis" unicode="&#xcb;" horiz-adv-x="1047" 
d="M84 0zM790 1391l35 182h170l-35 -182h-170zM461 1391l34 182h170l-34 -182h-170zM84 0l238 1229h753l-31 -160h-583l-74 -375h551l-31 -159h-551l-71 -375h583l-30 -160h-754z" />
    <glyph glyph-name="Igrave" unicode="&#xcc;" horiz-adv-x="502" 
d="M71 0zM388 1329l-172 266h192l131 -225zM71 0l237 1229h170l-237 -1229h-170z" />
    <glyph glyph-name="Iacute" unicode="&#xcd;" horiz-adv-x="502" 
d="M71 0zM323 1364l225 231h207l-283 -272zM71 0l237 1229h170l-237 -1229h-170z" />
    <glyph glyph-name="Icircumflex" unicode="&#xce;" horiz-adv-x="502" 
d="M71 0zM118 1352l262 243h162l168 -243h-183l-82 133l-131 -133h-196zM71 0l237 1229h170l-237 -1229h-170z" />
    <glyph glyph-name="Idieresis" unicode="&#xcf;" horiz-adv-x="502" 
d="M71 0zM506 1391l35 182h170l-35 -182h-170zM177 1391l34 182h170l-34 -182h-170zM71 0l237 1229h170l-237 -1229h-170z" />
    <glyph glyph-name="Eth" unicode="&#xd0;" horiz-adv-x="1202" 
d="M1042 285q-6 -28 -17 -55t-34 -52q-11 -14 -33.5 -34.5t-48 -41.5t-50.5 -39.5t-42 -27.5q-28 -14 -61 -24.5t-62 -10.5h-565l104 543h-151l27 141h151l107 545h565q28 0 58.5 -8.5t51.5 -24.5q14 -9 31.5 -28.5t35 -41.5t31.5 -43t21 -34q13 -25 13 -52t-5 -55z
M1001 942q2 9 3.5 14.5t-0.5 10.5q-5 14 -15 29.5t-22 29t-24 23.5t-19 14q-3 2 -8 4t-11 2h-399l-76 -385h256l-27 -141h-256l-73 -383h372q11 0 19 4q13 6 38 22.5t49.5 37t44 40.5t21.5 33z" />
    <glyph glyph-name="Ntilde" unicode="&#xd1;" horiz-adv-x="1169" 
d="M73 0zM952 1349q-9 54 -67 43l-166 -26q-42 -8 -81.5 -4t-71 20t-53.5 44t-30 67l144 28q5 -26 22.5 -37t44.5 -6l166 27q42 8 81.5 4t71 -20t53.5 -44t30 -67zM767 0l-346 938l-182 -938h-166l238 1229h182l344 -948l184 948h166l-237 -1229h-183z" />
    <glyph glyph-name="Ograve" unicode="&#xd2;" horiz-adv-x="1186" 
d="M121 0zM1042 276q-6 -27 -18 -55t-35 -53q-12 -14 -34 -34.5t-47.5 -41.5t-50.5 -39.5t-42 -27.5q-28 -14 -62 -24.5t-63 -10.5h-323q-29 0 -59 10.5t-52 24.5q-14 9 -32 27.5t-36 39.5t-33 41.5t-22 34.5q-11 25 -11.5 53.5t5.5 54.5l131 674q5 26 16.5 55t32.5 54
q12 14 34.5 35t48.5 42.5t51.5 40t43.5 27.5q28 14 61 24.5t62 10.5h324q29 0 60 -10.5t52 -24.5q13 -9 31 -28t35 -40.5t31.5 -42.5t21.5 -34q13 -25 14.5 -53t-3.5 -56zM1006 958q2 7 1 12.5t-3 8.5q-8 15 -18.5 30t-21.5 28t-22 23t-20 15q-8 4 -19 4h-305q-10 0 -18 -4
q-14 -6 -39 -23t-50.5 -38t-45.5 -42t-23 -34l-129 -670q-2 -11 7 -27.5t22.5 -33t29 -30.5t25.5 -21q9 -6 20 -6h305q7 0 12.5 2t8.5 4q13 6 38 22.5t49.5 37t44 40.5t22.5 33zM789 1331l-172 266h192l131 -225z" />
    <glyph glyph-name="Oacute" unicode="&#xd3;" horiz-adv-x="1186" 
d="M121 0zM651 1366l225 231h207l-283 -272zM1042 276q-6 -27 -18 -55t-35 -53q-12 -14 -34 -34.5t-47.5 -41.5t-50.5 -39.5t-42 -27.5q-28 -14 -62 -24.5t-63 -10.5h-323q-29 0 -59 10.5t-52 24.5q-14 9 -32 27.5t-36 39.5t-33 41.5t-22 34.5q-11 25 -11.5 53.5t5.5 54.5
l131 674q5 26 16.5 55t32.5 54q12 14 34.5 35t48.5 42.5t51.5 40t43.5 27.5q28 14 61 24.5t62 10.5h324q29 0 60 -10.5t52 -24.5q13 -9 31 -28t35 -40.5t31.5 -42.5t21.5 -34q13 -25 14.5 -53t-3.5 -56zM1006 958q2 7 1 12.5t-3 8.5q-8 15 -18.5 30t-21.5 28t-22 23t-20 15
q-8 4 -19 4h-305q-10 0 -18 -4q-14 -6 -39 -23t-50.5 -38t-45.5 -42t-23 -34l-129 -670q-2 -11 7 -27.5t22.5 -33t29 -30.5t25.5 -21q9 -6 20 -6h305q7 0 12.5 2t8.5 4q13 6 38 22.5t49.5 37t44 40.5t22.5 33z" />
    <glyph glyph-name="Ocircumflex" unicode="&#xd4;" horiz-adv-x="1186" 
d="M121 0zM1042 276q-6 -27 -18 -55t-35 -53q-12 -14 -34 -34.5t-47.5 -41.5t-50.5 -39.5t-42 -27.5q-28 -14 -62 -24.5t-63 -10.5h-323q-29 0 -59 10.5t-52 24.5q-14 9 -32 27.5t-36 39.5t-33 41.5t-22 34.5q-11 25 -11.5 53.5t5.5 54.5l131 674q5 26 16.5 55t32.5 54
q12 14 34.5 35t48.5 42.5t51.5 40t43.5 27.5q28 14 61 24.5t62 10.5h324q29 0 60 -10.5t52 -24.5q13 -9 31 -28t35 -40.5t31.5 -42.5t21.5 -34q13 -25 14.5 -53t-3.5 -56zM1006 958q2 7 1 12.5t-3 8.5q-8 15 -18.5 30t-21.5 28t-22 23t-20 15q-8 4 -19 4h-305q-10 0 -18 -4
q-14 -6 -39 -23t-50.5 -38t-45.5 -42t-23 -34l-129 -670q-2 -11 7 -27.5t22.5 -33t29 -30.5t25.5 -21q9 -6 20 -6h305q7 0 12.5 2t8.5 4q13 6 38 22.5t49.5 37t44 40.5t22.5 33zM508 1354l262 243h162l168 -243h-183l-82 133l-131 -133h-196z" />
    <glyph glyph-name="Otilde" unicode="&#xd5;" horiz-adv-x="1186" 
d="M121 0zM1042 276q-6 -27 -18 -55t-35 -53q-12 -14 -34 -34.5t-47.5 -41.5t-50.5 -39.5t-42 -27.5q-28 -14 -62 -24.5t-63 -10.5h-323q-29 0 -59 10.5t-52 24.5q-14 9 -32 27.5t-36 39.5t-33 41.5t-22 34.5q-11 25 -11.5 53.5t5.5 54.5l131 674q5 26 16.5 55t32.5 54
q12 14 34.5 35t48.5 42.5t51.5 40t43.5 27.5q28 14 61 24.5t62 10.5h324q29 0 60 -10.5t52 -24.5q13 -9 31 -28t35 -40.5t31.5 -42.5t21.5 -34q13 -25 14.5 -53t-3.5 -56zM1006 958q2 7 1 12.5t-3 8.5q-8 15 -18.5 30t-21.5 28t-22 23t-20 15q-8 4 -19 4h-305q-10 0 -18 -4
q-14 -6 -39 -23t-50.5 -38t-45.5 -42t-23 -34l-129 -670q-2 -11 7 -27.5t22.5 -33t29 -30.5t25.5 -21q9 -6 20 -6h305q7 0 12.5 2t8.5 4q13 6 38 22.5t49.5 37t44 40.5t22.5 33zM978 1349q-9 54 -67 43l-166 -26q-42 -8 -81.5 -4t-71 20t-53.5 44t-30 67l144 28
q5 -26 22.5 -37t44.5 -6l166 27q42 8 81.5 4t71 -20t53.5 -44t30 -67z" />
    <glyph glyph-name="Odieresis" unicode="&#xd6;" horiz-adv-x="1186" 
d="M121 0zM1042 276q-6 -27 -18 -55t-35 -53q-12 -14 -34 -34.5t-47.5 -41.5t-50.5 -39.5t-42 -27.5q-28 -14 -62 -24.5t-63 -10.5h-323q-29 0 -59 10.5t-52 24.5q-14 9 -32 27.5t-36 39.5t-33 41.5t-22 34.5q-11 25 -11.5 53.5t5.5 54.5l131 674q5 26 16.5 55t32.5 54
q12 14 34.5 35t48.5 42.5t51.5 40t43.5 27.5q28 14 61 24.5t62 10.5h324q29 0 60 -10.5t52 -24.5q13 -9 31 -28t35 -40.5t31.5 -42.5t21.5 -34q13 -25 14.5 -53t-3.5 -56zM1006 958q2 7 1 12.5t-3 8.5q-8 15 -18.5 30t-21.5 28t-22 23t-20 15q-8 4 -19 4h-305q-10 0 -18 -4
q-14 -6 -39 -23t-50.5 -38t-45.5 -42t-23 -34l-129 -670q-2 -11 7 -27.5t22.5 -33t29 -30.5t25.5 -21q9 -6 20 -6h305q7 0 12.5 2t8.5 4q13 6 38 22.5t49.5 37t44 40.5t22.5 33zM870 1391l35 182h170l-35 -182h-170zM541 1391l34 182h170l-34 -182h-170z" />
    <glyph glyph-name="multiply" unicode="&#xd7;" 
d="M569 623l299 251l99 -106l-308 -256l209 -258l-116 -96l-209 256l-322 -267l-92 107l324 270l-207 254l119 99z" />
    <glyph glyph-name="Oslash" unicode="&#xd8;" horiz-adv-x="1206" 
d="M1063 276q-6 -27 -18 -55t-35 -53q-12 -14 -34 -34.5t-47.5 -41.5t-50.5 -39.5t-42 -27.5q-28 -14 -62 -24.5t-63 -10.5h-344q-25 0 -50 6.5t-45 17.5l-65 -90h-135l121 160q-20 23 -36 45.5t-24 38.5q-11 25 -11.5 53.5t5.5 54.5l131 674q5 26 16.5 55t32.5 54
q12 14 34.5 35t48.5 42.5t51.5 40t43.5 27.5q28 14 61 24.5t62 10.5h344q20 0 42 -5.5t42 -14.5q13 17 23.5 31.5t18.5 25.5q9 12 16 22h137l-113 -149q22 -25 40 -50t26 -40q12 -25 13.5 -53t-3.5 -56zM1026 958q2 7 1 12.5t-3 8.5l-14 22l-633 -847q5 -2 9.5 -3t10.5 -1
h326q6 0 11.5 2t8.5 4q13 6 38 22.5t50 37t44.5 40.5t21.5 33zM932 1079h-8h-326q-10 0 -18 -4q-14 -6 -39 -23t-50.5 -38t-45.5 -42t-23 -34l-129 -670q-3 -14 10 -35zM68 -76h4q-17 -20 -20.5 -24t16.5 24z" />
    <glyph glyph-name="Ugrave" unicode="&#xd9;" horiz-adv-x="1128" 
d="M121 0zM991 274q-6 -27 -17 -54t-34 -52q-12 -14 -34 -34.5t-47.5 -41.5t-50.5 -39.5t-42 -27.5q-28 -14 -61 -24.5t-62 -10.5h-274q-29 0 -60 10.5t-53 24.5q-14 9 -32 27.5t-35.5 39.5t-32 41.5t-21.5 34.5q-11 25 -12.5 52t4.5 54l184 955h168l-186 -963
q-2 -11 8 -28.5t25 -34.5t31.5 -31.5t27.5 -19.5q2 0 5 -1t9 -1h252q6 0 9.5 1t5.5 1q12 5 37.5 23.5t51.5 40.5t47 43t23 32l183 938h168zM748 1331l-172 266h192l131 -225z" />
    <glyph glyph-name="Uacute" unicode="&#xda;" horiz-adv-x="1128" 
d="M121 0zM629 1366l225 231h207l-283 -272zM991 274q-6 -27 -17 -54t-34 -52q-12 -14 -34 -34.5t-47.5 -41.5t-50.5 -39.5t-42 -27.5q-28 -14 -61 -24.5t-62 -10.5h-274q-29 0 -60 10.5t-53 24.5q-14 9 -32 27.5t-35.5 39.5t-32 41.5t-21.5 34.5q-11 25 -12.5 52t4.5 54
l184 955h168l-186 -963q-2 -11 8 -28.5t25 -34.5t31.5 -31.5t27.5 -19.5q2 0 5 -1t9 -1h252q6 0 9.5 1t5.5 1q12 5 37.5 23.5t51.5 40.5t47 43t23 32l183 938h168z" />
    <glyph glyph-name="Ucircumflex" unicode="&#xdb;" horiz-adv-x="1128" 
d="M121 0zM991 274q-6 -27 -17 -54t-34 -52q-12 -14 -34 -34.5t-47.5 -41.5t-50.5 -39.5t-42 -27.5q-28 -14 -61 -24.5t-62 -10.5h-274q-29 0 -60 10.5t-53 24.5q-14 9 -32 27.5t-35.5 39.5t-32 41.5t-21.5 34.5q-11 25 -12.5 52t4.5 54l184 955h168l-186 -963
q-2 -11 8 -28.5t25 -34.5t31.5 -31.5t27.5 -19.5q2 0 5 -1t9 -1h252q6 0 9.5 1t5.5 1q12 5 37.5 23.5t51.5 40.5t47 43t23 32l183 938h168zM475 1354l262 243h162l168 -243h-183l-82 133l-131 -133h-196z" />
    <glyph glyph-name="Udieresis" unicode="&#xdc;" horiz-adv-x="1135" 
d="M121 0zM991 274q-6 -27 -17 -54t-34 -52q-12 -14 -34 -34.5t-47.5 -41.5t-50.5 -39.5t-42 -27.5q-28 -14 -61 -24.5t-62 -10.5h-274q-29 0 -60 10.5t-53 24.5q-14 9 -32 27.5t-35.5 39.5t-32 41.5t-21.5 34.5q-11 25 -12.5 52t4.5 54l184 955h168l-186 -963
q-2 -11 8 -28.5t25 -34.5t31.5 -31.5t27.5 -19.5q2 0 5 -1t9 -1h252q6 0 9.5 1t5.5 1q12 5 37.5 23.5t51.5 40.5t47 43t23 32l183 938h168zM850 1391l35 182h170l-35 -182h-170zM521 1391l34 182h170l-34 -182h-170z" />
    <glyph glyph-name="Yacute" unicode="&#xdd;" horiz-adv-x="1040" 
d="M201 0zM586 1364l225 231h207l-283 -272zM643 522l-100 -522h-168l100 522l-274 707h174l208 -537q-1 0 16.5 22.5t47 60.5t67 86t76.5 99q92 118 211 269h193z" />
    <glyph glyph-name="Thorn" unicode="&#xde;" horiz-adv-x="1090" 
d="M1028 524q-12 -63 -57 -114q-8 -9 -25 -24.5t-36.5 -31.5t-38.5 -30.5t-31 -22.5q-32 -20 -70.5 -30.5t-73.5 -10.5h-407l-53 -260h-170l239 1227h168l-49 -250h412q35 0 70.5 -11.5t58.5 -31.5q9 -8 22 -22.5t26 -30.5t24 -31.5t16 -24.5q11 -26 14.5 -55.5t-2.5 -60.5z
M897 723q2 8 2 14v8q0 7 -8 19t-19 24t-23 20.5t-20 8.5h-432l-78 -397h390q13 0 34 11.5t42.5 27.5t40.5 32t28 25q7 7 10 23z" />
    <glyph glyph-name="germandbls" unicode="&#xdf;" horiz-adv-x="1114" 
d="M991 240q-12 -64 -59 -117q-8 -9 -21 -22t-28 -26t-31 -25t-29 -19q-32 -20 -70 -30.5t-75 -10.5h-234q-37 0 -63 9t-49 21l110 125q2 -2 10.5 -4t16.5 -2h229q14 0 32.5 10.5t36.5 25.5t34 31t24 27q3 2 5 8t6 15l16 82q3 17 -6 34t-43 19l-53 6l-31 2q-41 3 -74 18.5
t-55 41t-31.5 60t-1.5 75.5l10 49q6 32 19.5 64.5t38.5 58.5q11 12 33.5 31.5t43.5 36.5q20 15 39.5 35t28.5 34q2 2 4 6.5t4 14.5l13 65q2 9 2 13.5t-2 9.5q-3 9 -10.5 20t-16.5 21t-18 18.5t-15 13.5q-3 2 -8 3.5t-16 1.5h-111q-15 0 -42 -17.5t-55 -40.5t-52 -45.5
t-31 -32.5q-2 -2 -5 -11t-3 -15l-156 -799l-45 -129h-162l53 158l152 788q6 28 18 57t35 54q12 13 34 34.5t47.5 43.5t51 41t43.5 28q28 14 62 24.5t65 10.5h121q37 0 71.5 -10.5t59.5 -30.5q10 -8 22 -21.5t23.5 -27.5t20.5 -27.5t14 -21.5q14 -26 15 -57.5t-5 -63.5
l-12 -68q-12 -65 -57 -116q-11 -13 -32 -31t-44 -37q-17 -14 -35 -29t-31 -32q-3 -5 -5.5 -9.5t-4.5 -13.5l-10 -49q-5 -22 5.5 -34.5t39.5 -14.5l24 -6l60 -7q40 -4 74 -19.5t57 -41t32.5 -59.5t2.5 -74z" />
    <glyph glyph-name="agrave" unicode="&#xe0;" horiz-adv-x="987" 
d="M57 0zM643 0l-4 70q-18 -13 -39 -27t-44 -26t-46.5 -19.5t-44.5 -7.5h-180q-37 0 -73 10.5t-60 30.5q-9 8 -21 21t-23 26.5t-19.5 26.5t-12.5 22q-14 25 -16.5 55t3.5 62l7 39q6 32 20 62t37 54q9 9 23 22t30.5 26.5t33 26.5t30.5 22q31 20 69.5 29.5t75.5 9.5h332
l22 112q0 3 1 10.5t1 10.5q-9 21 -26 39t-37 30q-3 2 -8 4t-15 2h-194q-14 0 -29 -7.5t-29.5 -18.5t-27.5 -23t-23 -22q-5 -5 -10.5 -11t-10.5 -12q-6 -7 -11 -14l-152 47q14 22 35.5 47.5t45 49t47.5 43.5t42 32q32 20 71 29.5t76 9.5h189q37 0 73.5 -10.5t59.5 -30.5
q10 -9 22 -22t23.5 -26.5t20.5 -26.5t14 -21q14 -26 15 -57t-5 -62l-92 -475l-8 -162h-158zM690 389h-317q-10 0 -15 -1t-10 -3q-12 -6 -28 -16.5t-31.5 -23.5t-29 -26t-21.5 -24q-2 -2 -4.5 -6.5t-4.5 -14.5l-8 -38q-3 -18 0 -21q3 -9 10 -19.5t15 -20t17 -17.5t16 -13
l10 -4t14 -2h174q11 0 19 4q15 6 38 18.5t47.5 28t47.5 32.5t37 32zM590 1034l-172 266h192l131 -225z" />
    <glyph glyph-name="aacute" unicode="&#xe1;" horiz-adv-x="987" 
d="M57 0zM506 1069l225 231h207l-283 -272zM643 0l-4 70q-18 -13 -39 -27t-44 -26t-46.5 -19.5t-44.5 -7.5h-180q-37 0 -73 10.5t-60 30.5q-9 8 -21 21t-23 26.5t-19.5 26.5t-12.5 22q-14 25 -16.5 55t3.5 62l7 39q6 32 20 62t37 54q9 9 23 22t30.5 26.5t33 26.5t30.5 22
q31 20 69.5 29.5t75.5 9.5h332l22 112q0 3 1 10.5t1 10.5q-9 21 -26 39t-37 30q-3 2 -8 4t-15 2h-194q-14 0 -29 -7.5t-29.5 -18.5t-27.5 -23t-23 -22q-5 -5 -10.5 -11t-10.5 -12q-6 -7 -11 -14l-152 47q14 22 35.5 47.5t45 49t47.5 43.5t42 32q32 20 71 29.5t76 9.5h189
q37 0 73.5 -10.5t59.5 -30.5q10 -9 22 -22t23.5 -26.5t20.5 -26.5t14 -21q14 -26 15 -57t-5 -62l-92 -475l-8 -162h-158zM690 389h-317q-10 0 -15 -1t-10 -3q-12 -6 -28 -16.5t-31.5 -23.5t-29 -26t-21.5 -24q-2 -2 -4.5 -6.5t-4.5 -14.5l-8 -38q-3 -18 0 -21q3 -9 10 -19.5
t15 -20t17 -17.5t16 -13l10 -4t14 -2h174q11 0 19 4q15 6 38 18.5t47.5 28t47.5 32.5t37 32z" />
    <glyph glyph-name="acircumflex" unicode="&#xe2;" horiz-adv-x="987" 
d="M57 0zM643 0l-4 70q-18 -13 -39 -27t-44 -26t-46.5 -19.5t-44.5 -7.5h-180q-37 0 -73 10.5t-60 30.5q-9 8 -21 21t-23 26.5t-19.5 26.5t-12.5 22q-14 25 -16.5 55t3.5 62l7 39q6 32 20 62t37 54q9 9 23 22t30.5 26.5t33 26.5t30.5 22q31 20 69.5 29.5t75.5 9.5h332
l22 112q0 3 1 10.5t1 10.5q-9 21 -26 39t-37 30q-3 2 -8 4t-15 2h-194q-14 0 -29 -7.5t-29.5 -18.5t-27.5 -23t-23 -22q-5 -5 -10.5 -11t-10.5 -12q-6 -7 -11 -14l-152 47q14 22 35.5 47.5t45 49t47.5 43.5t42 32q32 20 71 29.5t76 9.5h189q37 0 73.5 -10.5t59.5 -30.5
q10 -9 22 -22t23.5 -26.5t20.5 -26.5t14 -21q14 -26 15 -57t-5 -62l-92 -475l-8 -162h-158zM690 389h-317q-10 0 -15 -1t-10 -3q-12 -6 -28 -16.5t-31.5 -23.5t-29 -26t-21.5 -24q-2 -2 -4.5 -6.5t-4.5 -14.5l-8 -38q-3 -18 0 -21q3 -9 10 -19.5t15 -20t17 -17.5t16 -13
l10 -4t14 -2h174q11 0 19 4q15 6 38 18.5t47.5 28t47.5 32.5t37 32zM332 1057l262 243h162l168 -243h-183l-82 133l-131 -133h-196z" />
    <glyph glyph-name="atilde" unicode="&#xe3;" horiz-adv-x="987" 
d="M57 0zM643 0l-4 70q-18 -13 -39 -27t-44 -26t-46.5 -19.5t-44.5 -7.5h-180q-37 0 -73 10.5t-60 30.5q-9 8 -21 21t-23 26.5t-19.5 26.5t-12.5 22q-14 25 -16.5 55t3.5 62l7 39q6 32 20 62t37 54q9 9 23 22t30.5 26.5t33 26.5t30.5 22q31 20 69.5 29.5t75.5 9.5h332
l22 112q0 3 1 10.5t1 10.5q-9 21 -26 39t-37 30q-3 2 -8 4t-15 2h-194q-14 0 -29 -7.5t-29.5 -18.5t-27.5 -23t-23 -22q-5 -5 -10.5 -11t-10.5 -12q-6 -7 -11 -14l-152 47q14 22 35.5 47.5t45 49t47.5 43.5t42 32q32 20 71 29.5t76 9.5h189q37 0 73.5 -10.5t59.5 -30.5
q10 -9 22 -22t23.5 -26.5t20.5 -26.5t14 -21q14 -26 15 -57t-5 -62l-92 -475l-8 -162h-158zM690 389h-317q-10 0 -15 -1t-10 -3q-12 -6 -28 -16.5t-31.5 -23.5t-29 -26t-21.5 -24q-2 -2 -4.5 -6.5t-4.5 -14.5l-8 -38q-3 -18 0 -21q3 -9 10 -19.5t15 -20t17 -17.5t16 -13
l10 -4t14 -2h174q11 0 19 4q15 6 38 18.5t47.5 28t47.5 32.5t37 32zM788 1083q-9 54 -67 43l-166 -26q-42 -8 -81.5 -4t-71 20t-53.5 44t-30 67l144 28q5 -26 22.5 -37t44.5 -6l166 27q42 8 81.5 4t71 -20t53.5 -44t30 -67z" />
    <glyph glyph-name="adieresis" unicode="&#xe4;" horiz-adv-x="987" 
d="M57 0zM643 0l-4 70q-18 -13 -39 -27t-44 -26t-46.5 -19.5t-44.5 -7.5h-180q-37 0 -73 10.5t-60 30.5q-9 8 -21 21t-23 26.5t-19.5 26.5t-12.5 22q-14 25 -16.5 55t3.5 62l7 39q6 32 20 62t37 54q9 9 23 22t30.5 26.5t33 26.5t30.5 22q31 20 69.5 29.5t75.5 9.5h332
l22 112q0 3 1 10.5t1 10.5q-9 21 -26 39t-37 30q-3 2 -8 4t-15 2h-194q-14 0 -29 -7.5t-29.5 -18.5t-27.5 -23t-23 -22q-5 -5 -10.5 -11t-10.5 -12q-6 -7 -11 -14l-152 47q14 22 35.5 47.5t45 49t47.5 43.5t42 32q32 20 71 29.5t76 9.5h189q37 0 73.5 -10.5t59.5 -30.5
q10 -9 22 -22t23.5 -26.5t20.5 -26.5t14 -21q14 -26 15 -57t-5 -62l-92 -475l-8 -162h-158zM690 389h-317q-10 0 -15 -1t-10 -3q-12 -6 -28 -16.5t-31.5 -23.5t-29 -26t-21.5 -24q-2 -2 -4.5 -6.5t-4.5 -14.5l-8 -38q-3 -18 0 -21q3 -9 10 -19.5t15 -20t17 -17.5t16 -13
l10 -4t14 -2h174q11 0 19 4q15 6 38 18.5t47.5 28t47.5 32.5t37 32zM698 1065l35 182h170l-35 -182h-170zM369 1065l34 182h170l-34 -182h-170z" />
    <glyph glyph-name="aring" unicode="&#xe5;" horiz-adv-x="1008" 
d="M57 0zM643 0l-4 70q-18 -13 -39 -27t-44 -26t-46.5 -19.5t-44.5 -7.5h-180q-37 0 -73 10.5t-60 30.5q-9 8 -21 21t-23 26.5t-19.5 26.5t-12.5 22q-14 25 -16.5 55t3.5 62l7 39q6 32 20 62t37 54q9 9 23 22t30.5 26.5t33 26.5t30.5 22q31 20 69.5 29.5t75.5 9.5h332
l22 112q0 3 1 10.5t1 10.5q-9 21 -26 39t-37 30q-3 2 -8 4t-15 2h-194q-14 0 -29 -7.5t-29.5 -18.5t-27.5 -23t-23 -22q-5 -5 -10.5 -11t-10.5 -12q-6 -7 -11 -14l-152 47q14 22 35.5 47.5t45 49t47.5 43.5t42 32q32 20 71 29.5t76 9.5h189q37 0 73.5 -10.5t59.5 -30.5
q10 -9 22 -22t23.5 -26.5t20.5 -26.5t14 -21q14 -26 15 -57t-5 -62l-92 -475l-8 -162h-158zM690 389h-317q-10 0 -15 -1t-10 -3q-12 -6 -28 -16.5t-31.5 -23.5t-29 -26t-21.5 -24q-2 -2 -4.5 -6.5t-4.5 -14.5l-8 -38q-3 -18 0 -21q3 -9 10 -19.5t15 -20t17 -17.5t16 -13
l10 -4t14 -2h174q11 0 19 4q15 6 38 18.5t47.5 28t47.5 32.5t37 32zM866 1227q-9 -45 -30 -81t-52 -61.5t-71 -39t-86 -13.5q-42 0 -75 16.5t-55 43.5t-30.5 62t-1.5 73q7 43 28 79t51.5 61.5t70 39.5t83.5 14q42 0 76 -16.5t57 -43.5t32.5 -62t2.5 -72zM766 1227
q4 21 0 39.5t-15 32.5t-28.5 22t-40.5 8q-20 0 -39 -8t-34.5 -22t-26.5 -32.5t-15 -39.5q-9 -44 11 -73.5t65 -29.5q21 0 41 8t36.5 22t28.5 32.5t17 40.5z" />
    <glyph glyph-name="ae" unicode="&#xe6;" horiz-adv-x="1552" 
d="M1415 201q-15 -23 -35 -47.5t-42.5 -47.5t-46.5 -42.5t-46 -32.5q-31 -20 -69.5 -30.5t-75.5 -10.5h-209q-37 0 -74 10.5t-61 30.5q-10 8 -21.5 21.5t-23.5 27.5q-15 -15 -37 -30.5t-48 -29t-56.5 -22t-63.5 -8.5h-221q-37 0 -73 10.5t-60 30.5q-9 8 -21 21t-23 26.5
t-19.5 26.5t-12.5 22q-14 25 -16.5 55t3.5 62l7 39q6 32 20 62t37 54q9 9 23 22t30.5 26.5t33 26.5t30.5 22q31 20 69.5 29.5t75.5 9.5h332l20 102q2 8 4 16.5t-2 16.5q-9 21 -25 38t-36 29q-3 2 -8 4t-15 2h-194q-14 0 -29 -7.5t-29.5 -18.5t-27.5 -23t-23 -22
q-5 -5 -10.5 -11t-10.5 -12q-6 -7 -11 -14l-152 47q14 22 35.5 47.5t45 49t47.5 43.5t42 32q32 20 71 29.5t76 9.5h189q37 0 73.5 -10.5t59.5 -30.5q9 -9 20.5 -21t22.5 -26q17 14 33 26.5t28 20.5q32 20 72.5 30.5t77.5 10.5h205q37 0 73.5 -10.5t59.5 -30.5q10 -9 22 -22
t23 -27.5t20.5 -27.5t14.5 -21q14 -26 15 -56t-5 -61l-51 -264h-592l-29 -144q0 -14 2 -16q6 -10 14.5 -23t19.5 -24t23.5 -19t24.5 -8h219q10 0 15 2l10 4q12 6 27 15.5t29 21t25.5 23.5t18.5 22l17 25zM537 143q27 13 59 35t61 51q2 2 4.5 6.5t4.5 10.5l24 143h-317
q-10 0 -15 -1t-10 -3q-12 -6 -28 -16.5t-31.5 -23.5t-29 -26t-21.5 -24q-2 -2 -4.5 -6.5t-4.5 -14.5l-8 -38q-3 -18 0 -21q3 -9 10 -19.5t15 -20t17 -17.5t16 -13l10 -4t14 -2h215q6 0 10.5 1t8.5 3zM1335 647q2 8 2 15t-2 10q-9 18 -28 37t-33 28q-3 2 -8 4t-15 2h-207
q-14 0 -34.5 -11t-40.5 -26t-37 -31.5t-25 -27.5q-2 -2 -4 -7.5t-4 -14.5l-20 -107h432z" />
    <glyph glyph-name="ccedilla" unicode="&#xe7;" horiz-adv-x="977" 
d="M94 0zM516 -143l-187 -211h-188l229 262zM848 201q-17 -26 -30.5 -43.5t-22.5 -28.5q-8 -9 -22 -22t-30.5 -27.5t-33.5 -27.5t-31 -21q-31 -20 -69.5 -30.5t-76.5 -10.5h-208q-38 0 -74.5 10.5t-61.5 30.5q-9 8 -20.5 21t-22.5 27.5t-20.5 27.5t-13.5 22q-14 26 -15.5 56
t4.5 61l76 391q6 31 19 61t36 56q8 8 22.5 21t31 27.5t33.5 27.5t30 22q32 20 72.5 30.5t77.5 10.5h202q38 0 73 -10.5t58 -30.5q15 -12 32 -32.5t31.5 -44t25.5 -48.5t16 -47l-150 -45q-5 16 -15 35t-23 35t-29.5 27t-34.5 11h-205q-9 0 -14.5 -2t-11.5 -4
q-12 -6 -28 -16.5t-32 -23.5t-30 -26t-21 -24q-2 -2 -4 -7.5t-4 -14.5l-76 -387q-3 -19 0 -25q21 -41 59 -68q5 -3 10.5 -4.5t14.5 -1.5h213q9 0 14.5 2t10.5 4q32 16 62.5 45t53.5 60z" />
    <glyph glyph-name="egrave" unicode="&#xe8;" horiz-adv-x="989" 
d="M94 0zM850 201q-15 -23 -35 -47.5t-42.5 -47.5t-46.5 -42.5t-46 -32.5q-31 -20 -69.5 -30.5t-75.5 -10.5h-209q-38 0 -74.5 10.5t-61.5 30.5q-9 8 -20.5 21t-22.5 27.5t-20.5 27.5t-13.5 22q-14 25 -16.5 55t3.5 62l76 391q6 32 20 62t37 55q8 8 22.5 21t31 27.5
t33.5 27.5t30 22q32 20 72.5 30.5t77.5 10.5h205q37 0 73.5 -10.5t59.5 -30.5q10 -9 22 -22t23 -27.5t20.5 -27.5t14.5 -21q14 -26 15 -56t-5 -61l-51 -264h-592l-27 -135q-3 -19 0 -25q5 -10 14 -23t20 -24t23.5 -19t24.5 -8h219q9 0 14.5 2t10.5 4q12 6 26.5 15.5t28.5 21
t26 23.5t19 22l16 25zM770 647q2 8 2 15t-2 10q-9 18 -28 37t-33 28q-3 2 -8.5 4t-14.5 2h-207q-15 0 -35 -11t-40.5 -26t-37.5 -31.5t-24 -27.5q-2 -2 -4 -7.5t-4 -14.5l-21 -107h432zM590 1034l-172 266h192l131 -225z" />
    <glyph glyph-name="eacute" unicode="&#xe9;" horiz-adv-x="989" 
d="M94 0zM506 1069l225 231h207l-283 -272zM850 201q-15 -23 -35 -47.5t-42.5 -47.5t-46.5 -42.5t-46 -32.5q-31 -20 -69.5 -30.5t-75.5 -10.5h-209q-38 0 -74.5 10.5t-61.5 30.5q-9 8 -20.5 21t-22.5 27.5t-20.5 27.5t-13.5 22q-14 25 -16.5 55t3.5 62l76 391q6 32 20 62
t37 55q8 8 22.5 21t31 27.5t33.5 27.5t30 22q32 20 72.5 30.5t77.5 10.5h205q37 0 73.5 -10.5t59.5 -30.5q10 -9 22 -22t23 -27.5t20.5 -27.5t14.5 -21q14 -26 15 -56t-5 -61l-51 -264h-592l-27 -135q-3 -19 0 -25q5 -10 14 -23t20 -24t23.5 -19t24.5 -8h219q9 0 14.5 2
t10.5 4q12 6 26.5 15.5t28.5 21t26 23.5t19 22l16 25zM770 647q2 8 2 15t-2 10q-9 18 -28 37t-33 28q-3 2 -8.5 4t-14.5 2h-207q-15 0 -35 -11t-40.5 -26t-37.5 -31.5t-24 -27.5q-2 -2 -4 -7.5t-4 -14.5l-21 -107h432z" />
    <glyph glyph-name="ecircumflex" unicode="&#xea;" horiz-adv-x="989" 
d="M94 0zM850 201q-15 -23 -35 -47.5t-42.5 -47.5t-46.5 -42.5t-46 -32.5q-31 -20 -69.5 -30.5t-75.5 -10.5h-209q-38 0 -74.5 10.5t-61.5 30.5q-9 8 -20.5 21t-22.5 27.5t-20.5 27.5t-13.5 22q-14 25 -16.5 55t3.5 62l76 391q6 32 20 62t37 55q8 8 22.5 21t31 27.5
t33.5 27.5t30 22q32 20 72.5 30.5t77.5 10.5h205q37 0 73.5 -10.5t59.5 -30.5q10 -9 22 -22t23 -27.5t20.5 -27.5t14.5 -21q14 -26 15 -56t-5 -61l-51 -264h-592l-27 -135q-3 -19 0 -25q5 -10 14 -23t20 -24t23.5 -19t24.5 -8h219q9 0 14.5 2t10.5 4q12 6 26.5 15.5t28.5 21
t26 23.5t19 22l16 25zM770 647q2 8 2 15t-2 10q-9 18 -28 37t-33 28q-3 2 -8.5 4t-14.5 2h-207q-15 0 -35 -11t-40.5 -26t-37.5 -31.5t-24 -27.5q-2 -2 -4 -7.5t-4 -14.5l-21 -107h432zM346 1057l262 243h162l168 -243h-183l-82 133l-131 -133h-196z" />
    <glyph glyph-name="edieresis" unicode="&#xeb;" horiz-adv-x="989" 
d="M94 0zM850 201q-15 -23 -35 -47.5t-42.5 -47.5t-46.5 -42.5t-46 -32.5q-31 -20 -69.5 -30.5t-75.5 -10.5h-209q-38 0 -74.5 10.5t-61.5 30.5q-9 8 -20.5 21t-22.5 27.5t-20.5 27.5t-13.5 22q-14 25 -16.5 55t3.5 62l76 391q6 32 20 62t37 55q8 8 22.5 21t31 27.5
t33.5 27.5t30 22q32 20 72.5 30.5t77.5 10.5h205q37 0 73.5 -10.5t59.5 -30.5q10 -9 22 -22t23 -27.5t20.5 -27.5t14.5 -21q14 -26 15 -56t-5 -61l-51 -264h-592l-27 -135q-3 -19 0 -25q5 -10 14 -23t20 -24t23.5 -19t24.5 -8h219q9 0 14.5 2t10.5 4q12 6 26.5 15.5t28.5 21
t26 23.5t19 22l16 25zM770 647q2 8 2 15t-2 10q-9 18 -28 37t-33 28q-3 2 -8.5 4t-14.5 2h-207q-15 0 -35 -11t-40.5 -26t-37.5 -31.5t-24 -27.5q-2 -2 -4 -7.5t-4 -14.5l-21 -107h432zM718 1065l35 182h170l-35 -182h-170zM389 1065l34 182h170l-34 -182h-170z" />
    <glyph glyph-name="igrave" unicode="&#xec;" horiz-adv-x="442" 
d="M72 0zM272 1034l-172 266h192l131 -225zM72 0l170 883h159l-170 -883h-159z" />
    <glyph glyph-name="iacute" unicode="&#xed;" horiz-adv-x="442" 
d="M72 0zM274 1069l225 231h207l-283 -272zM72 0l170 883h159l-170 -883h-159z" />
    <glyph glyph-name="icircumflex" unicode="&#xee;" horiz-adv-x="442" 
d="M65 0zM65 1057l262 243h162l168 -243h-183l-82 133l-131 -133h-196zM72 0l170 883h159l-170 -883h-159z" />
    <glyph glyph-name="idieresis" unicode="&#xef;" horiz-adv-x="442" 
d="M72 0zM437 1065l35 182h170l-35 -182h-170zM108 1065l34 182h170l-34 -182h-170zM72 0l170 883h159l-170 -883h-159z" />
    <glyph glyph-name="eth" unicode="&#xf0;" horiz-adv-x="991" 
d="M969 860l-117 -604q-6 -31 -21 -61t-36 -56q-9 -9 -26 -24t-36.5 -31.5t-38 -31t-30.5 -21.5q-31 -20 -70 -31.5t-74 -11.5h-194q-35 0 -69 11.5t-58 31.5q-9 7 -22 21.5t-25.5 31t-22.5 31.5t-14 24q-26 53 -13 117l72 373q6 31 21 60.5t36 55.5q9 9 25 24t35 31t37 30
t30 22q32 20 70.5 30.5t73.5 10.5h155q23 0 44 -9t39 -22.5t32.5 -30.5t24.5 -32l14 67q5 23 2.5 44.5t-25.5 35.5l-137 78l-172 -80l-41 125l74 33l-115 65l78 119l203 -112l209 98l43 -125l-115 -55l49 -27q29 -17 51.5 -37.5t37 -46t19 -55.5t-2.5 -66zM694 264l72 371
q-5 14 -18 29.5t-30 29.5t-34.5 26t-30.5 19l-6 2q-8 2 -12 2h-156q-15 0 -35.5 -11.5t-40.5 -27t-37.5 -32.5t-25.5 -29q-2 -2 -4 -7t-4 -13l-72 -381q-2 -8 -1 -12t3 -9q4 -11 12.5 -25t20 -26.5t24.5 -21.5t25 -9h201q13 0 34 12.5t42 29.5t39 34.5t26 28.5q3 5 4.5 8.5
t3.5 11.5z" />
    <glyph glyph-name="ntilde" unicode="&#xf1;" horiz-adv-x="1004" 
d="M68 0zM821 1083q-9 54 -67 43l-166 -26q-42 -8 -81.5 -4t-71 20t-53.5 44t-30 67l144 28q5 -26 22.5 -37t44.5 -6l166 27q42 8 81.5 4t71 -20t53.5 -44t30 -67zM645 0l125 647q0 3 1 11.5t1 11.5q-4 9 -11.5 19t-16 20t-17 17.5t-14.5 12.5q-5 2 -10.5 3t-14.5 1h-153
q-15 0 -42.5 -14t-56.5 -33t-54 -38t-34 -29l-121 -629h-159l139 719l10 164h160l-2 -72q18 14 40 28.5t45 26.5t46.5 19.5t44.5 7.5h154q37 0 73.5 -10.5t59.5 -30.5q10 -9 22 -22t23 -27.5t20.5 -27.5t14.5 -21q14 -26 15 -56t-5 -61l-123 -637h-160z" />
    <glyph glyph-name="ograve" unicode="&#xf2;" horiz-adv-x="991" 
d="M94 0zM850 246q-6 -31 -19 -61t-36 -56q-8 -9 -22.5 -22t-31 -27.5t-34 -27.5t-31.5 -21q-31 -20 -70.5 -30.5t-77.5 -10.5h-204q-38 0 -74.5 10.5t-61.5 30.5q-9 8 -20.5 21t-22.5 27.5t-20.5 27.5t-13.5 22q-14 26 -15.5 56t4.5 61l76 391q6 31 19 61t36 56
q8 8 22.5 21t31 27.5t33.5 27.5t30 22q32 20 72.5 30.5t77.5 10.5h204q38 0 74.5 -10.5t59.5 -30.5q10 -9 21.5 -22t23 -27.5t20.5 -27.5t14 -21q14 -26 15.5 -56t-4.5 -61zM686 238q3 6 3.5 8l2.5 10l76 391q0 3 1.5 11t-1.5 14q-20 40 -61 65q-4 2 -9 4t-14 2h-205
q-9 0 -14.5 -2t-11.5 -4q-12 -6 -28 -17t-32 -24t-30 -26.5t-21 -24.5q-5 -5 -8 -22l-76 -385q-3 -18 0 -23q11 -20 27 -38.5t34 -31.5q5 -3 10.5 -4.5t14.5 -1.5h205q9 0 14 2l10 4q9 5 26.5 17t35 26t32 27.5t19.5 22.5zM643 1034l-172 266h192l131 -225z" />
    <glyph glyph-name="oacute" unicode="&#xf3;" horiz-adv-x="991" 
d="M94 0zM501 1069l225 231h207l-283 -272zM850 246q-6 -31 -19 -61t-36 -56q-8 -9 -22.5 -22t-31 -27.5t-34 -27.5t-31.5 -21q-31 -20 -70.5 -30.5t-77.5 -10.5h-204q-38 0 -74.5 10.5t-61.5 30.5q-9 8 -20.5 21t-22.5 27.5t-20.5 27.5t-13.5 22q-14 26 -15.5 56t4.5 61
l76 391q6 31 19 61t36 56q8 8 22.5 21t31 27.5t33.5 27.5t30 22q32 20 72.5 30.5t77.5 10.5h204q38 0 74.5 -10.5t59.5 -30.5q10 -9 21.5 -22t23 -27.5t20.5 -27.5t14 -21q14 -26 15.5 -56t-4.5 -61zM686 238q3 6 3.5 8l2.5 10l76 391q0 3 1.5 11t-1.5 14q-20 40 -61 65
q-4 2 -9 4t-14 2h-205q-9 0 -14.5 -2t-11.5 -4q-12 -6 -28 -17t-32 -24t-30 -26.5t-21 -24.5q-5 -5 -8 -22l-76 -385q-3 -18 0 -23q11 -20 27 -38.5t34 -31.5q5 -3 10.5 -4.5t14.5 -1.5h205q9 0 14 2l10 4q9 5 26.5 17t35 26t32 27.5t19.5 22.5z" />
    <glyph glyph-name="ocircumflex" unicode="&#xf4;" horiz-adv-x="991" 
d="M94 0zM850 246q-6 -31 -19 -61t-36 -56q-8 -9 -22.5 -22t-31 -27.5t-34 -27.5t-31.5 -21q-31 -20 -70.5 -30.5t-77.5 -10.5h-204q-38 0 -74.5 10.5t-61.5 30.5q-9 8 -20.5 21t-22.5 27.5t-20.5 27.5t-13.5 22q-14 26 -15.5 56t4.5 61l76 391q6 31 19 61t36 56
q8 8 22.5 21t31 27.5t33.5 27.5t30 22q32 20 72.5 30.5t77.5 10.5h204q38 0 74.5 -10.5t59.5 -30.5q10 -9 21.5 -22t23 -27.5t20.5 -27.5t14 -21q14 -26 15.5 -56t-4.5 -61zM686 238q3 6 3.5 8l2.5 10l76 391q0 3 1.5 11t-1.5 14q-20 40 -61 65q-4 2 -9 4t-14 2h-205
q-9 0 -14.5 -2t-11.5 -4q-12 -6 -28 -17t-32 -24t-30 -26.5t-21 -24.5q-5 -5 -8 -22l-76 -385q-3 -18 0 -23q11 -20 27 -38.5t34 -31.5q5 -3 10.5 -4.5t14.5 -1.5h205q9 0 14 2l10 4q9 5 26.5 17t35 26t32 27.5t19.5 22.5zM334 1057l262 243h162l168 -243h-183l-82 133
l-131 -133h-196z" />
    <glyph glyph-name="otilde" unicode="&#xf5;" horiz-adv-x="991" 
d="M94 0zM813 1083q-9 54 -67 43l-166 -26q-42 -8 -81.5 -4t-71 20t-53.5 44t-30 67l144 28q5 -26 22.5 -37t44.5 -6l166 27q42 8 81.5 4t71 -20t53.5 -44t30 -67zM850 246q-6 -31 -19 -61t-36 -56q-8 -9 -22.5 -22t-31 -27.5t-34 -27.5t-31.5 -21q-31 -20 -70.5 -30.5
t-77.5 -10.5h-204q-38 0 -74.5 10.5t-61.5 30.5q-9 8 -20.5 21t-22.5 27.5t-20.5 27.5t-13.5 22q-14 26 -15.5 56t4.5 61l76 391q6 31 19 61t36 56q8 8 22.5 21t31 27.5t33.5 27.5t30 22q32 20 72.5 30.5t77.5 10.5h204q38 0 74.5 -10.5t59.5 -30.5q10 -9 21.5 -22t23 -27.5
t20.5 -27.5t14 -21q14 -26 15.5 -56t-4.5 -61zM686 238q3 6 3.5 8l2.5 10l76 391q0 3 1.5 11t-1.5 14q-20 40 -61 65q-4 2 -9 4t-14 2h-205q-9 0 -14.5 -2t-11.5 -4q-12 -6 -28 -17t-32 -24t-30 -26.5t-21 -24.5q-5 -5 -8 -22l-76 -385q-3 -18 0 -23q11 -20 27 -38.5
t34 -31.5q5 -3 10.5 -4.5t14.5 -1.5h205q9 0 14 2l10 4q9 5 26.5 17t35 26t32 27.5t19.5 22.5z" />
    <glyph glyph-name="odieresis" unicode="&#xf6;" horiz-adv-x="991" 
d="M94 0zM850 246q-6 -31 -19 -61t-36 -56q-8 -9 -22.5 -22t-31 -27.5t-34 -27.5t-31.5 -21q-31 -20 -70.5 -30.5t-77.5 -10.5h-204q-38 0 -74.5 10.5t-61.5 30.5q-9 8 -20.5 21t-22.5 27.5t-20.5 27.5t-13.5 22q-14 26 -15.5 56t4.5 61l76 391q6 31 19 61t36 56
q8 8 22.5 21t31 27.5t33.5 27.5t30 22q32 20 72.5 30.5t77.5 10.5h204q38 0 74.5 -10.5t59.5 -30.5q10 -9 21.5 -22t23 -27.5t20.5 -27.5t14 -21q14 -26 15.5 -56t-4.5 -61zM686 238q3 6 3.5 8l2.5 10l76 391q0 3 1.5 11t-1.5 14q-20 40 -61 65q-4 2 -9 4t-14 2h-205
q-9 0 -14.5 -2t-11.5 -4q-12 -6 -28 -17t-32 -24t-30 -26.5t-21 -24.5q-5 -5 -8 -22l-76 -385q-3 -18 0 -23q11 -20 27 -38.5t34 -31.5q5 -3 10.5 -4.5t14.5 -1.5h205q9 0 14 2l10 4q9 5 26.5 17t35 26t32 27.5t19.5 22.5zM714 1065l35 182h170l-35 -182h-170zM385 1065
l34 182h170l-34 -182h-170z" />
    <glyph glyph-name="divide" unicode="&#xf7;" horiz-adv-x="952" 
d="M137 434l29 150h715l-29 -150h-715zM440 674l43 217h209l-43 -217h-209zM334 125l43 217h209l-43 -217h-209z" />
    <glyph glyph-name="oslash" unicode="&#xf8;" horiz-adv-x="1012" 
d="M870 246q-6 -31 -19 -61t-36 -56q-8 -9 -22 -22t-31 -27.5t-34.5 -27.5t-31.5 -21q-31 -20 -70.5 -30.5t-76.5 -10.5h-225q-17 0 -35 1.5t-33 6.5q-27 -35 -42 -54q-9 -11 -15 -20h-138l101 133q-16 19 -30.5 39.5t-20.5 32.5q-14 26 -15.5 56t4.5 61l76 391q6 31 19 61
t36 56q8 8 22.5 21t31 27.5t33.5 27.5t30 22q32 20 72.5 30.5t77.5 10.5h225q15 0 30.5 -1.5t30.5 -6.5l52 67h137q-11 -15 -25 -34q-12 -17 -29.5 -39.5t-37.5 -51.5q17 -18 32 -39.5t23 -33.5q14 -26 15 -56t-5 -61zM707 238q3 6 3.5 8l2.5 10l75 391q0 3 2 11t-2 14
l-12 18q-48 -64 -102 -135.5t-108 -144t-106.5 -142t-97.5 -129.5h207q10 0 15 2l10 4q9 5 26 17t34.5 26t32.5 27.5t20 22.5zM266 199l412 544h-199q-9 0 -14.5 -2t-11.5 -4q-12 -6 -28 -17t-32 -24t-30 -26.5t-21 -24.5q-5 -5 -8 -22l-76 -385q-3 -18 0 -23z" />
    <glyph glyph-name="ugrave" unicode="&#xf9;" horiz-adv-x="999" 
d="M94 0zM651 0v72q-18 -14 -39 -28t-44 -25.5t-46 -19t-45 -7.5h-153q-38 0 -74.5 10.5t-59.5 30.5q-10 8 -22 21.5t-23 27.5t-20.5 27.5t-13.5 21.5q-14 26 -15.5 56t4.5 61l123 635h160l-125 -645q-2 -8 -1 -14t3 -11q6 -19 24.5 -38.5t30.5 -29.5q5 -3 10.5 -3.5
t14.5 -0.5h152q14 0 41.5 13.5t56.5 32t54.5 37t35.5 28.5l121 631h160l-140 -719l-10 -164h-160zM590 1034l-172 266h192l131 -225z" />
    <glyph glyph-name="uacute" unicode="&#xfa;" horiz-adv-x="999" 
d="M94 0zM506 1069l225 231h207l-283 -272zM651 0v72q-18 -14 -39 -28t-44 -25.5t-46 -19t-45 -7.5h-153q-38 0 -74.5 10.5t-59.5 30.5q-10 8 -22 21.5t-23 27.5t-20.5 27.5t-13.5 21.5q-14 26 -15.5 56t4.5 61l123 635h160l-125 -645q-2 -8 -1 -14t3 -11q6 -19 24.5 -38.5
t30.5 -29.5q5 -3 10.5 -3.5t14.5 -0.5h152q14 0 41.5 13.5t56.5 32t54.5 37t35.5 28.5l121 631h160l-140 -719l-10 -164h-160z" />
    <glyph glyph-name="ucircumflex" unicode="&#xfb;" horiz-adv-x="999" 
d="M94 0zM651 0v72q-18 -14 -39 -28t-44 -25.5t-46 -19t-45 -7.5h-153q-38 0 -74.5 10.5t-59.5 30.5q-10 8 -22 21.5t-23 27.5t-20.5 27.5t-13.5 21.5q-14 26 -15.5 56t4.5 61l123 635h160l-125 -645q-2 -8 -1 -14t3 -11q6 -19 24.5 -38.5t30.5 -29.5q5 -3 10.5 -3.5
t14.5 -0.5h152q14 0 41.5 13.5t56.5 32t54.5 37t35.5 28.5l121 631h160l-140 -719l-10 -164h-160zM338 1057l262 243h162l168 -243h-183l-82 133l-131 -133h-196z" />
    <glyph glyph-name="udieresis" unicode="&#xfc;" horiz-adv-x="999" 
d="M94 0zM651 0v72q-18 -14 -39 -28t-44 -25.5t-46 -19t-45 -7.5h-153q-38 0 -74.5 10.5t-59.5 30.5q-10 8 -22 21.5t-23 27.5t-20.5 27.5t-13.5 21.5q-14 26 -15.5 56t4.5 61l123 635h160l-125 -645q-2 -8 -1 -14t3 -11q6 -19 24.5 -38.5t30.5 -29.5q5 -3 10.5 -3.5
t14.5 -0.5h152q14 0 41.5 13.5t56.5 32t54.5 37t35.5 28.5l121 631h160l-140 -719l-10 -164h-160zM698 1065l35 182h170l-35 -182h-170zM369 1065l34 182h170l-34 -182h-170z" />
    <glyph glyph-name="yacute" unicode="&#xfd;" horiz-adv-x="881" 
d="M113 0zM476 1069l225 231h207l-283 -272zM276 -354h-163l188 354h-27l-133 883h164l98 -686l363 686h174z" />
    <glyph glyph-name="thorn" unicode="&#xfe;" horiz-adv-x="1010" 
d="M862 250q-6 -32 -20 -63t-37 -56q-8 -8 -22.5 -21.5t-31 -28.5t-34 -28.5t-31.5 -21.5q-31 -20 -69.5 -30.5t-75.5 -10.5h-160q-21 0 -41.5 7t-39 18t-34.5 25t-28 28l-82 -422h-158l305 1583h160l-70 -359l-18 -63q18 15 40 30t45.5 27.5t47.5 20.5t47 8h160
q37 0 72.5 -11.5t58.5 -31.5q10 -9 22 -22t23 -27.5t20.5 -27.5t14.5 -21q14 -26 16 -56.5t-4 -62.5zM778 641q2 9 2 13.5t-2 9.5q-8 21 -24.5 41t-36.5 32q-3 2 -8 4t-15 2h-155q-15 0 -43.5 -15t-58.5 -34.5t-55.5 -40t-35.5 -30.5l-4 -21l-68 -350q6 -12 21.5 -31t35 -37
t40.5 -31.5t37 -13.5h151q9 0 14.5 1t10.5 3q12 6 28 18.5t32.5 26.5t30 28.5t21.5 25.5q3 5 5 9t6 13z" />
    <glyph glyph-name="ydieresis" unicode="&#xff;" horiz-adv-x="881" 
d="M113 0zM276 -354h-163l188 354h-27l-133 883h164l98 -686l363 686h174zM658 1065l35 182h170l-35 -182h-170zM329 1065l34 182h170l-34 -182h-170z" />
    <glyph glyph-name="Amacron" unicode="&#x100;" horiz-adv-x="1159" 
d="M0 0zM885 0l-39 274h-533l-147 -274h-184l665 1229h221l191 -1229h-174zM731 1057l-334 -625h426zM581 1374l29 148h414l-29 -148h-414z" />
    <glyph glyph-name="amacron" unicode="&#x101;" horiz-adv-x="987" 
d="M57 0zM643 0l-4 70q-18 -13 -39 -27t-44 -26t-46.5 -19.5t-44.5 -7.5h-180q-37 0 -73 10.5t-60 30.5q-9 8 -21 21t-23 26.5t-19.5 26.5t-12.5 22q-14 25 -16.5 55t3.5 62l7 39q6 32 20 62t37 54q9 9 23 22t30.5 26.5t33 26.5t30.5 22q31 20 69.5 29.5t75.5 9.5h332
l22 112q0 3 1 10.5t1 10.5q-9 21 -26 39t-37 30q-3 2 -8 4t-15 2h-194q-14 0 -29 -7.5t-29.5 -18.5t-27.5 -23t-23 -22q-5 -5 -10.5 -11t-10.5 -12q-6 -7 -11 -14l-152 47q14 22 35.5 47.5t45 49t47.5 43.5t42 32q32 20 71 29.5t76 9.5h189q37 0 73.5 -10.5t59.5 -30.5
q10 -9 22 -22t23.5 -26.5t20.5 -26.5t14 -21q14 -26 15 -57t-5 -62l-92 -475l-8 -162h-158zM690 389h-317q-10 0 -15 -1t-10 -3q-12 -6 -28 -16.5t-31.5 -23.5t-29 -26t-21.5 -24q-2 -2 -4.5 -6.5t-4.5 -14.5l-8 -38q-3 -18 0 -21q3 -9 10 -19.5t15 -20t17 -17.5t16 -13
l10 -4t14 -2h174q11 0 19 4q15 6 38 18.5t47.5 28t47.5 32.5t37 32zM405 1079l29 148h414l-29 -148h-414z" />
    <glyph glyph-name="Abreve" unicode="&#x102;" horiz-adv-x="1159" 
d="M0 0zM885 0l-39 274h-533l-147 -274h-184l665 1229h221l191 -1229h-174zM731 1057l-334 -625h426zM1026 1536q-8 -42 -29.5 -78t-53.5 -61.5t-71.5 -40t-82.5 -14.5q-42 0 -75.5 14.5t-54.5 40t-29.5 61.5t-0.5 78h92q-4 -21 0.5 -39.5t15 -32t26.5 -21t36 -7.5
q21 0 41 7.5t37 21t29 32t16 39.5h104z" />
    <glyph glyph-name="abreve" unicode="&#x103;" horiz-adv-x="987" 
d="M57 0zM643 0l-4 70q-18 -13 -39 -27t-44 -26t-46.5 -19.5t-44.5 -7.5h-180q-37 0 -73 10.5t-60 30.5q-9 8 -21 21t-23 26.5t-19.5 26.5t-12.5 22q-14 25 -16.5 55t3.5 62l7 39q6 32 20 62t37 54q9 9 23 22t30.5 26.5t33 26.5t30.5 22q31 20 69.5 29.5t75.5 9.5h332
l22 112q0 3 1 10.5t1 10.5q-9 21 -26 39t-37 30q-3 2 -8 4t-15 2h-194q-14 0 -29 -7.5t-29.5 -18.5t-27.5 -23t-23 -22q-5 -5 -10.5 -11t-10.5 -12q-6 -7 -11 -14l-152 47q14 22 35.5 47.5t45 49t47.5 43.5t42 32q32 20 71 29.5t76 9.5h189q37 0 73.5 -10.5t59.5 -30.5
q10 -9 22 -22t23.5 -26.5t20.5 -26.5t14 -21q14 -26 15 -57t-5 -62l-92 -475l-8 -162h-158zM690 389h-317q-10 0 -15 -1t-10 -3q-12 -6 -28 -16.5t-31.5 -23.5t-29 -26t-21.5 -24q-2 -2 -4.5 -6.5t-4.5 -14.5l-8 -38q-3 -18 0 -21q3 -9 10 -19.5t15 -20t17 -17.5t16 -13
l10 -4t14 -2h174q11 0 19 4q15 6 38 18.5t47.5 28t47.5 32.5t37 32zM870 1241q-8 -42 -29.5 -78t-53.5 -61.5t-71.5 -40t-82.5 -14.5q-42 0 -75.5 14.5t-54.5 40t-29.5 61.5t-0.5 78h92q-4 -21 0.5 -39.5t15 -32t26.5 -21t36 -7.5q21 0 41 7.5t37 21t29 32t16 39.5h104z" />
    <glyph glyph-name="Aogonek" unicode="&#x104;" horiz-adv-x="1155" 
d="M0 0zM885 0l-39 274h-533l-147 -274h-184l665 1229h221l191 -1229h-174zM731 1057l-334 -625h426zM936 -92l127 -262h-166l-105 211z" />
    <glyph glyph-name="aogonek" unicode="&#x105;" horiz-adv-x="987" 
d="M57 0zM643 0l-4 70q-18 -13 -39 -27t-44 -26t-46.5 -19.5t-44.5 -7.5h-180q-37 0 -73 10.5t-60 30.5q-9 8 -21 21t-23 26.5t-19.5 26.5t-12.5 22q-14 25 -16.5 55t3.5 62l7 39q6 32 20 62t37 54q9 9 23 22t30.5 26.5t33 26.5t30.5 22q31 20 69.5 29.5t75.5 9.5h332
l22 112q0 3 1 10.5t1 10.5q-9 21 -26 39t-37 30q-3 2 -8 4t-15 2h-194q-14 0 -29 -7.5t-29.5 -18.5t-27.5 -23t-23 -22q-5 -5 -10.5 -11t-10.5 -12q-6 -7 -11 -14l-152 47q14 22 35.5 47.5t45 49t47.5 43.5t42 32q32 20 71 29.5t76 9.5h189q37 0 73.5 -10.5t59.5 -30.5
q10 -9 22 -22t23.5 -26.5t20.5 -26.5t14 -21q14 -26 15 -57t-5 -62l-92 -475l-8 -162h-158zM690 389h-317q-10 0 -15 -1t-10 -3q-12 -6 -28 -16.5t-31.5 -23.5t-29 -26t-21.5 -24q-2 -2 -4.5 -6.5t-4.5 -14.5l-8 -38q-3 -18 0 -21q3 -9 10 -19.5t15 -20t17 -17.5t16 -13
l10 -4t14 -2h174q11 0 19 4q15 6 38 18.5t47.5 28t47.5 32.5t37 32zM686 -92l127 -262h-166l-105 211z" />
    <glyph glyph-name="Cacute" unicode="&#x106;" horiz-adv-x="1108" 
d="M119 0zM639 1364l225 231h207l-283 -272zM997 262q-15 -28 -35.5 -56.5t-41.5 -49.5q-28 -28 -60.5 -57.5t-69 -53.5t-75 -39.5t-78.5 -15.5h-270q-29 0 -60 10.5t-53 24.5q-14 9 -32 27.5t-35.5 39.5t-32 41.5t-21.5 34.5q-11 25 -12.5 53t4.5 55l131 676q9 58 51 107
q12 13 34 34t48 42.5t51 40.5t43 28q28 14 61 24.5t62 10.5h273q40 0 73 -15.5t60 -39.5t48 -53.5t36 -57.5q9 -15 18.5 -39.5t20.5 -64.5l-164 -45q-5 23 -16 46t-26 43t-31.5 36.5t-31.5 27.5q-2 0 -4 1q-2 0 -4.5 0.5t-7.5 0.5h-252q-10 0 -14 -2q-12 -5 -33.5 -20
t-44.5 -33.5t-44.5 -38.5t-33.5 -35q-2 -2 -4.5 -10.5t-4 -18.5t-3 -19t-2.5 -13l-121 -625q-2 -12 7 -29.5t22.5 -34t29 -30t25.5 -18.5q4 -2 14 -2h258q10 0 13 1q3 0 4 1q18 9 42 25.5t47.5 37.5t44.5 44.5t34 47.5z" />
    <glyph glyph-name="cacute" unicode="&#x107;" horiz-adv-x="977" 
d="M94 0zM506 1069l225 231h207l-283 -272zM848 201q-17 -26 -30.5 -43.5t-22.5 -28.5q-8 -9 -22 -22t-30.5 -27.5t-33.5 -27.5t-31 -21q-31 -20 -69.5 -30.5t-76.5 -10.5h-208q-38 0 -74.5 10.5t-61.5 30.5q-9 8 -20.5 21t-22.5 27.5t-20.5 27.5t-13.5 22q-14 26 -15.5 56
t4.5 61l76 391q6 31 19 61t36 56q8 8 22.5 21t31 27.5t33.5 27.5t30 22q32 20 72.5 30.5t77.5 10.5h202q38 0 73 -10.5t58 -30.5q15 -12 32 -32.5t31.5 -44t25.5 -48.5t16 -47l-150 -45q-5 16 -15 35t-23 35t-29.5 27t-34.5 11h-205q-9 0 -14.5 -2t-11.5 -4
q-12 -6 -28 -16.5t-32 -23.5t-30 -26t-21 -24q-2 -2 -4 -7.5t-4 -14.5l-76 -387q-3 -19 0 -25q21 -41 59 -68q5 -3 10.5 -4.5t14.5 -1.5h213q9 0 14.5 2t10.5 4q32 16 62.5 45t53.5 60z" />
    <glyph glyph-name="Ccircumflex" unicode="&#x108;" horiz-adv-x="1108" 
d="M119 0zM997 262q-15 -28 -35.5 -56.5t-41.5 -49.5q-28 -28 -60.5 -57.5t-69 -53.5t-75 -39.5t-78.5 -15.5h-270q-29 0 -60 10.5t-53 24.5q-14 9 -32 27.5t-35.5 39.5t-32 41.5t-21.5 34.5q-11 25 -12.5 53t4.5 55l131 676q9 58 51 107q12 13 34 34t48 42.5t51 40.5t43 28
q28 14 61 24.5t62 10.5h273q40 0 73 -15.5t60 -39.5t48 -53.5t36 -57.5q9 -15 18.5 -39.5t20.5 -64.5l-164 -45q-5 23 -16 46t-26 43t-31.5 36.5t-31.5 27.5q-2 0 -4 1q-2 0 -4.5 0.5t-7.5 0.5h-252q-10 0 -14 -2q-12 -5 -33.5 -20t-44.5 -33.5t-44.5 -38.5t-33.5 -35
q-2 -2 -4.5 -10.5t-4 -18.5t-3 -19t-2.5 -13l-121 -625q-2 -12 7 -29.5t22.5 -34t29 -30t25.5 -18.5q4 -2 14 -2h258q10 0 13 1q3 0 4 1q18 9 42 25.5t47.5 37.5t44.5 44.5t34 47.5zM473 1352l262 243h162l168 -243h-183l-82 133l-131 -133h-196z" />
    <glyph glyph-name="ccircumflex" unicode="&#x109;" horiz-adv-x="977" 
d="M94 0zM848 201q-17 -26 -30.5 -43.5t-22.5 -28.5q-8 -9 -22 -22t-30.5 -27.5t-33.5 -27.5t-31 -21q-31 -20 -69.5 -30.5t-76.5 -10.5h-208q-38 0 -74.5 10.5t-61.5 30.5q-9 8 -20.5 21t-22.5 27.5t-20.5 27.5t-13.5 22q-14 26 -15.5 56t4.5 61l76 391q6 31 19 61t36 56
q8 8 22.5 21t31 27.5t33.5 27.5t30 22q32 20 72.5 30.5t77.5 10.5h202q38 0 73 -10.5t58 -30.5q15 -12 32 -32.5t31.5 -44t25.5 -48.5t16 -47l-150 -45q-5 16 -15 35t-23 35t-29.5 27t-34.5 11h-205q-9 0 -14.5 -2t-11.5 -4q-12 -6 -28 -16.5t-32 -23.5t-30 -26t-21 -24
q-2 -2 -4 -7.5t-4 -14.5l-76 -387q-3 -19 0 -25q21 -41 59 -68q5 -3 10.5 -4.5t14.5 -1.5h213q9 0 14.5 2t10.5 4q32 16 62.5 45t53.5 60zM332 1057l262 243h162l168 -243h-183l-82 133l-131 -133h-196z" />
    <glyph glyph-name="Cdotaccent" unicode="&#x10a;" horiz-adv-x="1108" 
d="M119 0zM997 262q-15 -28 -35.5 -56.5t-41.5 -49.5q-28 -28 -60.5 -57.5t-69 -53.5t-75 -39.5t-78.5 -15.5h-270q-29 0 -60 10.5t-53 24.5q-14 9 -32 27.5t-35.5 39.5t-32 41.5t-21.5 34.5q-11 25 -12.5 53t4.5 55l131 676q9 58 51 107q12 13 34 34t48 42.5t51 40.5t43 28
q28 14 61 24.5t62 10.5h273q40 0 73 -15.5t60 -39.5t48 -53.5t36 -57.5q9 -15 18.5 -39.5t20.5 -64.5l-164 -45q-5 23 -16 46t-26 43t-31.5 36.5t-31.5 27.5q-2 0 -4 1q-2 0 -4.5 0.5t-7.5 0.5h-252q-10 0 -14 -2q-12 -5 -33.5 -20t-44.5 -33.5t-44.5 -38.5t-33.5 -35
q-2 -2 -4.5 -10.5t-4 -18.5t-3 -19t-2.5 -13l-121 -625q-2 -12 7 -29.5t22.5 -34t29 -30t25.5 -18.5q4 -2 14 -2h258q10 0 13 1q3 0 4 1q18 9 42 25.5t47.5 37.5t44.5 44.5t34 47.5zM680 1360l35 182h184l-34 -182h-185z" />
    <glyph glyph-name="cdotaccent" unicode="&#x10b;" horiz-adv-x="977" 
d="M94 0zM848 201q-17 -26 -30.5 -43.5t-22.5 -28.5q-8 -9 -22 -22t-30.5 -27.5t-33.5 -27.5t-31 -21q-31 -20 -69.5 -30.5t-76.5 -10.5h-208q-38 0 -74.5 10.5t-61.5 30.5q-9 8 -20.5 21t-22.5 27.5t-20.5 27.5t-13.5 22q-14 26 -15.5 56t4.5 61l76 391q6 31 19 61t36 56
q8 8 22.5 21t31 27.5t33.5 27.5t30 22q32 20 72.5 30.5t77.5 10.5h202q38 0 73 -10.5t58 -30.5q15 -12 32 -32.5t31.5 -44t25.5 -48.5t16 -47l-150 -45q-5 16 -15 35t-23 35t-29.5 27t-34.5 11h-205q-9 0 -14.5 -2t-11.5 -4q-12 -6 -28 -16.5t-32 -23.5t-30 -26t-21 -24
q-2 -2 -4 -7.5t-4 -14.5l-76 -387q-3 -19 0 -25q21 -41 59 -68q5 -3 10.5 -4.5t14.5 -1.5h213q9 0 14.5 2t10.5 4q32 16 62.5 45t53.5 60zM549 1065l35 182h184l-34 -182h-185z" />
    <glyph glyph-name="Ccaron" unicode="&#x10c;" horiz-adv-x="1108" 
d="M119 0zM997 262q-15 -28 -35.5 -56.5t-41.5 -49.5q-28 -28 -60.5 -57.5t-69 -53.5t-75 -39.5t-78.5 -15.5h-270q-29 0 -60 10.5t-53 24.5q-14 9 -32 27.5t-35.5 39.5t-32 41.5t-21.5 34.5q-11 25 -12.5 53t4.5 55l131 676q9 58 51 107q12 13 34 34t48 42.5t51 40.5t43 28
q28 14 61 24.5t62 10.5h273q40 0 73 -15.5t60 -39.5t48 -53.5t36 -57.5q9 -15 18.5 -39.5t20.5 -64.5l-164 -45q-5 23 -16 46t-26 43t-31.5 36.5t-31.5 27.5q-2 0 -4 1q-2 0 -4.5 0.5t-7.5 0.5h-252q-10 0 -14 -2q-12 -5 -33.5 -20t-44.5 -33.5t-44.5 -38.5t-33.5 -35
q-2 -2 -4.5 -10.5t-4 -18.5t-3 -19t-2.5 -13l-121 -625q-2 -12 7 -29.5t22.5 -34t29 -30t25.5 -18.5q4 -2 14 -2h258q10 0 13 1q3 0 4 1q18 9 42 25.5t47.5 37.5t44.5 44.5t34 47.5zM1114 1595l-263 -243h-163l-168 243h178l80 -133l133 133h203z" />
    <glyph glyph-name="ccaron" unicode="&#x10d;" horiz-adv-x="977" 
d="M94 0zM995 1300l-263 -243h-163l-168 243h178l80 -133l133 133h203zM848 201q-17 -26 -30.5 -43.5t-22.5 -28.5q-8 -9 -22 -22t-30.5 -27.5t-33.5 -27.5t-31 -21q-31 -20 -69.5 -30.5t-76.5 -10.5h-208q-38 0 -74.5 10.5t-61.5 30.5q-9 8 -20.5 21t-22.5 27.5t-20.5 27.5
t-13.5 22q-14 26 -15.5 56t4.5 61l76 391q6 31 19 61t36 56q8 8 22.5 21t31 27.5t33.5 27.5t30 22q32 20 72.5 30.5t77.5 10.5h202q38 0 73 -10.5t58 -30.5q15 -12 32 -32.5t31.5 -44t25.5 -48.5t16 -47l-150 -45q-5 16 -15 35t-23 35t-29.5 27t-34.5 11h-205q-9 0 -14.5 -2
t-11.5 -4q-12 -6 -28 -16.5t-32 -23.5t-30 -26t-21 -24q-2 -2 -4 -7.5t-4 -14.5l-76 -387q-3 -19 0 -25q21 -41 59 -68q5 -3 10.5 -4.5t14.5 -1.5h213q9 0 14.5 2t10.5 4q32 16 62.5 45t53.5 60z" />
    <glyph glyph-name="Dcaron" unicode="&#x10e;" horiz-adv-x="1153" 
d="M84 0zM1078 1595l-263 -243h-163l-168 243h178l80 -133l133 133h203zM997 285q-6 -28 -17 -55t-34 -52q-12 -14 -34 -34.5t-47.5 -41.5t-50.5 -39.5t-42 -27.5q-28 -14 -61 -24.5t-62 -10.5h-565l238 1229h565q28 0 58.5 -8.5t51.5 -24.5q14 -9 31.5 -28.5t35 -41.5
t31.5 -43t21 -34q13 -25 13 -52t-5 -55zM956 942q2 9 3 14.5t-1 10.5q-5 14 -15 29.5t-21.5 29t-23.5 23.5t-19 14q-4 2 -8.5 4t-10.5 2h-399l-176 -909h372q11 0 19 4q13 6 38 22.5t49.5 37t44 40.5t21.5 33z" />
    <glyph glyph-name="dcaron" unicode="&#x10f;" horiz-adv-x="1137" 
d="M1300 946h-157l45 148l43 221h155l-47 -248zM662 0l2 76q-19 -15 -41 -30t-45 -27.5t-47.5 -20.5t-47.5 -8h-159q-38 0 -73 11.5t-58 31.5q-10 8 -22 21.5t-23.5 27.5t-21 27.5t-13.5 21.5q-14 26 -16.5 56.5t3.5 62.5l76 383q6 32 20 63t37 56q8 8 22.5 21.5t31 28
t33.5 28t30 22.5q32 20 71.5 30.5t76.5 10.5h159q22 0 42 -7.5t38 -19.5t33.5 -26.5t28.5 -28.5l82 418h159l-206 -1065l-13 -164h-159zM766 637q-5 12 -20.5 30t-35 35t-40.5 29t-37 12h-154q-9 0 -14 -1t-10 -3q-12 -6 -28.5 -17.5t-33 -25.5t-31 -28t-22.5 -25
q-2 -2 -4 -7.5t-4 -14.5l-72 -381q-3 -19 0 -25q9 -19 25 -39.5t28 -30.5q9 -6 25 -6h164q15 0 43.5 15t58 35.5t55 41t35.5 31.5z" />
    <glyph glyph-name="Dcroat" unicode="&#x110;" horiz-adv-x="1202" 
d="M82 0zM1042 285q-6 -28 -17 -55t-34 -52q-11 -14 -33.5 -34.5t-48 -41.5t-50.5 -39.5t-42 -27.5q-28 -14 -61 -24.5t-62 -10.5h-565l104 543h-151l27 141h151l107 545h565q28 0 58.5 -8.5t51.5 -24.5q14 -9 31.5 -28.5t35 -41.5t31.5 -43t21 -34q13 -25 13 -52t-5 -55z
M1001 942q2 9 3.5 14.5t-0.5 10.5q-5 14 -15 29.5t-22 29t-24 23.5t-19 14q-3 2 -8 4t-11 2h-399l-76 -385h256l-27 -141h-256l-73 -383h372q11 0 19 4q13 6 38 22.5t49.5 37t44 40.5t21.5 33z" />
    <glyph glyph-name="dcroat" unicode="&#x111;" horiz-adv-x="1010" 
d="M662 0l2 76q-19 -15 -41 -30t-45 -27.5t-47.5 -20.5t-47.5 -8h-159q-38 0 -73 11.5t-58 31.5q-10 8 -22 21.5t-23.5 27.5t-21 27.5t-13.5 21.5q-14 26 -16.5 56.5t3.5 62.5l76 383q6 32 20 63t37 56q8 8 22.5 21.5t31 28t33.5 28t30 22.5q32 20 71.5 30.5t76.5 10.5h159
q22 0 42 -7.5t38 -19.5t33.5 -26.5t28.5 -28.5l35 176h-283l29 150h282l19 92h159l-18 -92h76l-29 -150h-76l-159 -823l-13 -164h-159zM766 637q-5 12 -20.5 30t-35 35t-40.5 29t-37 12h-154q-9 0 -14 -1t-10 -3q-12 -6 -28.5 -17.5t-33 -25.5t-31 -28t-22.5 -25
q-2 -2 -4 -7.5t-4 -14.5l-72 -381q-3 -19 0 -25q9 -19 25 -39.5t28 -30.5q9 -6 25 -6h164q15 0 43.5 15t58 35.5t55 41t35.5 31.5z" />
    <glyph glyph-name="Emacron" unicode="&#x112;" horiz-adv-x="1047" 
d="M84 0zM84 0l238 1229h753l-31 -160h-583l-74 -375h551l-31 -159h-551l-71 -375h583l-30 -160h-754zM516 1374l29 148h414l-29 -148h-414z" />
    <glyph glyph-name="emacron" unicode="&#x113;" horiz-adv-x="989" 
d="M94 0zM850 201q-15 -23 -35 -47.5t-42.5 -47.5t-46.5 -42.5t-46 -32.5q-31 -20 -69.5 -30.5t-75.5 -10.5h-209q-38 0 -74.5 10.5t-61.5 30.5q-9 8 -20.5 21t-22.5 27.5t-20.5 27.5t-13.5 22q-14 25 -16.5 55t3.5 62l76 391q6 32 20 62t37 55q8 8 22.5 21t31 27.5
t33.5 27.5t30 22q32 20 72.5 30.5t77.5 10.5h205q37 0 73.5 -10.5t59.5 -30.5q10 -9 22 -22t23 -27.5t20.5 -27.5t14.5 -21q14 -26 15 -56t-5 -61l-51 -264h-592l-27 -135q-3 -19 0 -25q5 -10 14 -23t20 -24t23.5 -19t24.5 -8h219q9 0 14.5 2t10.5 4q12 6 26.5 15.5t28.5 21
t26 23.5t19 22l16 25zM770 647q2 8 2 15t-2 10q-9 18 -28 37t-33 28q-3 2 -8.5 4t-14.5 2h-207q-15 0 -35 -11t-40.5 -26t-37.5 -31.5t-24 -27.5q-2 -2 -4 -7.5t-4 -14.5l-21 -107h432zM438 1079l29 148h414l-29 -148h-414z" />
    <glyph glyph-name="Ebreve" unicode="&#x114;" horiz-adv-x="1047" 
d="M84 0zM84 0l238 1229h753l-31 -160h-583l-74 -375h551l-31 -159h-551l-71 -375h583l-30 -160h-754zM970 1536q-8 -42 -29.5 -78t-53.5 -61.5t-71.5 -40t-82.5 -14.5q-42 0 -75.5 14.5t-54.5 40t-29.5 61.5t-0.5 78h92q-4 -21 0.5 -39.5t15 -32t26.5 -21t36 -7.5
q21 0 41 7.5t37 21t29 32t16 39.5h104z" />
    <glyph glyph-name="ebreve" unicode="&#x115;" horiz-adv-x="989" 
d="M94 0zM850 201q-15 -23 -35 -47.5t-42.5 -47.5t-46.5 -42.5t-46 -32.5q-31 -20 -69.5 -30.5t-75.5 -10.5h-209q-38 0 -74.5 10.5t-61.5 30.5q-9 8 -20.5 21t-22.5 27.5t-20.5 27.5t-13.5 22q-14 25 -16.5 55t3.5 62l76 391q6 32 20 62t37 55q8 8 22.5 21t31 27.5
t33.5 27.5t30 22q32 20 72.5 30.5t77.5 10.5h205q37 0 73.5 -10.5t59.5 -30.5q10 -9 22 -22t23 -27.5t20.5 -27.5t14.5 -21q14 -26 15 -56t-5 -61l-51 -264h-592l-27 -135q-3 -19 0 -25q5 -10 14 -23t20 -24t23.5 -19t24.5 -8h219q9 0 14.5 2t10.5 4q12 6 26.5 15.5t28.5 21
t26 23.5t19 22l16 25zM770 647q2 8 2 15t-2 10q-9 18 -28 37t-33 28q-3 2 -8.5 4t-14.5 2h-207q-15 0 -35 -11t-40.5 -26t-37.5 -31.5t-24 -27.5q-2 -2 -4 -7.5t-4 -14.5l-21 -107h432zM870 1241q-8 -42 -29.5 -78t-53.5 -61.5t-71.5 -40t-82.5 -14.5q-42 0 -75.5 14.5
t-54.5 40t-29.5 61.5t-0.5 78h92q-4 -21 0.5 -39.5t15 -32t26.5 -21t36 -7.5q21 0 41 7.5t37 21t29 32t16 39.5h104z" />
    <glyph glyph-name="Edotaccent" unicode="&#x116;" horiz-adv-x="1047" 
d="M84 0zM84 0l238 1229h753l-31 -160h-583l-74 -375h551l-31 -159h-551l-71 -375h583l-30 -160h-754zM651 1360l35 182h184l-34 -182h-185z" />
    <glyph glyph-name="edotaccent" unicode="&#x117;" horiz-adv-x="989" 
d="M94 0zM850 201q-15 -23 -35 -47.5t-42.5 -47.5t-46.5 -42.5t-46 -32.5q-31 -20 -69.5 -30.5t-75.5 -10.5h-209q-38 0 -74.5 10.5t-61.5 30.5q-9 8 -20.5 21t-22.5 27.5t-20.5 27.5t-13.5 22q-14 25 -16.5 55t3.5 62l76 391q6 32 20 62t37 55q8 8 22.5 21t31 27.5
t33.5 27.5t30 22q32 20 72.5 30.5t77.5 10.5h205q37 0 73.5 -10.5t59.5 -30.5q10 -9 22 -22t23 -27.5t20.5 -27.5t14.5 -21q14 -26 15 -56t-5 -61l-51 -264h-592l-27 -135q-3 -19 0 -25q5 -10 14 -23t20 -24t23.5 -19t24.5 -8h219q9 0 14.5 2t10.5 4q12 6 26.5 15.5t28.5 21
t26 23.5t19 22l16 25zM770 647q2 8 2 15t-2 10q-9 18 -28 37t-33 28q-3 2 -8.5 4t-14.5 2h-207q-15 0 -35 -11t-40.5 -26t-37.5 -31.5t-24 -27.5q-2 -2 -4 -7.5t-4 -14.5l-21 -107h432zM551 1065l35 182h184l-34 -182h-185z" />
    <glyph glyph-name="Eogonek" unicode="&#x118;" horiz-adv-x="1047" 
d="M84 0zM84 0l238 1229h753l-31 -160h-583l-74 -375h551l-31 -159h-551l-71 -375h583l-30 -160h-754zM756 -92l127 -262h-166l-105 211z" />
    <glyph glyph-name="eogonek" unicode="&#x119;" horiz-adv-x="989" 
d="M94 0zM850 201q-15 -23 -35 -47.5t-42.5 -47.5t-46.5 -42.5t-46 -32.5q-31 -20 -69.5 -30.5t-75.5 -10.5h-209q-38 0 -74.5 10.5t-61.5 30.5q-9 8 -20.5 21t-22.5 27.5t-20.5 27.5t-13.5 22q-14 25 -16.5 55t3.5 62l76 391q6 32 20 62t37 55q8 8 22.5 21t31 27.5
t33.5 27.5t30 22q32 20 72.5 30.5t77.5 10.5h205q37 0 73.5 -10.5t59.5 -30.5q10 -9 22 -22t23 -27.5t20.5 -27.5t14.5 -21q14 -26 15 -56t-5 -61l-51 -264h-592l-27 -135q-3 -19 0 -25q5 -10 14 -23t20 -24t23.5 -19t24.5 -8h219q9 0 14.5 2t10.5 4q12 6 26.5 15.5t28.5 21
t26 23.5t19 22l16 25zM770 647q2 8 2 15t-2 10q-9 18 -28 37t-33 28q-3 2 -8.5 4t-14.5 2h-207q-15 0 -35 -11t-40.5 -26t-37.5 -31.5t-24 -27.5q-2 -2 -4 -7.5t-4 -14.5l-21 -107h432zM417 -92l127 -262h-166l-105 211z" />
    <glyph glyph-name="Ecaron" unicode="&#x11a;" horiz-adv-x="1047" 
d="M84 0zM1078 1595l-263 -243h-163l-168 243h178l80 -133l133 133h203zM84 0l238 1229h753l-31 -160h-583l-74 -375h551l-31 -159h-551l-71 -375h583l-30 -160h-754z" />
    <glyph glyph-name="ecaron" unicode="&#x11b;" horiz-adv-x="989" 
d="M94 0zM1008 1300l-263 -243h-163l-168 243h178l80 -133l133 133h203zM850 201q-15 -23 -35 -47.5t-42.5 -47.5t-46.5 -42.5t-46 -32.5q-31 -20 -69.5 -30.5t-75.5 -10.5h-209q-38 0 -74.5 10.5t-61.5 30.5q-9 8 -20.5 21t-22.5 27.5t-20.5 27.5t-13.5 22q-14 25 -16.5 55
t3.5 62l76 391q6 32 20 62t37 55q8 8 22.5 21t31 27.5t33.5 27.5t30 22q32 20 72.5 30.5t77.5 10.5h205q37 0 73.5 -10.5t59.5 -30.5q10 -9 22 -22t23 -27.5t20.5 -27.5t14.5 -21q14 -26 15 -56t-5 -61l-51 -264h-592l-27 -135q-3 -19 0 -25q5 -10 14 -23t20 -24t23.5 -19
t24.5 -8h219q9 0 14.5 2t10.5 4q12 6 26.5 15.5t28.5 21t26 23.5t19 22l16 25zM770 647q2 8 2 15t-2 10q-9 18 -28 37t-33 28q-3 2 -8.5 4t-14.5 2h-207q-15 0 -35 -11t-40.5 -26t-37.5 -31.5t-24 -27.5q-2 -2 -4 -7.5t-4 -14.5l-21 -107h432z" />
    <glyph glyph-name="Gcircumflex" unicode="&#x11c;" horiz-adv-x="1212" 
d="M119 0zM508 1352l262 243h162l168 -243h-183l-82 133l-131 -133h-196zM858 0l-8 72q-18 -13 -37 -27.5t-39 -26.5t-43 -20t-49 -8h-315q-29 0 -60 10.5t-53 24.5q-14 9 -32 27.5t-35.5 39.5t-32 41.5t-21.5 34.5q-11 25 -12.5 53t4.5 55l131 674q5 28 17.5 56t33.5 53
q12 13 34 34t48 42.5t51 40.5t43 28q28 14 62 24.5t63 10.5h316q41 0 75 -15.5t61 -39.5t48 -54t37 -59q9 -15 17.5 -38.5t19.5 -63.5l-160 -45q-1 4 -3 10t-4 13q-3 7 -5 16q-6 17 -18 34.5t-25.5 33.5t-27.5 28t-24 18q-2 0 -5 1q-2 0 -5 0.5t-6 0.5h-301q-10 0 -18 -4
q-12 -5 -32.5 -18.5t-42.5 -31t-42.5 -36t-32.5 -33.5q-2 -2 -4 -6t-4 -12l-131 -668q-2 -13 7.5 -30.5t24 -35t30.5 -32t28 -20.5q4 -2 18 -2h293q6 0 9.5 1t5.5 1q13 6 38.5 23.5t51.5 39t47 42.5t24 34l50 248h-281l31 159h448l-80 -411q-12 -59 -12 -132t-2 -155h-164z
" />
    <glyph glyph-name="gcircumflex" unicode="&#x11d;" horiz-adv-x="1034" 
d="M29 0zM334 1057l262 243h162l168 -243h-183l-82 133l-131 -133h-196zM950 717l-157 -811q-8 -32 -20.5 -62.5t-37.5 -56.5q-8 -9 -22 -22t-31 -27.5t-34 -27.5t-30 -21q-32 -20 -73 -31.5t-76 -11.5h-205q-35 0 -71.5 11.5t-59.5 31.5q-15 12 -31.5 31.5t-31 43t-26 49
t-15.5 48.5l151 49q5 -15 14.5 -35t22.5 -38t29 -30t33 -12h204q10 0 15.5 2t11.5 4q9 5 28 18t38.5 28t35 30.5t17.5 24.5q2 3 2 7t2 9l31 150q-19 -14 -40 -28t-43.5 -25t-45 -18t-43.5 -7h-168q-36 0 -73.5 10.5t-62.5 30.5q-9 8 -20.5 21.5t-22.5 28.5t-20.5 28.5
t-13.5 21.5q-14 26 -15.5 56.5t4.5 62.5l76 383q6 32 19 62.5t36 56.5q8 8 22.5 21.5t31 28t33.5 28t30 22.5q32 20 73.5 30.5t76.5 10.5h168q23 0 44 -8t40 -20.5t35.5 -27.5t29.5 -30l23 76h159zM774 631q-7 10 -22.5 29t-34.5 37.5t-39.5 32t-36.5 13.5h-162
q-9 0 -14.5 -2t-11.5 -4q-12 -6 -28 -17.5t-32.5 -25.5t-31.5 -28t-23 -25q-2 -2 -4 -7.5t-4 -15.5l-72 -374q-2 -6 -2 -14t2 -11q11 -22 27 -42.5t34 -33.5q5 -3 10.5 -3.5t14.5 -0.5h162q14 0 18 2q18 9 43 23.5t50.5 31.5t48 34.5t36.5 31.5z" />
    <glyph glyph-name="Gbreve" unicode="&#x11e;" horiz-adv-x="1212" 
d="M119 0zM1040 1536q-8 -42 -29.5 -78t-53.5 -61.5t-71.5 -40t-82.5 -14.5q-42 0 -75.5 14.5t-54.5 40t-29.5 61.5t-0.5 78h92q-4 -21 0.5 -39.5t15 -32t26.5 -21t36 -7.5q21 0 41 7.5t37 21t29 32t16 39.5h104zM858 0l-8 72q-18 -13 -37 -27.5t-39 -26.5t-43 -20t-49 -8
h-315q-29 0 -60 10.5t-53 24.5q-14 9 -32 27.5t-35.5 39.5t-32 41.5t-21.5 34.5q-11 25 -12.5 53t4.5 55l131 674q5 28 17.5 56t33.5 53q12 13 34 34t48 42.5t51 40.5t43 28q28 14 62 24.5t63 10.5h316q41 0 75 -15.5t61 -39.5t48 -54t37 -59q9 -15 17.5 -38.5t19.5 -63.5
l-160 -45q-1 4 -3 10t-4 13q-3 7 -5 16q-6 17 -18 34.5t-25.5 33.5t-27.5 28t-24 18q-2 0 -5 1q-2 0 -5 0.5t-6 0.5h-301q-10 0 -18 -4q-12 -5 -32.5 -18.5t-42.5 -31t-42.5 -36t-32.5 -33.5q-2 -2 -4 -6t-4 -12l-131 -668q-2 -13 7.5 -30.5t24 -35t30.5 -32t28 -20.5
q4 -2 18 -2h293q6 0 9.5 1t5.5 1q13 6 38.5 23.5t51.5 39t47 42.5t24 34l50 248h-281l31 159h448l-80 -411q-12 -59 -12 -132t-2 -155h-164z" />
    <glyph glyph-name="gbreve" unicode="&#x11f;" horiz-adv-x="1034" 
d="M29 0zM874 1241q-8 -42 -29.5 -78t-53.5 -61.5t-71.5 -40t-82.5 -14.5q-42 0 -75.5 14.5t-54.5 40t-29.5 61.5t-0.5 78h92q-4 -21 0.5 -39.5t15 -32t26.5 -21t36 -7.5q21 0 41 7.5t37 21t29 32t16 39.5h104zM950 717l-157 -811q-8 -32 -20.5 -62.5t-37.5 -56.5
q-8 -9 -22 -22t-31 -27.5t-34 -27.5t-30 -21q-32 -20 -73 -31.5t-76 -11.5h-205q-35 0 -71.5 11.5t-59.5 31.5q-15 12 -31.5 31.5t-31 43t-26 49t-15.5 48.5l151 49q5 -15 14.5 -35t22.5 -38t29 -30t33 -12h204q10 0 15.5 2t11.5 4q9 5 28 18t38.5 28t35 30.5t17.5 24.5
q2 3 2 7t2 9l31 150q-19 -14 -40 -28t-43.5 -25t-45 -18t-43.5 -7h-168q-36 0 -73.5 10.5t-62.5 30.5q-9 8 -20.5 21.5t-22.5 28.5t-20.5 28.5t-13.5 21.5q-14 26 -15.5 56.5t4.5 62.5l76 383q6 32 19 62.5t36 56.5q8 8 22.5 21.5t31 28t33.5 28t30 22.5q32 20 73.5 30.5
t76.5 10.5h168q23 0 44 -8t40 -20.5t35.5 -27.5t29.5 -30l23 76h159zM774 631q-7 10 -22.5 29t-34.5 37.5t-39.5 32t-36.5 13.5h-162q-9 0 -14.5 -2t-11.5 -4q-12 -6 -28 -17.5t-32.5 -25.5t-31.5 -28t-23 -25q-2 -2 -4 -7.5t-4 -15.5l-72 -374q-2 -6 -2 -14t2 -11
q11 -22 27 -42.5t34 -33.5q5 -3 10.5 -3.5t14.5 -0.5h162q14 0 18 2q18 9 43 23.5t50.5 31.5t48 34.5t36.5 31.5z" />
    <glyph glyph-name="Gdotaccent" unicode="&#x120;" horiz-adv-x="1212" 
d="M119 0zM704 1360l35 182h184l-34 -182h-185zM858 0l-8 72q-18 -13 -37 -27.5t-39 -26.5t-43 -20t-49 -8h-315q-29 0 -60 10.5t-53 24.5q-14 9 -32 27.5t-35.5 39.5t-32 41.5t-21.5 34.5q-11 25 -12.5 53t4.5 55l131 674q5 28 17.5 56t33.5 53q12 13 34 34t48 42.5
t51 40.5t43 28q28 14 62 24.5t63 10.5h316q41 0 75 -15.5t61 -39.5t48 -54t37 -59q9 -15 17.5 -38.5t19.5 -63.5l-160 -45q-1 4 -3 10t-4 13q-3 7 -5 16q-6 17 -18 34.5t-25.5 33.5t-27.5 28t-24 18q-2 0 -5 1q-2 0 -5 0.5t-6 0.5h-301q-10 0 -18 -4q-12 -5 -32.5 -18.5
t-42.5 -31t-42.5 -36t-32.5 -33.5q-2 -2 -4 -6t-4 -12l-131 -668q-2 -13 7.5 -30.5t24 -35t30.5 -32t28 -20.5q4 -2 18 -2h293q6 0 9.5 1t5.5 1q13 6 38.5 23.5t51.5 39t47 42.5t24 34l50 248h-281l31 159h448l-80 -411q-12 -59 -12 -132t-2 -155h-164z" />
    <glyph glyph-name="gdotaccent" unicode="&#x121;" horiz-adv-x="1034" 
d="M29 0zM540 1065l35 182h184l-34 -182h-185zM950 717l-157 -811q-8 -32 -20.5 -62.5t-37.5 -56.5q-8 -9 -22 -22t-31 -27.5t-34 -27.5t-30 -21q-32 -20 -73 -31.5t-76 -11.5h-205q-35 0 -71.5 11.5t-59.5 31.5q-15 12 -31.5 31.5t-31 43t-26 49t-15.5 48.5l151 49
q5 -15 14.5 -35t22.5 -38t29 -30t33 -12h204q10 0 15.5 2t11.5 4q9 5 28 18t38.5 28t35 30.5t17.5 24.5q2 3 2 7t2 9l31 150q-19 -14 -40 -28t-43.5 -25t-45 -18t-43.5 -7h-168q-36 0 -73.5 10.5t-62.5 30.5q-9 8 -20.5 21.5t-22.5 28.5t-20.5 28.5t-13.5 21.5
q-14 26 -15.5 56.5t4.5 62.5l76 383q6 32 19 62.5t36 56.5q8 8 22.5 21.5t31 28t33.5 28t30 22.5q32 20 73.5 30.5t76.5 10.5h168q23 0 44 -8t40 -20.5t35.5 -27.5t29.5 -30l23 76h159zM774 631q-7 10 -22.5 29t-34.5 37.5t-39.5 32t-36.5 13.5h-162q-9 0 -14.5 -2t-11.5 -4
q-12 -6 -28 -17.5t-32.5 -25.5t-31.5 -28t-23 -25q-2 -2 -4 -7.5t-4 -15.5l-72 -374q-2 -6 -2 -14t2 -11q11 -22 27 -42.5t34 -33.5q5 -3 10.5 -3.5t14.5 -0.5h162q14 0 18 2q18 9 43 23.5t50.5 31.5t48 34.5t36.5 31.5z" />
    <glyph glyph-name="Gcommaaccent" unicode="&#x122;" horiz-adv-x="1212" 
d="M119 0zM645 -143l-187 -211h-188l229 262zM858 0l-8 72q-18 -13 -37 -27.5t-39 -26.5t-43 -20t-49 -8h-315q-29 0 -60 10.5t-53 24.5q-14 9 -32 27.5t-35.5 39.5t-32 41.5t-21.5 34.5q-11 25 -12.5 53t4.5 55l131 674q5 28 17.5 56t33.5 53q12 13 34 34t48 42.5t51 40.5
t43 28q28 14 62 24.5t63 10.5h316q41 0 75 -15.5t61 -39.5t48 -54t37 -59q9 -15 17.5 -38.5t19.5 -63.5l-160 -45q-1 4 -3 10t-4 13q-3 7 -5 16q-6 17 -18 34.5t-25.5 33.5t-27.5 28t-24 18q-2 0 -5 1q-2 0 -5 0.5t-6 0.5h-301q-10 0 -18 -4q-12 -5 -32.5 -18.5t-42.5 -31
t-42.5 -36t-32.5 -33.5q-2 -2 -4 -6t-4 -12l-131 -668q-2 -13 7.5 -30.5t24 -35t30.5 -32t28 -20.5q4 -2 18 -2h293q6 0 9.5 1t5.5 1q13 6 38.5 23.5t51.5 39t47 42.5t24 34l50 248h-281l31 159h448l-80 -411q-12 -59 -12 -132t-2 -155h-164z" />
    <glyph glyph-name="gcommaaccent" unicode="&#x123;" horiz-adv-x="1034" 
d="M29 0zM514 1069l225 231h207l-283 -272zM950 717l-157 -811q-8 -32 -20.5 -62.5t-37.5 -56.5q-8 -9 -22 -22t-31 -27.5t-34 -27.5t-30 -21q-32 -20 -73 -31.5t-76 -11.5h-205q-35 0 -71.5 11.5t-59.5 31.5q-15 12 -31.5 31.5t-31 43t-26 49t-15.5 48.5l151 49
q5 -15 14.5 -35t22.5 -38t29 -30t33 -12h204q10 0 15.5 2t11.5 4q9 5 28 18t38.5 28t35 30.5t17.5 24.5q2 3 2 7t2 9l31 150q-19 -14 -40 -28t-43.5 -25t-45 -18t-43.5 -7h-168q-36 0 -73.5 10.5t-62.5 30.5q-9 8 -20.5 21.5t-22.5 28.5t-20.5 28.5t-13.5 21.5
q-14 26 -15.5 56.5t4.5 62.5l76 383q6 32 19 62.5t36 56.5q8 8 22.5 21.5t31 28t33.5 28t30 22.5q32 20 73.5 30.5t76.5 10.5h168q23 0 44 -8t40 -20.5t35.5 -27.5t29.5 -30l23 76h159zM774 631q-7 10 -22.5 29t-34.5 37.5t-39.5 32t-36.5 13.5h-162q-9 0 -14.5 -2t-11.5 -4
q-12 -6 -28 -17.5t-32.5 -25.5t-31.5 -28t-23 -25q-2 -2 -4 -7.5t-4 -15.5l-72 -374q-2 -6 -2 -14t2 -11q11 -22 27 -42.5t34 -33.5q5 -3 10.5 -3.5t14.5 -0.5h162q14 0 18 2q18 9 43 23.5t50.5 31.5t48 34.5t36.5 31.5z" />
    <glyph glyph-name="Hcircumflex" unicode="&#x124;" horiz-adv-x="1157" 
d="M73 0zM465 1352l262 243h162l168 -243h-183l-82 133l-131 -133h-196zM767 0l103 535h-525l-102 -535h-170l238 1229h170l-105 -535h524l105 535h170l-238 -1229h-170z" />
    <glyph glyph-name="hcircumflex" unicode="&#x125;" horiz-adv-x="981" 
d="M51 0zM400 1352l262 243h162l168 -243h-183l-82 133l-131 -133h-196zM623 0l122 641q4 16 0 23q-9 20 -24 43t-35 32q-8 4 -24 4h-138q-17 0 -45.5 -15.5t-58.5 -36.5t-55 -42t-35 -33l-5 -26t-13.5 -69.5t-19.5 -98.5t-22 -113q-26 -136 -59 -309h-160l238 1229h160
l-80 -416q18 14 38.5 28t43 25.5t45.5 19t45 7.5h141q35 0 71.5 -11.5t59.5 -31.5q10 -9 22 -22.5t23.5 -28t20.5 -28t14 -21.5q24 -53 12 -117l-123 -633h-159z" />
    <glyph glyph-name="Hbar" unicode="&#x126;" horiz-adv-x="1184" 
d="M778 0l103 535h-525l-102 -535h-170l190 987h-88l29 150h88l19 92h170l-19 -92h524l19 92h170l-19 -92h88l-28 -150h-88l-191 -987h-170zM911 694l58 293h-525l-57 -293h524z" />
    <glyph glyph-name="hbar" unicode="&#x127;" horiz-adv-x="981" 
d="M623 0l122 641q4 16 0 23q-9 20 -24 43t-35 32q-8 4 -24 4h-138q-17 0 -45.5 -15.5t-58.5 -36.5t-55 -42t-35 -33l-5 -26t-13.5 -69.5t-19.5 -98.5t-22 -113q-26 -136 -59 -309h-160l191 987h-68l29 150h67l19 92h160l-19 -92h291l-29 -150h-291l-32 -174q18 14 38.5 28
t43 25.5t45.5 19t45 7.5h141q35 0 71.5 -11.5t59.5 -31.5q10 -9 22 -22.5t23.5 -28t20.5 -28t14 -21.5q24 -53 12 -117l-123 -633h-159z" />
    <glyph glyph-name="Itilde" unicode="&#x128;" horiz-adv-x="457" 
d="M71 0zM594 1349q-9 54 -67 43l-166 -26q-42 -8 -81.5 -4t-71 20t-53.5 44t-30 67l144 28q5 -26 22.5 -37t44.5 -6l166 27q42 8 81.5 4t71 -20t53.5 -44t30 -67zM71 0l237 1229h170l-237 -1229h-170z" />
    <glyph glyph-name="itilde" unicode="&#x129;" horiz-adv-x="432" 
d="M70 0zM539 1083q-9 54 -67 43l-166 -26q-42 -8 -81.5 -4t-71 20t-53.5 44t-30 67l144 28q5 -26 22.5 -37t44.5 -6l166 27q42 8 81.5 4t71 -20t53.5 -44t30 -67zM72 0l170 883h159l-170 -883h-159z" />
    <glyph glyph-name="Imacron" unicode="&#x12a;" horiz-adv-x="457" 
d="M71 0zM71 0l237 1229h170l-237 -1229h-170zM207 1374l29 148h414l-29 -148h-414z" />
    <glyph glyph-name="imacron" unicode="&#x12b;" horiz-adv-x="432" 
d="M72 0zM72 0l170 883h159l-170 -883h-159zM152 1079l29 148h414l-29 -148h-414z" />
    <glyph glyph-name="Ibreve" unicode="&#x12c;" horiz-adv-x="457" 
d="M71 0zM71 0l237 1229h170l-237 -1229h-170zM652 1536q-8 -42 -29.5 -78t-53.5 -61.5t-71.5 -40t-82.5 -14.5q-42 0 -75.5 14.5t-54.5 40t-29.5 61.5t-0.5 78h92q-4 -21 0.5 -39.5t15 -32t26.5 -21t36 -7.5q21 0 41 7.5t37 21t29 32t16 39.5h104z" />
    <glyph glyph-name="ibreve" unicode="&#x12d;" horiz-adv-x="432" 
d="M72 0zM72 0l170 883h159l-170 -883h-159zM595 1241q-8 -42 -29.5 -78t-53.5 -61.5t-71.5 -40t-82.5 -14.5q-42 0 -75.5 14.5t-54.5 40t-29.5 61.5t-0.5 78h92q-4 -21 0.5 -39.5t15 -32t26.5 -21t36 -7.5q21 0 41 7.5t37 21t29 32t16 39.5h104z" />
    <glyph glyph-name="Iogonek" unicode="&#x12e;" horiz-adv-x="457" 
d="M0 0zM71 0l237 1229h170l-237 -1229h-170zM140 -92l127 -262h-166l-105 211z" />
    <glyph glyph-name="iogonek" unicode="&#x12f;" horiz-adv-x="442" 
d="M7 0zM260 1065l35 182h184l-35 -182h-184zM72 0l170 883h159l-170 -883h-159zM151 -92l127 -262h-166l-105 211z" />
    <glyph glyph-name="Idotaccent" unicode="&#x130;" horiz-adv-x="457" 
d="M71 0zM71 0l237 1229h170l-237 -1229h-170zM325 1360l35 182h184l-34 -182h-185z" />
    <glyph glyph-name="dotlessi" unicode="&#x131;" horiz-adv-x="432" 
d="M72 0l170 883h159l-170 -883h-159z" />
    <glyph glyph-name="IJ" unicode="&#x132;" horiz-adv-x="1405" 
d="M71 0zM71 0l237 1229h170l-237 -1229h-170zM1250 276q-6 -27 -18 -55t-35 -53q-12 -13 -34 -33.5t-47 -42t-50 -40t-42 -27.5q-27 -14 -61 -24.5t-63 -10.5h-160q-42 0 -75.5 15t-60.5 39t-48 53.5t-37 58.5q-8 15 -17 40.5t-20 65.5l160 41q4 -21 14 -43.5t24 -43
t30.5 -37t31.5 -25.5q6 -3 10.5 -3.5t9.5 -0.5h150q10 0 12 2q12 5 38 23t52 40t47 43t23 33l182 938h168z" />
    <glyph glyph-name="ij" unicode="&#x133;" horiz-adv-x="909" 
d="M72 0zM260 1065l35 182h184l-35 -182h-184zM72 0l170 883h159l-170 -883h-159zM686 -92q-7 -32 -21 -62.5t-39 -56.5q-8 -8 -22 -21.5t-31 -28.5t-34 -28.5t-30 -21.5q-17 -10 -38 -17.5t-43.5 -13t-44 -8t-39.5 -2.5h-113l29 147q48 1 76 1.5t43 1t21 1t9 2.5
q11 6 26.5 18.5t31.5 27t30 29t23 26.5q2 2 4 7.5t4 14.5l186 959h160zM731 1065l34 182h185l-35 -182h-184z" />
    <glyph glyph-name="Jcircumflex" unicode="&#x134;" horiz-adv-x="956" 
d="M33 0zM623 1352l262 243h162l168 -243h-183l-82 133l-131 -133h-196zM801 276q-6 -27 -18 -55t-35 -53q-12 -13 -34 -33.5t-47 -42t-50 -40t-42 -27.5q-27 -14 -61 -24.5t-63 -10.5h-160q-42 0 -75.5 15t-60.5 39t-48 53.5t-37 58.5q-8 15 -17 40.5t-20 65.5l160 41
q4 -21 14 -43.5t24 -43t30.5 -37t31.5 -25.5q6 -3 10.5 -3.5t9.5 -0.5h150q10 0 12 2q12 5 38 23t52 40t47 43t23 33l182 938h168z" />
    <glyph glyph-name="jcircumflex" unicode="&#x135;" horiz-adv-x="461" 
d="M240 -92q-7 -32 -21 -62.5t-39 -56.5q-8 -8 -22 -21.5t-31 -28.5t-34 -28.5t-30 -21.5q-17 -10 -38 -17.5t-43.5 -13t-44 -8t-39.5 -2.5h-113l29 147q48 1 76 1.5t43 1t21 1t9 2.5q11 6 26.5 18.5t31.5 27t30 29t23 26.5q2 2 4 7.5t4 14.5l186 959h160zM68 1057l262 243
h162l168 -243h-183l-82 133l-131 -133h-196z" />
    <glyph glyph-name="Kcommaaccent" unicode="&#x136;" horiz-adv-x="1059" 
d="M0 0zM347 -143l-187 -211h-188l229 262zM958 1229h221l-660 -623l443 -606h-213l-379 535h-27l-102 -535h-168l238 1229h167l-104 -537h16z" />
    <glyph glyph-name="kcommaaccent" unicode="&#x137;" horiz-adv-x="922" 
d="M3 0zM378 -143l-187 -211h-188l229 262zM627 0l-303 391h-33l-76 -391h-160l238 1229h160l-134 -688h23l389 342h223l-479 -424l350 -459h-198z" />
    <glyph glyph-name="kgreenlandic" unicode="&#x138;" horiz-adv-x="922" 
d="M627 0l-303 391h-33l-76 -391h-160l170 883h160l-66 -342h23l389 342h225l-26 -142h-135l-320 -282l350 -459h-198z" />
    <glyph glyph-name="Lacute" unicode="&#x139;" horiz-adv-x="973" 
d="M84 0zM576 1364l225 231h207l-283 -272zM84 0l238 1229h170l-207 -1069h571l-31 -160h-741z" />
    <glyph glyph-name="lacute" unicode="&#x13a;" horiz-adv-x="479" 
d="M108 0zM337 1364l225 231h207l-283 -272zM110 0l-2 133l213 1096h158l-209 -1071v-158h-160z" />
    <glyph glyph-name="Lcommaaccent" unicode="&#x13b;" horiz-adv-x="973" 
d="M73 0zM500 -143l-187 -211h-188l229 262zM73 0l238 1229h170l-207 -1069h571l-31 -160h-741z" />
    <glyph glyph-name="lcommaaccent" unicode="&#x13c;" horiz-adv-x="479" 
d="M0 0zM276 -143l-187 -211h-188l229 262zM110 0l-2 133l213 1096h158l-209 -1071v-158h-160z" />
    <glyph glyph-name="Lcaron" unicode="&#x13d;" horiz-adv-x="973" 
d="M762 946h-158l45 148l43 221h156l-47 -248zM84 0l238 1229h170l-207 -1069h571l-31 -160h-741z" />
    <glyph glyph-name="lcaron" unicode="&#x13e;" horiz-adv-x="569" 
d="M723 946h-158l45 148l43 221h156l-47 -248zM110 0l-2 133l213 1096h158l-209 -1071v-158h-160z" />
    <glyph glyph-name="Ldot" unicode="&#x13f;" horiz-adv-x="1026" 
d="M73 0zM73 0l238 1229h170l-207 -1069h571l-31 -160h-741zM657 525l35 182h184l-34 -182h-185z" />
    <glyph glyph-name="ldot" unicode="&#x140;" horiz-adv-x="739" 
d="M108 0zM110 0l-2 133l213 1096h158l-209 -1071v-158h-160zM530 529l35 182h184l-34 -182h-185z" />
    <glyph glyph-name="Lslash" unicode="&#x141;" horiz-adv-x="1018" 
d="M315 160h572l-31 -160h-741l90 469l-135 -66l-43 125l209 103l116 598h170l-98 -510l170 82l41 -125l-242 -117l-78 -399v0z" />
    <glyph glyph-name="lslash" unicode="&#x142;" horiz-adv-x="582" 
d="M143 0l-2 133l64 330l-135 -66l-41 125l207 101l118 606h158l-102 -522l182 88l43 -125l-256 -125l-76 -387v-158h-160z" />
    <glyph glyph-name="Nacute" unicode="&#x143;" horiz-adv-x="1169" 
d="M73 0zM639 1364l225 231h207l-283 -272zM767 0l-346 938l-182 -938h-166l238 1229h182l344 -948l184 948h166l-237 -1229h-183z" />
    <glyph glyph-name="nacute" unicode="&#x144;" horiz-adv-x="1004" 
d="M68 0zM506 1069l225 231h207l-283 -272zM645 0l125 647q0 3 1 11.5t1 11.5q-4 9 -11.5 19t-16 20t-17 17.5t-14.5 12.5q-5 2 -10.5 3t-14.5 1h-153q-15 0 -42.5 -14t-56.5 -33t-54 -38t-34 -29l-121 -629h-159l139 719l10 164h160l-2 -72q18 14 40 28.5t45 26.5
t46.5 19.5t44.5 7.5h154q37 0 73.5 -10.5t59.5 -30.5q10 -9 22 -22t23 -27.5t20.5 -27.5t14.5 -21q14 -26 15 -56t-5 -61l-123 -637h-160z" />
    <glyph glyph-name="Ncommaaccent" unicode="&#x145;" horiz-adv-x="1169" 
d="M84 0zM649 -143l-187 -211h-188l229 262zM778 0l-346 938l-182 -938h-166l238 1229h182l344 -948l184 948h166l-237 -1229h-183z" />
    <glyph glyph-name="ncommaaccent" unicode="&#x146;" horiz-adv-x="1004" 
d="M68 0zM539 -143l-187 -211h-188l229 262zM645 0l125 647q0 3 1 11.5t1 11.5q-4 9 -11.5 19t-16 20t-17 17.5t-14.5 12.5q-5 2 -10.5 3t-14.5 1h-153q-15 0 -42.5 -14t-56.5 -33t-54 -38t-34 -29l-121 -629h-159l139 719l10 164h160l-2 -72q18 14 40 28.5t45 26.5
t46.5 19.5t44.5 7.5h154q37 0 73.5 -10.5t59.5 -30.5q10 -9 22 -22t23 -27.5t20.5 -27.5t14.5 -21q14 -26 15 -56t-5 -61l-123 -637h-160z" />
    <glyph glyph-name="Ncaron" unicode="&#x147;" horiz-adv-x="1169" 
d="M73 0zM1125 1595l-263 -243h-163l-168 243h178l80 -133l133 133h203zM767 0l-346 938l-182 -938h-166l238 1229h182l344 -948l184 948h166l-237 -1229h-183z" />
    <glyph glyph-name="ncaron" unicode="&#x148;" horiz-adv-x="1004" 
d="M68 0zM1008 1300l-263 -243h-163l-168 243h178l80 -133l133 133h203zM645 0l125 647q0 3 1 11.5t1 11.5q-4 9 -11.5 19t-16 20t-17 17.5t-14.5 12.5q-5 2 -10.5 3t-14.5 1h-153q-15 0 -42.5 -14t-56.5 -33t-54 -38t-34 -29l-121 -629h-159l139 719l10 164h160l-2 -72
q18 14 40 28.5t45 26.5t46.5 19.5t44.5 7.5h154q37 0 73.5 -10.5t59.5 -30.5q10 -9 22 -22t23 -27.5t20.5 -27.5t14.5 -21q14 -26 15 -56t-5 -61l-123 -637h-160z" />
    <glyph glyph-name="napostrophe" unicode="&#x149;" horiz-adv-x="1004" 
d="M203 946h-158l45 148l43 221h156l-47 -248zM645 0l125 647q0 3 1 11.5t1 11.5q-4 9 -11.5 19t-16 20t-17 17.5t-14.5 12.5q-5 2 -10.5 3t-14.5 1h-153q-15 0 -42.5 -14t-56.5 -33t-54 -38t-34 -29l-121 -629h-159l139 719l10 164h160l-2 -72q18 14 40 28.5t45 26.5
t46.5 19.5t44.5 7.5h154q37 0 73.5 -10.5t59.5 -30.5q10 -9 22 -22t23 -27.5t20.5 -27.5t14.5 -21q14 -26 15 -56t-5 -61l-123 -637h-160z" />
    <glyph glyph-name="Eng" unicode="&#x14a;" horiz-adv-x="1169" 
d="M942 -92q-6 -32 -20.5 -62.5t-38.5 -56.5q-8 -8 -22.5 -21.5t-31 -28.5t-33.5 -28.5t-30 -21.5q-17 -10 -38.5 -17.5t-44 -13t-44 -8t-39.5 -2.5h-113l29 147q48 1 76 1.5t43.5 1t21.5 1t9 2.5q10 6 25.5 18.5t31.5 27t30.5 29t22.5 26.5q5 5 8 22l15 76h-21l-346 938
l-182 -938h-166l238 1229h182l344 -948l184 948h166z" />
    <glyph glyph-name="eng" unicode="&#x14b;" horiz-adv-x="1004" 
d="M786 -92q-6 -32 -20 -62.5t-39 -56.5q-8 -8 -22 -21.5t-31 -28.5t-34 -28.5t-30 -21.5q-17 -10 -38 -17.5t-43.5 -13t-44.5 -8t-40 -2.5h-112l28 147q48 1 76 1.5t43.5 1t21.5 1t9 2.5q11 6 26.5 18.5t31.5 27t30 29t23 26.5q5 5 8 22l30 156l111 567q0 3 1 11.5t1 11.5
q-4 9 -11.5 19t-16 20t-17 17.5t-14.5 12.5q-5 2 -10.5 3t-14.5 1h-153q-15 0 -42.5 -14t-56.5 -33t-54 -38t-34 -29l-121 -629h-159l139 719l10 164h160l-2 -72q18 14 40 28.5t45 26.5t46.5 19.5t44.5 7.5h154q37 0 73.5 -10.5t59.5 -30.5q10 -9 22 -22t23 -27.5
t20.5 -27.5t14.5 -21q14 -26 15 -56t-5 -61z" />
    <glyph glyph-name="Omacron" unicode="&#x14c;" horiz-adv-x="1186" 
d="M121 0zM1042 276q-6 -27 -18 -55t-35 -53q-12 -14 -34 -34.5t-47.5 -41.5t-50.5 -39.5t-42 -27.5q-28 -14 -62 -24.5t-63 -10.5h-323q-29 0 -59 10.5t-52 24.5q-14 9 -32 27.5t-36 39.5t-33 41.5t-22 34.5q-11 25 -11.5 53.5t5.5 54.5l131 674q5 26 16.5 55t32.5 54
q12 14 34.5 35t48.5 42.5t51.5 40t43.5 27.5q28 14 61 24.5t62 10.5h324q29 0 60 -10.5t52 -24.5q13 -9 31 -28t35 -40.5t31.5 -42.5t21.5 -34q13 -25 14.5 -53t-3.5 -56zM1006 958q2 7 1 12.5t-3 8.5q-8 15 -18.5 30t-21.5 28t-22 23t-20 15q-8 4 -19 4h-305q-10 0 -18 -4
q-14 -6 -39 -23t-50.5 -38t-45.5 -42t-23 -34l-129 -670q-2 -11 7 -27.5t22.5 -33t29 -30.5t25.5 -21q9 -6 20 -6h305q7 0 12.5 2t8.5 4q13 6 38 22.5t49.5 37t44 40.5t22.5 33zM593 1376l29 148h414l-29 -148h-414z" />
    <glyph glyph-name="omacron" unicode="&#x14d;" horiz-adv-x="991" 
d="M94 0zM850 246q-6 -31 -19 -61t-36 -56q-8 -9 -22.5 -22t-31 -27.5t-34 -27.5t-31.5 -21q-31 -20 -70.5 -30.5t-77.5 -10.5h-204q-38 0 -74.5 10.5t-61.5 30.5q-9 8 -20.5 21t-22.5 27.5t-20.5 27.5t-13.5 22q-14 26 -15.5 56t4.5 61l76 391q6 31 19 61t36 56
q8 8 22.5 21t31 27.5t33.5 27.5t30 22q32 20 72.5 30.5t77.5 10.5h204q38 0 74.5 -10.5t59.5 -30.5q10 -9 21.5 -22t23 -27.5t20.5 -27.5t14 -21q14 -26 15.5 -56t-4.5 -61zM686 238q3 6 3.5 8l2.5 10l76 391q0 3 1.5 11t-1.5 14q-20 40 -61 65q-4 2 -9 4t-14 2h-205
q-9 0 -14.5 -2t-11.5 -4q-12 -6 -28 -17t-32 -24t-30 -26.5t-21 -24.5q-5 -5 -8 -22l-76 -385q-3 -18 0 -23q11 -20 27 -38.5t34 -31.5q5 -3 10.5 -4.5t14.5 -1.5h205q9 0 14 2l10 4q9 5 26.5 17t35 26t32 27.5t19.5 22.5zM428 1079l29 148h414l-29 -148h-414z" />
    <glyph glyph-name="Obreve" unicode="&#x14e;" horiz-adv-x="1186" 
d="M121 0zM1042 276q-6 -27 -18 -55t-35 -53q-12 -14 -34 -34.5t-47.5 -41.5t-50.5 -39.5t-42 -27.5q-28 -14 -62 -24.5t-63 -10.5h-323q-29 0 -59 10.5t-52 24.5q-14 9 -32 27.5t-36 39.5t-33 41.5t-22 34.5q-11 25 -11.5 53.5t5.5 54.5l131 674q5 26 16.5 55t32.5 54
q12 14 34.5 35t48.5 42.5t51.5 40t43.5 27.5q28 14 61 24.5t62 10.5h324q29 0 60 -10.5t52 -24.5q13 -9 31 -28t35 -40.5t31.5 -42.5t21.5 -34q13 -25 14.5 -53t-3.5 -56zM1006 958q2 7 1 12.5t-3 8.5q-8 15 -18.5 30t-21.5 28t-22 23t-20 15q-8 4 -19 4h-305q-10 0 -18 -4
q-14 -6 -39 -23t-50.5 -38t-45.5 -42t-23 -34l-129 -670q-2 -11 7 -27.5t22.5 -33t29 -30.5t25.5 -21q9 -6 20 -6h305q7 0 12.5 2t8.5 4q13 6 38 22.5t49.5 37t44 40.5t22.5 33zM1038 1536q-8 -42 -29.5 -78t-53.5 -61.5t-71.5 -40t-82.5 -14.5q-42 0 -75.5 14.5t-54.5 40
t-29.5 61.5t-0.5 78h92q-4 -21 0.5 -39.5t15 -32t26.5 -21t36 -7.5q21 0 41 7.5t37 21t29 32t16 39.5h104z" />
    <glyph glyph-name="obreve" unicode="&#x14f;" horiz-adv-x="991" 
d="M94 0zM850 246q-6 -31 -19 -61t-36 -56q-8 -9 -22.5 -22t-31 -27.5t-34 -27.5t-31.5 -21q-31 -20 -70.5 -30.5t-77.5 -10.5h-204q-38 0 -74.5 10.5t-61.5 30.5q-9 8 -20.5 21t-22.5 27.5t-20.5 27.5t-13.5 22q-14 26 -15.5 56t4.5 61l76 391q6 31 19 61t36 56
q8 8 22.5 21t31 27.5t33.5 27.5t30 22q32 20 72.5 30.5t77.5 10.5h204q38 0 74.5 -10.5t59.5 -30.5q10 -9 21.5 -22t23 -27.5t20.5 -27.5t14 -21q14 -26 15.5 -56t-4.5 -61zM686 238q3 6 3.5 8l2.5 10l76 391q0 3 1.5 11t-1.5 14q-20 40 -61 65q-4 2 -9 4t-14 2h-205
q-9 0 -14.5 -2t-11.5 -4q-12 -6 -28 -17t-32 -24t-30 -26.5t-21 -24.5q-5 -5 -8 -22l-76 -385q-3 -18 0 -23q11 -20 27 -38.5t34 -31.5q5 -3 10.5 -4.5t14.5 -1.5h205q9 0 14 2l10 4q9 5 26.5 17t35 26t32 27.5t19.5 22.5zM882 1241q-8 -42 -29.5 -78t-53.5 -61.5t-71.5 -40
t-82.5 -14.5q-42 0 -75.5 14.5t-54.5 40t-29.5 61.5t-0.5 78h92q-4 -21 0.5 -39.5t15 -32t26.5 -21t36 -7.5q21 0 41 7.5t37 21t29 32t16 39.5h104z" />
    <glyph glyph-name="Ohungarumlaut" unicode="&#x150;" horiz-adv-x="1186" 
d="M121 0zM1042 276q-6 -27 -18 -55t-35 -53q-12 -14 -34 -34.5t-47.5 -41.5t-50.5 -39.5t-42 -27.5q-28 -14 -62 -24.5t-63 -10.5h-323q-29 0 -59 10.5t-52 24.5q-14 9 -32 27.5t-36 39.5t-33 41.5t-22 34.5q-11 25 -11.5 53.5t5.5 54.5l131 674q5 26 16.5 55t32.5 54
q12 14 34.5 35t48.5 42.5t51.5 40t43.5 27.5q28 14 61 24.5t62 10.5h324q29 0 60 -10.5t52 -24.5q13 -9 31 -28t35 -40.5t31.5 -42.5t21.5 -34q13 -25 14.5 -53t-3.5 -56zM1006 958q2 7 1 12.5t-3 8.5q-8 15 -18.5 30t-21.5 28t-22 23t-20 15q-8 4 -19 4h-305q-10 0 -18 -4
q-14 -6 -39 -23t-50.5 -38t-45.5 -42t-23 -34l-129 -670q-2 -11 7 -27.5t22.5 -33t29 -30.5t25.5 -21q9 -6 20 -6h305q7 0 12.5 2t8.5 4q13 6 38 22.5t49.5 37t44 40.5t22.5 33zM596 1376l217 219h162l-268 -256zM836 1376l217 219h162l-269 -256z" />
    <glyph glyph-name="ohungarumlaut" unicode="&#x151;" horiz-adv-x="991" 
d="M94 0zM850 246q-6 -31 -19 -61t-36 -56q-8 -9 -22.5 -22t-31 -27.5t-34 -27.5t-31.5 -21q-31 -20 -70.5 -30.5t-77.5 -10.5h-204q-38 0 -74.5 10.5t-61.5 30.5q-9 8 -20.5 21t-22.5 27.5t-20.5 27.5t-13.5 22q-14 26 -15.5 56t4.5 61l76 391q6 31 19 61t36 56
q8 8 22.5 21t31 27.5t33.5 27.5t30 22q32 20 72.5 30.5t77.5 10.5h204q38 0 74.5 -10.5t59.5 -30.5q10 -9 21.5 -22t23 -27.5t20.5 -27.5t14 -21q14 -26 15.5 -56t-4.5 -61zM686 238q3 6 3.5 8l2.5 10l76 391q0 3 1.5 11t-1.5 14q-20 40 -61 65q-4 2 -9 4t-14 2h-205
q-9 0 -14.5 -2t-11.5 -4q-12 -6 -28 -17t-32 -24t-30 -26.5t-21 -24.5q-5 -5 -8 -22l-76 -385q-3 -18 0 -23q11 -20 27 -38.5t34 -31.5q5 -3 10.5 -4.5t14.5 -1.5h205q9 0 14 2l10 4q9 5 26.5 17t35 26t32 27.5t19.5 22.5zM435 1081l217 219h162l-268 -256zM675 1081
l217 219h162l-269 -256z" />
    <glyph glyph-name="OE" unicode="&#x152;" horiz-adv-x="1743" 
d="M793 0l6 29q-3 -2 -6 -2t-5 -2q-27 -14 -61 -24.5t-63 -10.5h-297q-29 0 -59 10.5t-52 24.5q-14 9 -32 27.5t-36 39.5t-33 41.5t-22 34.5q-11 25 -11.5 53.5t5.5 54.5l131 674q5 26 16.5 55t32.5 54q12 14 34.5 35t48.5 42.5t51.5 40t43.5 27.5q28 14 61 24.5t62 10.5
h297q34 0 63.5 -11t55.5 -30l6 31h733l-30 -160h-564q-5 -27 -9 -46.5t-7.5 -39.5t-8 -43t-11 -56t-15.5 -79t-22 -111h530l-31 -159h-530q-13 -66 -21.5 -111.5t-15 -78.5t-11 -55.5t-8 -42.5t-7.5 -40t-9 -47h563l-30 -160h-733zM696 156q12 5 35 20t46.5 34t43.5 38
t27 33l131 688q0 3 -1 5.5t-1 4.5q-8 15 -18 30t-21.5 28t-22.5 23t-20 15q-8 4 -18 4h-279q-10 0 -18 -4q-14 -6 -39 -23t-50.5 -38t-45.5 -42t-23 -34l-129 -670q-2 -11 7 -27.5t22.5 -33t29 -30.5t25.5 -21q9 -6 20 -6h279q6 0 11.5 2t8.5 4z" />
    <glyph glyph-name="oe" unicode="&#x153;" horiz-adv-x="1577" 
d="M1440 201q-15 -23 -35 -47.5t-42.5 -47.5t-46.5 -42.5t-46 -32.5q-31 -20 -69.5 -30.5t-76.5 -10.5h-209q-37 0 -73.5 10.5t-61.5 30.5q-9 8 -20.5 19.5t-22.5 25.5q-15 -14 -32 -25.5t-29 -19.5q-31 -20 -70.5 -30.5t-77.5 -10.5h-204q-38 0 -74.5 10.5t-61.5 30.5
q-9 8 -20.5 21t-22.5 27.5t-20.5 27.5t-13.5 22q-14 26 -15.5 56t4.5 61l76 391q6 31 19 61t36 56q8 8 22.5 21t31 27.5t33.5 27.5t30 22q32 20 72.5 30.5t77.5 10.5h204q38 0 74.5 -10.5t59.5 -30.5q9 -8 20.5 -20.5t22.5 -26.5q15 14 32 26t29 21q32 20 72 30.5t78 10.5
h204q37 0 73.5 -10.5t59.5 -30.5q10 -9 22 -22t23.5 -27.5t20.5 -27.5t14 -21q14 -26 15.5 -56t-4.5 -61l-52 -264h-592l-26 -135q-3 -19 0 -25q5 -10 14 -23t20 -24t23.5 -19t24.5 -8h219q9 0 14.5 2t10.5 4q12 6 26.5 15.5t28.5 21t26 23.5t19 22l16 25zM686 238
q3 6 3.5 8l2.5 10l76 391q0 3 1.5 11t-1.5 14q-20 40 -61 65q-4 2 -9 4t-14 2h-205q-9 0 -14.5 -2t-11.5 -4q-12 -6 -28 -17t-32 -24t-30 -26.5t-21 -24.5q-5 -5 -8 -22l-76 -385q-3 -18 0 -23q11 -20 27 -38.5t34 -31.5q5 -3 10.5 -4.5t14.5 -1.5h205q9 0 14 2l10 4
q9 5 26.5 17t35 26t32 27.5t19.5 22.5zM1360 647q2 8 2 15t-2 10q-9 18 -28.5 37t-33.5 28q-3 2 -8 4t-14 2h-207q-15 0 -35 -11t-40.5 -26t-37.5 -31.5t-24 -27.5q-2 -2 -4 -7.5t-4 -14.5l-21 -107h432z" />
    <glyph glyph-name="Racute" unicode="&#x154;" horiz-adv-x="1178" 
d="M84 0zM592 1364l225 231h207l-283 -272zM827 0l-194 512h-281l-98 -512h-170l238 1229h577q35 0 70.5 -11.5t58.5 -31.5q9 -8 22.5 -22.5t26.5 -30.5t23.5 -31.5t15.5 -24.5q11 -23 15 -54.5t-3 -61.5l-36 -185q-7 -31 -21 -59.5t-37 -54.5q-8 -9 -24 -24.5t-35.5 -32
t-38.5 -31t-31 -21.5q-11 -7 -24.5 -14t-27.5 -12t-28 -8.5t-24 -2.5l205 -516h-179zM961 969q3 14 0 24q-3 9 -11 21.5t-17.5 24.5t-21 20.5t-22.5 9.5h-12h-416l-78 -397h393q14 0 35 10.5t42 25t39 30t26 26.5q3 5 4.5 10.5t3.5 11.5z" />
    <glyph glyph-name="racute" unicode="&#x155;" horiz-adv-x="852" 
d="M66 0zM506 1069l225 231h207l-283 -272zM750 637q-6 16 -15.5 34.5t-22.5 34.5t-29 26.5t-34 10.5h-112q-16 0 -44.5 -14t-58 -33.5t-54.5 -39.5t-34 -31l-121 -625h-159l139 719l12 164h158v-72q18 15 40 29.5t45 26t47 19t46 7.5h113q37 0 72.5 -9.5t60.5 -29.5
q15 -12 31 -32.5t30 -44.5t25 -49.5t16 -47.5z" />
    <glyph glyph-name="Rcommaaccent" unicode="&#x156;" horiz-adv-x="1178" 
d="M21 0zM396 -143l-187 -211h-188l229 262zM827 0l-194 512h-281l-98 -512h-170l238 1229h577q35 0 70.5 -11.5t58.5 -31.5q9 -8 22.5 -22.5t26.5 -30.5t23.5 -31.5t15.5 -24.5q11 -23 15 -54.5t-3 -61.5l-36 -185q-7 -31 -21 -59.5t-37 -54.5q-8 -9 -24 -24.5t-35.5 -32
t-38.5 -31t-31 -21.5q-11 -7 -24.5 -14t-27.5 -12t-28 -8.5t-24 -2.5l205 -516h-179zM961 969q3 14 0 24q-3 9 -11 21.5t-17.5 24.5t-21 20.5t-22.5 9.5h-12h-416l-78 -397h393q14 0 35 10.5t42 25t39 30t26 26.5q3 5 4.5 10.5t3.5 11.5z" />
    <glyph glyph-name="rcommaaccent" unicode="&#x157;" horiz-adv-x="852" 
d="M0 0zM335 -143l-187 -211h-188l229 262zM750 637q-6 16 -15.5 34.5t-22.5 34.5t-29 26.5t-34 10.5h-112q-16 0 -44.5 -14t-58 -33.5t-54.5 -39.5t-34 -31l-121 -625h-159l139 719l12 164h158v-72q18 15 40 29.5t45 26t47 19t46 7.5h113q37 0 72.5 -9.5t60.5 -29.5
q15 -12 31 -32.5t30 -44.5t25 -49.5t16 -47.5z" />
    <glyph glyph-name="Rcaron" unicode="&#x158;" horiz-adv-x="1167" 
d="M73 0zM1100 1595l-263 -243h-163l-168 243h178l80 -133l133 133h203zM816 0l-194 512h-281l-98 -512h-170l238 1229h577q35 0 70.5 -11.5t58.5 -31.5q9 -8 22.5 -22.5t26.5 -30.5t23.5 -31.5t15.5 -24.5q11 -23 15 -54.5t-3 -61.5l-36 -185q-7 -31 -21 -59.5t-37 -54.5
q-8 -9 -24 -24.5t-35.5 -32t-38.5 -31t-31 -21.5q-11 -7 -24.5 -14t-27.5 -12t-28 -8.5t-24 -2.5l205 -516h-179zM950 969q3 14 0 24q-3 9 -11 21.5t-17.5 24.5t-21 20.5t-22.5 9.5h-12h-416l-78 -397h393q14 0 35 10.5t42 25t39 30t26 26.5q3 5 4.5 10.5t3.5 11.5z" />
    <glyph glyph-name="rcaron" unicode="&#x159;" horiz-adv-x="852" 
d="M66 0zM750 637q-6 16 -15.5 34.5t-22.5 34.5t-29 26.5t-34 10.5h-112q-16 0 -44.5 -14t-58 -33.5t-54.5 -39.5t-34 -31l-121 -625h-159l139 719l12 164h158v-72q18 15 40 29.5t45 26t47 19t46 7.5h113q37 0 72.5 -9.5t60.5 -29.5q15 -12 31 -32.5t30 -44.5t25 -49.5
t16 -47.5zM968 1300l-263 -243h-163l-168 243h178l80 -133l133 133h203z" />
    <glyph glyph-name="Sacute" unicode="&#x15a;" horiz-adv-x="1167" 
d="M94 0zM1042 276q-6 -26 -17 -54.5t-34 -53.5q-11 -14 -33.5 -34.5t-48.5 -41.5t-51.5 -39.5t-42.5 -27.5q-28 -14 -61 -24.5t-62 -10.5h-340q-41 0 -74.5 15t-61.5 39t-49.5 53.5t-37.5 58.5q-9 17 -16.5 41.5t-18.5 64.5l158 41q3 -11 6 -20t6 -17q8 -18 19.5 -35.5
t24 -32.5t25 -26.5t23.5 -17.5q7 -3 10.5 -3.5t8.5 -0.5h330q8 0 16 4q13 6 38 22.5t49.5 37t44 40.5t21.5 33l25 116q5 25 -4.5 46t-28.5 26l-538 146q-33 9 -56 30t-35.5 49.5t-16 61.5t2.5 67l25 121q5 26 16 55t33 54q12 14 34.5 35t48.5 42.5t51.5 40t43.5 27.5
q28 14 61 24.5t62 10.5h309q40 0 73.5 -15.5t60.5 -39.5t48.5 -53.5t36.5 -57.5q10 -15 18 -39.5t19 -64.5l-157 -43q-5 12 -7 19t-4 11t-2 7q-5 17 -16.5 34.5t-25 32.5t-27 27t-23.5 18q-2 1 -5 2q-6 2 -11 2h-297q-11 0 -19 -4q-12 -6 -37 -23.5t-50.5 -38.5t-45.5 -41
t-22 -32l-21 -102q-5 -23 3.5 -43t27.5 -25l534 -149q33 -9 57 -29.5t38.5 -48.5t18.5 -60.5t-3 -66.5zM651 1364l225 231h207l-283 -272z" />
    <glyph glyph-name="sacute" unicode="&#x15b;" horiz-adv-x="961" 
d="M47 0zM780 633q-5 17 -15.5 36t-24 35.5t-29 27.5t-31.5 11h-219q-17 0 -25 -4q-25 -11 -54 -36.5t-46 -47.5q-2 -2 -5 -9.5t-5 -16.5l-11 -47q-3 -17 7 -32.5t34 -17.5l338 -22q41 -3 74.5 -19.5t56 -43t32 -62t1.5 -76.5l-14 -69q-6 -32 -21.5 -61.5t-38.5 -55.5
q-8 -9 -20.5 -22t-27.5 -26t-31 -25t-29 -19q-32 -20 -70 -30.5t-76 -10.5h-245q-37 0 -72 10.5t-61 30.5q-15 12 -30 31t-29 42t-26 48t-20 49l152 49q11 -34 31 -63.5t44 -43.5q10 -4 25 -4h248q14 0 33 10t37.5 24t34.5 29.5t24 26.5q3 5 5 9.5t5 13.5l12 61
q3 17 -7.5 32t-35.5 17l-338 21q-41 3 -74 19.5t-55 43t-31 62t-1 76.5l12 59q6 32 19.5 61.5t37.5 55.5q8 9 20.5 21.5t27.5 25.5t30.5 25t28.5 20q34 20 72 30.5t75 10.5h213q37 0 72 -10.5t59 -30.5q16 -13 32 -32t30 -41.5t26 -47t21 -49.5zM506 1069l225 231h207
l-283 -272z" />
    <glyph glyph-name="Scircumflex" unicode="&#x15c;" horiz-adv-x="1167" 
d="M94 0zM1042 276q-6 -26 -17 -54.5t-34 -53.5q-11 -14 -33.5 -34.5t-48.5 -41.5t-51.5 -39.5t-42.5 -27.5q-28 -14 -61 -24.5t-62 -10.5h-340q-41 0 -74.5 15t-61.5 39t-49.5 53.5t-37.5 58.5q-9 17 -16.5 41.5t-18.5 64.5l158 41q3 -11 6 -20t6 -17q8 -18 19.5 -35.5
t24 -32.5t25 -26.5t23.5 -17.5q7 -3 10.5 -3.5t8.5 -0.5h330q8 0 16 4q13 6 38 22.5t49.5 37t44 40.5t21.5 33l25 116q5 25 -4.5 46t-28.5 26l-538 146q-33 9 -56 30t-35.5 49.5t-16 61.5t2.5 67l25 121q5 26 16 55t33 54q12 14 34.5 35t48.5 42.5t51.5 40t43.5 27.5
q28 14 61 24.5t62 10.5h309q40 0 73.5 -15.5t60.5 -39.5t48.5 -53.5t36.5 -57.5q10 -15 18 -39.5t19 -64.5l-157 -43q-5 12 -7 19t-4 11t-2 7q-5 17 -16.5 34.5t-25 32.5t-27 27t-23.5 18q-2 1 -5 2q-6 2 -11 2h-297q-11 0 -19 -4q-12 -6 -37 -23.5t-50.5 -38.5t-45.5 -41
t-22 -32l-21 -102q-5 -23 3.5 -43t27.5 -25l534 -149q33 -9 57 -29.5t38.5 -48.5t18.5 -60.5t-3 -66.5zM477 1352l262 243h162l168 -243h-183l-82 133l-131 -133h-196z" />
    <glyph glyph-name="scircumflex" unicode="&#x15d;" horiz-adv-x="961" 
d="M47 0zM780 633q-5 17 -15.5 36t-24 35.5t-29 27.5t-31.5 11h-219q-17 0 -25 -4q-25 -11 -54 -36.5t-46 -47.5q-2 -2 -5 -9.5t-5 -16.5l-11 -47q-3 -17 7 -32.5t34 -17.5l338 -22q41 -3 74.5 -19.5t56 -43t32 -62t1.5 -76.5l-14 -69q-6 -32 -21.5 -61.5t-38.5 -55.5
q-8 -9 -20.5 -22t-27.5 -26t-31 -25t-29 -19q-32 -20 -70 -30.5t-76 -10.5h-245q-37 0 -72 10.5t-61 30.5q-15 12 -30 31t-29 42t-26 48t-20 49l152 49q11 -34 31 -63.5t44 -43.5q10 -4 25 -4h248q14 0 33 10t37.5 24t34.5 29.5t24 26.5q3 5 5 9.5t5 13.5l12 61
q3 17 -7.5 32t-35.5 17l-338 21q-41 3 -74 19.5t-55 43t-31 62t-1 76.5l12 59q6 32 19.5 61.5t37.5 55.5q8 9 20.5 21.5t27.5 25.5t30.5 25t28.5 20q34 20 72 30.5t75 10.5h213q37 0 72 -10.5t59 -30.5q16 -13 32 -32t30 -41.5t26 -47t21 -49.5zM332 1057l262 243h162
l168 -243h-183l-82 133l-131 -133h-196z" />
    <glyph glyph-name="Scedilla" unicode="&#x15e;" horiz-adv-x="1167" 
d="M94 0zM1042 276q-6 -26 -17 -54.5t-34 -53.5q-11 -14 -33.5 -34.5t-48.5 -41.5t-51.5 -39.5t-42.5 -27.5q-28 -14 -61 -24.5t-62 -10.5h-340q-41 0 -74.5 15t-61.5 39t-49.5 53.5t-37.5 58.5q-9 17 -16.5 41.5t-18.5 64.5l158 41q3 -11 6 -20t6 -17q8 -18 19.5 -35.5
t24 -32.5t25 -26.5t23.5 -17.5q7 -3 10.5 -3.5t8.5 -0.5h330q8 0 16 4q13 6 38 22.5t49.5 37t44 40.5t21.5 33l25 116q5 25 -4.5 46t-28.5 26l-538 146q-33 9 -56 30t-35.5 49.5t-16 61.5t2.5 67l25 121q5 26 16 55t33 54q12 14 34.5 35t48.5 42.5t51.5 40t43.5 27.5
q28 14 61 24.5t62 10.5h309q40 0 73.5 -15.5t60.5 -39.5t48.5 -53.5t36.5 -57.5q10 -15 18 -39.5t19 -64.5l-157 -43q-5 12 -7 19t-4 11t-2 7q-5 17 -16.5 34.5t-25 32.5t-27 27t-23.5 18q-2 1 -5 2q-6 2 -11 2h-297q-11 0 -19 -4q-12 -6 -37 -23.5t-50.5 -38.5t-45.5 -41
t-22 -32l-21 -102q-5 -23 3.5 -43t27.5 -25l534 -149q33 -9 57 -29.5t38.5 -48.5t18.5 -60.5t-3 -66.5zM639 -143l-187 -211h-188l229 262z" />
    <glyph glyph-name="scedilla" unicode="&#x15f;" horiz-adv-x="961" 
d="M47 0zM780 633q-5 17 -15.5 36t-24 35.5t-29 27.5t-31.5 11h-219q-17 0 -25 -4q-25 -11 -54 -36.5t-46 -47.5q-2 -2 -5 -9.5t-5 -16.5l-11 -47q-3 -17 7 -32.5t34 -17.5l338 -22q41 -3 74.5 -19.5t56 -43t32 -62t1.5 -76.5l-14 -69q-6 -32 -21.5 -61.5t-38.5 -55.5
q-8 -9 -20.5 -22t-27.5 -26t-31 -25t-29 -19q-32 -20 -70 -30.5t-76 -10.5h-245q-37 0 -72 10.5t-61 30.5q-15 12 -30 31t-29 42t-26 48t-20 49l152 49q11 -34 31 -63.5t44 -43.5q10 -4 25 -4h248q14 0 33 10t37.5 24t34.5 29.5t24 26.5q3 5 5 9.5t5 13.5l12 61
q3 17 -7.5 32t-35.5 17l-338 21q-41 3 -74 19.5t-55 43t-31 62t-1 76.5l12 59q6 32 19.5 61.5t37.5 55.5q8 9 20.5 21.5t27.5 25.5t30.5 25t28.5 20q34 20 72 30.5t75 10.5h213q37 0 72 -10.5t59 -30.5q16 -13 32 -32t30 -41.5t26 -47t21 -49.5zM522 -143l-187 -211h-188
l229 262z" />
    <glyph glyph-name="Scaron" unicode="&#x160;" horiz-adv-x="1167" 
d="M94 0zM1042 276q-6 -26 -17 -54.5t-34 -53.5q-11 -14 -33.5 -34.5t-48.5 -41.5t-51.5 -39.5t-42.5 -27.5q-28 -14 -61 -24.5t-62 -10.5h-340q-41 0 -74.5 15t-61.5 39t-49.5 53.5t-37.5 58.5q-9 17 -16.5 41.5t-18.5 64.5l158 41q3 -11 6 -20t6 -17q8 -18 19.5 -35.5
t24 -32.5t25 -26.5t23.5 -17.5q7 -3 10.5 -3.5t8.5 -0.5h330q8 0 16 4q13 6 38 22.5t49.5 37t44 40.5t21.5 33l25 116q5 25 -4.5 46t-28.5 26l-538 146q-33 9 -56 30t-35.5 49.5t-16 61.5t2.5 67l25 121q5 26 16 55t33 54q12 14 34.5 35t48.5 42.5t51.5 40t43.5 27.5
q28 14 61 24.5t62 10.5h309q40 0 73.5 -15.5t60.5 -39.5t48.5 -53.5t36.5 -57.5q10 -15 18 -39.5t19 -64.5l-157 -43q-5 12 -7 19t-4 11t-2 7q-5 17 -16.5 34.5t-25 32.5t-27 27t-23.5 18q-2 1 -5 2q-6 2 -11 2h-297q-11 0 -19 -4q-12 -6 -37 -23.5t-50.5 -38.5t-45.5 -41
t-22 -32l-21 -102q-5 -23 3.5 -43t27.5 -25l534 -149q33 -9 57 -29.5t38.5 -48.5t18.5 -60.5t-3 -66.5zM1135 1595l-263 -243h-163l-168 243h178l80 -133l133 133h203z" />
    <glyph glyph-name="scaron" unicode="&#x161;" horiz-adv-x="961" 
d="M47 0zM974 1300l-263 -243h-163l-168 243h178l80 -133l133 133h203zM780 633q-5 17 -15.5 36t-24 35.5t-29 27.5t-31.5 11h-219q-17 0 -25 -4q-25 -11 -54 -36.5t-46 -47.5q-2 -2 -5 -9.5t-5 -16.5l-11 -47q-3 -17 7 -32.5t34 -17.5l338 -22q41 -3 74.5 -19.5t56 -43
t32 -62t1.5 -76.5l-14 -69q-6 -32 -21.5 -61.5t-38.5 -55.5q-8 -9 -20.5 -22t-27.5 -26t-31 -25t-29 -19q-32 -20 -70 -30.5t-76 -10.5h-245q-37 0 -72 10.5t-61 30.5q-15 12 -30 31t-29 42t-26 48t-20 49l152 49q11 -34 31 -63.5t44 -43.5q10 -4 25 -4h248q14 0 33 10
t37.5 24t34.5 29.5t24 26.5q3 5 5 9.5t5 13.5l12 61q3 17 -7.5 32t-35.5 17l-338 21q-41 3 -74 19.5t-55 43t-31 62t-1 76.5l12 59q6 32 19.5 61.5t37.5 55.5q8 9 20.5 21.5t27.5 25.5t30.5 25t28.5 20q34 20 72 30.5t75 10.5h213q37 0 72 -10.5t59 -30.5q16 -13 32 -32
t30 -41.5t26 -47t21 -49.5z" />
    <glyph glyph-name="Tcommaaccent" unicode="&#x162;" horiz-adv-x="1032" 
d="M172 0zM547 -143l-187 -211h-188l229 262zM743 1069l-206 -1069h-170l206 1069h-350l31 160h868l-30 -160h-349z" />
    <glyph glyph-name="tcommaaccent" unicode="&#x163;" horiz-adv-x="700" 
d="M88 0zM463 -143l-187 -211h-188l229 262zM430 733l-94 -479q-3 -19 0 -29q8 -21 22.5 -39t32.5 -30q9 -6 29 -6l153 -3l-28 -147h-146q-37 0 -72.5 10.5t-60.5 30.5q-9 8 -20.5 21.5t-22.5 28.5t-20.5 28.5t-14.5 21.5q-14 26 -16 56.5t4 62.5l92 473h-145l29 150h145
l68 346h159l-67 -346h270l-29 -150h-268z" />
    <glyph glyph-name="Tcaron" unicode="&#x164;" horiz-adv-x="1032" 
d="M223 0zM1059 1595l-263 -243h-163l-168 243h178l80 -133l133 133h203zM743 1069l-206 -1069h-170l206 1069h-350l31 160h868l-30 -160h-349z" />
    <glyph glyph-name="tcaron" unicode="&#x165;" horiz-adv-x="836" 
d="M975 946h-158l45 148l43 221h156l-47 -248zM430 733l-94 -479q-3 -19 0 -29q8 -21 22.5 -39t32.5 -30q9 -6 29 -6l153 -3l-28 -147h-146q-37 0 -72.5 10.5t-60.5 30.5q-9 8 -20.5 21.5t-22.5 28.5t-20.5 28.5t-14.5 21.5q-14 26 -16 56.5t4 62.5l92 473h-145l29 150h145
l68 346h159l-67 -346h270l-29 -150h-268z" />
    <glyph glyph-name="Tbar" unicode="&#x166;" horiz-adv-x="1032" 
d="M641 541l-104 -541h-170l104 541h-211l29 149h211l73 379h-350l31 160h868l-30 -160h-349l-73 -379h198l-28 -149h-199z" />
    <glyph glyph-name="tbar" unicode="&#x167;" horiz-adv-x="700" 
d="M430 733l-27 -137h271l-29 -150h-272l-37 -192q-3 -19 0 -29q8 -21 22.5 -39t32.5 -30q9 -6 29 -6l153 -3l-28 -147h-146q-37 0 -72.5 10.5t-60.5 30.5q-9 8 -20.5 21.5t-22.5 28.5t-20.5 28.5t-14.5 21.5q-14 26 -16 56.5t4 62.5l35 186h-139l30 150h140l26 137h-145
l29 150h145l68 346h159l-67 -346h270l-29 -150h-268z" />
    <glyph glyph-name="Utilde" unicode="&#x168;" horiz-adv-x="1135" 
d="M121 0zM942 1349q-9 54 -67 43l-166 -26q-42 -8 -81.5 -4t-71 20t-53.5 44t-30 67l144 28q5 -26 22.5 -37t44.5 -6l166 27q42 8 81.5 4t71 -20t53.5 -44t30 -67zM991 274q-6 -27 -17 -54t-34 -52q-12 -14 -34 -34.5t-47.5 -41.5t-50.5 -39.5t-42 -27.5q-28 -14 -61 -24.5
t-62 -10.5h-274q-29 0 -60 10.5t-53 24.5q-14 9 -32 27.5t-35.5 39.5t-32 41.5t-21.5 34.5q-11 25 -12.5 52t4.5 54l184 955h168l-186 -963q-2 -11 8 -28.5t25 -34.5t31.5 -31.5t27.5 -19.5q2 0 5 -1t9 -1h252q6 0 9.5 1t5.5 1q12 5 37.5 23.5t51.5 40.5t47 43t23 32
l183 938h168z" />
    <glyph glyph-name="utilde" unicode="&#x169;" horiz-adv-x="999" 
d="M94 0zM815 1083q-9 54 -67 43l-166 -26q-42 -8 -81.5 -4t-71 20t-53.5 44t-30 67l144 28q5 -26 22.5 -37t44.5 -6l166 27q42 8 81.5 4t71 -20t53.5 -44t30 -67zM651 0v72q-18 -14 -39 -28t-44 -25.5t-46 -19t-45 -7.5h-153q-38 0 -74.5 10.5t-59.5 30.5q-10 8 -22 21.5
t-23 27.5t-20.5 27.5t-13.5 21.5q-14 26 -15.5 56t4.5 61l123 635h160l-125 -645q-2 -8 -1 -14t3 -11q6 -19 24.5 -38.5t30.5 -29.5q5 -3 10.5 -3.5t14.5 -0.5h152q14 0 41.5 13.5t56.5 32t54.5 37t35.5 28.5l121 631h160l-140 -719l-10 -164h-160z" />
    <glyph glyph-name="Umacron" unicode="&#x16a;" horiz-adv-x="1135" 
d="M121 0zM991 274q-6 -27 -17 -54t-34 -52q-12 -14 -34 -34.5t-47.5 -41.5t-50.5 -39.5t-42 -27.5q-28 -14 -61 -24.5t-62 -10.5h-274q-29 0 -60 10.5t-53 24.5q-14 9 -32 27.5t-35.5 39.5t-32 41.5t-21.5 34.5q-11 25 -12.5 52t4.5 54l184 955h168l-186 -963
q-2 -11 8 -28.5t25 -34.5t31.5 -31.5t27.5 -19.5q2 0 5 -1t9 -1h252q6 0 9.5 1t5.5 1q12 5 37.5 23.5t51.5 40.5t47 43t23 32l183 938h168zM567 1374l29 148h414l-29 -148h-414z" />
    <glyph glyph-name="umacron" unicode="&#x16b;" horiz-adv-x="999" 
d="M94 0zM651 0v72q-18 -14 -39 -28t-44 -25.5t-46 -19t-45 -7.5h-153q-38 0 -74.5 10.5t-59.5 30.5q-10 8 -22 21.5t-23 27.5t-20.5 27.5t-13.5 21.5q-14 26 -15.5 56t4.5 61l123 635h160l-125 -645q-2 -8 -1 -14t3 -11q6 -19 24.5 -38.5t30.5 -29.5q5 -3 10.5 -3.5
t14.5 -0.5h152q14 0 41.5 13.5t56.5 32t54.5 37t35.5 28.5l121 631h160l-140 -719l-10 -164h-160zM419 1079l29 148h414l-29 -148h-414z" />
    <glyph glyph-name="Ubreve" unicode="&#x16c;" horiz-adv-x="1135" 
d="M121 0zM991 274q-6 -27 -17 -54t-34 -52q-12 -14 -34 -34.5t-47.5 -41.5t-50.5 -39.5t-42 -27.5q-28 -14 -61 -24.5t-62 -10.5h-274q-29 0 -60 10.5t-53 24.5q-14 9 -32 27.5t-35.5 39.5t-32 41.5t-21.5 34.5q-11 25 -12.5 52t4.5 54l184 955h168l-186 -963
q-2 -11 8 -28.5t25 -34.5t31.5 -31.5t27.5 -19.5q2 0 5 -1t9 -1h252q6 0 9.5 1t5.5 1q12 5 37.5 23.5t51.5 40.5t47 43t23 32l183 938h168zM1013 1536q-8 -42 -29.5 -78t-53.5 -61.5t-71.5 -40t-82.5 -14.5q-42 0 -75.5 14.5t-54.5 40t-29.5 61.5t-0.5 78h92
q-4 -21 0.5 -39.5t15 -32t26.5 -21t36 -7.5q21 0 41 7.5t37 21t29 32t16 39.5h104z" />
    <glyph glyph-name="ubreve" unicode="&#x16d;" horiz-adv-x="999" 
d="M94 0zM651 0v72q-18 -14 -39 -28t-44 -25.5t-46 -19t-45 -7.5h-153q-38 0 -74.5 10.5t-59.5 30.5q-10 8 -22 21.5t-23 27.5t-20.5 27.5t-13.5 21.5q-14 26 -15.5 56t4.5 61l123 635h160l-125 -645q-2 -8 -1 -14t3 -11q6 -19 24.5 -38.5t30.5 -29.5q5 -3 10.5 -3.5
t14.5 -0.5h152q14 0 41.5 13.5t56.5 32t54.5 37t35.5 28.5l121 631h160l-140 -719l-10 -164h-160zM870 1241q-8 -42 -29.5 -78t-53.5 -61.5t-71.5 -40t-82.5 -14.5q-42 0 -75.5 14.5t-54.5 40t-29.5 61.5t-0.5 78h92q-4 -21 0.5 -39.5t15 -32t26.5 -21t36 -7.5q21 0 41 7.5
t37 21t29 32t16 39.5h104z" />
    <glyph glyph-name="Uring" unicode="&#x16e;" horiz-adv-x="1135" 
d="M121 0zM993 1514q-9 -45 -30 -81t-52 -61.5t-71 -39t-86 -13.5q-42 0 -75 16.5t-55 43.5t-30.5 62t-1.5 73q7 43 28 79t51.5 61.5t70 39.5t83.5 14q42 0 76 -16.5t57 -43.5t32.5 -62t2.5 -72zM893 1514q4 21 0 39.5t-15 32.5t-28.5 22t-40.5 8q-20 0 -39 -8t-34.5 -22
t-26.5 -32.5t-15 -39.5q-9 -44 11 -73.5t65 -29.5q21 0 41 8t36.5 22t28.5 32.5t17 40.5zM991 274q-6 -27 -17 -54t-34 -52q-12 -14 -34 -34.5t-47.5 -41.5t-50.5 -39.5t-42 -27.5q-28 -14 -61 -24.5t-62 -10.5h-274q-29 0 -60 10.5t-53 24.5q-14 9 -32 27.5t-35.5 39.5
t-32 41.5t-21.5 34.5q-11 25 -12.5 52t4.5 54l184 955h168l-186 -963q-2 -11 8 -28.5t25 -34.5t31.5 -31.5t27.5 -19.5q2 0 5 -1t9 -1h252q6 0 9.5 1t5.5 1q12 5 37.5 23.5t51.5 40.5t47 43t23 32l183 938h168z" />
    <glyph glyph-name="uring" unicode="&#x16f;" horiz-adv-x="999" 
d="M94 0zM866 1227q-9 -45 -30 -81t-52 -61.5t-71 -39t-86 -13.5q-42 0 -75 16.5t-55 43.5t-30.5 62t-1.5 73q7 43 28 79t51.5 61.5t70 39.5t83.5 14q42 0 76 -16.5t57 -43.5t32.5 -62t2.5 -72zM766 1227q4 21 0 39.5t-15 32.5t-28.5 22t-40.5 8q-20 0 -39 -8t-34.5 -22
t-26.5 -32.5t-15 -39.5q-9 -44 11 -73.5t65 -29.5q21 0 41 8t36.5 22t28.5 32.5t17 40.5zM651 0v72q-18 -14 -39 -28t-44 -25.5t-46 -19t-45 -7.5h-153q-38 0 -74.5 10.5t-59.5 30.5q-10 8 -22 21.5t-23 27.5t-20.5 27.5t-13.5 21.5q-14 26 -15.5 56t4.5 61l123 635h160
l-125 -645q-2 -8 -1 -14t3 -11q6 -19 24.5 -38.5t30.5 -29.5q5 -3 10.5 -3.5t14.5 -0.5h152q14 0 41.5 13.5t56.5 32t54.5 37t35.5 28.5l121 631h160l-140 -719l-10 -164h-160z" />
    <glyph glyph-name="Uhungarumlaut" unicode="&#x170;" horiz-adv-x="1135" 
d="M121 0zM991 274q-6 -27 -17 -54t-34 -52q-12 -14 -34 -34.5t-47.5 -41.5t-50.5 -39.5t-42 -27.5q-28 -14 -61 -24.5t-62 -10.5h-274q-29 0 -60 10.5t-53 24.5q-14 9 -32 27.5t-35.5 39.5t-32 41.5t-21.5 34.5q-11 25 -12.5 52t4.5 54l184 955h168l-186 -963
q-2 -11 8 -28.5t25 -34.5t31.5 -31.5t27.5 -19.5q2 0 5 -1t9 -1h252q6 0 9.5 1t5.5 1q12 5 37.5 23.5t51.5 40.5t47 43t23 32l183 938h168zM541 1376l217 219h162l-268 -256zM781 1376l217 219h162l-269 -256z" />
    <glyph glyph-name="uhungarumlaut" unicode="&#x171;" horiz-adv-x="999" 
d="M94 0zM651 0v72q-18 -14 -39 -28t-44 -25.5t-46 -19t-45 -7.5h-153q-38 0 -74.5 10.5t-59.5 30.5q-10 8 -22 21.5t-23 27.5t-20.5 27.5t-13.5 21.5q-14 26 -15.5 56t4.5 61l123 635h160l-125 -645q-2 -8 -1 -14t3 -11q6 -19 24.5 -38.5t30.5 -29.5q5 -3 10.5 -3.5
t14.5 -0.5h152q14 0 41.5 13.5t56.5 32t54.5 37t35.5 28.5l121 631h160l-140 -719l-10 -164h-160zM415 1081l217 219h162l-268 -256zM655 1081l217 219h162l-269 -256z" />
    <glyph glyph-name="Uogonek" unicode="&#x172;" horiz-adv-x="1135" 
d="M121 0zM991 274q-6 -27 -17 -54t-34 -52q-12 -14 -34 -34.5t-47.5 -41.5t-50.5 -39.5t-42 -27.5q-28 -14 -61 -24.5t-62 -10.5h-274q-29 0 -60 10.5t-53 24.5q-14 9 -32 27.5t-35.5 39.5t-32 41.5t-21.5 34.5q-11 25 -12.5 52t4.5 54l184 955h168l-186 -963
q-2 -11 8 -28.5t25 -34.5t31.5 -31.5t27.5 -19.5q2 0 5 -1t9 -1h252q6 0 9.5 1t5.5 1q12 5 37.5 23.5t51.5 40.5t47 43t23 32l183 938h168zM490 -92l127 -262h-166l-105 211z" />
    <glyph glyph-name="uogonek" unicode="&#x173;" horiz-adv-x="999" 
d="M94 0zM651 0v72q-18 -14 -39 -28t-44 -25.5t-46 -19t-45 -7.5h-153q-38 0 -74.5 10.5t-59.5 30.5q-10 8 -22 21.5t-23 27.5t-20.5 27.5t-13.5 21.5q-14 26 -15.5 56t4.5 61l123 635h160l-125 -645q-2 -8 -1 -14t3 -11q6 -19 24.5 -38.5t30.5 -29.5q5 -3 10.5 -3.5
t14.5 -0.5h152q14 0 41.5 13.5t56.5 32t54.5 37t35.5 28.5l121 631h160l-140 -719l-10 -164h-160zM463 -92l127 -262h-166l-105 211z" />
    <glyph glyph-name="Wcircumflex" unicode="&#x174;" horiz-adv-x="1503" 
d="M215 0zM658 1352l262 243h162l168 -243h-183l-82 133l-131 -133h-196zM1122 0h-211l-34 954l-406 -954h-211l-45 1229h168l20 -1006l422 1006h195l33 -1006l409 1006h176z" />
    <glyph glyph-name="wcircumflex" unicode="&#x175;" horiz-adv-x="1372" 
d="M135 0zM525 1057l262 243h162l168 -243h-183l-82 133l-131 -133h-196zM1006 0h-191l-74 651l-315 -651h-190l-101 883h162l63 -686l322 686h195l63 -686l322 686h174z" />
    <glyph glyph-name="Ycircumflex" unicode="&#x176;" horiz-adv-x="1040" 
d="M201 0zM643 522l-100 -522h-168l100 522l-274 707h174l208 -537q-1 0 16.5 22.5t47 60.5t67 86t76.5 99q92 118 211 269h193zM424 1352l262 243h162l168 -243h-183l-82 133l-131 -133h-196z" />
    <glyph glyph-name="ycircumflex" unicode="&#x177;" horiz-adv-x="881" 
d="M113 0zM276 -354h-163l188 354h-27l-133 883h164l98 -686l363 686h174zM280 1057l262 243h162l168 -243h-183l-82 133l-131 -133h-196z" />
    <glyph glyph-name="Ydieresis" unicode="&#x178;" horiz-adv-x="1024" 
d="M193 0zM635 522l-100 -522h-168l100 522l-274 707h174l208 -537q-1 0 16.5 22.5t47 60.5t67 86t76.5 99q92 118 211 269h193zM802 1391l35 182h170l-35 -182h-170zM473 1391l34 182h170l-34 -182h-170z" />
    <glyph glyph-name="Zacute" unicode="&#x179;" horiz-adv-x="1026" 
d="M72 0zM615 1364l225 231h207l-283 -272zM72 0l24 129l768 940h-585l30 160h795l-27 -133l-751 -936h571l-31 -160h-794z" />
    <glyph glyph-name="zacute" unicode="&#x17a;" horiz-adv-x="909" 
d="M53 0zM506 1069l225 231h207l-283 -272zM53 0l23 125l569 608h-467l29 150h686l-25 -127l-567 -606h473l-29 -150h-692z" />
    <glyph glyph-name="Zdotaccent" unicode="&#x17b;" horiz-adv-x="1026" 
d="M72 0zM72 0l24 129l768 940h-585l30 160h795l-27 -133l-751 -936h571l-31 -160h-794zM639 1360l35 182h184l-34 -182h-185z" />
    <glyph glyph-name="zdotaccent" unicode="&#x17c;" horiz-adv-x="909" 
d="M53 0zM53 0l23 125l569 608h-467l29 150h686l-25 -127l-567 -606h473l-29 -150h-692zM501 1065l35 182h184l-34 -182h-185z" />
    <glyph glyph-name="Zcaron" unicode="&#x17d;" horiz-adv-x="1026" 
d="M72 0zM1086 1595l-263 -243h-163l-168 243h178l80 -133l133 133h203zM72 0l24 129l768 940h-585l30 160h795l-27 -133l-751 -936h571l-31 -160h-794z" />
    <glyph glyph-name="zcaron" unicode="&#x17e;" horiz-adv-x="909" 
d="M53 0zM927 1300l-263 -243h-163l-168 243h178l80 -133l133 133h203zM53 0l23 125l569 608h-467l29 150h686l-25 -127l-567 -606h473l-29 -150h-692z" />
    <glyph glyph-name="longs" unicode="&#x17f;" horiz-adv-x="696" 
d="M655 1090q-6 0 -15.5 -0.5t-14.5 -4.5q-10 -5 -27.5 -17t-35 -26.5t-31.5 -29.5t-17 -25q-2 -5 -2.5 -7.5t-3.5 -14.5l-184 -965h-162l141 733h-145l28 150h146l20 98q6 32 19.5 62.5t36.5 56.5q7 8 21.5 21.5t31 27.5t33.5 27.5t30 21.5q34 20 73.5 30.5t76.5 10.5h166
l-29 -149h-156z" />
    <glyph glyph-name="florin" unicode="&#x192;" horiz-adv-x="696" 
d="M657 1090q-6 0 -15.5 -0.5t-14.5 -4.5q-10 -5 -25.5 -16t-31 -24t-29 -26t-19.5 -22q-5 -6 -7.5 -12.5t-4.5 -17.5l-16 -84h155l-28 -150h-156l-160 -825q-6 -32 -20 -62.5t-39 -56.5q-8 -8 -22.5 -21.5t-31 -28.5t-33.5 -28.5t-30 -21.5q-34 -20 -72.5 -30.5
t-72.5 -10.5h-154l29 149h139q6 0 14 0.5t13 3.5q12 6 28 18t32 26t30 28.5t22 26.5q5 5 8 22l158 811h-145l28 150h146l20 98q6 32 19.5 62.5t36.5 56.5q7 8 21.5 21.5t31 27.5t33.5 27.5t30 21.5q34 20 73.5 30.5t76.5 10.5h155l-28 -149h-144z" />
    <glyph glyph-name="Scommaaccent" unicode="&#x218;" horiz-adv-x="1167" 
d="M94 0zM1042 276q-6 -26 -17 -54.5t-34 -53.5q-11 -14 -33.5 -34.5t-48.5 -41.5t-51.5 -39.5t-42.5 -27.5q-28 -14 -61 -24.5t-62 -10.5h-340q-41 0 -74.5 15t-61.5 39t-49.5 53.5t-37.5 58.5q-9 17 -16.5 41.5t-18.5 64.5l158 41q3 -11 6 -20t6 -17q8 -18 19.5 -35.5
t24 -32.5t25 -26.5t23.5 -17.5q7 -3 10.5 -3.5t8.5 -0.5h330q8 0 16 4q13 6 38 22.5t49.5 37t44 40.5t21.5 33l25 116q5 25 -4.5 46t-28.5 26l-538 146q-33 9 -56 30t-35.5 49.5t-16 61.5t2.5 67l25 121q5 26 16 55t33 54q12 14 34.5 35t48.5 42.5t51.5 40t43.5 27.5
q28 14 61 24.5t62 10.5h309q40 0 73.5 -15.5t60.5 -39.5t48.5 -53.5t36.5 -57.5q10 -15 18 -39.5t19 -64.5l-157 -43q-5 12 -7 19t-4 11t-2 7q-5 17 -16.5 34.5t-25 32.5t-27 27t-23.5 18q-2 1 -5 2q-6 2 -11 2h-297q-11 0 -19 -4q-12 -6 -37 -23.5t-50.5 -38.5t-45.5 -41
t-22 -32l-21 -102q-5 -23 3.5 -43t27.5 -25l534 -149q33 -9 57 -29.5t38.5 -48.5t18.5 -60.5t-3 -66.5zM635 -152l-187 -211h-188l229 262z" />
    <glyph glyph-name="scommaaccent" unicode="&#x219;" horiz-adv-x="961" 
d="M47 0zM780 633q-5 17 -15.5 36t-24 35.5t-29 27.5t-31.5 11h-219q-17 0 -25 -4q-25 -11 -54 -36.5t-46 -47.5q-2 -2 -5 -9.5t-5 -16.5l-11 -47q-3 -17 7 -32.5t34 -17.5l338 -22q41 -3 74.5 -19.5t56 -43t32 -62t1.5 -76.5l-14 -69q-6 -32 -21.5 -61.5t-38.5 -55.5
q-8 -9 -20.5 -22t-27.5 -26t-31 -25t-29 -19q-32 -20 -70 -30.5t-76 -10.5h-245q-37 0 -72 10.5t-61 30.5q-15 12 -30 31t-29 42t-26 48t-20 49l152 49q11 -34 31 -63.5t44 -43.5q10 -4 25 -4h248q14 0 33 10t37.5 24t34.5 29.5t24 26.5q3 5 5 9.5t5 13.5l12 61
q3 17 -7.5 32t-35.5 17l-338 21q-41 3 -74 19.5t-55 43t-31 62t-1 76.5l12 59q6 32 19.5 61.5t37.5 55.5q8 9 20.5 21.5t27.5 25.5t30.5 25t28.5 20q34 20 72 30.5t75 10.5h213q37 0 72 -10.5t59 -30.5q16 -13 32 -32t30 -41.5t26 -47t21 -49.5zM533 -143l-187 -211h-188
l229 262z" />
    <glyph glyph-name="circumflex" unicode="&#x2c6;" horiz-adv-x="868" 
d="M332 1057l262 243h162l168 -243h-183l-82 133l-131 -133h-196z" />
    <glyph glyph-name="caron" unicode="&#x2c7;" horiz-adv-x="868" 
d="M1008 1300l-263 -243h-163l-168 243h178l80 -133l133 133h203z" />
    <glyph glyph-name="breve" unicode="&#x2d8;" horiz-adv-x="827" 
d="M870 1241q-8 -42 -29.5 -78t-53.5 -61.5t-71.5 -40t-82.5 -14.5q-42 0 -75.5 14.5t-54.5 40t-29.5 61.5t-0.5 78h92q-4 -21 0.5 -39.5t15 -32t26.5 -21t36 -7.5q21 0 41 7.5t37 21t29 32t16 39.5h104z" />
    <glyph glyph-name="dotaccent" unicode="&#x2d9;" horiz-adv-x="442" 
d="M268 1065l35 182h184l-34 -182h-185z" />
    <glyph glyph-name="ring" unicode="&#x2da;" horiz-adv-x="1008" 
d="M866 1227q-9 -45 -30 -81t-52 -61.5t-71 -39t-86 -13.5q-42 0 -75 16.5t-55 43.5t-30.5 62t-1.5 73q7 43 28 79t51.5 61.5t70 39.5t83.5 14q42 0 76 -16.5t57 -43.5t32.5 -62t2.5 -72zM766 1227q4 21 0 39.5t-15 32.5t-28.5 22t-40.5 8q-20 0 -39 -8t-34.5 -22
t-26.5 -32.5t-15 -39.5q-9 -44 11 -73.5t65 -29.5q21 0 41 8t36.5 22t28.5 32.5t17 40.5z" />
    <glyph glyph-name="ogonek" unicode="&#x2db;" horiz-adv-x="831" 
d="M463 -92l127 -262h-166l-105 211z" />
    <glyph glyph-name="tilde" unicode="&#x2dc;" horiz-adv-x="913" 
d="M788 1083q-9 54 -67 43l-166 -26q-42 -8 -81.5 -4t-71 20t-53.5 44t-30 67l144 28q5 -26 22.5 -37t44.5 -6l166 27q42 8 81.5 4t71 -20t53.5 -44t30 -67z" />
    <glyph glyph-name="hungarumlaut" unicode="&#x2dd;" horiz-adv-x="760" 
d="M475 1081l217 219h162l-268 -256zM715 1081l217 219h162l-269 -256z" />
    <glyph glyph-name="pi" unicode="&#x3c0;" horiz-adv-x="1255" 
d="M766 0v133l117 600h-398l-141 -733h-160l142 733h-162l29 150h1056l-28 -150h-179l-116 -588v-145h-160z" />
    <glyph glyph-name="afii10023" unicode="&#x401;" horiz-adv-x="1047" 
d="M84 0zM811 1391l35 182h170l-35 -182h-170zM482 1391l34 182h170l-34 -182h-170zM84 0l238 1229h753l-31 -160h-583l-74 -375h551l-31 -159h-551l-71 -375h583l-30 -160h-754z" />
    <glyph glyph-name="afii10051" unicode="&#x402;" horiz-adv-x="1286" 
d="M678 150h137q6 0 9 1t5 1q13 6 39 23t52 38t46.5 42t22.5 34l58 303q3 14 2.5 23t-2.5 14q-13 31 -35 57t-43 41q-2 2 -7.5 4t-11.5 2h-159q-5 0 -11.5 -0.5t-11.5 -3.5q-19 -12 -42 -28.5t-46 -36t-43 -42t-33 -47.5l-110 -575h-170l208 1069h-309l31 160h786l-30 -160
h-310l-49 -252q15 13 34 26.5t40.5 24.5t43.5 18t42 7h170q29 0 59 -10.5t52 -24.5q13 -9 31 -28t35 -40.5t31 -42.5t21 -34q13 -25 15 -52t-4 -55l-64 -330q-6 -27 -18 -55t-35 -53q-12 -14 -34 -34.5t-47.5 -41.5t-50.5 -39.5t-42 -27.5q-28 -14 -62 -24.5t-63 -10.5h-158
z" />
    <glyph glyph-name="afii10052" unicode="&#x403;" horiz-adv-x="997" 
d="M86 0zM612 1415l225 231h207l-283 -272zM467 1069l-207 -1069h-174l238 1229h786l-31 -160h-612z" />
    <glyph glyph-name="afii10053" unicode="&#x404;" horiz-adv-x="1108" 
d="M262 971q6 31 21 60.5t36 55.5q9 9 26 24.5t36.5 32t38.5 30.5t31 22q31 20 69.5 31.5t73.5 11.5h285q40 0 73 -15t60 -39t48 -53t36 -57q11 -20 21 -45.5t18 -62.5l-160 -41q-3 7 -5.5 13t-4.5 11q-3 5 -4 11q-8 19 -19 36.5t-22.5 32.5t-23 26t-19.5 17q-7 5 -12 5.5
t-11 0.5h-274q-15 0 -35.5 -11.5t-41.5 -27.5t-38.5 -33t-26.5 -28q-2 -2 -4 -7.5t-4 -13.5q-14 -66 -23 -115t-15 -81q-7 -38 -11 -64h397l-30 -157h-398l-59 -297q-3 -17 0 -23q11 -20 25 -39.5t32 -31.5q5 -4 12 -4.5t13 -0.5h280h6.5t5.5 1q3 0 5 1q12 6 31 18.5t40 29
t41 36t33 37.5q3 5 7 10q3 5 7 10.5t9 12.5l159 -43q-26 -40 -44.5 -64.5t-32.5 -41.5q-15 -18 -35 -37t-41.5 -37t-43.5 -33.5t-42 -26.5q-28 -15 -61.5 -23.5t-61.5 -8.5h-285q-35 0 -69.5 11.5t-57.5 31.5q-9 7 -22 22t-26.5 31.5t-24.5 32t-15 24.5q-24 53 -12 115
q16 83 28 145t22 113t19 97.5t19 98.5t22.5 115t28.5 148z" />
    <glyph glyph-name="afii10054" unicode="&#x405;" horiz-adv-x="1167" 
d="M94 0zM1042 276q-6 -26 -17 -54.5t-34 -53.5q-11 -14 -33.5 -34.5t-48.5 -41.5t-51.5 -39.5t-42.5 -27.5q-28 -14 -61 -24.5t-62 -10.5h-340q-41 0 -74.5 15t-61.5 39t-49.5 53.5t-37.5 58.5q-9 17 -16.5 41.5t-18.5 64.5l158 41q3 -11 6 -20t6 -17q8 -18 19.5 -35.5
t24 -32.5t25 -26.5t23.5 -17.5q7 -3 10.5 -3.5t8.5 -0.5h330q8 0 16 4q13 6 38 22.5t49.5 37t44 40.5t21.5 33l25 116q5 25 -4.5 46t-28.5 26l-538 146q-33 9 -56 30t-35.5 49.5t-16 61.5t2.5 67l25 121q5 26 16 55t33 54q12 14 34.5 35t48.5 42.5t51.5 40t43.5 27.5
q28 14 61 24.5t62 10.5h309q40 0 73.5 -15.5t60.5 -39.5t48.5 -53.5t36.5 -57.5q10 -15 18 -39.5t19 -64.5l-157 -43q-5 12 -7 19t-4 11t-2 7q-5 17 -16.5 34.5t-25 32.5t-27 27t-23.5 18q-2 1 -5 2q-6 2 -11 2h-297q-11 0 -19 -4q-12 -6 -37 -23.5t-50.5 -38.5t-45.5 -41
t-22 -32l-21 -102q-5 -23 3.5 -43t27.5 -25l534 -149q33 -9 57 -29.5t38.5 -48.5t18.5 -60.5t-3 -66.5z" />
    <glyph glyph-name="afii10055" unicode="&#x406;" horiz-adv-x="457" 
d="M77 0zM77 0l237 1229h170l-237 -1229h-170z" />
    <glyph glyph-name="afii10056" unicode="&#x407;" horiz-adv-x="457" 
d="M71 0zM506 1391l35 182h170l-35 -182h-170zM177 1391l34 182h170l-34 -182h-170zM71 0l237 1229h170l-237 -1229h-170z" />
    <glyph glyph-name="afii10057" unicode="&#x408;" horiz-adv-x="956" 
d="M33 0zM801 276q-6 -27 -18 -55t-35 -53q-12 -13 -34 -33.5t-47 -42t-50 -40t-42 -27.5q-27 -14 -61 -24.5t-63 -10.5h-160q-42 0 -75.5 15t-60.5 39t-48 53.5t-37 58.5q-8 15 -17 40.5t-20 65.5l160 41q4 -21 14 -43.5t24 -43t30.5 -37t31.5 -25.5q6 -3 10.5 -3.5
t9.5 -0.5h150q10 0 12 2q12 5 38 23t52 40t47 43t23 33l182 938h168z" />
    <glyph glyph-name="afii10058" unicode="&#x409;" horiz-adv-x="1745" 
d="M-57 150h108q11 0 19 4q13 7 38 24t49.5 37.5t44 40t21.5 31.5l183 942h747l-100 -512h387q35 0 68.5 -10.5t58.5 -30.5q9 -8 22.5 -22.5t27 -30.5t24 -31.5t14.5 -24.5q24 -53 12 -114l-35 -185q-12 -64 -57 -116q-8 -9 -24.5 -24.5t-35.5 -32t-38 -31t-31 -21.5
q-32 -20 -71 -31.5t-75 -11.5h-557l207 1069h-403l-156 -793q-6 -27 -19 -55t-36 -53q-12 -13 -34 -33.5t-47 -42t-49.5 -40t-41.5 -27.5q-28 -14 -62 -24.5t-63 -10.5h-127zM1501 461q3 14 0 22q-4 11 -12.5 24t-20.5 24t-25.5 18.5t-27.5 7.5h-393l-76 -397h385
q11 1 30 12.5t38.5 27.5t36 31.5t22.5 24.5q5 5 8 23z" />
    <glyph glyph-name="afii10059" unicode="&#x40a;" horiz-adv-x="1757" 
d="M864 547h-504l-106 -547h-170l238 1229h172l-103 -522h504l100 522h170l-104 -522h395q35 0 68.5 -10.5t58.5 -30.5q9 -8 22.5 -22.5t27 -30.5t24 -31.5t14.5 -24.5q26 -53 12 -115l-34 -174q-7 -31 -21.5 -60.5t-36.5 -55.5q-8 -9 -24 -24.5t-35.5 -32t-38.5 -31
t-31 -21.5q-32 -20 -71 -31.5t-74 -11.5h-559zM1518 451q3 14 0 22q-4 11 -13 24t-20.5 24t-25.5 18.5t-27 7.5h-400l-74 -387h390q10 1 29 12.5t38.5 27.5t36.5 31.5t23 24.5q2 2 4 3t4 9z" />
    <glyph glyph-name="afii10060" unicode="&#x40b;" horiz-adv-x="1296" 
d="M934 0l113 594q2 8 2.5 17.5t-2.5 17.5q-6 15 -16.5 31t-22 30t-23.5 25t-22 16q-2 0 -5.5 1t-9.5 1h-157q-4 0 -7 -0.5t-5 -0.5q-3 -1 -5 -1q-20 -11 -44 -27t-47 -36t-43.5 -43t-33.5 -47l-112 -578h-168l204 1069h-307l31 160h786l-30 -160h-310l-49 -252
q15 13 34 26.5t40.5 24.5t43.5 18t42 7h170q29 0 59 -10.5t52 -24.5q13 -9 31 -28t35 -40.5t31 -42.5t21 -34q13 -25 15 -52t-4 -55l-117 -606h-170z" />
    <glyph glyph-name="afii10061" unicode="&#x40c;" horiz-adv-x="1069" 
d="M84 0zM649 1415l225 231h207l-283 -272zM969 1229h221l-660 -623l443 -606h-213l-379 535h-27l-102 -535h-168l238 1229h167l-104 -537h16z" />
    <glyph glyph-name="afii10062" unicode="&#x40e;" horiz-adv-x="1040" 
d="M215 0zM964 1587q-8 -42 -29.5 -78t-53.5 -61.5t-71.5 -40t-82.5 -14.5q-42 0 -75.5 14.5t-54.5 40t-29.5 61.5t-0.5 78h92q-4 -21 0.5 -39.5t15 -32t26.5 -21t36 -7.5q21 0 41 7.5t37 21t29 32t16 39.5h104zM410 0h-168l211 362h-39l-199 867h170l162 -707l436 707h186z
" />
    <glyph glyph-name="afii10145" unicode="&#x40f;" horiz-adv-x="1157" 
d="M604 0l-47 -240h-170l47 240h-350l238 1229h172l-207 -1069h522l207 1069h170l-238 -1229h-344z" />
    <glyph glyph-name="afii10017" unicode="&#x410;" horiz-adv-x="1159" 
d="M0 0zM885 0l-39 274h-533l-147 -274h-184l665 1229h221l191 -1229h-174zM731 1057l-334 -625h426z" />
    <glyph glyph-name="afii10018" unicode="&#x411;" horiz-adv-x="1102" 
d="M322 1229h772l-31 -160h-602l-68 -352h408q35 0 68.5 -10.5t58.5 -30.5q9 -8 22.5 -22.5t27 -30.5t24 -31.5t14.5 -24.5q24 -53 12 -114l-35 -185q-12 -64 -57 -116q-8 -9 -24.5 -24.5t-35.5 -32t-38 -31t-31 -21.5q-32 -20 -71 -31.5t-74 -11.5h-578zM862 459q3 14 0 22
q-4 11 -12.5 24t-20.5 24.5t-25.5 19.5t-27.5 8h-418l-75 -397h411q11 1 29.5 13t38 28.5t35.5 32.5t22 24q5 8 8 23z" />
    <glyph glyph-name="afii10019" unicode="&#x412;" horiz-adv-x="1137" 
d="M84 0zM991 266q-13 -64 -55 -114q-8 -9 -24.5 -24.5t-35.5 -32t-38 -31t-31 -21.5q-32 -20 -71 -31.5t-74 -11.5h-578l238 1229h577q37 0 70.5 -12.5t58.5 -32.5q9 -8 22.5 -22t26.5 -30t23.5 -31t15.5 -24q13 -26 14 -57t-6 -62l-28 -149q-7 -36 -20.5 -63t-32 -48.5
t-41.5 -39t-50 -35.5q18 -22 34 -41t26.5 -40.5t14 -46.5t-2.5 -59zM958 969q5 17 0 20q-4 11 -12 25t-19 26t-23.5 20.5t-24.5 8.5h-418l-72 -369h397q14 0 34.5 11.5t40.5 28t37.5 33.5t25.5 28q2 2 4 8t4 14zM858 444q2 8 1 13.5t-1 7.5q-4 9 -11.5 20.5t-16.5 22.5
t-18 20t-15 13q-2 2 -7.5 2h-13.5h-418l-73 -383h395q15 0 35 11.5t40 27.5t37 33t25 28q5 5 8 21z" />
    <glyph glyph-name="afii10020" unicode="&#x413;" horiz-adv-x="997" 
d="M467 1069l-207 -1069h-174l238 1229h786l-31 -160h-612z" />
    <glyph glyph-name="afii10021" unicode="&#x414;" horiz-adv-x="1260" 
d="M1049 -217h-166l69 217h-821l-43 -217h-168l74 377h88h17.5t15.5 2q12 5 34.5 18.5t46 31.5t43 38.5t25.5 38.5l293 940h678l-207 -1069h146zM356 160h502l176 909h-346l-252 -782q-9 -28 -22.5 -56t-36.5 -53z" />
    <glyph glyph-name="afii10022" unicode="&#x415;" horiz-adv-x="1047" 
d="M84 0zM84 0l238 1229h753l-31 -160h-583l-74 -375h551l-31 -159h-551l-71 -375h583l-30 -160h-754z" />
    <glyph glyph-name="afii10024" unicode="&#x416;" horiz-adv-x="1673" 
d="M1583 1229h219l-653 -619l426 -610h-205l-369 535h-45l-102 -535h-168l102 537h-26l-567 -537h-220l654 618l-426 611h205l368 -535h43l105 535h168l-105 -537h29z" />
    <glyph glyph-name="afii10025" unicode="&#x417;" horiz-adv-x="1085" 
d="M940 254q-6 -31 -21 -61t-36 -56q-9 -9 -26 -24t-36.5 -31.5t-38 -31t-30.5 -21.5q-31 -20 -70 -31.5t-74 -11.5h-264q-40 0 -73 15t-60 39t-48 53t-36 57q-11 20 -21 45.5t-18 62.5l160 41q3 -7 5.5 -13t4.5 -11q2 -6 4 -11q8 -19 19 -36.5t22.5 -32.5t23 -26t19.5 -17
q6 -5 11 -6t12 -1h254q15 0 35.5 11.5t41 28t38 33.5t26.5 28q5 5 8 20l35 178q2 14 0 21q-4 11 -12 24t-18.5 24.5t-22 19.5t-23.5 8h-270l31 157h245q19 0 23 4q12 6 28 16.5t32 23t29 26t21 25.5q3 5 6 10.5t5 13.5l30 164q3 15 0 23q-11 20 -24.5 39.5t-32.5 31.5
q-5 3 -11.5 3.5t-13.5 0.5h-260q-3 0 -6 -0.5t-5 -0.5q-3 -1 -5 -1q-12 -5 -31.5 -17.5t-40.5 -29.5t-40.5 -36t-32.5 -38q-3 -4 -7 -9q-3 -5 -7 -10.5t-9 -12.5l-160 43q26 40 45 64.5t33 41.5q15 18 35 37t41.5 37t43.5 33t42 26q28 16 61.5 24.5t61.5 8.5h264
q35 0 69.5 -11.5t57.5 -31.5q9 -8 22.5 -22.5t26.5 -31t23.5 -32.5t15.5 -25q24 -51 12 -114l-32 -166q-6 -32 -18.5 -57t-30.5 -46.5t-40.5 -40.5t-48.5 -40q18 -21 32.5 -41t24 -41.5t12.5 -47t-3 -57.5z" />
    <glyph glyph-name="afii10026" unicode="&#x418;" horiz-adv-x="1169" 
d="M84 0l238 1229h165l-182 -940l694 940h199l-237 -1229h-166l180 932l-696 -932h-195z" />
    <glyph glyph-name="afii10027" unicode="&#x419;" horiz-adv-x="1169" 
d="M73 0zM1017 1587q-8 -42 -29.5 -78t-53.5 -61.5t-71.5 -40t-82.5 -14.5q-42 0 -75.5 14.5t-54.5 40t-29.5 61.5t-0.5 78h92q-4 -21 0.5 -39.5t15 -32t26.5 -21t36 -7.5q21 0 41 7.5t37 21t29 32t16 39.5h104zM73 0l238 1229h165l-182 -940l694 940h199l-237 -1229h-166
l180 932l-696 -932h-195z" />
    <glyph glyph-name="afii10028" unicode="&#x41a;" horiz-adv-x="1069" 
d="M981 1229h219l-653 -619l426 -610h-205l-369 535h-45l-102 -535h-168l238 1229h167l-104 -537h29z" />
    <glyph glyph-name="afii10029" unicode="&#x41b;" horiz-adv-x="1178" 
d="M-57 150h108q11 0 19 4q13 7 38 24t49.5 37.5t44 40t21.5 31.5l183 942h788l-238 -1229h-168l205 1069h-446l-156 -793q-6 -27 -19 -55t-36 -53q-12 -13 -34 -33.5t-47 -42t-49.5 -40t-41.5 -27.5q-28 -14 -62 -24.5t-63 -10.5h-127z" />
    <glyph glyph-name="afii10030" unicode="&#x41c;" horiz-adv-x="1372" 
d="M84 0zM999 0l189 977l-449 -660h-110l-191 660l-188 -977h-166l238 1229h202l199 -670l459 670h219l-238 -1229h-164z" />
    <glyph glyph-name="afii10031" unicode="&#x41d;" horiz-adv-x="1157" 
d="M84 0zM778 0l103 535h-525l-102 -535h-170l238 1229h170l-105 -535h524l105 535h170l-238 -1229h-170z" />
    <glyph glyph-name="afii10032" unicode="&#x41e;" horiz-adv-x="1186" 
d="M121 0zM1042 276q-6 -27 -18 -55t-35 -53q-12 -14 -34 -34.5t-47.5 -41.5t-50.5 -39.5t-42 -27.5q-28 -14 -62 -24.5t-63 -10.5h-323q-29 0 -59 10.5t-52 24.5q-14 9 -32 27.5t-36 39.5t-33 41.5t-22 34.5q-11 25 -11.5 53.5t5.5 54.5l131 674q5 26 16.5 55t32.5 54
q12 14 34.5 35t48.5 42.5t51.5 40t43.5 27.5q28 14 61 24.5t62 10.5h324q29 0 60 -10.5t52 -24.5q13 -9 31 -28t35 -40.5t31.5 -42.5t21.5 -34q13 -25 14.5 -53t-3.5 -56zM1006 958q2 7 1 12.5t-3 8.5q-8 15 -18.5 30t-21.5 28t-22 23t-20 15q-8 4 -19 4h-305q-10 0 -18 -4
q-14 -6 -39 -23t-50.5 -38t-45.5 -42t-23 -34l-129 -670q-2 -11 7 -27.5t22.5 -33t29 -30.5t25.5 -21q9 -6 20 -6h305q7 0 12.5 2t8.5 4q13 6 38 22.5t49.5 37t44 40.5t22.5 33z" />
    <glyph glyph-name="afii10033" unicode="&#x41f;" horiz-adv-x="1157" 
d="M780 0l207 1069h-524l-209 -1069h-170l238 1229h864l-238 -1229h-168z" />
    <glyph glyph-name="afii10034" unicode="&#x420;" horiz-adv-x="1102" 
d="M84 0zM1092 776q-7 -31 -21 -59.5t-37 -54.5q-8 -9 -24.5 -24.5t-36 -32t-39 -31t-31.5 -21.5q-32 -20 -70 -30.5t-73 -10.5h-408l-98 -512h-170l238 1229h577q35 0 70.5 -11.5t58.5 -31.5q9 -8 22.5 -22.5t26.5 -30.5t23.5 -31.5t15.5 -24.5q11 -26 15 -56t-3 -60z
M961 975q2 8 2 14v8q0 7 -8 19t-19.5 24t-23.5 20.5t-19 8.5h-12h-420l-78 -397h389q14 0 35 11.5t42.5 27t40.5 32t28 25.5q7 7 10 23z" />
    <glyph glyph-name="afii10035" unicode="&#x421;" horiz-adv-x="1108" 
d="M119 0zM997 262q-15 -28 -35.5 -56.5t-41.5 -49.5q-28 -28 -60.5 -57.5t-69 -53.5t-75 -39.5t-78.5 -15.5h-270q-29 0 -60 10.5t-53 24.5q-14 9 -32 27.5t-35.5 39.5t-32 41.5t-21.5 34.5q-11 25 -12.5 53t4.5 55l131 676q9 58 51 107q12 13 34 34t48 42.5t51 40.5t43 28
q28 14 61 24.5t62 10.5h273q40 0 73 -15.5t60 -39.5t48 -53.5t36 -57.5q9 -15 18.5 -39.5t20.5 -64.5l-164 -45q-5 23 -16 46t-26 43t-31.5 36.5t-31.5 27.5q-2 0 -4 1q-2 0 -4.5 0.5t-7.5 0.5h-252q-10 0 -14 -2q-12 -5 -33.5 -20t-44.5 -33.5t-44.5 -38.5t-33.5 -35
q-2 -2 -4.5 -10.5t-4 -18.5t-3 -19t-2.5 -13l-121 -625q-2 -12 7 -29.5t22.5 -34t29 -30t25.5 -18.5q4 -2 14 -2h258q10 0 13 1q3 0 4 1q18 9 42 25.5t47.5 37.5t44.5 44.5t34 47.5z" />
    <glyph glyph-name="afii10036" unicode="&#x422;" horiz-adv-x="1032" 
d="M223 0zM743 1069l-206 -1069h-170l206 1069h-350l31 160h868l-30 -160h-349z" />
    <glyph glyph-name="afii10037" unicode="&#x423;" horiz-adv-x="1024" 
d="M410 0h-168l211 362h-39l-199 867h170l162 -707l436 707h186z" />
    <glyph glyph-name="afii10038" unicode="&#x424;" horiz-adv-x="1217" 
d="M1073 276q-6 -27 -18 -55t-35 -53q-12 -14 -34 -34.5t-47.5 -41.5t-50.5 -39.5t-42 -27.5q-28 -14 -62 -24.5t-63 -10.5h-123l-35 -183h-114l34 183h-116q-29 0 -59 10.5t-52 24.5q-14 9 -32 27.5t-36 39.5t-33 41.5t-22 34.5q-11 25 -11.5 53.5t5.5 54.5l131 674
q5 26 16.5 55t32.5 54q12 14 34.5 35t48.5 42.5t51.5 40t43.5 27.5q28 14 61 24.5t62 10.5h117l33 162h114l-32 -162h123q29 0 60 -10.5t52 -24.5q13 -9 31 -28t35 -40.5t31.5 -42.5t21.5 -34q12 -25 13.5 -53t-3.5 -56zM1036 958q2 7 1 12.5t-3 8.5q-8 15 -18 30t-21 28
t-22.5 23t-20.5 15q-8 4 -18 4h-125l-180 -929h104q6 0 12 2t9 4q13 6 37.5 22.5t49.5 37t44.5 40.5t21.5 33zM377 156q9 -6 20 -6h117l180 929h-96q-10 0 -18 -4q-14 -6 -39 -23t-50.5 -38t-45.5 -42t-23 -34l-129 -670q-2 -11 7 -27.5t22.5 -33t29 -30.5t25.5 -21z" />
    <glyph glyph-name="afii10039" unicode="&#x425;" 
d="M0 0zM-23 0l523 639l-264 590h174l202 -453l373 453h195l-498 -606l279 -623h-175l-217 485l-395 -485h-197z" />
    <glyph glyph-name="afii10040" unicode="&#x426;" horiz-adv-x="1198" 
d="M987 -217h-166l70 217h-807l238 1229h167l-204 -1069h503l209 1069h168l-207 -1069h154z" />
    <glyph glyph-name="afii10041" unicode="&#x427;" horiz-adv-x="1102" 
d="M1012 1229h168l-238 -1229h-168l98 512h-409q-35 0 -69.5 10.5t-57.5 30.5q-9 7 -22.5 21.5t-27 31t-25 32t-15.5 24.5q-11 26 -15 54.5t2 59.5l89 453h167l-88 -459q-2 -8 -3 -13.5t1 -8.5q6 -11 14.5 -24t19.5 -24.5t23.5 -19.5t26.5 -8h420z" />
    <glyph glyph-name="afii10042" unicode="&#x428;" horiz-adv-x="1313" 
d="M1341 1229l-237 -1229h-1020l238 1229h172l-207 -1069h250l206 1069h168l-206 -1069h260l206 1069h170z" />
    <glyph glyph-name="afii10043" unicode="&#x429;" horiz-adv-x="1360" 
d="M1151 -217h-166l68 217h-969l238 1229h172l-207 -1069h250l206 1069h168l-206 -1069h260l206 1069h170l-206 -1069h139z" />
    <glyph glyph-name="afii10044" unicode="&#x42a;" horiz-adv-x="1223" 
d="M410 1069h-240l31 160h409l-98 -512h408q35 0 68.5 -10.5t58.5 -30.5q9 -8 22.5 -22.5t26.5 -30.5t24 -31.5t15 -24.5q24 -53 12 -114l-35 -185q-6 -31 -21 -60.5t-36 -55.5q-8 -9 -24.5 -24.5t-36 -32t-38 -31t-30.5 -21.5q-32 -20 -71.5 -31.5t-74.5 -11.5h-577z
M981 461q3 14 0 22q-4 11 -12.5 24t-20.5 24t-25.5 18.5t-27.5 7.5h-418l-76 -397h410q11 1 30 12.5t38.5 27.5t36 31.5t22.5 24.5q5 5 8 23z" />
    <glyph glyph-name="afii10045" unicode="&#x42b;" horiz-adv-x="1516" 
d="M1137 0l239 1229h168l-237 -1229h-170zM322 1229h170l-99 -512h408q35 0 68.5 -10.5t58.5 -30.5q9 -8 22.5 -22.5t27 -30.5t24 -31.5t14.5 -24.5q24 -53 12 -114l-35 -185q-12 -64 -57 -116q-8 -9 -24.5 -24.5t-35.5 -32t-38 -31t-31 -21.5q-32 -20 -71 -31.5t-74 -11.5
h-578zM862 461q3 14 0 22q-4 11 -12.5 24t-20.5 24t-25.5 18.5t-27.5 7.5h-418l-75 -397h409q11 1 30 12.5t38.5 27.5t36 31.5t22.5 24.5q5 5 8 23z" />
    <glyph glyph-name="afii10046" unicode="&#x42c;" horiz-adv-x="1102" 
d="M322 1229h170l-99 -512h408q35 0 68.5 -10.5t58.5 -30.5q9 -8 22.5 -22.5t27 -30.5t24 -31.5t14.5 -24.5q24 -53 12 -114l-35 -185q-12 -64 -57 -116q-8 -9 -24.5 -24.5t-35.5 -32t-38 -31t-31 -21.5q-32 -20 -71 -31.5t-74 -11.5h-578zM862 461q3 14 0 22
q-4 11 -12.5 24t-20.5 24t-25.5 18.5t-27.5 7.5h-418l-75 -397h409q11 1 30 12.5t38.5 27.5t36 31.5t22.5 24.5q5 5 8 23z" />
    <glyph glyph-name="afii10047" unicode="&#x42d;" horiz-adv-x="1106" 
d="M961 254q-14 -64 -58 -117q-8 -9 -25 -24t-36.5 -31.5t-38.5 -31t-31 -21.5q-31 -20 -69.5 -31.5t-73.5 -11.5h-285q-40 0 -73 15t-60 39t-48 53t-36 57q-11 20 -21 45.5t-18 62.5l160 41q3 -7 5.5 -13t4.5 -11q2 -6 4 -11q8 -19 19 -36.5t22.5 -32.5t23 -26t19.5 -17
q6 -5 11 -6t12 -1h274q15 0 35.5 11.5t41.5 28t38.5 33.5t25.5 28q2 2 4.5 7t4.5 13q13 66 22.5 117t16.5 86q8 41 14 72h-397l30 157h398l55 283q3 15 0 23q-11 20 -25 39.5t-33 31.5q-5 3 -11.5 3.5t-12.5 0.5h-281q-3 0 -6 -0.5t-5 -0.5q-3 -1 -5 -1q-12 -5 -31.5 -17.5
t-40.5 -29.5t-40.5 -36t-32.5 -38q-3 -4 -7 -9q-3 -5 -7 -10.5t-9 -12.5l-160 43q26 40 45 64.5t33 41.5q15 18 35 37t41.5 37t43.5 33t42 26q28 16 61.5 24.5t61.5 8.5h284q36 0 70 -11.5t57 -31.5q9 -8 22.5 -22.5t26.5 -31t23.5 -32.5t15.5 -25q25 -51 13 -114
q-16 -83 -28 -145t-22 -113t-19 -97.5t-19 -98.5t-22.5 -115t-28.5 -148z" />
    <glyph glyph-name="afii10048" unicode="&#x42e;" horiz-adv-x="1491" 
d="M1348 276q-7 -27 -19 -55t-35 -53q-11 -14 -33.5 -34.5t-48 -41.5t-50.5 -39.5t-42 -27.5q-28 -14 -62 -24.5t-63 -10.5h-282q-29 0 -59 10.5t-52 24.5q-14 9 -32 27.5t-36 39.5t-33 41.5t-22 34.5q-11 25 -11.5 53.5t5.5 54.5l49 259h-168l-102 -535h-168l238 1229h167
l-104 -535h168l51 256q5 26 16.5 55t32.5 54q12 14 34.5 35t48.5 42.5t51.5 40t43.5 27.5q28 14 61 24.5t62 10.5h283q29 0 60 -10.5t53 -24.5q13 -9 30.5 -28t34.5 -40.5t31.5 -42.5t21.5 -34q13 -25 14.5 -53t-3.5 -56zM1311 958q2 7 1 12.5t-3 8.5q-8 15 -18.5 30
t-21.5 28t-22 23t-20 15q-8 4 -19 4h-264q-10 0 -18 -4q-14 -6 -39 -23t-50.5 -38t-45.5 -42t-23 -34l-129 -670q-2 -11 7 -27.5t22.5 -33t29 -30.5t25.5 -21q9 -6 20 -6h265q6 0 11.5 2t8.5 4q13 6 38 22.5t50 37t44.5 40.5t21.5 33z" />
    <glyph glyph-name="afii10049" unicode="&#x42f;" horiz-adv-x="1151" 
d="M29 0l377 516q-10 -1 -21.5 2.5t-23 8.5t-22 12t-17.5 14q-9 7 -22.5 21.5t-26.5 31t-24 32t-16 24.5q-11 26 -14.5 54.5t2.5 59.5l37 185q6 30 20 60t37 56q8 9 24.5 24.5t36 31.5t38 30.5t30.5 22.5q32 20 71.5 31.5t74.5 11.5h577l-237 -1229h-168l98 512h-266
l-371 -512h-194zM389 770q-3 -15 0 -25q4 -11 13 -24t21 -24t25 -18t25 -7h418l78 397h-398q-3 0 -11 -0.5t-13 -3.5q-9 -5 -27 -18t-36.5 -28t-34 -29t-19.5 -21q-3 -6 -4.5 -11.5t-3.5 -11.5z" />
    <glyph glyph-name="afii10065" unicode="&#x430;" horiz-adv-x="987" 
d="M57 0zM643 0l-4 70q-18 -13 -39 -27t-44 -26t-46.5 -19.5t-44.5 -7.5h-180q-37 0 -73 10.5t-60 30.5q-9 8 -21 21t-23 26.5t-19.5 26.5t-12.5 22q-14 25 -16.5 55t3.5 62l7 39q6 32 20 62t37 54q9 9 23 22t30.5 26.5t33 26.5t30.5 22q31 20 69.5 29.5t75.5 9.5h332
l22 112q0 3 1 10.5t1 10.5q-9 21 -26 39t-37 30q-3 2 -8 4t-15 2h-194q-14 0 -29 -7.5t-29.5 -18.5t-27.5 -23t-23 -22q-5 -5 -10.5 -11t-10.5 -12q-6 -7 -11 -14l-152 47q14 22 35.5 47.5t45 49t47.5 43.5t42 32q32 20 71 29.5t76 9.5h189q37 0 73.5 -10.5t59.5 -30.5
q10 -9 22 -22t23.5 -26.5t20.5 -26.5t14 -21q14 -26 15 -57t-5 -62l-92 -475l-8 -162h-158zM690 389h-317q-10 0 -15 -1t-10 -3q-12 -6 -28 -16.5t-31.5 -23.5t-29 -26t-21.5 -24q-2 -2 -4.5 -6.5t-4.5 -14.5l-8 -38q-3 -18 0 -21q3 -9 10 -19.5t15 -20t17 -17.5t16 -13
l10 -4t14 -2h174q11 0 19 4q15 6 38 18.5t47.5 28t47.5 32.5t37 32z" />
    <glyph glyph-name="afii10066" unicode="&#x431;" horiz-adv-x="987" 
d="M698 893q38 0 74 -10.5t59 -30.5q10 -9 22 -22t23.5 -27.5t20.5 -27.5t14 -21q14 -26 15.5 -56t-4.5 -61l-76 -391q-6 -31 -19 -61t-36 -56q-8 -9 -22.5 -22t-31 -27.5t-34 -27.5t-31.5 -21q-31 -20 -71 -30.5t-77 -10.5h-205q-37 0 -73.5 10.5t-61.5 30.5q-9 8 -20.5 21
t-22.5 27.5t-20.5 27.5t-14.5 22q-14 26 -15 56t5 61l144 735q6 32 19 62.5t36 56.5q7 8 21.5 21.5t31.5 27.5t34 27.5t30 21.5q34 20 73 30.5t76 10.5h240l-70 -149h-188q-6 0 -16 -0.5t-15 -4.5q-10 -5 -28 -17t-36 -26.5t-32 -29.5t-17 -25l-32 -174q18 14 38.5 28
t43 25.5t45.5 19t45 7.5h159zM524 743q-17 0 -46 -15.5t-59 -36.5t-55.5 -42t-35.5 -33l-74 -376q-2 -10 -2 -14t2 -9q8 -22 25.5 -40t35.5 -32q7 -5 11.5 -5.5t13.5 -0.5h199q9 0 13.5 1.5t10.5 4.5q9 5 28.5 17t39.5 27t36 29.5t19 23.5l78 401q0 3 1.5 10.5t-1.5 14.5
q-22 44 -64 69q-3 2 -8 4t-14 2h-154z" />
    <glyph glyph-name="afii10067" unicode="&#x432;" horiz-adv-x="979" 
d="M678 883q37 0 72.5 -10.5t58.5 -30.5q10 -9 21.5 -22t22.5 -26.5t20 -26.5t14 -22q14 -24 16 -54t-4 -62l-2 -11q-12 -67 -57 -116q-10 -11 -27 -25.5t-37 -30.5q17 -18 33 -37.5t22 -31.5q14 -25 16.5 -55t-3.5 -62l-2 -10q-6 -32 -20.5 -62t-37.5 -55q-8 -8 -21.5 -21
t-30 -27t-33 -27t-29.5 -21q-32 -20 -71.5 -30.5t-76.5 -10.5h-473l172 887h457zM352 733l-43 -219h293q9 0 14.5 1t10.5 3q12 6 27 17.5t29.5 24.5t26.5 26t19 24q2 3 4 9l2 4l4 14q2 9 2 12t-2 8q-16 46 -53 70q-5 3 -10 4.5t-14 1.5h-310zM281 369l-43 -224h309
q9 0 14 1.5t10 3.5q12 6 27.5 17t30.5 24t27.5 26.5t19.5 24.5q2 2 2.5 4t1.5 4l2 4l4 18q2 10 2 13t-2 8q-15 44 -53 69q-8 7 -25 7h-327z" />
    <glyph glyph-name="afii10068" unicode="&#x433;" horiz-adv-x="817" 
d="M836 733h-482l-141 -733h-162l170 883h643z" />
    <glyph glyph-name="afii10069" unicode="&#x434;" horiz-adv-x="1083" 
d="M860 -217h-153l71 217h-653l-43 -215h-158l72 365h70q5 0 16.5 0.5t17.5 3.5q12 5 26 14.5t27.5 21t25.5 24t20 24.5q2 3 6.5 11t7.5 17l209 617h571l-141 -733h133zM371 260q-13 -34 -27.5 -60.5t-34.5 -49.5h383l113 583h-268z" />
    <glyph glyph-name="afii10070" unicode="&#x435;" horiz-adv-x="989" 
d="M94 0zM850 201q-15 -23 -35 -47.5t-42.5 -47.5t-46.5 -42.5t-46 -32.5q-31 -20 -69.5 -30.5t-75.5 -10.5h-209q-38 0 -74.5 10.5t-61.5 30.5q-9 8 -20.5 21t-22.5 27.5t-20.5 27.5t-13.5 22q-14 25 -16.5 55t3.5 62l76 391q6 32 20 62t37 55q8 8 22.5 21t31 27.5
t33.5 27.5t30 22q32 20 72.5 30.5t77.5 10.5h205q37 0 73.5 -10.5t59.5 -30.5q10 -9 22 -22t23 -27.5t20.5 -27.5t14.5 -21q14 -26 15 -56t-5 -61l-51 -264h-592l-27 -135q-3 -19 0 -25q5 -10 14 -23t20 -24t23.5 -19t24.5 -8h219q9 0 14.5 2t10.5 4q12 6 26.5 15.5t28.5 21
t26 23.5t19 22l16 25zM770 647q2 8 2 15t-2 10q-9 18 -28 37t-33 28q-3 2 -8.5 4t-14.5 2h-207q-15 0 -35 -11t-40.5 -26t-37.5 -31.5t-24 -27.5q-2 -2 -4 -7.5t-4 -14.5l-21 -107h432z" />
    <glyph glyph-name="afii10072" unicode="&#x436;" horiz-adv-x="1434" 
d="M1139 0l-303 391h-33l-76 -391h-162l68 342h-23l-389 -342h-223l479 424l-350 459h199l303 -391h33l75 391h162l-68 -342h23l389 342h223l-479 -424l350 -459h-198z" />
    <glyph glyph-name="afii10073" unicode="&#x437;" horiz-adv-x="977" 
d="M928 618q-6 -32 -20.5 -61.5t-37.5 -54.5q-9 -11 -30.5 -28.5t-42.5 -33.5q17 -17 31 -34.5t20 -28.5q14 -25 16 -55t-4 -62l-2 -14q-6 -31 -20 -61t-37 -56q-8 -9 -22.5 -22t-31 -27.5t-34 -27.5t-31.5 -21q-31 -20 -70.5 -30.5t-76.5 -10.5h-209q-38 0 -73.5 10.5
t-59.5 30.5q-9 8 -20.5 21t-22.5 27.5t-20 27.5t-13 22q-6 11 -13 28.5t-12 43.5l150 47q11 -31 30 -59t45 -44q5 -2 10.5 -4t14.5 -2h209q9 0 13.5 1.5t10.5 4.5q12 6 28.5 17t33 24t31 26t22.5 24q5 5 8 22l2 10q2 10 2 13t-2 8q-8 21 -21 41t-32 32q-5 2 -10 3.5t-14 1.5
h-234l29 145h215q9 0 14 1t10 3q12 6 27 17t29 24t26.5 26t20.5 23q5 6 6.5 9.5t3.5 11.5l4 16q3 17 0 23q-11 21 -26 40t-35 31q-3 2 -8.5 4t-14.5 2h-209q-18 0 -38.5 -11t-40 -27.5t-36 -36t-28.5 -35.5l-150 47q14 22 35 47t44 48.5t47 44t44 32.5q32 20 71.5 30.5
t76.5 10.5h203q37 0 73.5 -10.5t59.5 -30.5q10 -9 22 -22t23 -27.5t20.5 -27.5t14.5 -21q14 -26 15 -56t-5 -61z" />
    <glyph glyph-name="afii10074" unicode="&#x438;" horiz-adv-x="981" 
d="M381 883l-117 -598l529 598h159l-170 -883h-159l114 604l-526 -604h-160l170 883h160z" />
    <glyph glyph-name="afii10075" unicode="&#x439;" horiz-adv-x="981" 
d="M51 0zM857 1241q-8 -42 -29.5 -78t-53.5 -61.5t-71.5 -40t-82.5 -14.5q-42 0 -75.5 14.5t-54.5 40t-29.5 61.5t-0.5 78h92q-4 -21 0.5 -39.5t15 -32t26.5 -21t36 -7.5q21 0 41 7.5t37 21t29 32t16 39.5h104zM381 883l-117 -598l529 598h159l-170 -883h-159l114 604
l-526 -604h-160l170 883h160z" />
    <glyph glyph-name="afii10076" unicode="&#x43a;" horiz-adv-x="922" 
d="M627 0l-303 391h-33l-76 -391h-160l170 883h162l-68 -342h23l389 342h223l-479 -424l350 -459h-198z" />
    <glyph glyph-name="afii10077" unicode="&#x43b;" horiz-adv-x="1022" 
d="M823 0h-161l141 733h-352l-95 -487q-6 -32 -20 -62.5t-37 -56.5q-9 -9 -23.5 -22.5t-31.5 -28t-34 -28t-30 -21.5q-16 -10 -37.5 -17.5t-45 -13t-45.5 -8t-40 -2.5h-69l28 147q51 0 75 1.5t30 4.5q11 6 27 18.5t32.5 27.5t31.5 30t23 27q6 4 9 22l120 619h674z" />
    <glyph glyph-name="afii10078" unicode="&#x43c;" horiz-adv-x="1135" 
d="M467 211l-135 414l-121 -625h-160l170 883h182l152 -496l346 496h205l-170 -883h-160l121 629l-297 -418h-133z" />
    <glyph glyph-name="afii10079" unicode="&#x43d;" horiz-adv-x="981" 
d="M952 883l-170 -883h-159l71 377h-409l-74 -377h-160l170 883h162l-70 -357h408l70 357h161z" />
    <glyph glyph-name="afii10080" unicode="&#x43e;" horiz-adv-x="991" 
d="M94 0zM850 246q-6 -31 -19 -61t-36 -56q-8 -9 -22.5 -22t-31 -27.5t-34 -27.5t-31.5 -21q-31 -20 -70.5 -30.5t-77.5 -10.5h-204q-38 0 -74.5 10.5t-61.5 30.5q-9 8 -20.5 21t-22.5 27.5t-20.5 27.5t-13.5 22q-14 26 -15.5 56t4.5 61l76 391q6 31 19 61t36 56
q8 8 22.5 21t31 27.5t33.5 27.5t30 22q32 20 72.5 30.5t77.5 10.5h204q38 0 74.5 -10.5t59.5 -30.5q10 -9 21.5 -22t23 -27.5t20.5 -27.5t14 -21q14 -26 15.5 -56t-4.5 -61zM686 238q3 6 3.5 8l2.5 10l76 391q0 3 1.5 11t-1.5 14q-20 40 -61 65q-4 2 -9 4t-14 2h-205
q-9 0 -14.5 -2t-11.5 -4q-12 -6 -28 -17t-32 -24t-30 -26.5t-21 -24.5q-5 -5 -8 -22l-76 -385q-3 -18 0 -23q11 -20 27 -38.5t34 -31.5q5 -3 10.5 -4.5t14.5 -1.5h205q9 0 14 2l10 4q9 5 26.5 17t35 26t32 27.5t19.5 22.5z" />
    <glyph glyph-name="afii10081" unicode="&#x43f;" horiz-adv-x="981" 
d="M952 883l-170 -883h-159l139 733h-406l-145 -733h-160l170 883h731z" />
    <glyph glyph-name="afii10082" unicode="&#x440;" horiz-adv-x="1010" 
d="M0 0zM862 250q-6 -32 -20 -63t-37 -56q-8 -8 -22.5 -21.5t-31 -28.5t-34 -28.5t-31.5 -21.5q-31 -20 -69.5 -30.5t-75.5 -10.5h-160q-21 0 -41.5 7t-39 18t-34.5 25t-28 28l-82 -422h-158l207 1073l16 164h160l-6 -76q18 15 40 30t45.5 27.5t47.5 20.5t47 8h160
q37 0 72.5 -11.5t58.5 -31.5q10 -9 22 -22t23 -27.5t20.5 -27.5t14.5 -21q14 -26 16 -56.5t-4 -62.5zM778 641q2 9 2 13.5t-2 9.5q-8 21 -24.5 41t-36.5 32q-3 2 -8 4t-15 2h-155q-15 0 -43.5 -15t-58.5 -34.5t-55.5 -40t-35.5 -30.5l-72 -371q6 -12 21.5 -31t35 -37
t40.5 -31.5t37 -13.5h151q9 0 14.5 1t10.5 3q12 6 28 18.5t32.5 26.5t30 28.5t21.5 25.5q3 5 5 9t6 13z" />
    <glyph glyph-name="afii10083" unicode="&#x441;" horiz-adv-x="977" 
d="M94 0zM848 201q-17 -26 -30.5 -43.5t-22.5 -28.5q-8 -9 -22 -22t-30.5 -27.5t-33.5 -27.5t-31 -21q-31 -20 -69.5 -30.5t-76.5 -10.5h-208q-38 0 -74.5 10.5t-61.5 30.5q-9 8 -20.5 21t-22.5 27.5t-20.5 27.5t-13.5 22q-14 26 -15.5 56t4.5 61l76 391q6 31 19 61t36 56
q8 8 22.5 21t31 27.5t33.5 27.5t30 22q32 20 72.5 30.5t77.5 10.5h202q38 0 73 -10.5t58 -30.5q15 -12 32 -32.5t31.5 -44t25.5 -48.5t16 -47l-150 -45q-5 16 -15 35t-23 35t-29.5 27t-34.5 11h-205q-9 0 -14.5 -2t-11.5 -4q-12 -6 -28 -16.5t-32 -23.5t-30 -26t-21 -24
q-2 -2 -4 -7.5t-4 -14.5l-76 -387q-3 -19 0 -25q21 -41 59 -68q5 -3 10.5 -4.5t14.5 -1.5h213q9 0 14.5 2t10.5 4q32 16 62.5 45t53.5 60z" />
    <glyph glyph-name="afii10084" unicode="&#x442;" horiz-adv-x="870" 
d="M868 733h-282l-142 -733h-161l141 733h-281l29 150h725z" />
    <glyph glyph-name="afii10085" unicode="&#x443;" horiz-adv-x="881" 
d="M113 0zM276 -354h-163l188 354h-27l-133 883h164l98 -686l363 686h174z" />
    <glyph glyph-name="afii10086" unicode="&#x444;" horiz-adv-x="1012" 
d="M870 246q-6 -31 -19 -61t-36 -56q-8 -9 -22 -22t-31 -27.5t-34.5 -27.5t-31.5 -21q-31 -20 -70.5 -30.5t-76.5 -10.5h-33l-88 -342h-115l68 342h-57q-38 0 -74.5 10.5t-61.5 30.5q-9 8 -20.5 21t-22.5 27.5t-20.5 27.5t-13.5 22q-14 26 -15.5 56t4.5 61l76 391
q6 31 19 61t36 56q8 8 22.5 21t31 27.5t33.5 27.5t30 22q32 20 72.5 30.5t77.5 10.5h57l66 336h114l-65 -336h53q37 0 73.5 -10.5t59.5 -30.5q10 -9 22 -22t23.5 -27.5t20.5 -27.5t14 -21q14 -26 15 -56t-5 -61zM479 743q-9 0 -14.5 -2t-11.5 -4q-12 -6 -28 -17t-32 -24
t-30 -26.5t-21 -24.5q-5 -5 -8 -22l-76 -385q-3 -18 0 -23q11 -20 27 -38.5t34 -31.5q5 -3 10.5 -4.5t14.5 -1.5h66l116 604h-47zM707 238q3 6 3.5 8l2.5 10l75 391q0 3 2 11t-2 14q-21 41 -61 65q-3 2 -8 4t-14 2h-64l-117 -604h49q8 0 12 2t9 4q9 5 26 17t34.5 26
t32.5 27.5t20 22.5z" />
    <glyph glyph-name="afii10087" unicode="&#x445;" horiz-adv-x="920" 
d="M0 0zM-14 0l397 461l-217 422h174l152 -301l258 301h196l-381 -441l226 -442h-170l-164 319l-271 -319h-200z" />
    <glyph glyph-name="afii10088" unicode="&#x446;" horiz-adv-x="1034" 
d="M811 -217h-158l72 217h-674l170 883h164l-141 -733h385l141 733h162l-141 -733h145z" />
    <glyph glyph-name="afii10089" unicode="&#x447;" horiz-adv-x="979" 
d="M367 883l-56 -293q-2 -10 0 -21q2 -9 9 -19.5t15.5 -20.5t18 -18.5t17.5 -12.5q5 -3 9 -3.5t13 -0.5h322l76 389h159l-170 -883h-159l67 348h-313q-37 0 -73 9.5t-60 29.5q-10 9 -22 22t-23 26.5t-20 26.5t-13 21q-14 25 -16.5 55t4.5 62l55 283h160z" />
    <glyph glyph-name="afii10090" unicode="&#x448;" horiz-adv-x="1186" 
d="M770 883l-141 -733h225l141 733h162l-170 -883h-936l170 883h162l-141 -733h227l141 733h160z" />
    <glyph glyph-name="afii10091" unicode="&#x449;" horiz-adv-x="1260" 
d="M770 883l-141 -733h225l141 733h162l-141 -733h145l-125 -367h-157l71 217h-899l170 883h162l-141 -733h227l141 733h160z" />
    <glyph glyph-name="afii10092" unicode="&#x44a;" horiz-adv-x="1057" 
d="M291 733h-185l29 150h346l-67 -348h311q37 0 72.5 -9.5t60.5 -29.5q9 -9 21 -22t23 -26.5t19.5 -26.5t12.5 -22q14 -24 16 -54t-4 -62l-4 -29q-6 -32 -20 -62t-37 -55q-9 -8 -23 -21t-30.5 -27t-33 -27t-30.5 -21q-31 -20 -69.5 -30.5t-75.5 -10.5h-473zM383 389
l-45 -239h303q9 0 14.5 2t10.5 4q12 6 28 16.5t31.5 22.5t29 25t21.5 24q2 3 4 7t4 13l4 27q2 9 2 12t-2 8q-8 22 -25 42t-36 32q-5 3 -10 3.5t-15 0.5h-319z" />
    <glyph glyph-name="afii10093" unicode="&#x44b;" horiz-adv-x="1323" 
d="M965 0l170 883h159l-168 -883h-161zM221 883h162l-68 -348h312q37 0 72.5 -9.5t60.5 -29.5q9 -9 20.5 -22t22.5 -26.5t20 -26.5t13 -22q14 -24 16 -54t-4 -62l-4 -29q-6 -32 -20.5 -62t-37.5 -55q-8 -8 -22 -21t-30.5 -27t-33 -27t-30.5 -21q-31 -20 -70 -30.5t-76 -10.5
h-473zM285 389l-45 -239h303q9 0 14 2l10 4q12 6 28 16.5t32 22.5t29.5 25t21.5 24q2 3 4 7t4 13l4 27q2 9 2 12t-2 8q-8 22 -25.5 42t-35.5 32q-5 3 -10.5 3.5t-14.5 0.5h-319z" />
    <glyph glyph-name="afii10094" unicode="&#x44c;" horiz-adv-x="946" 
d="M221 883h162l-68 -348h312q37 0 72.5 -9.5t60.5 -29.5q9 -9 20.5 -22t22.5 -26.5t20 -26.5t13 -22q14 -24 16 -54t-4 -62l-4 -29q-6 -32 -20.5 -62t-37.5 -55q-8 -8 -22 -21t-30.5 -27t-33 -27t-30.5 -21q-31 -20 -70 -30.5t-76 -10.5h-473zM285 389l-45 -239h303
q9 0 14 2l10 4q12 6 28 16.5t32 22.5t29.5 25t21.5 24q2 3 4 7t4 13l4 27q2 9 2 12t-2 8q-8 22 -25.5 42t-35.5 32q-5 3 -10.5 3.5t-14.5 0.5h-319z" />
    <glyph glyph-name="afii10095" unicode="&#x44d;" horiz-adv-x="977" 
d="M406 526h344l24 117q2 9 2 13.5t-2 9.5q-8 21 -24.5 40t-34.5 31q-9 6 -25 6h-215q-9 0 -14 -2l-10 -4q-32 -15 -64 -45t-55 -61l-148 51q17 26 31.5 43.5t24.5 28.5q7 8 21 21t30 27.5t32.5 27.5t30.5 22q31 20 70 30.5t76 10.5h209q37 0 73.5 -10.5t61.5 -30.5
q9 -9 20.5 -22t22.5 -27.5t20.5 -27.5t14.5 -21q14 -26 15 -56t-5 -61l-76 -391q-6 -31 -19 -61t-36 -56q-8 -9 -22.5 -22t-31 -27.5t-33.5 -27.5t-30 -21q-32 -20 -72 -30.5t-77 -10.5h-203q-37 0 -72.5 10.5t-58.5 30.5q-15 12 -31.5 32t-31.5 43.5t-26 48.5t-16 48
l148 45q5 -16 15 -35t23 -35.5t29.5 -27.5t34.5 -11h205q9 0 14.5 1.5t12.5 4.5q11 6 27 17.5t32.5 24.5t30.5 26.5t22 24.5q5 5 8 22l23 117h-344z" />
    <glyph glyph-name="afii10096" unicode="&#x44e;" horiz-adv-x="1337" 
d="M1196 246q-6 -31 -19 -61t-36 -56q-8 -9 -22.5 -22t-31 -27.5t-34 -27.5t-31.5 -21q-31 -20 -70.5 -30.5t-77.5 -10.5h-204q-37 0 -74 10.5t-61 30.5q-9 8 -21 21t-23 27.5t-20.5 27.5t-13.5 22q-14 26 -15.5 56t4.5 61l25 131h-184l-72 -377h-160l170 883h160l-70 -357
h185l22 111q6 31 19.5 61t36.5 56q7 8 21.5 21t31 27.5t33.5 27.5t30 22q32 20 72.5 30.5t77.5 10.5h205q37 0 73.5 -10.5t59.5 -30.5q10 -9 22 -22t23 -27.5t20.5 -27.5t14.5 -21q14 -26 15 -56t-5 -61zM1032 238q3 6 3.5 8l2.5 10l76 391q0 3 1.5 11t-1.5 14
q-20 40 -61 65q-3 2 -8.5 4t-14.5 2h-205q-9 0 -14.5 -2t-11.5 -4q-12 -6 -27.5 -17t-31.5 -24t-30 -26.5t-22 -24.5q-5 -5 -8 -22l-76 -385q-3 -18 0 -23q11 -20 27 -38.5t35 -31.5q5 -3 10 -4.5t14 -1.5h205q9 0 14.5 2t10.5 4q9 5 26 17t34.5 26t32 27.5t19.5 22.5z" />
    <glyph glyph-name="afii10097" unicode="&#x44f;" horiz-adv-x="958" 
d="M774 0h-160l68 348h-219l-250 -348h-199l271 360q-33 11 -49 27q-10 9 -22 22t-23 26.5t-20 26.5t-13 21q-14 25 -16.5 55t3.5 62l7 29q6 32 20 62t37 54q7 9 21 22t30.5 26.5t33.5 26.5t30 22q32 20 71 30.5t76 10.5h473zM709 494l47 239h-301q-10 0 -14.5 -1.5
t-10.5 -4.5q-12 -6 -28 -16.5t-32 -22.5t-29.5 -25t-21.5 -24q-3 -5 -4.5 -8t-3.5 -13l-6 -26q-2 -8 -2 -12t2 -9q8 -21 24 -41t36 -32q5 -3 9 -3.5t13 -0.5h322z" />
    <glyph glyph-name="afii10071" unicode="&#x451;" horiz-adv-x="989" 
d="M94 0zM850 201q-15 -23 -35 -47.5t-42.5 -47.5t-46.5 -42.5t-46 -32.5q-31 -20 -69.5 -30.5t-75.5 -10.5h-209q-38 0 -74.5 10.5t-61.5 30.5q-9 8 -20.5 21t-22.5 27.5t-20.5 27.5t-13.5 22q-14 25 -16.5 55t3.5 62l76 391q6 32 20 62t37 55q8 8 22.5 21t31 27.5
t33.5 27.5t30 22q32 20 72.5 30.5t77.5 10.5h205q37 0 73.5 -10.5t59.5 -30.5q10 -9 22 -22t23 -27.5t20.5 -27.5t14.5 -21q14 -26 15 -56t-5 -61l-51 -264h-592l-27 -135q-3 -19 0 -25q5 -10 14 -23t20 -24t23.5 -19t24.5 -8h219q9 0 14.5 2t10.5 4q12 6 26.5 15.5t28.5 21
t26 23.5t19 22l16 25zM770 647q2 8 2 15t-2 10q-9 18 -28 37t-33 28q-3 2 -8.5 4t-14.5 2h-207q-15 0 -35 -11t-40.5 -26t-37.5 -31.5t-24 -27.5q-2 -2 -4 -7.5t-4 -14.5l-21 -107h432zM718 1065l35 182h170l-35 -182h-170zM389 1065l34 182h170l-34 -182h-170z" />
    <glyph glyph-name="afii10099" unicode="&#x452;" horiz-adv-x="1063" 
d="M846 -92q-6 -32 -20.5 -62.5t-39.5 -56.5q-8 -8 -22 -21.5t-30.5 -28.5t-33.5 -28.5t-30 -21.5q-17 -10 -38.5 -17.5t-44 -13t-44 -8t-39.5 -2.5h-113l29 147q48 1 76 1.5t43 1t21 1t9 2.5q11 6 26.5 18.5t31.5 27t30 29t23 26.5q5 5 8 22l31 156l110 567q0 3 1 11.5
t1 11.5q-4 9 -11.5 19t-16 20t-17 17.5t-14.5 12.5q-5 2 -10 3t-14 1h-154q-15 0 -42 -14t-56 -32.5t-53.5 -38t-34.5 -29.5v-4l-2 -4l-119 -621h-160l192 999h-145l31 150h145l15 80h159l-14 -80h270l-30 -150h-271l-35 -180q19 13 39.5 26.5t42 24t43 17t41.5 6.5h154
q37 0 73.5 -10.5t59.5 -30.5q10 -9 22 -22t23.5 -27.5t20.5 -27.5t14 -21q14 -26 15 -56t-5 -61z" />
    <glyph glyph-name="afii10100" unicode="&#x453;" horiz-adv-x="817" 
d="M51 0zM468 1069l225 231h207l-283 -272zM836 733h-482l-141 -733h-162l170 883h643z" />
    <glyph glyph-name="afii10101" unicode="&#x454;" horiz-adv-x="977" 
d="M629 377h-344l-27 -137q-2 -10 -2 -14t2 -9q8 -22 24.5 -40.5t34.5 -31.5q5 -3 10.5 -4.5t14.5 -1.5h215q9 0 14.5 2t10.5 4q32 16 63.5 47t54.5 62l148 -53q-17 -26 -30.5 -43.5t-22.5 -28.5q-8 -9 -22 -22t-30.5 -27.5t-33.5 -27.5t-31 -21q-31 -20 -69.5 -30.5
t-76.5 -10.5h-208q-38 0 -74.5 10.5t-61.5 30.5q-9 8 -20.5 21t-22.5 27.5t-20.5 27.5t-13.5 22q-14 26 -15.5 56t4.5 61l76 391q6 31 19 61t36 56q8 8 22.5 21t31 27.5t33.5 27.5t30 22q32 20 72.5 30.5t77.5 10.5h202q38 0 73 -10.5t58 -30.5q15 -12 32 -32.5t31.5 -44
t25.5 -48.5t16 -47l-148 -45q-5 16 -15 35t-23 35t-29.5 27t-34.5 11h-207q-9 0 -14.5 -1.5t-11.5 -4.5q-12 -6 -28 -17t-32 -24t-30 -26.5t-21 -24.5q-2 -2 -4 -7.5t-4 -14.5l-21 -97h344z" />
    <glyph glyph-name="afii10102" unicode="&#x455;" horiz-adv-x="961" 
d="M47 0zM780 633q-5 17 -15.5 36t-24 35.5t-29 27.5t-31.5 11h-219q-17 0 -25 -4q-25 -11 -54 -36.5t-46 -47.5q-2 -2 -5 -9.5t-5 -16.5l-11 -47q-3 -17 7 -32.5t34 -17.5l338 -22q41 -3 74.5 -19.5t56 -43t32 -62t1.5 -76.5l-14 -69q-6 -32 -21.5 -61.5t-38.5 -55.5
q-8 -9 -20.5 -22t-27.5 -26t-31 -25t-29 -19q-32 -20 -70 -30.5t-76 -10.5h-245q-37 0 -72 10.5t-61 30.5q-15 12 -30 31t-29 42t-26 48t-20 49l152 49q11 -34 31 -63.5t44 -43.5q10 -4 25 -4h248q14 0 33 10t37.5 24t34.5 29.5t24 26.5q3 5 5 9.5t5 13.5l12 61
q3 17 -7.5 32t-35.5 17l-338 21q-41 3 -74 19.5t-55 43t-31 62t-1 76.5l12 59q6 32 19.5 61.5t37.5 55.5q8 9 20.5 21.5t27.5 25.5t30.5 25t28.5 20q34 20 72 30.5t75 10.5h213q37 0 72 -10.5t59 -30.5q16 -13 32 -32t30 -41.5t26 -47t21 -49.5z" />
    <glyph glyph-name="afii10103" unicode="&#x456;" horiz-adv-x="442" 
d="M72 0zM260 1065l35 182h184l-35 -182h-184zM72 0l170 883h159l-170 -883h-159z" />
    <glyph glyph-name="afii10104" unicode="&#x457;" horiz-adv-x="442" 
d="M72 0zM437 1065l35 182h170l-35 -182h-170zM108 1065l34 182h170l-34 -182h-170zM72 0l170 883h159l-170 -883h-159z" />
    <glyph glyph-name="afii10105" unicode="&#x458;" horiz-adv-x="461" 
d="M0 0zM240 -92q-7 -32 -21 -62.5t-39 -56.5q-8 -8 -22 -21.5t-31 -28.5t-34 -28.5t-30 -21.5q-17 -10 -38 -17.5t-43.5 -13t-44 -8t-39.5 -2.5h-113l29 147q48 1 76 1.5t43 1t21 1t9 2.5q11 6 26.5 18.5t31.5 27t30 29t23 26.5q2 2 4 7.5t4 14.5l186 959h160zM285 1065
l34 182h185l-35 -182h-184z" />
    <glyph glyph-name="afii10106" unicode="&#x459;" horiz-adv-x="1518" 
d="M780 733h-331l-95 -487q-6 -32 -20 -62.5t-37 -56.5q-9 -9 -23.5 -22.5t-31.5 -28t-34 -28t-30 -21.5q-16 -10 -37.5 -17.5t-45 -13t-45.5 -8t-40 -2.5h-69l28 147q51 0 75 1.5t30 4.5q11 6 27 18.5t32.5 27.5t31.5 30t23 27q2 2 4.5 7.5t4.5 14.5l120 619h656l-68 -348
h291q37 0 72.5 -9.5t60.5 -29.5q9 -9 21 -22t23 -26.5t19.5 -26.5t12.5 -22q14 -24 16 -54t-4 -62l-4 -29q-6 -32 -20 -62t-37 -55q-9 -8 -23 -21t-30.5 -27t-33 -27t-30.5 -21q-31 -20 -69.5 -30.5t-75.5 -10.5h-455zM874 389l-45 -239h283q9 0 14.5 2t10.5 4q12 6 28 16.5
t31.5 22.5t29 25t21.5 24q2 3 4 7t4 13l5 27q2 9 2 12t-2 8q-8 22 -25.5 42t-36.5 32q-5 3 -10 3.5t-14 0.5h-300z" />
    <glyph glyph-name="afii10107" unicode="&#x45a;" horiz-adv-x="1477" 
d="M672 377h-387l-74 -377h-160l170 883h162l-70 -357h387l70 357h162l-68 -348h291q37 0 72.5 -9.5t60.5 -29.5q9 -9 21 -22t23 -26.5t19.5 -26.5t12.5 -22q14 -24 16 -54t-4 -62l-4 -29q-6 -32 -20 -62t-37 -55q-9 -8 -23 -21t-30.5 -27t-33 -27t-30.5 -21
q-31 -20 -69.5 -30.5t-75.5 -10.5h-453zM836 389l-45 -239h280q9 0 14.5 2t10.5 4q12 6 28 16.5t31.5 22.5t29 25t21.5 24q2 3 4 7t4 13l5 27q2 9 2 12t-2 8q-8 22 -25.5 42t-36.5 32q-5 3 -10 3.5t-14 0.5h-297z" />
    <glyph glyph-name="afii10108" unicode="&#x45b;" horiz-adv-x="981" 
d="M51 0zM623 0l122 641q4 16 0 23q-9 20 -24 43t-35 32q-8 4 -24 4h-138q-17 0 -45.5 -15.5t-58.5 -36.5t-55 -42t-35 -33l-5 -26t-13.5 -69.5t-19.5 -98.5t-22 -113q-26 -136 -59 -309h-160l191 987h-68l29 150h67l19 92h160l-19 -92h291l-29 -150h-291l-32 -174
q18 14 38.5 28t43 25.5t45.5 19t45 7.5h141q35 0 71.5 -11.5t59.5 -31.5q10 -9 22 -22.5t23.5 -28t20.5 -28t14 -21.5q24 -53 12 -117l-123 -633h-159z" />
    <glyph glyph-name="afii10109" unicode="&#x45c;" horiz-adv-x="922" 
d="M55 0zM506 1069l225 231h207l-283 -272zM627 0l-303 391h-33l-76 -391h-160l170 883h162l-68 -342h23l389 342h223l-479 -424l350 -459h-198z" />
    <glyph glyph-name="afii10110" unicode="&#x45e;" horiz-adv-x="881" 
d="M113 0zM812 1241q-8 -42 -29.5 -78t-53.5 -61.5t-71.5 -40t-82.5 -14.5q-42 0 -75.5 14.5t-54.5 40t-29.5 61.5t-0.5 78h92q-4 -21 0.5 -39.5t15 -32t26.5 -21t36 -7.5q21 0 41 7.5t37 21t29 32t16 39.5h104zM276 -354h-163l188 354h-27l-133 883h164l98 -686l363 686
h174z" />
    <glyph glyph-name="afii10193" unicode="&#x45f;" horiz-adv-x="981" 
d="M952 883l-170 -883h-282l-43 -213h-162l43 213h-287l170 883h162l-141 -733h407l142 733h161z" />
    <glyph glyph-name="afii10050" unicode="&#x490;" horiz-adv-x="997" 
d="M465 1069l-207 -1069h-172l238 1229h626l33 172h160l-64 -332h-614z" />
    <glyph glyph-name="afii10098" unicode="&#x491;" horiz-adv-x="838" 
d="M856 733h-500l-141 -733h-164l170 883h498l67 346h168l-96 -496h-2z" />
    <glyph glyph-name="endash" unicode="&#x2013;" horiz-adv-x="952" 
d="M137 434l29 152h715l-29 -152h-715z" />
    <glyph glyph-name="emdash" unicode="&#x2014;" horiz-adv-x="1120" 
d="M137 434l29 150h903l-29 -150h-903z" />
    <glyph glyph-name="quoteleft" unicode="&#x2018;" horiz-adv-x="420" 
d="M346 971h-180l231 350l146 -49z" />
    <glyph glyph-name="quoteright" unicode="&#x2019;" horiz-adv-x="420" 
d="M399 1356h181l-232 -350l-145 49z" />
    <glyph glyph-name="quotesinglbase" unicode="&#x201a;" horiz-adv-x="418" 
d="M121 -178h-178l229 350l145 -49z" />
    <glyph glyph-name="quotedblleft" unicode="&#x201c;" horiz-adv-x="741" 
d="M371 1313h180l-232 -350l-145 49zM692 1313h180l-231 -350l-145 49z" />
    <glyph glyph-name="quotedblright" unicode="&#x201d;" horiz-adv-x="741" 
d="M674 1006h-180l231 350l147 -49zM352 1006h-180l231 350l148 -49z" />
    <glyph glyph-name="quotedblbase" unicode="&#x201e;" horiz-adv-x="741" 
d="M444 -178h-180l232 350l145 -49zM123 -178h-178l229 350l145 -49z" />
    <glyph glyph-name="dagger" unicode="&#x2020;" horiz-adv-x="682" 
d="M535 737l-97 -495h-155l96 495h-143l28 146h144l67 342h156l-68 -342h146l-29 -146h-145z" />
    <glyph glyph-name="daggerdbl" unicode="&#x2021;" horiz-adv-x="682" 
d="M336 508l43 229h-143l28 146h144l67 342h156l-68 -342h146l-29 -146h-145l-43 -229h143l-29 -146h-143l-70 -360h-155l69 360h-145l28 146h146z" />
    <glyph glyph-name="bullet" unicode="&#x2022;" horiz-adv-x="907" 
d="M760 498q-6 -32 -22.5 -63t-41.5 -54q-10 -9 -25 -21t-31 -23t-30.5 -21t-23.5 -15q-57 -31 -117 -31h-55q-60 0 -105 31q-8 5 -19 15t-23 22t-23 24t-17 21q-15 25 -18.5 54.5t2.5 60.5l6 34q6 32 23.5 62t40.5 53q9 10 24 22t31.5 23.5t31.5 21.5t25 15q28 17 57 24
t60 7h55q31 0 57 -7t48 -24q7 -5 18 -14.5t22.5 -20.5t21.5 -23t16 -22q14 -23 19 -54t-1 -63z" />
    <glyph glyph-name="ellipsis" unicode="&#x2026;" horiz-adv-x="1405" 
d="M956 0l41 211h209l-41 -211h-209zM561 0l41 211h209l-41 -211h-209zM168 0l41 211h209l-41 -211h-209z" />
    <glyph glyph-name="perthousand" unicode="&#x2030;" horiz-adv-x="2128" 
d="M434 0h-172l899 1229h160zM2017 195q-5 -25 -14.5 -49t-26.5 -46q-7 -6 -18.5 -16.5t-24.5 -21.5t-26.5 -21.5t-24.5 -17.5q-25 -16 -57.5 -24.5t-61.5 -8.5h-123q-29 0 -58 8.5t-48 24.5q-8 7 -17.5 17.5t-18.5 21.5t-16.5 21.5t-11.5 16.5q-11 22 -12 46t4 49l45 231
q7 25 16.5 48.5t26.5 43.5q7 7 19 18t25.5 22.5t27.5 22t25 17.5q24 15 56.5 24t61.5 9h123q29 0 58.5 -9t48.5 -24q7 -7 16.5 -17.5t18 -22t15.5 -22.5t11 -18q11 -20 12 -43.5t-6 -48.5zM1878 201q2 5 2 6.5t2 9.5l39 207q3 11 0 20q-3 13 -15.5 26t-21.5 19q-8 7 -16 7
h-117q-8 0 -16 -4q-10 -5 -22 -13.5t-23.5 -18t-21.5 -19.5t-15 -17q-3 -3 -4.5 -6.5t-3.5 -11.5l-39 -209q-2 -8 -1 -13t3 -8q9 -17 19 -27.5t24 -19.5q9 -6 16 -6h109q5 0 8.5 1.5t9.5 4.5q8 4 21 13t26.5 19.5t24 21.5t12.5 18zM733 811q-5 -25 -14.5 -49t-26.5 -45
q-7 -6 -18.5 -16.5t-24.5 -22t-26.5 -22t-24.5 -17.5q-25 -16 -57.5 -24.5t-61.5 -8.5h-123q-29 0 -58.5 8.5t-47.5 24.5q-8 7 -17.5 17.5t-18.5 22t-16.5 22t-11.5 16.5q-11 21 -12 45t4 49l45 231q6 25 16 49t27 44q7 7 19 17.5t25.5 22t27 22t24.5 17.5q25 16 57.5 24.5
t61.5 8.5h123q29 0 58.5 -8.5t48.5 -24.5q7 -7 16.5 -17.5t18 -22t15.5 -22t11 -17.5q11 -20 11.5 -44t-5.5 -49zM594 817q2 5 2 7t2 10l39 206q3 13 0 21q-3 12 -15.5 25.5t-21.5 19.5t-16 6h-117q-8 0 -16 -4q-10 -5 -22 -13t-23.5 -17.5t-21.5 -19.5t-15 -18
q-3 -3 -5 -6.5t-4 -11.5l-38 -209q-2 -8 -1 -12.5t3 -7.5q9 -17 19 -27.5t24 -20.5q9 -6 16 -6h109q5 0 8.5 1.5t9.5 4.5q7 4 20.5 13.5t27 20t24 21t12.5 17.5zM1370 195q-5 -25 -14.5 -49t-26.5 -46q-7 -6 -18.5 -16.5t-24.5 -21.5t-26.5 -21.5t-24.5 -17.5
q-25 -16 -57.5 -24.5t-61.5 -8.5h-123q-29 0 -58.5 8.5t-47.5 24.5q-8 7 -17.5 17.5t-18.5 21.5t-16.5 21.5t-11.5 16.5q-11 22 -12 46t4 49l45 231q6 25 16 48.5t27 43.5q7 7 19 18t25.5 22.5t27 22t24.5 17.5q25 15 57.5 24t61.5 9h123q29 0 58.5 -9t48.5 -24
q7 -7 16.5 -17.5t18 -22t15.5 -22.5t11 -18q11 -20 11.5 -43.5t-5.5 -48.5zM1231 201q2 5 2 6.5t2 9.5l39 207q3 11 0 20q-3 13 -15.5 26t-21.5 19q-8 7 -16 7h-117q-7 0 -17 -4q-10 -5 -22 -13.5t-23 -18t-21 -19.5t-15 -17q-6 -5 -9 -18l-39 -209q-2 -14 3 -21
q9 -17 19 -27.5t24 -19.5q9 -6 16 -6h108q5 0 9 1.5t10 4.5q7 4 20.5 13t27 19.5t24 21.5t12.5 18z" />
    <glyph glyph-name="guilsinglleft" unicode="&#x2039;" horiz-adv-x="811" 
d="M432 199l-258 317l383 324l164 -52l-334 -272l231 -272z" />
    <glyph glyph-name="guilsinglright" unicode="&#x203a;" horiz-adv-x="815" 
d="M143 244l334 272l-227 272l184 52l256 -324l-381 -317z" />
    <glyph glyph-name="fraction" unicode="&#x2044;" horiz-adv-x="1327" 
 />
    <glyph glyph-name="Euro" unicode="&#x20ac;" horiz-adv-x="1194" 
d="M1087 262q-15 -28 -35.5 -56.5t-41.5 -49.5q-28 -28 -60.5 -57.5t-68.5 -53.5t-75 -39.5t-79 -15.5h-291q-29 0 -60 10.5t-52 24.5q-14 9 -32 27.5t-35.5 39.5t-32 41.5t-21.5 34.5q-11 25 -13 53t5 55l22 123h-88l31 150h88l22 117h-88l29 149h88l27 137q5 28 17 55
t34 52q12 13 34 34t48 42.5t51 40.5t43 28q28 14 61 24.5t62 10.5h293q40 0 73 -15.5t60 -39.5t48 -53.5t36 -57.5q9 -15 18.5 -39.5t20.5 -64.5l-164 -45q-5 23 -16 46t-25.5 43t-31.5 36.5t-32 27.5q-2 0 -4 1q-2 0 -4.5 0.5t-7.5 0.5h-272q-11 0 -15 -2q-12 -5 -33 -20
t-44.5 -33.5t-44.5 -38.5t-33 -35q-5 -5 -11 -38.5t-18 -96.5h481l-28 -149h-482l-22 -117h481l-31 -150h-479l-27 -135q-2 -12 7 -29.5t23 -34t29 -30t25 -18.5q5 -2 15 -2h278q10 0 13 1q3 0 4 1q18 9 42 25.5t47.5 37.5t44.5 44.5t34 47.5z" />
    </font>
</defs>
</svg>
