<?xml version="1.0" standalone="no"?>
<!DOCTYPE svg PUBLIC "-//W3C//DTD SVG 1.1//EN" "http://www.w3.org/Graphics/SVG/1.1/DTD/svg11.dtd" >
<svg xmlns="http://www.w3.org/2000/svg" xmlns:xlink="http://www.w3.org/1999/xlink" version="1.1">
<metadata>
Created by FontForge 20170731 at Wed Apr 20 03:32:05 2016
 By Aleksey,,,
Published by Die Gestalten Verlag GmbH &#38; Co. KG, 2008
Copyright (c) by Binnenland and re-p.org, 2008. All rights reserved. This software may not be reproduced, used, displayed, modified, disclosed or transferred without the express written approval of (Binnenland). 
</metadata>
<defs>
<font id="BlenderW00-Bold" horiz-adv-x="1137" >
  <font-face 
    font-family="BlenderW00-Bold"
    font-weight="700"
    font-stretch="normal"
    units-per-em="2048"
    panose-1="2 0 8 6 3 0 0 2 0 4"
    ascent="1638"
    descent="-410"
    x-height="885"
    cap-height="1225"
    bbox="-147 -440 2226 1727"
    underline-thickness="102"
    underline-position="-358"
    unicode-range="U+0020-FB02"
  />
<missing-glyph horiz-adv-x="2048" 
 />
    <glyph glyph-name=".notdef" horiz-adv-x="2048" 
 />
    <glyph glyph-name="glyph1" horiz-adv-x="1024" 
 />
    <glyph glyph-name="glyph2" horiz-adv-x="1024" 
 />
    <glyph glyph-name="space" unicode=" " horiz-adv-x="481" 
 />
    <glyph glyph-name="exclam" unicode="!" horiz-adv-x="545" 
d="M113 332v893h204v-893h-204zM90 -6v242h250v-242h-250z" />
    <glyph glyph-name="quotedbl" unicode="&#x22;" horiz-adv-x="780" 
d="M594 885h-203l19 166v260h200v-287zM289 885h-203l18 166v260h201v-287z" />
    <glyph glyph-name="numbersign" unicode="#" horiz-adv-x="1094" 
d="M922 643h-172l-21 -111h172l-35 -192h-172l-37 -195h-200l37 195h-84l-37 -195h-201l35 195h-170l35 192h172l20 111h-172l35 195h172l35 186h201l-35 -186h84l34 186h201l-35 -186h172zM465 643l-21 -111h84l21 111h-84z" />
    <glyph glyph-name="dollar" unicode="$" horiz-adv-x="1118" 
d="M995 293q0 -26 -6 -57.5t-26 -59.5q-9 -14 -28 -35.5t-40.5 -43t-43.5 -40.5t-38 -28q-25 -14 -60 -25.5t-67 -11.5h-90v-176h-119v176h-117q-43 0 -81.5 16.5t-71.5 41.5t-60 55t-47 57q-6 8 -10 15t-8 13.5t-8.5 15t-10.5 19.5l203 68q13 -16 27 -33q12 -14 28 -30.5
t35 -30.5q1 -1 3 -1q2 -1 12 -1h106l2 327l-256 70q-39 11 -69 34t-50 53t-30.5 65.5t-10.5 70.5v117q0 26 6.5 57.5t24.5 59.5q9 13 28 34.5t41 43.5t44.5 41t38.5 28q25 14 59 25.5t68 11.5h108v135h119v-135h76q44 0 82.5 -16.5t71.5 -42t59.5 -55.5t46.5 -56
q12 -17 21 -33t20 -39l-207 -59q-14 19 -29 37q-13 15 -29 30.5t-32 26.5l-2 1q-2 0 -4 0.5t-6 0.5h-70v-321l238 -64q39 -11 68.5 -34t50 -53.5t30.5 -66t10 -69.5v-129zM279 825q0 -14 7 -23t15 -11l178 -50v289h-96q-3 0 -5 -0.5t-4 -0.5q-2 -1 -3 -1q-12 -6 -28 -19
t-30.5 -28t-24 -28t-9.5 -19v-109zM598 494l-2 -297h80q7 0 9 1q2 0 3 1q12 6 27.5 19t30 27.5t24.5 28t10 19.5v123q0 14 -8 23.5t-16 11.5z" />
    <glyph glyph-name="percent" unicode="%" horiz-adv-x="1712" 
d="M588 -2h-236l678 1227h234zM1538 188q0 -24 -5 -49.5t-22 -48.5q-5 -7 -14.5 -17t-20 -20.5t-21.5 -21t-19 -17.5q-25 -15 -55.5 -24.5t-59.5 -9.5h-131q-29 0 -59.5 9.5t-53.5 24.5q-9 7 -20 17.5l-22 21t-20.5 20.5t-15.5 17q-17 23 -21.5 48.5t-4.5 49.5v263
q0 24 4.5 49.5t21.5 48.5q6 7 15.5 17t20.5 20.5l22 21t20 17.5q23 15 53.5 24.5t59.5 9.5h131q29 0 59.5 -9.5t55.5 -24.5q8 -7 19 -17.5t21.5 -21t20 -20.5t14.5 -17q17 -23 22 -48.5t5 -49.5v-263zM1368 434v5t-2 5q-8 10 -21.5 23.5t-25.5 21.5q-2 2 -5 2.5t-5 0.5h-107
q-2 0 -5 -0.5t-5 -2.5q-12 -8 -25.5 -21t-21.5 -24q-2 -4 -2 -7v-3v-229v-4q0 -2 2 -6q8 -11 21.5 -24t25.5 -21q2 -2 5 -2.5t5 -0.5h107q2 0 5 0.5t5 2.5q12 8 25.5 21.5t21.5 23.5q2 2 2 5v5v229zM637 772q0 -25 -5 -50t-22 -48q-5 -7 -14.5 -17.5t-20 -21t-21.5 -20.5
t-19 -17q-25 -15 -55.5 -25t-59.5 -10h-131q-29 0 -59.5 10t-53.5 25q-9 7 -20 17t-22 20.5t-20.5 21t-15.5 17.5q-17 23 -21.5 48t-4.5 50v262q0 25 4.5 50.5t21.5 48.5q6 7 15.5 17t20.5 20.5t22 20.5t20 17q23 16 53.5 25.5t59.5 9.5h131q29 0 59.5 -9.5t55.5 -25.5
q8 -7 19 -17t21.5 -20.5t20 -20.5t14.5 -17q17 -23 22 -48.5t5 -50.5v-262zM467 1018v5t-2 5q-8 9 -21.5 23t-25.5 22q-2 2 -5 2h-5h-107h-5t-5 -2q-13 -8 -26 -21t-21 -24q-2 -4 -2 -7v-3v-230v-4q0 -2 2 -6q8 -11 21 -24t26 -21q2 -2 5 -2h5h107h5t5 2q12 8 25.5 22
t21.5 23q2 2 2 5v5v230z" />
    <glyph glyph-name="ampersand" unicode="&#x26;" horiz-adv-x="1149" 
d="M659 197q8 0 19 7t23 18t22.5 24t17.5 24q0 1 1 3q0 2 0.5 4.5t0.5 7.5v301h267v-209h-58v-109q0 -34 -9 -65.5t-28 -57.5q-7 -10 -20.5 -25t-29.5 -31t-31.5 -30.5t-26.5 -21.5q-29 -22 -69.5 -33.5t-78.5 -11.5h-114v-2h-164q-37 0 -74.5 11.5t-68.5 33.5q-11 7 -27 22
t-32.5 31.5t-30.5 32.5t-21 26q-19 28 -28 60.5t-9 64.5v160q0 31 6.5 56t17.5 45.5t26 38t32 34.5q-17 17 -32 34.5t-26 38.5t-17.5 46t-6.5 57v166q0 32 9 64.5t28 60.5q7 10 21 26t30.5 32.5t32.5 31.5t27 23q31 21 68.5 33t74.5 12h201q43 0 81.5 -16t71.5 -41
t60.5 -54.5t48.5 -56.5q6 -9 13.5 -20.5t15 -24t13.5 -24t9 -19.5l-209 -55q-11 16 -24.5 32.5t-27.5 31t-26.5 25t-21.5 15.5q-4 2 -11 2h-192q-7 0 -17 -6.5t-20.5 -17t-21 -22.5t-17.5 -24q-1 -1 -1 -3q-1 -2 -1 -7v-160v-4q0 -2 2 -6q6 -12 16 -23.5t20.5 -21.5
t20.5 -16t17 -6h262v-203h-262q-7 0 -17 -6.5t-20.5 -16t-20.5 -21.5t-16 -24q-2 -4 -2 -7v-3v-154q0 -5 1 -7q0 -2 1 -3q7 -12 17.5 -23.5t21 -21.5t20.5 -16t17 -6h276z" />
    <glyph glyph-name="quotesingle" unicode="'" horiz-adv-x="475" 
d="M289 885h-203l18 166v260h201v-287z" />
    <glyph glyph-name="parenleft" unicode="(" horiz-adv-x="707" 
d="M391 -115q-20 20 -57 54.5t-80 76.5q-21 21 -43.5 43t-42.5 43t-36.5 39t-25.5 31q-18 28 -26 59t-8 60v627q0 29 8 58.5t26 57.5q25 35 61 73t75 75q38 37 76.5 73t72.5 70l154 -145q-10 -10 -33 -31t-52 -48t-60 -56t-56.5 -55.5t-42 -47t-16.5 -29.5v-618
q0 -8 16.5 -28t42.5 -46.5t57 -56t60 -56t52.5 -47t33.5 -28.5z" />
    <glyph glyph-name="parenright" unicode=")" horiz-adv-x="725" 
d="M539 291q0 -29 -7.5 -60t-25.5 -59q-9 -14 -25.5 -32.5t-36.5 -39t-42 -42.5t-44 -42q-43 -40 -80.5 -75t-60.5 -58l-151 152q10 8 33 28.5t52 46.5t60 55.5t56.5 55.5t42 46t16.5 28v618q0 9 -16.5 29.5t-42.5 46.5t-56.5 55.5t-59.5 56t-51.5 47.5t-31.5 30l149 145
q34 -31 73.5 -66t80.5 -73q40 -38 76 -77t59 -73q18 -28 25.5 -57.5t7.5 -58.5v-627z" />
    <glyph glyph-name="asterisk" unicode="*" horiz-adv-x="936" 
d="M506 1065l223 78l53 -172l-219 -68l142 -186l-146 -105l-133 189l-133 -193l-146 107l138 184l-224 68l58 172l217 -76l-4 233h178z" />
    <glyph glyph-name="plus" unicode="+" horiz-adv-x="1053" 
d="M594 401v-284h-199v284h-291v193h291v289h199v-289h291v-193h-291z" />
    <glyph glyph-name="comma" unicode="," horiz-adv-x="555" 
d="M229 -174h-229l182 389l199 -61z" />
    <glyph glyph-name="hyphen" unicode="-" horiz-adv-x="653" 
d="M51 401v193h455v-193h-455z" />
    <glyph glyph-name="period" unicode="." horiz-adv-x="547" 
d="M92 0v258h252v-258h-252z" />
    <glyph glyph-name="slash" unicode="/" horiz-adv-x="905" 
d="M190 0h-235l668 1225h233z" />
    <glyph glyph-name="zero" unicode="0" horiz-adv-x="1063" 
d="M924 291q0 -29 -7.5 -59t-25.5 -58q-9 -13 -27.5 -34.5t-40 -43.5t-43.5 -41t-39 -28q-24 -16 -58.5 -26.5t-66.5 -10.5h-227q-34 0 -68 10.5t-59 26.5q-16 9 -38 28t-43.5 41t-40 43.5t-27.5 34.5q-19 28 -26 58t-7 59v641q0 29 7 59t26 58q9 13 27.5 34t40 43
t43.5 41.5t38 28.5q25 16 59 26.5t68 10.5h227q32 0 66.5 -10.5t58.5 -26.5q17 -9 39 -28.5t43.5 -41.5t40 -43t27.5 -34q18 -28 25.5 -58t7.5 -59v-641zM295 293v-3q0 -3 2 -5q19 -28 45 -53.5t45 -34.5q3 -2 5.5 -2h4.5h211h3q3 0 7 2q9 4 20.5 13.5t23.5 21.5t24 25.5
t21 27.5q2 4 2 5v3v635v4q0 4 -2 6q-9 14 -21 27.5t-24 25.5t-23.5 21t-20.5 14q-3 2 -5.5 2h-4.5h-211h-4q-4 0 -6 -2q-19 -9 -45 -34.5t-45 -53.5q-2 -4 -2 -7v-3v-635z" />
    <glyph glyph-name="one" unicode="1" horiz-adv-x="1063" 
d="M444 0v1018h-243v207h458v-1225h-215z" />
    <glyph glyph-name="two" unicode="2" horiz-adv-x="1063" 
d="M414 1026h-5q-4 0 -8 -2q-11 -6 -24.5 -16.5t-27.5 -24t-26.5 -30.5t-19.5 -35l-205 61q10 25 22 47t21 35q21 27 48.5 57t60.5 55t72 41.5t84 16.5h217q37 0 75.5 -13t67.5 -34q12 -8 28 -22.5t32.5 -31t31 -32t21.5 -25.5q18 -28 27 -60.5t9 -64.5v-131
q0 -39 -12.5 -72.5t-33 -61.5t-48 -50t-57.5 -37l-404 -209q-17 -9 -24.5 -21.5t-7.5 -21.5v-139h573v-205h-788v352q0 39 12 71.5t32.5 59.5t48.5 49t60 39l408 211q26 15 26 41v125q0 2 -0.5 3t-0.5 3q-1 2 -1 4q-7 12 -17 24t-21 21.5t-21.5 16t-17.5 6.5h-207z" />
    <glyph glyph-name="three" unicode="3" horiz-adv-x="1063" 
d="M678 440v4q0 1 -2 7q-6 11 -16 23t-20.5 21.5t-20.5 16t-17 6.5h-2h-260v203h260h2q7 0 17 6t20.5 16t20.5 22t16 23q2 4 2 7v4v147q0 2 -0.5 3.5t-0.5 3.5q-1 2 -1 3q-7 12 -17.5 24t-21 21.5t-20.5 16t-17 6.5h-233q-5 0 -9 -2q-9 -5 -23.5 -14.5t-29.5 -23t-28 -30.5
t-19 -36l-209 57q9 20 23 45.5t26 42.5q21 26 48 55.5t60 54.5t71.5 41.5t82.5 16.5h242q37 0 75 -12t68 -33q11 -8 27 -23t32.5 -31.5t30.5 -32.5t21 -26q19 -28 28 -60.5t9 -64.5v-153q0 -32 -6.5 -56.5t-17.5 -45t-26 -38t-32 -34.5q17 -17 32 -35t26 -39t17.5 -46.5
t6.5 -56.5v-172q0 -32 -9 -64.5t-28 -60.5q-7 -10 -21 -26t-30.5 -32.5t-32.5 -31.5t-27 -22q-30 -22 -68 -33.5t-75 -11.5h-242q-44 0 -82.5 16t-71.5 41t-60 54.5t-48 56.5q-6 8 -13.5 19.5t-15 24t-13.5 24t-9 20.5l209 55q11 -16 24.5 -32.5t27.5 -31t26.5 -25.5
t21.5 -15q3 -2 6 -2h5h233q7 0 17 6.5t20.5 16.5t21 22t17.5 24q0 1 1 3q0 2 0.5 3.5t0.5 3.5v166z" />
    <glyph glyph-name="four" unicode="4" horiz-adv-x="1063" 
d="M793 244v-244h-215v244h-549v184l516 797h248v-776h125v-205h-125zM578 913l-297 -464h297v464z" />
    <glyph glyph-name="five" unicode="5" horiz-adv-x="1063" 
d="M899 272q0 -32 -9 -64.5t-28 -60.5q-7 -10 -20.5 -26t-30 -32.5t-32.5 -31.5t-27 -22q-29 -22 -69 -33.5t-77 -11.5h-225q-44 0 -82.5 16t-72 40.5t-61 54t-48.5 57.5q-13 17 -26 42.5t-21 45.5l209 55q9 -18 21.5 -34.5t25.5 -30.5t25.5 -24.5t21.5 -14.5q3 -2 7.5 -2
h6.5h217q8 0 12 2q17 11 36 30t30 37q0 1 1 3q0 2 0.5 3.5t0.5 3.5v207q0 2 -0.5 3.5t-0.5 3.5q-1 2 -1 4q-11 20 -30 39t-36 30q-4 2 -12 2h-483v662h719v-205h-504v-252h270q38 0 77.5 -13t68.5 -36q11 -8 27 -22t32.5 -29.5t30 -30.5t20.5 -25q19 -28 28 -60.5t9 -66.5
v-213z" />
    <glyph glyph-name="six" unicode="6" horiz-adv-x="1063" 
d="M307 965q-5 -5 -5.5 -12.5t-0.5 -10.5v-213q21 17 42 31q18 11 38.5 21t38.5 10h201q37 0 73.5 -11t67.5 -32q11 -8 27.5 -22.5t33 -31t30.5 -32t21 -25.5q19 -28 28 -60.5t9 -66.5v-238q0 -32 -9 -64.5t-28 -60.5q-7 -10 -21 -26t-30.5 -32.5t-33 -31.5t-27.5 -22
q-29 -22 -66.5 -33.5t-74.5 -11.5h-244q-37 0 -74.5 11.5t-66.5 33.5q-11 7 -27.5 22t-33 31.5t-31 32.5t-21.5 26q-19 28 -28 59.5t-9 63.5v678q0 32 9 64.5t28 60.5q7 10 21.5 26t31 32.5t33 31.5t27.5 23q29 21 66.5 33t74.5 12h221q43 0 81.5 -16.5t71.5 -41.5t60 -54.5
t47 -55.5q6 -9 13.5 -20.5t14.5 -24t13 -24.5t10 -21l-209 -58l-4 9q-8 16 -19.5 31.5t-24.5 29t-26 23t-22 14.5q-8 4 -12 4h-211q-8 0 -20.5 -10t-24.5 -21q-14 -13 -29 -30zM696 508q0 2 -0.5 4t-0.5 4q-1 2 -1 4q-7 12 -17 24.5t-20.5 22.5t-21 16.5t-17.5 6.5h-192
h-13.5t-19.5 -6q-21 -15 -39 -31q-16 -14 -31 -29t-22 -28v-203q0 -21 1 -25q0 -4 1 -4q7 -12 17 -24t21 -22t21.5 -16.5t18.5 -6.5h237q7 0 17.5 6t21 16t20.5 21.5t17 23.5q2 3 2 8v19v219z" />
    <glyph glyph-name="seven" unicode="7" horiz-adv-x="1063" 
d="M432 0h-244l502 1020h-604v205h850v-168z" />
    <glyph glyph-name="eight" unicode="8" horiz-adv-x="1063" 
d="M901 272q0 -32 -9 -64.5t-28 -60.5q-7 -10 -21 -26t-30.5 -32.5t-33 -31.5t-27.5 -22q-29 -22 -67 -33.5t-75 -11.5h-22h-193h-22q-38 0 -76.5 11.5t-67.5 33.5q-11 7 -27 22t-32.5 31.5t-31 32.5t-21.5 26q-19 28 -28 60.5t-9 64.5v168q0 31 6.5 56.5t18 46.5t26.5 38.5
t33 34.5q-18 17 -33 35t-26.5 38.5t-18 45t-6.5 56.5v159q0 32 9 64.5t28 60.5q7 10 21.5 26t31 32.5t32.5 31.5t27 23q29 22 67.5 33.5t76.5 11.5h237q37 0 75 -11.5t67 -33.5q11 -8 27.5 -23t33 -31.5t30.5 -32.5t21 -26q19 -28 28 -60.5t9 -64.5v-159q0 -32 -6.5 -56.5
t-17.5 -45t-26 -38.5t-32 -35q17 -17 32 -34.5t26 -38.5t17.5 -46.5t6.5 -56.5v-168zM684 780l1 2q0 2 0.5 3.5t0.5 5.5v159q0 2 -0.5 4t-0.5 4q-1 2 -1 3q-7 11 -17 23t-20.5 21.5t-21 16t-17.5 6.5h-233q-8 0 -18.5 -6.5t-21.5 -16t-21 -21.5t-17 -23q-1 -1 -1 -3
q-1 -2 -1 -8v-159q0 -5 1 -7q0 -2 1 -4q6 -11 15.5 -23t20.5 -22t21.5 -16t18.5 -6h237q7 0 17.5 6t21 16t20 22t15.5 23zM684 260l1 2q0 1 0.5 3t0.5 5v164q0 2 -0.5 3.5t-0.5 3.5q-1 2 -1 3q-7 12 -17 24t-21.5 21.5t-22 16t-17.5 6.5h-233q-8 0 -18.5 -6.5t-21 -16
t-20 -21.5t-16.5 -24q-1 -1 -1 -3q-1 -2 -1 -7v-164q0 -5 1 -7q0 -2 1 -3q6 -12 15.5 -23.5t20 -20.5t20.5 -15t18 -6h239q7 0 17.5 6t21 15t20 20.5t15.5 23.5z" />
    <glyph glyph-name="nine" unicode="9" horiz-adv-x="1063" 
d="M686 260q2 3 2 8v8v218q-21 -18 -42 -32q-18 -12 -38 -22t-37 -10h-200q-39 0 -76 10.5t-68 32.5q-11 8 -27 22.5t-32.5 31t-31 32t-21.5 25.5q-19 28 -28 60.5t-9 64.5v239q0 32 9 64.5t28 60.5q7 10 21.5 26t31 32.5t32.5 31.5t27 23q29 21 67 33t77 12h241
q38 0 75.5 -12t66.5 -33q11 -8 27.5 -23t33 -31.5t30.5 -32.5t21 -26q19 -28 28 -59.5t9 -63.5v-678q0 -32 -9 -64.5t-28 -60.5q-7 -10 -21 -26t-30.5 -32.5t-33 -31.5t-27.5 -22q-29 -22 -66.5 -33.5t-75.5 -11.5h-219q-44 0 -82.5 16t-71.5 41t-60 54.5t-48 56.5
q-12 17 -27.5 45t-23.5 47l209 55l4 -10q7 -16 18.5 -31.5t24.5 -28t26 -22.5t23 -14q3 -2 7.5 -3t6.5 -1h211q7 0 17.5 6t21 15t20.5 20.5t17 23.5zM688 948q0 2 -0.5 3.5t-0.5 3.5q-1 2 -1 3q-7 12 -17 24t-20.5 21.5t-21 16t-17.5 6.5h-237q-8 0 -18.5 -5.5t-21 -14.5
t-20 -20.5t-16.5 -22.5q-2 -4 -2 -9v-10l-2 -233q0 -4 1 -6q0 -3 1 -5q7 -12 17 -24.5t21 -22t21.5 -16t18.5 -6.5h190h15.5t21.5 6q19 15 37 31q15 14 29.5 28.5t21.5 28.5v223z" />
    <glyph glyph-name="colon" unicode=":" horiz-adv-x="547" 
d="M92 510v258h252v-258h-252zM92 0v258h252v-258h-252z" />
    <glyph glyph-name="semicolon" unicode=";" horiz-adv-x="547" 
d="M113 508v258h252v-258h-252zM223 -174h-229l182 389l199 -61z" />
    <glyph glyph-name="less" unicode="&#x3c;" horiz-adv-x="1479" 
d="M354 510l533 -508h-283l-631 606l631 611h283l-539 -510h936v-199h-930z" />
    <glyph glyph-name="equal" unicode="=" horiz-adv-x="995" 
d="M59 580v190h764v-190h-764zM59 272v189h764v-189h-764z" />
    <glyph glyph-name="greater" unicode="&#x3e;" horiz-adv-x="1479" 
d="M735 2h-280l530 508h-928v199h934l-538 510h282l633 -611z" />
    <glyph glyph-name="question" unicode="?" horiz-adv-x="950" 
d="M885 809q0 -38 -12 -71.5t-32.5 -61.5t-47.5 -49.5t-56 -36.5q-12 -6 -39 -17.5t-54 -26t-48 -31t-21 -32.5v-149h-215v158q0 63 27 106t69 74.5t92 55t95 46.5q12 6 19.5 16.5t7.5 24.5v133q0 1 -0.5 2.5t-0.5 3.5q-1 2 -1 4q-7 12 -17 24t-20.5 21.5t-21 16t-17.5 6.5
h-230q-7 0 -16 -6t-21 -16t-24 -22t-23 -25t-18 -25l-8 -14l-203 59l23 46t24 40q19 28 46 57.5t60 54t71.5 40.5t82.5 16h244q37 0 75.5 -13t67.5 -34q11 -8 26 -22t30 -30t28.5 -31.5t20.5 -25.5q18 -28 27.5 -60.5t9.5 -64.5v-141zM344 0v240h248v-240h-248z" />
    <glyph glyph-name="at" unicode="@" horiz-adv-x="1313" 
d="M535 -340h-154q-34 0 -68 10.5t-59 26.5q-16 9 -38 28.5t-44 41.5t-40.5 43t-27.5 34q-18 28 -25 58t-7 59v971q0 29 7 59t25 58q9 13 27.5 34t40.5 43t44 41.5t38 28.5q25 16 59 26.5t68 10.5h440q32 0 67 -10.5t60 -26.5q16 -9 37.5 -28.5t43.5 -41.5t40.5 -43
t28.5 -34q18 -28 25 -58t7 -59v-750l17 -182h-205l-4 45q-28 -22 -62 -38.5t-71 -16.5h-86q-38 0 -78.5 11.5t-69.5 33.5q-11 8 -25.5 21.5t-28.5 28t-26 28t-18 22.5q-20 29 -28.5 61t-8.5 66v348q0 34 8.5 66.5t28.5 60.5q6 9 17.5 22.5t25.5 28t28.5 28t26.5 22.5
q31 21 70.5 32t77.5 11h86q32 0 63.5 -14.5t57.5 -32.5v92v4q0 4 -2 6q-9 14 -23 29.5t-28.5 30t-27.5 25t-22 15.5q-3 2 -5.5 2h-4.5h-424h-4q-4 0 -6 -2q-9 -5 -22 -15.5t-27.5 -25t-28 -30t-22.5 -29.5q-3 -3 -3 -7v-3v-963v-3q0 -4 3 -5q9 -14 22.5 -29.5t28 -29
t27.5 -24.5t22 -15q3 -2 5.5 -2h4.5h115zM926 596q-10 12 -28 28t-37 30.5t-36 25t-26 10.5h-78q-10 0 -12 -2q-17 -11 -36 -32t-30 -40q-1 -1 -1 -3q-1 -2 -1 -7v-340q0 -7 1 -9q0 -2 1 -3q11 -19 30 -39t36 -31q8 -4 12 -4h78q8 0 25 11t36.5 26t37.5 31.5t28 27.5v320z
" />
    <glyph glyph-name="A" unicode="A" horiz-adv-x="1124" 
d="M825 0l-90 260h-465l-90 -260h-229l428 1225h250l426 -1225h-230zM504 948l-166 -483h330z" />
    <glyph glyph-name="B" unicode="B" 
d="M956 279q0 -32 -8 -63.5t-26 -59.5q-7 -10 -21 -25.5t-30 -32t-31.5 -31t-26.5 -22.5q-31 -22 -70.5 -33.5t-76.5 -11.5h-576v1225h576q40 0 78 -13t69 -34q11 -8 26.5 -22.5t31.5 -31t30 -32t21 -25.5q20 -29 27 -62.5t7 -64.5v-152q0 -32 -5.5 -57.5t-16 -46.5
t-25 -38.5t-32.5 -35.5q18 -18 32.5 -35.5t25 -38t16 -45.5t5.5 -57v-155zM739 778q0 1 1 3q0 2 0.5 4.5t0.5 7.5v145q0 2 -0.5 3t-0.5 3q-1 2 -1 4q-7 12 -17 25t-20.5 23.5t-20.5 17t-17 6.5h-359v-309h361q7 0 17 6t21 16t20.5 22t14.5 23zM739 272q0 1 1 4q0 2 0.5 5
t0.5 6v145q0 2 -0.5 3.5t-0.5 3.5q-1 2 -1 3q-7 12 -17 24.5t-20.5 22.5t-20.5 16.5t-17 6.5h-359v-307h361q7 0 17 6t21 16t20.5 22t14.5 23z" />
    <glyph glyph-name="C" unicode="C" horiz-adv-x="1133" 
d="M958 238q-12 -28 -21 -44.5t-22 -33.5q-20 -27 -47 -57t-60 -55t-71.5 -41.5t-81.5 -16.5h-256q-34 0 -68 10.5t-59 26.5q-16 9 -38 27.5t-43.5 40t-40 42.5t-27.5 35q-19 28 -26 58t-7 59v645q0 29 7 58t26 57q9 13 27.5 34t40 43t43.5 41.5t38 28.5q25 14 59 25.5
t68 11.5h256q43 0 81.5 -16.5t71.5 -42t60 -55.5t47 -56q13 -17 21 -32t22 -40l-208 -59q-18 22 -35 40q-14 16 -30.5 31.5t-27.5 22.5q-2 2 -4 2h-4h-241q-2 0 -3 -0.5t-3 -0.5q-2 -1 -3 -1q-10 -5 -22.5 -15t-25.5 -22.5t-24.5 -26.5t-19.5 -26q-2 -3 -2 -11v-12v-622
q0 -9 10.5 -23t25.5 -27.5t31 -25.5t27 -18q2 -2 7.5 -2h7.5h233h4.5t5.5 2q16 8 32.5 23t30.5 32q16 18 30 41z" />
    <glyph glyph-name="D" unicode="D" horiz-adv-x="1153" 
d="M956 297q0 -28 -6 -58.5t-24 -58.5q-9 -14 -28 -34.5t-40.5 -41.5t-44 -39.5t-39.5 -27.5q-25 -14 -58 -25.5t-65 -11.5h-561v1225h561q29 0 64 -9t61 -26q17 -10 38.5 -30t43 -42t39.5 -43.5t27 -34.5q20 -27 26 -57t6 -59v-627zM637 205h6q6 0 8 2q11 6 26.5 18
t29.5 25.5t24 27.5t10 23v617v3q0 3 -2 7q-18 31 -44.5 56t-45.5 34q-2 2 -8.5 2h-9.5h-326v-815h332z" />
    <glyph glyph-name="E" unicode="E" horiz-adv-x="1057" 
d="M90 0v1225h770v-205h-555v-309h516v-205h-516v-301h555v-205h-770z" />
    <glyph glyph-name="F" unicode="F" horiz-adv-x="1012" 
d="M305 1020v-309h516v-205h-516v-506h-215v1225h768v-205h-553z" />
    <glyph glyph-name="G" unicode="G" horiz-adv-x="1225" 
d="M305 291q0 -9 10.5 -23t25.5 -27.5t31 -25.5t27 -18q2 0 4 -1t7 -1h278q5 0 7 1q2 0 3 1q11 6 27 19t31 28t26 29.5t11 23.5v199h-265v204h480v-413q4 -40 10 -87q5 -40 12 -91.5t17 -108.5h-211l-11 49q-11 -8 -25.5 -18t-31 -19t-34.5 -15.5t-36 -6.5h-299
q-34 0 -68 10.5t-59 26.5q-16 9 -38 27.5t-43.5 39.5t-40 41.5t-27.5 34.5q-19 28 -26 59t-7 60v647q0 29 7 59t26 58q9 13 27.5 34t40 43t43.5 41.5t38 28.5q25 16 59 25.5t68 9.5h299q45 0 84 -16t71.5 -40.5t58.5 -55t46 -58.5q13 -17 24 -35t19 -37l-206 -59
q-13 18 -29 35q-14 14 -31 30t-37 29q-2 2 -5 2h-5h-278q-3 0 -4.5 -0.5t-3.5 -0.5q-2 -1 -3 -1q-8 -5 -20 -13.5t-25 -20.5t-25.5 -25.5t-21.5 -28.5q-2 -4 -2 -6v-2v-641z" />
    <glyph glyph-name="H" unicode="H" horiz-adv-x="1171" 
d="M752 0v506h-447v-506h-215v1225h215v-514h447v514h215v-1225h-215z" />
    <glyph glyph-name="I" unicode="I" horiz-adv-x="510" 
d="M90 0v1225h215v-1225h-215z" />
    <glyph glyph-name="J" unicode="J" horiz-adv-x="967" 
d="M756 289q0 -29 -8.5 -59t-26.5 -58q-9 -13 -27 -34t-39 -42.5t-42.5 -40.5t-37.5 -28q-26 -16 -60 -26.5t-66 -10.5h-152q-45 0 -83.5 16t-71.5 41t-59.5 55t-47.5 58q-5 6 -14 21.5t-27 56.5l207 55q15 -34 39 -60.5t43 -35.5q2 -2 10.5 -2t5.5 0h139q6 -1 22.5 12.5
t34.5 30.5t32 32.5t14 20.5v934h215v-936z" />
    <glyph glyph-name="K" unicode="K" horiz-adv-x="1104" 
d="M752 0l-424 512h-23v-512h-215v1225h215v-510h21q106 127 212 256t212 254h264l-510 -611q58 -70 124 -150t133.5 -161t133 -159t121.5 -144h-264z" />
    <glyph glyph-name="L" unicode="L" horiz-adv-x="983" 
d="M90 0v1225h215v-1020h543v-205h-758z" />
    <glyph glyph-name="M" unicode="M" horiz-adv-x="1354" 
d="M934 0v838l-244 -537h-141l-244 535v-836h-215v1225h246l287 -604l282 604h244v-1225h-215z" />
    <glyph glyph-name="N" unicode="N" horiz-adv-x="1161" 
d="M729 0l-424 813v-813h-215v1225h232l419 -824v824h215v-1225h-227z" />
    <glyph glyph-name="O" unicode="O" horiz-adv-x="1206" 
d="M1022 291q0 -29 -7 -59t-26 -58q-10 -13 -28.5 -34.5t-40 -43.5t-43 -41t-37.5 -28q-25 -16 -60 -26.5t-67 -10.5h-312q-34 0 -68 10.5t-59 26.5q-16 9 -38 28t-43.5 41t-40 43.5t-27.5 34.5q-19 28 -26 58t-7 59v641q0 29 7 59t26 58q9 13 27.5 34t40 43t43.5 41.5
t38 28.5q25 16 59 26.5t68 10.5h312q32 0 67 -10.5t60 -26.5q16 -9 37.5 -28.5t43 -41.5t40 -43t28.5 -34q19 -28 26 -58t7 -59v-641zM307 293v-3q0 -3 2 -5q19 -28 46 -53.5t44 -34.5q3 -2 6 -2h5h295h3q3 0 7 2q17 9 44 34.5t46 53.5q2 4 2 5v3v633v4q0 4 -2 6
q-9 14 -21.5 28t-25 26.5t-24 21.5t-19.5 14q-3 2 -5.5 2h-4.5h-295h-5q-4 0 -6 -2q-8 -5 -19.5 -14t-24 -21.5t-25 -26.5t-21.5 -28q-2 -4 -2 -7v-3v-633z" />
    <glyph glyph-name="P" unicode="P" horiz-adv-x="1100" 
d="M958 762q0 -70 -36 -125q-7 -10 -21 -25.5t-30.5 -31.5t-32.5 -30t-27 -22q-32 -23 -70 -34t-75 -11h-361v-483h-215v1225h576q37 0 75.5 -12t69.5 -33q11 -8 27 -23t32.5 -31.5t30.5 -32.5t21 -26q18 -28 27 -60.5t9 -64.5v-180zM743 940v5q0 5 -2 9q-5 9 -12.5 20
t-17 21t-19 17t-16.5 8h-10h-361v-332h361q7 0 17 6.5t21 16.5t21 22t16 23l1 2q0 1 0.5 2.5t0.5 3.5v176z" />
    <glyph glyph-name="Q" unicode="Q" horiz-adv-x="1214" 
d="M307 299v-3q0 -3 2 -5q9 -14 21.5 -28.5t25 -27.5t24 -23.5t19.5 -14.5q3 -2 6 -2h5h47l-13 30l197 66l41 -96h27h3q3 0 7 2q8 4 19 14.5t23 23.5t23.5 27.5t20.5 28.5q2 4 2 5v3v633v3q0 3 -2 5q-19 28 -44 52.5t-42 33.5q-3 2 -5.5 2h-4.5h-299h-5q-4 0 -6 -2
q-17 -9 -44 -33.5t-46 -52.5q-2 -4 -2 -6v-2v-633zM760 -10l80 -178h-228l-75 178h-136q-34 0 -68 10.5t-59 26.5q-16 9 -38 28t-43.5 41t-40 43.5t-27.5 34.5q-19 28 -26 58t-7 59v641q0 29 7 59t26 58q9 13 27.5 34t40 43t43.5 41.5t38 28.5q25 16 59 26.5t68 10.5h312
q32 0 67 -10.5t60 -26.5q16 -9 37.5 -28.5t43 -41.5t40 -43t28.5 -34q19 -28 26 -58t7 -59v-641q0 -29 -7 -59t-26 -58q-10 -13 -28.5 -34.5t-40 -43.5t-43 -41t-37.5 -28q-23 -13 -41 -21.5t-41 -11.5z" />
    <glyph glyph-name="R" unicode="R" horiz-adv-x="1186" 
d="M958 762q0 -70 -36 -125q-7 -10 -21 -25.5t-30.5 -31.5t-32.5 -30t-27 -22q-25 -19 -53 -28l243 -500h-233l-227 483h-236v-483h-215v1225h576q37 0 75.5 -12t69.5 -33q11 -8 27 -23t32.5 -31.5t30.5 -32.5t21 -26q18 -28 27 -60.5t9 -64.5v-180zM743 940v5q0 5 -2 9
q-5 9 -12.5 20t-17 21t-19 17t-16.5 8h-371v-332h361q7 0 17 6.5t21 16.5t21 22t16 23l1 2q0 1 0.5 2.5t0.5 3.5v176z" />
    <glyph glyph-name="S" unicode="S" horiz-adv-x="1169" 
d="M995 291q0 -26 -6 -57.5t-26 -59.5q-9 -14 -28 -35.5t-40.5 -43t-43.5 -40.5t-38 -28q-25 -14 -60 -25.5t-67 -11.5h-356q-45 0 -84 16.5t-71.5 41.5t-58.5 55t-46 57q-6 8 -10.5 15t-8.5 13.5t-8 15t-10 19.5l203 68q12 -17 26 -34q12 -14 28.5 -30t35.5 -30q1 -1 3 -1
q2 -1 11 -1h336q7 0 9 1q2 0 3 1q12 6 27.5 19t30 27.5t24.5 28t10 19.5v121q0 14 -8 23t-16 11l-533 152q-39 11 -69 34t-50 53t-30.5 65.5t-10.5 70.5v111q0 26 6.5 57.5t24.5 59.5q9 13 28 34.5t41 43t44.5 41t38.5 28.5q25 14 59 25.5t68 11.5h303q46 0 85 -16.5t71 -42
t58 -55.5t46 -56q12 -17 21 -33t20 -39l-207 -59q-14 19 -29 37q-13 15 -29 30.5t-32 26.5l-2 1q-2 0 -4 0.5t-6 0.5h-289q-3 0 -5 -0.5t-4 -0.5q-2 -1 -3 -1q-12 -6 -27.5 -18.5t-29 -26.5t-22.5 -26.5t-9 -18.5v-102q0 -14 7 -23.5t15 -11.5l535 -156q39 -11 68.5 -34
t50 -53.5t30.5 -66t10 -69.5v-129z" />
    <glyph glyph-name="T" unicode="T" horiz-adv-x="1032" 
d="M571 1020v-1020h-215v1020h-331v205h878v-205h-332z" />
    <glyph glyph-name="U" unicode="U" 
d="M733 1225h215v-934q0 -29 -7 -59t-26 -58q-9 -13 -27 -34.5t-39.5 -43.5t-43.5 -41t-39 -28q-25 -16 -59 -26.5t-66 -10.5h-260q-34 0 -68 10.5t-59 26.5q-16 9 -38 28t-44 41t-40.5 43.5t-27.5 34.5q-18 28 -25 58t-7 59v934h215v-930v-4q0 -4 2 -6q18 -28 44.5 -53.5
t45.5 -34.5q4 -2 6 -2h4h244h4.5t5.5 2q9 4 20.5 13.5t23.5 21.5t23.5 25.5t20.5 27.5q2 4 2 5v3v932z" />
    <glyph glyph-name="V" unicode="V" horiz-adv-x="1071" 
d="M604 0h-252l-403 1225h229l301 -949l303 949h228z" />
    <glyph glyph-name="W" unicode="W" horiz-adv-x="1511" 
d="M1153 0h-244l-196 821l-199 -821h-246l-280 1225h221l184 -860l203 860h229l203 -860l182 860h228z" />
    <glyph glyph-name="X" unicode="X" horiz-adv-x="1090" 
d="M610 627l391 -627h-239l-270 436l-269 -436h-239l389 627l-369 598h238l250 -408l251 408h238z" />
    <glyph glyph-name="Y" unicode="Y" horiz-adv-x="1065" 
d="M582 535v-535h-215v535l-402 690h238l272 -465l273 465h239z" />
    <glyph glyph-name="Z" unicode="Z" horiz-adv-x="1006" 
d="M59 0v174l539 846h-539v205h807v-178l-530 -842h530v-205h-807z" />
    <glyph glyph-name="bracketleft" unicode="[" horiz-adv-x="664" 
d="M90 0v1225h404v-195h-189v-835h189v-195h-404z" />
    <glyph glyph-name="backslash" unicode="\" horiz-adv-x="893" 
d="M625 0l-668 1229h238l669 -1229h-239z" />
    <glyph glyph-name="bracketright" unicode="]" horiz-adv-x="674" 
d="M66 0v195h188v835h-188v195h403v-1225h-403z" />
    <glyph glyph-name="asciicircum" unicode="^" horiz-adv-x="707" 
d="M203 1229h196l232 -654h-199l-129 394l-127 -394h-196z" />
    <glyph glyph-name="underscore" unicode="_" horiz-adv-x="946" 
d="M61 -193v193h797v-193h-797z" />
    <glyph glyph-name="grave" unicode="`" horiz-adv-x="780" 
d="M430 999l-242 299h242l188 -243z" />
    <glyph glyph-name="a" unicode="a" horiz-adv-x="981" 
d="M598 625v4q0 4 -2 6q-9 15 -28 32.5t-38 28.5q-8 4 -12 4h-180q-9 0 -21.5 -7.5t-24.5 -18t-22 -21t-14 -16.5l-193 57q8 18 25 41t37.5 44.5t40 39.5t31.5 27q29 20 69.5 34.5t77.5 14.5h176q38 0 78.5 -11.5t71.5 -33.5q11 -9 25.5 -21.5t28.5 -26t26 -26.5t18 -22
q22 -29 28.5 -62.5t6.5 -64.5v-447l20 -180h-202l-11 41q-28 -20 -60 -35.5t-67 -15.5h-168q-38 0 -77 11.5t-70 33.5q-12 8 -26 21t-27.5 27t-25 27t-17.5 21q-20 28 -28.5 59.5t-8.5 65.5v37q0 34 8.5 65.5t28.5 59.5q6 8 17.5 20.5t25 25.5t27.5 25t26 21q31 22 70 33.5
t77 11.5h283v70zM598 373h-281q-5 0 -7 -0.5t-7 -3.5q-17 -11 -33.5 -29t-27.5 -37q-1 -1 -1 -2q-1 -1 -1 -4v-39q0 -3 1 -4q0 -1 1 -2q11 -19 28 -36.5t35 -27.5q8 -4 12 -4h160q9 0 26.5 10.5t36.5 24t35.5 27t22.5 20.5v107z" />
    <glyph glyph-name="b" unicode="b" horiz-adv-x="1004" 
d="M846 262q0 -34 -8.5 -66t-28.5 -61q-6 -9 -18 -22.5t-26 -28t-28.5 -28t-25.5 -21.5q-29 -22 -69.5 -33.5t-78.5 -11.5h-151q-38 0 -72 16.5t-61 38.5l-7 -45h-202l16 182v1043h205v-377q26 18 57.5 32.5t63.5 14.5h151q38 0 77.5 -10.5t70.5 -32.5q12 -9 26.5 -22.5
t28.5 -28t25.5 -28t17.5 -21.5q20 -28 28.5 -60.5t8.5 -66.5v-363zM641 621q0 2 -0.5 3.5t-0.5 3.5q-1 2 -1 3q-11 18 -30 37t-36 30q-2 2 -5.5 2h-8.5h-141q-9 0 -26.5 -9.5t-36.5 -23.5t-36.5 -29.5t-27.5 -27.5v-334q10 -11 27.5 -27t37 -30.5t36.5 -24.5t26 -10h143
q4 0 12 4q17 11 36 29t30 37q0 1 1 3q0 2 0.5 4t0.5 5v355z" />
    <glyph glyph-name="c" unicode="c" horiz-adv-x="961" 
d="M276 260q0 -2 1 -4t1.5 -4t2.5 -4q11 -19 29 -34t36 -26q1 -1 4 -2q4 -2 8 -2h201q8 0 19 6.5t22.5 15t20.5 17.5t14 15q0 1 1 2q3 3 5 6l190 -58q-8 -18 -24.5 -41t-36 -44.5t-39 -39.5t-31.5 -26q-29 -20 -69.5 -33.5t-77.5 -13.5h-197q-38 0 -78 10.5t-71 32.5
q-12 8 -26.5 21.5t-28.5 28t-25.5 28t-17.5 22.5q-22 29 -29.5 61.5t-7.5 63.5v369q0 31 7.5 63.5t29.5 61.5q6 9 17.5 22.5t25.5 28t28.5 27.5t26.5 22q31 22 71 32.5t78 10.5h195q37 0 77.5 -13.5t69.5 -33.5q15 -11 34.5 -28t38 -37.5t34.5 -43t24 -43.5l-190 -57
q-2 3 -5 6q-1 1 -1 2q-5 6 -14 15t-20.5 17.5t-22.5 14.5t-19 6h-199q-4 0 -8 -2q-3 -1 -4 -2q-18 -11 -36 -25.5t-29 -33.5q-2 -2 -2.5 -4t-1.5 -4t-1 -4v-365z" />
    <glyph glyph-name="d" unicode="d" horiz-adv-x="1014" 
d="M643 0l-8 45q-28 -22 -62 -38.5t-71 -16.5h-148q-38 0 -78 11.5t-69 33.5q-12 8 -26.5 21.5t-28.5 28t-25.5 28t-17.5 22.5q-20 29 -28.5 61t-8.5 66v363q0 34 8.5 66.5t28.5 60.5q6 8 17.5 21.5t25 28t28.5 28t27 22.5q31 22 70 32.5t77 10.5h148q32 0 63.5 -14.5
t57.5 -32.5v377h204v-1043l17 -182h-201zM623 610q-10 12 -28 27.5t-37 29.5t-36 23.5t-26 9.5h-140q-10 0 -12 -2q-17 -11 -35.5 -30t-29.5 -37q-1 -1 -2 -3t-1 -7v-355q0 -7 1 -9t2 -3q11 -19 29.5 -37t35.5 -29q8 -4 12 -4h140q8 0 25 10t36.5 24.5t37.5 30.5t28 27v334z
" />
    <glyph glyph-name="e" unicode="e" horiz-adv-x="989" 
d="M276 344v-84q0 -5 1 -7t2 -3q7 -12 17 -23.5t21.5 -21t22 -15.5t18.5 -6h199q8 0 19 6.5t22.5 15t20.5 17.5t14 15q3 3 4 5t2 3l190 -58q-8 -18 -24.5 -41t-36 -44.5t-39 -39.5t-31.5 -26q-29 -20 -69.5 -33.5t-77.5 -13.5h-193q-38 0 -78 10.5t-71 32.5
q-12 8 -26.5 21.5t-28.5 27.5t-25.5 27.5t-17.5 21.5q-20 28 -29.5 60.5t-9.5 66.5v369q0 34 9.5 65.5t29.5 59.5q6 8 17.5 21t25.5 27.5t28.5 27.5t26.5 22q31 22 71 33.5t78 11.5h189q38 0 78 -11.5t71 -33.5q12 -9 26.5 -22t28.5 -27t26 -27t18 -22q21 -29 28.5 -61.5
t7.5 -63.5v-283h-555zM627 623v5q0 5 -2 7q-10 15 -29.5 33.5t-38.5 29.5q-4 2 -12 2h-187q-8 0 -18.5 -6t-22 -15t-21.5 -20.5t-17 -23.5q-3 -3 -3 -8v-4v-97h351v97z" />
    <glyph glyph-name="f" unicode="f" horiz-adv-x="696" 
d="M438 1038q-8 0 -12 -0.5t-10 -3.5q-7 -4 -17 -11t-19.5 -15.5t-16 -17t-7.5 -15.5v-90h224v-195h-224v-690h-204v690h-138v195h138v78q0 32 7.5 65t28.5 62q6 8 18 21t25.5 27.5t28.5 27.5t27 22q31 22 71 33.5t78 11.5h193v-193z" />
    <glyph glyph-name="g" unicode="g" horiz-adv-x="1022" 
d="M842 700v-774q0 -32 -6.5 -66t-28.5 -63q-6 -9 -18 -22.5t-26 -27.5t-28.5 -27t-25.5 -21q-31 -22 -72 -33.5t-78 -11.5h-180q-18 0 -38 4t-39.5 10.5t-37.5 15.5t-33 19q-12 9 -31 26.5t-38.5 39.5t-36.5 44.5t-25 41.5l191 57q0 -2 1 -3q1 -2 2 -2.5t3 -2.5
q4 -6 13.5 -15.5t21 -18.5t22.5 -15.5t19 -6.5h184q5 0 12 5q7 4 18.5 12t22 17.5t18.5 18.5t9 15v14v111q-26 -19 -57.5 -34t-63.5 -15h-158q-37 0 -77.5 11.5t-71.5 33.5q-12 8 -27 21.5t-28.5 28.5t-25 28.5t-17.5 21.5q-22 29 -29.5 62t-7.5 65v359q0 32 7.5 65t29.5 62
q6 8 17.5 21.5t25 28t28.5 28t27 22.5q31 22 71.5 33.5t77.5 11.5h158q37 0 72 -17t63 -38l8 45h201zM510 186h5q5 0 9 2q14 7 29.5 18t30.5 24t29 26t24 25v323q-11 12 -28 28.5t-35 31.5t-35 25.5t-29 10.5h-150q-4 0 -12 -4q-17 -11 -36.5 -30t-30.5 -37q-2 -4 -2 -7v-4
v-350v-5q0 -3 2 -7q11 -19 30.5 -38t36.5 -30q3 -2 6.5 -2h5.5h150z" />
    <glyph glyph-name="h" unicode="h" horiz-adv-x="993" 
d="M618 621q0 2 -0.5 3.5t-0.5 3.5q-1 2 -1 3q-11 18 -29.5 37t-35.5 30q-2 2 -12 2h-142q-10 0 -27 -10t-36 -24.5t-36 -30t-26 -27.5v-608h-204v1225h204v-379q26 18 57.5 33.5t63.5 15.5h148q37 0 77.5 -11.5t69.5 -33.5q12 -9 27 -22.5t28.5 -28t25 -28t17.5 -21.5
q20 -29 28.5 -60t8.5 -65v-625h-205v621z" />
    <glyph glyph-name="i" unicode="i" horiz-adv-x="461" 
d="M82 1010v219h219v-219h-219zM90 0v885h205v-885h-205z" />
    <glyph glyph-name="j" unicode="j" horiz-adv-x="475" 
d="M115 1010v219h219v-219h-219zM39 -147q7 0 9 1q2 0 3 1q17 11 38 30.5t32 40.5q0 2 1 4q0 2 0.5 3.5t0.5 3.5v948h205v-951q0 -34 -8.5 -67t-28.5 -62q-6 -8 -18 -21.5t-26.5 -28t-29.5 -28t-27 -22.5q-30 -22 -69 -32.5t-76 -10.5h-172v191h166z" />
    <glyph glyph-name="k" unicode="k" horiz-adv-x="901" 
d="M588 0l-279 373h-37v-373h-204v1225h204v-660h39l132 160q25 30 48.5 58.5t41.5 51t29 36.5l11 14h254l-340 -414l363 -471h-262z" />
    <glyph glyph-name="l" unicode="l" horiz-adv-x="471" 
d="M106 0q-2 15 -6 41.5t-8 52.5q-4 30 -10 64v1067h205v-1045l26 -180h-207z" />
    <glyph glyph-name="m" unicode="m" horiz-adv-x="1466" 
d="M1092 0v623v4.5t-2 7.5q-10 17 -28.5 34.5t-35.5 28.5q-3 2 -7 2h-9h-95q-15 0 -32 -8.5t-32.5 -21.5t-29.5 -27t-24 -25v-618h-2h-201h-2v623v5.5t-2 6.5q-9 17 -30 34.5t-38 28.5q-3 2 -7 2h-9h-94q-20 0 -38 -9t-33 -22t-27.5 -27.5t-22.5 -25.5v-616h-205v702
l-20 183h200l10 -47q28 20 61 38.5t69 18.5h102q38 0 78 -11.5t71 -33.5q13 -9 28.5 -23.5t31.5 -29.5l45 34q13 10 31 21.5t38 21t40 15.5t38 6h103q38 0 78 -11.5t71 -33.5q12 -9 26.5 -22t28.5 -27t26 -27t18 -22q21 -29 28.5 -61.5t7.5 -63.5v-627h-204z" />
    <glyph glyph-name="n" unicode="n" horiz-adv-x="1014" 
d="M639 0v623v5.5t-2 6.5q-9 17 -28 34.5t-36 28.5q-2 2 -6.5 2h-9.5h-143q-15 0 -32 -9t-33.5 -22t-31 -27.5t-24.5 -25.5v-616h-205v702l-20 183h200l11 -47q27 20 60 38.5t69 18.5h151q38 0 78.5 -11.5t71.5 -33.5q11 -9 25.5 -22t28.5 -27t26 -27t18 -22
q22 -29 29.5 -61.5t7.5 -63.5v-627h-205z" />
    <glyph glyph-name="o" unicode="o" horiz-adv-x="987" 
d="M829 258q0 -31 -6.5 -63.5t-27.5 -61.5q-6 -9 -18 -22.5t-26 -28t-28.5 -28t-26.5 -21.5q-31 -22 -71 -32.5t-78 -10.5h-193q-38 0 -77 10.5t-70 32.5q-12 8 -26.5 21.5t-29 28t-27 28t-18.5 22.5q-21 29 -27.5 61.5t-6.5 63.5v369q0 31 6.5 63.5t27.5 61.5q6 9 18.5 22
t27 27t29 27t26.5 22q31 22 70 33.5t77 11.5h193q38 0 78 -11.5t71 -33.5q12 -9 26.5 -22t28.5 -27t26 -27t18 -22q21 -29 27.5 -61.5t6.5 -63.5v-369zM276 621v-373q0 -6 7 -14.5t17.5 -17t22.5 -16.5l21 -14q1 -1 3 -1q2 -1 9 -1h189q4 0 12 4q7 4 18 11.5t22 16t19 17.5
t9 15v373v4.5t-2 7.5q-10 15 -29.5 34.5t-38.5 30.5q-4 2 -10 2h-189q-6 0 -10 -2q-18 -11 -37 -29t-30 -36q-3 -3 -3 -8v-4z" />
    <glyph glyph-name="p" unicode="p" horiz-adv-x="1006" 
d="M844 260q0 -34 -8.5 -66.5t-28.5 -60.5q-6 -8 -17.5 -21.5t-25.5 -28.5t-28.5 -28.5t-26.5 -21.5q-31 -22 -70.5 -32.5t-77.5 -10.5h-149q-32 0 -63.5 14t-57.5 33v-371h-205v1036l-18 183h202l9 -45q27 21 61 38t72 17h149q38 0 78.5 -11.5t69.5 -33.5q11 -9 25.5 -22
t28.5 -27.5t26 -28t18 -22.5q20 -29 28.5 -61t8.5 -66v-363zM639 618q0 3 -0.5 5.5t-0.5 4.5q-1 2 -1 3q-11 18 -30 36t-36 29q-8 4 -12 4h-141q-9 0 -26 -10t-36.5 -24.5t-37 -30t-27.5 -27.5v-334q10 -11 27.5 -26.5t36.5 -29.5t36.5 -24t26.5 -10h141q8 0 12 2
q17 11 36 30t30 38q0 1 1 3q0 2 0.5 3.5t0.5 3.5v354z" />
    <glyph glyph-name="q" unicode="q" horiz-adv-x="1018" 
d="M829 702v-1036h-204v371q-26 -19 -57.5 -33t-63.5 -14h-150q-38 0 -77 10.5t-70 32.5q-12 8 -27 21.5t-28.5 28.5t-25 28.5t-17.5 21.5q-20 28 -28.5 60.5t-8.5 66.5v363q0 34 8.5 66t28.5 61q6 9 17.5 22.5t25.5 28t28.5 27.5t26.5 22q29 22 69 33.5t78 11.5h150
q37 0 71 -17t62 -38l10 45h201zM625 608q-10 12 -28 27.5t-37.5 30t-36.5 24.5t-25 10h-142q-4 0 -12 -4q-17 -11 -35.5 -29t-29.5 -36l-2 -4q-1 -2 -1 -9v-354q0 -5 1 -7t2 -3q11 -19 29.5 -38t35.5 -30q2 0 4 -1t8 -1h142q9 0 26 10t36 24t37 29.5t28 26.5v334z" />
    <glyph glyph-name="r" unicode="r" horiz-adv-x="852" 
d="M616 639q-5 6 -14 16.5t-21.5 20t-27 17t-29.5 7.5h-110q-18 0 -36 -9.5t-35 -23t-31 -28.5t-23 -27v-612h-205v702l-16 183h198l10 -49q14 10 29.5 20.5t32.5 19t34.5 14t35.5 5.5h122q44 0 80.5 -13t71.5 -38q15 -11 33 -28.5t36 -38t33 -42t23 -39.5z" />
    <glyph glyph-name="s" unicode="s" horiz-adv-x="961" 
d="M225 240q5 -6 14.5 -15t21 -18t22 -15.5t18.5 -7.5h238q9 0 21.5 7.5t24 18.5t19.5 24t8 24v49q0 8 -4.5 17.5t-21.5 11.5q-27 2 -66.5 5t-84.5 6.5t-93 7t-92 7.5q-41 3 -76 18t-61 41t-41 63.5t-15 86.5v62q0 34 8.5 65.5t28.5 59.5q44 62 102 99.5t136 37.5h196
q38 0 78.5 -13.5t69.5 -33.5q15 -11 34.5 -28t38.5 -37.5t35 -43t25 -43.5l-193 -57q-1 0 -2 2q-1 1 -1.5 2.5t-2.5 3.5q-5 6 -14 15t-20.5 17.5t-22.5 14.5t-18 6h-197q-6 -1 -11 -1q-5 -1 -9 -1t-7 -2q-6 -3 -22 -16.5t-25 -30.5q-1 -1 -1 -4q-1 -3 -1 -16v-49
q0 -5 7.5 -15t23.5 -12q20 -2 57 -5.5t81.5 -7.5t92.5 -8.5t90 -9.5t78.5 -19.5t64.5 -40t44 -63t16 -88.5v-57q0 -34 -9.5 -65.5t-29.5 -59.5q-6 -9 -16.5 -22t-23 -26t-26.5 -25.5t-26 -20.5q-31 -22 -69 -33.5t-76 -11.5h-234q-37 0 -77.5 14.5t-69.5 34.5
q-15 11 -34.5 28t-38 37.5t-34.5 42.5t-24 43l190 58z" />
    <glyph glyph-name="t" unicode="t" horiz-adv-x="717" 
d="M342 274v-5q0 -3 2 -7q4 -8 13 -19.5t20.5 -22t23.5 -18t23 -7.5h170v-195h-172q-38 0 -77.5 10.5t-70.5 32.5q-12 9 -26.5 22.5t-28 28t-25.5 28t-18 21.5q-20 29 -29.5 62t-9.5 67v418h-137v195h137v340h205v-340h254v-195h-254v-416z" />
    <glyph glyph-name="u" unicode="u" horiz-adv-x="999" 
d="M639 0l-8 51q-14 -10 -29 -20.5t-31.5 -19t-33.5 -14t-35 -5.5h-154q-38 0 -78 10.5t-71 32.5q-12 8 -26.5 21.5t-28.5 28t-26 28t-18 22.5q-21 29 -29 61.5t-8 63.5v625h205v-621v-6.5t2 -7.5q10 -17 30.5 -34t37.5 -28q4 -2 12 -2h146q7 0 23.5 9t34.5 21.5t35 26.5
t27 25v617h205v-703l19 -182h-201z" />
    <glyph glyph-name="v" unicode="v" horiz-adv-x="881" 
d="M510 0h-217l-326 885h230l206 -600l209 600h217z" />
    <glyph glyph-name="w" unicode="w" horiz-adv-x="1352" 
d="M1008 0h-209l-166 555l-170 -555h-209l-270 885h217l164 -572l161 572h215l158 -572l168 572h215z" />
    <glyph glyph-name="x" unicode="x" horiz-adv-x="909" 
d="M602 0l-186 274l-187 -274h-243l307 453l-297 432h244l176 -260l170 260h243l-292 -434l307 -451h-242z" />
    <glyph glyph-name="y" unicode="y" horiz-adv-x="881" 
d="M395 -332h-207l123 332h-18l-326 885h230l206 -600l209 600h217z" />
    <glyph glyph-name="z" unicode="z" horiz-adv-x="909" 
d="M72 0v166l407 524h-424v195h701v-168l-410 -522h430v-195h-704z" />
    <glyph glyph-name="braceleft" unicode="{" horiz-adv-x="719" 
d="M301 291q0 -9 11 -23t26.5 -28.5t31.5 -26.5t27 -18q2 -2 6.5 -2h6.5h139v-201h-156q-32 0 -65 11.5t-58 25.5q-16 9 -38 27t-43.5 38.5t-40 41t-27.5 34.5q-20 29 -25.5 61t-5.5 58v647q0 26 6.5 57.5t26.5 59.5q9 13 26.5 33.5t38.5 42.5t42.5 41t37.5 28
q25 16 59 25.5t66 9.5h156v-201h-146q-2 0 -4 -0.5t-4 -0.5q-2 -1 -4 -1q-17 -9 -43 -34t-45 -54q-2 -4 -2 -7v-3v-641z" />
    <glyph glyph-name="bar" unicode="|" horiz-adv-x="485" 
d="M80 -188v1554h201v-1554h-201z" />
    <glyph glyph-name="braceright" unicode="}" horiz-adv-x="731" 
d="M526 289q0 -26 -6 -58.5t-24 -60.5q-9 -14 -28 -34.5t-40.5 -41t-43.5 -38.5t-38 -27q-25 -14 -59 -25.5t-66 -11.5h-155v201h145q3 0 5 1q1 0 3 1q12 6 28.5 20.5t31.5 30t25.5 28.5t10.5 17v641q0 5 -10.5 18.5t-25.5 29t-31.5 29.5t-28.5 21q-2 2 -6 2h-147v201h155
q32 0 66 -9.5t59 -25.5q16 -9 37.5 -28t43 -41t40 -42.5t27.5 -33.5q18 -28 25 -58t7 -59v-647z" />
    <glyph glyph-name="asciitilde" unicode="~" horiz-adv-x="946" 
d="M598 391q-14 32 -30.5 43t-30.5 8l-218 -47q-41 -8 -82 -1t-78 29t-68 59t-52 91l192 60q14 -32 31 -44.5t31 -8.5l219 45q42 7 83 1t77.5 -27t67.5 -57.5t53 -90.5z" />
    <glyph glyph-name="uni00A0" unicode="&#xa0;" horiz-adv-x="410" 
 />
    <glyph glyph-name="exclamdown" unicode="&#xa1;" horiz-adv-x="535" 
d="M98 997v228h232v-228h-232zM109 0v885h210v-885h-210z" />
    <glyph glyph-name="cent" unicode="&#xa2;" horiz-adv-x="934" 
d="M395 -10h-39q-38 0 -78 10.5t-71 32.5q-12 8 -26.5 21.5t-28.5 28t-25.5 28t-17.5 22.5q-22 29 -29.5 61.5t-7.5 63.5v369q0 31 7.5 63.5t29.5 61.5q6 9 17.5 22t25.5 27t28.5 27t26.5 22q31 22 71 33.5t78 11.5h39l2 328h119l-2 -328h51q37 0 78 -15.5t70 -35.5
q12 -9 31.5 -27t39.5 -39.5t37 -44.5t25 -41l-193 -57q-1 0 -2 2q-1 1 -1.5 2.5t-2.5 3.5q-5 5 -14 14.5t-20.5 19t-22.5 16.5t-19 7h-57v-516h66q7 0 18 6.5t22.5 15t20.5 17.5t14 15l2 2q1 1 2 2.5t3 3.5l190 -58q-8 -18 -25 -41t-36.5 -44.5t-38.5 -39.5t-31 -26
q-29 -20 -69.5 -33.5t-78.5 -13.5h-59v-324h-119v324zM276 260q0 -2 1 -4t1.5 -4t2.5 -4q11 -19 29 -34t36 -26q1 -1 4 -2q4 -2 8 -2h37v516h-37q-8 0 -12 -2q-18 -11 -37 -26.5t-30 -34.5q-3 -3 -3 -9v-5v-363z" />
    <glyph glyph-name="sterling" unicode="&#xa3;" horiz-adv-x="1204" 
d="M1040 258q-2 -8 -7 -20.5t-11.5 -25.5t-14 -25.5t-14.5 -20.5q-19 -26 -46 -55.5t-60 -54t-72 -40.5t-82 -16h-577v358h-80v193h80v49h-80v193h80v116q0 28 5 57.5t25 57.5q9 13 27.5 34t40 42.5t43 40.5t37.5 28q25 14 59 25.5t66 11.5h293v-205h-285q-2 0 -3.5 -0.5
t-3.5 -0.5q-2 -1 -3 -1q-19 -11 -43 -33.5t-41 -50.5q-1 -1 -1 -4q-1 -3 -1 -14v-104h430v-193h-430v-49h430v-193h-430v-153h356h6t6 2q12 6 25 17t25 23.5t22 26t18 25.5q4 6 8 13q2 4 3 7z" />
    <glyph glyph-name="currency" unicode="&#xa4;" 
d="M442 334h-22.5t-22.5 2l-98 -98l-141 141l69 70l-12 18q-22 31 -32.5 71t-10.5 78v21q0 38 10.5 77t32.5 70q3 5 7 10t9 11l-69 72l133 137l96 -99q14 4 26.5 4.5t24.5 0.5h207q11 0 23 -0.5t24 -4.5l99 99l137 -142l-72 -73q3 -3 6 -7.5t6 -7.5q22 -31 34 -70t12 -77
v-21q0 -38 -12 -78t-34 -71q-3 -5 -7 -9t-7 -9l74 -74l-137 -137l-99 98q-12 -2 -24 -2h-23h-207zM416 727q-6 0 -15 -7.5t-18.5 -18t-18 -23t-14.5 -21.5v-49q0 -8 2 -12q5 -7 13 -18t17.5 -22t18.5 -19t15 -9h243h4q3 0 9 2q15 10 34.5 29.5t30.5 38.5v57q-11 19 -29.5 39
t-35.5 31q-6 2 -9 2h-4h-243z" />
    <glyph glyph-name="yen" unicode="&#xa5;" horiz-adv-x="1006" 
d="M719 729h170v-192h-266v-60h266v-192h-266v-285h-215v285h-277v192h277v60h-277v192h174l-293 496h238l266 -455l268 455h238z" />
    <glyph glyph-name="brokenbar" unicode="&#xa6;" horiz-adv-x="395" 
d="M80 698v668h201v-668h-201zM80 -193v674h201v-674h-201z" />
    <glyph glyph-name="section" unicode="&#xa7;" horiz-adv-x="1044" 
d="M719 913q-5 11 -16.5 30t-25.5 37.5t-30 32t-31 13.5h-256q-8 0 -21 -7.5t-24.5 -18.5t-20 -23t-7.5 -21q1 -7 1.5 -15t3.5 -15.5t8 -12.5t15 -6l258 -14q39 -2 81.5 -8t80.5 -31q10 -6 25.5 -19.5t32 -29t31.5 -31.5t24 -26q23 -31 35 -69t12 -75v-14q0 -51 -18.5 -93
t-53.5 -77q31 -29 49.5 -68t18.5 -86v-26q0 -35 -9 -61t-28 -54q-6 -9 -17 -21.5t-23.5 -25.5t-26 -25t-25.5 -20q-29 -22 -69 -34.5t-79 -12.5h-254q-41 0 -75.5 11t-64 30.5t-55 46t-48.5 57.5q-10 12 -22 32t-34 64l195 66q5 -10 16 -29t24.5 -37.5t29 -32.5t30.5 -14
h258q9 0 20 5.5t21 13.5t18 17t13 17v37q0 5 -7 13t-20 8l-270 12q-35 2 -66 9.5t-65 29.5q-9 6 -25.5 19t-34 28.5t-33 30.5t-24.5 26q-23 31 -34 70t-11 74v14q0 54 17.5 92t48.5 72q-44 37 -59.5 85t-20.5 99q-3 37 8.5 71t30.5 60q43 60 101.5 99t135.5 39h256
q39 0 78 -12t68 -33q18 -13 38 -33.5t40 -46.5t38.5 -56.5t32.5 -64.5zM299 588v-4q0 -2 2 -6q0 -1 8 -12t19 -24.5t22.5 -25t18.5 -12.5q2 0 13 -1t28 -2t38.5 -2t43.5 -2q51 -3 116 -5q8 0 10 1q2 0 3 1q11 7 24 19.5t24 26.5t18 27t7 19v18q0 2 -0.5 3.5t-0.5 3.5
q-1 2 -1 3q-7 11 -16.5 23t-20.5 22.5t-21.5 19t-19.5 13.5q-2 0 -3 1q-2 0 -2.5 0.5t-2.5 0.5l-237 11q-22 -13 -39 -36t-29 -46q-2 -6 -2 -9v-6v-20z" />
    <glyph glyph-name="dieresis" unicode="&#xa8;" horiz-adv-x="743" 
d="M483 1016v211h199v-211h-199zM154 1016v211h198v-211h-198z" />
    <glyph glyph-name="copyright" unicode="&#xa9;" horiz-adv-x="1462" 
d="M121 172q-19 28 -27 58t-8 59v647q0 26 6.5 57.5t26.5 59.5q9 13 27 33.5t39.5 42.5t43 41t37.5 28q25 16 59 25.5t66 9.5h619q32 0 66 -9.5t59 -25.5q16 -9 37.5 -28t42.5 -41t39.5 -42.5t27.5 -33.5q19 -28 27 -58t8 -59v-647q0 -26 -6.5 -57.5t-26.5 -59.5
q-9 -13 -27 -34t-39.5 -42.5t-43 -40.5t-37.5 -28q-25 -16 -59 -25.5t-66 -9.5h-619q-32 0 -66 9.5t-59 25.5q-16 9 -37.5 28t-43 40.5t-39.5 42.5t-27 34zM1114 932q0 5 -11 20t-26.5 31.5t-33 31.5t-29.5 21q-3 2 -6.5 3t-8.5 1h-596q-10 0 -18 -4q-9 -5 -22 -14
t-26.5 -21t-26 -27t-19.5 -30q-2 -4 -2 -12v-639q0 -5 11 -20t26.5 -31.5t33 -32t29.5 -21.5q3 -2 6 -3t8 -1h596q11 0 19 4q9 5 22 14.5t26.5 21.5t25.5 27t20 30q2 4 2 12v639zM403 504v211q0 29 8 58.5t25 53.5q6 9 17 21.5t24 25.5t26 25t23 19q28 20 62.5 29t68.5 9h97
q40 0 75 -19t64.5 -47.5t52 -62.5t37.5 -65l-164 -43q-6 17 -20.5 35t-34.5 30q-3 2 -6.5 2h-5.5h-107q-7 -1 -15 -6.5t-16 -13.5t-14.5 -17t-9.5 -16q-2 -6 -2 -9v-5v-219v-5q0 -4 2 -10q3 -7 9.5 -15.5t14.5 -17t16 -14t15 -6.5h107h5.5t6.5 2q20 13 34.5 31t20.5 35
l164 -43q-15 -31 -37.5 -65t-52 -63t-64.5 -48t-75 -19h-97q-34 0 -68.5 9.5t-62.5 29.5q-10 7 -23 18.5t-26 25t-24 26t-17 20.5q-17 25 -25 54.5t-8 58.5z" />
    <glyph glyph-name="ordfeminine" unicode="&#xaa;" horiz-adv-x="788" 
d="M475 573l-6 37q-29 -18 -57 -32.5t-43 -14.5h-90q-29 0 -59.5 10t-53.5 25q-9 7 -20.5 17t-22.5 20.5t-20.5 21t-14.5 17.5q-17 23 -22 48t-5 50v262q0 25 5 50.5t22 48.5q5 7 14.5 17t20.5 20.5t22.5 20.5t20.5 17q23 16 53.5 25.5t59.5 9.5h110q14 0 32.5 -6t37.5 -14
v18h168v-526l18 -142h-170zM457 1018v5t-2 5q-8 9 -21.5 23t-25.5 22q-2 2 -5.5 2h-5.5h-106h-5t-5 -2q-13 -8 -26.5 -21t-21.5 -24q-2 -4 -2 -7v-3v-230v-4q0 -2 2 -6q8 -11 21.5 -24t26.5 -21q2 -2 5 -2h5h86h5t5 2q6 4 16 9.5t20 12t19 12.5t13 11q2 2 2 5v5v230z" />
    <glyph glyph-name="guillemotleft" unicode="&#xab;" horiz-adv-x="1227" 
d="M862 166l-330 332l330 331l223 -65l-276 -266l281 -273zM406 166l-330 332l330 331l223 -65l-277 -266l281 -273z" />
    <glyph glyph-name="logicalnot" unicode="&#xac;" horiz-adv-x="1053" 
d="M942 117h-199v284h-653v193h852h-2z" />
    <glyph glyph-name="registered" unicode="&#xae;" horiz-adv-x="1462" 
d="M946 580q-9 -13 -28 -35t-39 -39l127 -238h-191l-98 191h-99v-195h-182v688h303q34 0 67.5 -11t59.5 -30q11 -7 23 -17.5t23 -22.5t20 -23.5t14 -20.5q16 -24 22.5 -50t8.5 -54v-33q0 -29 -7 -56.5t-24 -53.5zM799 725q-10 15 -26 31.5t-30 25.5h-125v-151h127
q13 6 28.5 23t25.5 34v37zM121 172q-19 28 -27 58t-8 59v647q0 26 6.5 57.5t26.5 59.5q9 13 27 33.5t39.5 42.5t43 41t37.5 28q25 16 59 25.5t66 9.5h619q32 0 66 -9.5t59 -25.5q16 -9 37.5 -28t42.5 -41t39.5 -42.5t27.5 -33.5q19 -28 27 -58t8 -59v-647q0 -26 -6.5 -57.5
t-26.5 -59.5q-9 -13 -27 -34t-39.5 -42.5t-43 -40.5t-37.5 -28q-25 -16 -59 -25.5t-66 -9.5h-619q-32 0 -66 9.5t-59 25.5q-16 9 -37.5 28t-43 40.5t-39.5 42.5t-27 34zM1114 932q0 5 -11 20t-26.5 31.5t-33 31.5t-29.5 21q-3 2 -6.5 3t-8.5 1h-596q-10 0 -18 -4
q-9 -5 -22 -14t-26.5 -21t-26 -27t-19.5 -30q-2 -4 -2 -12v-639q0 -5 11 -20t26.5 -31.5t33 -32t29.5 -21.5q3 -2 6 -3t8 -1h596q11 0 19 4q9 5 22 14.5t26.5 21.5t25.5 27t20 30q2 4 2 12v639z" />
    <glyph glyph-name="macron" unicode="&#xaf;" horiz-adv-x="727" 
d="M84 1042v183h465v-183h-465z" />
    <glyph glyph-name="degree" unicode="&#xb0;" horiz-adv-x="723" 
d="M518 1200q0 -45 -17 -83.5t-45.5 -67.5t-67 -45.5t-81.5 -16.5t-82 16.5t-68.5 45.5t-47 67.5t-17.5 83.5q0 42 17.5 80t47 66.5t68.5 45.5t82 17t81.5 -17t67 -45.5t45.5 -66.5t17 -80zM399 1200q0 37 -26 64.5t-66 27.5q-20 0 -37.5 -7.5t-30.5 -20t-20.5 -29.5
t-7.5 -35q0 -20 7.5 -37.5t20.5 -31t30.5 -21.5t37.5 -8q40 0 66 29t26 69z" />
    <glyph glyph-name="plusminus" unicode="&#xb1;" horiz-adv-x="1053" 
d="M594 401v-284h-199v284h-291v193h291v289h199v-289h291v-193h-291zM100 -193v193h785v-193h-785z" />
    <glyph glyph-name="uni00B2" unicode="&#xb2;" horiz-adv-x="791" 
d="M475 1026q0 19 -18 37t-41 18h-101q-9 0 -24.5 -8t-32 -19.5t-31.5 -24t-24 -21.5l-131 94q10 13 24.5 27t29.5 26.5t29 23.5t25 19q28 20 70 32.5t76 12.5h92q57 0 106 -31t86 -77q22 -26 29.5 -50.5t7.5 -56.5v-18q0 -33 -18 -62.5t-45.5 -53.5t-60 -42t-60.5 -27
l-172 -53q-17 -5 -17.5 -13t-1.5 -18h359v-166h-541v168q0 37 11 64t31.5 46.5t48.5 33t63 24.5l176 66q5 2 14.5 6.5t18.5 11t15.5 14.5t6.5 17z" />
    <glyph glyph-name="uni00B3" unicode="&#xb3;" horiz-adv-x="803" 
d="M410 969q15 -1 28.5 -0.5t24.5 4t17.5 12.5t6.5 25q0 18 -10.5 30t-32.5 23q-3 2 -7 2h-9h-137q-17 0 -37 -15t-39 -36l-143 82q23 32 46 53t40 35q29 21 65.5 33t71.5 12h135q59 0 107 -23t84 -63q21 -32 29.5 -65.5t8.5 -65.5q0 -28 -4.5 -47.5t-12.5 -33t-18 -22.5
t-22 -16q12 -7 22 -16t18 -22t12.5 -32t4.5 -47q0 -34 -8.5 -66.5t-29.5 -64.5q-36 -40 -84 -63t-107 -23h-135q-35 0 -71.5 11.5t-65.5 33.5q-17 13 -40 34.5t-46 53.5l143 82q19 -22 39 -37.5t37 -15.5h137q5 0 9.5 0.5t11.5 3.5q18 11 28 23t10 30q0 16 -6.5 25
t-17.5 12.5t-24.5 4t-28.5 -0.5h-111v150h111z" />
    <glyph glyph-name="acute" unicode="&#xb4;" horiz-adv-x="760" 
d="M272 1055l189 243h241l-241 -299z" />
    <glyph glyph-name="uni00B5" unicode="&#xb5;" horiz-adv-x="999" 
d="M637 0l-6 51q-14 -10 -29 -20.5t-31.5 -19t-33.5 -14t-35 -5.5h-154q-20 0 -40.5 2.5t-39.5 7.5v-332h-205q0 106 -0.5 188t-0.5 150v126v115.5t0.5 119.5t0.5 136.5v167.5v212h205v-635q10 -17 30.5 -34t37.5 -28q4 -2 12 -2h148q7 0 23.5 9t34.5 21.5t35 26.5t27 25
v617h205v-703l19 -182h-203z" />
    <glyph glyph-name="paragraph" unicode="&#xb6;" horiz-adv-x="1079" 
d="M752 0v500h-76v-500h-207v500h-98q-37 0 -76 10.5t-70 32.5q-11 7 -26.5 21.5t-32 30.5t-30.5 31t-21 25q-19 28 -28 59.5t-9 63.5v150q0 32 9 64.5t28 60.5q7 10 21 25.5t30.5 32t32 30.5t26.5 22q29 22 69 33.5t77 11.5h587v-1204h-206zM752 999h-76v-297h76v297z
M295 934q-1 -1 -1 -3q-1 -2 -1 -9v-144q0 -7 1 -8q0 -2 1 -2q15 -19 30 -33q13 -13 26 -23t22 -10h96v297h-96q-8 0 -13 -2q-17 -11 -35.5 -27t-29.5 -36z" />
    <glyph glyph-name="periodcentered" unicode="&#xb7;" horiz-adv-x="586" 
d="M115 401v205h250v-205h-250z" />
    <glyph glyph-name="cedilla" unicode="&#xb8;" horiz-adv-x="831" 
d="M442 -406h-231l197 316l198 -60z" />
    <glyph glyph-name="uni00B9" unicode="&#xb9;" horiz-adv-x="680" 
d="M72 561v172h159v342h-139v170h314v-512h131v-172h-465z" />
    <glyph glyph-name="ordmasculine" unicode="&#xba;" horiz-adv-x="770" 
d="M627 772q0 -25 -5 -50t-22 -48q-5 -7 -14.5 -17.5t-20 -21t-21.5 -20.5t-20 -17q-24 -15 -54.5 -25t-59.5 -10h-131q-29 0 -59.5 10t-53.5 25q-9 7 -20.5 17t-22.5 20.5t-20.5 21t-14.5 17.5q-17 23 -22 48t-5 50v262q0 25 5 50.5t22 48.5q5 7 14.5 17t20.5 20.5
t22.5 20.5t20.5 17q23 16 53.5 25.5t59.5 9.5h131q29 0 59.5 -9.5t54.5 -25.5q9 -7 20 -17t21.5 -20.5t20 -20.5t14.5 -17q17 -23 22 -48.5t5 -50.5v-262zM457 1018v5t-2 5q-8 9 -21.5 23t-25.5 22q-2 2 -5.5 2h-5.5h-106h-5t-5 -2q-13 -8 -26.5 -21t-21.5 -24q-2 -4 -2 -7
v-3v-230v-4q0 -2 2 -6q8 -11 21.5 -24t26.5 -21q2 -2 5 -2h5h106h5.5t5.5 2q12 8 25.5 22t21.5 23q2 2 2 5v5v230z" />
    <glyph glyph-name="guillemotright" unicode="&#xbb;" horiz-adv-x="1204" 
d="M76 225l280 273l-276 266l223 65l330 -331l-330 -332zM532 225l281 273l-276 266l223 65l330 -331l-330 -332z" />
    <glyph glyph-name="onequarter" unicode="&#xbc;" horiz-adv-x="1520" 
d="M543 0h-230l664 1225h229zM1280 133v-133h-174v133h-326v143l353 392h147v-369h96v-166h-96zM1112 438l-131 -141h133zM72 561v172h159v342h-139v170h314v-512h131v-172h-465z" />
    <glyph glyph-name="onehalf" unicode="&#xbd;" horiz-adv-x="1642" 
d="M543 0h-230l664 1225h229zM1327 451q0 19 -18 37t-41 18h-101q-9 0 -24.5 -8t-32 -19.5t-31.5 -24t-24 -21.5l-131 94q10 13 24.5 27t29.5 26.5t29 23.5t25 19q28 20 70 32.5t76 12.5h92q57 0 106 -31t86 -77q22 -26 29.5 -50.5t7.5 -56.5v-18q0 -33 -18 -62.5
t-45.5 -53.5t-60 -42t-60.5 -27l-172 -53q-17 -5 -17.5 -13t-1.5 -18h359v-166h-541v168q0 37 11 64t31.5 46.5t48.5 33t63 24.5l176 66q5 2 14.5 6.5t18.5 11t15.5 14.5t6.5 17zM72 561v172h159v342h-139v170h314v-512h131v-172h-465z" />
    <glyph glyph-name="threequarters" unicode="&#xbe;" horiz-adv-x="1573" 
d="M596 0h-229l663 1225h230zM1333 133v-133h-174v133h-325v143l352 392h147v-369h97v-166h-97zM1165 438l-131 -141h133zM410 969q15 -1 28.5 -0.5t24.5 4t17.5 12.5t6.5 25q0 18 -10.5 30t-32.5 23q-3 2 -7 2h-9h-137q-17 0 -37 -15t-39 -36l-143 82q23 32 46 53t40 35
q29 21 65.5 33t71.5 12h135q59 0 107 -23t84 -63q21 -32 29.5 -65.5t8.5 -65.5q0 -28 -4.5 -47.5t-12.5 -33t-18 -22.5t-22 -16q12 -7 22 -16t18 -22t12.5 -32t4.5 -47q0 -34 -8.5 -66.5t-29.5 -64.5q-36 -40 -84 -63t-107 -23h-135q-35 0 -71.5 11.5t-65.5 33.5
q-17 13 -40 34.5t-46 53.5l143 82q19 -22 39 -37.5t37 -15.5h137q5 0 9.5 0.5t11.5 3.5q18 11 28 23t10 30q0 16 -6.5 25t-17.5 12.5t-24.5 4t-28.5 -0.5h-111v150h111z" />
    <glyph glyph-name="questiondown" unicode="&#xbf;" horiz-adv-x="942" 
d="M78 422q0 38 12 71.5t32 61.5t47 49.5t56 36.5q12 6 39 17.5t54.5 26t48 31t20.5 32.5v149h215v-158q0 -63 -27 -106.5t-69 -75t-92 -54.5t-95 -46q-26 -13 -26 -41v-133q0 -4 1 -6q0 -3 1 -5q7 -11 16.5 -23t20 -22t21 -16t18.5 -6h229q7 0 16 6t21.5 16t24.5 22
t22.5 25t17.5 25l9 14l202 -59q-12 -26 -22.5 -46t-24.5 -40q-19 -28 -45.5 -57.5t-59.5 -54t-72 -40.5t-83 -16h-244q-37 0 -75.5 12.5t-67.5 34.5q-11 8 -26 22t-30 30t-28 31.5t-20 25.5q-19 28 -28 60.5t-9 64.5v141zM618 1231v-240h-247v240h247z" />
    <glyph glyph-name="Agrave" unicode="&#xc0;" horiz-adv-x="1124" 
d="M825 0l-90 260h-465l-90 -260h-229l428 1225h250l426 -1225h-230zM504 948l-166 -483h330zM510 1276l-242 299h242l188 -244z" />
    <glyph glyph-name="Aacute" unicode="&#xc1;" horiz-adv-x="1124" 
d="M825 0l-90 260h-465l-90 -260h-229l428 1225h250l426 -1225h-230zM504 948l-166 -483h330zM410 1350l188 243h242l-242 -299z" />
    <glyph glyph-name="Acircumflex" unicode="&#xc2;" horiz-adv-x="1124" 
d="M825 0l-90 260h-465l-90 -260h-229l428 1225h250l426 -1225h-230zM504 948l-166 -483h330zM221 1305l201 268h192l201 -268h-219l-78 106l-78 -106h-219z" />
    <glyph glyph-name="Atilde" unicode="&#xc3;" horiz-adv-x="1124" 
d="M825 0l-90 260h-465l-90 -260h-229l428 1225h250l426 -1225h-230zM504 948l-166 -483h330zM672 1305q-7 16 -18.5 28t-23.5 19t-23.5 9.5t-18.5 0.5l-133 -43q-38 -12 -79.5 -8t-80.5 24.5t-72.5 58t-54.5 91.5l174 43q14 -32 35 -44t37 -7l139 43q39 12 80 7.5t79 -25.5
t70 -58.5t54 -91.5z" />
    <glyph glyph-name="Adieresis" unicode="&#xc4;" horiz-adv-x="1124" 
d="M0 0zM825 0l-90 260h-465l-90 -260h-229l428 1225h250l426 -1225h-230zM504 948l-166 -483h330zM569 1338v211h199v-211h-199zM240 1338v211h198v-211h-198z" />
    <glyph glyph-name="Aring" unicode="&#xc5;" horiz-adv-x="1124" 
d="M0 0zM825 0l-90 260h-465l-90 -260h-229l428 1225h250l426 -1225h-230zM504 948l-166 -483h330zM715 1518q0 -45 -17 -83.5t-45.5 -67.5t-67 -45.5t-81.5 -16.5t-82 16.5t-68.5 45.5t-47 67.5t-17.5 83.5q0 42 17.5 80t47 66.5t68.5 45.5t82 17t81.5 -17t67 -45.5
t45.5 -66.5t17 -80zM596 1518q0 37 -26 64.5t-66 27.5q-20 0 -37.5 -7.5t-30.5 -20t-20.5 -29.5t-7.5 -35q0 -20 7.5 -38t20.5 -31.5t30.5 -21.5t37.5 -8q40 0 66 29t26 70z" />
    <glyph glyph-name="AE" unicode="&#xc6;" horiz-adv-x="1473" 
d="M567 0v260h-297l-90 -260h-229l428 1225h897v-205h-494v-309h455v-205h-455v-301h494v-205h-709zM338 465h229v555h-39z" />
    <glyph glyph-name="Ccedilla" unicode="&#xc7;" horiz-adv-x="1118" 
d="M90 0zM503 -406h-231l197 316l198 -60zM958 238q-12 -28 -21 -44.5t-22 -33.5q-20 -27 -47 -57t-60 -55t-71.5 -41.5t-81.5 -16.5h-256q-34 0 -68 10.5t-59 26.5q-16 9 -38 27.5t-43.5 40t-40 42.5t-27.5 35q-19 28 -26 58t-7 59v645q0 29 7 58t26 57q9 13 27.5 34t40 43
t43.5 41.5t38 28.5q25 14 59 25.5t68 11.5h256q43 0 81.5 -16.5t71.5 -42t60 -55.5t47 -56q13 -17 21 -32t22 -40l-208 -59q-18 22 -35 40q-14 16 -30.5 31.5t-27.5 22.5q-2 2 -4 2h-4h-241q-2 0 -3 -0.5t-3 -0.5q-2 -1 -3 -1q-10 -5 -22.5 -15t-25.5 -22.5t-24.5 -26.5
t-19.5 -26q-2 -3 -2 -11v-12v-622q0 -9 10.5 -23t25.5 -27.5t31 -25.5t27 -18q2 -2 7.5 -2h7.5h233h4.5t5.5 2q16 8 32.5 23t30.5 32q16 18 30 41z" />
    <glyph glyph-name="Egrave" unicode="&#xc8;" horiz-adv-x="1057" 
d="M90 0v1225h770v-205h-555v-309h516v-205h-516v-301h555v-205h-770zM485 1294l-241 299h241l189 -243z" />
    <glyph glyph-name="Eacute" unicode="&#xc9;" horiz-adv-x="1057" 
d="M90 0v1225h770v-205h-555v-309h516v-205h-516v-301h555v-205h-770zM348 1350l189 243h241l-241 -299z" />
    <glyph glyph-name="Ecircumflex" unicode="&#xca;" horiz-adv-x="1057" 
d="M90 0v1225h770v-205h-555v-309h516v-205h-516v-301h555v-205h-770zM188 1305l201 268h193l200 -268h-219l-78 106l-77 -106h-220z" />
    <glyph glyph-name="Edieresis" unicode="&#xcb;" horiz-adv-x="1057" 
d="M90 0zM90 0v1225h770v-205h-555v-309h516v-205h-516v-301h555v-205h-770zM555 1335v211h199v-211h-199zM226 1335v211h198v-211h-198z" />
    <glyph glyph-name="Igrave" unicode="&#xcc;" horiz-adv-x="492" 
d="M90 0v1225h215v-1225h-215zM121 1294l-242 299h242l188 -243z" />
    <glyph glyph-name="Iacute" unicode="&#xcd;" horiz-adv-x="492" 
d="M90 0v1225h215v-1225h-215zM90 1350l189 243h241l-241 -299z" />
    <glyph glyph-name="Icircumflex" unicode="&#xce;" horiz-adv-x="492" 
d="M90 0v1225h215v-1225h-215zM-100 1305l200 268h193l201 -268h-220l-77 106l-78 -106h-219z" />
    <glyph glyph-name="Idieresis" unicode="&#xcf;" horiz-adv-x="492" 
d="M90 0v1225h215v-1225h-215zM262 1338v211h199v-211h-199zM-67 1338v211h198v-211h-198z" />
    <glyph glyph-name="Eth" unicode="&#xd0;" horiz-adv-x="1194" 
d="M997 297q0 -28 -5.5 -58.5t-22.5 -58.5q-10 -14 -29 -34.5t-41 -41.5t-44 -39.5t-38 -27.5q-26 -14 -58.5 -25.5t-64.5 -11.5h-563v516h-154v193h154v516h563q28 0 62.5 -9t60.5 -26q17 -10 38.5 -30t43 -42t40 -43.5t28.5 -34.5q18 -27 24 -57t6 -59v-627zM680 205h5
q5 0 9 2q11 6 26 18t29 25.5t23.5 27.5t9.5 23v627q-18 31 -45 56t-47 34q-2 2 -8 2h-8h-328v-311h211v-193h-211v-311h334z" />
    <glyph glyph-name="Ntilde" unicode="&#xd1;" horiz-adv-x="1159" 
d="M90 0zM729 0l-424 813v-813h-215v1225h232l419 -824v824h215v-1225h-227zM723 1309q-7 16 -18 28t-23 19t-23.5 9.5t-19.5 0.5l-133 -43q-38 -12 -79 -8t-80 25t-72.5 58t-55.5 91l174 43q14 -32 35.5 -44t36.5 -7l139 43q39 12 80.5 8t79 -25t70 -59t53.5 -92z" />
    <glyph glyph-name="Ograve" unicode="&#xd2;" horiz-adv-x="1202" 
d="M1022 291q0 -29 -7 -59t-26 -58q-10 -13 -28.5 -34.5t-40 -43.5t-43 -41t-37.5 -28q-25 -16 -60 -26.5t-67 -10.5h-312q-34 0 -68 10.5t-59 26.5q-16 9 -38 28t-43.5 41t-40 43.5t-27.5 34.5q-19 28 -26 58t-7 59v641q0 29 7 59t26 58q9 13 27.5 34t40 43t43.5 41.5
t38 28.5q25 16 59 26.5t68 10.5h312q32 0 67 -10.5t60 -26.5q16 -9 37.5 -28.5t43 -41.5t40 -43t28.5 -34q19 -28 26 -58t7 -59v-641zM307 293v-3q0 -3 2 -5q19 -28 46 -53.5t44 -34.5q3 -2 6 -2h5h295h3q3 0 7 2q17 9 44 34.5t46 53.5q2 4 2 5v3v633v4q0 4 -2 6
q-9 14 -21.5 28t-25 26.5t-24 21.5t-19.5 14q-3 2 -5.5 2h-4.5h-295h-5q-4 0 -6 -2q-8 -5 -19.5 -14t-24 -21.5t-25 -26.5t-21.5 -28q-2 -4 -2 -7v-3v-633zM555 1294l-242 299h242l188 -243z" />
    <glyph glyph-name="Oacute" unicode="&#xd3;" horiz-adv-x="1206" 
d="M1022 291q0 -29 -7 -59t-26 -58q-10 -13 -28.5 -34.5t-40 -43.5t-43 -41t-37.5 -28q-25 -16 -60 -26.5t-67 -10.5h-312q-34 0 -68 10.5t-59 26.5q-16 9 -38 28t-43.5 41t-40 43.5t-27.5 34.5q-19 28 -26 58t-7 59v641q0 29 7 59t26 58q9 13 27.5 34t40 43t43.5 41.5
t38 28.5q25 16 59 26.5t68 10.5h312q32 0 67 -10.5t60 -26.5q16 -9 37.5 -28.5t43 -41.5t40 -43t28.5 -34q19 -28 26 -58t7 -59v-641zM307 293v-3q0 -3 2 -5q19 -28 46 -53.5t44 -34.5q3 -2 6 -2h5h295h3q3 0 7 2q17 9 44 34.5t46 53.5q2 4 2 5v3v633v4q0 4 -2 6
q-9 14 -21.5 28t-25 26.5t-24 21.5t-19.5 14q-3 2 -5.5 2h-4.5h-295h-5q-4 0 -6 -2q-8 -5 -19.5 -14t-24 -21.5t-25 -26.5t-21.5 -28q-2 -4 -2 -7v-3v-633zM354 1350l189 243h241l-241 -299z" />
    <glyph glyph-name="Ocircumflex" unicode="&#xd4;" horiz-adv-x="1206" 
d="M1022 291q0 -29 -7 -59t-26 -58q-10 -13 -28.5 -34.5t-40 -43.5t-43 -41t-37.5 -28q-25 -16 -60 -26.5t-67 -10.5h-312q-34 0 -68 10.5t-59 26.5q-16 9 -38 28t-43.5 41t-40 43.5t-27.5 34.5q-19 28 -26 58t-7 59v641q0 29 7 59t26 58q9 13 27.5 34t40 43t43.5 41.5
t38 28.5q25 16 59 26.5t68 10.5h312q32 0 67 -10.5t60 -26.5q16 -9 37.5 -28.5t43 -41.5t40 -43t28.5 -34q19 -28 26 -58t7 -59v-641zM307 293v-3q0 -3 2 -5q19 -28 46 -53.5t44 -34.5q3 -2 6 -2h5h295h3q3 0 7 2q17 9 44 34.5t46 53.5q2 4 2 5v3v633v4q0 4 -2 6
q-9 14 -21.5 28t-25 26.5t-24 21.5t-19.5 14q-3 2 -5.5 2h-4.5h-295h-5q-4 0 -6 -2q-8 -5 -19.5 -14t-24 -21.5t-25 -26.5t-21.5 -28q-2 -4 -2 -7v-3v-633zM274 1305l201 268h193l200 -268h-219l-78 106l-77 -106h-220z" />
    <glyph glyph-name="Otilde" unicode="&#xd5;" horiz-adv-x="1186" 
d="M1022 291q0 -29 -7 -59t-26 -58q-10 -13 -28.5 -34.5t-40 -43.5t-43 -41t-37.5 -28q-25 -16 -60 -26.5t-67 -10.5h-312q-34 0 -68 10.5t-59 26.5q-16 9 -38 28t-43.5 41t-40 43.5t-27.5 34.5q-19 28 -26 58t-7 59v641q0 29 7 59t26 58q9 13 27.5 34t40 43t43.5 41.5
t38 28.5q25 16 59 26.5t68 10.5h312q32 0 67 -10.5t60 -26.5q16 -9 37.5 -28.5t43 -41.5t40 -43t28.5 -34q19 -28 26 -58t7 -59v-641zM307 293v-3q0 -3 2 -5q19 -28 46 -53.5t44 -34.5q3 -2 6 -2h5h295h3q3 0 7 2q17 9 44 34.5t46 53.5q2 4 2 5v3v633v4q0 4 -2 6
q-9 14 -21.5 28t-25 26.5t-24 21.5t-19.5 14q-3 2 -5.5 2h-4.5h-295h-5q-4 0 -6 -2q-8 -5 -19.5 -14t-24 -21.5t-25 -26.5t-21.5 -28q-2 -4 -2 -7v-3v-633zM733 1305q-7 16 -18 28t-23 19t-23.5 9.5t-19.5 0.5l-133 -43q-38 -12 -79 -8t-80 24.5t-72.5 58t-55.5 91.5l174 43
q14 -32 35.5 -44t36.5 -7l139 43q39 12 80.5 7.5t79 -25.5t70 -58.5t53.5 -91.5z" />
    <glyph glyph-name="Odieresis" unicode="&#xd6;" horiz-adv-x="1206" 
d="M92 0zM1022 291q0 -29 -7 -59t-26 -58q-10 -13 -28.5 -34.5t-40 -43.5t-43 -41t-37.5 -28q-25 -16 -60 -26.5t-67 -10.5h-312q-34 0 -68 10.5t-59 26.5q-16 9 -38 28t-43.5 41t-40 43.5t-27.5 34.5q-19 28 -26 58t-7 59v641q0 29 7 59t26 58q9 13 27.5 34t40 43
t43.5 41.5t38 28.5q25 16 59 26.5t68 10.5h312q32 0 67 -10.5t60 -26.5q16 -9 37.5 -28.5t43 -41.5t40 -43t28.5 -34q19 -28 26 -58t7 -59v-641zM307 293v-3q0 -3 2 -5q19 -28 46 -53.5t44 -34.5q3 -2 6 -2h5h295h3q3 0 7 2q17 9 44 34.5t46 53.5q2 4 2 5v3v633v4q0 4 -2 6
q-9 14 -21.5 28t-25 26.5t-24 21.5t-19.5 14q-3 2 -5.5 2h-4.5h-295h-5q-4 0 -6 -2q-8 -5 -19.5 -14t-24 -21.5t-25 -26.5t-21.5 -28q-2 -4 -2 -7v-3v-633zM624 1335v211h199v-211h-199zM295 1335v211h198v-211h-198z" />
    <glyph glyph-name="multiply" unicode="&#xd7;" horiz-adv-x="1053" 
d="M111 252l247 250l-245 248l135 137l248 -250l249 250l140 -142l-248 -249l246 -248l-135 -137l-248 249l-250 -249z" />
    <glyph glyph-name="Oslash" unicode="&#xd8;" horiz-adv-x="1169" 
d="M909 1137q25 -25 46.5 -49.5t33.5 -38.5q19 -28 26 -58t7 -59v-641q0 -29 -7 -59t-26 -58q-10 -13 -28.5 -34.5t-40 -43.5t-43 -41t-37.5 -28q-25 -16 -60 -26.5t-67 -10.5h-312q-27 0 -54 6.5t-50 17.5l-35 -65h-139l76 139q-23 25 -44 48.5t-30 37.5q-19 28 -26 58
t-7 59v641q0 29 7 59t26 58q9 13 27.5 34t40 43t43.5 41.5t38 28.5q25 16 59 26.5t68 10.5h312q24 0 49.5 -6.5t48.5 -16.5l37 66h139zM805 936q-2 0 -2 1v1l-406 -741h2q3 -2 6 -2h5h295h3q3 0 7 2q17 9 44 34.5t46 53.5q2 4 2 5v3v633v4q0 4 -2 6zM307 293v-6l404 739
q-2 2 -4 2h-2h-295h-5q-4 0 -6 -2q-8 -5 -19.5 -14t-24 -21.5t-25 -26.5t-21.5 -28q-2 -4 -2 -7v-3v-633z" />
    <glyph glyph-name="Ugrave" unicode="&#xd9;" 
d="M733 1225h215v-934q0 -29 -7 -59t-26 -58q-9 -13 -27 -34.5t-39.5 -43.5t-43.5 -41t-39 -28q-25 -16 -59 -26.5t-66 -10.5h-260q-34 0 -68 10.5t-59 26.5q-16 9 -38 28t-44 41t-40.5 43.5t-27.5 34.5q-18 28 -25 58t-7 59v934h215v-930v-4q0 -4 2 -6q18 -28 44.5 -53.5
t45.5 -34.5q4 -2 6 -2h4h244h4.5t5.5 2q9 4 20.5 13.5t23.5 21.5t23.5 25.5t20.5 27.5q2 4 2 5v3v932zM524 1294l-241 299h241l189 -243z" />
    <glyph glyph-name="Uacute" unicode="&#xda;" 
d="M733 1225h215v-934q0 -29 -7 -59t-26 -58q-9 -13 -27 -34.5t-39.5 -43.5t-43.5 -41t-39 -28q-25 -16 -59 -26.5t-66 -10.5h-260q-34 0 -68 10.5t-59 26.5q-16 9 -38 28t-44 41t-40.5 43.5t-27.5 34.5q-18 28 -25 58t-7 59v934h215v-930v-4q0 -4 2 -6q18 -28 44.5 -53.5
t45.5 -34.5q4 -2 6 -2h4h244h4.5t5.5 2q9 4 20.5 13.5t23.5 21.5t23.5 25.5t20.5 27.5q2 4 2 5v3v932zM334 1350l188 243h242l-242 -299z" />
    <glyph glyph-name="Ucircumflex" unicode="&#xdb;" 
d="M733 1225h215v-934q0 -29 -7 -59t-26 -58q-9 -13 -27 -34.5t-39.5 -43.5t-43.5 -41t-39 -28q-25 -16 -59 -26.5t-66 -10.5h-260q-34 0 -68 10.5t-59 26.5q-16 9 -38 28t-44 41t-40.5 43.5t-27.5 34.5q-18 28 -25 58t-7 59v934h215v-930v-4q0 -4 2 -6q18 -28 44.5 -53.5
t45.5 -34.5q4 -2 6 -2h4h244h4.5t5.5 2q9 4 20.5 13.5t23.5 21.5t23.5 25.5t20.5 27.5q2 4 2 5v3v932zM225 1305l201 268h192l201 -268h-219l-78 106l-78 -106h-219z" />
    <glyph glyph-name="Udieresis" unicode="&#xdc;" 
d="M72 0zM733 1225h215v-934q0 -29 -7 -59t-26 -58q-9 -13 -27 -34.5t-39.5 -43.5t-43.5 -41t-39 -28q-25 -16 -59 -26.5t-66 -10.5h-260q-34 0 -68 10.5t-59 26.5q-16 9 -38 28t-44 41t-40.5 43.5t-27.5 34.5q-18 28 -25 58t-7 59v934h215v-930v-4q0 -4 2 -6
q18 -28 44.5 -53.5t45.5 -34.5q4 -2 6 -2h4h244h4.5t5.5 2q9 4 20.5 13.5t23.5 21.5t23.5 25.5t20.5 27.5q2 4 2 5v3v932zM577 1335v211h199v-211h-199zM248 1335v211h198v-211h-198z" />
    <glyph glyph-name="Yacute" unicode="&#xdd;" horiz-adv-x="1065" 
d="M582 535v-535h-215v535l-402 690h238l272 -465l273 465h239zM303 1350l189 243h241l-241 -299z" />
    <glyph glyph-name="Thorn" unicode="&#xde;" horiz-adv-x="1100" 
d="M958 524q0 -70 -36 -125q-7 -10 -21 -25t-30.5 -31t-32.5 -30.5t-27 -21.5q-32 -23 -70 -34t-75 -11h-361v-248h-215v1227h215v-238h361q37 0 75.5 -11.5t69.5 -33.5q11 -8 27 -22.5t32.5 -31.5t30.5 -33t21 -26q18 -27 27 -59.5t9 -64.5v-181zM743 702v6q0 5 -2 9
q-5 8 -12.5 19t-17 21t-19 17t-16.5 8h-371v-331h361q7 0 17 6.5t21 16t21 21.5t16 23l1 2q0 1 0.5 2.5t0.5 3.5v176z" />
    <glyph glyph-name="germandbls" unicode="&#xdf;" horiz-adv-x="1112" 
d="M285 147l-17 -147h-207l19 182v740q0 27 7.5 59t27.5 59q9 12 26.5 33t38 43t42 42t38.5 30q25 14 60 25.5t69 11.5h121q38 0 76 -12t69 -33q12 -9 27 -22t28.5 -27.5t25.5 -27.5t18 -22q39 -59 39 -129v-94q0 -41 -22.5 -73.5t-59.5 -69.5l-22.5 -22.5t-13.5 -15t-8 -12
t-5 -14.5q-2 -5 -2.5 -13t-0.5 -13v-33q0 -5 9 -15t24 -12q20 -2 28.5 -3.5t15 -2.5t14.5 -2t26 -2q42 -4 78.5 -18.5t64.5 -40.5t44 -63.5t16 -88.5v-90q0 -34 -9.5 -65.5t-29.5 -59.5q-6 -9 -16.5 -22t-23 -26t-26.5 -25.5t-26 -20.5q-31 -22 -69 -31.5t-77 -11.5h-180
q-15 0 -32.5 3t-34.5 8t-32.5 11.5t-27.5 14.5l4 7t11 19t15.5 27.5t17.5 31.5q21 38 49 87q10 -6 15 -8.5l8 -4t5 -1.5t6 -1h172q9 0 22 7t25 18t20.5 23.5t8.5 23.5v82q0 8 -6 17.5t-23 11.5q-23 1 -36 2.5t-22.5 2.5t-17.5 2t-20 3q-41 5 -76 19.5t-60.5 39t-40.5 61
t-15 85.5v51q0 43 12 75.5t47 67.5q5 6 14 14.5t19 19t20 22.5t17 24l1 3q0 2 0.5 6t0.5 12v71q0 3 -0.5 5t-0.5 4q-1 2 -1 4q-5 7 -14.5 18.5t-20.5 22.5t-22.5 18.5t-20.5 7.5h-117q-11 0 -25.5 -10.5t-29.5 -26t-27.5 -32.5t-19.5 -29q-4 -6 -4 -9q-1 -3 0 -5v-771z" />
    <glyph glyph-name="agrave" unicode="&#xe0;" horiz-adv-x="987" 
d="M35 0zM598 625v4q0 4 -2 6q-9 15 -28 32.5t-38 28.5q-8 4 -12 4h-180q-9 0 -21.5 -7.5t-24.5 -18t-22 -21t-14 -16.5l-193 57q8 18 25 41t37.5 44.5t40 39.5t31.5 27q29 20 69.5 34.5t77.5 14.5h176q38 0 78.5 -11.5t71.5 -33.5q11 -9 25.5 -21.5t28.5 -26t26 -26.5
t18 -22q22 -29 28.5 -62.5t6.5 -64.5v-447l20 -180h-202l-11 41q-28 -20 -60 -35.5t-67 -15.5h-168q-38 0 -77 11.5t-70 33.5q-12 8 -26 21t-27.5 27t-25 27t-17.5 21q-20 28 -28.5 59.5t-8.5 65.5v37q0 34 8.5 65.5t28.5 59.5q6 8 17.5 20.5t25 25.5t27.5 25t26 21
q31 22 70 33.5t77 11.5h283v70zM598 373h-281q-5 0 -7 -0.5t-7 -3.5q-17 -11 -33.5 -29t-27.5 -37q-1 -1 -1 -2q-1 -1 -1 -4v-39q0 -3 1 -4q0 -1 1 -2q11 -19 28 -36.5t35 -27.5q8 -4 12 -4h160q9 0 26.5 10.5t36.5 24t35.5 27t22.5 20.5v107zM430 999l-242 299h242
l188 -243z" />
    <glyph glyph-name="aacute" unicode="&#xe1;" horiz-adv-x="987" 
d="M35 0zM598 625v4q0 4 -2 6q-9 15 -28 32.5t-38 28.5q-8 4 -12 4h-180q-9 0 -21.5 -7.5t-24.5 -18t-22 -21t-14 -16.5l-193 57q8 18 25 41t37.5 44.5t40 39.5t31.5 27q29 20 69.5 34.5t77.5 14.5h176q38 0 78.5 -11.5t71.5 -33.5q11 -9 25.5 -21.5t28.5 -26t26 -26.5
t18 -22q22 -29 28.5 -62.5t6.5 -64.5v-447l20 -180h-202l-11 41q-28 -20 -60 -35.5t-67 -15.5h-168q-38 0 -77 11.5t-70 33.5q-12 8 -26 21t-27.5 27t-25 27t-17.5 21q-20 28 -28.5 59.5t-8.5 65.5v37q0 34 8.5 65.5t28.5 59.5q6 8 17.5 20.5t25 25.5t27.5 25t26 21
q31 22 70 33.5t77 11.5h283v70zM598 373h-281q-5 0 -7 -0.5t-7 -3.5q-17 -11 -33.5 -29t-27.5 -37q-1 -1 -1 -2q-1 -1 -1 -4v-39q0 -3 1 -4q0 -1 1 -2q11 -19 28 -36.5t35 -27.5q8 -4 12 -4h160q9 0 26.5 10.5t36.5 24t35.5 27t22.5 20.5v107zM272 1055l189 243h241
l-241 -299z" />
    <glyph glyph-name="acircumflex" unicode="&#xe2;" horiz-adv-x="987" 
d="M35 0zM598 625v4q0 4 -2 6q-9 15 -28 32.5t-38 28.5q-8 4 -12 4h-180q-9 0 -21.5 -7.5t-24.5 -18t-22 -21t-14 -16.5l-193 57q8 18 25 41t37.5 44.5t40 39.5t31.5 27q29 20 69.5 34.5t77.5 14.5h176q38 0 78.5 -11.5t71.5 -33.5q11 -9 25.5 -21.5t28.5 -26t26 -26.5
t18 -22q22 -29 28.5 -62.5t6.5 -64.5v-447l20 -180h-202l-11 41q-28 -20 -60 -35.5t-67 -15.5h-168q-38 0 -77 11.5t-70 33.5q-12 8 -26 21t-27.5 27t-25 27t-17.5 21q-20 28 -28.5 59.5t-8.5 65.5v37q0 34 8.5 65.5t28.5 59.5q6 8 17.5 20.5t25 25.5t27.5 25t26 21
q31 22 70 33.5t77 11.5h283v70zM598 373h-281q-5 0 -7 -0.5t-7 -3.5q-17 -11 -33.5 -29t-27.5 -37q-1 -1 -1 -2q-1 -1 -1 -4v-39q0 -3 1 -4q0 -1 1 -2q11 -19 28 -36.5t35 -27.5q8 -4 12 -4h160q9 0 26.5 10.5t36.5 24t35.5 27t22.5 20.5v107zM135 1010l201 268h192
l201 -268h-219l-78 106l-78 -106h-219z" />
    <glyph glyph-name="atilde" unicode="&#xe3;" horiz-adv-x="987" 
d="M35 0zM598 625v4q0 4 -2 6q-9 15 -28 32.5t-38 28.5q-8 4 -12 4h-180q-9 0 -21.5 -7.5t-24.5 -18t-22 -21t-14 -16.5l-193 57q8 18 25 41t37.5 44.5t40 39.5t31.5 27q29 20 69.5 34.5t77.5 14.5h176q38 0 78.5 -11.5t71.5 -33.5q11 -9 25.5 -21.5t28.5 -26t26 -26.5
t18 -22q22 -29 28.5 -62.5t6.5 -64.5v-447l20 -180h-202l-11 41q-28 -20 -60 -35.5t-67 -15.5h-168q-38 0 -77 11.5t-70 33.5q-12 8 -26 21t-27.5 27t-25 27t-17.5 21q-20 28 -28.5 59.5t-8.5 65.5v37q0 34 8.5 65.5t28.5 59.5q6 8 17.5 20.5t25 25.5t27.5 25t26 21
q31 22 70 33.5t77 11.5h283v70zM598 373h-281q-5 0 -7 -0.5t-7 -3.5q-17 -11 -33.5 -29t-27.5 -37q-1 -1 -1 -2q-1 -1 -1 -4v-39q0 -3 1 -4q0 -1 1 -2q11 -19 28 -36.5t35 -27.5q8 -4 12 -4h160q9 0 26.5 10.5t36.5 24t35.5 27t22.5 20.5v107zM614 1018q-7 16 -18 28t-23 19
t-23.5 9.5t-19.5 0.5l-133 -43q-38 -12 -79 -8t-80 25t-72.5 58t-55.5 91l174 43q14 -32 35.5 -44t36.5 -7l139 43q39 12 80.5 8t79 -25t70 -59t53.5 -92z" />
    <glyph glyph-name="adieresis" unicode="&#xe4;" horiz-adv-x="981" 
d="M35 0zM598 625v4q0 4 -2 6q-9 15 -28 32.5t-38 28.5q-8 4 -12 4h-180q-9 0 -21.5 -7.5t-24.5 -18t-22 -21t-14 -16.5l-193 57q8 18 25 41t37.5 44.5t40 39.5t31.5 27q29 20 69.5 34.5t77.5 14.5h176q38 0 78.5 -11.5t71.5 -33.5q11 -9 25.5 -21.5t28.5 -26t26 -26.5
t18 -22q22 -29 28.5 -62.5t6.5 -64.5v-447l20 -180h-202l-11 41q-28 -20 -60 -35.5t-67 -15.5h-168q-38 0 -77 11.5t-70 33.5q-12 8 -26 21t-27.5 27t-25 27t-17.5 21q-20 28 -28.5 59.5t-8.5 65.5v37q0 34 8.5 65.5t28.5 59.5q6 8 17.5 20.5t25 25.5t27.5 25t26 21
q31 22 70 33.5t77 11.5h283v70zM598 373h-281q-5 0 -7 -0.5t-7 -3.5q-17 -11 -33.5 -29t-27.5 -37q-1 -1 -1 -2q-1 -1 -1 -4v-39q0 -3 1 -4q0 -1 1 -2q11 -19 28 -36.5t35 -27.5q8 -4 12 -4h160q9 0 26.5 10.5t36.5 24t35.5 27t22.5 20.5v107zM483 1016v211h199v-211h-199z
M154 1016v211h198v-211h-198z" />
    <glyph glyph-name="aring" unicode="&#xe5;" horiz-adv-x="987" 
d="M35 0zM598 625v4q0 4 -2 6q-9 15 -28 32.5t-38 28.5q-8 4 -12 4h-180q-9 0 -21.5 -7.5t-24.5 -18t-22 -21t-14 -16.5l-193 57q8 18 25 41t37.5 44.5t40 39.5t31.5 27q29 20 69.5 34.5t77.5 14.5h176q38 0 78.5 -11.5t71.5 -33.5q11 -9 25.5 -21.5t28.5 -26t26 -26.5
t18 -22q22 -29 28.5 -62.5t6.5 -64.5v-447l20 -180h-202l-11 41q-28 -20 -60 -35.5t-67 -15.5h-168q-38 0 -77 11.5t-70 33.5q-12 8 -26 21t-27.5 27t-25 27t-17.5 21q-20 28 -28.5 59.5t-8.5 65.5v37q0 34 8.5 65.5t28.5 59.5q6 8 17.5 20.5t25 25.5t27.5 25t26 21
q31 22 70 33.5t77 11.5h283v70zM598 373h-281q-5 0 -7 -0.5t-7 -3.5q-17 -11 -33.5 -29t-27.5 -37q-1 -1 -1 -2q-1 -1 -1 -4v-39q0 -3 1 -4q0 -1 1 -2q11 -19 28 -36.5t35 -27.5q8 -4 12 -4h160q9 0 26.5 10.5t36.5 24t35.5 27t22.5 20.5v107zM651 1221q0 -45 -17 -83.5
t-45.5 -67.5t-67 -45.5t-81.5 -16.5t-82 16.5t-68.5 45.5t-47 67.5t-17.5 83.5q0 42 17.5 80t47 66.5t68.5 45.5t82 17t81.5 -17t67 -45.5t45.5 -66.5t17 -80zM532 1221q0 37 -26 64.5t-66 27.5q-20 0 -37.5 -7.5t-30.5 -20t-20.5 -29.5t-7.5 -35q0 -20 7.5 -38t20.5 -31.5
t30.5 -21.5t37.5 -8q40 0 66 29t26 70z" />
    <glyph glyph-name="ae" unicode="&#xe6;" horiz-adv-x="1516" 
d="M803 338v-78q0 -5 1 -7q0 -2 1 -3q7 -12 17.5 -24t21.5 -21.5t22 -16t19 -6.5h198q8 0 19 6.5t22.5 15.5t20.5 18.5t14 15.5q6 6 6 8l191 -58q-8 -18 -25 -41t-36.5 -44.5t-38.5 -39.5t-31 -26q-29 -20 -70 -33.5t-78 -13.5h-192q-38 0 -78.5 10.5t-71.5 32.5
q-14 9 -30 23.5t-31 29.5l-62 -45q-28 -20 -61 -35.5t-68 -15.5h-168q-38 0 -77 11.5t-70 33.5q-12 8 -26 21t-27.5 27t-25 27t-17.5 21q-20 28 -28.5 59.5t-8.5 65.5v37q0 34 8.5 65.5t28.5 59.5q6 8 17.5 21t25 27t27.5 27t26 21q31 22 70 33.5t77 11.5h283v68v8
q-9 15 -29 32.5t-39 28.5q-8 4 -12 4h-180q-9 0 -21.5 -7.5t-24.5 -18t-22 -21t-14 -16.5l-193 57q8 18 25 41t37.5 44.5t40 39.5t31.5 27q29 20 69.5 34.5t77.5 14.5h176q38 0 78.5 -11.5t71.5 -33.5q6 -6 14.5 -12.5t17.5 -14.5q10 8 17.5 14.5t15.5 12.5q31 22 71.5 33.5
t78.5 11.5h188q38 0 78.5 -11.5t71.5 -33.5q11 -9 25.5 -22t28.5 -27t26 -27t18 -22q22 -29 29.5 -61.5t7.5 -63.5v-289h-555zM477 182q8 0 24.5 9.5t35 22.5t35.5 26.5t26 21.5v105h-281q-11 0 -14 -5q-17 -11 -34.5 -28.5t-28.5 -36.5q-1 -1 -1 -2q-1 -1 -1 -4v-33
q0 -3 1 -4q0 -1 1 -2q11 -19 29.5 -37t35.5 -29q1 -1 4 -2q4 -2 8 -2h160zM1153 623v5q0 5 -2 7q-9 15 -29 33.5t-39 29.5q-4 2 -12 2h-186q-8 0 -19 -6t-22 -15t-21.5 -20.5t-17.5 -23.5q-2 -4 -2 -8v-4v-93h350v93zM1163 246q0 1 1 1t1 -1h-2z" />
    <glyph glyph-name="ccedilla" unicode="&#xe7;" horiz-adv-x="977" 
d="M72 0zM442 -406h-231l197 316l198 -60zM276 260q0 -2 1 -4t1.5 -4t2.5 -4q11 -19 29 -34t36 -26q1 -1 4 -2q4 -2 8 -2h201q8 0 19 6.5t22.5 15t20.5 17.5t14 15q0 1 1 2q3 3 5 6l190 -58q-8 -18 -24.5 -41t-36 -44.5t-39 -39.5t-31.5 -26q-29 -20 -69.5 -33.5
t-77.5 -13.5h-197q-38 0 -78 10.5t-71 32.5q-12 8 -26.5 21.5t-28.5 28t-25.5 28t-17.5 22.5q-22 29 -29.5 61.5t-7.5 63.5v369q0 31 7.5 63.5t29.5 61.5q6 9 17.5 22.5t25.5 28t28.5 27.5t26.5 22q31 22 71 32.5t78 10.5h195q37 0 77.5 -13.5t69.5 -33.5q15 -11 34.5 -28
t38 -37.5t34.5 -43t24 -43.5l-190 -57q-2 3 -5 6q-1 1 -1 2q-5 6 -14 15t-20.5 17.5t-22.5 14.5t-19 6h-199q-4 0 -8 -2q-3 -1 -4 -2q-18 -11 -36 -25.5t-29 -33.5q-2 -2 -2.5 -4t-1.5 -4t-1 -4v-365z" />
    <glyph glyph-name="egrave" unicode="&#xe8;" horiz-adv-x="989" 
d="M276 344v-84q0 -5 1 -7t2 -3q7 -12 17 -23.5t21.5 -21t22 -15.5t18.5 -6h199q8 0 19 6.5t22.5 15t20.5 17.5t14 15q3 3 4 5t2 3l190 -58q-8 -18 -24.5 -41t-36 -44.5t-39 -39.5t-31.5 -26q-29 -20 -69.5 -33.5t-77.5 -13.5h-193q-38 0 -78 10.5t-71 32.5
q-12 8 -26.5 21.5t-28.5 27.5t-25.5 27.5t-17.5 21.5q-20 28 -29.5 60.5t-9.5 66.5v369q0 34 9.5 65.5t29.5 59.5q6 8 17.5 21t25.5 27.5t28.5 27.5t26.5 22q31 22 71 33.5t78 11.5h189q38 0 78 -11.5t71 -33.5q12 -9 26.5 -22t28.5 -27t26 -27t18 -22q21 -29 28.5 -61.5
t7.5 -63.5v-283h-555zM627 623v5q0 5 -2 7q-10 15 -29.5 33.5t-38.5 29.5q-4 2 -12 2h-187q-8 0 -18.5 -6t-22 -15t-21.5 -20.5t-17 -23.5q-3 -3 -3 -8v-4v-97h351v97zM430 999l-242 299h242l188 -243z" />
    <glyph glyph-name="eacute" unicode="&#xe9;" horiz-adv-x="989" 
d="M276 344v-84q0 -5 1 -7t2 -3q7 -12 17 -23.5t21.5 -21t22 -15.5t18.5 -6h199q8 0 19 6.5t22.5 15t20.5 17.5t14 15q3 3 4 5t2 3l190 -58q-8 -18 -24.5 -41t-36 -44.5t-39 -39.5t-31.5 -26q-29 -20 -69.5 -33.5t-77.5 -13.5h-193q-38 0 -78 10.5t-71 32.5
q-12 8 -26.5 21.5t-28.5 27.5t-25.5 27.5t-17.5 21.5q-20 28 -29.5 60.5t-9.5 66.5v369q0 34 9.5 65.5t29.5 59.5q6 8 17.5 21t25.5 27.5t28.5 27.5t26.5 22q31 22 71 33.5t78 11.5h189q38 0 78 -11.5t71 -33.5q12 -9 26.5 -22t28.5 -27t26 -27t18 -22q21 -29 28.5 -61.5
t7.5 -63.5v-283h-555zM627 623v5q0 5 -2 7q-10 15 -29.5 33.5t-38.5 29.5q-4 2 -12 2h-187q-8 0 -18.5 -6t-22 -15t-21.5 -20.5t-17 -23.5q-3 -3 -3 -8v-4v-97h351v97zM279 1055l188 243h242l-242 -299z" />
    <glyph glyph-name="ecircumflex" unicode="&#xea;" horiz-adv-x="999" 
d="M276 344v-84q0 -5 1 -7t2 -3q7 -12 17 -23.5t21.5 -21t22 -15.5t18.5 -6h199q8 0 19 6.5t22.5 15t20.5 17.5t14 15q3 3 4 5t2 3l190 -58q-8 -18 -24.5 -41t-36 -44.5t-39 -39.5t-31.5 -26q-29 -20 -69.5 -33.5t-77.5 -13.5h-193q-38 0 -78 10.5t-71 32.5
q-12 8 -26.5 21.5t-28.5 27.5t-25.5 27.5t-17.5 21.5q-20 28 -29.5 60.5t-9.5 66.5v369q0 34 9.5 65.5t29.5 59.5q6 8 17.5 21t25.5 27.5t28.5 27.5t26.5 22q31 22 71 33.5t78 11.5h189q38 0 78 -11.5t71 -33.5q12 -9 26.5 -22t28.5 -27t26 -27t18 -22q21 -29 28.5 -61.5
t7.5 -63.5v-283h-555zM627 623v5q0 5 -2 7q-10 15 -29.5 33.5t-38.5 29.5q-4 2 -12 2h-187q-8 0 -18.5 -6t-22 -15t-21.5 -20.5t-17 -23.5q-3 -3 -3 -8v-4v-97h351v97zM178 1010l201 268h192l201 -268h-219l-78 106l-78 -106h-219z" />
    <glyph glyph-name="edieresis" unicode="&#xeb;" horiz-adv-x="985" 
d="M69 0zM273 344v-84q0 -5 1 -7t2 -3q7 -12 17 -23.5t21.5 -21t22 -15.5t18.5 -6h199q8 0 19 6.5t22.5 15t20.5 17.5t14 15q3 3 4 5t2 3l190 -58q-8 -18 -24.5 -41t-36 -44.5t-39 -39.5t-31.5 -26q-29 -20 -69.5 -33.5t-77.5 -13.5h-193q-38 0 -78 10.5t-71 32.5
q-12 8 -26.5 21.5t-28.5 27.5t-25.5 27.5t-17.5 21.5q-20 28 -29.5 60.5t-9.5 66.5v369q0 34 9.5 65.5t29.5 59.5q6 8 17.5 21t25.5 27.5t28.5 27.5t26.5 22q31 22 71 33.5t78 11.5h189q38 0 78 -11.5t71 -33.5q12 -9 26.5 -22t28.5 -27t26 -27t18 -22q21 -29 28.5 -61.5
t7.5 -63.5v-283h-555zM624 623v5q0 5 -2 7q-10 15 -29.5 33.5t-38.5 29.5q-4 2 -12 2h-187q-8 0 -18.5 -6t-22 -15t-21.5 -20.5t-17 -23.5q-3 -3 -3 -8v-4v-97h351v97zM514 1016v211h199v-211h-199zM185 1016v211h198v-211h-198z" />
    <glyph glyph-name="igrave" unicode="&#xec;" horiz-adv-x="453" 
d="M90 -2v883h205v-883h-205zM94 999l-241 299h241l189 -243z" />
    <glyph glyph-name="iacute" unicode="&#xed;" horiz-adv-x="453" 
d="M90 -2v883h205v-883h-205zM100 1055l189 243h241l-241 -299z" />
    <glyph glyph-name="icircumflex" unicode="&#xee;" horiz-adv-x="453" 
d="M90 -2v883h205v-883h-205zM-109 1010l201 268h193l200 -268h-219l-78 106l-77 -106h-220z" />
    <glyph glyph-name="idieresis" unicode="&#xef;" horiz-adv-x="453" 
d="M0 0zM259 1016v211h199v-211h-199zM-70 1016v211h198v-211h-198zM90 -2v883h205v-883h-205z" />
    <glyph glyph-name="eth" unicode="&#xf0;" horiz-adv-x="985" 
d="M678 1085q39 -22 67 -43t46.5 -45t27 -54.5t8.5 -72.5v-608q0 -32 -9 -63.5t-27 -59.5q-7 -10 -21 -24.5t-30.5 -29.5t-32.5 -29t-27 -21q-29 -22 -66.5 -33.5t-74.5 -11.5h-177q-37 0 -75.5 9.5t-67.5 31.5q-11 7 -27 21.5t-32 30.5t-30 31t-21 25q-19 28 -28 60.5
t-9 64.5v350q0 34 9 67t28 60q7 10 21 25.5t30 32t32 31t27 22.5q31 22 68.5 32.5t74.5 10.5h136q16 0 36 -9.5t38.5 -21.5t32.5 -23t18 -14v33q0 9 -9 30.5t-34 35.5l-121 65l-94 -39l-70 125l-119 58l90 165l211 -106l191 88l82 -160zM279 631l-2 -4q-1 -2 -1 -9v-339
q0 -14 0.5 -19t2.5 -8q7 -12 17 -24t21.5 -21.5t21.5 -16t17 -6.5h187q7 0 18 6.5t22.5 17t22 22.5t17.5 24l1 4q0 3 0.5 8.5t0.5 16.5v323q-8 13 -23 28t-31 29q-18 16 -39 31q-8 6 -19 6h-13h-146q-7 0 -17 -6t-20.5 -16t-20.5 -22.5t-17 -24.5z" />
    <glyph glyph-name="ntilde" unicode="&#xf1;" horiz-adv-x="1014" 
d="M639 0v623v5.5t-2 6.5q-9 17 -28 34.5t-36 28.5q-2 2 -6.5 2h-9.5h-143q-15 0 -32 -9t-33.5 -22t-31 -27.5t-24.5 -25.5v-616h-205v702l-20 183h200l11 -47q27 20 60 38.5t69 18.5h151q38 0 78.5 -11.5t71.5 -33.5q11 -9 25.5 -22t28.5 -27t26 -27t18 -22
q22 -29 29.5 -61.5t7.5 -63.5v-627h-205zM614 1018q-7 16 -18 28t-23 19t-23.5 9.5t-19.5 0.5l-133 -43q-38 -12 -79 -8t-80 25t-72.5 58t-54.5 91l174 43q14 -32 35 -44t36 -7l140 43q39 12 80 8t78.5 -25t70 -59t53.5 -92z" />
    <glyph glyph-name="ograve" unicode="&#xf2;" horiz-adv-x="991" 
d="M829 258q0 -31 -6.5 -63.5t-27.5 -61.5q-6 -9 -18 -22.5t-26 -28t-28.5 -28t-26.5 -21.5q-31 -22 -71 -32.5t-78 -10.5h-193q-38 0 -77 10.5t-70 32.5q-12 8 -26.5 21.5t-29 28t-27 28t-18.5 22.5q-21 29 -27.5 61.5t-6.5 63.5v369q0 31 6.5 63.5t27.5 61.5q6 9 18.5 22
t27 27t29 27t26.5 22q31 22 70 33.5t77 11.5h193q38 0 78 -11.5t71 -33.5q12 -9 26.5 -22t28.5 -27t26 -27t18 -22q21 -29 27.5 -61.5t6.5 -63.5v-369zM276 621v-373q0 -6 7 -14.5t17.5 -17t22.5 -16.5l21 -14q1 -1 3 -1q2 -1 9 -1h189q4 0 12 4q7 4 18 11.5t22 16t19 17.5
t9 15v373v4.5t-2 7.5q-10 15 -29.5 34.5t-38.5 30.5q-4 2 -10 2h-189q-6 0 -10 -2q-18 -11 -37 -29t-30 -36q-3 -3 -3 -8v-4zM430 999l-242 299h242l188 -243z" />
    <glyph glyph-name="oacute" unicode="&#xf3;" horiz-adv-x="991" 
d="M829 258q0 -31 -6.5 -63.5t-27.5 -61.5q-6 -9 -18 -22.5t-26 -28t-28.5 -28t-26.5 -21.5q-31 -22 -71 -32.5t-78 -10.5h-193q-38 0 -77 10.5t-70 32.5q-12 8 -26.5 21.5t-29 28t-27 28t-18.5 22.5q-21 29 -27.5 61.5t-6.5 63.5v369q0 31 6.5 63.5t27.5 61.5q6 9 18.5 22
t27 27t29 27t26.5 22q31 22 70 33.5t77 11.5h193q38 0 78 -11.5t71 -33.5q12 -9 26.5 -22t28.5 -27t26 -27t18 -22q21 -29 27.5 -61.5t6.5 -63.5v-369zM276 621v-373q0 -6 7 -14.5t17.5 -17t22.5 -16.5l21 -14q1 -1 3 -1q2 -1 9 -1h189q4 0 12 4q7 4 18 11.5t22 16t19 17.5
t9 15v373v4.5t-2 7.5q-10 15 -29.5 34.5t-38.5 30.5q-4 2 -10 2h-189q-6 0 -10 -2q-18 -11 -37 -29t-30 -36q-3 -3 -3 -8v-4zM272 1055l189 243h241l-241 -299z" />
    <glyph glyph-name="ocircumflex" unicode="&#xf4;" horiz-adv-x="991" 
d="M829 258q0 -31 -6.5 -63.5t-27.5 -61.5q-6 -9 -18 -22.5t-26 -28t-28.5 -28t-26.5 -21.5q-31 -22 -71 -32.5t-78 -10.5h-193q-38 0 -77 10.5t-70 32.5q-12 8 -26.5 21.5t-29 28t-27 28t-18.5 22.5q-21 29 -27.5 61.5t-6.5 63.5v369q0 31 6.5 63.5t27.5 61.5q6 9 18.5 22
t27 27t29 27t26.5 22q31 22 70 33.5t77 11.5h193q38 0 78 -11.5t71 -33.5q12 -9 26.5 -22t28.5 -27t26 -27t18 -22q21 -29 27.5 -61.5t6.5 -63.5v-369zM276 621v-373q0 -6 7 -14.5t17.5 -17t22.5 -16.5l21 -14q1 -1 3 -1q2 -1 9 -1h189q4 0 12 4q7 4 18 11.5t22 16t19 17.5
t9 15v373v4.5t-2 7.5q-10 15 -29.5 34.5t-38.5 30.5q-4 2 -10 2h-189q-6 0 -10 -2q-18 -11 -37 -29t-30 -36q-3 -3 -3 -8v-4zM158 1010l200 268h193l201 -268h-220l-77 106l-78 -106h-219z" />
    <glyph glyph-name="otilde" unicode="&#xf5;" horiz-adv-x="991" 
d="M829 258q0 -31 -6.5 -63.5t-27.5 -61.5q-6 -9 -18 -22.5t-26 -28t-28.5 -28t-26.5 -21.5q-31 -22 -71 -32.5t-78 -10.5h-193q-38 0 -77 10.5t-70 32.5q-12 8 -26.5 21.5t-29 28t-27 28t-18.5 22.5q-21 29 -27.5 61.5t-6.5 63.5v369q0 31 6.5 63.5t27.5 61.5q6 9 18.5 22
t27 27t29 27t26.5 22q31 22 70 33.5t77 11.5h193q38 0 78 -11.5t71 -33.5q12 -9 26.5 -22t28.5 -27t26 -27t18 -22q21 -29 27.5 -61.5t6.5 -63.5v-369zM276 621v-373q0 -6 7 -14.5t17.5 -17t22.5 -16.5l21 -14q1 -1 3 -1q2 -1 9 -1h189q4 0 12 4q7 4 18 11.5t22 16t19 17.5
t9 15v373v4.5t-2 7.5q-10 15 -29.5 34.5t-38.5 30.5q-4 2 -10 2h-189q-6 0 -10 -2q-18 -11 -37 -29t-30 -36q-3 -3 -3 -8v-4zM616 1018q-7 16 -18 28t-23 19t-23.5 9.5t-19.5 0.5l-133 -43q-38 -12 -79 -8t-80 25t-72.5 58t-54.5 91l174 43q14 -32 35 -44t36 -7l140 43
q39 12 80 8t78.5 -25t70 -59t53.5 -92z" />
    <glyph glyph-name="odieresis" unicode="&#xf6;" horiz-adv-x="991" 
d="M72 0zM829 258q0 -31 -6.5 -63.5t-27.5 -61.5q-6 -9 -18 -22.5t-26 -28t-28.5 -28t-26.5 -21.5q-31 -22 -71 -32.5t-78 -10.5h-193q-38 0 -77 10.5t-70 32.5q-12 8 -26.5 21.5t-29 28t-27 28t-18.5 22.5q-21 29 -27.5 61.5t-6.5 63.5v369q0 31 6.5 63.5t27.5 61.5
q6 9 18.5 22t27 27t29 27t26.5 22q31 22 70 33.5t77 11.5h193q38 0 78 -11.5t71 -33.5q12 -9 26.5 -22t28.5 -27t26 -27t18 -22q21 -29 27.5 -61.5t6.5 -63.5v-369zM276 621v-373q0 -6 7 -14.5t17.5 -17t22.5 -16.5l21 -14q1 -1 3 -1q2 -1 9 -1h189q4 0 12 4q7 4 18 11.5
t22 16t19 17.5t9 15v373v4.5t-2 7.5q-10 15 -29.5 34.5t-38.5 30.5q-4 2 -10 2h-189q-6 0 -10 -2q-18 -11 -37 -29t-30 -36q-3 -3 -3 -8v-4zM514 1016v211h199v-211h-199zM185 1016v211h198v-211h-198z" />
    <glyph glyph-name="divide" unicode="&#xf7;" horiz-adv-x="963" 
d="M72 401v195h727v-195h-727zM307 748v258h252v-258h-252zM307 0v258h252v-258h-252z" />
    <glyph glyph-name="oslash" unicode="&#xf8;" horiz-adv-x="1001" 
d="M748 827q20 -18 41 -39.5t30 -35.5q22 -29 28.5 -61.5t6.5 -63.5v-369q0 -31 -6.5 -63.5t-28.5 -61.5q-6 -9 -17.5 -22.5t-25.5 -28t-28.5 -28t-26.5 -21.5q-31 -22 -71 -32.5t-79 -10.5h-217q-18 0 -36.5 2.5t-36.5 7.5l-39 -72h-133l69 127q-21 19 -41.5 41.5
t-30.5 36.5q-21 29 -27.5 61.5t-6.5 63.5v369q0 31 6.5 63.5t27.5 61.5q6 9 18.5 22t27 27t29 27t26.5 22q31 22 70 33.5t77 11.5h217q17 0 34 -2.5t36 -7.5l33 61h139zM641 641l-256 -457h184q5 0 13 4q7 4 18 11.5t21.5 16t18.5 17.5t9 15v373l-2 12zM276 248
q0 -3 1.5 -5.5t3.5 -4.5l256 462h-181q-6 0 -10 -2q-18 -11 -37 -29t-30 -36q-3 -3 -3 -8v-4v-373z" />
    <glyph glyph-name="ugrave" unicode="&#xf9;" horiz-adv-x="999" 
d="M639 0l-8 51q-14 -10 -29 -20.5t-31.5 -19t-33.5 -14t-35 -5.5h-154q-38 0 -78 10.5t-71 32.5q-12 8 -26.5 21.5t-28.5 28t-26 28t-18 22.5q-21 29 -29 61.5t-8 63.5v625h205v-621v-6.5t2 -7.5q10 -17 30.5 -34t37.5 -28q4 -2 12 -2h146q7 0 23.5 9t34.5 21.5t35 26.5
t27 25v617h205v-703l19 -182h-201zM444 999l-241 299h241l189 -243z" />
    <glyph glyph-name="uacute" unicode="&#xfa;" horiz-adv-x="999" 
d="M639 0l-8 51q-14 -10 -29 -20.5t-31.5 -19t-33.5 -14t-35 -5.5h-154q-38 0 -78 10.5t-71 32.5q-12 8 -26.5 21.5t-28.5 28t-26 28t-18 22.5q-21 29 -29 61.5t-8 63.5v625h205v-621v-6.5t2 -7.5q10 -17 30.5 -34t37.5 -28q4 -2 12 -2h146q7 0 23.5 9t34.5 21.5t35 26.5
t27 25v617h205v-703l19 -182h-201zM262 1055l189 243h241l-241 -299z" />
    <glyph glyph-name="ucircumflex" unicode="&#xfb;" horiz-adv-x="999" 
d="M639 0l-8 51q-14 -10 -29 -20.5t-31.5 -19t-33.5 -14t-35 -5.5h-154q-38 0 -78 10.5t-71 32.5q-12 8 -26.5 21.5t-28.5 28t-26 28t-18 22.5q-21 29 -29 61.5t-8 63.5v625h205v-621v-6.5t2 -7.5q10 -17 30.5 -34t37.5 -28q4 -2 12 -2h146q7 0 23.5 9t34.5 21.5t35 26.5
t27 25v617h205v-703l19 -182h-201zM143 1010l201 268h193l200 -268h-219l-78 106l-78 -106h-219z" />
    <glyph glyph-name="udieresis" unicode="&#xfc;" horiz-adv-x="999" 
d="M63 0zM639 0l-8 51q-14 -10 -29 -20.5t-31.5 -19t-33.5 -14t-35 -5.5h-154q-38 0 -78 10.5t-71 32.5q-12 8 -26.5 21.5t-28.5 28t-26 28t-18 22.5q-21 29 -29 61.5t-8 63.5v625h205v-621v-6.5t2 -7.5q10 -17 30.5 -34t37.5 -28q4 -2 12 -2h146q7 0 23.5 9t34.5 21.5
t35 26.5t27 25v617h205v-703l19 -182h-201zM514 1016v211h199v-211h-199zM185 1016v211h198v-211h-198z" />
    <glyph glyph-name="yacute" unicode="&#xfd;" horiz-adv-x="881" 
d="M0 0zM395 -332h-207l123 332h-18l-326 885h230l206 -600l209 600h217zM232 1055l189 243h241l-241 -299z" />
    <glyph glyph-name="thorn" unicode="&#xfe;" horiz-adv-x="1006" 
d="M844 260q0 -34 -8.5 -66.5t-28.5 -60.5q-6 -8 -17.5 -21.5t-25.5 -28.5t-28.5 -28.5t-26.5 -21.5q-31 -22 -70.5 -32.5t-77.5 -10.5h-149q-32 0 -63.5 14t-57.5 33v-371h-205v1563h205v-385q26 20 56.5 35.5t64.5 15.5h149q38 0 78.5 -11.5t69.5 -33.5q11 -9 25.5 -22
t28.5 -27.5t26 -28t18 -22.5q20 -29 28.5 -61t8.5 -66v-363zM639 618q0 3 -0.5 5.5t-0.5 4.5q-1 2 -1 3q-11 18 -30 36t-36 29q-8 4 -12 4h-141q-9 0 -26 -10t-36.5 -24.5t-37 -30t-27.5 -27.5v-334q10 -11 27.5 -26.5t36.5 -29.5t36.5 -24t26.5 -10h141q8 0 12 2
q17 11 36 30t30 38q0 1 1 3q0 2 0.5 3.5t0.5 3.5v354z" />
    <glyph glyph-name="ydieresis" unicode="&#xff;" horiz-adv-x="874" 
d="M8 0zM436 -332h-207l123 332h-18l-326 885h230l206 -600l209 600h217zM501 1016v211h199v-211h-199zM172 1016v211h198v-211h-198z" />
    <glyph glyph-name="Amacron" unicode="&#x100;" horiz-adv-x="1124" 
d="M0 0zM270 1364v183h465v-183h-465zM825 0l-90 260h-465l-90 -260h-229l428 1225h250l426 -1225h-230zM504 948l-166 -483h330z" />
    <glyph glyph-name="amacron" unicode="&#x101;" horiz-adv-x="987" 
d="M35 0zM598 625v4q0 4 -2 6q-9 15 -28 32.5t-38 28.5q-8 4 -12 4h-180q-9 0 -21.5 -7.5t-24.5 -18t-22 -21t-14 -16.5l-193 57q8 18 25 41t37.5 44.5t40 39.5t31.5 27q29 20 69.5 34.5t77.5 14.5h176q38 0 78.5 -11.5t71.5 -33.5q11 -9 25.5 -21.5t28.5 -26t26 -26.5
t18 -22q22 -29 28.5 -62.5t6.5 -64.5v-447l20 -180h-202l-11 41q-28 -20 -60 -35.5t-67 -15.5h-168q-38 0 -77 11.5t-70 33.5q-12 8 -26 21t-27.5 27t-25 27t-17.5 21q-20 28 -28.5 59.5t-8.5 65.5v37q0 34 8.5 65.5t28.5 59.5q6 8 17.5 20.5t25 25.5t27.5 25t26 21
q31 22 70 33.5t77 11.5h283v70zM598 373h-281q-5 0 -7 -0.5t-7 -3.5q-17 -11 -33.5 -29t-27.5 -37q-1 -1 -1 -2q-1 -1 -1 -4v-39q0 -3 1 -4q0 -1 1 -2q11 -19 28 -36.5t35 -27.5q8 -4 12 -4h160q9 0 26.5 10.5t36.5 24t35.5 27t22.5 20.5v107zM217 1042v183h465v-183h-465z
" />
    <glyph glyph-name="Abreve" unicode="&#x102;" horiz-adv-x="1124" 
d="M825 0l-90 260h-465l-90 -260h-229l428 1225h250l426 -1225h-230zM504 948l-166 -483h330zM719 1538q0 -45 -17 -83.5t-45.5 -67.5t-67 -45.5t-81.5 -16.5t-82 16.5t-68.5 45.5t-47 67.5t-17.5 83.5h119q0 -20 7.5 -37.5t20.5 -31t30.5 -21.5t37.5 -8q40 0 66 29t26 69
h119z" />
    <glyph glyph-name="abreve" unicode="&#x103;" horiz-adv-x="987" 
d="M35 0zM598 625v4q0 4 -2 6q-9 15 -28 32.5t-38 28.5q-8 4 -12 4h-180q-9 0 -21.5 -7.5t-24.5 -18t-22 -21t-14 -16.5l-193 57q8 18 25 41t37.5 44.5t40 39.5t31.5 27q29 20 69.5 34.5t77.5 14.5h176q38 0 78.5 -11.5t71.5 -33.5q11 -9 25.5 -21.5t28.5 -26t26 -26.5
t18 -22q22 -29 28.5 -62.5t6.5 -64.5v-447l20 -180h-202l-11 41q-28 -20 -60 -35.5t-67 -15.5h-168q-38 0 -77 11.5t-70 33.5q-12 8 -26 21t-27.5 27t-25 27t-17.5 21q-20 28 -28.5 59.5t-8.5 65.5v37q0 34 8.5 65.5t28.5 59.5q6 8 17.5 20.5t25 25.5t27.5 25t26 21
q31 22 70 33.5t77 11.5h283v70zM598 373h-281q-5 0 -7 -0.5t-7 -3.5q-17 -11 -33.5 -29t-27.5 -37q-1 -1 -1 -2q-1 -1 -1 -4v-39q0 -3 1 -4q0 -1 1 -2q11 -19 28 -36.5t35 -27.5q8 -4 12 -4h160q9 0 26.5 10.5t36.5 24t35.5 27t22.5 20.5v107zM649 1221q0 -45 -17 -83.5
t-45.5 -67.5t-67 -45.5t-81.5 -16.5t-82 16.5t-68.5 45.5t-47 67.5t-17.5 83.5h119q0 -20 7.5 -38t20.5 -31.5t30.5 -21.5t37.5 -8q40 0 66 29t26 70h119z" />
    <glyph glyph-name="Aogonek" unicode="&#x104;" horiz-adv-x="1124" 
d="M0 0zM800 -150l199 60l197 -316h-232zM825 0l-90 260h-465l-90 -260h-229l428 1225h250l426 -1225h-230zM504 948l-166 -483h330z" />
    <glyph glyph-name="aogonek" unicode="&#x105;" horiz-adv-x="987" 
d="M35 0zM546 -150l199 60l197 -316h-232zM598 625v4q0 4 -2 6q-9 15 -28 32.5t-38 28.5q-8 4 -12 4h-180q-9 0 -21.5 -7.5t-24.5 -18t-22 -21t-14 -16.5l-193 57q8 18 25 41t37.5 44.5t40 39.5t31.5 27q29 20 69.5 34.5t77.5 14.5h176q38 0 78.5 -11.5t71.5 -33.5
q11 -9 25.5 -21.5t28.5 -26t26 -26.5t18 -22q22 -29 28.5 -62.5t6.5 -64.5v-447l20 -180h-202l-11 41q-28 -20 -60 -35.5t-67 -15.5h-168q-38 0 -77 11.5t-70 33.5q-12 8 -26 21t-27.5 27t-25 27t-17.5 21q-20 28 -28.5 59.5t-8.5 65.5v37q0 34 8.5 65.5t28.5 59.5
q6 8 17.5 20.5t25 25.5t27.5 25t26 21q31 22 70 33.5t77 11.5h283v70zM598 373h-281q-5 0 -7 -0.5t-7 -3.5q-17 -11 -33.5 -29t-27.5 -37q-1 -1 -1 -2q-1 -1 -1 -4v-39q0 -3 1 -4q0 -1 1 -2q11 -19 28 -36.5t35 -27.5q8 -4 12 -4h160q9 0 26.5 10.5t36.5 24t35.5 27
t22.5 20.5v107z" />
    <glyph glyph-name="Cacute" unicode="&#x106;" horiz-adv-x="1133" 
d="M90 0zM958 238q-12 -28 -21 -44.5t-22 -33.5q-20 -27 -47 -57t-60 -55t-71.5 -41.5t-81.5 -16.5h-256q-34 0 -68 10.5t-59 26.5q-16 9 -38 27.5t-43.5 40t-40 42.5t-27.5 35q-19 28 -26 58t-7 59v645q0 29 7 58t26 57q9 13 27.5 34t40 43t43.5 41.5t38 28.5
q25 14 59 25.5t68 11.5h256q43 0 81.5 -16.5t71.5 -42t60 -55.5t47 -56q13 -17 21 -32t22 -40l-208 -59q-18 22 -35 40q-14 16 -30.5 31.5t-27.5 22.5q-2 2 -4 2h-4h-241q-2 0 -3 -0.5t-3 -0.5q-2 -1 -3 -1q-10 -5 -22.5 -15t-25.5 -22.5t-24.5 -26.5t-19.5 -26
q-2 -3 -2 -11v-12v-622q0 -9 10.5 -23t25.5 -27.5t31 -25.5t27 -18q2 -2 7.5 -2h7.5h233h4.5t5.5 2q16 8 32.5 23t30.5 32q16 18 30 41zM360 1350l189 243h241l-241 -299z" />
    <glyph glyph-name="cacute" unicode="&#x107;" horiz-adv-x="977" 
d="M72 0zM276 260q0 -2 1 -4t1.5 -4t2.5 -4q11 -19 29 -34t36 -26q1 -1 4 -2q4 -2 8 -2h201q8 0 19 6.5t22.5 15t20.5 17.5t14 15q0 1 1 2q3 3 5 6l190 -58q-8 -18 -24.5 -41t-36 -44.5t-39 -39.5t-31.5 -26q-29 -20 -69.5 -33.5t-77.5 -13.5h-197q-38 0 -78 10.5t-71 32.5
q-12 8 -26.5 21.5t-28.5 28t-25.5 28t-17.5 22.5q-22 29 -29.5 61.5t-7.5 63.5v369q0 31 7.5 63.5t29.5 61.5q6 9 17.5 22.5t25.5 28t28.5 27.5t26.5 22q31 22 71 32.5t78 10.5h195q37 0 77.5 -13.5t69.5 -33.5q15 -11 34.5 -28t38 -37.5t34.5 -43t24 -43.5l-190 -57
q-2 3 -5 6q-1 1 -1 2q-5 6 -14 15t-20.5 17.5t-22.5 14.5t-19 6h-199q-4 0 -8 -2q-3 -1 -4 -2q-18 -11 -36 -25.5t-29 -33.5q-2 -2 -2.5 -4t-1.5 -4t-1 -4v-365zM272 1055l189 243h241l-241 -299z" />
    <glyph glyph-name="Ccircumflex" unicode="&#x108;" horiz-adv-x="1133" 
d="M90 0zM958 238q-12 -28 -21 -44.5t-22 -33.5q-20 -27 -47 -57t-60 -55t-71.5 -41.5t-81.5 -16.5h-256q-34 0 -68 10.5t-59 26.5q-16 9 -38 27.5t-43.5 40t-40 42.5t-27.5 35q-19 28 -26 58t-7 59v645q0 29 7 58t26 57q9 13 27.5 34t40 43t43.5 41.5t38 28.5
q25 14 59 25.5t68 11.5h256q43 0 81.5 -16.5t71.5 -42t60 -55.5t47 -56q13 -17 21 -32t22 -40l-208 -59q-18 22 -35 40q-14 16 -30.5 31.5t-27.5 22.5q-2 2 -4 2h-4h-241q-2 0 -3 -0.5t-3 -0.5q-2 -1 -3 -1q-10 -5 -22.5 -15t-25.5 -22.5t-24.5 -26.5t-19.5 -26
q-2 -3 -2 -11v-12v-622q0 -9 10.5 -23t25.5 -27.5t31 -25.5t27 -18q2 -2 7.5 -2h7.5h233h4.5t5.5 2q16 8 32.5 23t30.5 32q16 18 30 41zM246 1305l201 268h192l201 -268h-219l-78 106l-78 -106h-219z" />
    <glyph glyph-name="ccircumflex" unicode="&#x109;" horiz-adv-x="977" 
d="M72 0zM276 260q0 -2 1 -4t1.5 -4t2.5 -4q11 -19 29 -34t36 -26q1 -1 4 -2q4 -2 8 -2h201q8 0 19 6.5t22.5 15t20.5 17.5t14 15q0 1 1 2q3 3 5 6l190 -58q-8 -18 -24.5 -41t-36 -44.5t-39 -39.5t-31.5 -26q-29 -20 -69.5 -33.5t-77.5 -13.5h-197q-38 0 -78 10.5t-71 32.5
q-12 8 -26.5 21.5t-28.5 28t-25.5 28t-17.5 22.5q-22 29 -29.5 61.5t-7.5 63.5v369q0 31 7.5 63.5t29.5 61.5q6 9 17.5 22.5t25.5 28t28.5 27.5t26.5 22q31 22 71 32.5t78 10.5h195q37 0 77.5 -13.5t69.5 -33.5q15 -11 34.5 -28t38 -37.5t34.5 -43t24 -43.5l-190 -57
q-2 3 -5 6q-1 1 -1 2q-5 6 -14 15t-20.5 17.5t-22.5 14.5t-19 6h-199q-4 0 -8 -2q-3 -1 -4 -2q-18 -11 -36 -25.5t-29 -33.5q-2 -2 -2.5 -4t-1.5 -4t-1 -4v-365zM176 1010l201 268h192l201 -268h-219l-78 106l-78 -106h-219z" />
    <glyph glyph-name="Cdotaccent" unicode="&#x10a;" horiz-adv-x="1133" 
d="M90 0zM958 238q-12 -28 -21 -44.5t-22 -33.5q-20 -27 -47 -57t-60 -55t-71.5 -41.5t-81.5 -16.5h-256q-34 0 -68 10.5t-59 26.5q-16 9 -38 27.5t-43.5 40t-40 42.5t-27.5 35q-19 28 -26 58t-7 59v645q0 29 7 58t26 57q9 13 27.5 34t40 43t43.5 41.5t38 28.5
q25 14 59 25.5t68 11.5h256q43 0 81.5 -16.5t71.5 -42t60 -55.5t47 -56q13 -17 21 -32t22 -40l-208 -59q-18 22 -35 40q-14 16 -30.5 31.5t-27.5 22.5q-2 2 -4 2h-4h-241q-2 0 -3 -0.5t-3 -0.5q-2 -1 -3 -1q-10 -5 -22.5 -15t-25.5 -22.5t-24.5 -26.5t-19.5 -26
q-2 -3 -2 -11v-12v-622q0 -9 10.5 -23t25.5 -27.5t31 -25.5t27 -18q2 -2 7.5 -2h7.5h233h4.5t5.5 2q16 8 32.5 23t30.5 32q16 18 30 41zM420 1319v219h219v-219h-219z" />
    <glyph glyph-name="cdotaccent" unicode="&#x10b;" horiz-adv-x="977" 
d="M72 0zM276 260q0 -2 1 -4t1.5 -4t2.5 -4q11 -19 29 -34t36 -26q1 -1 4 -2q4 -2 8 -2h201q8 0 19 6.5t22.5 15t20.5 17.5t14 15q0 1 1 2q3 3 5 6l190 -58q-8 -18 -24.5 -41t-36 -44.5t-39 -39.5t-31.5 -26q-29 -20 -69.5 -33.5t-77.5 -13.5h-197q-38 0 -78 10.5t-71 32.5
q-12 8 -26.5 21.5t-28.5 28t-25.5 28t-17.5 22.5q-22 29 -29.5 61.5t-7.5 63.5v369q0 31 7.5 63.5t29.5 61.5q6 9 17.5 22.5t25.5 28t28.5 27.5t26.5 22q31 22 71 32.5t78 10.5h195q37 0 77.5 -13.5t69.5 -33.5q15 -11 34.5 -28t38 -37.5t34.5 -43t24 -43.5l-190 -57
q-2 3 -5 6q-1 1 -1 2q-5 6 -14 15t-20.5 17.5t-22.5 14.5t-19 6h-199q-4 0 -8 -2q-3 -1 -4 -2q-18 -11 -36 -25.5t-29 -33.5q-2 -2 -2.5 -4t-1.5 -4t-1 -4v-365zM348 1012v219h219v-219h-219z" />
    <glyph glyph-name="Ccaron" unicode="&#x10c;" horiz-adv-x="1133" 
d="M90 0zM958 238q-12 -28 -21 -44.5t-22 -33.5q-20 -27 -47 -57t-60 -55t-71.5 -41.5t-81.5 -16.5h-256q-34 0 -68 10.5t-59 26.5q-16 9 -38 27.5t-43.5 40t-40 42.5t-27.5 35q-19 28 -26 58t-7 59v645q0 29 7 58t26 57q9 13 27.5 34t40 43t43.5 41.5t38 28.5
q25 14 59 25.5t68 11.5h256q43 0 81.5 -16.5t71.5 -42t60 -55.5t47 -56q13 -17 21 -32t22 -40l-208 -59q-18 22 -35 40q-14 16 -30.5 31.5t-27.5 22.5q-2 2 -4 2h-4h-241q-2 0 -3 -0.5t-3 -0.5q-2 -1 -3 -1q-10 -5 -22.5 -15t-25.5 -22.5t-24.5 -26.5t-19.5 -26
q-2 -3 -2 -11v-12v-622q0 -9 10.5 -23t25.5 -27.5t31 -25.5t27 -18q2 -2 7.5 -2h7.5h233h4.5t5.5 2q16 8 32.5 23t30.5 32q16 18 30 41zM822 1573l-201 -268h-193l-200 268h219l78 -117l77 117h220z" />
    <glyph glyph-name="ccaron" unicode="&#x10d;" horiz-adv-x="977" 
d="M72 0zM276 260q0 -2 1 -4t1.5 -4t2.5 -4q11 -19 29 -34t36 -26q1 -1 4 -2q4 -2 8 -2h201q8 0 19 6.5t22.5 15t20.5 17.5t14 15q0 1 1 2q3 3 5 6l190 -58q-8 -18 -24.5 -41t-36 -44.5t-39 -39.5t-31.5 -26q-29 -20 -69.5 -33.5t-77.5 -13.5h-197q-38 0 -78 10.5t-71 32.5
q-12 8 -26.5 21.5t-28.5 28t-25.5 28t-17.5 22.5q-22 29 -29.5 61.5t-7.5 63.5v369q0 31 7.5 63.5t29.5 61.5q6 9 17.5 22.5t25.5 28t28.5 27.5t26.5 22q31 22 71 32.5t78 10.5h195q37 0 77.5 -13.5t69.5 -33.5q15 -11 34.5 -28t38 -37.5t34.5 -43t24 -43.5l-190 -57
q-2 3 -5 6q-1 1 -1 2q-5 6 -14 15t-20.5 17.5t-22.5 14.5t-19 6h-199q-4 0 -8 -2q-3 -1 -4 -2q-18 -11 -36 -25.5t-29 -33.5q-2 -2 -2.5 -4t-1.5 -4t-1 -4v-365zM742 1278l-201 -268h-193l-200 268h219l78 -117l77 117h220z" />
    <glyph glyph-name="Dcaron" unicode="&#x10e;" horiz-adv-x="1153" 
d="M956 297q0 -28 -6 -58.5t-24 -58.5q-9 -14 -28 -34.5t-40.5 -41.5t-44 -39.5t-39.5 -27.5q-25 -14 -58 -25.5t-65 -11.5h-561v1225h561q29 0 64 -9t61 -26q17 -10 38.5 -30t43 -42t39.5 -43.5t27 -34.5q20 -27 26 -57t6 -59v-627zM637 205h6q6 0 8 2q11 6 26.5 18
t29.5 25.5t24 27.5t10 23v617v3q0 3 -2 7q-18 31 -44.5 56t-45.5 34q-2 2 -8.5 2h-9.5h-326v-815h332zM780 1573l-200 -268h-193l-201 268h220l77 -117l78 117h219z" />
    <glyph glyph-name="dcaron" unicode="&#x10f;" horiz-adv-x="1192" 
d="M1161 885h-203l19 166v260h201v-287zM643 0l-8 45q-28 -22 -62 -38.5t-71 -16.5h-148q-38 0 -78 11.5t-69 33.5q-12 8 -26.5 21.5t-28.5 28t-25.5 28t-17.5 22.5q-20 29 -28.5 61t-8.5 66v363q0 34 8.5 66.5t28.5 60.5q6 8 17.5 21.5t25 28t28.5 28t27 22.5
q31 22 70 32.5t77 10.5h148q32 0 63.5 -14.5t57.5 -32.5v377h204v-1043l17 -182h-201zM623 610q-10 12 -28 27.5t-37 29.5t-36 23.5t-26 9.5h-140q-10 0 -12 -2q-17 -11 -35.5 -30t-29.5 -37q-1 -1 -2 -3t-1 -7v-355q0 -7 1 -9t2 -3q11 -19 29.5 -37t35.5 -29q8 -4 12 -4
h140q8 0 25 10t36.5 24.5t37.5 30.5t28 27v334z" />
    <glyph glyph-name="Dcroat" unicode="&#x110;" horiz-adv-x="1194" 
d="M997 297q0 -28 -5.5 -58.5t-22.5 -58.5q-10 -14 -29 -34.5t-41 -41.5t-44 -39.5t-38 -27.5q-26 -14 -58.5 -25.5t-64.5 -11.5h-563v516h-154v193h154v516h563q28 0 62.5 -9t60.5 -26q17 -10 38.5 -30t43 -42t40 -43.5t28.5 -34.5q18 -27 24 -57t6 -59v-627zM680 205h5
q5 0 9 2q11 6 26 18t29 25.5t23.5 27.5t9.5 23v627q-18 31 -45 56t-47 34q-2 2 -8 2h-8h-328v-311h211v-193h-211v-311h334z" />
    <glyph glyph-name="dcroat" unicode="&#x111;" horiz-adv-x="1014" 
d="M827 956v-782l17 -182h-205l-4 45q-28 -22 -62 -38.5t-71 -16.5h-148q-38 0 -78 11.5t-69 33.5q-12 8 -26.5 21.5t-28.5 27.5t-25.5 28t-17.5 23q-20 29 -28.5 61t-8.5 66v362q0 35 8.5 67.5t28.5 59.5q6 9 17.5 22.5t25 28t28.5 28t27 22.5q31 21 70 32t77 11h148
q32 0 63.5 -14.5t57.5 -32.5v116h-269v193h269v68h204v-68h64v-193h-64zM623 602q-10 12 -28 27.5t-37 29.5t-36 23.5t-26 9.5h-140q-10 0 -12 -2q-17 -11 -35.5 -30t-29.5 -37q-1 -1 -2 -3t-1 -8v-354q0 -7 1 -9t2 -3q11 -19 29.5 -37t35.5 -29q8 -4 12 -4h140q8 0 25 10
t36.5 24.5t37.5 30.5t28 27v334z" />
    <glyph glyph-name="Emacron" unicode="&#x112;" horiz-adv-x="1057" 
d="M90 0v1225h770v-205h-555v-309h516v-205h-516v-301h555v-205h-770zM248 1329v203h465v-203h-465z" />
    <glyph glyph-name="emacron" unicode="&#x113;" horiz-adv-x="985" 
d="M272 344v-84q0 -5 1 -7q0 -2 1 -3q7 -12 17.5 -23.5t22 -21t22 -15.5t18.5 -6h199q7 0 18 6.5t22.5 15t21 17.5t14.5 15q3 3 4 5t2 3l190 -58q-8 -18 -24.5 -41t-36 -44.5t-39 -39.5t-31.5 -26q-29 -20 -69.5 -33.5t-77.5 -13.5h-193q-38 0 -78 10.5t-71 32.5
q-12 8 -26.5 21.5t-28.5 27.5t-26 27.5t-18 21.5q-20 28 -29 60.5t-9 66.5v369q0 34 9 65.5t29 59.5q6 8 18 21t26 27.5t28.5 27.5t26.5 22q31 22 71 33.5t78 11.5h189q38 0 78 -11.5t71 -33.5q12 -9 26.5 -22t28.5 -27t26 -27t18 -22q21 -29 28.5 -61.5t7.5 -63.5v-283
h-555zM623 623v5q0 5 -2 7q-10 15 -29.5 33.5t-38.5 29.5q-4 2 -12 2h-187q-8 0 -18.5 -6t-22 -15t-22 -20.5t-17.5 -23.5q-2 -4 -2 -8v-4v-97h351v97zM221 1022v203h465v-203h-465z" />
    <glyph glyph-name="Ebreve" unicode="&#x114;" horiz-adv-x="1057" 
d="M90 0v1225h770v-205h-555v-309h516v-205h-516v-301h555v-205h-770zM692 1538q0 -45 -17 -83.5t-45.5 -67.5t-67 -45.5t-81.5 -16.5t-82 16.5t-68.5 45.5t-47 67.5t-17.5 83.5h119q0 -20 7.5 -37.5t20.5 -31t30.5 -21.5t37.5 -8q41 0 66.5 29t25.5 69h119z" />
    <glyph glyph-name="ebreve" unicode="&#x115;" horiz-adv-x="985" 
d="M272 344v-84q0 -5 1 -7q0 -2 1 -3q7 -12 17.5 -23.5t22 -21t22 -15.5t18.5 -6h199q7 0 18 6.5t22.5 15t21 17.5t14.5 15q3 3 4 5t2 3l190 -58q-8 -18 -24.5 -41t-36 -44.5t-39 -39.5t-31.5 -26q-29 -20 -69.5 -33.5t-77.5 -13.5h-193q-38 0 -78 10.5t-71 32.5
q-12 8 -26.5 21.5t-28.5 27.5t-26 27.5t-18 21.5q-20 28 -29 60.5t-9 66.5v369q0 34 9 65.5t29 59.5q6 8 18 21t26 27.5t28.5 27.5t26.5 22q31 22 71 33.5t78 11.5h189q38 0 78 -11.5t71 -33.5q12 -9 26.5 -22t28.5 -27t26 -27t18 -22q21 -29 28.5 -61.5t7.5 -63.5v-283
h-555zM623 623v5q0 5 -2 7q-10 15 -29.5 33.5t-38.5 29.5q-4 2 -12 2h-187q-8 0 -18.5 -6t-22 -15t-22 -20.5t-17.5 -23.5q-2 -4 -2 -8v-4v-97h351v97zM659 1221q0 -45 -17 -83.5t-45.5 -67.5t-66.5 -45.5t-81 -16.5t-82 16.5t-69 45.5t-47.5 67.5t-17.5 83.5h119
q0 -41 28 -70t69 -29q40 0 66 29t26 70h118z" />
    <glyph glyph-name="Edotaccent" unicode="&#x116;" horiz-adv-x="1057" 
d="M90 0v1225h770v-205h-555v-309h516v-205h-516v-301h555v-205h-770zM367 1329v219h219v-219h-219z" />
    <glyph glyph-name="edotaccent" unicode="&#x117;" horiz-adv-x="985" 
d="M272 344v-84q0 -5 1 -7q0 -2 1 -3q7 -12 17.5 -23.5t22 -21t22 -15.5t18.5 -6h199q7 0 18 6.5t22.5 15t21 17.5t14.5 15q3 3 4 5t2 3l190 -58q-8 -18 -24.5 -41t-36 -44.5t-39 -39.5t-31.5 -26q-29 -20 -69.5 -33.5t-77.5 -13.5h-193q-38 0 -78 10.5t-71 32.5
q-12 8 -26.5 21.5t-28.5 27.5t-26 27.5t-18 21.5q-20 28 -29 60.5t-9 66.5v369q0 34 9 65.5t29 59.5q6 8 18 21t26 27.5t28.5 27.5t26.5 22q31 22 71 33.5t78 11.5h189q38 0 78 -11.5t71 -33.5q12 -9 26.5 -22t28.5 -27t26 -27t18 -22q21 -29 28.5 -61.5t7.5 -63.5v-283
h-555zM623 623v5q0 5 -2 7q-10 15 -29.5 33.5t-38.5 29.5q-4 2 -12 2h-187q-8 0 -18.5 -6t-22 -15t-22 -20.5t-17.5 -23.5q-2 -4 -2 -8v-4v-97h351v97zM338 1012v219h219v-219h-219z" />
    <glyph glyph-name="Eogonek" unicode="&#x118;" horiz-adv-x="1057" 
d="M90 0v1225h770v-205h-555v-309h516v-205h-516v-301h555v-205h-770zM487 -90l199 59l197 -315h-232z" />
    <glyph glyph-name="eogonek" unicode="&#x119;" horiz-adv-x="985" 
d="M69 0zM251 -150l199 60l197 -316h-232zM273 344v-84q0 -5 1 -7t2 -3q7 -12 17 -23.5t21.5 -21t22 -15.5t18.5 -6h199q8 0 19 6.5t22.5 15t20.5 17.5t14 15q3 3 4 5t2 3l190 -58q-8 -18 -24.5 -41t-36 -44.5t-39 -39.5t-31.5 -26q-29 -20 -69.5 -33.5t-77.5 -13.5h-193
q-38 0 -78 10.5t-71 32.5q-12 8 -26.5 21.5t-28.5 27.5t-25.5 27.5t-17.5 21.5q-20 28 -29.5 60.5t-9.5 66.5v369q0 34 9.5 65.5t29.5 59.5q6 8 17.5 21t25.5 27.5t28.5 27.5t26.5 22q31 22 71 33.5t78 11.5h189q38 0 78 -11.5t71 -33.5q12 -9 26.5 -22t28.5 -27t26 -27
t18 -22q21 -29 28.5 -61.5t7.5 -63.5v-283h-555zM624 623v5q0 5 -2 7q-10 15 -29.5 33.5t-38.5 29.5q-4 2 -12 2h-187q-8 0 -18.5 -6t-22 -15t-21.5 -20.5t-17 -23.5q-3 -3 -3 -8v-4v-97h351v97z" />
    <glyph glyph-name="Ecaron" unicode="&#x11a;" horiz-adv-x="1057" 
d="M90 0v1225h770v-205h-555v-309h516v-205h-516v-301h555v-205h-770zM768 1573l-201 -268h-192l-201 268h219l78 -117l78 117h219z" />
    <glyph glyph-name="ecaron" unicode="&#x11b;" horiz-adv-x="985" 
d="M69 0zM273 344v-84q0 -5 1 -7t2 -3q7 -12 17 -23.5t21.5 -21t22 -15.5t18.5 -6h199q8 0 19 6.5t22.5 15t20.5 17.5t14 15q3 3 4 5t2 3l190 -58q-8 -18 -24.5 -41t-36 -44.5t-39 -39.5t-31.5 -26q-29 -20 -69.5 -33.5t-77.5 -13.5h-193q-38 0 -78 10.5t-71 32.5
q-12 8 -26.5 21.5t-28.5 27.5t-25.5 27.5t-17.5 21.5q-20 28 -29.5 60.5t-9.5 66.5v369q0 34 9.5 65.5t29.5 59.5q6 8 17.5 21t25.5 27.5t28.5 27.5t26.5 22q31 22 71 33.5t78 11.5h189q38 0 78 -11.5t71 -33.5q12 -9 26.5 -22t28.5 -27t26 -27t18 -22q21 -29 28.5 -61.5
t7.5 -63.5v-283h-555zM624 623v5q0 5 -2 7q-10 15 -29.5 33.5t-38.5 29.5q-4 2 -12 2h-187q-8 0 -18.5 -6t-22 -15t-21.5 -20.5t-17 -23.5q-3 -3 -3 -8v-4v-97h351v97zM742 1278l-201 -268h-193l-200 268h219l78 -117l77 117h220z" />
    <glyph glyph-name="Gcircumflex" unicode="&#x11c;" horiz-adv-x="1225" 
d="M90 0zM305 291q0 -9 10.5 -23t25.5 -27.5t31 -25.5t27 -18q2 0 4 -1t7 -1h278q5 0 7 1q2 0 3 1q11 6 27 19t31 28t26 29.5t11 23.5v199h-265v204h480v-413q4 -40 10 -87q5 -40 12 -91.5t17 -108.5h-211l-11 49q-11 -8 -25.5 -18t-31 -19t-34.5 -15.5t-36 -6.5h-299
q-34 0 -68 10.5t-59 26.5q-16 9 -38 27.5t-43.5 39.5t-40 41.5t-27.5 34.5q-19 28 -26 59t-7 60v647q0 29 7 59t26 58q9 13 27.5 34t40 43t43.5 41.5t38 28.5q25 16 59 25.5t68 9.5h299q45 0 84 -16t71.5 -40.5t58.5 -55t46 -58.5q13 -17 24 -35t19 -37l-206 -59
q-13 18 -29 35q-14 14 -31 30t-37 29q-2 2 -5 2h-5h-278q-3 0 -4.5 -0.5t-3.5 -0.5q-2 -1 -3 -1q-8 -5 -20 -13.5t-25 -20.5t-25.5 -25.5t-21.5 -28.5q-2 -4 -2 -6v-2v-641zM252 1305l201 268h192l201 -268h-219l-78 106l-78 -106h-219z" />
    <glyph glyph-name="gcircumflex" unicode="&#x11d;" horiz-adv-x="1030" 
d="M842 700v-774q0 -32 -6.5 -66t-28.5 -63q-6 -9 -18 -22.5t-26 -27.5t-28.5 -27t-25.5 -21q-31 -22 -72 -33.5t-78 -11.5h-180q-18 0 -38 4t-39.5 10.5t-37.5 15.5t-33 19q-12 9 -31 26.5t-38.5 39.5t-36.5 44.5t-25 41.5l191 57q0 -2 1 -3q1 -2 2 -2.5t3 -2.5
q4 -6 13.5 -15.5t21 -18.5t22.5 -15.5t19 -6.5h184q5 0 12 5q7 4 18.5 12t22 17.5t18.5 18.5t9 15v14v111q-26 -19 -57.5 -34t-63.5 -15h-158q-37 0 -77.5 11.5t-71.5 33.5q-12 8 -27 21.5t-28.5 28.5t-25 28.5t-17.5 21.5q-22 29 -29.5 62t-7.5 65v359q0 32 7.5 65t29.5 62
q6 8 17.5 21.5t25 28t28.5 28t27 22.5q31 22 71.5 33.5t77.5 11.5h158q37 0 72 -17t63 -38l8 45h201zM510 186h5q5 0 9 2q14 7 29.5 18t30.5 24t29 26t24 25v323q-11 12 -28 28.5t-35 31.5t-35 25.5t-29 10.5h-150q-4 0 -12 -4q-17 -11 -36.5 -30t-30.5 -37q-2 -4 -2 -7v-4
v-350v-5q0 -3 2 -7q11 -19 30.5 -38t36.5 -30q3 -2 6.5 -2h5.5h150zM190 1010l201 268h193l200 -268h-219l-78 106l-77 -106h-220z" />
    <glyph glyph-name="Gbreve" unicode="&#x11e;" horiz-adv-x="1225" 
d="M90 0zM305 291q0 -9 10.5 -23t25.5 -27.5t31 -25.5t27 -18q2 0 4 -1t7 -1h278q5 0 7 1q2 0 3 1q11 6 27 19t31 28t26 29.5t11 23.5v199h-265v204h480v-413q4 -40 10 -87q5 -40 12 -91.5t17 -108.5h-211l-11 49q-11 -8 -25.5 -18t-31 -19t-34.5 -15.5t-36 -6.5h-299
q-34 0 -68 10.5t-59 26.5q-16 9 -38 27.5t-43.5 39.5t-40 41.5t-27.5 34.5q-19 28 -26 59t-7 60v647q0 29 7 59t26 58q9 13 27.5 34t40 43t43.5 41.5t38 28.5q25 16 59 25.5t68 9.5h299q45 0 84 -16t71.5 -40.5t58.5 -55t46 -58.5q13 -17 24 -35t19 -37l-206 -59
q-13 18 -29 35q-14 14 -31 30t-37 29q-2 2 -5 2h-5h-278q-3 0 -4.5 -0.5t-3.5 -0.5q-2 -1 -3 -1q-8 -5 -20 -13.5t-25 -20.5t-25.5 -25.5t-21.5 -28.5q-2 -4 -2 -6v-2v-641zM750 1530q0 -45 -17 -83.5t-45.5 -67.5t-67 -45.5t-81.5 -16.5t-82 16.5t-68.5 45.5t-47 67.5
t-17.5 83.5h119q0 -20 7.5 -38t20.5 -31.5t30.5 -21.5t37.5 -8q40 0 66 29t26 70h119z" />
    <glyph glyph-name="gbreve" unicode="&#x11f;" horiz-adv-x="1030" 
d="M842 700v-774q0 -32 -6.5 -66t-28.5 -63q-6 -9 -18 -22.5t-26 -27.5t-28.5 -27t-25.5 -21q-31 -22 -72 -33.5t-78 -11.5h-180q-18 0 -38 4t-39.5 10.5t-37.5 15.5t-33 19q-12 9 -31 26.5t-38.5 39.5t-36.5 44.5t-25 41.5l191 57q0 -2 1 -3q1 -2 2 -2.5t3 -2.5
q4 -6 13.5 -15.5t21 -18.5t22.5 -15.5t19 -6.5h184q5 0 12 5q7 4 18.5 12t22 17.5t18.5 18.5t9 15v14v111q-26 -19 -57.5 -34t-63.5 -15h-158q-37 0 -77.5 11.5t-71.5 33.5q-12 8 -27 21.5t-28.5 28.5t-25 28.5t-17.5 21.5q-22 29 -29.5 62t-7.5 65v359q0 32 7.5 65t29.5 62
q6 8 17.5 21.5t25 28t28.5 28t27 22.5q31 22 71.5 33.5t77.5 11.5h158q37 0 72 -17t63 -38l8 45h201zM510 186h5q5 0 9 2q14 7 29.5 18t30.5 24t29 26t24 25v323q-11 12 -28 28.5t-35 31.5t-35 25.5t-29 10.5h-150q-4 0 -12 -4q-17 -11 -36.5 -30t-30.5 -37q-2 -4 -2 -7v-4
v-350v-5q0 -3 2 -7q11 -19 30.5 -38t36.5 -30q3 -2 6.5 -2h5.5h150zM670 1221q0 -45 -17 -83.5t-46 -67.5t-67 -45.5t-81 -16.5t-82 16.5t-68.5 45.5t-47 67.5t-17.5 83.5h118q0 -20 7.5 -38t21 -31.5t31 -21.5t37.5 -8q40 0 66 29t26 70h119z" />
    <glyph glyph-name="Gdotaccent" unicode="&#x120;" horiz-adv-x="1225" 
d="M90 0zM305 291q0 -9 10.5 -23t25.5 -27.5t31 -25.5t27 -18q2 0 4 -1t7 -1h278q5 0 7 1q2 0 3 1q11 6 27 19t31 28t26 29.5t11 23.5v199h-265v204h480v-413q4 -40 10 -87q5 -40 12 -91.5t17 -108.5h-211l-11 49q-11 -8 -25.5 -18t-31 -19t-34.5 -15.5t-36 -6.5h-299
q-34 0 -68 10.5t-59 26.5q-16 9 -38 27.5t-43.5 39.5t-40 41.5t-27.5 34.5q-19 28 -26 59t-7 60v647q0 29 7 59t26 58q9 13 27.5 34t40 43t43.5 41.5t38 28.5q25 16 59 25.5t68 9.5h299q45 0 84 -16t71.5 -40.5t58.5 -55t46 -58.5q13 -17 24 -35t19 -37l-206 -59
q-13 18 -29 35q-14 14 -31 30t-37 29q-2 2 -5 2h-5h-278q-3 0 -4.5 -0.5t-3.5 -0.5q-2 -1 -3 -1q-8 -5 -20 -13.5t-25 -20.5t-25.5 -25.5t-21.5 -28.5q-2 -4 -2 -6v-2v-641zM428 1329v219h219v-219h-219z" />
    <glyph glyph-name="gdotaccent" unicode="&#x121;" horiz-adv-x="1030" 
d="M842 700v-774q0 -32 -6.5 -66t-28.5 -63q-6 -9 -18 -22.5t-26 -27.5t-28.5 -27t-25.5 -21q-31 -22 -72 -33.5t-78 -11.5h-180q-18 0 -38 4t-39.5 10.5t-37.5 15.5t-33 19q-12 9 -31 26.5t-38.5 39.5t-36.5 44.5t-25 41.5l191 57q0 -2 1 -3q1 -2 2 -2.5t3 -2.5
q4 -6 13.5 -15.5t21 -18.5t22.5 -15.5t19 -6.5h184q5 0 12 5q7 4 18.5 12t22 17.5t18.5 18.5t9 15v14v111q-26 -19 -57.5 -34t-63.5 -15h-158q-37 0 -77.5 11.5t-71.5 33.5q-12 8 -27 21.5t-28.5 28.5t-25 28.5t-17.5 21.5q-22 29 -29.5 62t-7.5 65v359q0 32 7.5 65t29.5 62
q6 8 17.5 21.5t25 28t28.5 28t27 22.5q31 22 71.5 33.5t77.5 11.5h158q37 0 72 -17t63 -38l8 45h201zM510 186h5q5 0 9 2q14 7 29.5 18t30.5 24t29 26t24 25v323q-11 12 -28 28.5t-35 31.5t-35 25.5t-29 10.5h-150q-4 0 -12 -4q-17 -11 -36.5 -30t-30.5 -37q-2 -4 -2 -7v-4
v-350v-5q0 -3 2 -7q11 -19 30.5 -38t36.5 -30q3 -2 6.5 -2h5.5h150zM358 1012v219h220v-219h-220z" />
    <glyph glyph-name="Gcommaaccent" unicode="&#x122;" horiz-adv-x="1225" 
d="M90 0zM561 -406h-231l197 316l198 -60zM305 291q0 -9 10.5 -23t25.5 -27.5t31 -25.5t27 -18q2 0 4 -1t7 -1h278q5 0 7 1q2 0 3 1q11 6 27 19t31 28t26 29.5t11 23.5v199h-265v204h480v-413q4 -40 10 -87q5 -40 12 -91.5t17 -108.5h-211l-11 49q-11 -8 -25.5 -18t-31 -19
t-34.5 -15.5t-36 -6.5h-299q-34 0 -68 10.5t-59 26.5q-16 9 -38 27.5t-43.5 39.5t-40 41.5t-27.5 34.5q-19 28 -26 59t-7 60v647q0 29 7 59t26 58q9 13 27.5 34t40 43t43.5 41.5t38 28.5q25 16 59 25.5t68 9.5h299q45 0 84 -16t71.5 -40.5t58.5 -55t46 -58.5q13 -17 24 -35
t19 -37l-206 -59q-13 18 -29 35q-14 14 -31 30t-37 29q-2 2 -5 2h-5h-278q-3 0 -4.5 -0.5t-3.5 -0.5q-2 -1 -3 -1q-8 -5 -20 -13.5t-25 -20.5t-25.5 -25.5t-21.5 -28.5q-2 -4 -2 -6v-2v-641z" />
    <glyph glyph-name="gcommaaccent" unicode="&#x123;" horiz-adv-x="1030" 
d="M842 700v-774q0 -32 -6.5 -66t-28.5 -63q-6 -9 -18 -22.5t-26 -27.5t-28.5 -27t-25.5 -21q-31 -22 -72 -33.5t-78 -11.5h-180q-18 0 -38 4t-39.5 10.5t-37.5 15.5t-33 19q-12 9 -31 26.5t-38.5 39.5t-36.5 44.5t-25 41.5l191 57q0 -2 1 -3q1 -2 2 -2.5t3 -2.5
q4 -6 13.5 -15.5t21 -18.5t22.5 -15.5t19 -6.5h184q5 0 12 5q7 4 18.5 12t22 17.5t18.5 18.5t9 15v14v111q-26 -19 -57.5 -34t-63.5 -15h-158q-37 0 -77.5 11.5t-71.5 33.5q-12 8 -27 21.5t-28.5 28.5t-25 28.5t-17.5 21.5q-22 29 -29.5 62t-7.5 65v359q0 32 7.5 65t29.5 62
q6 8 17.5 21.5t25 28t28.5 28t27 22.5q31 22 71.5 33.5t77.5 11.5h158q37 0 72 -17t63 -38l8 45h201zM510 186h5q5 0 9 2q14 7 29.5 18t30.5 24t29 26t24 25v323q-11 12 -28 28.5t-35 31.5t-35 25.5t-29 10.5h-150q-4 0 -12 -4q-17 -11 -36.5 -30t-30.5 -37q-2 -4 -2 -7v-4
v-350v-5q0 -3 2 -7q11 -19 30.5 -38t36.5 -30q3 -2 6.5 -2h5.5h150zM295 1055l188 243h242l-242 -299z" />
    <glyph glyph-name="Hcircumflex" unicode="&#x124;" horiz-adv-x="1171" 
d="M752 0v506h-447v-506h-215v1225h215v-514h447v514h215v-1225h-215zM242 1305l200 268h193l201 -268h-220l-77 106l-78 -106h-219z" />
    <glyph glyph-name="hcircumflex" unicode="&#x125;" horiz-adv-x="993" 
d="M618 621q0 2 -0.5 3.5t-0.5 3.5q-1 2 -1 3q-11 18 -29.5 37t-35.5 30q-2 2 -12 2h-142q-10 0 -27 -10t-36 -24.5t-36 -30t-26 -27.5v-608h-204v1225h204v-379q26 18 57.5 33.5t63.5 15.5h148q37 0 77.5 -11.5t69.5 -33.5q12 -9 27 -22.5t28.5 -28t25 -28t17.5 -21.5
q20 -29 28.5 -60t8.5 -65v-625h-205v621zM162 1305l200 268h193l201 -268h-219l-78 106l-78 -106h-219z" />
    <glyph glyph-name="Hbar" unicode="&#x126;" horiz-adv-x="1171" 
d="M754 0v506h-449v-506h-215v965h-57v192h57v68h215v-68h449v68h215v-68h63v-192h-63v-965h-215zM754 711v254h-449v-254h449z" />
    <glyph glyph-name="hbar" unicode="&#x127;" horiz-adv-x="997" 
d="M276 967v-121q26 18 57.5 33.5t63.5 15.5h148q37 0 77.5 -11.5t69.5 -33.5q12 -9 27 -22.5t28.5 -28t25.5 -28t18 -21.5q20 -29 28 -60t8 -65v-625h-204v621q0 2 -0.5 3.5t-0.5 3.5q-1 2 -1 3q-11 18 -30 37t-36 30q-2 2 -12 2h-142q-10 0 -27 -10t-36 -24.5t-36 -30
t-26 -27.5v-608h-204v967h-97v180h97v78h204v-78h263v-180h-263z" />
    <glyph glyph-name="Itilde" unicode="&#x128;" horiz-adv-x="510" 
d="M90 0v1225h215v-1225h-215zM367 1313q-7 16 -18.5 28t-23.5 19t-23.5 9.5t-18.5 0.5l-133 -43q-38 -12 -79.5 -8t-80.5 25t-72.5 58t-54.5 91l174 43q14 -32 35 -44t37 -7l139 43q39 12 80 8t78.5 -25t70 -59t53.5 -92z" />
    <glyph glyph-name="itilde" unicode="&#x129;" horiz-adv-x="442" 
d="M90 -2v883h205v-883h-205zM358 1018q-7 16 -18 28t-23 19t-23.5 9.5t-19.5 0.5l-133 -43q-38 -12 -79 -8t-80 25t-72.5 58t-54.5 91l174 43q14 -32 35 -44t36 -7l140 43q39 12 80 8t78.5 -25t70 -59t53.5 -92z" />
    <glyph glyph-name="Imacron" unicode="&#x12a;" horiz-adv-x="510" 
d="M0 0zM-36 1359v183h465v-183h-465zM90 0v1225h215v-1225h-215z" />
    <glyph glyph-name="imacron" unicode="&#x12b;" horiz-adv-x="442" 
d="M0 0zM-38 1042v183h465v-183h-465zM90 -2v883h205v-883h-205z" />
    <glyph glyph-name="Ibreve" unicode="&#x12c;" horiz-adv-x="510" 
d="M90 0v1225h215v-1225h-215zM410 1538q0 -45 -17 -83.5t-46 -67.5t-67 -45.5t-81 -16.5t-82 16.5t-68.5 45.5t-47 67.5t-17.5 83.5h118q0 -20 7.5 -37.5t20.5 -31t31 -21.5t38 -8q40 0 66 29t26 69h119z" />
    <glyph glyph-name="ibreve" unicode="&#x12d;" horiz-adv-x="442" 
d="M90 -2v883h205v-883h-205zM406 1221q0 -45 -17 -83.5t-46 -67.5t-67 -45.5t-81 -16.5t-82 16.5t-68.5 45.5t-47 67.5t-17.5 83.5h118q0 -41 28 -70t69 -29q40 0 66 29t26 70h119z" />
    <glyph glyph-name="Iogonek" unicode="&#x12e;" horiz-adv-x="510" 
d="M60 0zM60 -150l199 60l197 -316h-232zM90 0v1225h215v-1225h-215z" />
    <glyph glyph-name="iogonek" unicode="&#x12f;" horiz-adv-x="442" 
d="M60 0zM60 -150l199 60l197 -316h-232zM82 1010v219h219v-219h-219zM90 0v885h205v-885h-205z" />
    <glyph glyph-name="Idotaccent" unicode="&#x130;" horiz-adv-x="510" 
d="M90 0v1225h215v-1225h-215zM86 1329v219h219v-219h-219z" />
    <glyph glyph-name="dotlessi" unicode="&#x131;" horiz-adv-x="442" 
d="M90 -2v883h205v-883h-205z" />
    <glyph glyph-name="IJ" unicode="&#x132;" horiz-adv-x="1485" 
d="M90 0v1225h215v-1225h-215zM1274 293q0 -29 -8 -59t-27 -58q-9 -13 -27 -34t-39 -42.5t-42 -40.5t-37 -28q-26 -16 -60.5 -26.5t-66.5 -10.5h-152q-45 0 -83.5 16t-71.5 41t-59.5 55t-47.5 58q-5 6 -13.5 21.5t-27.5 56.5l207 55q15 -34 39 -60.5t43 -35.5q2 -2 10.5 -2
t5.5 0h139q6 -1 22.5 12.5t34.5 30.5t32 32.5t14 20.5v934h215v-936z" />
    <glyph glyph-name="ij" unicode="&#x133;" horiz-adv-x="895" 
d="M82 1010v219h219v-219h-219zM90 0v885h205v-885h-205zM549 1010v219h219v-219h-219zM473 -147q7 0 9 1q2 0 3 1q17 11 38 30.5t32 40.5q0 2 1 4q0 2 0.5 3.5t0.5 3.5v948h205v-951q0 -34 -8.5 -67t-28.5 -62q-6 -8 -18 -21.5t-26 -28t-29 -28t-27 -22.5
q-31 -22 -70 -32.5t-76 -10.5h-172v191h166z" />
    <glyph glyph-name="Jcircumflex" unicode="&#x134;" horiz-adv-x="967" 
d="M756 289q0 -29 -8.5 -59t-26.5 -58q-9 -13 -27 -34t-39 -42.5t-42.5 -40.5t-37.5 -28q-26 -16 -60 -26.5t-66 -10.5h-152q-45 0 -83.5 16t-71.5 41t-59.5 55t-47.5 58q-5 6 -14 21.5t-27 56.5l207 55q15 -34 39 -60.5t43 -35.5q2 -2 10.5 -2t5.5 0h139q6 -1 22.5 12.5
t34.5 30.5t32 32.5t14 20.5v934h215v-936zM362 1305l201 268h193l200 -268h-219l-78 106l-77 -106h-220z" />
    <glyph glyph-name="jcircumflex" unicode="&#x135;" horiz-adv-x="461" 
d="M43 -143q7 0 9 1q2 0 3 1q17 11 36 29.5t30 39.5q0 2 1 4q0 2 0.5 3.5t0.5 3.5v946h205v-951q0 -34 -8.5 -67t-28.5 -62q-6 -8 -18 -21.5t-26.5 -28t-29.5 -28t-27 -22.5q-30 -22 -69 -32.5t-76 -10.5h-172v195h170zM-61 1010l200 268h193l200 -268h-219l-77 106
l-78 -106h-219z" />
    <glyph glyph-name="Kcommaaccent" unicode="&#x136;" horiz-adv-x="1069" 
d="M90 0zM462 -406h-231l197 316l198 -60zM752 0l-424 512h-23v-512h-215v1225h215v-510h21q106 127 212 256t212 254h264l-510 -611q58 -70 124 -150t133.5 -161t133 -159t121.5 -144h-264z" />
    <glyph glyph-name="kcommaaccent" unicode="&#x137;" horiz-adv-x="922" 
d="M63 0zM435 -406h-231l197 316l198 -60zM583 0l-279 373h-37v-373h-204v1225h204v-660h39l132 160q25 30 48.5 58.5t41.5 51t29 36.5l11 14h254l-340 -414l363 -471h-262z" />
    <glyph glyph-name="kgreenlandic" unicode="&#x138;" horiz-adv-x="922" 
d="M592 0l-316 360v-360h-204v885h204v-316l295 316h281v-189l-180 2l-217 -231l407 -467h-270z" />
    <glyph glyph-name="Lacute" unicode="&#x139;" horiz-adv-x="983" 
d="M90 0v1225h215v-1020h543v-205h-758zM129 1350l188 243h242l-242 -299z" />
    <glyph glyph-name="lacute" unicode="&#x13a;" horiz-adv-x="471" 
d="M102 0q-2 15 -5.5 40.5t-6.5 50.5q-4 29 -8 61v1073h205v-1051l22 -174h-207zM113 1350l188 243h242l-242 -299z" />
    <glyph glyph-name="Lcommaaccent" unicode="&#x13b;" horiz-adv-x="983" 
d="M90 0zM442 -406h-231l197 316l198 -60zM90 0v1225h215v-1020h543v-205h-758z" />
    <glyph glyph-name="lcommaaccent" unicode="&#x13c;" horiz-adv-x="471" 
d="M0 0zM185 -406h-231l197 316l198 -60zM106 0q-2 15 -6 41.5t-8 52.5q-4 30 -10 64v1067h205v-1045l26 -180h-207z" />
    <glyph glyph-name="Lcaron" unicode="&#x13d;" horiz-adv-x="983" 
d="M672 885h-203l18 166v260h201v-287zM90 0v1225h215v-1020h543v-205h-758z" />
    <glyph glyph-name="lcaron" unicode="&#x13e;" horiz-adv-x="668" 
d="M621 885h-203l18 166v260h201v-287zM102 0q-2 15 -5.5 40.5t-6.5 50.5q-4 29 -8 61v1073h205v-1051l22 -174h-207z" />
    <glyph glyph-name="Ldot" unicode="&#x13f;" horiz-adv-x="983" 
d="M90 0v1225h215v-1020h543v-205h-758zM522 506v219h219v-219h-219z" />
    <glyph glyph-name="ldot" unicode="&#x140;" horiz-adv-x="700" 
d="M102 0q-2 15 -5.5 40.5t-6.5 50.5q-4 29 -8 61v1073h205v-1051l22 -174h-207zM418 510v219h219v-219h-219z" />
    <glyph glyph-name="Lslash" unicode="&#x141;" horiz-adv-x="1024" 
d="M346 545v-340h541v-205h-756v432l-94 -49l-90 172l184 96v574h215v-461l135 72l90 -172z" />
    <glyph glyph-name="lslash" unicode="&#x142;" horiz-adv-x="627" 
d="M160 0q-2 15 -5.5 35.5t-7 41.5t-6 40.5t-2.5 34.5v284l-102 -53l-90 172l192 100v570h207v-461l135 72l90 -172l-225 -119v-371q0 -15 1.5 -31t3.5 -36t5 -46.5t6 -60.5h-202z" />
    <glyph glyph-name="Nacute" unicode="&#x143;" horiz-adv-x="1161" 
d="M90 0zM729 0l-424 813v-813h-215v1225h232l419 -824v824h215v-1225h-227zM333 1354l189 243h241l-241 -299z" />
    <glyph glyph-name="nacute" unicode="&#x144;" horiz-adv-x="1014" 
d="M639 0v623v5.5t-2 6.5q-9 17 -28 34.5t-36 28.5q-2 2 -6.5 2h-9.5h-143q-15 0 -32 -9t-33.5 -22t-31 -27.5t-24.5 -25.5v-616h-205v702l-20 183h200l11 -47q27 20 60 38.5t69 18.5h151q38 0 78.5 -11.5t71.5 -33.5q11 -9 25.5 -22t28.5 -27t26 -27t18 -22
q22 -29 29.5 -61.5t7.5 -63.5v-627h-205zM272 1055l189 243h241l-241 -299z" />
    <glyph glyph-name="Ncommaaccent" unicode="&#x145;" horiz-adv-x="1161" 
d="M90 0zM499 -406h-231l197 316l198 -60zM729 0l-424 813v-813h-215v1225h232l419 -824v824h215v-1225h-227z" />
    <glyph glyph-name="ncommaaccent" unicode="&#x146;" horiz-adv-x="1014" 
d="M68 0zM465 -406h-231l197 316l198 -60zM639 0v623v5.5t-2 6.5q-9 17 -28 34.5t-36 28.5q-2 2 -6.5 2h-9.5h-143q-15 0 -32 -9t-33.5 -22t-31 -27.5t-24.5 -25.5v-616h-205v702l-20 183h200l11 -47q27 20 60 38.5t69 18.5h151q38 0 78.5 -11.5t71.5 -33.5q11 -9 25.5 -22
t28.5 -27t26 -27t18 -22q22 -29 29.5 -61.5t7.5 -63.5v-627h-205z" />
    <glyph glyph-name="Ncaron" unicode="&#x147;" horiz-adv-x="1161" 
d="M90 0zM729 0l-424 813v-813h-215v1225h232l419 -824v824h215v-1225h-227zM826 1577l-201 -268h-193l-200 268h219l78 -117l77 117h220z" />
    <glyph glyph-name="ncaron" unicode="&#x148;" horiz-adv-x="1014" 
d="M639 0v623v5.5t-2 6.5q-9 17 -28 34.5t-36 28.5q-2 2 -6.5 2h-9.5h-143q-15 0 -32 -9t-33.5 -22t-31 -27.5t-24.5 -25.5v-616h-205v702l-20 183h200l11 -47q27 20 60 38.5t69 18.5h151q38 0 78.5 -11.5t71.5 -33.5q11 -9 25.5 -22t28.5 -27t26 -27t18 -22
q22 -29 29.5 -61.5t7.5 -63.5v-627h-205zM756 1278l-201 -268h-193l-200 268h219l78 -117l78 117h219z" />
    <glyph glyph-name="napostrophe" unicode="&#x149;" 
d="M137 885h-203l19 166v260h201v-287zM762 0v623v5.5t-2 6.5q-9 17 -28 34.5t-36 28.5q-2 2 -6.5 2h-9.5h-143q-15 0 -32 -9t-33.5 -22t-31 -27.5t-24.5 -25.5v-616h-205v702l-21 183h201l10 -47q28 20 61 38.5t68 18.5h152q38 0 78.5 -11.5t70.5 -33.5q12 -9 26.5 -22
t28.5 -27t26 -27t18 -22q21 -29 29 -61.5t8 -63.5v-627h-205z" />
    <glyph glyph-name="Eng" unicode="&#x14a;" horiz-adv-x="1161" 
d="M729 0l-424 813v-813h-215v1225h232l419 -824v824h215v-1225v-66q0 -34 -8 -67t-28 -62q-6 -8 -18 -21.5t-26.5 -28t-29.5 -28t-27 -22.5q-31 -22 -69.5 -32.5t-75.5 -10.5h-172v195h170q7 0 9 1q2 0 3 1q17 11 36 29.5t30 39.5q0 2 1 4q0 2 0.5 3.5t0.5 3.5v61h-23z" />
    <glyph glyph-name="eng" unicode="&#x14b;" horiz-adv-x="1014" 
d="M844 -66q0 -34 -8.5 -67t-28.5 -62q-6 -8 -18 -21.5t-26 -28t-29 -28t-27 -22.5q-31 -22 -70 -32.5t-76 -10.5h-172v195h170q7 0 9 1q2 0 3 1q17 11 36 29.5t30 39.5q0 2 1 4q0 2 0.5 3.5t0.5 3.5v61v623v5.5t-2 6.5q-9 17 -28 34.5t-36 28.5q-2 2 -6.5 2h-9.5h-143
q-15 0 -32 -9t-33.5 -22t-31 -27.5t-24.5 -25.5v-616h-205v702l-20 183h202l9 -47q27 20 60 38.5t69 18.5h151q38 0 78.5 -11.5t71.5 -33.5q11 -9 25.5 -22t28.5 -27t26 -27t18 -22q22 -29 29.5 -61.5t7.5 -63.5v-627v-66z" />
    <glyph glyph-name="Omacron" unicode="&#x14c;" horiz-adv-x="1206" 
d="M92 0zM1022 291q0 -29 -7 -59t-26 -58q-10 -13 -28.5 -34.5t-40 -43.5t-43 -41t-37.5 -28q-25 -16 -60 -26.5t-67 -10.5h-312q-34 0 -68 10.5t-59 26.5q-16 9 -38 28t-43.5 41t-40 43.5t-27.5 34.5q-19 28 -26 58t-7 59v641q0 29 7 59t26 58q9 13 27.5 34t40 43
t43.5 41.5t38 28.5q25 16 59 26.5t68 10.5h312q32 0 67 -10.5t60 -26.5q16 -9 37.5 -28.5t43 -41.5t40 -43t28.5 -34q19 -28 26 -58t7 -59v-641zM307 293v-3q0 -3 2 -5q19 -28 46 -53.5t44 -34.5q3 -2 6 -2h5h295h3q3 0 7 2q17 9 44 34.5t46 53.5q2 4 2 5v3v633v4q0 4 -2 6
q-9 14 -21.5 28t-25 26.5t-24 21.5t-19.5 14q-3 2 -5.5 2h-4.5h-295h-5q-4 0 -6 -2q-8 -5 -19.5 -14t-24 -21.5t-25 -26.5t-21.5 -28q-2 -4 -2 -7v-3v-633zM332 1359v183h465v-183h-465z" />
    <glyph glyph-name="omacron" unicode="&#x14d;" horiz-adv-x="991" 
d="M72 0zM829 258q0 -31 -6.5 -63.5t-27.5 -61.5q-6 -9 -18 -22.5t-26 -28t-28.5 -28t-26.5 -21.5q-31 -22 -71 -32.5t-78 -10.5h-193q-38 0 -77 10.5t-70 32.5q-12 8 -26.5 21.5t-29 28t-27 28t-18.5 22.5q-21 29 -27.5 61.5t-6.5 63.5v369q0 31 6.5 63.5t27.5 61.5
q6 9 18.5 22t27 27t29 27t26.5 22q31 22 70 33.5t77 11.5h193q38 0 78 -11.5t71 -33.5q12 -9 26.5 -22t28.5 -27t26 -27t18 -22q21 -29 27.5 -61.5t6.5 -63.5v-369zM276 621v-373q0 -6 7 -14.5t17.5 -17t22.5 -16.5l21 -14q1 -1 3 -1q2 -1 9 -1h189q4 0 12 4q7 4 18 11.5
t22 16t19 17.5t9 15v373v4.5t-2 7.5q-10 15 -29.5 34.5t-38.5 30.5q-4 2 -10 2h-189q-6 0 -10 -2q-18 -11 -37 -29t-30 -36q-3 -3 -3 -8v-4zM221 1042v183h465v-183h-465z" />
    <glyph glyph-name="Obreve" unicode="&#x14e;" horiz-adv-x="1206" 
d="M92 0zM1022 291q0 -29 -7 -59t-26 -58q-10 -13 -28.5 -34.5t-40 -43.5t-43 -41t-37.5 -28q-25 -16 -60 -26.5t-67 -10.5h-312q-34 0 -68 10.5t-59 26.5q-16 9 -38 28t-43.5 41t-40 43.5t-27.5 34.5q-19 28 -26 58t-7 59v641q0 29 7 59t26 58q9 13 27.5 34t40 43
t43.5 41.5t38 28.5q25 16 59 26.5t68 10.5h312q32 0 67 -10.5t60 -26.5q16 -9 37.5 -28.5t43 -41.5t40 -43t28.5 -34q19 -28 26 -58t7 -59v-641zM307 293v-3q0 -3 2 -5q19 -28 46 -53.5t44 -34.5q3 -2 6 -2h5h295h3q3 0 7 2q17 9 44 34.5t46 53.5q2 4 2 5v3v633v4q0 4 -2 6
q-9 14 -21.5 28t-25 26.5t-24 21.5t-19.5 14q-3 2 -5.5 2h-4.5h-295h-5q-4 0 -6 -2q-8 -5 -19.5 -14t-24 -21.5t-25 -26.5t-21.5 -28q-2 -4 -2 -7v-3v-633zM778 1543q0 -45 -17 -83.5t-45.5 -67.5t-67 -45.5t-81.5 -16.5t-82 16.5t-68.5 45.5t-47 67.5t-17.5 83.5h119
q0 -20 7.5 -38t20.5 -31.5t30.5 -21.5t37.5 -8q40 0 66 29t26 70h119z" />
    <glyph glyph-name="obreve" unicode="&#x14f;" horiz-adv-x="991" 
d="M72 0zM829 258q0 -31 -6.5 -63.5t-27.5 -61.5q-6 -9 -18 -22.5t-26 -28t-28.5 -28t-26.5 -21.5q-31 -22 -71 -32.5t-78 -10.5h-193q-38 0 -77 10.5t-70 32.5q-12 8 -26.5 21.5t-29 28t-27 28t-18.5 22.5q-21 29 -27.5 61.5t-6.5 63.5v369q0 31 6.5 63.5t27.5 61.5
q6 9 18.5 22t27 27t29 27t26.5 22q31 22 70 33.5t77 11.5h193q38 0 78 -11.5t71 -33.5q12 -9 26.5 -22t28.5 -27t26 -27t18 -22q21 -29 27.5 -61.5t6.5 -63.5v-369zM276 621v-373q0 -6 7 -14.5t17.5 -17t22.5 -16.5l21 -14q1 -1 3 -1q2 -1 9 -1h189q4 0 12 4q7 4 18 11.5
t22 16t19 17.5t9 15v373v4.5t-2 7.5q-10 15 -29.5 34.5t-38.5 30.5q-4 2 -10 2h-189q-6 0 -10 -2q-18 -11 -37 -29t-30 -36q-3 -3 -3 -8v-4zM664 1221q0 -45 -17 -83.5t-45.5 -67.5t-67 -45.5t-81.5 -16.5t-82 16.5t-68.5 45.5t-47 67.5t-17.5 83.5h119q0 -20 7.5 -38
t20.5 -31.5t30.5 -21.5t37.5 -8q40 0 66 29t26 70h119z" />
    <glyph glyph-name="Ohungarumlaut" unicode="&#x150;" horiz-adv-x="1206" 
d="M1022 291q0 -29 -7 -59t-26 -58q-10 -13 -28.5 -34.5t-40 -43.5t-43 -41t-37.5 -28q-25 -16 -60 -26.5t-67 -10.5h-312q-34 0 -68 10.5t-59 26.5q-16 9 -38 28t-43.5 41t-40 43.5t-27.5 34.5q-19 28 -26 58t-7 59v641q0 29 7 59t26 58q9 13 27.5 34t40 43t43.5 41.5
t38 28.5q25 16 59 26.5t68 10.5h312q32 0 67 -10.5t60 -26.5q16 -9 37.5 -28.5t43 -41.5t40 -43t28.5 -34q19 -28 26 -58t7 -59v-641zM307 293v-3q0 -3 2 -5q19 -28 46 -53.5t44 -34.5q3 -2 6 -2h5h295h3q3 0 7 2q17 9 44 34.5t46 53.5q2 4 2 5v3v633v4q0 4 -2 6
q-9 14 -21.5 28t-25 26.5t-24 21.5t-19.5 14q-3 2 -5.5 2h-4.5h-295h-5q-4 0 -6 -2q-8 -5 -19.5 -14t-24 -21.5t-25 -26.5t-21.5 -28q-2 -4 -2 -7v-3v-633zM535 1329l188 244h192l-239 -289zM254 1329l188 244h193l-240 -289z" />
    <glyph glyph-name="ohungarumlaut" unicode="&#x151;" horiz-adv-x="991" 
d="M829 258q0 -31 -6.5 -63.5t-27.5 -61.5q-6 -9 -18 -22.5t-26 -28t-28.5 -28t-26.5 -21.5q-31 -22 -71 -32.5t-78 -10.5h-193q-38 0 -77 10.5t-70 32.5q-12 8 -26.5 21.5t-29 28t-27 28t-18.5 22.5q-21 29 -27.5 61.5t-6.5 63.5v369q0 31 6.5 63.5t27.5 61.5q6 9 18.5 22
t27 27t29 27t26.5 22q31 22 70 33.5t77 11.5h193q38 0 78 -11.5t71 -33.5q12 -9 26.5 -22t28.5 -27t26 -27t18 -22q21 -29 27.5 -61.5t6.5 -63.5v-369zM276 621v-373q0 -6 7 -14.5t17.5 -17t22.5 -16.5l21 -14q1 -1 3 -1q2 -1 9 -1h189q4 0 12 4q7 4 18 11.5t22 16t19 17.5
t9 15v373v4.5t-2 7.5q-10 15 -29.5 34.5t-38.5 30.5q-4 2 -10 2h-189q-6 0 -10 -2q-18 -11 -37 -29t-30 -36q-3 -3 -3 -8v-4zM451 1034l188 244h192l-239 -289zM170 1034l188 244h193l-240 -289z" />
    <glyph glyph-name="OE" unicode="&#x152;" horiz-adv-x="1735" 
d="M788 0v10q-23 -9 -48 -14.5t-48 -5.5h-291q-34 0 -68 10.5t-59 26.5q-16 9 -38 28t-43.5 41t-40 43.5t-27.5 34.5q-19 28 -26 58t-7 59v641q0 29 7 59t26 58q9 13 27.5 34t40 43t43.5 41.5t38 28.5q25 16 59 26.5t68 10.5h291q23 0 48 -5.5t48 -15.5v13h750v-205h-534
v-309h495v-205h-495v-301h534v-205h-750zM307 293v-3q0 -3 2 -5q19 -28 46 -53.5t44 -34.5q3 -2 6 -2h5h274h3q3 0 7 2q9 4 20.5 13.5t24 21.5t24.5 25.5t21 27.5q2 4 2 5v3v633v4q0 4 -2 6q-9 14 -21 28t-24.5 26.5t-24 21.5t-20.5 14q-3 2 -5.5 2h-4.5h-274h-5q-4 0 -6 -2
q-8 -5 -19.5 -14t-24 -21.5t-25 -26.5t-21.5 -28q-2 -4 -2 -7v-3v-633z" />
    <glyph glyph-name="oe" unicode="&#x153;" horiz-adv-x="1602" 
d="M829 258q0 -5 1 -6q0 -1 1 -2q7 -12 17.5 -24t22 -22.5t22 -17t18.5 -6.5h199q7 0 18.5 7t22.5 16.5t20.5 19t14.5 15.5q6 6 6 8l190 -58q-8 -18 -24.5 -41t-36 -44.5t-39 -39.5t-31.5 -26q-29 -20 -69.5 -33.5t-77.5 -13.5h-193q-38 0 -78 10.5t-71 32.5
q-8 5 -16.5 11.5t-16.5 14.5q-9 -8 -17.5 -14.5t-15.5 -11.5q-31 -22 -71 -32.5t-78 -10.5h-193q-38 0 -77 10.5t-70 32.5q-12 8 -26.5 21.5t-29 28t-27 28t-18.5 22.5q-21 29 -27.5 61.5t-6.5 63.5v369q0 31 6.5 63.5t27.5 61.5q6 9 18.5 22t27 27t29 27t26.5 22
q31 22 70 33.5t77 11.5h193q38 0 78 -11.5t71 -33.5q7 -6 15.5 -12.5t17.5 -16.5q8 10 16.5 16.5t16.5 12.5q31 22 71 33.5t78 11.5h189q38 0 78 -11.5t71 -33.5q12 -9 26.5 -22t28.5 -27t26 -27t18 -22q21 -29 28.5 -61.5t7.5 -63.5v-289h-555v-80zM274 248q0 -6 7.5 -15
t18 -18t23 -17t21.5 -14q1 -1 3 -1q2 -1 9 -1h189q4 0 12 4q7 4 18 11.5t21.5 16t18.5 17.5t10 15v12v367q0 2 -1 3.5t-1 4.5q-10 15 -29.5 34.5t-38.5 30.5q-4 2 -10 2h-189q-6 0 -10 -2q-18 -11 -38.5 -29t-31.5 -36q-2 -4 -2 -8v-4v-373zM1180 623v5q0 5 -2 7
q-10 15 -29.5 33.5t-38.5 29.5q-4 2 -12 2h-187q-8 0 -18.5 -6t-22 -15t-22 -20.5t-17.5 -23.5q-2 -2 -2 -6v-2v-97h351v93zM1190 246q0 1 1 1t1 -1h-2z" />
    <glyph glyph-name="Racute" unicode="&#x154;" horiz-adv-x="1186" 
d="M90 0zM958 762q0 -70 -36 -125q-7 -10 -21 -25.5t-30.5 -31.5t-32.5 -30t-27 -22q-25 -19 -53 -28l243 -500h-233l-227 483h-236v-483h-215v1225h576q37 0 75.5 -12t69.5 -33q11 -8 27 -23t32.5 -31.5t30.5 -32.5t21 -26q18 -28 27 -60.5t9 -64.5v-180zM743 940v5
q0 5 -2 9q-5 9 -12.5 20t-17 21t-19 17t-16.5 8h-371v-332h361q7 0 17 6.5t21 16.5t21 22t16 23l1 2q0 1 0.5 2.5t0.5 3.5v176zM327 1350l189 243h241l-241 -299z" />
    <glyph glyph-name="racute" unicode="&#x155;" horiz-adv-x="852" 
d="M68 0zM616 639q-5 6 -14 16.5t-21.5 20t-27 17t-29.5 7.5h-110q-18 0 -36 -9.5t-35 -23t-31 -28.5t-23 -27v-612h-205v702l-16 183h198l10 -49q14 10 29.5 20.5t32.5 19t34.5 14t35.5 5.5h122q44 0 80.5 -13t71.5 -38q15 -11 33 -28.5t36 -38t33 -42t23 -39.5zM267 1055
l189 243h241l-241 -299z" />
    <glyph glyph-name="Rcommaaccent" unicode="&#x156;" horiz-adv-x="1186" 
d="M90 0zM503 -406h-231l197 316l198 -60zM958 762q0 -70 -36 -125q-7 -10 -21 -25.5t-30.5 -31.5t-32.5 -30t-27 -22q-25 -19 -53 -28l243 -500h-233l-227 483h-236v-483h-215v1225h576q37 0 75.5 -12t69.5 -33q11 -8 27 -23t32.5 -31.5t30.5 -32.5t21 -26q18 -28 27 -60.5
t9 -64.5v-180zM743 940v5q0 5 -2 9q-5 9 -12.5 20t-17 21t-19 17t-16.5 8h-371v-332h361q7 0 17 6.5t21 16.5t21 22t16 23l1 2q0 1 0.5 2.5t0.5 3.5v176z" />
    <glyph glyph-name="rcommaaccent" unicode="&#x157;" horiz-adv-x="852" 
d="M68 0zM412 -406h-231l197 316l198 -60zM616 639q-5 6 -14 16.5t-21.5 20t-27 17t-29.5 7.5h-110q-18 0 -36 -9.5t-35 -23t-31 -28.5t-23 -27v-612h-205v702l-16 183h198l10 -49q14 10 29.5 20.5t32.5 19t34.5 14t35.5 5.5h122q44 0 80.5 -13t71.5 -38q15 -11 33 -28.5
t36 -38t33 -42t23 -39.5z" />
    <glyph glyph-name="Rcaron" unicode="&#x158;" horiz-adv-x="1186" 
d="M90 0zM958 762q0 -70 -36 -125q-7 -10 -21 -25.5t-30.5 -31.5t-32.5 -30t-27 -22q-25 -19 -53 -28l243 -500h-233l-227 483h-236v-483h-215v1225h576q37 0 75.5 -12t69.5 -33q11 -8 27 -23t32.5 -31.5t30.5 -32.5t21 -26q18 -28 27 -60.5t9 -64.5v-180zM743 940v5
q0 5 -2 9q-5 9 -12.5 20t-17 21t-19 17t-16.5 8h-371v-332h361q7 0 17 6.5t21 16.5t21 22t16 23l1 2q0 1 0.5 2.5t0.5 3.5v176zM789 1573l-201 -268h-193l-200 268h219l78 -117l77 117h220z" />
    <glyph glyph-name="rcaron" unicode="&#x159;" horiz-adv-x="852" 
d="M68 0zM616 639q-5 6 -14 16.5t-21.5 20t-27 17t-29.5 7.5h-110q-18 0 -36 -9.5t-35 -23t-31 -28.5t-23 -27v-612h-205v702l-16 183h198l10 -49q14 10 29.5 20.5t32.5 19t34.5 14t35.5 5.5h122q44 0 80.5 -13t71.5 -38q15 -11 33 -28.5t36 -38t33 -42t23 -39.5zM723 1278
l-201 -268h-193l-200 268h219l78 -117l77 117h220z" />
    <glyph glyph-name="Sacute" unicode="&#x15a;" horiz-adv-x="1169" 
d="M33 0zM995 291q0 -26 -6 -57.5t-26 -59.5q-9 -14 -28 -35.5t-40.5 -43t-43.5 -40.5t-38 -28q-25 -14 -60 -25.5t-67 -11.5h-356q-45 0 -84 16.5t-71.5 41.5t-58.5 55t-46 57q-6 8 -10.5 15t-8.5 13.5t-8 15t-10 19.5l203 68q12 -17 26 -34q12 -14 28.5 -30t35.5 -30
q1 -1 3 -1q2 -1 11 -1h336q7 0 9 1q2 0 3 1q12 6 27.5 19t30 27.5t24.5 28t10 19.5v121q0 14 -8 23t-16 11l-533 152q-39 11 -69 34t-50 53t-30.5 65.5t-10.5 70.5v111q0 26 6.5 57.5t24.5 59.5q9 13 28 34.5t41 43t44.5 41t38.5 28.5q25 14 59 25.5t68 11.5h303
q46 0 85 -16.5t71 -42t58 -55.5t46 -56q12 -17 21 -33t20 -39l-207 -59q-14 19 -29 37q-13 15 -29 30.5t-32 26.5l-2 1q-2 0 -4 0.5t-6 0.5h-289q-3 0 -5 -0.5t-4 -0.5q-2 -1 -3 -1q-12 -6 -27.5 -18.5t-29 -26.5t-22.5 -26.5t-9 -18.5v-102q0 -14 7 -23.5t15 -11.5
l535 -156q39 -11 68.5 -34t50 -53.5t30.5 -66t10 -69.5v-129zM352 1350l189 243h241l-241 -299z" />
    <glyph glyph-name="sacute" unicode="&#x15b;" horiz-adv-x="961" 
d="M29 0zM225 240q5 -6 14.5 -15t21 -18t22 -15.5t18.5 -7.5h238q9 0 21.5 7.5t24 18.5t19.5 24t8 24v49q0 8 -4.5 17.5t-21.5 11.5q-27 2 -66.5 5t-84.5 6.5t-93 7t-92 7.5q-41 3 -76 18t-61 41t-41 63.5t-15 86.5v62q0 34 8.5 65.5t28.5 59.5q44 62 102 99.5t136 37.5h196
q38 0 78.5 -13.5t69.5 -33.5q15 -11 34.5 -28t38.5 -37.5t35 -43t25 -43.5l-193 -57q-1 0 -2 2q-1 1 -1.5 2.5t-2.5 3.5q-5 6 -14 15t-20.5 17.5t-22.5 14.5t-18 6h-197q-6 -1 -11 -1q-5 -1 -9 -1t-7 -2q-6 -3 -22 -16.5t-25 -30.5q-1 -1 -1 -4q-1 -3 -1 -16v-49
q0 -5 7.5 -15t23.5 -12q20 -2 57 -5.5t81.5 -7.5t92.5 -8.5t90 -9.5t78.5 -19.5t64.5 -40t44 -63t16 -88.5v-57q0 -34 -9.5 -65.5t-29.5 -59.5q-6 -9 -16.5 -22t-23 -26t-26.5 -25.5t-26 -20.5q-31 -22 -69 -33.5t-76 -11.5h-234q-37 0 -77.5 14.5t-69.5 34.5
q-15 11 -34.5 28t-38 37.5t-34.5 42.5t-24 43l190 58zM272 1055l189 243h241l-241 -299z" />
    <glyph glyph-name="Scircumflex" unicode="&#x15c;" horiz-adv-x="1169" 
d="M33 0zM995 291q0 -26 -6 -57.5t-26 -59.5q-9 -14 -28 -35.5t-40.5 -43t-43.5 -40.5t-38 -28q-25 -14 -60 -25.5t-67 -11.5h-356q-45 0 -84 16.5t-71.5 41.5t-58.5 55t-46 57q-6 8 -10.5 15t-8.5 13.5t-8 15t-10 19.5l203 68q12 -17 26 -34q12 -14 28.5 -30t35.5 -30
q1 -1 3 -1q2 -1 11 -1h336q7 0 9 1q2 0 3 1q12 6 27.5 19t30 27.5t24.5 28t10 19.5v121q0 14 -8 23t-16 11l-533 152q-39 11 -69 34t-50 53t-30.5 65.5t-10.5 70.5v111q0 26 6.5 57.5t24.5 59.5q9 13 28 34.5t41 43t44.5 41t38.5 28.5q25 14 59 25.5t68 11.5h303
q46 0 85 -16.5t71 -42t58 -55.5t46 -56q12 -17 21 -33t20 -39l-207 -59q-14 19 -29 37q-13 15 -29 30.5t-32 26.5l-2 1q-2 0 -4 0.5t-6 0.5h-289q-3 0 -5 -0.5t-4 -0.5q-2 -1 -3 -1q-12 -6 -27.5 -18.5t-29 -26.5t-22.5 -26.5t-9 -18.5v-102q0 -14 7 -23.5t15 -11.5
l535 -156q39 -11 68.5 -34t50 -53.5t30.5 -66t10 -69.5v-129zM246 1305l201 268h192l201 -268h-219l-78 106l-78 -106h-219z" />
    <glyph glyph-name="scircumflex" unicode="&#x15d;" horiz-adv-x="961" 
d="M29 0zM145 1010l201 268h192l201 -268h-219l-78 106l-78 -106h-219zM225 240q5 -6 14.5 -15t21 -18t22 -15.5t18.5 -7.5h238q9 0 21.5 7.5t24 18.5t19.5 24t8 24v49q0 8 -4.5 17.5t-21.5 11.5q-27 2 -66.5 5t-84.5 6.5t-93 7t-92 7.5q-41 3 -76 18t-61 41t-41 63.5
t-15 86.5v62q0 34 8.5 65.5t28.5 59.5q44 62 102 99.5t136 37.5h196q38 0 78.5 -13.5t69.5 -33.5q15 -11 34.5 -28t38.5 -37.5t35 -43t25 -43.5l-193 -57q-1 0 -2 2q-1 1 -1.5 2.5t-2.5 3.5q-5 6 -14 15t-20.5 17.5t-22.5 14.5t-18 6h-197q-6 -1 -11 -1q-5 -1 -9 -1t-7 -2
q-6 -3 -22 -16.5t-25 -30.5q-1 -1 -1 -4q-1 -3 -1 -16v-49q0 -5 7.5 -15t23.5 -12q20 -2 57 -5.5t81.5 -7.5t92.5 -8.5t90 -9.5t78.5 -19.5t64.5 -40t44 -63t16 -88.5v-57q0 -34 -9.5 -65.5t-29.5 -59.5q-6 -9 -16.5 -22t-23 -26t-26.5 -25.5t-26 -20.5q-31 -22 -69 -33.5
t-76 -11.5h-234q-37 0 -77.5 14.5t-69.5 34.5q-15 11 -34.5 28t-38 37.5t-34.5 42.5t-24 43l190 58z" />
    <glyph glyph-name="Scedilla" unicode="&#x15e;" horiz-adv-x="1169" 
d="M33 0zM524 -406h-231l197 316l198 -60zM995 291q0 -26 -6 -57.5t-26 -59.5q-9 -14 -28 -35.5t-40.5 -43t-43.5 -40.5t-38 -28q-25 -14 -60 -25.5t-67 -11.5h-356q-45 0 -84 16.5t-71.5 41.5t-58.5 55t-46 57q-6 8 -10.5 15t-8.5 13.5t-8 15t-10 19.5l203 68
q12 -17 26 -34q12 -14 28.5 -30t35.5 -30q1 -1 3 -1q2 -1 11 -1h336q7 0 9 1q2 0 3 1q12 6 27.5 19t30 27.5t24.5 28t10 19.5v121q0 14 -8 23t-16 11l-533 152q-39 11 -69 34t-50 53t-30.5 65.5t-10.5 70.5v111q0 26 6.5 57.5t24.5 59.5q9 13 28 34.5t41 43t44.5 41
t38.5 28.5q25 14 59 25.5t68 11.5h303q46 0 85 -16.5t71 -42t58 -55.5t46 -56q12 -17 21 -33t20 -39l-207 -59q-14 19 -29 37q-13 15 -29 30.5t-32 26.5l-2 1q-2 0 -4 0.5t-6 0.5h-289q-3 0 -5 -0.5t-4 -0.5q-2 -1 -3 -1q-12 -6 -27.5 -18.5t-29 -26.5t-22.5 -26.5t-9 -18.5
v-102q0 -14 7 -23.5t15 -11.5l535 -156q39 -11 68.5 -34t50 -53.5t30.5 -66t10 -69.5v-129z" />
    <glyph glyph-name="scedilla" unicode="&#x15f;" horiz-adv-x="961" 
d="M29 0zM442 -406h-231l197 316l198 -60zM225 240q5 -6 14.5 -15t21 -18t22 -15.5t18.5 -7.5h238q9 0 21.5 7.5t24 18.5t19.5 24t8 24v49q0 8 -4.5 17.5t-21.5 11.5q-27 2 -66.5 5t-84.5 6.5t-93 7t-92 7.5q-41 3 -76 18t-61 41t-41 63.5t-15 86.5v62q0 34 8.5 65.5
t28.5 59.5q44 62 102 99.5t136 37.5h196q38 0 78.5 -13.5t69.5 -33.5q15 -11 34.5 -28t38.5 -37.5t35 -43t25 -43.5l-193 -57q-1 0 -2 2q-1 1 -1.5 2.5t-2.5 3.5q-5 6 -14 15t-20.5 17.5t-22.5 14.5t-18 6h-197q-6 -1 -11 -1q-5 -1 -9 -1t-7 -2q-6 -3 -22 -16.5t-25 -30.5
q-1 -1 -1 -4q-1 -3 -1 -16v-49q0 -5 7.5 -15t23.5 -12q20 -2 57 -5.5t81.5 -7.5t92.5 -8.5t90 -9.5t78.5 -19.5t64.5 -40t44 -63t16 -88.5v-57q0 -34 -9.5 -65.5t-29.5 -59.5q-6 -9 -16.5 -22t-23 -26t-26.5 -25.5t-26 -20.5q-31 -22 -69 -33.5t-76 -11.5h-234
q-37 0 -77.5 14.5t-69.5 34.5q-15 11 -34.5 28t-38 37.5t-34.5 42.5t-24 43l190 58z" />
    <glyph glyph-name="Scaron" unicode="&#x160;" horiz-adv-x="1169" 
d="M33 0zM995 291q0 -26 -6 -57.5t-26 -59.5q-9 -14 -28 -35.5t-40.5 -43t-43.5 -40.5t-38 -28q-25 -14 -60 -25.5t-67 -11.5h-356q-45 0 -84 16.5t-71.5 41.5t-58.5 55t-46 57q-6 8 -10.5 15t-8.5 13.5t-8 15t-10 19.5l203 68q12 -17 26 -34q12 -14 28.5 -30t35.5 -30
q1 -1 3 -1q2 -1 11 -1h336q7 0 9 1q2 0 3 1q12 6 27.5 19t30 27.5t24.5 28t10 19.5v121q0 14 -8 23t-16 11l-533 152q-39 11 -69 34t-50 53t-30.5 65.5t-10.5 70.5v111q0 26 6.5 57.5t24.5 59.5q9 13 28 34.5t41 43t44.5 41t38.5 28.5q25 14 59 25.5t68 11.5h303
q46 0 85 -16.5t71 -42t58 -55.5t46 -56q12 -17 21 -33t20 -39l-207 -59q-14 19 -29 37q-13 15 -29 30.5t-32 26.5l-2 1q-2 0 -4 0.5t-6 0.5h-289q-3 0 -5 -0.5t-4 -0.5q-2 -1 -3 -1q-12 -6 -27.5 -18.5t-29 -26.5t-22.5 -26.5t-9 -18.5v-102q0 -14 7 -23.5t15 -11.5
l535 -156q39 -11 68.5 -34t50 -53.5t30.5 -66t10 -69.5v-129zM815 1573l-201 -268h-193l-200 268h219l78 -117l77 117h220z" />
    <glyph glyph-name="scaron" unicode="&#x161;" horiz-adv-x="961" 
d="M29 0zM736 1278l-201 -268h-193l-200 268h219l78 -117l77 117h220zM225 240q5 -6 14.5 -15t21 -18t22 -15.5t18.5 -7.5h238q9 0 21.5 7.5t24 18.5t19.5 24t8 24v49q0 8 -4.5 17.5t-21.5 11.5q-27 2 -66.5 5t-84.5 6.5t-93 7t-92 7.5q-41 3 -76 18t-61 41t-41 63.5
t-15 86.5v62q0 34 8.5 65.5t28.5 59.5q44 62 102 99.5t136 37.5h196q38 0 78.5 -13.5t69.5 -33.5q15 -11 34.5 -28t38.5 -37.5t35 -43t25 -43.5l-193 -57q-1 0 -2 2q-1 1 -1.5 2.5t-2.5 3.5q-5 6 -14 15t-20.5 17.5t-22.5 14.5t-18 6h-197q-6 -1 -11 -1q-5 -1 -9 -1t-7 -2
q-6 -3 -22 -16.5t-25 -30.5q-1 -1 -1 -4q-1 -3 -1 -16v-49q0 -5 7.5 -15t23.5 -12q20 -2 57 -5.5t81.5 -7.5t92.5 -8.5t90 -9.5t78.5 -19.5t64.5 -40t44 -63t16 -88.5v-57q0 -34 -9.5 -65.5t-29.5 -59.5q-6 -9 -16.5 -22t-23 -26t-26.5 -25.5t-26 -20.5q-31 -22 -69 -33.5
t-76 -11.5h-234q-37 0 -77.5 14.5t-69.5 34.5q-15 11 -34.5 28t-38 37.5t-34.5 42.5t-24 43l190 58z" />
    <glyph glyph-name="Tcommaaccent" unicode="&#x162;" horiz-adv-x="1042" 
d="M25 0zM481 -406h-231l197 316l198 -60zM571 1020v-1020h-215v1020h-331v205h878v-205h-332z" />
    <glyph glyph-name="tcommaaccent" unicode="&#x163;" horiz-adv-x="729" 
d="M0 0zM406 -406h-231l197 316l198 -60zM342 274v-5q0 -3 2 -7q4 -8 13 -19.5t20.5 -22t23.5 -18t23 -7.5h170v-195h-172q-38 0 -77.5 10.5t-70.5 32.5q-12 9 -26.5 22.5t-28 28t-25.5 28t-18 21.5q-20 29 -29.5 62t-9.5 67v418h-137v195h137v340h205v-340h254v-195h-254
v-416z" />
    <glyph glyph-name="Tcaron" unicode="&#x164;" horiz-adv-x="1042" 
d="M582 1020v-1020h-215v1020h-332v205h878v-205h-331zM762 1573l-201 -268h-192l-201 268h219l78 -117l78 117h219z" />
    <glyph glyph-name="tcaron" unicode="&#x165;" horiz-adv-x="1016" 
d="M963 885h-203l18 166v260h201v-287zM342 274v-5q0 -3 2 -7q4 -8 13 -19.5t20.5 -22t23.5 -18t23 -7.5h149v-195h-151q-38 0 -77.5 10.5t-70.5 32.5q-12 9 -26.5 22.5t-28 28t-25.5 28t-18 21.5q-20 29 -29.5 62t-9.5 67v418h-137v195h137v340h205v-340h254v-195h-254
v-416z" />
    <glyph glyph-name="Tbar" unicode="&#x166;" horiz-adv-x="1042" 
d="M582 508v-508h-215v508h-199v194h199v320h-332v203h878v-203h-331v-320h182v-194h-182z" />
    <glyph glyph-name="tbar" unicode="&#x167;" horiz-adv-x="729" 
d="M342 403v-129v-5q0 -3 2 -7q4 -8 13 -19.5t20.5 -22t23.5 -18t23 -7.5h170v-195h-172q-38 0 -77.5 10.5t-70.5 32.5q-12 9 -26.5 22.5t-28 28t-25.5 28t-18 21.5q-20 29 -29.5 62t-9.5 67v131h-139v195h139v92h-137v195h137v340h205v-340h254v-195h-254v-92h252v-195
h-252z" />
    <glyph glyph-name="Utilde" unicode="&#x168;" 
d="M733 1225h215v-934q0 -29 -7 -59t-26 -58q-9 -13 -27 -34.5t-39.5 -43.5t-43.5 -41t-39 -28q-25 -16 -59 -26.5t-66 -10.5h-260q-34 0 -68 10.5t-59 26.5q-16 9 -38 28t-44 41t-40.5 43.5t-27.5 34.5q-18 28 -25 58t-7 59v934h215v-930v-4q0 -4 2 -6q18 -28 44.5 -53.5
t45.5 -34.5q4 -2 6 -2h4h244h4.5t5.5 2q9 4 20.5 13.5t23.5 21.5t23.5 25.5t20.5 27.5q2 4 2 5v3v932zM676 1313q-7 16 -18.5 28t-23.5 19t-23.5 9.5t-18.5 0.5l-133 -43q-38 -12 -79.5 -8t-80.5 25t-72.5 58t-54.5 91l174 43q14 -32 35 -44t37 -7l139 43q39 12 80 8t79 -25
t70 -59t54 -92z" />
    <glyph glyph-name="utilde" unicode="&#x169;" horiz-adv-x="999" 
d="M639 0l-8 51q-14 -10 -29 -20.5t-31.5 -19t-33.5 -14t-35 -5.5h-154q-38 0 -78 10.5t-71 32.5q-12 8 -26.5 21.5t-28.5 28t-26 28t-18 22.5q-21 29 -29 61.5t-8 63.5v625h205v-621v-6.5t2 -7.5q10 -17 30.5 -34t37.5 -28q4 -2 12 -2h146q7 0 23.5 9t34.5 21.5t35 26.5
t27 25v617h205v-703l19 -182h-201zM604 1018q-7 16 -18 28t-23 19t-23.5 9.5t-19.5 0.5l-133 -43q-38 -12 -79 -8t-80 25t-72.5 58t-55.5 91l174 43q14 -32 35.5 -44t36.5 -7l139 43q39 12 80.5 8t79 -25t70 -59t53.5 -92z" />
    <glyph glyph-name="Umacron" unicode="&#x16a;" 
d="M733 1225h215v-934q0 -29 -7 -59t-26 -58q-9 -13 -27 -34.5t-39.5 -43.5t-43.5 -41t-39 -28q-25 -16 -59 -26.5t-66 -10.5h-260q-34 0 -68 10.5t-59 26.5q-16 9 -38 28t-44 41t-40.5 43.5t-27.5 34.5q-18 28 -25 58t-7 59v934h215v-930v-4q0 -4 2 -6q18 -28 44.5 -53.5
t45.5 -34.5q4 -2 6 -2h4h244h4.5t5.5 2q9 4 20.5 13.5t23.5 21.5t23.5 25.5t20.5 27.5q2 4 2 5v3v932zM272 1339v203h465v-203h-465z" />
    <glyph glyph-name="umacron" unicode="&#x16b;" horiz-adv-x="999" 
d="M639 0l-8 51q-14 -10 -29 -20.5t-31.5 -19t-33.5 -14t-35 -5.5h-154q-38 0 -78 10.5t-71 32.5q-12 8 -26.5 21.5t-28.5 28t-26 28t-18 22.5q-21 29 -29 61.5t-8 63.5v625h205v-621v-6.5t2 -7.5q10 -17 30.5 -34t37.5 -28q4 -2 12 -2h146q7 0 23.5 9t34.5 21.5t35 26.5
t27 25v617h205v-703l19 -182h-201zM215 1022v203h465v-203h-465z" />
    <glyph glyph-name="Ubreve" unicode="&#x16c;" 
d="M733 1225h215v-934q0 -29 -7 -59t-26 -58q-9 -13 -27 -34.5t-39.5 -43.5t-43.5 -41t-39 -28q-25 -16 -59 -26.5t-66 -10.5h-260q-34 0 -68 10.5t-59 26.5q-16 9 -38 28t-44 41t-40.5 43.5t-27.5 34.5q-18 28 -25 58t-7 59v934h215v-930v-4q0 -4 2 -6q18 -28 44.5 -53.5
t45.5 -34.5q4 -2 6 -2h4h244h4.5t5.5 2q9 4 20.5 13.5t23.5 21.5t23.5 25.5t20.5 27.5q2 4 2 5v3v932zM725 1538q0 -45 -17 -83.5t-45.5 -67.5t-67 -45.5t-81.5 -16.5t-82 16.5t-68.5 45.5t-47 67.5t-17.5 83.5h119q0 -20 7.5 -37.5t20.5 -31t30.5 -21.5t37.5 -8q40 0 66 29
t26 69h119z" />
    <glyph glyph-name="ubreve" unicode="&#x16d;" horiz-adv-x="999" 
d="M639 0l-8 51q-14 -10 -29 -20.5t-31.5 -19t-33.5 -14t-35 -5.5h-154q-38 0 -78 10.5t-71 32.5q-12 8 -26.5 21.5t-28.5 28t-26 28t-18 22.5q-21 29 -29 61.5t-8 63.5v625h205v-621v-6.5t2 -7.5q10 -17 30.5 -34t37.5 -28q4 -2 12 -2h146q7 0 23.5 9t34.5 21.5t35 26.5
t27 25v617h205v-703l19 -182h-201zM657 1221q0 -45 -17 -83.5t-45.5 -67.5t-67 -45.5t-81.5 -16.5t-82 16.5t-68.5 45.5t-47 67.5t-17.5 83.5h119q0 -20 7.5 -38t20.5 -31.5t30.5 -21.5t37.5 -8q41 0 67 29t26 70h118z" />
    <glyph glyph-name="Uring" unicode="&#x16e;" 
d="M733 1225h215v-934q0 -29 -7 -59t-26 -58q-9 -13 -27 -34.5t-39.5 -43.5t-43.5 -41t-39 -28q-25 -16 -59 -26.5t-66 -10.5h-260q-34 0 -68 10.5t-59 26.5q-16 9 -38 28t-44 41t-40.5 43.5t-27.5 34.5q-18 28 -25 58t-7 59v934h215v-930v-4q0 -4 2 -6q18 -28 44.5 -53.5
t45.5 -34.5q4 -2 6 -2h4h244h4.5t5.5 2q9 4 20.5 13.5t23.5 21.5t23.5 25.5t20.5 27.5q2 4 2 5v3v932zM721 1516q0 -45 -17 -83.5t-45.5 -67.5t-67 -45.5t-81.5 -16.5t-82 16.5t-68.5 45.5t-47 67.5t-17.5 83.5q0 42 17.5 79.5t47 66t68.5 45.5t82 17t81.5 -17t67 -45.5
t45.5 -66t17 -79.5zM602 1516q0 37 -26 64.5t-66 27.5q-20 0 -37.5 -7.5t-30.5 -20t-20.5 -29.5t-7.5 -35q0 -20 7.5 -38t20.5 -31.5t30.5 -21.5t37.5 -8q40 0 66 29t26 70z" />
    <glyph glyph-name="uring" unicode="&#x16f;" horiz-adv-x="999" 
d="M639 0l-8 51q-14 -10 -29 -20.5t-31.5 -19t-33.5 -14t-35 -5.5h-154q-38 0 -78 10.5t-71 32.5q-12 8 -26.5 21.5t-28.5 28t-26 28t-18 22.5q-21 29 -29 61.5t-8 63.5v625h205v-621v-6.5t2 -7.5q10 -17 30.5 -34t37.5 -28q4 -2 12 -2h146q7 0 23.5 9t34.5 21.5t35 26.5
t27 25v617h205v-703l19 -182h-201zM653 1221q0 -45 -17 -83.5t-45.5 -67.5t-67 -45.5t-81.5 -16.5t-82 16.5t-68.5 45.5t-47 67.5t-17.5 83.5q0 42 17.5 80t47 66.5t68.5 45.5t82 17t81.5 -17t67 -45.5t45.5 -66.5t17 -80zM535 1221q0 37 -26 64.5t-67 27.5
q-20 0 -37.5 -7.5t-30.5 -20t-20.5 -29.5t-7.5 -35q0 -20 7.5 -38t20.5 -31.5t30.5 -21.5t37.5 -8q41 0 67 29t26 70z" />
    <glyph glyph-name="Uhungarumlaut" unicode="&#x170;" 
d="M733 1225h215v-934q0 -29 -7 -59t-26 -58q-9 -13 -27 -34.5t-39.5 -43.5t-43.5 -41t-39 -28q-25 -16 -59 -26.5t-66 -10.5h-260q-34 0 -68 10.5t-59 26.5q-16 9 -38 28t-44 41t-40.5 43.5t-27.5 34.5q-18 28 -25 58t-7 59v934h215v-930v-4q0 -4 2 -6q18 -28 44.5 -53.5
t45.5 -34.5q4 -2 6 -2h4h244h4.5t5.5 2q9 4 20.5 13.5t23.5 21.5t23.5 25.5t20.5 27.5q2 4 2 5v3v932zM430 1329l188 244h193l-240 -289zM150 1329l188 244h192l-239 -289z" />
    <glyph glyph-name="uhungarumlaut" unicode="&#x171;" horiz-adv-x="999" 
d="M639 0l-8 51q-14 -10 -29 -20.5t-31.5 -19t-33.5 -14t-35 -5.5h-154q-38 0 -78 10.5t-71 32.5q-12 8 -26.5 21.5t-28.5 28t-26 28t-18 22.5q-21 29 -29 61.5t-8 63.5v625h205v-621v-6.5t2 -7.5q10 -17 30.5 -34t37.5 -28q4 -2 12 -2h146q7 0 23.5 9t34.5 21.5t35 26.5
t27 25v617h205v-703l19 -182h-201zM426 1034l188 244h193l-240 -289zM145 1034l189 244h192l-239 -289z" />
    <glyph glyph-name="Uogonek" unicode="&#x172;" 
d="M72 0zM321 -150l199 60l197 -316h-232zM733 1225h215v-934q0 -29 -7 -59t-26 -58q-9 -13 -27 -34.5t-39.5 -43.5t-43.5 -41t-39 -28q-25 -16 -59 -26.5t-66 -10.5h-260q-34 0 -68 10.5t-59 26.5q-16 9 -38 28t-44 41t-40.5 43.5t-27.5 34.5q-18 28 -25 58t-7 59v934h215
v-930v-4q0 -4 2 -6q18 -28 44.5 -53.5t45.5 -34.5q4 -2 6 -2h4h244h4.5t5.5 2q9 4 20.5 13.5t23.5 21.5t23.5 25.5t20.5 27.5q2 4 2 5v3v932z" />
    <glyph glyph-name="uogonek" unicode="&#x173;" horiz-adv-x="999" 
d="M63 0zM251 -150l199 60l197 -316h-232zM639 0l-8 51q-14 -10 -29 -20.5t-31.5 -19t-33.5 -14t-35 -5.5h-154q-38 0 -78 10.5t-71 32.5q-12 8 -26.5 21.5t-28.5 28t-26 28t-18 22.5q-21 29 -29 61.5t-8 63.5v625h205v-621v-6.5t2 -7.5q10 -17 30.5 -34t37.5 -28
q4 -2 12 -2h146q7 0 23.5 9t34.5 21.5t35 26.5t27 25v617h205v-703l19 -182h-201z" />
    <glyph glyph-name="Wcircumflex" unicode="&#x174;" horiz-adv-x="1511" 
d="M1153 0h-244l-196 821l-199 -821h-246l-280 1225h221l184 -860l203 860h229l203 -860l182 860h228zM420 1305l201 268h192l201 -268h-219l-78 106l-78 -106h-219z" />
    <glyph glyph-name="wcircumflex" unicode="&#x175;" horiz-adv-x="1372" 
d="M1008 0h-209l-166 555l-170 -555h-209l-270 885h217l164 -572l161 572h215l158 -572l168 572h215zM348 1010l201 268h192l201 -268h-219l-78 106l-78 -106h-219z" />
    <glyph glyph-name="Ycircumflex" unicode="&#x176;" horiz-adv-x="1065" 
d="M582 535v-535h-215v535l-402 690h238l272 -465l273 465h239zM178 1305l201 268h192l201 -268h-219l-78 106l-78 -106h-219z" />
    <glyph glyph-name="ycircumflex" unicode="&#x177;" horiz-adv-x="881" 
d="M8 0zM436 -332h-207l123 332h-18l-326 885h230l206 -600l209 600h217zM145 1010l201 268h192l201 -268h-219l-78 106l-78 -106h-219z" />
    <glyph glyph-name="Ydieresis" unicode="&#x178;" horiz-adv-x="1065" 
d="M0 0zM582 535v-535h-215v535l-402 690h238l272 -465l273 465h239zM540 1335v211h199v-211h-199zM211 1335v211h198v-211h-198z" />
    <glyph glyph-name="Zacute" unicode="&#x179;" horiz-adv-x="1006" 
d="M59 0v174l539 846h-539v205h807v-178l-530 -842h530v-205h-807zM309 1350l189 243h241l-241 -299z" />
    <glyph glyph-name="zacute" unicode="&#x17a;" horiz-adv-x="909" 
d="M72 0v166l407 524h-424v195h701v-168l-410 -522h430v-195h-704zM272 1055l189 243h241l-241 -299z" />
    <glyph glyph-name="Zdotaccent" unicode="&#x17b;" horiz-adv-x="1006" 
d="M59 0v174l539 846h-539v205h807v-178l-530 -842h530v-205h-807zM354 1307v219h219v-219h-219z" />
    <glyph glyph-name="zdotaccent" unicode="&#x17c;" horiz-adv-x="909" 
d="M72 0v166l407 524h-424v195h701v-168l-410 -522h430v-195h-704zM326 1012v219h219v-219h-219z" />
    <glyph glyph-name="Zcaron" unicode="&#x17d;" horiz-adv-x="1006" 
d="M59 0v174l539 846h-539v205h807v-178l-530 -842h530v-205h-807zM752 1573l-201 -268h-193l-200 268h219l78 -117l77 117h220z" />
    <glyph glyph-name="zcaron" unicode="&#x17e;" horiz-adv-x="909" 
d="M72 0v166l407 524h-424v195h701v-168l-410 -522h430v-195h-704zM709 1278l-201 -268h-193l-200 268h219l78 -117l77 117h220z" />
    <glyph glyph-name="longs" unicode="&#x17f;" horiz-adv-x="696" 
d="M377 0h-205v690h-137v195h137v78q0 32 7.5 65t29.5 62q6 8 17.5 21t25 27.5t28.5 27.5t27 22q31 22 71.5 33.5t78.5 11.5h172v-195h-170h-9.5t-9.5 -2q-7 -4 -17.5 -11.5t-20 -16t-17 -17.5t-8.5 -16v-975z" />
    <glyph glyph-name="florin" unicode="&#x192;" horiz-adv-x="686" 
d="M92 -143h4q4 0 8 2q17 11 35 29.5t29 39.5l1 2q0 2 0.5 3.5t0.5 5.5v751h-135v195h135v69q2 32 9.5 65t29.5 62q6 9 17.5 22t25 27.5t28.5 27.5t27 22q31 21 71.5 33t78.5 12h172v-195h-170h-9.5t-9.5 -2q-7 -4 -17.5 -11.5t-21 -16t-18 -17.5t-8.5 -16v-17v-65h143v-195
h-143v-756q0 -34 -7.5 -67t-27.5 -62q-6 -8 -18 -21.5t-26 -28t-29 -28t-27 -22.5q-31 -22 -70 -32.5t-76 -10.5h-172v195h170z" />
    <glyph glyph-name="Scommaaccent" unicode="&#x218;" horiz-adv-x="1169" 
d="M33 0zM561 -440h-231l197 316l198 -60zM995 291q0 -26 -6 -57.5t-26 -59.5q-9 -14 -28 -35.5t-40.5 -43t-43.5 -40.5t-38 -28q-25 -14 -60 -25.5t-67 -11.5h-356q-45 0 -84 16.5t-71.5 41.5t-58.5 55t-46 57q-6 8 -10.5 15t-8.5 13.5t-8 15t-10 19.5l203 68
q12 -17 26 -34q12 -14 28.5 -30t35.5 -30q1 -1 3 -1q2 -1 11 -1h336q7 0 9 1q2 0 3 1q12 6 27.5 19t30 27.5t24.5 28t10 19.5v121q0 14 -8 23t-16 11l-533 152q-39 11 -69 34t-50 53t-30.5 65.5t-10.5 70.5v111q0 26 6.5 57.5t24.5 59.5q9 13 28 34.5t41 43t44.5 41
t38.5 28.5q25 14 59 25.5t68 11.5h303q46 0 85 -16.5t71 -42t58 -55.5t46 -56q12 -17 21 -33t20 -39l-207 -59q-14 19 -29 37q-13 15 -29 30.5t-32 26.5l-2 1q-2 0 -4 0.5t-6 0.5h-289q-3 0 -5 -0.5t-4 -0.5q-2 -1 -3 -1q-12 -6 -27.5 -18.5t-29 -26.5t-22.5 -26.5t-9 -18.5
v-102q0 -14 7 -23.5t15 -11.5l535 -156q39 -11 68.5 -34t50 -53.5t30.5 -66t10 -69.5v-129z" />
    <glyph glyph-name="scommaaccent" unicode="&#x219;" horiz-adv-x="961" 
d="M29 0zM442 -406h-231l197 316l198 -60zM225 240q5 -6 14.5 -15t21 -18t22 -15.5t18.5 -7.5h238q9 0 21.5 7.5t24 18.5t19.5 24t8 24v49q0 8 -4.5 17.5t-21.5 11.5q-27 2 -66.5 5t-84.5 6.5t-93 7t-92 7.5q-41 3 -76 18t-61 41t-41 63.5t-15 86.5v62q0 34 8.5 65.5
t28.5 59.5q44 62 102 99.5t136 37.5h196q38 0 78.5 -13.5t69.5 -33.5q15 -11 34.5 -28t38.5 -37.5t35 -43t25 -43.5l-193 -57q-1 0 -2 2q-1 1 -1.5 2.5t-2.5 3.5q-5 6 -14 15t-20.5 17.5t-22.5 14.5t-18 6h-197q-6 -1 -11 -1q-5 -1 -9 -1t-7 -2q-6 -3 -22 -16.5t-25 -30.5
q-1 -1 -1 -4q-1 -3 -1 -16v-49q0 -5 7.5 -15t23.5 -12q20 -2 57 -5.5t81.5 -7.5t92.5 -8.5t90 -9.5t78.5 -19.5t64.5 -40t44 -63t16 -88.5v-57q0 -34 -9.5 -65.5t-29.5 -59.5q-6 -9 -16.5 -22t-23 -26t-26.5 -25.5t-26 -20.5q-31 -22 -69 -33.5t-76 -11.5h-234
q-37 0 -77.5 14.5t-69.5 34.5q-15 11 -34.5 28t-38 37.5t-34.5 42.5t-24 43l190 58z" />
    <glyph glyph-name="circumflex" unicode="&#x2c6;" horiz-adv-x="868" 
d="M135 1010l201 268h192l201 -268h-219l-78 106l-78 -106h-219z" />
    <glyph glyph-name="caron" unicode="&#x2c7;" horiz-adv-x="868" 
d="M709 1278l-201 -268h-193l-200 268h219l78 -117l77 117h220z" />
    <glyph glyph-name="breve" unicode="&#x2d8;" horiz-adv-x="729" 
d="M551 1221q0 -45 -17 -83.5t-45.5 -67.5t-67 -45.5t-81.5 -16.5t-82 16.5t-68.5 45.5t-47 67.5t-17.5 83.5h119q0 -20 7.5 -38t20.5 -31.5t30.5 -21.5t37.5 -8q40 0 66 29t26 70h119z" />
    <glyph glyph-name="dotaccent" unicode="&#x2d9;" horiz-adv-x="442" 
d="M84 1012v219h219v-219h-219z" />
    <glyph glyph-name="ring" unicode="&#x2da;" horiz-adv-x="1008" 
d="M551 1221q0 -45 -17 -83.5t-45.5 -67.5t-67 -45.5t-81.5 -16.5t-82 16.5t-68.5 45.5t-47 67.5t-17.5 83.5q0 42 17.5 80t47 66.5t68.5 45.5t82 17t81.5 -17t67 -45.5t45.5 -66.5t17 -80zM432 1221q0 37 -26 64.5t-66 27.5q-20 0 -37.5 -7.5t-30.5 -20t-20.5 -29.5
t-7.5 -35q0 -20 7.5 -38t20.5 -31.5t30.5 -21.5t37.5 -8q40 0 66 29t26 70z" />
    <glyph glyph-name="ogonek" unicode="&#x2db;" horiz-adv-x="831" 
d="M231 -150l199 60l197 -316h-232z" />
    <glyph glyph-name="tilde" unicode="&#x2dc;" horiz-adv-x="946" 
d="M604 1018q-7 16 -18 28t-23 19t-23.5 9.5t-19.5 0.5l-133 -43q-38 -12 -79 -8t-80 25t-72.5 58t-55.5 91l174 43q14 -32 35.5 -44t36.5 -7l139 43q39 12 80.5 8t79 -25t70 -59t53.5 -92z" />
    <glyph glyph-name="hungarumlaut" unicode="&#x2dd;" horiz-adv-x="760" 
d="M586 1034l188 244h193l-240 -289zM305 1034l189 244h192l-240 -289z" />
    <glyph glyph-name="pi" unicode="&#x3c0;" horiz-adv-x="1303" 
d="M59 690v195h1078v-195h-162v-516l22 -174h-206q-3 15 -6.5 40.5t-6.5 50.5q-4 29 -8 61v538h-348v-690h-205v690h-158z" />
    <glyph glyph-name="afii10023" unicode="&#x401;" horiz-adv-x="1057" 
d="M90 0v1225h770v-205h-555v-309h522v-205h-522v-301h555v-205h-770zM553 1338v211h199v-211h-199zM224 1338v211h198v-211h-198z" />
    <glyph glyph-name="afii10051" unicode="&#x402;" horiz-adv-x="1243" 
d="M788 184q8 0 10 1q2 0 3 1q17 11 35.5 29.5t29.5 40.5q0 1 1 3q0 2 0.5 3.5t0.5 3.5v355q0 2 -0.5 3.5t-0.5 3.5q-1 2 -1 3q-11 18 -29.5 37t-35.5 30q-2 2 -13 2h-141q-10 0 -27 -9.5t-35 -23.5t-35 -29.5t-26 -27.5v-610h-215v1020h-274v205h764v-205h-275v-172
q26 17 56.5 32t62.5 15h148q37 0 77.5 -11.5t69.5 -33.5q12 -9 27 -22.5t28.5 -28t25 -28t17.5 -21.5q20 -29 28.5 -60t8.5 -65v-363q0 -34 -8.5 -67t-28.5 -62q-6 -8 -17.5 -21.5t-26 -28.5t-29.5 -28.5t-27 -21.5q-31 -22 -69.5 -32.5t-75.5 -10.5h-173v194h170z" />
    <glyph glyph-name="afii10052" unicode="&#x403;" horiz-adv-x="983" 
d="M848 1225v-205h-543v-1020h-215v1225h758zM371 1395l188 243h242l-242 -299z" />
    <glyph glyph-name="afii10053" unicode="&#x404;" 
d="M305 274q0 -5 1 -7q0 -2 1 -3q7 -12 17.5 -24t21 -22t20.5 -16.5t17 -6.5h260h4.5t5.5 2q9 4 22 15t27 25.5t27.5 31t24.5 32.5l209 -55q-3 -9 -9.5 -20.5t-13.5 -24t-15 -24t-14 -19.5q-21 -27 -48 -56.5t-60 -54.5t-71.5 -41t-82.5 -16h-268q-37 0 -74.5 11.5
t-68.5 33.5q-11 7 -27 22t-32.5 31.5t-30.5 32.5t-21 26q-19 28 -28 60.5t-9 64.5v676q0 32 9 64.5t28 60.5q7 10 21 26t30.5 32.5t32.5 31.5t27 23q31 21 68.5 33t74.5 12h268q44 0 82.5 -16.5t71.5 -41.5t60 -54.5t48 -55.5q13 -17 26.5 -42.5t23.5 -45.5l-209 -57
q-6 19 -19.5 36t-28.5 30.5t-29.5 23t-23.5 14.5l-8 2h-260q-7 0 -17 -6.5t-20.5 -16t-21 -21.5t-17.5 -24q-1 -1 -1 -3q-1 -2 -1 -7v-225h365v-203h-365v-244z" />
    <glyph glyph-name="afii10054" unicode="&#x405;" horiz-adv-x="1169" 
d="M33 0zM995 291q0 -26 -6 -57.5t-26 -59.5q-9 -14 -28 -35.5t-40.5 -43t-43.5 -40.5t-38 -28q-25 -14 -60 -25.5t-67 -11.5h-356q-45 0 -84 16.5t-71.5 41.5t-58.5 55t-46 57q-6 8 -10.5 15t-8.5 13.5t-8 15t-10 19.5l203 68q12 -17 26 -34q12 -14 28.5 -30t35.5 -30
q1 -1 3 -1q2 -1 11 -1h336q7 0 9 1q2 0 3 1q12 6 27.5 19t30 27.5t24.5 28t10 19.5v121q0 14 -8 23t-16 11l-533 152q-39 11 -69 34t-50 53t-30.5 65.5t-10.5 70.5v111q0 26 6.5 57.5t24.5 59.5q9 13 28 34.5t41 43t44.5 41t38.5 28.5q25 14 59 25.5t68 11.5h303
q46 0 85 -16.5t71 -42t58 -55.5t46 -56q12 -17 21 -33t20 -39l-207 -59q-14 19 -29 37q-13 15 -29 30.5t-32 26.5l-2 1q-2 0 -4 0.5t-6 0.5h-289q-3 0 -5 -0.5t-4 -0.5q-2 -1 -3 -1q-12 -6 -27.5 -18.5t-29 -26.5t-22.5 -26.5t-9 -18.5v-102q0 -14 7 -23.5t15 -11.5
l535 -156q39 -11 68.5 -34t50 -53.5t30.5 -66t10 -69.5v-129z" />
    <glyph glyph-name="afii10055" unicode="&#x406;" horiz-adv-x="510" 
d="M90 0v1225h215v-1225h-215z" />
    <glyph glyph-name="afii10056" unicode="&#x407;" horiz-adv-x="510" 
d="M0 0zM259 1338v211h199v-211h-199zM-70 1338v211h198v-211h-198zM90 0v1225h215v-1225h-215z" />
    <glyph glyph-name="afii10057" unicode="&#x408;" horiz-adv-x="967" 
d="M756 289q0 -29 -8.5 -59t-26.5 -58q-9 -13 -27 -34t-39 -42.5t-42.5 -40.5t-37.5 -28q-26 -16 -60 -26.5t-66 -10.5h-152q-45 0 -83.5 16t-71.5 41t-59.5 55t-47.5 58q-5 6 -14 21.5t-27 56.5l207 55q15 -34 39 -60.5t43 -35.5q2 -2 10.5 -2t5.5 0h139q6 -1 22.5 12.5
t34.5 30.5t32 32.5t14 20.5v934h215v-936z" />
    <glyph glyph-name="afii10058" unicode="&#x409;" horiz-adv-x="1849" 
d="M1634 555q20 -29 27.5 -59t7.5 -64v-153q0 -32 -7.5 -63t-27.5 -60q-5 -9 -18.5 -24.5t-29.5 -32t-32.5 -31.5t-27.5 -23q-29 -22 -66 -33.5t-78 -11.5h-579v1018h-416v-729q0 -29 -8 -59t-27 -58q-9 -13 -26.5 -34t-38.5 -42.5t-42.5 -40.5t-37.5 -28
q-26 -16 -60.5 -26.5t-66.5 -10.5h-150v205h140q5 -1 21.5 12.5t34.5 30.5t32 32.5t14 20.5v934h846v-514h364q39 0 77.5 -13.5t66.5 -31.5q11 -9 27.5 -24t33 -31.5t29.5 -31.5t18 -24zM1452 270q0 1 1 4q0 2 0.5 4.5t0.5 6.5v147q0 2 -0.5 3.5t-0.5 3.5q-1 2 -1 3
q-7 12 -16.5 24.5t-20 22.5t-20.5 16.5t-17 6.5h-360v-309h362q7 0 17 6t20.5 16t20 22t14.5 23z" />
    <glyph glyph-name="afii10059" unicode="&#x40a;" horiz-adv-x="1798" 
d="M1583 555q20 -29 27.5 -59t7.5 -64v-153q0 -32 -7.5 -63t-27.5 -60q-5 -9 -18.5 -24.5t-29.5 -32t-32.5 -31.5t-27.5 -23q-29 -22 -66.5 -33.5t-77.5 -11.5h-579v506h-447v-506h-215v1225h215v-514h447v514h215v-514h364q38 0 77 -13.5t67 -31.5q11 -9 27.5 -24t33 -31.5
t29.5 -31.5t18 -24zM1401 268q0 1 1 4q0 2 0.5 4.5t0.5 6.5v147q0 2 -0.5 3.5t-0.5 3.5q-1 2 -1 3q-7 12 -17 24.5t-20 22.5t-20 16.5t-17 6.5h-360v-309h362q7 0 17 6t20.5 16t19.5 22t15 23z" />
    <glyph glyph-name="afii10060" unicode="&#x40b;" horiz-adv-x="1243" 
d="M868 621q0 2 -0.5 3.5t-0.5 3.5q-1 2 -1 3q-11 18 -29.5 37t-35.5 30q-2 2 -13 2h-141q-10 0 -27 -9.5t-35 -23.5t-35 -29.5t-26 -27.5v-610h-215v1020h-274v205h764v-205h-275v-172q26 17 56.5 32t62.5 15h148q37 0 77.5 -11.5t69.5 -33.5q12 -9 27 -22.5t28.5 -28
t25 -28t17.5 -21.5q20 -29 28.5 -60t8.5 -65v-625h-205v621z" />
    <glyph glyph-name="afii10061" unicode="&#x40c;" horiz-adv-x="1069" 
d="M752 0l-398 512h-49v-512h-215v1225h215v-510h47q53 63 102.5 127t97.5 128.5t96.5 128.5t101.5 126h264l-475 -611q58 -70 119 -150t121.5 -161t120.5 -159t116 -144h-264zM414 1395l188 243h242l-242 -299z" />
    <glyph glyph-name="afii10062" unicode="&#x40e;" horiz-adv-x="1065" 
d="M686 1561q0 -45 -17 -83.5t-45.5 -67.5t-67 -45.5t-81.5 -16.5t-82 16.5t-68.5 45.5t-47 67.5t-17.5 83.5h119q0 -20 7.5 -38t20.5 -31.5t30.5 -21.5t37.5 -8q40 0 66 29t26 70h119zM465 0h-209l129 326h-43l-362 899h229l264 -674l277 674h221z" />
    <glyph glyph-name="afii10145" unicode="&#x40f;" horiz-adv-x="1145" 
d="M412 -193v193h-322v1225h215v-1020h420v1020h215v-1225h-328v-193h-200z" />
    <glyph glyph-name="afii10017" unicode="&#x410;" horiz-adv-x="1124" 
d="M825 0l-90 260h-465l-90 -260h-229l428 1225h250l426 -1225h-230zM504 948l-166 -483h330z" />
    <glyph glyph-name="afii10018" unicode="&#x411;" 
d="M922 555q20 -29 27 -59t7 -64v-153q0 -32 -7 -63t-27 -60q-6 -9 -19 -24.5t-29.5 -32t-32.5 -31.5t-28 -23q-29 -22 -66 -33.5t-77 -11.5h-580v1225h752v-205h-537v-309h365q38 0 76.5 -13.5t66.5 -31.5q12 -9 28.5 -24t33 -31.5t29.5 -31.5t18 -24zM739 272q0 1 1 4
q0 2 0.5 5t0.5 6v145q0 2 -0.5 3.5t-0.5 3.5q-1 2 -1 3q-7 12 -16.5 24.5t-20 22.5t-20 16.5t-16.5 6.5h-361v-307h363q7 0 17 6t20 16t19.5 22t14.5 23z" />
    <glyph glyph-name="afii10019" unicode="&#x412;" 
d="M956 279q0 -32 -8 -63.5t-26 -59.5q-7 -10 -21 -25.5t-30 -32t-31.5 -31t-26.5 -22.5q-31 -22 -70.5 -33.5t-76.5 -11.5h-576v1225h576q40 0 78 -13t69 -34q11 -8 26.5 -22.5t31.5 -31t30 -32t21 -25.5q20 -29 27 -62.5t7 -64.5v-152q0 -32 -5.5 -57.5t-16 -46.5
t-25 -38.5t-32.5 -35.5q18 -18 32.5 -35.5t25 -38t16 -45.5t5.5 -57v-155zM739 778q0 1 1 3q0 2 0.5 4.5t0.5 7.5v147q0 2 -0.5 3t-0.5 3q-1 2 -1 4q-7 12 -17 25t-20.5 23.5t-20.5 17t-17 6.5h-359v-311h361q7 0 17 6t21 16t20.5 22t14.5 23zM739 272q0 1 1 4q0 2 0.5 5
t0.5 6v145q0 2 -0.5 3.5t-0.5 3.5q-1 2 -1 3q-7 12 -17 24.5t-20.5 22.5t-20.5 16.5t-17 6.5h-359v-307h361q7 0 17 6t21 16t20.5 22t14.5 23z" />
    <glyph glyph-name="afii10020" unicode="&#x413;" horiz-adv-x="983" 
d="M848 1225v-205h-543v-1020h-215v1225h758z" />
    <glyph glyph-name="afii10021" unicode="&#x414;" horiz-adv-x="1212" 
d="M246 1225h735v-1022h98l-41 -369h-215l19 166h-662v-166h-211v369h68q5 -1 21.5 12.5t34.5 30.5t32 32.5t14 20.5zM352 281q-3 -26 -14 -43.5t-25 -34.5h455v817h-328z" />
    <glyph glyph-name="afii10022" unicode="&#x415;" horiz-adv-x="1057" 
d="M90 0v1225h770v-205h-555v-309h522v-205h-522v-301h555v-205h-770z" />
    <glyph glyph-name="afii10024" unicode="&#x416;" horiz-adv-x="1673" 
d="M1335 0l-397 512h-49v-512h-215v512h-49l-398 -512h-264q56 66 116 144t120.5 159t121.5 161t119 150l-475 611h264q52 -62 101 -126t97 -128.5t97.5 -128.5t102.5 -127h47v510h215v-510h47q53 63 102 127t97 128.5t97 128.5t101 126h264l-475 -611q58 -70 119 -150
t122 -161t120.5 -159t115.5 -144h-264z" />
    <glyph glyph-name="afii10025" unicode="&#x417;" horiz-adv-x="1077" 
d="M682 440v4q0 1 -2 7q-6 11 -15.5 23t-20 21.5t-21 16t-17.5 6.5h-2h-287v203h287h2q7 0 17.5 6t21 16t20 22t15.5 23q2 4 2 7v4v147q0 2 -0.5 3.5t-0.5 3.5q-1 2 -1 3q-7 12 -17 24t-20.5 21.5t-21 16t-17.5 6.5h-260q-4 0 -8 -2q-9 -5 -23.5 -14.5t-29.5 -23t-28 -30.5
t-19 -36l-209 57q9 20 22.5 45.5t26.5 42.5q21 26 48 55.5t60 54.5t71.5 41.5t82.5 16.5h268q37 0 75 -12t69 -33q10 -8 26 -23t32.5 -31.5t30.5 -32.5t21 -26q19 -28 28 -60.5t9 -64.5v-153q0 -32 -6.5 -56.5t-17.5 -45t-26 -38t-32 -34.5q17 -17 32 -35t26 -39t17.5 -46.5
t6.5 -56.5v-172q0 -32 -9 -64.5t-28 -60.5q-7 -10 -21 -26t-30.5 -32.5t-32.5 -31.5t-26 -22q-31 -22 -69 -33.5t-75 -11.5h-268q-44 0 -82.5 16t-71.5 41t-60 54.5t-48 56.5q-6 8 -14 19.5t-15 24t-13 24t-9 20.5l208 55q11 -16 24.5 -32.5t27.5 -31t27 -25.5t22 -15
q3 -2 5.5 -2h4.5h260q7 0 17.5 6.5t21 16.5t20.5 22t17 24q0 1 1 3q0 2 0.5 3.5t0.5 3.5v166z" />
    <glyph glyph-name="afii10026" unicode="&#x418;" horiz-adv-x="1161" 
d="M90 0v1225h215v-824l420 824h231v-1225h-215v813l-424 -813h-227z" />
    <glyph glyph-name="afii10027" unicode="&#x419;" horiz-adv-x="1161" 
d="M90 0v1225h215v-824l420 824h231v-1225h-215v813l-424 -813h-227zM743 1561q0 -45 -17 -83.5t-45.5 -67.5t-67 -45.5t-81.5 -16.5t-82 16.5t-68.5 45.5t-47 67.5t-17.5 83.5h119q0 -20 7.5 -38t20.5 -31.5t30.5 -21.5t37.5 -8q41 0 67 29t26 70h118z" />
    <glyph glyph-name="afii10028" unicode="&#x41a;" horiz-adv-x="1090" 
d="M752 0l-398 512h-49v-512h-215v1225h215v-510h47q53 63 102.5 127t97.5 128.5t96.5 128.5t101.5 126h264l-475 -611q58 -70 119 -150t121.5 -161t120.5 -159t116 -144h-264z" />
    <glyph glyph-name="afii10029" unicode="&#x41b;" horiz-adv-x="1243" 
d="M408 289q0 -29 -8.5 -59t-26.5 -58q-9 -13 -27 -34t-39 -42.5t-42.5 -40.5t-37.5 -28q-26 -16 -60.5 -26.5t-66.5 -10.5h-149v205h139q5 -1 22 12.5t35 30.5t32 32.5t14 20.5v934h845v-1225h-215v1018h-415v-729z" />
    <glyph glyph-name="afii10030" unicode="&#x41c;" horiz-adv-x="1354" 
d="M934 0v838l-244 -537h-141l-244 535v-836h-215v1225h246l287 -604l282 604h244v-1225h-215z" />
    <glyph glyph-name="afii10031" unicode="&#x41d;" horiz-adv-x="1171" 
d="M752 0v506h-447v-506h-215v1225h215v-514h447v514h215v-1225h-215z" />
    <glyph glyph-name="afii10032" unicode="&#x41e;" horiz-adv-x="1206" 
d="M1022 291q0 -29 -7 -59t-26 -58q-10 -13 -28.5 -34.5t-40 -43.5t-43 -41t-37.5 -28q-25 -16 -60 -26.5t-67 -10.5h-312q-34 0 -68 10.5t-59 26.5q-16 9 -38 28t-43.5 41t-40 43.5t-27.5 34.5q-19 28 -26 58t-7 59v641q0 29 7 59t26 58q9 13 27.5 34t40 43t43.5 41.5
t38 28.5q25 16 59 26.5t68 10.5h312q32 0 67 -10.5t60 -26.5q16 -9 37.5 -28.5t43 -41.5t40 -43t28.5 -34q19 -28 26 -58t7 -59v-641zM307 293v-3q0 -3 2 -5q19 -28 46 -53.5t44 -34.5q3 -2 6 -2h5h295h3q3 0 7 2q17 9 44 34.5t46 53.5q2 4 2 5v3v633v4q0 4 -2 6
q-9 14 -21.5 28t-25 26.5t-24 21.5t-19.5 14q-3 2 -5.5 2h-4.5h-295h-5q-4 0 -6 -2q-8 -5 -19.5 -14t-24 -21.5t-25 -26.5t-21.5 -28q-2 -4 -2 -7v-3v-633z" />
    <glyph glyph-name="afii10033" unicode="&#x41f;" horiz-adv-x="1145" 
d="M725 0v1020h-420v-1020h-215v1225h850v-1225h-215z" />
    <glyph glyph-name="afii10034" unicode="&#x420;" horiz-adv-x="1100" 
d="M958 762q0 -70 -36 -125q-7 -10 -21 -25.5t-30.5 -31.5t-32.5 -30t-27 -22q-32 -23 -70 -34t-75 -11h-361v-483h-215v1225h576q37 0 75.5 -12t69.5 -33q11 -8 27 -23t32.5 -31.5t30.5 -32.5t21 -26q18 -28 27 -60.5t9 -64.5v-180zM743 940v5q0 5 -2 9q-5 9 -12.5 20
t-17 21t-19 17t-16.5 8h-10h-361v-332h361q7 0 17 6.5t21 16.5t21 22t16 23l1 2q0 1 0.5 2.5t0.5 3.5v176z" />
    <glyph glyph-name="afii10035" unicode="&#x421;" horiz-adv-x="1133" 
d="M90 0zM958 238q-12 -28 -21 -44.5t-22 -33.5q-20 -27 -47 -57t-60 -55t-71.5 -41.5t-81.5 -16.5h-256q-34 0 -68 10.5t-59 26.5q-16 9 -38 27.5t-43.5 40t-40 42.5t-27.5 35q-19 28 -26 58t-7 59v645q0 29 7 58t26 57q9 13 27.5 34t40 43t43.5 41.5t38 28.5
q25 14 59 25.5t68 11.5h256q43 0 81.5 -16.5t71.5 -42t60 -55.5t47 -56q13 -17 21 -32t22 -40l-208 -59q-18 22 -35 40q-14 16 -30.5 31.5t-27.5 22.5q-2 2 -4 2h-4h-241q-2 0 -3 -0.5t-3 -0.5q-2 -1 -3 -1q-10 -5 -22.5 -15t-25.5 -22.5t-24.5 -26.5t-19.5 -26
q-2 -3 -2 -11v-12v-622q0 -9 10.5 -23t25.5 -27.5t31 -25.5t27 -18q2 -2 7.5 -2h7.5h233h4.5t5.5 2q16 8 32.5 23t30.5 32q16 18 30 41z" />
    <glyph glyph-name="afii10036" unicode="&#x422;" horiz-adv-x="1022" 
d="M561 1020v-1020h-215v1020h-332v205h879v-205h-332z" />
    <glyph glyph-name="afii10037" unicode="&#x423;" horiz-adv-x="1075" 
d="M465 0h-209l129 326h-43l-362 899h229l264 -674l277 674h221z" />
    <glyph glyph-name="afii10038" unicode="&#x424;" horiz-adv-x="1268" 
d="M526 -170v160h-125q-34 0 -68 10.5t-59 26.5q-16 9 -38 28t-43.5 41t-40 43.5t-27.5 34.5q-19 28 -26 58t-7 59v641q0 29 7 59t26 58q9 13 27.5 34t40 43t43.5 41.5t38 28.5q25 16 59 26.5t68 10.5h125v141h119v-141h129q32 0 67 -10.5t60 -26.5q16 -9 37.5 -28.5
t43.5 -41.5t40.5 -43t28.5 -34q18 -28 25 -58t7 -59v-641q0 -29 -7 -59t-25 -58q-10 -13 -28.5 -34.5t-40.5 -43.5t-43.5 -41t-37.5 -28q-25 -16 -60 -26.5t-67 -10.5h-129v-160h-119zM645 1028v-833h121h3q3 0 7 2q9 4 20.5 13.5t24 21.5t24.5 25.5t21 27.5q2 4 2 5v3v633
v4q0 4 -2 6q-9 14 -21 28t-24.5 26.5t-24 21.5t-20.5 14q-3 2 -5.5 2h-4.5h-121zM307 293v-3q0 -3 2 -5q19 -28 46 -53.5t44 -34.5q3 -2 6 -2h5h116v833h-116h-5q-4 0 -6 -2q-8 -5 -19.5 -14t-24 -21.5t-25 -26.5t-21.5 -28q-2 -4 -2 -7v-3v-633z" />
    <glyph glyph-name="afii10039" unicode="&#x425;" horiz-adv-x="1090" 
d="M610 627l391 -627h-239l-270 436l-269 -436h-239l389 627l-369 598h238l250 -408l251 408h238z" />
    <glyph glyph-name="afii10040" unicode="&#x426;" horiz-adv-x="1171" 
d="M1038 203l-43 -365h-215l21 162h-711v1225h215v-1022h420v1022h215v-1022h98z" />
    <glyph glyph-name="afii10041" unicode="&#x427;" horiz-adv-x="1126" 
d="M707 0v506h-353q-34 0 -68 10.5t-59 26.5q-16 9 -38 28t-43.5 41t-40 43.5t-27.5 34.5q-19 28 -26 58t-7 59v418h215v-416v-3q0 -3 2 -5q19 -28 46 -53.5t44 -34.5q2 -2 3 -2h1h351v514h215v-1225h-215z" />
    <glyph glyph-name="afii10042" unicode="&#x428;" horiz-adv-x="1354" 
d="M305 1225v-1022h209v1022h213v-1022h207v1022h215v-1225h-1059v1225h215z" />
    <glyph glyph-name="afii10043" unicode="&#x429;" horiz-adv-x="1380" 
d="M305 1225v-1022h209v1022h213v-1022h207v1022h215v-1022h98l-43 -365h-215l21 162h-920v1225h215z" />
    <glyph glyph-name="afii10044" unicode="&#x42a;" horiz-adv-x="1198" 
d="M367 711h364q38 0 77 -13.5t66 -31.5q12 -9 28.5 -24t33 -31.5t29.5 -31.5t18 -24q20 -29 27.5 -59t7.5 -64v-153q0 -32 -7.5 -63t-27.5 -60q-5 -9 -18.5 -24.5t-29.5 -32t-32.5 -31.5t-28.5 -23q-29 -22 -66 -33.5t-77 -11.5h-579v1020h-189v205h404v-514zM801 272
q0 1 1 4q0 2 0.5 5t0.5 6v145q0 2 -0.5 3.5t-0.5 3.5q-1 2 -1 3q-7 12 -17 24.5t-20.5 22.5t-20 16.5t-16.5 6.5h-360v-307h362q7 0 17 6t20.5 16t19.5 22t15 23z" />
    <glyph glyph-name="afii10045" unicode="&#x42b;" horiz-adv-x="1579" 
d="M922 555q20 -29 27 -59t7 -64v-153q0 -32 -7 -63t-27 -60q-6 -9 -19 -24.5t-29.5 -32t-32.5 -31.5t-28 -23q-29 -22 -66 -33.5t-77 -11.5h-580v1225h215v-514h365q38 0 76.5 -13.5t66.5 -31.5q12 -9 28.5 -24t33 -31.5t29.5 -31.5t18 -24zM739 270q0 1 1 4q0 2 0.5 4.5
t0.5 6.5v147q0 2 -0.5 3.5t-0.5 3.5q-1 2 -1 3q-7 12 -16.5 24.5t-20 22.5t-20 16.5t-16.5 6.5h-361v-309h363q7 0 17 6t20 16t19.5 22t14.5 23zM1159 0v1225h215v-1225h-215z" />
    <glyph glyph-name="afii10046" unicode="&#x42c;" 
d="M922 555q20 -29 27 -59t7 -64v-153q0 -32 -7 -63t-27 -60q-6 -9 -19 -24.5t-29.5 -32t-32.5 -31.5t-28 -23q-29 -22 -66 -33.5t-77 -11.5h-580v1225h215v-514h365q38 0 76.5 -13.5t66.5 -31.5q12 -9 28.5 -24t33 -31.5t29.5 -31.5t18 -24zM739 270q0 1 1 4q0 2 0.5 4.5
t0.5 6.5v147q0 2 -0.5 3.5t-0.5 3.5q-1 2 -1 3q-7 12 -16.5 24.5t-20 22.5t-20 16.5t-16.5 6.5h-361v-309h363q7 0 17 6t20 16t19.5 22t14.5 23z" />
    <glyph glyph-name="afii10047" unicode="&#x42d;" horiz-adv-x="1077" 
d="M682 518h-365v203h365v225q0 2 -0.5 3.5t-0.5 3.5q-1 2 -1 3q-7 12 -17 24t-20.5 21.5t-21 16t-17.5 6.5h-260l-8 -2q-9 -5 -23.5 -14.5t-29.5 -23t-28 -30.5t-19 -36l-209 57q9 20 22.5 45.5t26.5 42.5q21 26 48 55.5t60 54.5t71.5 41.5t82.5 16.5h268q37 0 75 -12
t69 -33q10 -8 26 -23t32.5 -31.5t30.5 -32.5t21 -26q19 -28 28 -60.5t9 -64.5v-676q0 -32 -9 -64.5t-28 -60.5q-7 -10 -21 -26t-30.5 -32.5t-32.5 -31.5t-26 -22q-31 -22 -69 -33.5t-75 -11.5h-268q-44 0 -82.5 16t-71.5 41t-60 54.5t-48 56.5q-6 8 -14 19.5t-15 24t-13 24
t-9 20.5l208 55q11 -16 24.5 -32.5t27.5 -31t27 -25.5t22 -15q3 -2 5.5 -2h4.5h260q7 0 17.5 6.5t21 16.5t20.5 22t17 24q0 1 1 3q0 2 0.5 3.5t0.5 3.5v244z" />
    <glyph glyph-name="afii10048" unicode="&#x42e;" horiz-adv-x="1608" 
d="M1423 291q0 -29 -7 -59t-25 -58q-10 -13 -28.5 -34.5t-40.5 -43.5t-43.5 -41t-37.5 -28q-25 -16 -60 -26.5t-67 -10.5h-311q-34 0 -68 10.5t-59 26.5q-16 9 -38 28t-44 41t-40.5 43.5t-27.5 34.5q-18 28 -25 58t-7 59v215h-189v-506h-215v1225h215v-514h189v221
q0 29 7 59t25 58q9 13 27.5 34t40.5 43t44 41.5t38 28.5q25 16 59 26.5t68 10.5h311q32 0 67 -10.5t60 -26.5q16 -9 37.5 -28.5t43.5 -41.5t40.5 -43t28.5 -34q18 -28 25 -58t7 -59v-641zM709 293v-3q0 -3 2 -5q9 -14 21 -27.5t24.5 -25.5t24 -21.5t20.5 -13.5q3 -2 5.5 -2
h4.5h295h3q3 0 7 2q9 4 20.5 13.5t24 21.5t24.5 25.5t21 27.5q2 4 2 5v3v633v4q0 4 -2 6q-9 14 -21 28t-24.5 26.5t-24 21.5t-20.5 14q-3 2 -5.5 2h-4.5h-295h-4q-4 0 -6 -2q-9 -5 -20.5 -14t-24 -21.5t-24.5 -26.5t-21 -28q-2 -4 -2 -7v-3v-633z" />
    <glyph glyph-name="afii10049" unicode="&#x42f;" horiz-adv-x="1133" 
d="M59 942q0 32 9.5 64.5t27.5 60.5q7 10 21 26t30.5 32.5t32.5 31.5t27 23q31 21 69.5 33t75.5 12h576v-1225h-215v483h-234l-248 -483h-235l264 500q-28 9 -53 28q-11 8 -27 22t-32.5 30t-30.5 31.5t-21 25.5q-37 57 -37 125v180zM274 764q0 -5 1 -6q0 -2 1 -2
q6 -11 16.5 -23t21.5 -22t21 -16.5t17 -6.5h361v332h-371q-8 -1 -17 -8t-18.5 -17t-17.5 -21t-13 -20q-2 -4 -2 -9v-5v-176z" />
    <glyph glyph-name="afii10065" unicode="&#x430;" horiz-adv-x="981" 
d="M35 0zM598 625v4q0 4 -2 6q-9 15 -28 32.5t-38 28.5q-8 4 -12 4h-180q-9 0 -21.5 -7.5t-24.5 -18t-22 -21t-14 -16.5l-193 57q8 18 25 41t37.5 44.5t40 39.5t31.5 27q29 20 69.5 34.5t77.5 14.5h176q38 0 78.5 -11.5t71.5 -33.5q11 -9 25.5 -21.5t28.5 -26t26 -26.5
t18 -22q22 -29 28.5 -62.5t6.5 -64.5v-447l20 -180h-202l-11 41q-28 -20 -60 -35.5t-67 -15.5h-168q-38 0 -77 11.5t-70 33.5q-12 8 -26 21t-27.5 27t-25 27t-17.5 21q-20 28 -28.5 59.5t-8.5 65.5v37q0 34 8.5 65.5t28.5 59.5q6 8 17.5 20.5t25 25.5t27.5 25t26 21
q31 22 70 33.5t77 11.5h283v70zM598 373h-281q-5 0 -7 -0.5t-7 -3.5q-17 -11 -33.5 -29t-27.5 -37q-1 -1 -1 -2q-1 -1 -1 -4v-39q0 -3 1 -4q0 -1 1 -2q11 -19 28 -36.5t35 -27.5q8 -4 12 -4h160q9 0 26.5 10.5t36.5 24t35.5 27t22.5 20.5v107z" />
    <glyph glyph-name="afii10066" unicode="&#x431;" horiz-adv-x="997" 
d="M553 895q38 0 78.5 -11.5t70.5 -33.5q12 -9 26.5 -22t28.5 -27t26 -27t18 -22q21 -29 28 -61.5t7 -63.5v-369q0 -31 -7 -63.5t-28 -61.5q-6 -9 -18 -22.5t-26 -28t-28.5 -28t-26.5 -21.5q-30 -22 -70.5 -32.5t-78.5 -10.5h-199q-38 0 -77 10.5t-70 32.5q-12 8 -26.5 21.5
t-29 28t-27 28t-18.5 22.5q-21 29 -27.5 61.5t-6.5 63.5v690q0 32 9 64.5t28 60.5q7 10 21.5 26t31 32.5t32.5 31.5t27 23q29 21 66.5 33t74.5 12h269l-4 -14.5t-10.5 -35.5t-14 -46.5t-14 -46.5t-10.5 -35.5t-3 -14.5h-219q-8 0 -20 -10t-24 -21q-14 -13 -29 -30
q-5 -5 -6 -12.5t-1 -10.5v-127q21 19 42 34q18 13 38.5 23.5t38.5 10.5h158zM276 248q0 -6 7 -14.5t17.5 -17t22.5 -16.5l21 -14q1 -1 3 -1q2 -1 9 -1h195q4 0 12 4q7 4 18.5 11.5t22 16t18.5 17.5t9 15v373v4.5t-2 7.5q-10 15 -29.5 34.5t-38.5 30.5q-4 2 -10 2h-150h-13
t-19 -6q-21 -15 -39 -31q-16 -14 -31.5 -29t-22.5 -28v-358z" />
    <glyph glyph-name="afii10067" unicode="&#x432;" horiz-adv-x="969" 
d="M782 483q-6 -9 -13.5 -18.5t-16.5 -20.5q9 -9 17.5 -20t14.5 -21q19 -29 27 -58t8 -64v-35q-2 -32 -9.5 -61t-27.5 -58q-6 -9 -16 -21.5t-21.5 -25.5t-24 -25t-24.5 -20q-26 -20 -65 -31.5t-76 -11.5h-467v899h467q37 -2 76 -14t65 -33q12 -9 25 -21t25.5 -25t22.5 -25
t15 -19q19 -28 27 -59.5t8 -65.5v-29q-2 -34 -10 -62.5t-27 -54.5zM289 700v-163h264h4h2q14 11 32 29t27 36v31q-9 17 -26 37t-33 28q-4 2 -8 2h-262zM618 285q-9 18 -26 36.5t-33 26.5q-3 2 -5.5 2h-4.5h-260v-170h268q16 11 34 28.5t27 37.5v39z" />
    <glyph glyph-name="afii10068" unicode="&#x433;" horiz-adv-x="815" 
d="M702 885v-195h-407v-690h-207v885h614z" />
    <glyph glyph-name="afii10069" unicode="&#x434;" horiz-adv-x="1077" 
d="M981 190l-43 -348h-195l17 158h-555v-158h-197v348h21.5t25.5 1t23.5 2t15.5 4q13 6 30 25.5t28 37.5q2 3 3 6.5t3 9.5l84 609h635v-695h104zM356 268q-3 -18 -16 -41t-23 -37h359v504h-258z" />
    <glyph glyph-name="afii10070" unicode="&#x435;" horiz-adv-x="985" 
d="M272 344v-84q0 -5 1 -7q0 -2 1 -3q7 -12 17.5 -23.5t22 -21t22 -15.5t18.5 -6h199q7 0 18 6.5t22.5 15t21 17.5t14.5 15q3 3 4 5t2 3l190 -58q-8 -18 -24.5 -41t-36 -44.5t-39 -39.5t-31.5 -26q-29 -20 -69.5 -33.5t-77.5 -13.5h-193q-38 0 -78 10.5t-71 32.5
q-12 8 -26.5 21.5t-28.5 27.5t-26 27.5t-18 21.5q-20 28 -29 60.5t-9 66.5v369q0 34 9 65.5t29 59.5q6 8 18 21t26 27.5t28.5 27.5t26.5 22q31 22 71 33.5t78 11.5h189q38 0 78 -11.5t71 -33.5q12 -9 26.5 -22t28.5 -27t26 -27t18 -22q21 -29 28.5 -61.5t7.5 -63.5v-283
h-555zM623 623v5q0 5 -2 7q-10 15 -29.5 33.5t-38.5 29.5q-4 2 -12 2h-187q-8 0 -18.5 -6t-22 -15t-22 -20.5t-17.5 -23.5q-2 -4 -2 -8v-4v-97h351v97z" />
    <glyph glyph-name="afii10072" unicode="&#x436;" horiz-adv-x="1567" 
d="M1237 0l-326 362h-65v-362h-205v362h-66l-325 -362h-275l422 457l-393 428h268l301 -330h68v330h205v-330h67l301 330h269l-393 -428l421 -457h-274z" />
    <glyph glyph-name="afii10073" unicode="&#x437;" horiz-adv-x="942" 
d="M793 596q-3 -62 -37 -113q-5 -8 -15.5 -18.5t-21.5 -20.5l20 -20t17 -21q18 -27 27.5 -57t9.5 -65v-23q0 -34 -9.5 -66.5t-29.5 -60.5q-6 -8 -18 -21.5t-26 -27.5t-28.5 -27.5t-26.5 -21.5q-31 -22 -71 -32.5t-78 -10.5h-193q-37 0 -77.5 13.5t-69.5 33.5q-12 8 -31.5 26
t-39 39.5t-36.5 44.5t-24 41l190 58q1 -1 2 -3t4 -5q5 -6 14.5 -15t21 -17.5t22 -15t18.5 -6.5h199q7 0 18 6t22.5 15.5t22 21t17.5 23.5q0 1 1 3q0 2 0.5 3.5t0.5 3.5v27q-10 17 -25 34.5t-31 26.5q-2 2 -5 2h-5h-207v185h217q14 11 30 26.5t26 34.5v25q0 2 -0.5 3.5
t-0.5 3.5q-1 2 -1 3q-7 12 -17.5 23.5t-22 20.5t-22.5 15t-18 6h-199q-8 0 -18.5 -6.5t-22 -15t-21 -17.5t-14.5 -14q-3 -3 -4 -5t-2 -3l-190 57q7 18 24 41t36.5 44.5t39 39.5t31.5 27q29 20 69.5 33.5t77.5 13.5h193q38 0 78 -10.5t71 -32.5q12 -9 26.5 -22t28.5 -27.5
t26 -27.5t18 -21q20 -28 29.5 -60.5t9.5 -66.5v-27z" />
    <glyph glyph-name="afii10074" unicode="&#x438;" horiz-adv-x="1040" 
d="M870 885v-885h-204v545l-379 -545h-199v885h205v-537l373 537h204z" />
    <glyph glyph-name="afii10075" unicode="&#x439;" horiz-adv-x="1040" 
d="M870 885v-885h-204v545l-379 -545h-199v885h205v-537l373 537h204zM698 1221q0 -45 -17 -83.5t-45.5 -67.5t-67 -45.5t-81.5 -16.5t-82 16.5t-68.5 45.5t-47 67.5t-17.5 83.5h119q0 -20 7.5 -38t20.5 -31.5t30.5 -21.5t37.5 -8q41 0 67 29t26 70h118z" />
    <glyph glyph-name="afii10076" unicode="&#x43a;" horiz-adv-x="1014" 
d="M684 0l-326 362h-65v-362h-205v885h205v-330h67q36 39 74.5 81t77.5 85t77 84.5t73 79.5h268l-393 -428l421 -457h-274z" />
    <glyph glyph-name="afii10077" unicode="&#x43b;" horiz-adv-x="1077" 
d="M72 172q7 0 9 1q2 0 3 1q17 11 36 29.5t30 40.5q0 1 1 3q0 2 0.5 3.5t0.5 3.5v631h755v-885h-207v690h-342v-440q0 -34 -8 -67t-28 -62q-6 -9 -18.5 -22.5t-27 -28t-30 -28t-27.5 -22.5q-31 -21 -69.5 -32t-75.5 -11h-92v195h90z" />
    <glyph glyph-name="afii10078" unicode="&#x43c;" horiz-adv-x="1102" 
d="M932 885v-885h-205v492q-19 -35 -38.5 -72.5t-38.5 -75.5t-37 -74.5t-35 -68.5h-134l-151 299v-500h-205v885h217l207 -398q50 97 104.5 201t102.5 197h213z" />
    <glyph glyph-name="afii10079" unicode="&#x43d;" horiz-adv-x="1014" 
d="M844 885v-885h-207v367h-342v-367h-207v885h207v-324h342v324h207z" />
    <glyph glyph-name="afii10080" unicode="&#x43e;" horiz-adv-x="991" 
d="M829 258q0 -31 -6.5 -63.5t-27.5 -61.5q-6 -9 -18 -22.5t-26 -28t-28.5 -28t-26.5 -21.5q-31 -22 -71 -32.5t-78 -10.5h-193q-38 0 -77 10.5t-70 32.5q-12 8 -26.5 21.5t-29 28t-27 28t-18.5 22.5q-21 29 -27.5 61.5t-6.5 63.5v369q0 31 6.5 63.5t27.5 61.5q6 9 18.5 22
t27 27t29 27t26.5 22q31 22 70 33.5t77 11.5h193q38 0 78 -11.5t71 -33.5q12 -9 26.5 -22t28.5 -27t26 -27t18 -22q21 -29 27.5 -61.5t6.5 -63.5v-369zM276 621v-373q0 -6 7 -14.5t17.5 -17t22.5 -16.5l21 -14q1 -1 3 -1q2 -1 9 -1h189q4 0 12 4q7 4 18 11.5t22 16t19 17.5
t9 15v373v4.5t-2 7.5q-10 15 -29.5 34.5t-38.5 30.5q-4 2 -10 2h-189q-6 0 -10 -2q-18 -11 -37 -29t-30 -36q-3 -3 -3 -8v-4z" />
    <glyph glyph-name="afii10081" unicode="&#x43f;" horiz-adv-x="1014" 
d="M844 885v-885h-207v690h-342v-690h-207v885h756z" />
    <glyph glyph-name="afii10082" unicode="&#x440;" horiz-adv-x="1006" 
d="M844 260q0 -34 -8.5 -66.5t-28.5 -60.5q-6 -8 -17.5 -21.5t-25.5 -28.5t-28.5 -28.5t-26.5 -21.5q-31 -22 -70.5 -32.5t-77.5 -10.5h-149q-32 0 -63.5 14t-57.5 33v-371h-205v1036l-18 183h202l9 -45q27 21 61 38t72 17h149q38 0 78.5 -11.5t69.5 -33.5q11 -9 25.5 -22
t28.5 -27.5t26 -28t18 -22.5q20 -29 28.5 -61t8.5 -66v-363zM639 618q0 3 -0.5 5.5t-0.5 4.5q-1 2 -1 3q-11 18 -30 36t-36 29q-8 4 -12 4h-141q-9 0 -26 -10t-36.5 -24.5t-37 -30t-27.5 -27.5v-334q10 -11 27.5 -26.5t36.5 -29.5t36.5 -24t26.5 -10h141q8 0 12 2
q17 11 36 30t30 38q0 1 1 3q0 2 0.5 3.5t0.5 3.5v354z" />
    <glyph glyph-name="afii10083" unicode="&#x441;" horiz-adv-x="961" 
d="M72 0zM276 260q0 -2 1 -4t1.5 -4t2.5 -4q11 -19 29 -34t36 -26q1 -1 4 -2q4 -2 8 -2h201q8 0 19 6.5t22.5 15t20.5 17.5t14 15q0 1 1 2q3 3 5 6l190 -58q-8 -18 -24.5 -41t-36 -44.5t-39 -39.5t-31.5 -26q-29 -20 -69.5 -33.5t-77.5 -13.5h-197q-38 0 -78 10.5t-71 32.5
q-12 8 -26.5 21.5t-28.5 28t-25.5 28t-17.5 22.5q-22 29 -29.5 61.5t-7.5 63.5v369q0 31 7.5 63.5t29.5 61.5q6 9 17.5 22.5t25.5 28t28.5 27.5t26.5 22q31 22 71 32.5t78 10.5h195q37 0 77.5 -13.5t69.5 -33.5q15 -11 34.5 -28t38 -37.5t34.5 -43t24 -43.5l-190 -57
q-2 3 -5 6q-1 1 -1 2q-5 6 -14 15t-20.5 17.5t-22.5 14.5t-19 6h-199q-4 0 -8 -2q-3 -1 -4 -2q-18 -11 -36 -25.5t-29 -33.5q-2 -2 -2.5 -4t-1.5 -4t-1 -4v-365z" />
    <glyph glyph-name="afii10084" unicode="&#x442;" horiz-adv-x="887" 
d="M500 690v-690h-205v690h-275v195h754v-195h-274z" />
    <glyph glyph-name="afii10085" unicode="&#x443;" horiz-adv-x="874" 
d="M8 0zM436 -332h-207l123 332h-18l-326 885h230l206 -600l209 600h217z" />
    <glyph glyph-name="afii10086" unicode="&#x444;" horiz-adv-x="1024" 
d="M408 -334v324h-54q-38 0 -77 10.5t-70 32.5q-12 8 -26.5 21.5t-29 28t-27 28t-18.5 22.5q-21 29 -27.5 61.5t-6.5 63.5v369q0 31 6.5 63.5t27.5 61.5q6 9 18.5 22t27 27t29 27t26.5 22q31 22 70 33.5t77 11.5h54v332h118v-332h54q38 0 78 -11.5t71 -33.5q12 -9 26.5 -22
t28.5 -27t25.5 -27t17.5 -22q22 -29 28.5 -61.5t6.5 -63.5v-369q0 -31 -6.5 -63.5t-28.5 -61.5q-6 -9 -17.5 -22.5t-25.5 -28t-28.5 -28t-26.5 -21.5q-31 -22 -71 -32.5t-78 -10.5h-54v-324h-118zM276 248q0 -6 7 -14.5t17.5 -17t22.5 -16.5l21 -14q1 -1 3 -1q2 -1 9 -1h52
v516h-52q-6 0 -10 -2q-18 -11 -37 -29t-30 -36q-3 -3 -3 -8v-4v-373zM526 700v-516h52q4 0 12 4q7 4 18 11.5t21.5 16t18.5 17.5t9 15v373l-2 12q-9 15 -29 34.5t-38 30.5q-4 2 -10 2h-52z" />
    <glyph glyph-name="afii10087" unicode="&#x445;" horiz-adv-x="920" 
d="M602 0l-186 279l-187 -279h-245l309 453l-299 432h250l172 -264l166 264h249l-294 -432l309 -453h-244z" />
    <glyph glyph-name="afii10088" unicode="&#x446;" horiz-adv-x="1044" 
d="M948 190l-43 -348h-194l16 158h-639v885h205v-690h346v690h205v-695h104z" />
    <glyph glyph-name="afii10089" unicode="&#x447;" horiz-adv-x="971" 
d="M252 621q0 -5 1 -7q0 -2 1 -4q11 -21 29.5 -41.5t35.5 -31.5q1 -1 3 -1q2 -1 6 -1h266v350h205v-885h-205v344h-268q-38 0 -76.5 10.5t-67.5 32.5q-12 9 -26.5 22.5t-28.5 28t-25.5 28t-17.5 21.5q-20 29 -28.5 62t-8.5 67v269h205v-264z" />
    <glyph glyph-name="afii10090" unicode="&#x448;" horiz-adv-x="1192" 
d="M1022 0h-932v885h201v-695h162v695h200v-695h168v695h201v-885z" />
    <glyph glyph-name="afii10091" unicode="&#x449;" horiz-adv-x="1225" 
d="M1128 190l-43 -348h-194l16 158h-817v885h201v-695h162v695h200v-695h168v695h201v-699l2 4h104z" />
    <glyph glyph-name="afii10092" unicode="&#x44a;" horiz-adv-x="1057" 
d="M344 559h283q38 0 77 -11.5t70 -33.5q12 -8 26 -21t27.5 -27t25 -27t17.5 -21q20 -28 28.5 -59.5t8.5 -65.5v-37q0 -34 -8.5 -65.5t-28.5 -59.5q-6 -8 -17.5 -21t-25 -27t-27.5 -27t-26 -21q-31 -22 -70 -33.5t-77 -11.5h-488v702h-157v193h362v-326zM344 184h281
q1 0 7 2q2 1 5 2q17 11 34.5 28t28.5 36q0 1 1 2q0 1 0.5 2t0.5 2v33q0 1 -0.5 2t-0.5 2q-1 1 -1 2q-11 19 -27.5 36.5t-33.5 28.5q-3 5 -14 5h-281v-183z" />
    <glyph glyph-name="afii10093" unicode="&#x44b;" horiz-adv-x="1368" 
d="M293 559h282q39 0 78 -11.5t70 -33.5q12 -8 26 -21t27.5 -27t25 -27t17.5 -21q20 -28 28.5 -59.5t8.5 -65.5v-37q0 -34 -8.5 -65.5t-28.5 -59.5q-6 -8 -17.5 -21t-25 -27t-27.5 -27t-26 -21q-31 -22 -70 -33.5t-78 -11.5h-487v895h205v-326zM293 184h280q2 0 8 2q3 1 5 2
q17 11 34.5 28t28.5 36q0 1 1 2q0 1 0.5 2t0.5 2v33q0 1 -0.5 2t-0.5 2q-1 1 -1 2q-11 19 -27.5 36.5t-33.5 28.5q-3 5 -15 5h-280v-183zM993 0v885h205v-885h-205z" />
    <glyph glyph-name="afii10094" unicode="&#x44c;" horiz-adv-x="1006" 
d="M293 559h282q39 0 78 -11.5t70 -33.5q12 -8 26 -21t27.5 -27t25 -27t17.5 -21q20 -28 28.5 -59.5t8.5 -65.5v-37q0 -34 -8.5 -65.5t-28.5 -59.5q-6 -8 -17.5 -21t-25 -27t-27.5 -27t-26 -21q-31 -22 -70 -33.5t-78 -11.5h-487v895h205v-326zM293 184h280q2 0 8 2q3 1 5 2
q17 11 34.5 28t28.5 36q0 1 1 2q0 1 0.5 2t0.5 2v33q0 1 -0.5 2t-0.5 2q-1 1 -1 2q-11 19 -27.5 36.5t-33.5 28.5q-3 5 -15 5h-280v-183z" />
    <glyph glyph-name="afii10095" unicode="&#x44d;" horiz-adv-x="971" 
d="M801 623v-365q0 -34 -9.5 -66.5t-29.5 -60.5q-6 -8 -18 -21.5t-26 -27.5t-28.5 -27.5t-25.5 -21.5q-31 -22 -71.5 -32.5t-78.5 -10.5h-192q-38 0 -78.5 13.5t-69.5 33.5q-12 8 -31.5 26t-39 39.5t-36.5 44.5t-24 41l190 58l3 -3q1 -2 4 -5q4 -6 13.5 -15t21 -17.5t22 -15
t18.5 -6.5h201q8 0 18.5 6t21.5 15.5t21 21t17 23.5q0 1 1 3q0 2 0.5 3.5t0.5 3.5v90h-272v185h272v86q0 2 -0.5 3.5t-0.5 3.5q-1 2 -1 3q-7 12 -17 23.5t-21 20.5t-21.5 15t-18.5 6h-201q-8 0 -18.5 -6.5t-22 -15t-21 -17.5t-13.5 -14q-3 -3 -4 -5l-3 -3l-190 57
q7 18 24 41t36.5 44.5t39 39.5t31.5 27q29 20 69.5 33.5t78.5 13.5h192q38 0 78.5 -10.5t71.5 -32.5q11 -9 25.5 -22t28.5 -27.5t26 -27.5t18 -21q20 -28 29.5 -60.5t9.5 -66.5z" />
    <glyph glyph-name="afii10096" unicode="&#x44e;" horiz-adv-x="1362" 
d="M1200 258q0 -31 -6.5 -63.5t-28.5 -61.5q-6 -9 -17.5 -22.5t-25.5 -28t-28.5 -28t-26.5 -21.5q-31 -22 -71 -32.5t-78 -10.5h-193q-38 0 -77.5 10.5t-69.5 32.5q-12 8 -26.5 21.5t-29 28t-27 28t-18.5 22.5q-21 29 -28 61.5t-7 63.5v109h-149v-367h-205v885h205v-324h149
v66q0 31 7 63.5t28 61.5q6 9 18.5 22t27 27t29 27t26.5 22q30 22 69.5 33.5t77.5 11.5h193q38 0 78 -11.5t71 -33.5q12 -9 26.5 -22t28.5 -27t25.5 -27t17.5 -22q22 -29 28.5 -61.5t6.5 -63.5v-369zM647 248q0 -6 7 -14.5t17.5 -17t22.5 -16.5l21 -14q1 -1 3 -1q2 -1 9 -1
h188q5 0 13 4q7 4 18 11.5t21.5 16t18.5 17.5t9 15v373l-2 12q-9 15 -29 34.5t-38 30.5q-4 2 -11 2h-188q-6 0 -10 -2q-19 -11 -38 -29t-30 -36q-2 -4 -2 -8v-4v-373z" />
    <glyph glyph-name="afii10097" unicode="&#x44f;" horiz-adv-x="979" 
d="M231 365q-8 2 -20.5 9.5l-17.5 10.5q-12 9 -25 21.5t-25 25.5t-21.5 25t-15.5 20q-18 28 -26 58.5t-8 64.5v35q2 31 9.5 60t24.5 57q6 9 16 22t22.5 26.5t25.5 25.5t25 20q29 20 66.5 32.5t74.5 12.5h473v-891h-203v342h-151q-26 -41 -55 -84.5t-58 -87.5t-57.5 -87
t-53.5 -83h-243zM272 637v-45q10 -19 28 -37.5t32 -26.5h274v172h-272q-16 -9 -34 -26.5t-28 -36.5z" />
    <glyph glyph-name="afii10071" unicode="&#x451;" horiz-adv-x="985" 
d="M272 344v-84q0 -5 1 -7q0 -2 1 -3q7 -12 17.5 -23.5t22 -21t22 -15.5t18.5 -6h199q7 0 18 6.5t22.5 15t21 17.5t14.5 15q3 3 4 5t2 3l190 -58q-8 -18 -24.5 -41t-36 -44.5t-39 -39.5t-31.5 -26q-29 -20 -69.5 -33.5t-77.5 -13.5h-193q-38 0 -78 10.5t-71 32.5
q-12 8 -26.5 21.5t-28.5 27.5t-26 27.5t-18 21.5q-20 28 -29 60.5t-9 66.5v369q0 34 9 65.5t29 59.5q6 8 18 21t26 27.5t28.5 27.5t26.5 22q31 22 71 33.5t78 11.5h189q38 0 78 -11.5t71 -33.5q12 -9 26.5 -22t28.5 -27t26 -27t18 -22q21 -29 28.5 -61.5t7.5 -63.5v-283
h-555zM623 623v5q0 5 -2 7q-10 15 -29.5 33.5t-38.5 29.5q-4 2 -12 2h-187q-8 0 -18.5 -6t-22 -15t-22 -20.5t-17.5 -23.5q-2 -4 -2 -8v-4v-97h351v97zM508 1014v211h199v-211h-199zM179 1014v211h198v-211h-198z" />
    <glyph glyph-name="afii10099" unicode="&#x452;" horiz-adv-x="997" 
d="M276 967v-121q26 18 57.5 33.5t63.5 15.5h148q37 0 77.5 -11.5t69.5 -33.5q12 -9 27 -22.5t28.5 -28t25.5 -28t18 -21.5q20 -29 28 -60t8 -65v-691q0 -34 -8 -67t-28 -62q-6 -8 -18 -21.5t-26.5 -28t-29.5 -28t-27 -22.5q-31 -22 -69.5 -32.5t-75.5 -10.5h-172v195h170
q7 0 9 1q2 0 3 1q17 11 36 29.5t30 39.5q0 2 1 4q0 2 0.5 3.5t0.5 3.5v682q0 2 -0.5 3.5t-0.5 3.5q-1 2 -1 3q-11 18 -30 37t-36 30q-2 2 -12 2h-142q-10 0 -27 -10t-36 -24.5t-36 -30t-26 -27.5v-608h-204v967h-97v180h97v78h204v-78h263v-180h-263z" />
    <glyph glyph-name="afii10100" unicode="&#x453;" horiz-adv-x="852" 
d="M702 885v-195h-407v-690h-207v885h614zM305 1055l189 243h241l-241 -299z" />
    <glyph glyph-name="afii10101" unicode="&#x454;" horiz-adv-x="975" 
d="M72 623q0 34 9.5 66.5t29.5 60.5q6 8 17.5 21t25.5 27.5t28.5 27.5t26.5 22q31 22 71 32.5t78 10.5h193q37 0 77.5 -13.5t69.5 -33.5q12 -9 31.5 -27t39 -39.5t36 -44.5t24.5 -41l-190 -57q-1 1 -2 3t-4 5l-14 14t-20.5 17.5t-22.5 15t-19 6.5h-201q-8 0 -18 -6t-21 -15
t-21 -20.5t-17 -23.5q-1 -1 -2 -3t-1 -7v-86h273v-185h-273v-90q0 -5 1 -7t2 -3q7 -12 17 -23.5t21 -21t21 -15.5t18 -6h201q8 0 19 6.5t22.5 15t20.5 17.5t14 15q3 3 4 5t2 3l190 -58q-8 -18 -24.5 -41t-36 -44.5t-39 -39.5t-31.5 -26q-29 -20 -69.5 -33.5t-77.5 -13.5
h-193q-38 0 -78 10.5t-71 32.5q-12 8 -26.5 21.5t-28.5 27.5t-25.5 27.5t-17.5 21.5q-20 28 -29.5 60.5t-9.5 66.5v365z" />
    <glyph glyph-name="afii10102" unicode="&#x455;" horiz-adv-x="961" 
d="M29 0zM225 240q5 -6 14.5 -15t21 -18t22 -15.5t18.5 -7.5h238q9 0 21.5 7.5t24 18.5t19.5 24t8 24v49q0 8 -4.5 17.5t-21.5 11.5q-27 2 -66.5 5t-84.5 6.5t-93 7t-92 7.5q-41 3 -76 18t-61 41t-41 63.5t-15 86.5v62q0 34 8.5 65.5t28.5 59.5q44 62 102 99.5t136 37.5h196
q38 0 78.5 -13.5t69.5 -33.5q15 -11 34.5 -28t38.5 -37.5t35 -43t25 -43.5l-193 -57q-1 0 -2 2q-1 1 -1.5 2.5t-2.5 3.5q-5 6 -14 15t-20.5 17.5t-22.5 14.5t-18 6h-197q-6 -1 -11 -1q-5 -1 -9 -1t-7 -2q-6 -3 -22 -16.5t-25 -30.5q-1 -1 -1 -4q-1 -3 -1 -16v-49
q0 -5 7.5 -15t23.5 -12q20 -2 57 -5.5t81.5 -7.5t92.5 -8.5t90 -9.5t78.5 -19.5t64.5 -40t44 -63t16 -88.5v-57q0 -34 -9.5 -65.5t-29.5 -59.5q-6 -9 -16.5 -22t-23 -26t-26.5 -25.5t-26 -20.5q-31 -22 -69 -33.5t-76 -11.5h-234q-37 0 -77.5 14.5t-69.5 34.5
q-15 11 -34.5 28t-38 37.5t-34.5 42.5t-24 43l190 58z" />
    <glyph glyph-name="afii10103" unicode="&#x456;" horiz-adv-x="471" 
d="M82 1010v219h219v-219h-219zM90 0v885h205v-885h-205z" />
    <glyph glyph-name="afii10104" unicode="&#x457;" horiz-adv-x="473" 
d="M0 0zM255 1015v211h199v-211h-199zM-74 1015v211h198v-211h-198zM90 -2v883h205v-883h-205z" />
    <glyph glyph-name="afii10105" unicode="&#x458;" horiz-adv-x="504" 
d="M115 1010v219h219v-219h-219zM39 -145q7 0 9 1q2 0 3 1q17 11 38 30.5t32 40.5q0 2 1 4q0 2 0.5 3.5t0.5 3.5v946h205v-951q0 -34 -8.5 -67t-28.5 -62q-6 -8 -18 -21.5t-26.5 -28t-29.5 -28t-27 -22.5q-30 -22 -69 -32.5t-76 -10.5h-172v193h166z" />
    <glyph glyph-name="afii10106" unicode="&#x459;" horiz-adv-x="1620" 
d="M907 559h283q38 0 77 -11.5t70 -33.5q12 -8 26 -21t27.5 -27t25.5 -27t18 -21q20 -28 28 -59.5t8 -65.5v-37q0 -34 -8 -65.5t-28 -59.5q-6 -8 -18 -21t-25.5 -27t-27.5 -27t-26 -21q-31 -22 -70 -33.5t-77 -11.5h-490v700h-342v-440q0 -34 -8 -67t-28 -62
q-6 -9 -18.5 -22.5t-27 -28t-30 -28t-27.5 -22.5q-31 -21 -69.5 -32t-75.5 -11h-92v193q37 1 57.5 1.5t30.5 1.5q11 1 14 1q17 11 36 29.5t30 40.5q0 1 1 3q0 2 0.5 3.5t0.5 3.5v631h755v-326zM907 184h281q1 0 7 2q2 1 5 2q17 11 35 28t29 36q0 1 1 2q0 1 0.5 2t0.5 2v33
q0 1 -0.5 2t-0.5 2q-1 1 -1 2q-11 19 -28 36.5t-34 28.5q-3 5 -14 5h-281v-183z" />
    <glyph glyph-name="afii10107" unicode="&#x45a;" horiz-adv-x="1556" 
d="M844 885v-326h282q39 0 78 -11.5t70 -33.5q12 -8 26 -21t27.5 -27t25 -27t17.5 -21q20 -28 28.5 -59.5t8.5 -65.5v-37q0 -34 -8.5 -65.5t-28.5 -59.5q-6 -8 -17.5 -21t-25 -27t-27.5 -27t-26 -21q-31 -22 -70 -33.5t-78 -11.5h-489v377h-342v-367h-207v885h207v-324h342
v324h207zM844 184h280q2 0 8 2q3 1 5 2q17 11 34.5 28t28.5 36q0 1 1 2q0 1 0.5 2t0.5 2v33q0 1 -0.5 2t-0.5 2q-1 1 -1 2q-11 19 -27.5 36.5t-33.5 28.5q-2 2 -6 3.5t-9 1.5h-280v-183z" />
    <glyph glyph-name="afii10108" unicode="&#x45b;" horiz-adv-x="997" 
d="M0 0zM276 967v-121q26 18 57.5 33.5t63.5 15.5h148q37 0 77.5 -11.5t69.5 -33.5q12 -9 27 -22.5t28.5 -28t25.5 -28t18 -21.5q20 -29 28 -60t8 -65v-625h-204v621q0 2 -0.5 3.5t-0.5 3.5q-1 2 -1 3q-11 18 -30 37t-36 30q-2 2 -12 2h-142q-10 0 -27 -10t-36 -24.5
t-36 -30t-26 -27.5v-608h-204v967h-97v180h97v78h204v-78h263v-180h-263z" />
    <glyph glyph-name="afii10109" unicode="&#x45c;" horiz-adv-x="1014" 
d="M684 0l-326 362h-65v-362h-205v885h205v-330h67q36 39 74.5 81t77.5 85t77 84.5t73 79.5h268l-393 -428l421 -457h-274zM387 1055l188 243h242l-242 -299z" />
    <glyph glyph-name="afii10110" unicode="&#x45e;" horiz-adv-x="881" 
d="M604 1221q0 -45 -17 -83.5t-45.5 -67.5t-67 -45.5t-81.5 -16.5t-82 16.5t-68.5 45.5t-47 67.5t-17.5 83.5h119q0 -20 7.5 -38t20.5 -31.5t30.5 -21.5t37.5 -8q40 0 66 29t26 70h119zM436 -332h-207l123 332h-18l-326 885h230l206 -600l209 600h217z" />
    <glyph glyph-name="afii10193" unicode="&#x45f;" horiz-adv-x="1014" 
d="M365 -193v193h-277v885h205v-690h346v690h205v-885h-279v-193h-200z" />
    <glyph glyph-name="afii10050" unicode="&#x490;" horiz-adv-x="1006" 
d="M305 1020v-1020h-215v1225h574v174h206v-379h-565z" />
    <glyph glyph-name="afii10098" unicode="&#x491;" horiz-adv-x="842" 
d="M702 698v-8h-409v-690h-205v885h418v170h199v-357h-3z" />
    <glyph glyph-name="endash" unicode="&#x2013;" horiz-adv-x="952" 
d="M72 401v193h727v-193h-727z" />
    <glyph glyph-name="emdash" unicode="&#x2014;" horiz-adv-x="1110" 
d="M72 401v191h905v-191h-905z" />
    <glyph glyph-name="quoteleft" unicode="&#x2018;" horiz-adv-x="455" 
d="M203 922h-230l183 389l198 -62z" />
    <glyph glyph-name="quoteright" unicode="&#x2019;" horiz-adv-x="455" 
d="M115 1311h229l-182 -389l-199 61z" />
    <glyph glyph-name="quotesinglbase" unicode="&#x201a;" horiz-adv-x="410" 
d="M193 -174h-230l182 389l199 -61z" />
    <glyph glyph-name="quotedblleft" unicode="&#x201c;" horiz-adv-x="791" 
d="M125 1298h229l-182 -389l-199 62zM504 1298h229l-182 -389l-199 62z" />
    <glyph glyph-name="quotedblright" unicode="&#x201d;" horiz-adv-x="778" 
d="M571 922h-229l182 389l199 -62zM193 922h-230l182 389l199 -62z" />
    <glyph glyph-name="quotedblbase" unicode="&#x201e;" horiz-adv-x="788" 
d="M571 -174h-229l182 389l199 -61zM193 -174h-230l182 389l199 -61z" />
    <glyph glyph-name="dagger" unicode="&#x2020;" horiz-adv-x="672" 
d="M451 690v-463h-205v463h-133v195h133v340h205v-340h135v-195h-135z" />
    <glyph glyph-name="daggerdbl" unicode="&#x2021;" horiz-adv-x="672" 
d="M451 690v-74h135v-194h-135v-422h-205v422h-133v194h133v74h-133v195h133v340h205v-340h135v-195h-135z" />
    <glyph glyph-name="bullet" unicode="&#x2022;" horiz-adv-x="907" 
d="M702 489q0 -73 -45 -127q-8 -9 -20.5 -21t-26 -23.5t-26 -21.5t-21.5 -15q-26 -17 -56.5 -25t-62.5 -8h-51q-32 0 -62.5 8t-56.5 25q-8 5 -21.5 15t-28 22t-28 24.5t-22.5 22.5q-23 27 -32 59.5t-9 64.5v33q0 37 12 67t31.5 55t45 46t52.5 39q28 19 57.5 26t61.5 7h51
q32 0 61.5 -7t57.5 -26q28 -18 53 -39t44 -46t30.5 -55t11.5 -67v-33z" />
    <glyph glyph-name="ellipsis" unicode="&#x2026;" horiz-adv-x="1395" 
d="M928 0v258h252v-258h-252zM557 0v258h252v-258h-252zM186 0v258h252v-258h-252z" />
    <glyph glyph-name="perthousand" unicode="&#x2030;" horiz-adv-x="2400" 
d="M588 0h-232l674 1227h234zM2226 188q0 -24 -4.5 -49.5t-21.5 -48.5q-6 -7 -15.5 -17t-20 -20.5t-21.5 -21t-19 -17.5q-25 -15 -55.5 -24.5t-59.5 -9.5h-131q-29 0 -59.5 9.5t-53.5 24.5q-9 7 -20 17.5l-22 21t-20.5 20.5t-14.5 17q-17 23 -22 48.5t-5 49.5v263
q0 24 5 49.5t22 48.5q5 7 14.5 17t20.5 20.5l22 21t20 17.5q23 15 53.5 24.5t59.5 9.5h131q29 0 59.5 -9.5t55.5 -24.5q8 -7 19 -17.5t21.5 -21t20 -20.5t15.5 -17q17 -23 21.5 -48.5t4.5 -49.5v-263zM2056 434v5t-2 5q-8 10 -21.5 23.5t-25.5 21.5q-2 2 -5 2.5t-5 0.5h-107
q-2 0 -5 -0.5t-5 -2.5q-12 -8 -25.5 -21t-21.5 -24q-2 -4 -2 -7v-3v-229v-4q0 -2 2 -6q8 -11 21.5 -24t25.5 -21q2 -2 5 -2.5t5 -0.5h107q2 0 5 0.5t5 2.5q12 8 25.5 21.5t21.5 23.5q2 2 2 5v5v229zM637 772q0 -25 -5 -50t-22 -48q-5 -7 -14.5 -17.5t-20 -21t-21.5 -20.5
t-19 -17q-25 -15 -55.5 -25t-59.5 -10h-131q-29 0 -59.5 10t-53.5 25q-9 7 -20 17t-22 20.5t-20.5 21t-15.5 17.5q-17 23 -21.5 48t-4.5 50v262q0 25 4.5 50.5t21.5 48.5q6 7 15.5 17t20.5 20.5t22 20.5t20 17q23 16 53.5 25.5t59.5 9.5h131q29 0 59.5 -9.5t55.5 -25.5
q8 -7 19 -17t21.5 -20.5t20 -20.5t14.5 -17q17 -23 22 -48.5t5 -50.5v-262zM467 1018v5t-2 5q-8 9 -21.5 23t-25.5 22q-2 2 -5 2h-5h-107h-5t-5 -2q-13 -8 -26 -21t-21 -24q-2 -4 -2 -7v-3v-230v-4q0 -2 2 -6q8 -11 21 -24t26 -21q2 -2 5 -2h5h107h5t5 2q12 8 25.5 22
t21.5 23q2 2 2 5v5v230zM1538 188q0 -24 -5 -49.5t-22 -48.5q-5 -7 -14.5 -17t-20 -20.5t-21.5 -21t-19 -17.5q-25 -15 -55.5 -24.5t-59.5 -9.5h-131q-29 0 -59.5 9.5t-53.5 24.5q-9 7 -20 17.5l-22 21t-20.5 20.5t-15.5 17q-17 23 -21.5 48.5t-4.5 49.5v263q0 24 4.5 49.5
t21.5 48.5q6 7 15.5 17t20.5 20.5l22 21t20 17.5q23 15 53.5 24.5t59.5 9.5h131q29 0 59.5 -9.5t55.5 -24.5q8 -7 19 -17.5t21.5 -21t20 -20.5t14.5 -17q17 -23 22 -48.5t5 -49.5v-263zM1368 434v5t-2 5q-8 10 -21.5 23.5t-25.5 21.5q-2 2 -5 2.5t-5 0.5h-107q-2 0 -5 -0.5
t-5 -2.5q-12 -8 -25.5 -21t-21.5 -24q-2 -4 -2 -7v-3v-229v-4q0 -2 2 -6q8 -11 21.5 -24t25.5 -21q2 -2 5 -2.5t5 -0.5h107q2 0 5 0.5t5 2.5q12 8 25.5 21.5t21.5 23.5q2 2 2 5v5v229z" />
    <glyph glyph-name="guilsinglleft" unicode="&#x2039;" horiz-adv-x="770" 
d="M406 166l-330 332l330 331l223 -65l-277 -266l281 -273z" />
    <glyph glyph-name="guilsinglright" unicode="&#x203a;" horiz-adv-x="748" 
d="M76 225l280 273l-276 266l223 65l330 -331l-330 -332z" />
    <glyph glyph-name="fraction" unicode="&#x2044;" horiz-adv-x="1327" 
 />
    <glyph glyph-name="Euro" unicode="&#x20ac;" horiz-adv-x="1184" 
d="M991 238q-12 -28 -21 -44.5t-22 -33.5q-20 -27 -47 -57t-60 -55t-71.5 -41.5t-81.5 -16.5h-256q-34 0 -68 10.5t-59 26.5q-16 9 -38 27.5t-43.5 40t-40 42.5t-27.5 35q-19 28 -26 58t-7 59v92h-68v184h68v74h-68v186h68v109q0 29 7 58t26 57q9 13 27.5 34t40 43
t43.5 41.5t38 28.5q25 14 59 25.5t68 11.5h256q43 0 81.5 -16.5t71.5 -42t60 -55.5t47 -56q13 -17 21 -32t22 -40l-209 -59q-17 22 -34 40q-14 16 -30.5 31.5t-27.5 22.5q-2 2 -4 2h-4h-242q-2 0 -3.5 -0.5t-2.5 -0.5l-2 -1q-10 -5 -22.5 -15t-25.5 -22.5t-25 -26.5t-19 -26
q-2 -3 -2 -11v-12v-88h440v-186h-440v-74h440v-184h-440v-90q0 -9 10.5 -23t25 -27.5t30.5 -25.5t28 -18q2 -2 7 -2h7h234h4.5t5.5 2q16 8 32 23t30 32q16 18 30 41z" />
    <glyph glyph-name="afii61352" unicode="&#x2116;" horiz-adv-x="1817" 
d="M729 0l-424 813v-813h-215v1225h232l419 -824v824h215v-1225h-227zM1671 772q0 -25 -4.5 -50t-21.5 -48q-6 -7 -15.5 -17.5t-20 -21t-21.5 -20.5t-19 -17q-25 -15 -55.5 -25t-59.5 -10h-131q-29 0 -59.5 10t-53.5 25q-9 7 -20 17t-22 20.5t-20.5 21t-14.5 17.5
q-17 23 -22 48t-5 50v262q0 25 5 50.5t22 48.5q5 7 14.5 17t20.5 20.5t22 20.5t20 17q23 16 53.5 25.5t59.5 9.5h131q29 0 59.5 -9.5t55.5 -25.5q8 -7 19 -17t21.5 -20.5t20 -20.5t15.5 -17q17 -23 21.5 -48.5t4.5 -50.5v-262zM1501 1018v5t-2 5q-8 9 -21.5 23t-25.5 22
q-2 2 -5 2h-5h-107h-5t-5 -2q-12 -8 -25.5 -21t-21.5 -24q-2 -4 -2 -7v-3v-230v-4q0 -2 2 -6q8 -11 21.5 -24t25.5 -21q2 -2 5 -2h5h107h5t5 2q12 8 25.5 22t21.5 23q2 2 2 5v5v230z" />
    <glyph glyph-name="trademark" unicode="&#x2122;" horiz-adv-x="1286" 
d="M926 621v272l-49 -86h-123l-35 67v-253h-189v428h-102v-428h-188v428h-150v176h649l78 -148l86 148h209v-604h-186z" />
    <glyph glyph-name="uni2126" unicode="&#x2126;" horiz-adv-x="1255" 
d="M90 934q0 29 7 58t26 57q9 13 27.5 34t40 43t43.5 41.5t38 28.5q25 14 59 25.5t68 11.5h373q34 0 68 -11.5t59 -25.5q16 -9 38 -28.5t43.5 -41.5t40.5 -43t28 -34q18 -28 25 -57t7 -58v-471q0 -29 -8 -60t-26 -59q-19 -26 -59.5 -65t-88.5 -76l-4 -2h221v-201h-469v201
q10 8 30.5 28.5t45.5 47.5t51 57t47.5 57t35 47.5t13.5 28.5v446v12t-2 11q-8 12 -19.5 26t-24 26.5t-25.5 22.5t-23 15q-2 0 -3 1q-2 0 -2.5 0.5t-2.5 0.5h-365q-2 0 -3.5 -0.5t-2.5 -0.5l-2 -1q-10 -5 -22.5 -15t-25.5 -22.5t-24.5 -26.5t-19.5 -26q-2 -3 -2 -11v-12v-446
q0 -8 13.5 -28.5t35 -47.5t47.5 -57t51 -57t45.5 -47.5t30.5 -28.5v-201h-469v201h219l-2 2q-47 37 -87.5 76t-59.5 65q-19 28 -27 59t-8 60v471z" />
    <glyph glyph-name="partialdiff" unicode="&#x2202;" horiz-adv-x="997" 
d="M625 977q-16 17 -30 30q-12 11 -24 21t-20 10h-219q1 0 -3 14.5t-10.5 35.5t-14 46.5t-14 46.5t-11 35.5t-3.5 14.5h269q37 0 74.5 -12t66.5 -33q11 -8 27.5 -23t33 -31.5t31 -32.5t21.5 -26q18 -28 27.5 -60.5t9.5 -64.5v-678q0 -66 -37 -123q-7 -10 -21.5 -26
t-31 -32.5t-33 -31.5t-27.5 -22q-29 -22 -66.5 -33.5t-74.5 -11.5h-183q-37 0 -74.5 11.5t-66.5 33.5q-11 7 -27 22t-32.5 31.5t-31 32.5t-21.5 26q-19 28 -28 60.5t-9 64.5v338q0 34 9 66.5t28 60.5q7 10 21.5 25.5t31 32t32.5 31t27 22.5q31 22 67.5 32.5t73.5 10.5h150
q17 0 38 -10.5t39 -22.5q21 -15 42 -33v129q0 3 -0.5 10.5t-5.5 12.5zM276 279q0 -14 0.5 -19t2.5 -8q7 -12 17 -24t20.5 -21.5t20.5 -16t17 -6.5h197q7 0 17.5 6.5t21.5 17t21.5 22.5t17.5 24l1 4q0 3 0.5 8.5t0.5 16.5v321q-8 13 -22.5 28t-30.5 29q-18 16 -39 31
q-8 6 -19.5 6h-13.5h-152q-7 0 -17 -6t-20.5 -16t-20.5 -22.5t-17 -24.5l-2 -4q-1 -2 -1 -9v-337z" />
    <glyph glyph-name="uni2206" unicode="&#x2206;" horiz-adv-x="1145" 
d="M-49 0l428 1225h250l426 -1225h-1104zM504 948l-252 -743h502z" />
    <glyph glyph-name="product" unicode="&#x220f;" horiz-adv-x="1145" 
d="M725 0v1020h-420v-1020h-215v1225h850v-1225h-215z" />
    <glyph glyph-name="summation" unicode="&#x2211;" horiz-adv-x="1036" 
d="M371 205h526v-205h-805v174l354 461l-358 412v178h807v-205h-524l331 -389z" />
    <glyph glyph-name="minus" unicode="&#x2212;" horiz-adv-x="963" 
d="M72 401v195h727v-195h-727z" />
    <glyph glyph-name="radical" unicode="&#x221a;" horiz-adv-x="1382" 
d="M666 -334h-217l-250 735h-215v193h358l260 -780l557 1716h115z" />
    <glyph glyph-name="infinity" unicode="&#x221e;" horiz-adv-x="1604" 
d="M362 229q-30 0 -62.5 7t-59.5 28q-10 6 -24 18t-28 26t-27 28.5t-22 25.5q-21 31 -32 71.5t-11 78.5v20q0 39 11 78t32 70q9 12 22 26.5t27 29t28 26.5t24 18q27 22 59.5 28.5t62.5 6.5h207q32 0 64 -6.5t61 -28.5q11 -6 24.5 -18.5t29.5 -28.5q14 16 28.5 28.5
t24.5 18.5q29 22 61.5 28.5t63.5 6.5h207q31 0 63 -6.5t61 -28.5q9 -6 22.5 -18t27.5 -26.5t27 -29t22 -26.5q21 -31 33 -70t12 -78v-20q0 -38 -12 -78.5t-33 -71.5q-9 -11 -22 -25.5t-27 -28.5t-27.5 -26t-22.5 -18q-29 -21 -61 -28t-63 -7h-207q-31 0 -63.5 7t-61.5 28
q-10 6 -24.5 18.5t-28.5 26.5q-16 -14 -29.5 -26.5t-24.5 -18.5q-29 -21 -61 -28t-64 -7h-207zM336 623q-6 0 -15 -7.5t-18 -18t-17 -23t-14 -21.5q-1 -1 -1 -3q-1 -2 -1 -9v-37q0 -6 6 -12q3 -7 10.5 -18.5t16.5 -22t18 -18.5t15 -9h244h5t7 2q15 9 34.5 29t30.5 39v18v20
v19q-11 18 -29 38.5t-36 31.5q-4 2 -8 2h-4h-244zM899 623q-6 0 -14.5 -7t-17 -17.5t-17 -22.5t-14.5 -21q2 -6 2 -11v-12v-20v-20q4 -7 11.5 -18.5t16.5 -22t18 -18.5t15 -9h244h4.5t7.5 2q16 9 35.5 29t30.5 39q2 4 2 10v37q0 6 -2 10q-11 18 -29 38.5t-37 31.5q-4 2 -8 2
h-4h-244z" />
    <glyph glyph-name="integral" unicode="&#x222b;" horiz-adv-x="686" 
d="M92 -143h4q4 0 8 2q17 11 35 29.5t29 39.5l1 2q0 2 0.5 3.5t0.5 5.5v1015q2 32 9.5 65t29.5 62q6 9 17.5 22t25 27.5t28.5 27.5t27 22q31 21 71.5 33t78.5 12h172v-195h-170h-9.5t-9.5 -2q-7 -4 -17.5 -11.5t-21 -16t-18 -17.5t-8.5 -16v-17v-1016q0 -34 -7.5 -67
t-27.5 -62q-6 -8 -18 -21.5t-26 -28t-29 -28t-27 -22.5q-31 -22 -70 -32.5t-76 -10.5h-172v195h170z" />
    <glyph glyph-name="approxequal" unicode="&#x2248;" horiz-adv-x="995" 
d="M645 274q-14 32 -25.5 40.5t-25.5 4.5l-227 -24q-42 -8 -84 -3t-80 24.5t-70 55t-53 89.5l194 37q14 -32 26 -40t26 -5l229 26q42 8 83.5 3t79.5 -25t70 -56t54 -90zM645 580q-14 32 -25.5 40t-25.5 5l-227 -25q-42 -8 -84 -3t-80 24.5t-70 55t-53 89.5l194 37
q14 -32 26 -40t26 -5l229 26q42 8 83.5 3t79.5 -25t70 -56t54 -90z" />
    <glyph glyph-name="notequal" unicode="&#x2260;" horiz-adv-x="995" 
d="M723 770h131v-190h-231l-64 -119h295v-189h-395l-90 -168h-236l90 168h-135v189h236l63 119h-299v190h401l84 156h234z" />
    <glyph glyph-name="lessequal" unicode="&#x2264;" horiz-adv-x="958" 
d="M330 555l473 -254v-227l-762 411v140l764 409v-225z" />
    <glyph glyph-name="greaterequal" unicode="&#x2265;" horiz-adv-x="958" 
d="M70 74v227l471 254l-473 254v225l763 -409v-140z" />
    <glyph glyph-name="lozenge" unicode="&#x25ca;" horiz-adv-x="1462" 
d="M946 580q-9 -13 -28 -35t-39 -39q-25 -20 -68 -33.5t-94 -13.5h-99v-195h-182v688h303q34 0 67.5 -11t59.5 -30q11 -7 23 -17.5t23 -22.5t20 -23.5t14 -20.5q16 -24 22.5 -50t8.5 -54v-33q0 -29 -7 -56.5t-24 -53.5zM807 725q-9 15 -25 31.5t-30 25.5h-134v-151h136
q12 6 28 23t25 34v37zM121 172q-19 28 -27 58t-8 59v647q0 26 6.5 57.5t26.5 59.5q9 13 27 33.5t39.5 42.5t43 41t37.5 28q25 16 59 25.5t66 9.5h619q32 0 66 -9.5t59 -25.5q16 -9 37.5 -28t42.5 -41t39.5 -42.5t27.5 -33.5q19 -28 27 -58t8 -59v-647q0 -26 -6.5 -57.5
t-26.5 -59.5q-9 -13 -27 -34t-39.5 -42.5t-43 -40.5t-37.5 -28q-25 -16 -59 -25.5t-66 -9.5h-619q-32 0 -66 9.5t-59 25.5q-16 9 -37.5 28t-43 40.5t-39.5 42.5t-27 34zM1114 932q0 5 -11 20t-26.5 31.5t-33 31.5t-29.5 21q-3 2 -6.5 3t-8.5 1h-596q-10 0 -18 -4
q-9 -5 -22 -14t-26.5 -21t-26 -27t-19.5 -30q-2 -4 -2 -12v-639q0 -5 11 -20t26.5 -31.5t33 -32t29.5 -21.5q3 -2 6 -3t8 -1h596q11 0 19 4q9 5 22 14.5t26.5 21.5t25.5 27t20 30q2 4 2 12v639z" />
    <glyph glyph-name="uniF8FF" unicode="&#xf8ff;" horiz-adv-x="1024" 
 />
    <glyph glyph-name="uniFB01" unicode="&#xfb01;" horiz-adv-x="1139" 
d="M438 1038h-9t-9 -2q-7 -4 -17.5 -11.5t-20.5 -16t-17.5 -17.5t-8.5 -16v-90h224v-195h-224v-690h-204v690h-138v195h138v78q0 32 7.5 65t28.5 62q6 8 18 21t25.5 27.5t28.5 27.5t27 22q31 22 71 33.5t78 11.5h193v-195h-191zM778 1010v219h219v-219h-219zM786 0v885h205
v-885h-205z" />
    <glyph glyph-name="uniFB02" unicode="&#xfb02;" horiz-adv-x="1167" 
d="M438 1038h-9t-9 -2q-7 -4 -17.5 -11.5t-20.5 -16t-17.5 -17.5t-8.5 -16v-90h224v-195h-224v-690h-204v690h-138v195h138v78q0 32 7.5 65t28.5 62q6 8 18 21t25.5 27.5t28.5 27.5t27 22q31 22 71 33.5t78 11.5h193v-195h-191zM799 0q-2 15 -6 40.5t-7 50.5q-4 29 -8 61
v1073h205v-1051l23 -174h-207z" />
    <glyph glyph-name="glyph7" horiz-adv-x="1024" 
 />
    <glyph glyph-name="glyph8" horiz-adv-x="1024" 
 />
    <glyph glyph-name="glyph12" horiz-adv-x="1024" 
 />
    <glyph glyph-name="glyph13" horiz-adv-x="422" 
 />
    <glyph glyph-name="glyph14" horiz-adv-x="457" 
 />
    <glyph glyph-name="glyph15" horiz-adv-x="612" 
 />
    <glyph glyph-name="glyph16" horiz-adv-x="682" 
 />
    <glyph glyph-name="glyph26" horiz-adv-x="1024" 
 />
    <glyph glyph-name="glyph27" horiz-adv-x="1024" 
 />
    <glyph glyph-name="glyph123" horiz-adv-x="1024" 
 />
    <glyph glyph-name="glyph473" horiz-adv-x="1817" 
d="M0 0z" />
    </font>
</defs>
</svg>
