<?xml version="1.0" standalone="no"?>
<!DOCTYPE svg PUBLIC "-//W3C//DTD SVG 1.1//EN" "http://www.w3.org/Graphics/SVG/1.1/DTD/svg11.dtd" >
<svg xmlns="http://www.w3.org/2000/svg" xmlns:xlink="http://www.w3.org/1999/xlink" version="1.1">
<metadata>
Created by FontForge 20170731 at Tue May 17 10:03:29 2016
 By Aleksey,,,
Published by Die Gestalten Verlag GmbH &#38; Co. KG, 2008
Copyright (c) by Binnenland and re-p.org, 2008. All rights reserved. This software may not be reproduced, used, displayed, modified, disclosed or transferred without the express written approval of (Binnenland). 
</metadata>
<defs>
<font id="BlenderW00-Heavy" horiz-adv-x="1057" >
  <font-face 
    font-family="BlenderW00-Heavy"
    font-weight="900"
    font-stretch="normal"
    units-per-em="2048"
    panose-1="2 0 9 6 3 0 0 1 0 4"
    ascent="1638"
    descent="-410"
    x-height="1229"
    cap-height="1229"
    bbox="-170 -426 2304 1710"
    underline-thickness="102"
    underline-position="-358"
    unicode-range="U+0020-FB02"
  />
<missing-glyph horiz-adv-x="2007" 
 />
    <glyph glyph-name=".notdef" horiz-adv-x="2007" 
 />
    <glyph glyph-name="glyph1" horiz-adv-x="944" 
 />
    <glyph glyph-name="glyph2" 
 />
    <glyph glyph-name="space" unicode=" " horiz-adv-x="492" 
 />
    <glyph glyph-name="exclam" unicode="!" horiz-adv-x="623" 
d="M141 342v889h248v-889h-248zM137 0v254h258v-254h-258z" />
    <glyph glyph-name="quotedbl" unicode="&#x22;" horiz-adv-x="836" 
d="M758 864h-244l21 187v272h243v-301zM340 864h-242l21 187v272h241v-301z" />
    <glyph glyph-name="numbersign" unicode="#" horiz-adv-x="1100" 
d="M958 631h-163q-3 -17 -7.5 -34t-7.5 -34h166l-41 -229h-166q-9 -47 -18 -95.5t-19 -95.5h-241l37 191h-70q-9 -47 -18.5 -95.5t-18.5 -95.5h-239l32 191h-164l41 229h166q3 16 6.5 34t6.5 34h-166l41 231h166q8 45 17 91t17 91h242l-35 -182h72q8 45 17.5 91t17.5 91h239
l-32 -182h165zM477 653q-5 -23 -9 -49t-9 -49h82q3 25 7 49.5t7 48.5h-78z" />
    <glyph glyph-name="dollar" unicode="$" horiz-adv-x="1202" 
d="M795 838l-6 12q-5 10 -9 16q-18 34 -43 68.5t-59 60.5h-270q-12 -6 -25 -17.5t-24.5 -23t-19 -20.5t-7.5 -10v-109q0 -6 3 -9q1 -2 3 -3l520 -141q42 -12 74 -36.5t53.5 -56.5t32 -70t10.5 -75v-117q0 -26 -7.5 -61t-27.5 -66q-10 -14 -28.5 -35.5t-40 -43.5t-43.5 -41
t-39 -29q-25 -14 -61.5 -26.5t-73.5 -12.5h-39v-232h-240v232h-37q-47 0 -87.5 17.5t-74.5 43.5t-61 56.5t-47 56.5q-13 15 -34.5 55.5t-43.5 100.5l236 75q5 -12 8.5 -21.5t5.5 -13.5q17 -35 40.5 -70t63.5 -61h303q12 6 25 18.5t24.5 25t19 22t7.5 10.5v111q0 3 -1 5l-2 4
l-3 3q-128 34 -258 69.5t-260 69.5q-43 12 -75 36.5t-53 56.5t-31.5 69.5t-10.5 75.5v113q0 27 6.5 62.5t26.5 66.5q9 13 27.5 33.5t40.5 42t44.5 41t40.5 30.5q25 14 60.5 26.5t72.5 12.5h27v217h240v-217h18q47 0 87.5 -17.5t74 -44t60.5 -56.5t46 -54q13 -16 35 -56
t45 -102z" />
    <glyph glyph-name="percent" unicode="%" horiz-adv-x="1753" 
d="M629 0h-258l676 1229h253zM1610 205q0 -26 -5 -53t-24 -52q-5 -7 -15 -17t-21 -21.5t-23 -21.5t-21 -17q-25 -17 -56.5 -27t-62.5 -10h-118q-31 0 -62.5 10t-54.5 27q-10 7 -22 17t-23.5 21.5l-21.5 21.5t-15 17q-19 25 -24 52t-5 53v274q0 26 5 53t24 52q5 7 15 17
l21.5 21.5t23.5 22t22 17.5q23 17 54.5 26.5t62.5 9.5h118q31 0 62.5 -9.5t56.5 -26.5q9 -7 21 -17.5t23 -22t21 -21.5t15 -17q19 -25 24 -52t5 -53v-274zM1407 438v5.5t-2 7.5q-8 9 -18 18t-21 18q-2 2 -5 2h-5h-68h-5t-5 -2q-11 -8 -22 -18.5t-19 -19.5q-2 -6 -2 -7v-4
v-194v-3q0 -1 2 -5q8 -10 19 -21.5t22 -17.5q2 -2 5 -2h5h68h5t5 2q9 8 21 17.5t18 18.5q2 4 2 7v4v194zM637 741q0 -26 -5 -52.5t-24 -51.5q-5 -7 -15 -17.5t-21 -21.5t-23 -21.5t-21 -17.5q-24 -17 -55.5 -27t-62.5 -10h-119q-31 0 -62.5 10t-54.5 27q-10 7 -22 17.5
t-23.5 21.5t-21.5 21.5t-15 17.5q-18 25 -23.5 51.5t-5.5 52.5v275q0 26 5.5 52.5t23.5 51.5q5 7 15 17.5t21.5 22t23.5 21.5t22 17q23 17 54.5 27t62.5 10h119q31 0 62.5 -10t55.5 -27q9 -7 21 -17t23 -21.5t21 -22t15 -17.5q19 -25 24 -51.5t5 -52.5v-275zM434 975v5.5
t-2 6.5q-15 17 -39 37q-2 2 -5 2h-5h-68h-5t-5 -2q-11 -8 -22 -19t-19 -20q-2 -4 -2 -7v-3v-195v-3q0 -1 2 -5q8 -9 19 -21t22 -18q2 -2 5 -2h5h68h5t5 2q10 8 21.5 18t17.5 19q2 4 2 6v4v195z" />
    <glyph glyph-name="ampersand" unicode="&#x26;" horiz-adv-x="1200" 
d="M991 387v-104q0 -35 -11 -70.5t-30 -62.5q-8 -11 -21.5 -27t-29.5 -32.5t-32 -31.5t-27 -22q-31 -22 -74.5 -34.5t-81.5 -12.5h-309q-38 0 -80.5 12.5t-73.5 34.5q-12 8 -27.5 22.5t-31.5 31t-29 32.5t-20 27q-20 27 -30.5 61t-10.5 72v157q0 59 23 101t50 71
q-15 16 -28 33.5t-23 38t-16 45t-6 55.5v156q0 34 11 70.5t30 64.5q7 12 21 27.5t30 31t31 29t26 21.5q31 21 70 37t84 16h182q50 0 92 -18t75.5 -44t59 -56.5t41.5 -55.5q14 -22 26 -42.5t21 -45.5l-227 -64q-13 26 -26.5 41.5t-25.5 24t-23 12.5t-19 8h-176q-2 0 -8 -5
t-14 -13.5t-16.5 -18.5t-14.5 -20v-158q5 -11 13 -21t16 -18t14.5 -13t9.5 -5h223v-231h-223q-2 0 -8 -5t-14 -12.5t-16.5 -17.5t-14.5 -19v-157q6 -9 14.5 -18.5t16.5 -17t14 -12t8 -4.5h309q3 0 10.5 4t16 11t17 16t13.5 19v335h306v-229h-56z" />
    <glyph glyph-name="quotesingle" unicode="'" horiz-adv-x="508" 
d="M338 864h-242l21 187v272h241v-301z" />
    <glyph glyph-name="parenleft" unicode="(" horiz-adv-x="727" 
d="M168 88q-25 23 -46.5 47t-33.5 41q-19 29 -27 62.5t-8 64.5v617q0 31 8 64.5t27 62.5q12 17 33.5 41t46.5 47l227 211l164 -170l-227 -215q-17 -16 -27 -28.5t-10 -14.5v-613q0 -2 10 -14.5t27 -28.5l227 -215l-164 -170z" />
    <glyph glyph-name="parenright" unicode=")" horiz-adv-x="733" 
d="M229 -123l-163 170l227 215q17 16 27 28.5t10 14.5v613q0 2 -10 14.5t-27 28.5l-227 215l163 170l228 -211q24 -23 45.5 -47t34.5 -41q18 -29 26 -62.5t8 -64.5v-617q0 -31 -8 -64.5t-26 -62.5q-13 -17 -34.5 -41t-45.5 -47z" />
    <glyph glyph-name="asterisk" unicode="*" horiz-adv-x="958" 
d="M623 901l106 -139l-190 -139l-103 143l-100 -143l-191 139l105 139l-168 51l74 226l166 -58l-5 176h236l-4 -176l168 60l74 -226z" />
    <glyph glyph-name="plus" unicode="+" horiz-adv-x="1077" 
d="M612 393v-276h-239v276h-283v234h283v280h239v-280h283v-234h-283z" />
    <glyph glyph-name="comma" unicode="," horiz-adv-x="639" 
d="M289 -170h-273l201 428l236 -72z" />
    <glyph glyph-name="hyphen" unicode="-" horiz-adv-x="782" 
d="M76 391v232h530v-232h-530z" />
    <glyph glyph-name="period" unicode="." horiz-adv-x="580" 
d="M96 0v291h289v-291h-289z" />
    <glyph glyph-name="slash" unicode="/" horiz-adv-x="895" 
d="M203 0h-271l674 1229h268z" />
    <glyph glyph-name="zero" unicode="0" 
d="M920 305q0 -32 -7.5 -65t-27.5 -62q-9 -13 -27 -34t-40 -43t-44.5 -42t-40.5 -30h2q-26 -16 -61 -27.5t-72 -11.5h-242q-38 0 -73.5 11.5t-61.5 27.5q-17 10 -39 29.5t-43.5 41.5t-39.5 43.5t-27 34.5q-20 29 -27.5 62t-7.5 65v617q0 34 7.5 67t27.5 62q9 12 27 32.5
t39.5 42.5t43.5 42t39 30q26 16 61.5 27.5t73.5 11.5h242q37 0 72 -11.5t61 -27.5h-2q18 -11 40.5 -31t44.5 -41.5t40 -42t27 -32.5q20 -29 27.5 -62t7.5 -67v-617zM670 922q-6 10 -15 21t-19 21.5t-20.5 19t-17.5 13.5h-231q-13 -9 -35.5 -30t-40.5 -47v-615
q7 -12 17 -23.5t20.5 -22t20 -18.5t16.5 -12h231q12 8 34.5 29.5t39.5 46.5v617z" />
    <glyph glyph-name="one" unicode="1" 
d="M422 0v985h-221v244h473v-1229h-252z" />
    <glyph glyph-name="two" unicode="2" 
d="M377 997q-9 -5 -21.5 -13.5t-25 -20t-23.5 -24.5t-16 -26l-240 60q13 29 25 52t26 42q19 25 46 54.5t61.5 55t75.5 43t88 17.5h235q38 0 78.5 -13.5t71.5 -35.5q11 -8 27 -22.5t32 -31t30.5 -32.5t22.5 -27q12 -16 19.5 -36t11.5 -39.5t5 -35t1 -22.5v-129
q0 -42 -12.5 -78.5t-34.5 -66.5t-50.5 -52.5t-59.5 -37.5q-104 -51 -207.5 -101.5t-206.5 -101.5q-8 -5 -13.5 -8t-5.5 -11v-116h574v-240h-823v362q0 40 12.5 75.5t34 64.5t50.5 52.5t62 39.5q104 51 209.5 102.5t208.5 102.5q12 6 12 20v127q-11 20 -27.5 35.5t-21.5 15.5
h-231z" />
    <glyph glyph-name="three" unicode="3" 
d="M909 287q0 -35 -9.5 -70.5t-29.5 -64.5q-7 -10 -20.5 -26t-30 -33t-33 -32.5t-28.5 -23.5q-31 -22 -71.5 -34.5t-78.5 -12.5h-235q-46 0 -87 17t-75.5 42.5t-62 56t-46.5 56.5q-14 18 -27 43t-24 51l244 66q17 -41 41 -62t41 -31h229q5 0 22 16t31 38v168q-5 10 -13 20
t-16 17t-14.5 11.5t-9.5 4.5h-276v233h278q5 0 22 16t29 38v151q-14 22 -31 38.5t-22 16.5h-229q-12 -5 -24.5 -14.5t-24.5 -20.5t-22 -24t-15 -25l-10.5 2t-27 6.5t-38.5 9.5t-44 11q-53 13 -120 31q9 26 22.5 50t28.5 44q19 25 46.5 54.5t61.5 55t75 43t88 17.5h235
q38 0 78.5 -13.5t71.5 -35.5q11 -8 27 -22.5t32 -31t30.5 -32.5t22.5 -27q22 -28 30.5 -63.5t8.5 -69.5v-154q0 -29 -6.5 -53.5t-16.5 -45t-22.5 -37.5t-25.5 -31q13 -15 25.5 -33t22.5 -39t16.5 -45.5t6.5 -54.5v-162z" />
    <glyph glyph-name="four" unicode="4" 
d="M782 238v-238h-252v238h-530v190l514 801h268v-752h142v-239h-142zM530 842q-57 -88 -116.5 -182.5t-118.5 -182.5h235v365z" />
    <glyph glyph-name="five" unicode="5" 
d="M907 287q0 -34 -10 -70t-29 -65q-8 -12 -22 -28.5t-30 -33t-31 -31.5t-25 -22q-32 -23 -75 -35t-83 -12h-237q-46 0 -87 16.5t-75.5 42t-62.5 56t-48 57.5q-9 12 -22 35.5t-25 58.5l244 66q17 -41 40.5 -61t39.5 -30h235q14 10 29 25t24 29v207q-9 15 -27 30.5t-32 26.5
h-506v680h758v-242h-506v-199h258q42 0 84 -13t74 -36q10 -8 25 -21t30.5 -28.5t30 -31t22.5 -27.5q19 -28 29 -64t10 -71v-209z" />
    <glyph glyph-name="six" unicode="6" 
d="M41 940q0 35 9.5 70.5t29.5 64.5q7 10 20.5 26t30 33t33.5 32t29 24q30 22 70.5 34.5t78.5 12.5h236q46 0 87 -17t76 -42.5t62 -55.5t45 -57q12 -19 25.5 -42t25.5 -52l-242 -66q-17 38 -40.5 61t-45.5 31h-227q-5 0 -22 -15.5t-31 -35.5v-176l6 4l6 4q19 11 40 21t40 10
h219q40 0 79 -11t71 -34q10 -8 26.5 -22.5t33 -31t31 -32.5t21.5 -27q20 -29 29.5 -63.5t9.5 -69.5v-233q0 -34 -10 -70t-29 -63q-7 -11 -21 -26.5t-30.5 -32t-33 -31t-27.5 -23.5q-31 -22 -71.5 -35.5t-78.5 -13.5h-260q-38 0 -78.5 13.5t-70.5 35.5q-12 8 -28.5 22.5
t-33 31t-30.5 32.5t-21 27q-20 27 -29.5 61.5t-9.5 69.5v657zM291 283q5 -10 13 -20t16.5 -17.5t15 -12t8.5 -4.5h258q2 0 8 4t13.5 11t15.5 16t14 19v237q-5 10 -13.5 20t-16.5 17.5t-15 12.5t-10 5h-229q-3 0 -11 -0.5t-14 -3.5q-9 -8 -25 -22.5t-28 -34.5v-227z" />
    <glyph glyph-name="seven" unicode="7" 
d="M414 0h-285l498 989h-549v240h844v-189z" />
    <glyph glyph-name="eight" unicode="8" 
d="M909 287q0 -35 -9.5 -70.5t-29.5 -64.5q-7 -10 -20.5 -26t-30 -33t-33 -32.5t-28.5 -23.5q-31 -22 -71.5 -34.5t-78.5 -12.5h-258q-40 0 -79 12t-70 35q-10 7 -26 22t-32.5 31.5t-31.5 33t-23 28.5q-19 29 -29 65t-10 70v164q0 58 22 100.5t50 71.5q-28 31 -50 69.5
t-22 98.5v151q0 34 10 69.5t29 63.5q7 11 21 26.5t30.5 31.5t33 31t28.5 24q31 22 71 35.5t78 13.5h258q38 0 78.5 -13.5t71.5 -35.5q11 -8 27 -22.5t32 -31t30.5 -32.5t22.5 -27q19 -28 29 -63.5t10 -69.5v-151q0 -29 -6.5 -53.5t-16.5 -45t-22.5 -37.5t-25.5 -32
q13 -15 25.5 -33t22.5 -39t16.5 -45.5t6.5 -54.5v-164zM659 446q-6 12 -14 22t-15.5 17.5t-13.5 12t-8 4.5h-258q-2 0 -8 -4.5t-13.5 -12t-15.5 -17.5t-14 -22v-163q6 -11 14 -20.5t16 -17t14.5 -12t8.5 -4.5h254q2 0 8.5 4.5t15 11.5t16.5 16.5t13 19.5v165zM659 944
q-14 22 -31 37.5t-22 15.5h-254q-2 0 -8.5 -4t-15 -11t-16.5 -16.5t-13 -19.5v-158q11 -23 28.5 -38t22.5 -15h258q5 0 22.5 16t28.5 37v156z" />
    <glyph glyph-name="nine" unicode="9" 
d="M903 287q0 -35 -9.5 -70.5t-29.5 -64.5q-7 -10 -20.5 -26t-30 -33t-33 -32.5t-28.5 -23.5q-31 -22 -71.5 -34.5t-78.5 -12.5h-235q-46 0 -87.5 16.5t-76.5 42t-62 56t-45 57.5q-12 18 -25.5 41.5t-25.5 52.5l242 66q17 -39 40.5 -62t45.5 -31h227q5 0 22 16t31 36v176
l-6 -4l-6 -4q-19 -11 -40 -21t-40 -10h-219q-40 0 -78.5 11t-70.5 34q-11 7 -27.5 21.5t-33 31t-31 32.5t-21.5 27q-20 29 -29.5 64t-9.5 70v233q0 34 10 69.5t29 63.5q7 11 21 26.5t30.5 31.5t33 31t28.5 24q30 22 70.5 35.5t78.5 13.5h260q38 0 78.5 -13.5t71.5 -35.5
q11 -9 27.5 -23.5t33 -31t30.5 -32t21 -26.5q20 -28 29.5 -62t9.5 -69v-657zM653 944q-5 10 -13 19.5t-16.5 17t-15 12t-8.5 4.5h-258q-2 0 -8 -4t-13.5 -10.5t-15.5 -15.5t-14 -19v-237q5 -10 13 -20t16.5 -18t15.5 -13t10 -5h229q4 0 11.5 0.5t13.5 3.5q9 8 25 23t28 35
v227z" />
    <glyph glyph-name="colon" unicode=":" horiz-adv-x="616" 
d="M104 504v297h293v-297h-293zM104 0v297h293v-297h-293z" />
    <glyph glyph-name="semicolon" unicode=";" horiz-adv-x="631" 
d="M279 -164h-273l199 457l235 -76zM113 502v301h293v-301h-293z" />
    <glyph glyph-name="less" unicode="&#x3c;" horiz-adv-x="1473" 
d="M438 494q130 -124 261 -248l262 -248h-343l-638 614l638 619h343l-527 -498h879v-239h-875z" />
    <glyph glyph-name="equal" unicode="=" horiz-adv-x="1022" 
d="M61 578v223h789v-223h-789zM61 270v224h789v-224h-789z" />
    <glyph glyph-name="greater" unicode="&#x3e;" horiz-adv-x="1473" 
d="M743 -2h-340l521 496h-873v239h877q-131 125 -264 250.5t-263 247.5h342l641 -619z" />
    <glyph glyph-name="question" unicode="?" horiz-adv-x="1026" 
d="M895 815q0 -41 -13 -74.5t-34.5 -60t-50.5 -47t-60 -35.5l-28 -12q-17 -7 -37.5 -19t-38 -25t-29.5 -25.5t-12 -20.5v-148h-248v156q0 53 21 95t54.5 75t74.5 57.5t81 42.5q29 14 49.5 24.5t20.5 22.5v103q-5 16 -13.5 29.5t-17.5 23t-16.5 15t-9.5 5.5h-230
q-10 -5 -21 -10t-22 -14t-22.5 -24t-22.5 -38l-237 64q8 23 22.5 49t26.5 43q18 25 45 54.5t61 55t75 43t87 17.5h236q40 0 80 -13t71 -36q10 -8 26.5 -22.5t33.5 -31t32.5 -32.5t24.5 -27q19 -25 30 -63t11 -72v-125zM338 0v254h260v-254h-260z" />
    <glyph glyph-name="at" unicode="@" horiz-adv-x="1393" 
d="M266 -291q-18 9 -40.5 29t-44.5 42t-40.5 43.5t-27.5 33.5q-20 31 -27.5 62.5t-7.5 62.5v944q0 31 7.5 63.5t27.5 61.5q9 12 27.5 33t40.5 43.5t44.5 42.5t40.5 30q26 16 62 26.5t71 10.5h488q34 0 70.5 -11.5t62.5 -27.5q18 -9 40.5 -28.5t44 -42t40.5 -43.5t29 -33
q21 -28 27.5 -61t6.5 -64v-729q1 -22 4 -47.5t5.5 -52t5 -51.5t4.5 -46h-244l-4 25q-23 -14 -51.5 -24.5t-57.5 -10.5h-102q-40 0 -85 12.5t-73 34.5q-12 9 -26.5 22.5t-28.5 28t-26 28t-19 23.5q-22 32 -31.5 65t-9.5 70v316q0 35 9.5 70.5t31.5 64.5q5 9 16.5 22.5
t25.5 28t29.5 28t28.5 21.5q32 20 75 32.5t83 12.5h102q23 0 48.5 -6.5t44.5 -17.5v74v1q0 1 -2 3q-7 12 -18.5 25.5t-24 25.5t-23.5 21.5t-18 13.5h-467q-7 -4 -18.5 -13.5t-23.5 -22t-24 -26t-20 -26.5v-938l2 -2q7 -12 18 -25t23.5 -24.5t24 -20.5t18.5 -12zM963 590
q-10 12 -24.5 22t-29 18t-27 12.5t-18.5 4.5h-96q-11 -6 -27.5 -24.5t-27.5 -36.5v-310q11 -15 27 -34t28 -27h96q6 0 19 5t27.5 13t29 18t23.5 21v318z" />
    <glyph glyph-name="A" unicode="A" horiz-adv-x="1188" 
d="M838 0l-82 236h-428q-20 -57 -42 -118t-42 -118h-267l426 1229h277l424 -1229h-266zM541 870q-34 -99 -68.5 -197.5t-69.5 -197.5h277z" />
    <glyph glyph-name="B" unicode="B" horiz-adv-x="1133" 
d="M975 293q0 -35 -8.5 -69.5t-28.5 -63.5q-7 -10 -20.5 -26t-29 -32.5t-31.5 -31t-28 -23.5q-31 -22 -74 -34.5t-81 -12.5h-598v1229h598q42 0 83 -14t72 -35q12 -9 28 -23.5t31.5 -31t29 -32t20.5 -24.5q22 -32 29.5 -68.5t7.5 -68.5v-148q0 -60 -20 -100.5t-48 -71.5
q29 -32 48.5 -71.5t19.5 -100.5v-147zM725 442q-14 23 -32 40.5t-23 17.5h-344v-260h346q2 0 8.5 4t14.5 11.5t16 17t14 20.5v149zM725 932q-14 23 -32 40t-23 17h-344v-258h346q2 0 8.5 4.5t15 12t16.5 16.5t13 18v150z" />
    <glyph glyph-name="C" unicode="C" horiz-adv-x="1137" 
d="M768 868q-10 21 -20 38.5t-22.5 32.5t-28.5 29t-38 29h-256q-8 -5 -18.5 -14.5t-22 -21t-21.5 -23.5t-17 -23v-610q0 -1 5.5 -9t15.5 -19t25 -24t33 -24h261q32 22 57 53.5t47 69.5l233 -57q-14 -38 -31.5 -70.5t-37.5 -60.5q-18 -26 -45 -56.5t-61.5 -56.5t-76 -43.5
t-87.5 -17.5h-269q-37 0 -73 11.5t-62 27.5q-16 10 -37.5 28.5t-42.5 40t-40 42.5t-29 36q-19 29 -27 62.5t-8 64.5v621q0 34 7.5 66t27.5 61q9 12 27 32.5t40 42t44 41.5t40 31q25 14 60.5 26.5t72.5 12.5h269q46 0 87 -17.5t75 -43t61 -56t45 -55.5q25 -34 41 -66.5
t28 -64.5z" />
    <glyph glyph-name="D" unicode="D" horiz-adv-x="1155" 
d="M987 309q0 -28 -7 -62t-26 -63q-11 -15 -29.5 -36t-40 -42t-43 -39t-38.5 -28q-26 -14 -61 -26.5t-70 -12.5h-596v1229h596q32 0 69 -9t66 -28q17 -11 38.5 -31t42 -42.5t38 -43.5t26.5 -33q22 -31 28.5 -63t6.5 -64v-606zM737 905q-14 34 -33 52t-42 32h-336v-749h336
q21 12 40.5 30t34.5 47v588z" />
    <glyph glyph-name="E" unicode="E" 
d="M76 0v1229h807v-240h-557v-252h538v-239h-538v-258h557v-240h-807z" />
    <glyph glyph-name="F" unicode="F" horiz-adv-x="1036" 
d="M326 989v-252h528v-239h-528v-498h-250v1229h807v-240h-557z" />
    <glyph glyph-name="G" unicode="G" horiz-adv-x="1214" 
d="M260 1200q26 16 62 26.5t73 10.5h312q46 0 87 -17.5t75 -43t61 -56t45 -55.5q25 -34 41 -66.5t28 -64.5l-231 -66q-10 21 -20 38.5t-22.5 32.5t-28.5 29t-37 29h-299q-7 -5 -17.5 -13t-21.5 -18.5t-22 -22.5t-19 -25v-621q0 -4 7 -12.5t18.5 -19t24.5 -20.5t25 -16h299
q12 6 25.5 16t25 21.5t19.5 21.5t8 15v184h-280v234h530v-461q0 -18 4 -48.5t10 -68.5l25 -145h-248l-8 37q-5 -2 -13.5 -7.5t-13.5 -9.5q-18 -11 -37 -19.5t-42 -8.5h-310q-38 0 -73.5 11.5t-61.5 27.5q-16 10 -37.5 28t-42.5 39t-40 42t-29 36q-19 29 -27 62.5t-8 64.5
v623q0 34 7.5 67t27.5 62q9 12 27 33t39.5 43t43.5 41.5t39 29.5z" />
    <glyph glyph-name="H" unicode="H" horiz-adv-x="1161" 
d="M735 0v496h-409v-496h-250v1229h250v-494h409v494h250v-1229h-250z" />
    <glyph glyph-name="I" unicode="I" horiz-adv-x="522" 
d="M84 0v1229h252v-1229h-252z" />
    <glyph glyph-name="J" unicode="J" horiz-adv-x="952" 
d="M389 -10h-74q-47 0 -88 17.5t-75.5 43.5t-61.5 56.5t-45 56.5q-20 28 -38 60.5t-32 70.5l234 57q22 -38 47 -69.5t57 -53.5h148q6 0 18.5 9.5t25.5 21.5t22.5 23.5t9.5 15.5v930h249v-928q0 -32 -9 -65t-29 -62q-9 -13 -26.5 -34t-38.5 -43t-42.5 -41t-38.5 -29
q-28 -16 -63 -27.5t-72 -11.5h-78v2z" />
    <glyph glyph-name="K" unicode="K" horiz-adv-x="1077" 
d="M713 0l-367 508h-20v-508h-250v1229h250v-500h20q1 0 18 21.5t43 56.5t59 80t67 92l182 250h295l-453 -606q1 -1 21.5 -28.5t53 -71t73.5 -99.5t84 -114q100 -136 227 -310h-303z" />
    <glyph glyph-name="L" unicode="L" horiz-adv-x="961" 
d="M76 0v1229h250v-987h544v-242h-794z" />
    <glyph glyph-name="M" unicode="M" horiz-adv-x="1346" 
d="M913 0v739q-52 -112 -106 -223.5t-107 -222.5h-163l-211 444v-737h-250v1229h272l275 -557q68 139 135 279.5t135 277.5h270v-1229h-250z" />
    <glyph glyph-name="N" unicode="N" horiz-adv-x="1153" 
d="M723 0l-397 723v-723h-250v1229h256l393 -733v733h250v-1229h-252z" />
    <glyph glyph-name="O" unicode="O" horiz-adv-x="1190" 
d="M1022 305q0 -32 -7.5 -65t-27.5 -62q-10 -13 -28 -34.5t-39.5 -43.5t-43 -41.5t-38.5 -29.5q-26 -16 -62 -27.5t-74 -11.5h-311q-38 0 -73.5 11.5t-61.5 27.5q-17 10 -39 29.5t-43.5 41.5t-40 43.5t-27.5 34.5q-20 29 -27 62t-7 65v617q0 34 7 67t27 62q9 12 27.5 32.5
t40 42.5t43.5 42t39 30q26 16 61.5 27.5t73.5 11.5h311q38 0 74 -11.5t62 -27.5q17 -10 38.5 -30t43 -42t39.5 -42.5t28 -32.5q20 -29 27.5 -62t7.5 -67v-617zM772 922q-5 9 -14.5 20t-20 22t-21 19.5t-18.5 13.5h-301q-12 -9 -34.5 -30t-40.5 -47v-615q8 -12 18.5 -23.5
t20.5 -22t19 -18.5t15 -12h301q13 10 36 32t40 44v617z" />
    <glyph glyph-name="P" unicode="P" horiz-adv-x="1094" 
d="M977 760q0 -37 -9.5 -70.5t-29.5 -62.5q-7 -11 -21 -26.5t-30.5 -32t-32.5 -30.5t-27 -22q-34 -25 -73.5 -36t-79.5 -11h-348v-469h-250v1229h598q38 0 81 -13t72 -34q11 -9 27 -24t32 -31.5t30 -32t22 -25.5q20 -28 29.5 -64.5t9.5 -70.5v-174zM727 940q-8 12 -23 26.5
t-30 22.5h-348v-280h348q2 0 9 4.5t15 12t16 16t13 16.5v182z" />
    <glyph glyph-name="Q" unicode="Q" horiz-adv-x="1202" 
d="M1034 305q0 -32 -7.5 -65t-27.5 -62q-10 -13 -28 -34t-39.5 -43t-43 -42t-38.5 -30q-4 0 -6 -2q-11 -7 -24 -12.5t-25 -10.5q20 -46 39.5 -93t39.5 -93h-268l-71 172h-142q-38 0 -73.5 11.5t-61.5 27.5q-17 10 -39 29.5t-43.5 41.5t-39.5 43.5t-27 34.5q-20 29 -27.5 62
t-7.5 65v617q0 34 7.5 67t27.5 62q9 12 27 32.5t39.5 42.5t43.5 42t39 30q26 16 61.5 27.5t73.5 11.5h322q37 0 73 -11.5t62 -27.5q17 -10 38.5 -30t43 -42t39.5 -42.5t28 -32.5q20 -29 27.5 -62t7.5 -67v-617zM784 922q-5 9 -14.5 20t-20 22t-21 19.5t-17.5 13.5h-312
q-12 -9 -34.5 -30t-40.5 -47v-613q7 -12 17.5 -23.5t21 -21.5t20 -18t16.5 -13h35q-2 4 -3 9t-3 8l231 78l39 -95h11q6 5 15.5 13.5t20 19t21 21.5t18.5 22v615z" />
    <glyph glyph-name="R" unicode="R" horiz-adv-x="1157" 
d="M977 760q0 -37 -9.5 -70.5t-29.5 -62.5q-7 -11 -21 -26.5t-30.5 -32t-32.5 -30.5t-27 -22q-12 -9 -24 -15.5t-25 -13.5q19 -35 40.5 -74t43.5 -80t44.5 -81.5t42.5 -77.5q48 -87 95 -174h-278l-244 469h-196v-469h-250v1229h598q38 0 81 -13t72 -34q11 -9 27 -24
t32 -31.5t30 -32t22 -25.5q20 -28 29.5 -64.5t9.5 -70.5v-174zM727 940q-8 12 -23 26.5t-30 22.5h-348v-280h348q2 0 9 4.5t15 12t16 16t13 16.5v182z" />
    <glyph glyph-name="S" unicode="S" horiz-adv-x="1157" 
d="M395 997q-12 -6 -25.5 -17.5t-25 -23t-18.5 -20.5t-7 -10v-109q0 -6 3 -9q2 -2 4 -3l520 -141q42 -12 74 -36.5t53 -56.5t32 -70t11 -75v-121q0 -25 -8.5 -60.5t-28.5 -66.5q-10 -15 -28.5 -36.5t-40.5 -43t-43.5 -40.5t-37.5 -29q-24 -14 -61 -26.5t-74 -12.5h-313
q-47 0 -88 17.5t-75.5 43.5t-61.5 56.5t-45 56.5q-20 28 -38 60.5t-32 70.5l231 72q22 -39 48.5 -77.5t58.5 -60.5h311q12 6 25 17.5t24 23t18 20t7 9.5v121q0 4 -1 6l-2 4q-2 2 -3 2q-128 34 -258 69.5t-260 69.5q-43 12 -75 36.5t-53 56.5t-31.5 69.5t-10.5 75.5v113
q0 27 6 62.5t26 66.5q9 13 28 33.5t41 42t44.5 41t40.5 30.5q25 14 60.5 26.5t72.5 12.5h291q47 0 88 -17.5t74.5 -43t60.5 -56t45 -55.5q25 -34 41 -66.5t29 -64.5l-232 -66q-10 21 -20 38.5t-22.5 32.5t-28.5 29t-37 29h-283z" />
    <glyph glyph-name="T" unicode="T" horiz-adv-x="1047" 
d="M600 989v-989h-252v989h-332v240h914v-240h-330z" />
    <glyph glyph-name="U" unicode="U" horiz-adv-x="1174" 
d="M1006 305q0 -32 -7.5 -65t-27.5 -62q-9 -13 -27 -34.5t-39.5 -43.5t-43 -41.5t-38.5 -29.5q-28 -16 -63 -27.5t-72 -11.5h-293q-38 0 -73.5 11.5t-61.5 27.5q-17 10 -39 29.5t-43.5 41.5t-39.5 43.5t-27 34.5q-20 29 -27.5 62t-7.5 65v924h250v-922q9 -12 19.5 -24
t21 -22.5t19.5 -19t15 -12.5h281q12 8 34.5 29.5t39.5 46.5v924h250v-924z" />
    <glyph glyph-name="V" unicode="V" horiz-adv-x="1143" 
d="M647 0h-276l-394 1229h265l266 -879q77 245 137 439q25 82 49.5 161.5t43 141t28.5 99.5t8 38h264z" />
    <glyph glyph-name="W" unicode="W" horiz-adv-x="1520" 
d="M1163 0h-268l-178 719q-44 -180 -88.5 -359.5t-87.5 -359.5h-269l-280 1229h258l162 -758q43 189 88.5 380t89.5 378h254l178 -758q40 189 79.5 380t80.5 378h266z" />
    <glyph glyph-name="X" unicode="X" horiz-adv-x="1077" 
d="M633 625l373 -625h-279l-231 399l-232 -399h-278l370 625l-356 604h279l217 -379l219 379h276z" />
    <glyph glyph-name="Y" unicode="Y" horiz-adv-x="1077" 
d="M602 532v-532h-252v532l-411 697h282l256 -432l260 432h283z" />
    <glyph glyph-name="Z" unicode="Z" horiz-adv-x="1032" 
d="M68 0v182l526 807h-518v240h844v-185l-521 -804h521v-240h-852z" />
    <glyph glyph-name="bracketleft" unicode="[" horiz-adv-x="692" 
d="M78 0v1229h436v-232h-188v-766h188v-231h-436z" />
    <glyph glyph-name="backslash" unicode="\" horiz-adv-x="920" 
d="M662 0l-672 1229h278l674 -1229h-280z" />
    <glyph glyph-name="bracketright" unicode="]" horiz-adv-x="692" 
d="M74 0v231h186v766h-186v232h434v-1229h-434z" />
    <glyph glyph-name="asciicircum" unicode="^" horiz-adv-x="758" 
d="M203 1229h239l232 -654h-221l-129 394l-127 -394h-217z" />
    <glyph glyph-name="underscore" unicode="_" horiz-adv-x="985" 
d="M41 0v238h821v-238h-821z" />
    <glyph glyph-name="grave" unicode="`" horiz-adv-x="838" 
d="M389 1352l-215 278h266l191 -278h-242z" />
    <glyph glyph-name="a" unicode="a" horiz-adv-x="1167" 
d="M817 0l-82 236h-428q-20 -57 -42 -118t-42 -118h-266l426 1229h276l424 -1229h-266zM520 870q-34 -99 -68.5 -197.5t-68.5 -197.5h276z" />
    <glyph glyph-name="b" unicode="b" horiz-adv-x="1112" 
d="M954 293q0 -35 -8 -69.5t-28 -63.5q-7 -10 -20.5 -26t-29.5 -32.5t-31.5 -31t-27.5 -23.5q-31 -22 -74 -34.5t-82 -12.5h-577v1229h577q42 0 83.5 -14t72.5 -35q12 -9 27.5 -23.5t31.5 -31t29.5 -32t20.5 -24.5q21 -32 28.5 -68.5t7.5 -68.5v-148q0 -60 -19.5 -100.5
t-47.5 -71.5q29 -32 48 -71.5t19 -100.5v-147zM705 442q-7 12 -16 22.5t-17 18.5t-14.5 12.5t-8.5 4.5h-323v-260h325q5 0 23 15.5t31 37.5v149zM705 932q-7 12 -16 22t-17 18t-14.5 12.5t-8.5 4.5h-323v-258h325q2 0 8.5 4.5t15 12t16.5 16.5t14 18v150z" />
    <glyph glyph-name="c" unicode="c" horiz-adv-x="1087" 
d="M963 254q-11 -25 -25 -49.5t-27 -42.5q-18 -27 -45 -57.5t-61.5 -56t-75.5 -42t-86 -16.5h-235q-41 0 -79 8.5t-69 30.5q-16 10 -37.5 28.5t-42.5 40t-40 42.5t-29 36q-19 29 -27 62.5t-8 64.5v615q0 34 7.5 65.5t27.5 60.5q7 10 25.5 30.5t41 42.5t44.5 42t34 29
q31 22 72 35.5t82 13.5h233q46 0 87 -17.5t75 -43t61 -55t45 -54.5q8 -11 23.5 -37.5t26.5 -54.5l-240 -66q-23 45 -44.5 62t-41.5 26h-223q-8 -5 -20 -15.5t-24.5 -23t-23.5 -25.5t-18 -24v-610q0 -2 7 -10t18.5 -18.5t26.5 -22t32 -19.5h227q20 8 42.5 31t41.5 62l240 -66
z" />
    <glyph glyph-name="d" unicode="d" horiz-adv-x="1147" 
d="M977 309q0 -28 -7 -62t-26 -63q-11 -15 -29.5 -36t-40 -42t-43 -39t-38.5 -28q-26 -14 -61 -26.5t-70 -12.5h-586v1229h586q32 0 69 -9t66 -28q17 -11 38.5 -31t42 -42.5t38 -43.5t26.5 -33q22 -31 28.5 -63t6.5 -64v-606zM727 905q-14 34 -33.5 52t-42.5 32h-325v-749
h325q22 12 41.5 30t34.5 47v588z" />
    <glyph glyph-name="e" unicode="e" horiz-adv-x="1036" 
d="M76 0v1229h786v-240h-536v-254h518v-239h-518v-256h536v-240h-786z" />
    <glyph glyph-name="f" unicode="f" horiz-adv-x="1016" 
d="M326 989v-254h508v-239h-508v-496h-250v1229h786v-240h-536z" />
    <glyph glyph-name="g" unicode="g" horiz-adv-x="1178" 
d="M784 0l-10 53q-11 -10 -23.5 -21t-26 -20.5t-27.5 -15.5t-27 -6h-273q-38 0 -73.5 11.5t-61.5 27.5q-16 10 -37.5 28t-42.5 39t-40 42t-29 36q-19 29 -27 62.5t-8 64.5v625q0 34 7.5 67t27.5 62q9 12 24.5 31t34 38.5t38 37.5t36.5 28q31 20 72 34.5t79 14.5h287
q46 0 87 -17.5t75 -43t61 -55t45 -54.5q14 -19 27.5 -43t24.5 -49l-242 -66q-23 45 -44.5 62t-41.5 26h-270q-13 -9 -37 -30t-41 -45v-627q0 -2 6 -9.5t16 -18t24 -21.5t29 -19h254q10 6 24 16t26.5 20.5t21 20.5t8.5 17v184h-186v234h436v-459q0 -17 2 -37.5t8 -52.5
q2 -14 8 -42.5t11 -57.5q6 -33 14 -72h-246z" />
    <glyph glyph-name="h" unicode="h" horiz-adv-x="1149" 
d="M715 0v492h-389v-492h-250v1229h250v-498h389v498h250v-1229h-250z" />
    <glyph glyph-name="i" unicode="i" horiz-adv-x="522" 
d="M84 0v1229h252v-1229h-252z" />
    <glyph glyph-name="j" unicode="j" horiz-adv-x="926" 
d="M760 303q0 -32 -8 -65t-27 -62q-9 -13 -27 -33.5t-39.5 -42.5t-44 -41.5t-41.5 -29.5h2q-26 -16 -60.5 -27.5t-72.5 -11.5h-147q-47 0 -88 17t-76 43t-63 56.5t-48 57.5q-8 11 -17 32.5t-23 59.5l239 66q19 -42 38.5 -62.5t35.5 -30.5h143q1 0 9 5t19.5 14.5t24 22.5
t21.5 28v930h250v-926z" />
    <glyph glyph-name="k" unicode="k" horiz-adv-x="1077" 
d="M713 0l-367 508h-20v-508h-250v1229h250v-500h20q1 0 18 21.5t43 56.5t59 80t67 92l182 250h295l-453 -606q1 -1 21.5 -28.5t53 -71t73.5 -99.5t84 -114q100 -136 227 -310h-303z" />
    <glyph glyph-name="l" unicode="l" horiz-adv-x="961" 
d="M76 0v1229h250v-989h524v-240h-774z" />
    <glyph glyph-name="m" unicode="m" horiz-adv-x="1346" 
d="M913 0v739q-52 -112 -106 -223.5t-107 -222.5h-163l-211 444v-737h-250v1229h272l275 -557q68 139 135 279.5t135 277.5h270v-1229h-250z" />
    <glyph glyph-name="n" unicode="n" horiz-adv-x="1153" 
d="M723 0l-397 723v-723h-250v1229h256l393 -733v733h250v-1229h-252z" />
    <glyph glyph-name="o" unicode="o" horiz-adv-x="1161" 
d="M991 305q0 -31 -8.5 -64.5t-28.5 -62.5q-10 -14 -28 -35.5t-39 -43.5t-42.5 -41t-37.5 -29q-26 -16 -62 -27.5t-73 -11.5h-279q-38 0 -73.5 11.5t-61.5 27.5q-17 10 -39 29.5t-43.5 41.5t-39.5 43.5t-27 34.5q-20 29 -27.5 62t-7.5 65v617q0 34 7.5 67t27.5 62
q9 12 27 32.5t39.5 42.5t43.5 42t39 30q26 16 61.5 27.5t73.5 11.5h279q35 0 72 -11.5t63 -27.5q16 -10 37 -29.5t42 -41.5t39 -42.5t29 -33.5q20 -29 28.5 -63t8.5 -66v-617zM739 922q-5 10 -14 21t-19 21.5t-20.5 19t-17.5 13.5h-269q-12 -9 -34.5 -30t-40.5 -47v-613
q8 -12 18.5 -23.5t20.5 -22t19 -18.5t15 -12h269q6 4 15 12t19 18t20.5 22t18.5 24v615z" />
    <glyph glyph-name="p" unicode="p" horiz-adv-x="1073" 
d="M956 760q0 -76 -38 -133q-7 -11 -21 -26.5t-30.5 -32t-32.5 -30.5t-27 -22q-34 -25 -73.5 -36t-80.5 -11h-327v-469h-250v1229h577q39 0 82 -13t72 -34q11 -9 26.5 -24t32 -31.5t30.5 -32t22 -25.5q20 -28 29 -64.5t9 -70.5v-174zM707 940q-8 12 -23 26.5t-31 22.5h-327
v-280h327q2 0 9 4.5t15.5 12t16.5 16t13 16.5v182z" />
    <glyph glyph-name="q" unicode="q" horiz-adv-x="1182" 
d="M1016 305q0 -31 -8.5 -64.5t-28.5 -62.5q-10 -14 -28.5 -35t-39.5 -43t-42.5 -41.5t-37.5 -29.5h-1q-1 0 -3 -2q-12 -7 -26 -12.5t-27 -10.5q20 -45 41 -93t41 -93h-268l-72 172h-121q-38 0 -73.5 11.5t-61.5 27.5q-17 10 -39 29.5t-43.5 41.5t-39.5 43.5t-27 34.5
q-20 29 -27.5 62t-7.5 65v617q0 34 7.5 67t27.5 62q9 12 27 32.5t39.5 42.5t43.5 42t39 30q26 16 61.5 27.5t73.5 11.5h301q35 0 72 -11.5t63 -27.5q16 -10 37 -29.5t42 -41.5t39.5 -42.5t29.5 -33.5q20 -29 28.5 -63t8.5 -66v-617zM764 922q-5 10 -14 21t-19.5 21.5
t-20.5 19t-18 13.5h-291q-12 -9 -34.5 -30t-40.5 -47v-613q7 -12 17.5 -23.5t21 -21.5t20 -18t16.5 -13h15q-2 4 -3 9t-3 8l231 78l39 -95h10q13 8 35 29.5t39 46.5v615z" />
    <glyph glyph-name="r" unicode="r" horiz-adv-x="1122" 
d="M956 760q0 -76 -38 -133q-7 -11 -21 -26.5t-30.5 -32t-32.5 -30.5t-27 -22t-23 -15t-24 -12q18 -35 39 -74t43 -80t43 -82t41 -78q46 -87 92 -175h-279l-233 469h-180v-469h-250v1229h577q39 0 82 -13t72 -34q11 -9 26.5 -24t32 -31.5t30.5 -32t22 -25.5q20 -28 29 -64.5
t9 -70.5v-174zM707 940q-8 12 -23 26.5t-31 22.5h-327v-280h327q2 0 9 4.5t15.5 12t16.5 16t13 16.5v182z" />
    <glyph glyph-name="s" unicode="s" horiz-adv-x="1104" 
d="M969 303q0 -26 -6.5 -62t-26.5 -67q-7 -11 -25 -31.5t-39.5 -42.5t-42 -41t-30.5 -26q-32 -23 -73 -34t-81 -11h-295q-45 0 -85.5 17t-74.5 42.5t-61.5 56t-46.5 56.5q-12 14 -26 43t-25 51l243 65q16 -37 38.5 -59.5t37.5 -32.5h303q11 6 22.5 17.5t21.5 23t16 20t6 9.5
v123q0 3 -1 5l-2 4l-3 3q-122 34 -245 69.5t-247 69.5q-42 12 -74 36.5t-53 56.5t-32 69.5t-11 75.5v113q0 27 6.5 62.5t26.5 66.5q7 9 24 28.5t37.5 41t41 41t32.5 28.5q31 22 72 35.5t82 13.5h262q45 0 86.5 -16.5t76 -42t61.5 -55.5t44 -56q7 -12 13 -22t12 -20.5
t11.5 -22.5t12.5 -27l-239 -66q-19 38 -43.5 57.5t-42.5 30.5h-242q-15 -8 -30 -20t-27 -23.5t-19.5 -20t-7.5 -9.5v-109q0 -6 3 -9q1 -2 3 -3q122 -35 246 -70.5t248 -70.5q41 -12 72.5 -37t52.5 -57.5t32 -69.5t11 -74v-123z" />
    <glyph glyph-name="t" unicode="t" horiz-adv-x="1026" 
d="M590 989v-989h-252v989h-322v240h893v-240h-319z" />
    <glyph glyph-name="u" unicode="u" horiz-adv-x="1139" 
d="M985 305q0 -32 -7.5 -65t-27.5 -62q-9 -13 -27 -34.5t-39 -43.5t-42.5 -41.5t-38.5 -29.5q-28 -16 -63 -27.5t-72 -11.5h-273q-38 0 -73.5 11.5t-61.5 27.5q-17 10 -39 29.5t-43.5 41.5t-39.5 43.5t-27 34.5q-20 29 -27.5 62t-7.5 65v924h250v-922q9 -12 19.5 -24
t21 -22.5t19.5 -19t15 -12.5h261q6 4 15 12t19 18t20.5 22t18.5 24v924h250v-924z" />
    <glyph glyph-name="v" unicode="v" horiz-adv-x="1143" 
d="M647 0h-276l-394 1229h265l266 -879q77 245 137 439q25 82 49.5 161.5t43 141t28.5 99.5t8 38h264z" />
    <glyph glyph-name="w" unicode="w" horiz-adv-x="1520" 
d="M1163 0h-268l-178 719q-44 -180 -88.5 -359.5t-87.5 -359.5h-269l-280 1229h258l162 -758q43 189 88.5 380t89.5 378h254l178 -758q40 189 79.5 380t80.5 378h266z" />
    <glyph glyph-name="x" unicode="x" horiz-adv-x="1077" 
d="M633 625l373 -625h-279l-231 399l-232 -399h-278l370 625l-356 604h279l217 -379l219 379h276z" />
    <glyph glyph-name="y" unicode="y" horiz-adv-x="1077" 
d="M602 532v-532h-252v532l-411 697h282l256 -432l260 432h283z" />
    <glyph glyph-name="z" unicode="z" horiz-adv-x="1032" 
d="M68 0v182l526 807h-518v240h844v-185l-521 -804h521v-240h-852z" />
    <glyph glyph-name="braceleft" unicode="{" horiz-adv-x="727" 
d="M377 -12q-35 0 -70.5 12.5t-60.5 26.5q-17 10 -39.5 28.5t-44.5 39.5t-41.5 41.5t-30.5 35.5q-20 31 -26.5 66.5t-6.5 60.5v627q0 28 6.5 63t28.5 66q9 12 27.5 33t40 43t43.5 41.5t39 29.5q26 16 62 26.5t73 10.5h174v-231h-168q-8 -6 -19 -15t-23 -19.5t-23.5 -22.5
t-18.5 -23v-639q0 -7 8.5 -17.5t21.5 -21t27 -19t25 -12.5h170v-231h-174z" />
    <glyph glyph-name="bar" unicode="|" horiz-adv-x="424" 
d="M53 -184v1562h240v-1562h-240z" />
    <glyph glyph-name="braceright" unicode="}" horiz-adv-x="723" 
d="M571 299q0 -26 -7 -61t-27 -66q-10 -15 -29 -35.5t-41.5 -41.5t-45 -39.5t-40.5 -28.5q-25 -14 -62 -26.5t-71 -12.5h-174v231h174q12 5 26.5 15.5t27 21.5t21.5 20.5t9 12.5v643q0 5 -9 15.5t-21.5 21.5t-27 22t-26.5 17h-174v231h174q35 0 72 -10.5t63 -26.5
q17 -10 39 -29.5t43.5 -41.5t40.5 -43t29 -33q20 -29 28 -62t8 -67v-627z" />
    <glyph glyph-name="asciitilde" unicode="~" horiz-adv-x="965" 
d="M610 391q-5 13 -14 24.5t-19 19t-19.5 11t-16.5 0.5q-15 -3 -38 -10t-47 -14.5t-47 -15t-38 -11.5q-43 -10 -88 -4t-87 30t-78.5 67.5t-62.5 109.5l207 51q14 -31 33 -44t29 -11q17 3 40 10t48 15.5t48 16t40 11.5q43 10 87.5 3.5t85.5 -31.5t77.5 -69t62.5 -108z" />
    <glyph glyph-name="uni00A0" unicode="&#xa0;" horiz-adv-x="492" 
 />
    <glyph glyph-name="exclamdown" unicode="&#xa1;" horiz-adv-x="627" 
d="M147 0v887h246v-887h-246zM137 977v252h262v-252h-262z" />
    <glyph glyph-name="cent" unicode="&#xa2;" horiz-adv-x="1087" 
d="M965 252q-11 -31 -26 -54.5t-26 -37.5q-18 -26 -45 -55.5t-62 -55t-76.5 -43t-86.5 -18.5v-166h-240v166q-35 2 -74 11t-67 28q-16 10 -37.5 28.5t-42.5 40t-40 42.5t-29 36q-19 29 -27 62.5t-8 64.5v619q0 34 7.5 66t27.5 61q7 10 25.5 30t41 42t44.5 42t34 29
q28 18 68 32t77 17v150h240l4 -150q44 -2 84.5 -19.5t75 -43t61.5 -54.5t45 -53q13 -15 24.5 -36t25.5 -56l-240 -66q-12 23 -22.5 37t-21 23t-21.5 14t-23 10h-221q-8 -5 -20 -15t-24.5 -21.5t-23.5 -24t-18 -23.5v-608q0 -6 9.5 -15.5t23 -19.5t28 -19.5t25.5 -15.5h225
q20 8 42.5 28t41.5 58l240 -65z" />
    <glyph glyph-name="sterling" unicode="&#xa3;" horiz-adv-x="1219" 
d="M1044 256q-9 -25 -22 -48.5t-23 -37.5q-19 -26 -46.5 -56t-62 -55.5t-75.5 -42t-88 -16.5h-586v354h-78v230h78v67h-78v232h78v45q0 31 6.5 63.5t28.5 63.5q9 13 27.5 33.5t40 42.5t43.5 41t39 30q24 14 61 26.5t72 12.5h307v-240h-297q-15 -9 -38.5 -29.5t-39.5 -41.5
v-47h303v-232h-303v-67h303v-230h-303v-114h328q10 7 22 18t23.5 23t22 24.5t16.5 22.5z" />
    <glyph glyph-name="currency" unicode="&#xa4;" horiz-adv-x="1137" 
d="M889 606q0 -37 -13.5 -78.5t-33.5 -70.5q-2 -2 -2 -3t-2 -3l65 -64l-164 -166l-104 101q-13 -2 -25 -2.5t-24 -0.5h-162q-14 0 -25.5 0.5t-23.5 2.5l-107 -101l-170 168l68 66v2q-10 15 -18.5 33t-15 37.5t-10 40t-3.5 38.5v43q0 34 11 73.5t30 68.5l-70 69l164 166
l96 -94q17 5 35.5 7.5t38.5 2.5h162q40 0 73 -12l89 84l167 -170l-63 -62q15 -29 26 -65t11 -68v-43zM651 651q0 5 -7.5 12t-18 15t-22 15.5t-19.5 13.5h-158q-2 -1 -12.5 -8t-23 -16t-22.5 -18t-10 -14v-49q0 -5 8 -13t18.5 -15.5t21.5 -14t18 -8.5h162q7 4 18.5 11
t21.5 14.5t17.5 14t7.5 11.5v49z" />
    <glyph glyph-name="yen" unicode="&#xa5;" horiz-adv-x="1047" 
d="M727 1227h283l-211 -357h51v-227h-188q-10 -15 -20.5 -31.5t-18.5 -31.5h227v-224h-244v-356h-252v356h-241v224h225q-8 14 -18.5 31t-18.5 32h-188v227h53q-51 90 -104.5 178.5t-106.5 178.5h283l243 -416z" />
    <glyph glyph-name="brokenbar" unicode="&#xa6;" horiz-adv-x="424" 
d="M92 -182v676h240v-676h-240zM92 702v676h240v-676h-240z" />
    <glyph glyph-name="section" unicode="&#xa7;" horiz-adv-x="1061" 
d="M918 453q26 -34 41.5 -76.5t15.5 -85.5v-35q0 -26 -6.5 -62t-26.5 -67q-7 -12 -25 -32.5t-39.5 -42t-41.5 -40.5t-31 -26q-32 -23 -72.5 -34t-81.5 -11h-295q-45 0 -85.5 17t-74.5 42.5t-61.5 56t-46.5 56.5q-9 11 -18.5 29t-20.5 38q-3 6 -6 13.5t-6 13.5l244 63
q17 -37 39 -58.5t42 -31.5h295q11 7 22.5 19.5t21.5 25t16 21.5t6 10v29q0 3 -1 5l-2 4l-3 3q-124 11 -246 23.5t-244 23.5q-42 11 -74 35t-53 56t-32 69.5t-11 75.5v30q0 26 6.5 61.5t26.5 67.5v-2q3 6 12 16.5t15 18.5q-29 34 -44.5 78.5t-15.5 89.5v31q0 26 6.5 61
t26.5 64q7 10 24.5 29.5t38 41.5t40.5 41.5t32 28.5q31 22 72.5 35.5t81.5 13.5h262q45 0 86.5 -17t76 -42.5t61.5 -55.5t44 -57q8 -12 15.5 -24t15.5 -27q3 -8 7 -15q3 -6 6 -12.5t5 -11.5l-239 -63q-19 35 -43.5 55t-42.5 31h-242q-15 -8 -30 -20.5t-27 -24.5t-19.5 -21
t-7.5 -10v-23q0 -6 3 -9q1 -2 3 -3h-2q124 -12 248 -24.5t248 -24.5q42 -12 73.5 -37t52.5 -57.5t31.5 -69.5t10.5 -74v-35q0 -26 -6.5 -62.5t-26.5 -68.5zM391 682q-15 -8 -30 -19.5t-27 -23t-19.5 -20t-7.5 -9.5v-22q0 -7 3 -10q1 -2 3 -3q79 -8 160 -15t162 -15h22
q11 6 22.5 17t21.5 22.5t16 20t6 9.5v29q0 2 -1 4l-2 4q-2 2 -3 4z" />
    <glyph glyph-name="dieresis" unicode="&#xa8;" horiz-adv-x="686" 
d="M473 1364v250h240v-250h-240zM80 1364v250h235v-250h-235z" />
    <glyph glyph-name="copyright" unicode="&#xa9;" horiz-adv-x="1954" 
d="M1036 721q-8 15 -15 25t-13 16h-140q-5 -5 -11 -10.5t-9 -10.5v-260q0 -2 3.5 -7.5t8.5 -10.5h150q9 9 24 41l183 -37q-8 -28 -17 -54t-20 -44q-10 -17 -28 -36.5t-41 -36t-51 -27.5t-59 -11h-145q-29 0 -52.5 5t-47.5 22q-12 8 -27.5 21t-29.5 26.5t-25 26t-15 20.5v-2
q-15 23 -18.5 44.5t-3.5 47.5v285q0 20 5.5 44t19.5 46q7 9 18.5 22t24.5 25.5t25 23t20 15.5h-2q24 18 52.5 26.5t57.5 8.5h143q31 0 59 -10.5t51 -27t40.5 -35.5t28.5 -36q17 -26 24 -48t15 -48zM193 88q-25 23 -46.5 47t-33.5 41q-19 29 -27 62.5t-8 64.5v617
q0 31 8 64.5t27 62.5q12 17 33.5 41t46.5 47l227 211l168 -170l-228 -215q-17 -16 -26.5 -28.5t-9.5 -14.5v-613q0 -2 9.5 -14.5t26.5 -28.5l228 -215l-168 -170zM1444 -123l-168 170l227 215q17 16 27 28.5t10 14.5v613q0 2 -10 14.5t-27 28.5l-227 215l168 170l227 -211
q25 -23 46.5 -47t33.5 -41q19 -29 27 -62.5t8 -64.5v-617q0 -31 -8 -64.5t-27 -62.5q-12 -17 -33.5 -41t-46.5 -47z" />
    <glyph glyph-name="ordfeminine" unicode="&#xaa;" horiz-adv-x="780" 
d="M487 522l-14 72q-29 -28 -63 -50t-62 -22h-57q-31 0 -62.5 10t-54.5 27q-10 7 -22 17.5t-23.5 21.5t-21.5 21.5t-15 17.5q-18 25 -23.5 51.5t-5.5 52.5v275q0 26 5.5 52.5t23.5 51.5q5 7 15 17.5t21.5 22t23.5 21.5t22 17q23 17 54.5 27t62.5 10h346v-496l31 -217h-181z
M315 1040h-5t-5 -2q-11 -8 -22 -18.5t-19 -20.5q-2 -4 -2 -7v-3v-221v-3q0 -1 2 -5q8 -9 19 -21t22 -18q2 -2 5 -2h5h47h5.5t5.5 2q5 3 14 10.5t18 16.5t16.5 17t10.5 13q2 4 2 6v4v252h-119z" />
    <glyph glyph-name="guillemotleft" unicode="&#xab;" horiz-adv-x="1352" 
d="M911 180l-352 344l352 353l269 -78l-279 -271l285 -276zM397 180l-352 344l352 353l269 -78l-279 -271l285 -276z" />
    <glyph glyph-name="logicalnot" unicode="&#xac;" horiz-adv-x="1223" 
d="M983 117h-240v276h-651v234h891v-510z" />
    <glyph glyph-name="registered" unicode="&#xae;" horiz-adv-x="1954" 
d="M193 88q-25 23 -46.5 47t-33.5 41q-19 29 -27 62.5t-8 64.5v617q0 31 8 64.5t27 62.5q12 17 33.5 41t46.5 47l227 211l168 -170l-228 -215q-17 -16 -26.5 -28.5t-9.5 -14.5v-613q0 -2 9.5 -14.5t26.5 -28.5l228 -215l-168 -170zM1444 -123l-168 170l227 215
q17 16 27 28.5t10 14.5v613q0 2 -10 14.5t-27 28.5l-227 215l168 170l227 -211q25 -23 46.5 -47t33.5 -41q19 -29 27 -62.5t8 -64.5v-617q0 -31 -8 -64.5t-27 -62.5q-12 -17 -33.5 -41t-46.5 -47zM1036 233l-102 193h-68v-188h-207v725h297q38 0 76 -12t66 -33
q10 -8 24.5 -20.5t29.5 -26.5t28 -28t20 -24q19 -28 23 -52.5t4 -59.5v-27q0 -34 -3.5 -64t-23.5 -59q-11 -14 -30 -32.5t-42 -35.5l134 -256h-226zM1022 709q-8 11 -24.5 25t-30.5 24h-101v-140h101q3 0 10 4t15 10.5t16.5 14.5t13.5 15v47z" />
    <glyph glyph-name="macron" unicode="&#xaf;" horiz-adv-x="696" 
d="M39 1399v219h465v-219h-465z" />
    <glyph glyph-name="degree" unicode="&#xb0;" horiz-adv-x="831" 
d="M586 1227q0 -46 -17.5 -86t-47 -69.5t-69 -46.5t-83.5 -17q-45 0 -85.5 17t-71 46.5t-49 69.5t-18.5 86q0 43 18.5 82.5t49 69.5t71 47.5t85.5 17.5q44 0 83.5 -17.5t69 -47.5t47 -69.5t17.5 -82.5zM449 1227q0 16 -6 31t-17 26t-25.5 18t-31.5 7q-18 0 -33.5 -7t-27 -18
t-18.5 -26t-7 -31q0 -18 7 -33.5t18.5 -27t27 -18.5t33.5 -7q17 0 31.5 7t25.5 18.5t17 27t6 33.5z" />
    <glyph glyph-name="plusminus" unicode="&#xb1;" horiz-adv-x="1077" 
d="M612 393v-276h-239v276h-283v234h283v280h239v-280h283v-234h-283zM94 -238v238h803v-238h-803z" />
    <glyph glyph-name="uni00B2" unicode="&#xb2;" 
 />
    <glyph glyph-name="uni00B3" unicode="&#xb3;" horiz-adv-x="1034" 
 />
    <glyph glyph-name="acute" unicode="&#xb4;" horiz-adv-x="700" 
d="M258 1352l191 278h266l-215 -278h-242z" />
    <glyph glyph-name="uni00B5" unicode="&#xb5;" horiz-adv-x="1153" 
d="M76 -184v1413h250v-922q9 -12 19.5 -24t21 -22.5t19.5 -19t15 -12.5h261q6 4 15 12t19 18t20.5 22t18.5 24v924h250v-924q0 -32 -7.5 -65t-27.5 -62q-9 -13 -27 -34.5t-39 -43.5t-42.5 -41.5t-38.5 -29.5q-28 -16 -63 -27.5t-72 -11.5h-252q-23 0 -49.5 17.5t-51.5 37.5
v-229h-239z" />
    <glyph glyph-name="paragraph" unicode="&#xb6;" horiz-adv-x="1083" 
d="M717 0v489h-33v-489h-244v489h-75q-41 0 -80.5 11.5t-71.5 36.5q-11 7 -27.5 21.5t-33 30.5t-31 31.5t-21.5 26.5q-20 29 -29.5 63.5t-9.5 69.5v154q0 34 10.5 70t28.5 65q7 10 21 25.5t30.5 32t33 31.5t28.5 24q31 21 73 34t81 13h596v-1229h-246zM440 989h-73
q-14 -8 -30 -21.5t-26 -27.5v-154q6 -9 15 -18.5t17.5 -17t15 -12.5t8.5 -5h73v256zM717 989h-33v-256h33v256z" />
    <glyph glyph-name="periodcentered" unicode="&#xb7;" horiz-adv-x="618" 
d="M106 391v246h289v-246h-289z" />
    <glyph glyph-name="cedilla" unicode="&#xb8;" horiz-adv-x="768" 
d="M510 -408h-254l186 328l213 -61z" />
    <glyph glyph-name="uni00B9" unicode="&#xb9;" horiz-adv-x="653" 
 />
    <glyph glyph-name="ordmasculine" unicode="&#xba;" horiz-adv-x="780" 
d="M637 741q0 -26 -5 -52.5t-24 -51.5q-5 -7 -15 -17.5t-21 -21.5t-23 -21.5t-21 -17.5q-24 -17 -55.5 -27t-62.5 -10h-119q-31 0 -62.5 10t-54.5 27q-10 7 -22 17.5t-23.5 21.5t-21.5 21.5t-15 17.5q-18 25 -23.5 51.5t-5.5 52.5v275q0 26 5.5 52.5t23.5 51.5q5 7 15 17.5
t21.5 22t23.5 21.5t22 17q23 17 54.5 27t62.5 10h119q31 0 62.5 -10t55.5 -27q9 -7 21 -17t23 -21.5t21 -22t15 -17.5q19 -25 24 -51.5t5 -52.5v-275zM434 975v5.5t-2 6.5q-15 17 -39 37q-2 2 -5 2h-5h-68h-5t-5 -2q-11 -8 -22 -19t-19 -20q-2 -4 -2 -7v-3v-195v-3
q0 -1 2 -5q8 -9 19 -21t22 -18q2 -2 5 -2h5h68h5t5 2q10 8 21.5 18t17.5 19q2 4 2 6v4v195z" />
    <glyph glyph-name="guillemotright" unicode="&#xbb;" horiz-adv-x="1352" 
d="M45 252l285 276l-279 271l268 78l353 -353l-353 -344zM559 252l285 276l-279 271l269 78l352 -353l-352 -344z" />
    <glyph glyph-name="onequarter" unicode="&#xbc;" horiz-adv-x="1372" 
 />
    <glyph glyph-name="onehalf" unicode="&#xbd;" horiz-adv-x="1481" 
 />
    <glyph glyph-name="threequarters" unicode="&#xbe;" horiz-adv-x="1382" 
 />
    <glyph glyph-name="questiondown" unicode="&#xbf;" horiz-adv-x="985" 
d="M954 254q-8 -23 -22 -48t-27 -42q-18 -26 -45.5 -56.5t-61.5 -56t-75 -42.5t-86 -17h-234q-40 0 -81 13.5t-72 35.5q-11 7 -27.5 22t-33.5 32t-32 33.5t-24 27.5q-18 29 -29.5 65t-11.5 70v125q0 41 13 77t35 66t50.5 53.5t59.5 38.5q-2 -1 0.5 0.5t7.5 3.5t11 5l12 6
q17 7 37 15.5t37.5 17.5t29.5 18.5t12 17.5v150h246v-158q0 -60 -23.5 -104t-59 -75.5t-75.5 -53.5t-73 -37q-29 -14 -49.5 -24.5t-20.5 -22.5v-111q6 -12 15.5 -24t19 -21.5t17 -15t9.5 -5.5h226q10 5 20.5 10.5t21.5 15.5t22 25t22 38l237 -66zM647 977h-256v252h256v-252
z" />
    <glyph glyph-name="Agrave" unicode="&#xc0;" horiz-adv-x="1167" 
d="M817 0l-82 236h-428q-20 -57 -42 -118t-42 -118h-266l426 1229h276l424 -1229h-266zM520 870q-34 -99 -68.5 -197.5t-68.5 -197.5h276zM410 1352l-215 278h266l190 -278h-241z" />
    <glyph glyph-name="Aacute" unicode="&#xc1;" horiz-adv-x="1167" 
d="M817 0l-82 236h-428q-20 -57 -42 -118t-42 -118h-266l426 1229h276l424 -1229h-266zM520 870q-34 -99 -68.5 -197.5t-68.5 -197.5h276zM299 1352l190 278h267l-215 -278h-242z" />
    <glyph glyph-name="Acircumflex" unicode="&#xc2;" horiz-adv-x="1167" 
d="M817 0l-82 236h-428q-20 -57 -42 -118t-42 -118h-266l426 1229h276l424 -1229h-266zM520 870q-34 -99 -68.5 -197.5t-68.5 -197.5h276zM578 1630l296 -278h-286l-72 80l-70 -80h-286l297 278h121z" />
    <glyph glyph-name="Atilde" unicode="&#xc3;" horiz-adv-x="1167" 
d="M817 0l-82 236h-428q-20 -57 -42 -118t-42 -118h-266l426 1229h276l424 -1229h-266zM520 870q-34 -99 -68.5 -197.5t-68.5 -197.5h276zM678 1399q-11 28 -30 38t-30 7q-15 -3 -33.5 -8.5t-37.5 -12t-38 -12t-34 -8.5q-44 -8 -87 -2t-83 29.5t-74.5 66.5t-60.5 109l213 43
q14 -31 29 -40t24 -7q34 6 74 21t74 22q43 7 86 0.5t82.5 -31t74 -67.5t60.5 -107z" />
    <glyph glyph-name="Adieresis" unicode="&#xc4;" horiz-adv-x="1188" 
d="M838 0l-82 236h-428q-20 -57 -42 -118t-42 -118h-267l426 1229h277l424 -1229h-266zM541 870q-34 -99 -68.5 -197.5t-69.5 -197.5h277zM621 1364v250h239v-250h-239zM227 1364v250h236v-250h-236z" />
    <glyph glyph-name="Aring" unicode="&#xc5;" horiz-adv-x="1188" 
d="M838 0l-82 236h-428q-20 -57 -42 -118t-42 -118h-267l426 1229h277l424 -1229h-266zM541 870q-34 -99 -68.5 -197.5t-69.5 -197.5h277zM758 1493q0 -46 -17.5 -86t-47 -69.5t-69 -46.5t-83.5 -17q-45 0 -85.5 17t-71 46.5t-49 69.5t-18.5 86q0 44 18.5 83.5t49 69t71 47
t85.5 17.5q44 0 83.5 -17.5t69 -47t47 -69t17.5 -83.5zM621 1493q0 16 -6 31t-17 26t-25.5 18t-31.5 7q-18 0 -33.5 -7t-27 -18t-18.5 -26t-7 -31q0 -18 7 -33.5t18.5 -27t27 -18.5t33.5 -7q17 0 31.5 7t25.5 18.5t17 27t6 33.5z" />
    <glyph glyph-name="AE" unicode="&#xc6;" horiz-adv-x="1561" 
d="M645 0v236h-317l-84 -236h-267l426 1229h983v-240h-491v-252h473v-239h-473v-258h491v-240h-741zM403 475h242v514h-65z" />
    <glyph glyph-name="Ccedilla" unicode="&#xc7;" horiz-adv-x="1137" 
d="M772 868q-10 21 -20 38.5t-22.5 32.5t-28.5 29t-37 29h-256q-8 -5 -19 -14.5t-22 -21t-21.5 -23.5t-17.5 -23v-610q0 -1 5.5 -9t16 -19t25 -24t33.5 -24h260q32 22 57 53.5t47 69.5l234 -57q-14 -38 -32 -70.5t-38 -60.5q-18 -26 -45 -56.5t-61.5 -56.5t-75.5 -43.5
t-88 -17.5h-269q-37 0 -73 11.5t-62 27.5q-16 10 -37.5 28.5t-42.5 40t-40 42.5t-29 36q-19 29 -27 62.5t-8 64.5v621q0 34 7.5 66t27.5 61q9 12 27 32.5t40 42t44 41.5t40 31q25 14 60.5 26.5t72.5 12.5h269q47 0 88 -17.5t74.5 -43t60.5 -56t45 -55.5q25 -34 41 -66.5
t29 -64.5zM530 -408h-254l186 328l213 -61z" />
    <glyph glyph-name="Egrave" unicode="&#xc8;" 
d="M76 0v1229h807v-240h-557v-252h538v-239h-538v-258h557v-240h-807zM410 1352l-215 278h266l190 -278h-241z" />
    <glyph glyph-name="Eacute" unicode="&#xc9;" 
d="M76 0v1229h807v-240h-557v-252h538v-239h-538v-258h557v-240h-807zM299 1352l190 278h267l-215 -278h-242z" />
    <glyph glyph-name="Ecircumflex" unicode="&#xca;" horiz-adv-x="1061" 
d="M80 0v1229h807v-240h-557v-252h538v-239h-538v-258h557v-240h-807zM537 1630l297 -278h-287l-72 80l-69 -80h-287l297 278h121z" />
    <glyph glyph-name="Edieresis" unicode="&#xcb;" 
d="M76 0v1229h807v-240h-557v-252h538v-239h-538v-258h557v-240h-807zM553 1364v250h240v-250h-240zM160 1364v250h235v-250h-235z" />
    <glyph glyph-name="Igrave" unicode="&#xcc;" horiz-adv-x="512" 
d="M74 0v1229h252v-1229h-252zM82 1352l-215 278h266l191 -278h-242z" />
    <glyph glyph-name="Iacute" unicode="&#xcd;" horiz-adv-x="516" 
d="M74 0v1229h252v-1229h-252zM82 1352l190 278h267l-215 -278h-242z" />
    <glyph glyph-name="Icircumflex" unicode="&#xce;" horiz-adv-x="512" 
d="M74 0v1229h252v-1229h-252zM248 1630l297 -278h-287l-72 80l-69 -80h-287l297 278h121z" />
    <glyph glyph-name="Idieresis" unicode="&#xcf;" horiz-adv-x="512" 
d="M74 0v1229h252v-1229h-252zM270 1364v250h240v-250h-240zM-123 1364v250h236v-250h-236z" />
    <glyph glyph-name="Eth" unicode="&#xd0;" horiz-adv-x="1206" 
d="M1038 309q0 -28 -7 -62t-25 -63q-11 -15 -29.5 -36t-40.5 -42t-43.5 -39t-38.5 -28q-26 -14 -61 -26.5t-70 -12.5h-586v502h-160v229h160v498h586q32 0 69 -9t66 -28q17 -11 38.5 -31t42 -42.5t38.5 -43.5t27 -33q21 -31 27.5 -63t6.5 -64v-606zM387 502v-262h326
q21 12 40.5 30t34.5 47v588q-14 34 -33 52t-42 32h-326v-258h201v-229h-201z" />
    <glyph glyph-name="Ntilde" unicode="&#xd1;" horiz-adv-x="1153" 
d="M723 0l-397 723v-723h-250v1229h256l393 -733v733h250v-1229h-252zM678 1399q-11 28 -30 38t-30 7q-15 -3 -33.5 -8.5t-37.5 -12t-38 -12t-34 -8.5q-44 -8 -87 -2t-83 29.5t-74.5 66.5t-60.5 109l213 43q14 -31 29 -40t24 -7q34 6 74 21t74 22q43 7 86 0.5t82.5 -31
t74 -67.5t60.5 -107z" />
    <glyph glyph-name="Ograve" unicode="&#xd2;" horiz-adv-x="1190" 
d="M72 0zM1022 305q0 -32 -7.5 -65t-27.5 -62q-10 -13 -28 -34.5t-39.5 -43.5t-43 -41.5t-38.5 -29.5q-26 -16 -62 -27.5t-74 -11.5h-311q-38 0 -73.5 11.5t-61.5 27.5q-17 10 -39 29.5t-43.5 41.5t-40 43.5t-27.5 34.5q-20 29 -27 62t-7 65v617q0 34 7 67t27 62
q9 12 27.5 32.5t40 42.5t43.5 42t39 30q26 16 61.5 27.5t73.5 11.5h311q38 0 74 -11.5t62 -27.5q17 -10 38.5 -30t43 -42t39.5 -42.5t28 -32.5q20 -29 27.5 -62t7.5 -67v-617zM772 922q-5 9 -14.5 20t-20 22t-21 19.5t-18.5 13.5h-301q-12 -9 -34.5 -30t-40.5 -47v-615
q8 -12 18.5 -23.5t20.5 -22t19 -18.5t15 -12h301q13 10 36 32t40 44v617zM532 1352l-215 278h266l191 -278h-242z" />
    <glyph glyph-name="Oacute" unicode="&#xd3;" horiz-adv-x="1190" 
d="M72 0zM1022 305q0 -32 -7.5 -65t-27.5 -62q-10 -13 -28 -34.5t-39.5 -43.5t-43 -41.5t-38.5 -29.5q-26 -16 -62 -27.5t-74 -11.5h-311q-38 0 -73.5 11.5t-61.5 27.5q-17 10 -39 29.5t-43.5 41.5t-40 43.5t-27.5 34.5q-20 29 -27 62t-7 65v617q0 34 7 67t27 62
q9 12 27.5 32.5t40 42.5t43.5 42t39 30q26 16 61.5 27.5t73.5 11.5h311q38 0 74 -11.5t62 -27.5q17 -10 38.5 -30t43 -42t39.5 -42.5t28 -32.5q20 -29 27.5 -62t7.5 -67v-617zM772 922q-5 9 -14.5 20t-20 22t-21 19.5t-18.5 13.5h-301q-12 -9 -34.5 -30t-40.5 -47v-615
q8 -12 18.5 -23.5t20.5 -22t19 -18.5t15 -12h301q13 10 36 32t40 44v617zM319 1352l191 278h266l-215 -278h-242z" />
    <glyph glyph-name="Ocircumflex" unicode="&#xd4;" horiz-adv-x="1190" 
d="M72 0zM1022 305q0 -32 -7.5 -65t-27.5 -62q-10 -13 -28 -34.5t-39.5 -43.5t-43 -41.5t-38.5 -29.5q-26 -16 -62 -27.5t-74 -11.5h-311q-38 0 -73.5 11.5t-61.5 27.5q-17 10 -39 29.5t-43.5 41.5t-40 43.5t-27.5 34.5q-20 29 -27 62t-7 65v617q0 34 7 67t27 62
q9 12 27.5 32.5t40 42.5t43.5 42t39 30q26 16 61.5 27.5t73.5 11.5h311q38 0 74 -11.5t62 -27.5q17 -10 38.5 -30t43 -42t39.5 -42.5t28 -32.5q20 -29 27.5 -62t7.5 -67v-617zM772 922q-5 9 -14.5 20t-20 22t-21 19.5t-18.5 13.5h-301q-12 -9 -34.5 -30t-40.5 -47v-615
q8 -12 18.5 -23.5t20.5 -22t19 -18.5t15 -12h301q13 10 36 32t40 44v617zM617 1630l297 -278h-287l-72 80l-69 -80h-287l297 278h121z" />
    <glyph glyph-name="Otilde" unicode="&#xd5;" horiz-adv-x="1190" 
d="M72 0zM1022 305q0 -32 -7.5 -65t-27.5 -62q-10 -13 -28 -34.5t-39.5 -43.5t-43 -41.5t-38.5 -29.5q-26 -16 -62 -27.5t-74 -11.5h-311q-38 0 -73.5 11.5t-61.5 27.5q-17 10 -39 29.5t-43.5 41.5t-40 43.5t-27.5 34.5q-20 29 -27 62t-7 65v617q0 34 7 67t27 62
q9 12 27.5 32.5t40 42.5t43.5 42t39 30q26 16 61.5 27.5t73.5 11.5h311q38 0 74 -11.5t62 -27.5q17 -10 38.5 -30t43 -42t39.5 -42.5t28 -32.5q20 -29 27.5 -62t7.5 -67v-617zM772 922q-5 9 -14.5 20t-20 22t-21 19.5t-18.5 13.5h-301q-12 -9 -34.5 -30t-40.5 -47v-615
q8 -12 18.5 -23.5t20.5 -22t19 -18.5t15 -12h301q13 10 36 32t40 44v617zM708 1399q-11 28 -29.5 38t-29.5 7q-15 -3 -34 -8.5t-38 -12t-38 -12t-34 -8.5q-44 -8 -87 -2t-83 29.5t-74.5 66.5t-60.5 109l213 43q14 -31 29 -40t25 -7q34 6 73.5 21t73.5 22q44 7 87 0.5t82 -31
t73.5 -67.5t60.5 -107z" />
    <glyph glyph-name="Odieresis" unicode="&#xd6;" horiz-adv-x="1190" 
d="M72 0zM616 1364v250h240v-250h-240zM223 1364v250h235v-250h-235zM1022 305q0 -32 -7.5 -65t-27.5 -62q-10 -13 -28 -34.5t-39.5 -43.5t-43 -41.5t-38.5 -29.5q-26 -16 -62 -27.5t-74 -11.5h-311q-38 0 -73.5 11.5t-61.5 27.5q-17 10 -39 29.5t-43.5 41.5t-40 43.5
t-27.5 34.5q-20 29 -27 62t-7 65v617q0 34 7 67t27 62q9 12 27.5 32.5t40 42.5t43.5 42t39 30q26 16 61.5 27.5t73.5 11.5h311q38 0 74 -11.5t62 -27.5q17 -10 38.5 -30t43 -42t39.5 -42.5t28 -32.5q20 -29 27.5 -62t7.5 -67v-617zM772 922q-5 9 -14.5 20t-20 22t-21 19.5
t-18.5 13.5h-301q-12 -9 -34.5 -30t-40.5 -47v-615q8 -12 18.5 -23.5t20.5 -22t19 -18.5t15 -12h301q13 10 36 32t40 44v617z" />
    <glyph glyph-name="multiply" unicode="&#xd7;" horiz-adv-x="1077" 
d="M494 344l-238 -229l-170 168l238 231l-246 240l164 166l247 -242l246 229l168 -170l-244 -227l232 -229l-164 -166z" />
    <glyph glyph-name="Oslash" unicode="&#xd8;" horiz-adv-x="1249" 
d="M979 1114l57 -63q20 -29 28.5 -63t8.5 -66v-617q0 -31 -8.5 -64.5t-28.5 -62.5q-10 -14 -28 -35.5t-39 -43.5t-42.5 -41t-37.5 -29q-26 -16 -62 -27.5t-73 -11.5h-361h-12t-12 2l-23 -45h-250l82 149q-23 23 -41.5 45.5t-27.5 36.5q-20 29 -27.5 62t-7.5 65v617
q0 34 7.5 67t27.5 62q9 12 27 32.5t39.5 42.5t43.5 42t39 30q26 16 61.5 27.5t73.5 11.5h361q11 0 21.5 -1t21.5 -3l20 37h248zM324 365l344 632h-269q-12 -9 -34.5 -30t-40.5 -47v-555zM821 821l-321 -590h248q6 4 15 12t19 18t20.5 22t18.5 24v514z" />
    <glyph glyph-name="Ugrave" unicode="&#xd9;" horiz-adv-x="1174" 
d="M76 0zM1006 305q0 -32 -7.5 -65t-27.5 -62q-9 -13 -27 -34.5t-39.5 -43.5t-43 -41.5t-38.5 -29.5q-28 -16 -63 -27.5t-72 -11.5h-293q-38 0 -73.5 11.5t-61.5 27.5q-17 10 -39 29.5t-43.5 41.5t-39.5 43.5t-27 34.5q-20 29 -27.5 62t-7.5 65v924h250v-922q9 -12 19.5 -24
t21 -22.5t19.5 -19t15 -12.5h281q12 8 34.5 29.5t39.5 46.5v924h250v-924zM532 1352l-215 278h266l191 -278h-242z" />
    <glyph glyph-name="Uacute" unicode="&#xda;" horiz-adv-x="1174" 
d="M76 0zM1006 305q0 -32 -7.5 -65t-27.5 -62q-9 -13 -27 -34.5t-39.5 -43.5t-43 -41.5t-38.5 -29.5q-28 -16 -63 -27.5t-72 -11.5h-293q-38 0 -73.5 11.5t-61.5 27.5q-17 10 -39 29.5t-43.5 41.5t-39.5 43.5t-27 34.5q-20 29 -27.5 62t-7.5 65v924h250v-922q9 -12 19.5 -24
t21 -22.5t19.5 -19t15 -12.5h281q12 8 34.5 29.5t39.5 46.5v924h250v-924zM319 1352l191 278h266l-215 -278h-242z" />
    <glyph glyph-name="Ucircumflex" unicode="&#xdb;" horiz-adv-x="1174" 
d="M76 0zM1006 305q0 -32 -7.5 -65t-27.5 -62q-9 -13 -27 -34.5t-39.5 -43.5t-43 -41.5t-38.5 -29.5q-28 -16 -63 -27.5t-72 -11.5h-293q-38 0 -73.5 11.5t-61.5 27.5q-17 10 -39 29.5t-43.5 41.5t-39.5 43.5t-27 34.5q-20 29 -27.5 62t-7.5 65v924h250v-922q9 -12 19.5 -24
t21 -22.5t19.5 -19t15 -12.5h281q12 8 34.5 29.5t39.5 46.5v924h250v-924zM607 1630l297 -278h-287l-72 80l-69 -80h-287l297 278h121z" />
    <glyph glyph-name="Udieresis" unicode="&#xdc;" horiz-adv-x="1174" 
d="M76 0zM1006 305q0 -32 -7.5 -65t-27.5 -62q-9 -13 -27 -34.5t-39.5 -43.5t-43 -41.5t-38.5 -29.5q-28 -16 -63 -27.5t-72 -11.5h-293q-38 0 -73.5 11.5t-61.5 27.5q-17 10 -39 29.5t-43.5 41.5t-39.5 43.5t-27 34.5q-20 29 -27.5 62t-7.5 65v924h250v-922q9 -12 19.5 -24
t21 -22.5t19.5 -19t15 -12.5h281q12 8 34.5 29.5t39.5 46.5v924h250v-924zM616 1364v250h240v-250h-240zM223 1364v250h235v-250h-235z" />
    <glyph glyph-name="Yacute" unicode="&#xdd;" horiz-adv-x="1047" 
d="M606 532v-532h-252v532l-411 697h282l256 -432l260 432h283zM326 1352l190 278h266l-215 -278h-241z" />
    <glyph glyph-name="Thorn" unicode="&#xde;" horiz-adv-x="1094" 
d="M977 532q0 -37 -9.5 -69.5t-29.5 -63.5q-7 -11 -21 -26t-30.5 -31t-32.5 -30.5t-27 -22.5q-34 -25 -73.5 -36t-79.5 -11h-348v-242h-250v1227h250v-226h348q38 0 79.5 -11.5t73.5 -33.5q11 -8 27 -23t32 -31.5t30 -33t22 -26.5q19 -28 29 -64.5t10 -70.5v-175zM727 713
q-8 12 -23 27t-30 24h-348v-281h348q2 0 9 5t15 12t16 15.5t13 16.5v181z" />
    <glyph glyph-name="germandbls" unicode="&#xdf;" horiz-adv-x="2228" 
d="M969 303q0 -26 -6.5 -62t-26.5 -67q-7 -11 -25 -31.5t-39.5 -42.5t-42 -41t-30.5 -26q-32 -23 -73 -34t-81 -11h-295q-45 0 -85.5 17t-74.5 42.5t-61.5 56t-46.5 56.5q-12 14 -26 43t-25 51l243 65q16 -37 38.5 -59.5t37.5 -32.5h303q11 6 22.5 17.5t21.5 23t16 20t6 9.5
v123q0 3 -1 5l-2 4l-3 3q-122 34 -245 69.5t-247 69.5q-42 12 -74 36.5t-53 56.5t-32 69.5t-11 75.5v113q0 27 6.5 62.5t26.5 66.5q7 9 24 28.5t37.5 41t41 41t32.5 28.5q31 22 72 35.5t82 13.5h262q45 0 86.5 -16.5t76 -42t61.5 -55.5t44 -56q7 -12 13 -22t12 -20.5
t11.5 -22.5t12.5 -27l-239 -66q-19 38 -43.5 57.5t-42.5 30.5h-242q-15 -8 -30 -20t-27 -23.5t-19.5 -20t-7.5 -9.5v-109q0 -6 3 -9q1 -2 3 -3q122 -35 246 -70.5t248 -70.5q41 -12 72.5 -37t52.5 -57.5t32 -69.5t11 -74v-123zM2093 303q0 -26 -6.5 -62t-26.5 -67
q-7 -11 -25 -31.5t-39.5 -42.5t-41.5 -41t-31 -26q-32 -23 -72.5 -34t-81.5 -11h-294q-45 0 -85.5 17t-75 42.5t-62 56t-46.5 56.5q-12 14 -26 43t-25 51l244 65q15 -37 37.5 -59.5t38.5 -32.5h303q10 6 21.5 17.5t21.5 23t16 20t6 9.5v123q0 3 -1 5l-2 4l-3 3
q-122 34 -245 69.5t-246 69.5q-42 12 -74 36.5t-53.5 56.5t-32 69.5t-10.5 75.5v113q0 27 6 62.5t26 66.5q7 9 24.5 28.5t38 41t40.5 41t32 28.5q31 22 72.5 35.5t81.5 13.5h262q45 0 86.5 -16.5t76 -42t62 -55.5t44.5 -56q14 -23 24.5 -42t24.5 -50l-240 -66
q-19 38 -43 57.5t-43 30.5h-242q-15 -8 -30 -20t-27 -23.5t-19.5 -20t-7.5 -9.5v-109q0 -6 3 -9q2 -2 4 -3q121 -35 245 -70.5t248 -70.5q42 -12 73.5 -37t52.5 -57.5t31.5 -69.5t10.5 -74v-123z" />
    <glyph glyph-name="agrave" unicode="&#xe0;" horiz-adv-x="1188" 
d="M838 0l-82 236h-428q-20 -57 -42 -118t-42 -118h-267l426 1229h277l424 -1229h-266zM541 870q-34 -99 -68.5 -197.5t-69.5 -197.5h277zM430 1352l-215 278h266l191 -278h-242z" />
    <glyph glyph-name="aacute" unicode="&#xe1;" horiz-adv-x="1188" 
d="M838 0l-82 236h-428q-20 -57 -42 -118t-42 -118h-267l426 1229h277l424 -1229h-266zM541 870q-34 -99 -68.5 -197.5t-69.5 -197.5h277zM416 1356l190 278h264l-215 -278h-239z" />
    <glyph glyph-name="acircumflex" unicode="&#xe2;" horiz-adv-x="1188" 
d="M838 0l-82 236h-428q-20 -57 -42 -118t-42 -118h-267l426 1229h277l424 -1229h-266zM541 870q-34 -99 -68.5 -197.5t-69.5 -197.5h277zM594 1630l297 -278h-287l-72 80l-69 -80h-287l297 278h121z" />
    <glyph glyph-name="atilde" unicode="&#xe3;" horiz-adv-x="1188" 
d="M838 0l-82 236h-428q-20 -57 -42 -118t-42 -118h-267l426 1229h277l424 -1229h-266zM541 870q-34 -99 -68.5 -197.5t-69.5 -197.5h277zM688 1399q-11 28 -29.5 38t-29.5 7q-15 -3 -34 -8.5t-38 -12t-38 -12t-34 -8.5q-44 -8 -87 -2t-83 29.5t-74.5 66.5t-60.5 109l213 43
q14 -31 29 -40t24 -7q35 6 74.5 21t73.5 22q44 7 87 0.5t82 -31t73.5 -67.5t60.5 -107z" />
    <glyph glyph-name="adieresis" unicode="&#xe4;" horiz-adv-x="1188" 
d="M838 0l-82 236h-428q-20 -57 -42 -118t-42 -118h-267l426 1229h277l424 -1229h-266zM541 870q-34 -99 -68.5 -197.5t-69.5 -197.5h277zM614 1364v250h240v-250h-240zM221 1364v250h236v-250h-236z" />
    <glyph glyph-name="aring" unicode="&#xe5;" horiz-adv-x="1188" 
d="M838 0l-82 236h-428q-20 -57 -42 -118t-42 -118h-267l426 1229h277l424 -1229h-266zM541 870q-34 -99 -68.5 -197.5t-69.5 -197.5h277zM760 1493q0 -46 -17 -86t-46.5 -69.5t-69 -46.5t-84.5 -17t-85.5 17t-71 46.5t-49 69.5t-18.5 86q0 44 18.5 83.5t49 69t71 47
t85.5 17.5t84.5 -17.5t69 -47t46.5 -69t17 -83.5zM623 1493q0 16 -6 31t-17 26t-25.5 18t-31.5 7q-18 0 -33.5 -7t-27 -18t-18.5 -26t-7 -31q0 -18 7 -33.5t18.5 -27t27 -18.5t33.5 -7q17 0 31.5 7t25.5 18.5t17 27t6 33.5z" />
    <glyph glyph-name="ae" unicode="&#xe6;" horiz-adv-x="1571" 
d="M645 0v236h-317l-84 -236h-267l426 1229h983v-240h-491v-252h473v-239h-473v-258h491v-240h-741zM403 475h242v514h-65z" />
    <glyph glyph-name="ccedilla" unicode="&#xe7;" horiz-adv-x="1087" 
d="M965 254q-11 -25 -25 -49.5t-27 -42.5q-18 -27 -45 -57.5t-61.5 -56t-75.5 -42t-86 -16.5h-235q-41 0 -79 8.5t-69 30.5q-16 10 -37.5 28.5t-42.5 40t-40 42.5t-29 36q-19 29 -27 62.5t-8 64.5v615q0 34 7.5 65.5t27.5 60.5q7 10 25.5 30.5t41 42.5t44.5 42t34 29
q31 22 72 35.5t82 13.5h233q46 0 87 -17.5t75 -43t61 -55t45 -54.5q8 -11 23.5 -37.5t26.5 -54.5l-240 -66q-23 45 -44.5 62t-41.5 26h-223q-8 -5 -20 -15.5t-24.5 -23t-23.5 -25.5t-18 -24v-610q0 -2 7 -10t18.5 -18.5t26.5 -22t32 -19.5h227q20 8 42.5 31t41.5 62l240 -66
zM530 -408h-254l186 328l213 -61z" />
    <glyph glyph-name="egrave" unicode="&#xe8;" horiz-adv-x="1036" 
d="M76 0v1229h786v-240h-536v-254h518v-239h-518v-256h536v-240h-786zM410 1352l-215 278h266l190 -278h-241z" />
    <glyph glyph-name="eacute" unicode="&#xe9;" horiz-adv-x="1036" 
d="M76 0v1229h786v-240h-536v-254h518v-239h-518v-256h536v-240h-786zM299 1352l190 278h267l-215 -278h-242z" />
    <glyph glyph-name="ecircumflex" unicode="&#xea;" horiz-adv-x="1042" 
d="M82 0v1229h786v-240h-536v-254h518v-239h-518v-256h536v-240h-786zM537 1630l297 -278h-287l-72 80l-69 -80h-287l297 278h121z" />
    <glyph glyph-name="edieresis" unicode="&#xeb;" horiz-adv-x="1036" 
d="M76 0v1229h786v-240h-536v-254h518v-239h-518v-256h536v-240h-786zM543 1364v250h239v-250h-239zM150 1364v250h235v-250h-235z" />
    <glyph glyph-name="igrave" unicode="&#xec;" horiz-adv-x="496" 
d="M74 0v1229h252v-1229h-252zM82 1352l-215 278h266l191 -278h-242z" />
    <glyph glyph-name="iacute" unicode="&#xed;" horiz-adv-x="502" 
d="M74 0v1229h252v-1229h-252zM68 1352l190 278h266l-215 -278h-241z" />
    <glyph glyph-name="icircumflex" unicode="&#xee;" horiz-adv-x="539" 
d="M74 0v1229h252v-1229h-252zM248 1630l297 -278h-287l-72 80l-69 -80h-287l297 278h121z" />
    <glyph glyph-name="idieresis" unicode="&#xef;" horiz-adv-x="512" 
d="M74 0v1229h252v-1229h-252zM270 1364v250h240v-250h-240zM-123 1364v250h236v-250h-236z" />
    <glyph glyph-name="eth" unicode="&#xf0;" horiz-adv-x="1206" 
d="M1038 309q0 -28 -7 -62t-25 -63q-11 -15 -29.5 -36t-40.5 -42t-43.5 -39t-38.5 -28q-26 -14 -61 -26.5t-70 -12.5h-586v502h-160v229h160v498h586q32 0 69 -9t66 -28q17 -11 38.5 -31t42 -42.5t38.5 -43.5t27 -33q21 -31 27.5 -63t6.5 -64v-606zM387 502v-262h326
q21 12 40.5 30t34.5 47v588q-14 34 -33 52t-42 32h-326v-258h201v-229h-201z" />
    <glyph glyph-name="ntilde" unicode="&#xf1;" horiz-adv-x="1153" 
d="M723 0l-397 723v-723h-250v1229h256l393 -733v733h250v-1229h-252zM692 1399q-11 28 -29.5 38t-29.5 7q-15 -3 -34 -8.5t-38 -12t-38 -12t-34 -8.5q-44 -8 -87 -2t-83 29.5t-74.5 66.5t-60.5 109l213 43q14 -31 29 -40t25 -7q34 6 73.5 21t73.5 22q44 7 87 0.5t82 -31
t73.5 -67.5t60.5 -107z" />
    <glyph glyph-name="ograve" unicode="&#xf2;" horiz-adv-x="1161" 
d="M74 0zM991 305q0 -31 -8.5 -64.5t-28.5 -62.5q-10 -14 -28 -35.5t-39 -43.5t-42.5 -41t-37.5 -29q-26 -16 -62 -27.5t-73 -11.5h-279q-38 0 -73.5 11.5t-61.5 27.5q-17 10 -39 29.5t-43.5 41.5t-39.5 43.5t-27 34.5q-20 29 -27.5 62t-7.5 65v617q0 34 7.5 67t27.5 62
q9 12 27 32.5t39.5 42.5t43.5 42t39 30q26 16 61.5 27.5t73.5 11.5h279q35 0 72 -11.5t63 -27.5q16 -10 37 -29.5t42 -41.5t39 -42.5t29 -33.5q20 -29 28.5 -63t8.5 -66v-617zM739 922q-5 10 -14 21t-19 21.5t-20.5 19t-17.5 13.5h-269q-12 -9 -34.5 -30t-40.5 -47v-613
q8 -12 18.5 -23.5t20.5 -22t19 -18.5t15 -12h269q6 4 15 12t19 18t20.5 22t18.5 24v615zM512 1352l-215 278h266l191 -278h-242z" />
    <glyph glyph-name="oacute" unicode="&#xf3;" horiz-adv-x="1161" 
d="M74 0zM991 305q0 -31 -8.5 -64.5t-28.5 -62.5q-10 -14 -28 -35.5t-39 -43.5t-42.5 -41t-37.5 -29q-26 -16 -62 -27.5t-73 -11.5h-279q-38 0 -73.5 11.5t-61.5 27.5q-17 10 -39 29.5t-43.5 41.5t-39.5 43.5t-27 34.5q-20 29 -27.5 62t-7.5 65v617q0 34 7.5 67t27.5 62
q9 12 27 32.5t39.5 42.5t43.5 42t39 30q26 16 61.5 27.5t73.5 11.5h279q35 0 72 -11.5t63 -27.5q16 -10 37 -29.5t42 -41.5t39 -42.5t29 -33.5q20 -29 28.5 -63t8.5 -66v-617zM739 922q-5 10 -14 21t-19 21.5t-20.5 19t-17.5 13.5h-269q-12 -9 -34.5 -30t-40.5 -47v-613
q8 -12 18.5 -23.5t20.5 -22t19 -18.5t15 -12h269q6 4 15 12t19 18t20.5 22t18.5 24v615zM340 1352l191 278h266l-215 -278h-242z" />
    <glyph glyph-name="ocircumflex" unicode="&#xf4;" horiz-adv-x="1161" 
d="M74 0zM991 305q0 -31 -8.5 -64.5t-28.5 -62.5q-10 -14 -28 -35.5t-39 -43.5t-42.5 -41t-37.5 -29q-26 -16 -62 -27.5t-73 -11.5h-279q-38 0 -73.5 11.5t-61.5 27.5q-17 10 -39 29.5t-43.5 41.5t-39.5 43.5t-27 34.5q-20 29 -27.5 62t-7.5 65v617q0 34 7.5 67t27.5 62
q9 12 27 32.5t39.5 42.5t43.5 42t39 30q26 16 61.5 27.5t73.5 11.5h279q35 0 72 -11.5t63 -27.5q16 -10 37 -29.5t42 -41.5t39 -42.5t29 -33.5q20 -29 28.5 -63t8.5 -66v-617zM739 922q-5 10 -14 21t-19 21.5t-20.5 19t-17.5 13.5h-269q-12 -9 -34.5 -30t-40.5 -47v-613
q8 -12 18.5 -23.5t20.5 -22t19 -18.5t15 -12h269q6 4 15 12t19 18t20.5 22t18.5 24v615zM596 1630l297 -278h-287l-72 80l-69 -80h-287l297 278h121z" />
    <glyph glyph-name="otilde" unicode="&#xf5;" horiz-adv-x="1161" 
d="M74 0zM991 305q0 -31 -8.5 -64.5t-28.5 -62.5q-10 -14 -28 -35.5t-39 -43.5t-42.5 -41t-37.5 -29q-26 -16 -62 -27.5t-73 -11.5h-279q-38 0 -73.5 11.5t-61.5 27.5q-17 10 -39 29.5t-43.5 41.5t-39.5 43.5t-27 34.5q-20 29 -27.5 62t-7.5 65v617q0 34 7.5 67t27.5 62
q9 12 27 32.5t39.5 42.5t43.5 42t39 30q26 16 61.5 27.5t73.5 11.5h279q35 0 72 -11.5t63 -27.5q16 -10 37 -29.5t42 -41.5t39 -42.5t29 -33.5q20 -29 28.5 -63t8.5 -66v-617zM739 922q-5 10 -14 21t-19 21.5t-20.5 19t-17.5 13.5h-269q-12 -9 -34.5 -30t-40.5 -47v-613
q8 -12 18.5 -23.5t20.5 -22t19 -18.5t15 -12h269q6 4 15 12t19 18t20.5 22t18.5 24v615zM686 1399q-11 28 -29.5 38t-29.5 7q-15 -3 -34 -8.5t-38 -12t-38 -12t-34 -8.5q-44 -8 -87 -2t-83 29.5t-74.5 66.5t-60.5 109l213 43q14 -31 29 -40t25 -7q34 6 73.5 21t73.5 22
q44 7 87 0.5t82 -31t73.5 -67.5t60.5 -107z" />
    <glyph glyph-name="odieresis" unicode="&#xf6;" horiz-adv-x="1161" 
d="M74 0zM991 305q0 -31 -8.5 -64.5t-28.5 -62.5q-10 -14 -28 -35.5t-39 -43.5t-42.5 -41t-37.5 -29q-26 -16 -62 -27.5t-73 -11.5h-279q-38 0 -73.5 11.5t-61.5 27.5q-17 10 -39 29.5t-43.5 41.5t-39.5 43.5t-27 34.5q-20 29 -27.5 62t-7.5 65v617q0 34 7.5 67t27.5 62
q9 12 27 32.5t39.5 42.5t43.5 42t39 30q26 16 61.5 27.5t73.5 11.5h279q35 0 72 -11.5t63 -27.5q16 -10 37 -29.5t42 -41.5t39 -42.5t29 -33.5q20 -29 28.5 -63t8.5 -66v-617zM739 922q-5 10 -14 21t-19 21.5t-20.5 19t-17.5 13.5h-269q-12 -9 -34.5 -30t-40.5 -47v-613
q8 -12 18.5 -23.5t20.5 -22t19 -18.5t15 -12h269q6 4 15 12t19 18t20.5 22t18.5 24v615zM616 1364v250h240v-250h-240zM223 1364v250h235v-250h-235z" />
    <glyph glyph-name="divide" unicode="&#xf7;" horiz-adv-x="817" 
 />
    <glyph glyph-name="oslash" unicode="&#xf8;" horiz-adv-x="1249" 
d="M979 1114l57 -63q20 -29 28.5 -63t8.5 -66v-617q0 -31 -8.5 -64.5t-28.5 -62.5q-10 -14 -28 -35.5t-39 -43.5t-42.5 -41t-37.5 -29q-26 -16 -62 -27.5t-73 -11.5h-361h-12t-12 2l-23 -45h-250l82 149q-23 23 -41.5 45.5t-27.5 36.5q-20 29 -27.5 62t-7.5 65v617
q0 34 7.5 67t27.5 62q9 12 27 32.5t39.5 42.5t43.5 42t39 30q26 16 61.5 27.5t73.5 11.5h361q11 0 21.5 -1t21.5 -3l20 37h248zM324 365l344 632h-269q-12 -9 -34.5 -30t-40.5 -47v-555zM821 821l-321 -590h248q6 4 15 12t19 18t20.5 22t18.5 24v514z" />
    <glyph glyph-name="ugrave" unicode="&#xf9;" horiz-adv-x="1139" 
d="M76 0zM985 305q0 -32 -7.5 -65t-27.5 -62q-9 -13 -27 -34.5t-39 -43.5t-42.5 -41.5t-38.5 -29.5q-28 -16 -63 -27.5t-72 -11.5h-273q-38 0 -73.5 11.5t-61.5 27.5q-17 10 -39 29.5t-43.5 41.5t-39.5 43.5t-27 34.5q-20 29 -27.5 62t-7.5 65v924h250v-922q9 -12 19.5 -24
t21 -22.5t19.5 -19t15 -12.5h261q6 4 15 12t19 18t20.5 22t18.5 24v924h250v-924zM512 1352l-215 278h266l191 -278h-242z" />
    <glyph glyph-name="uacute" unicode="&#xfa;" horiz-adv-x="1139" 
d="M76 0zM985 305q0 -32 -7.5 -65t-27.5 -62q-9 -13 -27 -34.5t-39 -43.5t-42.5 -41.5t-38.5 -29.5q-28 -16 -63 -27.5t-72 -11.5h-273q-38 0 -73.5 11.5t-61.5 27.5q-17 10 -39 29.5t-43.5 41.5t-39.5 43.5t-27 34.5q-20 29 -27.5 62t-7.5 65v924h250v-922q9 -12 19.5 -24
t21 -22.5t19.5 -19t15 -12.5h261q6 4 15 12t19 18t20.5 22t18.5 24v924h250v-924zM340 1352l191 278h266l-215 -278h-242z" />
    <glyph glyph-name="ucircumflex" unicode="&#xfb;" horiz-adv-x="1139" 
d="M76 0zM985 305q0 -32 -7.5 -65t-27.5 -62q-9 -13 -27 -34.5t-39 -43.5t-42.5 -41.5t-38.5 -29.5q-28 -16 -63 -27.5t-72 -11.5h-273q-38 0 -73.5 11.5t-61.5 27.5q-17 10 -39 29.5t-43.5 41.5t-39.5 43.5t-27 34.5q-20 29 -27.5 62t-7.5 65v924h250v-922q9 -12 19.5 -24
t21 -22.5t19.5 -19t15 -12.5h261q6 4 15 12t19 18t20.5 22t18.5 24v924h250v-924zM596 1630l297 -278h-287l-72 80l-69 -80h-287l297 278h121z" />
    <glyph glyph-name="udieresis" unicode="&#xfc;" horiz-adv-x="1139" 
d="M76 0zM985 305q0 -32 -7.5 -65t-27.5 -62q-9 -13 -27 -34.5t-39 -43.5t-42.5 -41.5t-38.5 -29.5q-28 -16 -63 -27.5t-72 -11.5h-273q-38 0 -73.5 11.5t-61.5 27.5q-17 10 -39 29.5t-43.5 41.5t-39.5 43.5t-27 34.5q-20 29 -27.5 62t-7.5 65v924h250v-922q9 -12 19.5 -24
t21 -22.5t19.5 -19t15 -12.5h261q6 4 15 12t19 18t20.5 22t18.5 24v924h250v-924zM610 1364v250h240v-250h-240zM217 1364v250h235v-250h-235z" />
    <glyph glyph-name="yacute" unicode="&#xfd;" horiz-adv-x="1047" 
d="M606 532v-532h-252v532l-411 697h282l256 -432l260 432h283zM326 1352l190 278h266l-215 -278h-241z" />
    <glyph glyph-name="thorn" unicode="&#xfe;" horiz-adv-x="1094" 
d="M977 532q0 -37 -9.5 -69.5t-29.5 -63.5q-7 -11 -21 -26t-30.5 -31t-32.5 -30.5t-27 -22.5q-34 -25 -73.5 -36t-79.5 -11h-348v-242h-250v1227h250v-226h348q38 0 79.5 -11.5t73.5 -33.5q11 -8 27 -23t32 -31.5t30 -33t22 -26.5q19 -28 29 -64.5t10 -70.5v-175zM727 713
q-8 12 -23 27t-30 24h-348v-281h348q2 0 9 5t15 12t16 15.5t13 16.5v181z" />
    <glyph glyph-name="ydieresis" unicode="&#xff;" horiz-adv-x="1047" 
d="M606 532v-532h-252v532l-411 697h282l256 -432l260 432h283zM561 1364v250h240v-250h-240zM168 1364v250h235v-250h-235z" />
    <glyph glyph-name="Amacron" unicode="&#x100;" horiz-adv-x="1167" 
d="M0 0zM309 1399v219h465v-219h-465zM838 0l-82 236h-428q-20 -57 -42 -118t-42 -118h-267l426 1229h277l424 -1229h-266zM541 870q-34 -99 -68.5 -197.5t-69.5 -197.5h277z" />
    <glyph glyph-name="amacron" unicode="&#x101;" horiz-adv-x="1167" 
d="M0 0zM289 1399v219h465v-219h-465zM817 0l-82 236h-428q-20 -57 -42 -118t-42 -118h-266l426 1229h276l424 -1229h-266zM520 870q-34 -99 -68.5 -197.5t-68.5 -197.5h276z" />
    <glyph glyph-name="Abreve" unicode="&#x102;" horiz-adv-x="1167" 
d="M817 0l-82 236h-428q-20 -57 -42 -118t-42 -118h-266l426 1229h276l424 -1229h-266zM520 870q-34 -99 -68.5 -197.5t-68.5 -197.5h276zM741 1569q0 -46 -17 -86t-46.5 -69.5t-69 -46.5t-84.5 -17q-44 0 -84.5 17t-71.5 46.5t-49 69.5t-18 86h137q0 -18 7 -33.5t18.5 -27
t27 -18.5t33.5 -7q17 0 31.5 7t25.5 18.5t17 27t6 33.5h137z" />
    <glyph glyph-name="abreve" unicode="&#x103;" horiz-adv-x="1167" 
d="M817 0l-82 236h-428q-20 -57 -42 -118t-42 -118h-266l426 1229h276l424 -1229h-266zM520 870q-34 -99 -68.5 -197.5t-68.5 -197.5h276zM741 1569q0 -46 -17 -86t-46.5 -69.5t-69 -46.5t-84.5 -17q-44 0 -84.5 17t-71.5 46.5t-49 69.5t-18 86h137q0 -18 7 -33.5t18.5 -27
t27 -18.5t33.5 -7q17 0 31.5 7t25.5 18.5t17 27t6 33.5h137z" />
    <glyph glyph-name="Aogonek" unicode="&#x104;" horiz-adv-x="1167" 
d="M817 0l-82 236h-428q-20 -57 -42 -118t-42 -118h-266l426 1229h276l424 -1229h-266zM520 870q-34 -99 -68.5 -197.5t-68.5 -197.5h276zM768 -141l213 61l186 -328h-254z" />
    <glyph glyph-name="aogonek" unicode="&#x105;" horiz-adv-x="1167" 
d="M817 0l-82 236h-428q-20 -57 -42 -118t-42 -118h-266l426 1229h276l424 -1229h-266zM520 870q-34 -99 -68.5 -197.5t-68.5 -197.5h276zM754 -141l213 61l186 -328h-254z" />
    <glyph glyph-name="Cacute" unicode="&#x106;" horiz-adv-x="1137" 
d="M772 868q-10 21 -20 38.5t-22.5 32.5t-28.5 29t-37 29h-256q-8 -5 -19 -14.5t-22 -21t-21.5 -23.5t-17.5 -23v-610q0 -1 5.5 -9t16 -19t25 -24t33.5 -24h260q32 22 57 53.5t47 69.5l234 -57q-14 -38 -32 -70.5t-38 -60.5q-18 -26 -45 -56.5t-61.5 -56.5t-75.5 -43.5
t-88 -17.5h-269q-37 0 -73 11.5t-62 27.5q-16 10 -37.5 28.5t-42.5 40t-40 42.5t-29 36q-19 29 -27 62.5t-8 64.5v621q0 34 7.5 66t27.5 61q9 12 27 32.5t40 42t44 41.5t40 31q25 14 60.5 26.5t72.5 12.5h269q47 0 88 -17.5t74.5 -43t60.5 -56t45 -55.5q25 -34 41 -66.5
t29 -64.5zM375 1352l190 278h266l-215 -278h-241z" />
    <glyph glyph-name="cacute" unicode="&#x107;" horiz-adv-x="1087" 
d="M76 0zM381 1352l191 278h266l-215 -278h-242zM963 254q-11 -25 -25 -49.5t-27 -42.5q-18 -27 -45 -57.5t-61.5 -56t-75.5 -42t-86 -16.5h-235q-41 0 -79 8.5t-69 30.5q-16 10 -37.5 28.5t-42.5 40t-40 42.5t-29 36q-19 29 -27 62.5t-8 64.5v615q0 34 7.5 65.5t27.5 60.5
q7 10 25.5 30.5t41 42.5t44.5 42t34 29q31 22 72 35.5t82 13.5h233q46 0 87 -17.5t75 -43t61 -55t45 -54.5q8 -11 23.5 -37.5t26.5 -54.5l-240 -66q-23 45 -44.5 62t-41.5 26h-223q-8 -5 -20 -15.5t-24.5 -23t-23.5 -25.5t-18 -24v-610q0 -2 7 -10t18.5 -18.5t26.5 -22
t32 -19.5h227q20 8 42.5 31t41.5 62l240 -66z" />
    <glyph glyph-name="Ccircumflex" unicode="&#x108;" horiz-adv-x="1137" 
d="M772 868q-10 21 -20 38.5t-22.5 32.5t-28.5 29t-37 29h-256q-8 -5 -19 -14.5t-22 -21t-21.5 -23.5t-17.5 -23v-610q0 -1 5.5 -9t16 -19t25 -24t33.5 -24h260q32 22 57 53.5t47 69.5l234 -57q-14 -38 -32 -70.5t-38 -60.5q-18 -26 -45 -56.5t-61.5 -56.5t-75.5 -43.5
t-88 -17.5h-269q-37 0 -73 11.5t-62 27.5q-16 10 -37.5 28.5t-42.5 40t-40 42.5t-29 36q-19 29 -27 62.5t-8 64.5v621q0 34 7.5 66t27.5 61q9 12 27 32.5t40 42t44 41.5t40 31q25 14 60.5 26.5t72.5 12.5h269q47 0 88 -17.5t74.5 -43t60.5 -56t45 -55.5q25 -34 41 -66.5
t29 -64.5zM588 1630l297 -278h-287l-72 80l-69 -80h-287l297 278h121z" />
    <glyph glyph-name="ccircumflex" unicode="&#x109;" horiz-adv-x="1087" 
d="M965 254q-11 -25 -25 -49.5t-27 -42.5q-18 -27 -45 -57.5t-61.5 -56t-75.5 -42t-86 -16.5h-235q-41 0 -79 8.5t-69 30.5q-16 10 -37.5 28.5t-42.5 40t-40 42.5t-29 36q-19 29 -27 62.5t-8 64.5v615q0 34 7.5 65.5t27.5 60.5q7 10 25.5 30.5t41 42.5t44.5 42t34 29
q31 22 72 35.5t82 13.5h233q46 0 87 -17.5t75 -43t61 -55t45 -54.5q8 -11 23.5 -37.5t26.5 -54.5l-240 -66q-23 45 -44.5 62t-41.5 26h-223q-8 -5 -20 -15.5t-24.5 -23t-23.5 -25.5t-18 -24v-610q0 -2 7 -10t18.5 -18.5t26.5 -22t32 -19.5h227q20 8 42.5 31t41.5 62l240 -66
zM578 1630l296 -278h-286l-72 80l-70 -80h-286l297 278h121z" />
    <glyph glyph-name="Cdotaccent" unicode="&#x10a;" horiz-adv-x="1137" 
d="M772 868q-10 21 -20 38.5t-22.5 32.5t-28.5 29t-37 29h-256q-8 -5 -19 -14.5t-22 -21t-21.5 -23.5t-17.5 -23v-610q0 -1 5.5 -9t16 -19t25 -24t33.5 -24h260q32 22 57 53.5t47 69.5l234 -57q-14 -38 -32 -70.5t-38 -60.5q-18 -26 -45 -56.5t-61.5 -56.5t-75.5 -43.5
t-88 -17.5h-269q-37 0 -73 11.5t-62 27.5q-16 10 -37.5 28.5t-42.5 40t-40 42.5t-29 36q-19 29 -27 62.5t-8 64.5v621q0 34 7.5 66t27.5 61q9 12 27 32.5t40 42t44 41.5t40 31q25 14 60.5 26.5t72.5 12.5h269q47 0 88 -17.5t74.5 -43t60.5 -56t45 -55.5q25 -34 41 -66.5
t29 -64.5zM406 1401v254h258v-254h-258z" />
    <glyph glyph-name="cdotaccent" unicode="&#x10b;" horiz-adv-x="1087" 
d="M965 254q-11 -25 -25 -49.5t-27 -42.5q-18 -27 -45 -57.5t-61.5 -56t-75.5 -42t-86 -16.5h-235q-41 0 -79 8.5t-69 30.5q-16 10 -37.5 28.5t-42.5 40t-40 42.5t-29 36q-19 29 -27 62.5t-8 64.5v615q0 34 7.5 65.5t27.5 60.5q7 10 25.5 30.5t41 42.5t44.5 42t34 29
q31 22 72 35.5t82 13.5h233q46 0 87 -17.5t75 -43t61 -55t45 -54.5q8 -11 23.5 -37.5t26.5 -54.5l-240 -66q-23 45 -44.5 62t-41.5 26h-223q-8 -5 -20 -15.5t-24.5 -23t-23.5 -25.5t-18 -24v-610q0 -2 7 -10t18.5 -18.5t26.5 -22t32 -19.5h227q20 8 42.5 31t41.5 62l240 -66
zM408 1401v254h258v-254h-258z" />
    <glyph glyph-name="Ccaron" unicode="&#x10c;" horiz-adv-x="1137" 
d="M772 868q-10 21 -20 38.5t-22.5 32.5t-28.5 29t-37 29h-256q-8 -5 -19 -14.5t-22 -21t-21.5 -23.5t-17.5 -23v-610q0 -1 5.5 -9t16 -19t25 -24t33.5 -24h260q32 22 57 53.5t47 69.5l234 -57q-14 -38 -32 -70.5t-38 -60.5q-18 -26 -45 -56.5t-61.5 -56.5t-75.5 -43.5
t-88 -17.5h-269q-37 0 -73 11.5t-62 27.5q-16 10 -37.5 28.5t-42.5 40t-40 42.5t-29 36q-19 29 -27 62.5t-8 64.5v621q0 34 7.5 66t27.5 61q9 12 27 32.5t40 42t44 41.5t40 31q25 14 60.5 26.5t72.5 12.5h269q47 0 88 -17.5t74.5 -43t60.5 -56t45 -55.5q25 -34 41 -66.5
t29 -64.5zM461 1352l-297 278h287l71 -80l70 80h287l-297 -278h-121z" />
    <glyph glyph-name="ccaron" unicode="&#x10d;" horiz-adv-x="1087" 
d="M965 254q-11 -25 -25 -49.5t-27 -42.5q-18 -27 -45 -57.5t-61.5 -56t-75.5 -42t-86 -16.5h-235q-41 0 -79 8.5t-69 30.5q-16 10 -37.5 28.5t-42.5 40t-40 42.5t-29 36q-19 29 -27 62.5t-8 64.5v615q0 34 7.5 65.5t27.5 60.5q7 10 25.5 30.5t41 42.5t44.5 42t34 29
q31 22 72 35.5t82 13.5h233q46 0 87 -17.5t75 -43t61 -55t45 -54.5q8 -11 23.5 -37.5t26.5 -54.5l-240 -66q-23 45 -44.5 62t-41.5 26h-223q-8 -5 -20 -15.5t-24.5 -23t-23.5 -25.5t-18 -24v-610q0 -2 7 -10t18.5 -18.5t26.5 -22t32 -19.5h227q20 8 42.5 31t41.5 62l240 -66
zM459 1352l-297 278h287l71 -80l70 80h287l-297 -278h-121z" />
    <glyph glyph-name="Dcaron" unicode="&#x10e;" horiz-adv-x="1145" 
d="M76 0zM987 309q0 -28 -7 -62t-26 -63q-11 -15 -29.5 -36t-40 -42t-43 -39t-38.5 -28q-26 -14 -61 -26.5t-70 -12.5h-596v1229h596q32 0 69 -9t66 -28q17 -11 38.5 -31t42 -42.5t38 -43.5t26.5 -33q22 -31 28.5 -63t6.5 -64v-606zM737 905q-14 34 -33 52t-42 32h-336v-749
h336q21 12 40.5 30t34.5 47v588zM455 1352l-297 278h287l71 -80l70 80h287l-297 -278h-121z" />
    <glyph glyph-name="dcaron" unicode="&#x10f;" horiz-adv-x="1145" 
d="M76 0zM977 309q0 -28 -7 -62t-26 -63q-11 -15 -29.5 -36t-40 -42t-43 -39t-38.5 -28q-26 -14 -61 -26.5t-70 -12.5h-586v1229h586q32 0 69 -9t66 -28q17 -11 38.5 -31t42 -42.5t38 -43.5t26.5 -33q22 -31 28.5 -63t6.5 -64v-606zM727 905q-14 34 -33.5 52t-42.5 32h-325
v-749h325q22 12 41.5 30t34.5 47v588zM453 1352l-297 278h287l71 -80l70 80h287l-297 -278h-121z" />
    <glyph glyph-name="Dcroat" unicode="&#x110;" horiz-adv-x="1206" 
d="M1038 309q0 -28 -7 -62t-25 -63q-11 -15 -29.5 -36t-40.5 -42t-43.5 -39t-38.5 -28q-26 -14 -61 -26.5t-70 -12.5h-586v502h-160v229h160v498h586q32 0 69 -9t66 -28q17 -11 38.5 -31t42 -42.5t38.5 -43.5t27 -33q21 -31 27.5 -63t6.5 -64v-606zM387 502v-262h326
q21 12 40.5 30t34.5 47v588q-14 34 -33 52t-42 32h-326v-258h201v-229h-201z" />
    <glyph glyph-name="dcroat" unicode="&#x111;" horiz-adv-x="1145" 
d="M977 309q0 -28 -7 -62t-26 -63q-11 -15 -29.5 -36t-40 -42t-43 -39t-38.5 -28q-26 -14 -61 -26.5t-70 -12.5h-586v502h-160v229h160v498h586q32 0 69 -9t66 -28q17 -11 38.5 -31t42 -42.5t38 -43.5t26.5 -33q22 -31 28.5 -63t6.5 -64v-606zM326 502v-262h325
q22 12 41.5 30t34.5 47v588q-14 34 -33.5 52t-42.5 32h-325v-258h200v-229h-200z" />
    <glyph glyph-name="Emacron" unicode="&#x112;" 
d="M76 0zM248 1399v219h465v-219h-465zM76 0v1229h807v-240h-557v-252h538v-239h-538v-258h557v-240h-807z" />
    <glyph glyph-name="emacron" unicode="&#x113;" 
d="M76 0zM248 1399v219h465v-219h-465zM76 0v1229h786v-240h-536v-254h518v-239h-518v-256h536v-240h-786z" />
    <glyph glyph-name="Ebreve" unicode="&#x114;" 
d="M76 0v1229h807v-240h-557v-252h538v-239h-538v-258h557v-240h-807zM717 1569q0 -46 -17.5 -86t-47 -69.5t-69 -46.5t-83.5 -17q-45 0 -85.5 17t-71 46.5t-49 69.5t-18.5 86h138q0 -18 7 -33.5t18.5 -27t27 -18.5t33.5 -7q17 0 31.5 7t25.5 18.5t17 27t6 33.5h137z" />
    <glyph glyph-name="ebreve" unicode="&#x115;" 
d="M76 0v1229h807v-240h-557v-252h538v-239h-538v-258h557v-240h-807zM717 1569q0 -46 -17.5 -86t-47 -69.5t-69 -46.5t-83.5 -17q-45 0 -85.5 17t-71 46.5t-49 69.5t-18.5 86h138q0 -18 7 -33.5t18.5 -27t27 -18.5t33.5 -7q17 0 31.5 7t25.5 18.5t17 27t6 33.5h137z" />
    <glyph glyph-name="Edotaccent" unicode="&#x116;" 
d="M76 0v1229h807v-240h-557v-252h538v-239h-538v-258h557v-240h-807zM354 1401v254h258v-254h-258z" />
    <glyph glyph-name="edotaccent" unicode="&#x117;" 
d="M76 0v1229h807v-240h-557v-252h538v-239h-538v-258h557v-240h-807zM354 1401v254h258v-254h-258z" />
    <glyph glyph-name="Eogonek" unicode="&#x118;" 
d="M76 0v1229h807v-240h-557v-252h538v-239h-538v-258h557v-240h-807zM338 -141l213 61l186 -328h-254z" />
    <glyph glyph-name="eogonek" unicode="&#x119;" 
d="M76 0v1229h807v-240h-557v-252h538v-239h-538v-258h557v-240h-807zM338 -141l213 61l186 -328h-254z" />
    <glyph glyph-name="Ecaron" unicode="&#x11a;" 
d="M76 0v1229h807v-240h-557v-252h538v-239h-538v-258h557v-240h-807zM416 1352l-297 278h287l71 -80l70 80h287l-297 -278h-121z" />
    <glyph glyph-name="ecaron" unicode="&#x11b;" 
d="M76 0v1229h807v-240h-557v-252h538v-239h-538v-258h557v-240h-807zM416 1352l-297 278h287l71 -80l70 80h287l-297 -278h-121z" />
    <glyph glyph-name="Gcircumflex" unicode="&#x11c;" horiz-adv-x="1214" 
d="M260 1200q26 16 62 26.5t73 10.5h312q46 0 87 -17.5t75 -43t61 -56t45 -55.5q25 -34 41 -66.5t28 -64.5l-231 -66q-10 21 -20 38.5t-22.5 32.5t-28.5 29t-37 29h-299q-7 -5 -17.5 -13t-21.5 -18.5t-22 -22.5t-19 -25v-621q0 -4 7 -12.5t18.5 -19t24.5 -20.5t25 -16h299
q12 6 25.5 16t25 21.5t19.5 21.5t8 15v184h-280v234h530v-461q0 -18 4 -48.5t10 -68.5l25 -145h-248l-8 37q-5 -2 -13.5 -7.5t-13.5 -9.5q-18 -11 -37 -19.5t-42 -8.5h-310q-38 0 -73.5 11.5t-61.5 27.5q-16 10 -37.5 28t-42.5 39t-40 42t-29 36q-19 29 -27 62.5t-8 64.5
v623q0 34 7.5 67t27.5 62q9 12 27 33t39.5 43t43.5 41.5t39 29.5zM614 1630l297 -278h-286l-72 80l-70 -80h-286l297 278h120z" />
    <glyph glyph-name="gcircumflex" unicode="&#x11d;" horiz-adv-x="1178" 
d="M784 0l-10 53q-11 -10 -23.5 -21t-26 -20.5t-27.5 -15.5t-27 -6h-273q-38 0 -73.5 11.5t-61.5 27.5q-16 10 -37.5 28t-42.5 39t-40 42t-29 36q-19 29 -27 62.5t-8 64.5v625q0 34 7.5 67t27.5 62q9 12 24.5 31t34 38.5t38 37.5t36.5 28q31 20 72 34.5t79 14.5h287
q46 0 87 -17.5t75 -43t61 -55t45 -54.5q14 -19 27.5 -43t24.5 -49l-242 -66q-23 45 -44.5 62t-41.5 26h-270q-13 -9 -37 -30t-41 -45v-627q0 -2 6 -9.5t16 -18t24 -21.5t29 -19h254q10 6 24 16t26.5 20.5t21 20.5t8.5 17v184h-186v234h436v-459q0 -17 2 -37.5t8 -52.5
q2 -14 8 -42.5t11 -57.5q6 -33 14 -72h-246zM602 1630l297 -278h-287l-71 80l-70 -80h-287l297 278h121z" />
    <glyph glyph-name="Gbreve" unicode="&#x11e;" horiz-adv-x="1214" 
d="M260 1200q26 16 62 26.5t73 10.5h312q46 0 87 -17.5t75 -43t61 -56t45 -55.5q25 -34 41 -66.5t28 -64.5l-231 -66q-10 21 -20 38.5t-22.5 32.5t-28.5 29t-37 29h-299q-7 -5 -17.5 -13t-21.5 -18.5t-22 -22.5t-19 -25v-621q0 -4 7 -12.5t18.5 -19t24.5 -20.5t25 -16h299
q12 6 25.5 16t25 21.5t19.5 21.5t8 15v184h-280v234h530v-461q0 -18 4 -48.5t10 -68.5l25 -145h-248l-8 37q-5 -2 -13.5 -7.5t-13.5 -9.5q-18 -11 -37 -19.5t-42 -8.5h-310q-38 0 -73.5 11.5t-61.5 27.5q-16 10 -37.5 28t-42.5 39t-40 42t-29 36q-19 29 -27 62.5t-8 64.5
v623q0 34 7.5 67t27.5 62q9 12 27 33t39.5 43t43.5 41.5t39 29.5zM793 1569q0 -46 -17.5 -86t-47 -69.5t-69 -46.5t-84.5 -17q-44 0 -84.5 17t-71.5 46.5t-49 69.5t-18 86h137q0 -18 7 -33.5t18.5 -27t27 -18.5t33.5 -7q35 0 57.5 25.5t22.5 60.5h138z" />
    <glyph glyph-name="gbreve" unicode="&#x11f;" horiz-adv-x="1178" 
d="M784 0l-10 53q-11 -10 -23.5 -21t-26 -20.5t-27.5 -15.5t-27 -6h-273q-38 0 -73.5 11.5t-61.5 27.5q-16 10 -37.5 28t-42.5 39t-40 42t-29 36q-19 29 -27 62.5t-8 64.5v625q0 34 7.5 67t27.5 62q9 12 24.5 31t34 38.5t38 37.5t36.5 28q31 20 72 34.5t79 14.5h287
q46 0 87 -17.5t75 -43t61 -55t45 -54.5q14 -19 27.5 -43t24.5 -49l-242 -66q-23 45 -44.5 62t-41.5 26h-270q-13 -9 -37 -30t-41 -45v-627q0 -2 6 -9.5t16 -18t24 -21.5t29 -19h254q10 6 24 16t26.5 20.5t21 20.5t8.5 17v184h-186v234h436v-459q0 -17 2 -37.5t8 -52.5
q2 -14 8 -42.5t11 -57.5q6 -33 14 -72h-246zM770 1569q0 -46 -17 -86t-46.5 -69.5t-69 -46.5t-84.5 -17t-85 17t-71 46.5t-49 69.5t-18 86h137q0 -18 7 -33.5t18.5 -27t27 -18.5t33.5 -7q17 0 31.5 7t25.5 18.5t17 27t6 33.5h137z" />
    <glyph glyph-name="Gdotaccent" unicode="&#x120;" horiz-adv-x="1214" 
d="M260 1200q26 16 62 26.5t73 10.5h312q46 0 87 -17.5t75 -43t61 -56t45 -55.5q25 -34 41 -66.5t28 -64.5l-231 -66q-10 21 -20 38.5t-22.5 32.5t-28.5 29t-37 29h-299q-7 -5 -17.5 -13t-21.5 -18.5t-22 -22.5t-19 -25v-621q0 -4 7 -12.5t18.5 -19t24.5 -20.5t25 -16h299
q12 6 25.5 16t25 21.5t19.5 21.5t8 15v184h-280v234h530v-461q0 -18 4 -48.5t10 -68.5l25 -145h-248l-8 37q-5 -2 -13.5 -7.5t-13.5 -9.5q-18 -11 -37 -19.5t-42 -8.5h-310q-38 0 -73.5 11.5t-61.5 27.5q-16 10 -37.5 28t-42.5 39t-40 42t-29 36q-19 29 -27 62.5t-8 64.5
v623q0 34 7.5 67t27.5 62q9 12 27 33t39.5 43t43.5 41.5t39 29.5zM453 1401v254h258v-254h-258z" />
    <glyph glyph-name="gdotaccent" unicode="&#x121;" horiz-adv-x="1178" 
d="M784 0l-10 53q-11 -10 -23.5 -21t-26 -20.5t-27.5 -15.5t-27 -6h-273q-38 0 -73.5 11.5t-61.5 27.5q-16 10 -37.5 28t-42.5 39t-40 42t-29 36q-19 29 -27 62.5t-8 64.5v625q0 34 7.5 67t27.5 62q9 12 24.5 31t34 38.5t38 37.5t36.5 28q31 20 72 34.5t79 14.5h287
q46 0 87 -17.5t75 -43t61 -55t45 -54.5q14 -19 27.5 -43t24.5 -49l-242 -66q-23 45 -44.5 62t-41.5 26h-270q-13 -9 -37 -30t-41 -45v-627q0 -2 6 -9.5t16 -18t24 -21.5t29 -19h254q10 6 24 16t26.5 20.5t21 20.5t8.5 17v184h-186v234h436v-459q0 -17 2 -37.5t8 -52.5
q2 -14 8 -42.5t11 -57.5q6 -33 14 -72h-246zM434 1401v254h258v-254h-258z" />
    <glyph glyph-name="Gcommaaccent" unicode="&#x122;" horiz-adv-x="1214" 
d="M260 1200q26 16 62 26.5t73 10.5h312q46 0 87 -17.5t75 -43t61 -56t45 -55.5q25 -34 41 -66.5t28 -64.5l-231 -66q-10 21 -20 38.5t-22.5 32.5t-28.5 29t-37 29h-299q-7 -5 -17.5 -13t-21.5 -18.5t-22 -22.5t-19 -25v-621q0 -4 7 -12.5t18.5 -19t24.5 -20.5t25 -16h299
q12 6 25.5 16t25 21.5t19.5 21.5t8 15v184h-280v234h530v-461q0 -18 4 -48.5t10 -68.5l25 -145h-248l-8 37q-5 -2 -13.5 -7.5t-13.5 -9.5q-18 -11 -37 -19.5t-42 -8.5h-310q-38 0 -73.5 11.5t-61.5 27.5q-16 10 -37.5 28t-42.5 39t-40 42t-29 36q-19 29 -27 62.5t-8 64.5
v623q0 34 7.5 67t27.5 62q9 12 27 33t39.5 43t43.5 41.5t39 29.5zM510 -408h-254l186 328l213 -61z" />
    <glyph glyph-name="gcommaaccent" unicode="&#x123;" horiz-adv-x="1178" 
d="M784 0l-10 53q-11 -10 -23.5 -21t-26 -20.5t-27.5 -15.5t-27 -6h-273q-38 0 -73.5 11.5t-61.5 27.5q-16 10 -37.5 28t-42.5 39t-40 42t-29 36q-19 29 -27 62.5t-8 64.5v625q0 34 7.5 67t27.5 62q9 12 24.5 31t34 38.5t38 37.5t36.5 28q31 20 72 34.5t79 14.5h287
q46 0 87 -17.5t75 -43t61 -55t45 -54.5q14 -19 27.5 -43t24.5 -49l-242 -66q-23 45 -44.5 62t-41.5 26h-270q-13 -9 -37 -30t-41 -45v-627q0 -2 6 -9.5t16 -18t24 -21.5t29 -19h254q10 6 24 16t26.5 20.5t21 20.5t8.5 17v184h-186v234h436v-459q0 -17 2 -37.5t8 -52.5
q2 -14 8 -42.5t11 -57.5q6 -33 14 -72h-246zM510 -408h-254l186 328l213 -61z" />
    <glyph glyph-name="Hcircumflex" unicode="&#x124;" horiz-adv-x="1161" 
d="M735 0v496h-409v-496h-250v1229h250v-494h409v494h250v-1229h-250zM584 1630l297 -278h-287l-72 80l-69 -80h-287l297 278h121z" />
    <glyph glyph-name="hcircumflex" unicode="&#x125;" horiz-adv-x="1161" 
d="M735 0v496h-409v-496h-250v1229h250v-494h409v494h250v-1229h-250zM584 1630l297 -278h-287l-72 80l-69 -80h-287l297 278h121z" />
    <glyph glyph-name="Hbar" unicode="&#x126;" horiz-adv-x="1161" 
d="M735 0v496h-409v-496h-250v934h-76v227h76v68h250v-68h409v68h250v-68h82v-227h-82v-934h-250zM735 735v199h-409v-199h409z" />
    <glyph glyph-name="hbar" unicode="&#x127;" horiz-adv-x="1161" 
d="M735 0v496h-409v-496h-250v934h-76v227h76v68h250v-68h409v68h250v-68h82v-227h-82v-934h-250zM735 735v199h-409v-199h409z" />
    <glyph glyph-name="Itilde" unicode="&#x128;" horiz-adv-x="502" 
d="M74 0v1229h252v-1229h-252zM346 1399q-11 28 -29.5 38t-29.5 7q-15 -3 -34 -8.5t-38 -12t-38 -12t-34 -8.5q-44 -8 -87 -2t-83 29.5t-74.5 66.5t-60.5 109l213 43q14 -31 29 -40t24 -7q35 6 74.5 21t73.5 22q44 7 87 0.5t82 -31t73.5 -67.5t60.5 -107z" />
    <glyph glyph-name="itilde" unicode="&#x129;" horiz-adv-x="502" 
d="M74 0v1229h252v-1229h-252zM346 1399q-11 28 -29.5 38t-29.5 7q-15 -3 -34 -8.5t-38 -12t-38 -12t-34 -8.5q-44 -8 -87 -2t-83 29.5t-74.5 66.5t-60.5 109l213 43q14 -31 29 -40t24 -7q35 6 74.5 21t73.5 22q44 7 87 0.5t82 -31t73.5 -67.5t60.5 -107z" />
    <glyph glyph-name="Imacron" unicode="&#x12a;" horiz-adv-x="510" 
d="M0 0zM-23 1399v219h465v-219h-465zM84 0v1229h252v-1229h-252z" />
    <glyph glyph-name="imacron" unicode="&#x12b;" horiz-adv-x="512" 
d="M0 0zM-30 1399v219h465v-219h-465zM84 0v1229h252v-1229h-252z" />
    <glyph glyph-name="Ibreve" unicode="&#x12c;" horiz-adv-x="502" 
d="M74 0v1229h252v-1229h-252zM422 1569q0 -46 -17 -86t-46.5 -69.5t-69 -46.5t-84.5 -17t-85 17t-71 46.5t-49 69.5t-18 86h137q0 -18 7 -33.5t18.5 -27t27 -18.5t33.5 -7q17 0 31.5 7t25.5 18.5t17 27t6 33.5h137z" />
    <glyph glyph-name="ibreve" unicode="&#x12d;" horiz-adv-x="502" 
d="M74 0v1229h252v-1229h-252zM422 1569q0 -46 -17 -86t-46.5 -69.5t-69 -46.5t-84.5 -17t-85 17t-71 46.5t-49 69.5t-18 86h137q0 -18 7 -33.5t18.5 -27t27 -18.5t33.5 -7q17 0 31.5 7t25.5 18.5t17 27t6 33.5h137z" />
    <glyph glyph-name="Iogonek" unicode="&#x12e;" horiz-adv-x="502" 
d="M74 0v1229h252v-1229h-252zM68 -141l213 61l186 -328h-254z" />
    <glyph glyph-name="iogonek" unicode="&#x12f;" horiz-adv-x="502" 
d="M74 0v1229h252v-1229h-252zM68 -141l213 61l186 -328h-254z" />
    <glyph glyph-name="Idotaccent" unicode="&#x130;" horiz-adv-x="502" 
d="M74 0v1229h252v-1229h-252zM70 1401v254h258v-254h-258z" />
    <glyph glyph-name="dotlessi" unicode="&#x131;" horiz-adv-x="502" 
d="M74 0v1229h252v-1229h-252z" />
    <glyph glyph-name="IJ" unicode="&#x132;" horiz-adv-x="1466" 
d="M74 0v1229h252v-1229h-252zM897 -10h-74q-47 0 -88 17.5t-75.5 43.5t-61.5 56.5t-45 56.5q-20 28 -38 60.5t-32 70.5l234 57q21 -38 46.5 -69.5t57.5 -53.5h148q6 0 18.5 9.5t25 21.5t22 23.5t9.5 15.5v930h250v-928q0 -32 -9.5 -65t-29.5 -62q-8 -13 -25.5 -34
t-38.5 -43t-42.5 -41t-38.5 -29q-28 -16 -63 -27.5t-72 -11.5h-78v2z" />
    <glyph glyph-name="ij" unicode="&#x133;" horiz-adv-x="1427" 
d="M74 0v1229h252v-1229h-252zM1262 303q0 -32 -8.5 -65t-26.5 -62q-9 -13 -27 -33.5t-40 -42.5t-44.5 -41.5t-40.5 -29.5h2q-26 -16 -61 -27.5t-72 -11.5h-147q-47 0 -88.5 17t-76 43t-62.5 56.5t-48 57.5q-8 11 -17.5 32.5t-23.5 59.5l240 66q18 -42 38 -62.5t36 -30.5
h143q1 0 9 5t19.5 14.5t24 22.5t21.5 28v930h250v-926z" />
    <glyph glyph-name="Jcircumflex" unicode="&#x134;" horiz-adv-x="952" 
d="M383 -10h-74q-47 0 -88 17.5t-75.5 43.5t-61.5 56.5t-45 56.5q-20 28 -38 60.5t-32 70.5l234 57q21 -38 46.5 -69.5t57.5 -53.5h148q6 0 18.5 9.5t25 21.5t22 23.5t9.5 15.5v930h250v-928q0 -32 -9.5 -65t-29.5 -62q-8 -13 -25.5 -34t-38.5 -43t-42.5 -41t-38.5 -29
q-28 -16 -63 -27.5t-72 -11.5h-78v2zM709 1630l297 -278h-287l-72 80l-69 -80h-287l297 278h121z" />
    <glyph glyph-name="jcircumflex" unicode="&#x135;" horiz-adv-x="926" 
d="M760 303q0 -32 -8 -65t-27 -62q-9 -13 -27 -33.5t-39.5 -42.5t-44 -41.5t-41.5 -29.5h2q-26 -16 -60.5 -27.5t-72.5 -11.5h-147q-47 0 -88 17t-76 43t-63 56.5t-48 57.5q-8 11 -17 32.5t-23 59.5l239 66q19 -42 38.5 -62.5t35.5 -30.5h143q1 0 9 5t19.5 14.5t24 22.5
t21.5 28v930h250v-926zM690 1630l297 -278h-287l-71 80l-70 -80h-287l297 278h121z" />
    <glyph glyph-name="Kcommaaccent" unicode="&#x136;" horiz-adv-x="1087" 
d="M76 0zM510 -408h-254l186 328l213 -61zM713 0l-367 508h-20v-508h-250v1229h250v-500h20q1 0 18 21.5t43 56.5t59 80t67 92l182 250h295l-453 -606q1 -1 21.5 -28.5t53 -71t73.5 -99.5t84 -114q100 -136 227 -310h-303z" />
    <glyph glyph-name="kcommaaccent" unicode="&#x137;" horiz-adv-x="1087" 
d="M76 0zM510 -408h-254l186 328l213 -61zM713 0l-367 508h-20v-508h-250v1229h250v-500h20q1 0 18 21.5t43 56.5t59 80t67 92l182 250h295l-453 -606q1 -1 21.5 -28.5t53 -71t73.5 -99.5t84 -114q100 -136 227 -310h-303z" />
    <glyph glyph-name="kgreenlandic" unicode="&#x138;" horiz-adv-x="1087" 
d="M713 0l-367 508h-20v-508h-250v1229h250v-500h20q1 0 17.5 20.5t42 54.5t57.5 78t65.5 89.5t65.5 90t58 80t42.5 58t18.5 25.5l-2 4h309v-238h-189l-274 -368q1 -1 21.5 -28.5t53 -71t73.5 -99.5t84 -114q100 -136 227 -310h-303z" />
    <glyph glyph-name="Lacute" unicode="&#x139;" horiz-adv-x="961" 
d="M76 0v1229h250v-987h544v-242h-794zM90 1352l191 278h266l-215 -278h-242z" />
    <glyph glyph-name="lacute" unicode="&#x13a;" horiz-adv-x="961" 
d="M75 0zM76 0v1229h250v-987h544v-242h-794zM75 1352l191 278h266l-215 -278h-242z" />
    <glyph glyph-name="Lcommaaccent" unicode="&#x13b;" horiz-adv-x="961" 
d="M76 0zM510 -408h-254l186 328l213 -61zM76 0v1229h250v-987h544v-242h-794z" />
    <glyph glyph-name="lcommaaccent" unicode="&#x13c;" horiz-adv-x="961" 
d="M76 0zM510 -408h-254l186 328l213 -61zM76 0v1229h250v-987h544v-242h-794z" />
    <glyph glyph-name="Lcaron" unicode="&#x13d;" horiz-adv-x="961" 
d="M739 864h-241l20 187v272h242v-301zM76 0v1229h250v-987h544v-242h-794z" />
    <glyph glyph-name="lcaron" unicode="&#x13e;" horiz-adv-x="961" 
d="M739 864h-241l20 187v272h242v-301zM76 0v1229h250v-987h544v-242h-794z" />
    <glyph glyph-name="Ldot" unicode="&#x13f;" horiz-adv-x="961" 
d="M76 0v1229h250v-987h544v-242h-794zM504 485v254h258v-254h-258z" />
    <glyph glyph-name="ldot" unicode="&#x140;" horiz-adv-x="961" 
d="M76 0v1229h250v-987h544v-242h-794zM504 485v254h258v-254h-258z" />
    <glyph glyph-name="Lslash" unicode="&#x141;" horiz-adv-x="961" 
d="M326 532v-292h544v-242h-794v401l-66 -34l-108 202l174 92v568h250v-434l114 61l109 -203z" />
    <glyph glyph-name="lslash" unicode="&#x142;" horiz-adv-x="961" 
d="M326 532v-292h544v-242h-794v401l-66 -34l-108 202l174 92v568h250v-434l114 61l109 -203z" />
    <glyph glyph-name="Nacute" unicode="&#x143;" horiz-adv-x="1153" 
d="M723 0l-397 723v-723h-250v1229h256l393 -733v733h250v-1229h-252zM358 1352l191 278h266l-215 -278h-242z" />
    <glyph glyph-name="nacute" unicode="&#x144;" horiz-adv-x="1153" 
d="M723 0l-397 723v-723h-250v1229h256l393 -733v733h250v-1229h-252zM358 1352l191 278h266l-215 -278h-242z" />
    <glyph glyph-name="Ncommaaccent" unicode="&#x145;" horiz-adv-x="1153" 
d="M76 0zM510 -408h-254l186 328l213 -61zM723 0l-397 723v-723h-250v1229h256l393 -733v733h250v-1229h-252z" />
    <glyph glyph-name="ncommaaccent" unicode="&#x146;" horiz-adv-x="1153" 
d="M76 0zM510 -408h-254l186 328l213 -61zM723 0l-397 723v-723h-250v1229h256l393 -733v733h250v-1229h-252z" />
    <glyph glyph-name="Ncaron" unicode="&#x147;" horiz-adv-x="1153" 
d="M723 0l-397 723v-723h-250v1229h256l393 -733v733h250v-1229h-252zM455 1352l-297 278h286l72 -80l70 80h286l-297 -278h-120z" />
    <glyph glyph-name="ncaron" unicode="&#x148;" horiz-adv-x="1153" 
d="M723 0l-397 723v-723h-250v1229h256l393 -733v733h250v-1229h-252zM455 1352l-297 278h286l72 -80l70 80h286l-297 -278h-120z" />
    <glyph glyph-name="napostrophe" unicode="&#x149;" horiz-adv-x="1372" 
d="M184 864h-241l20 187v272h242v-301zM942 0l-397 723v-723h-250v1229h256l393 -733v733h250v-1229h-252z" />
    <glyph glyph-name="Eng" unicode="&#x14a;" horiz-adv-x="1153" 
d="M973 -106q0 -33 -8 -65.5t-27 -61.5q-9 -13 -27 -34t-39.5 -42.5t-44 -41t-41.5 -30.5h2q-26 -15 -60.5 -27t-72.5 -12h-143l-0.5 10.5t-1 27t-0.5 38v44.5v120h139q1 0 9 5t19.5 14t24 22t21.5 28v111l-397 723v-723h-250v1229h256l391 -729l2 729h250v-1229h-2v-106z
" />
    <glyph glyph-name="eng" unicode="&#x14b;" horiz-adv-x="1153" 
d="M973 -106q0 -33 -8 -65.5t-27 -61.5q-9 -13 -27 -34t-39.5 -42.5t-44 -41t-41.5 -30.5h2q-26 -15 -60.5 -27t-72.5 -12h-143l-0.5 10.5t-1 27t-0.5 38v44.5v120h139q1 0 9 5t19.5 14t24 22t21.5 28v111l-397 723v-723h-250v1229h256l391 -729l2 729h250v-1229h-2v-106z
" />
    <glyph glyph-name="Omacron" unicode="&#x14c;" horiz-adv-x="1190" 
d="M72 0zM1022 305q0 -32 -7.5 -65t-27.5 -62q-10 -13 -28 -34.5t-39.5 -43.5t-43 -41.5t-38.5 -29.5q-26 -16 -62 -27.5t-74 -11.5h-311q-38 0 -73.5 11.5t-61.5 27.5q-17 10 -39 29.5t-43.5 41.5t-40 43.5t-27.5 34.5q-20 29 -27 62t-7 65v617q0 34 7 67t27 62
q9 12 27.5 32.5t40 42.5t43.5 42t39 30q26 16 61.5 27.5t73.5 11.5h311q38 0 74 -11.5t62 -27.5q17 -10 38.5 -30t43 -42t39.5 -42.5t28 -32.5q20 -29 27.5 -62t7.5 -67v-617zM772 922q-5 9 -14.5 20t-20 22t-21 19.5t-18.5 13.5h-301q-12 -9 -34.5 -30t-40.5 -47v-615
q8 -12 18.5 -23.5t20.5 -22t19 -18.5t15 -12h301q13 10 36 32t40 44v617zM326 1399v219h465v-219h-465z" />
    <glyph glyph-name="omacron" unicode="&#x14d;" horiz-adv-x="1161" 
d="M74 0zM305 1399v219h465v-219h-465zM991 305q0 -31 -8.5 -64.5t-28.5 -62.5q-10 -14 -28 -35.5t-39 -43.5t-42.5 -41t-37.5 -29q-26 -16 -62 -27.5t-73 -11.5h-279q-38 0 -73.5 11.5t-61.5 27.5q-17 10 -39 29.5t-43.5 41.5t-39.5 43.5t-27 34.5q-20 29 -27.5 62t-7.5 65
v617q0 34 7.5 67t27.5 62q9 12 27 32.5t39.5 42.5t43.5 42t39 30q26 16 61.5 27.5t73.5 11.5h279q35 0 72 -11.5t63 -27.5q16 -10 37 -29.5t42 -41.5t39 -42.5t29 -33.5q20 -29 28.5 -63t8.5 -66v-617zM739 922q-5 10 -14 21t-19 21.5t-20.5 19t-17.5 13.5h-269
q-12 -9 -34.5 -30t-40.5 -47v-613q8 -12 18.5 -23.5t20.5 -22t19 -18.5t15 -12h269q6 4 15 12t19 18t20.5 22t18.5 24v615z" />
    <glyph glyph-name="Obreve" unicode="&#x14e;" horiz-adv-x="1190" 
d="M72 0zM776 1569q0 -46 -17.5 -86t-47 -69.5t-69 -46.5t-83.5 -17q-45 0 -85.5 17t-71 46.5t-49 69.5t-18.5 86h138q0 -18 7 -33.5t18.5 -27t27 -18.5t33.5 -7q17 0 31.5 7t25.5 18.5t17 27t6 33.5h137zM1022 305q0 -32 -7.5 -65t-27.5 -62q-10 -13 -28 -34.5t-39.5 -43.5
t-43 -41.5t-38.5 -29.5q-26 -16 -62 -27.5t-74 -11.5h-311q-38 0 -73.5 11.5t-61.5 27.5q-17 10 -39 29.5t-43.5 41.5t-40 43.5t-27.5 34.5q-20 29 -27 62t-7 65v617q0 34 7 67t27 62q9 12 27.5 32.5t40 42.5t43.5 42t39 30q26 16 61.5 27.5t73.5 11.5h311q38 0 74 -11.5
t62 -27.5q17 -10 38.5 -30t43 -42t39.5 -42.5t28 -32.5q20 -29 27.5 -62t7.5 -67v-617zM772 922q-5 9 -14.5 20t-20 22t-21 19.5t-18.5 13.5h-301q-12 -9 -34.5 -30t-40.5 -47v-615q8 -12 18.5 -23.5t20.5 -22t19 -18.5t15 -12h301q13 10 36 32t40 44v617z" />
    <glyph glyph-name="obreve" unicode="&#x14f;" horiz-adv-x="1161" 
d="M74 0zM991 305q0 -31 -8.5 -64.5t-28.5 -62.5q-10 -14 -28 -35.5t-39 -43.5t-42.5 -41t-37.5 -29q-26 -16 -62 -27.5t-73 -11.5h-279q-38 0 -73.5 11.5t-61.5 27.5q-17 10 -39 29.5t-43.5 41.5t-39.5 43.5t-27 34.5q-20 29 -27.5 62t-7.5 65v617q0 34 7.5 67t27.5 62
q9 12 27 32.5t39.5 42.5t43.5 42t39 30q26 16 61.5 27.5t73.5 11.5h279q35 0 72 -11.5t63 -27.5q16 -10 37 -29.5t42 -41.5t39 -42.5t29 -33.5q20 -29 28.5 -63t8.5 -66v-617zM739 922q-5 10 -14 21t-19 21.5t-20.5 19t-17.5 13.5h-269q-12 -9 -34.5 -30t-40.5 -47v-613
q8 -12 18.5 -23.5t20.5 -22t19 -18.5t15 -12h269q6 4 15 12t19 18t20.5 22t18.5 24v615zM764 1569q0 -46 -17.5 -86t-47 -69.5t-69 -46.5t-83.5 -17q-45 0 -85.5 17t-71 46.5t-49 69.5t-18.5 86h138q0 -18 7 -33.5t18.5 -27t27 -18.5t33.5 -7q17 0 31.5 7t25.5 18.5t17 27
t6 33.5h137z" />
    <glyph glyph-name="Ohungarumlaut" unicode="&#x150;" horiz-adv-x="1190" 
d="M72 0zM1022 305q0 -32 -7.5 -65t-27.5 -62q-10 -13 -28 -34.5t-39.5 -43.5t-43 -41.5t-38.5 -29.5q-26 -16 -62 -27.5t-74 -11.5h-311q-38 0 -73.5 11.5t-61.5 27.5q-17 10 -39 29.5t-43.5 41.5t-40 43.5t-27.5 34.5q-20 29 -27 62t-7 65v617q0 34 7 67t27 62
q9 12 27.5 32.5t40 42.5t43.5 42t39 30q26 16 61.5 27.5t73.5 11.5h311q38 0 74 -11.5t62 -27.5q17 -10 38.5 -30t43 -42t39.5 -42.5t28 -32.5q20 -29 27.5 -62t7.5 -67v-617zM772 922q-5 9 -14.5 20t-20 22t-21 19.5t-18.5 13.5h-301q-12 -9 -34.5 -30t-40.5 -47v-615
q8 -12 18.5 -23.5t20.5 -22t19 -18.5t15 -12h301q13 10 36 32t40 44v617zM585 1352l150 278h213l-154 -278h-209zM272 1352l149 278h213l-153 -278h-209z" />
    <glyph glyph-name="ohungarumlaut" unicode="&#x151;" horiz-adv-x="1161" 
d="M74 0zM585 1352l150 278h213l-154 -278h-209zM272 1352l149 278h213l-153 -278h-209zM991 305q0 -31 -8.5 -64.5t-28.5 -62.5q-10 -14 -28 -35.5t-39 -43.5t-42.5 -41t-37.5 -29q-26 -16 -62 -27.5t-73 -11.5h-279q-38 0 -73.5 11.5t-61.5 27.5q-17 10 -39 29.5
t-43.5 41.5t-39.5 43.5t-27 34.5q-20 29 -27.5 62t-7.5 65v617q0 34 7.5 67t27.5 62q9 12 27 32.5t39.5 42.5t43.5 42t39 30q26 16 61.5 27.5t73.5 11.5h279q35 0 72 -11.5t63 -27.5q16 -10 37 -29.5t42 -41.5t39 -42.5t29 -33.5q20 -29 28.5 -63t8.5 -66v-617zM739 922
q-5 10 -14 21t-19 21.5t-20.5 19t-17.5 13.5h-269q-12 -9 -34.5 -30t-40.5 -47v-613q8 -12 18.5 -23.5t20.5 -22t19 -18.5t15 -12h269q6 4 15 12t19 18t20.5 22t18.5 24v615z" />
    <glyph glyph-name="OE" unicode="&#x152;" horiz-adv-x="1665" 
d="M754 0v10q-23 -9 -48.5 -14.5t-50.5 -5.5h-258q-38 0 -73.5 11.5t-61.5 27.5q-17 10 -39 29.5t-43.5 41.5t-39.5 43.5t-27 34.5q-20 29 -27.5 62t-7.5 65v617q0 34 7.5 67t27.5 62q9 12 27 32.5t39.5 42.5t43.5 42t39 30q26 16 61.5 27.5t73.5 11.5h258q25 0 50.5 -5.5
t48.5 -14.5v12h737v-240h-516v-254h498v-239h-498v-256h516v-240h-737zM723 922q-5 10 -14 21t-19.5 21.5t-20.5 19t-18 13.5h-248q-12 -9 -34.5 -30t-40.5 -47v-613q8 -12 18.5 -23.5t20.5 -22t19 -18.5t15 -12h248q13 8 35 29.5t39 46.5v615z" />
    <glyph glyph-name="oe" unicode="&#x153;" horiz-adv-x="1665" 
d="M754 0v10q-23 -9 -48.5 -14.5t-50.5 -5.5h-258q-38 0 -73.5 11.5t-61.5 27.5q-17 10 -39 29.5t-43.5 41.5t-39.5 43.5t-27 34.5q-20 29 -27.5 62t-7.5 65v617q0 34 7.5 67t27.5 62q9 12 27 32.5t39.5 42.5t43.5 42t39 30q26 16 61.5 27.5t73.5 11.5h258q25 0 50.5 -5.5
t48.5 -14.5v12h737v-240h-516v-254h498v-239h-498v-256h516v-240h-737zM723 922q-5 10 -14 21t-19.5 21.5t-20.5 19t-18 13.5h-248q-12 -9 -34.5 -30t-40.5 -47v-613q8 -12 18.5 -23.5t20.5 -22t19 -18.5t15 -12h248q13 8 35 29.5t39 46.5v615z" />
    <glyph glyph-name="Racute" unicode="&#x154;" horiz-adv-x="1157" 
d="M977 760q0 -37 -9.5 -70.5t-29.5 -62.5q-7 -11 -21 -26.5t-30.5 -32t-32.5 -30.5t-27 -22q-12 -9 -24 -15.5t-25 -13.5q19 -35 40.5 -74t43.5 -80t44.5 -81.5t42.5 -77.5q48 -87 95 -174h-278l-244 469h-196v-469h-250v1229h598q38 0 81 -13t72 -34q11 -9 27 -24
t32 -31.5t30 -32t22 -25.5q20 -28 29.5 -64.5t9.5 -70.5v-174zM727 940q-8 12 -23 26.5t-30 22.5h-348v-280h348q2 0 9 4.5t15 12t16 16t13 16.5v182zM328 1352l190 278h266l-215 -278h-241z" />
    <glyph glyph-name="racute" unicode="&#x155;" horiz-adv-x="1122" 
d="M76 0zM360 1352l191 278h266l-215 -278h-242zM956 760q0 -76 -38 -133q-7 -11 -21 -26.5t-30.5 -32t-32.5 -30.5t-27 -22t-23 -15t-24 -12q18 -35 39 -74t43 -80t43 -82t41 -78q46 -87 92 -175h-279l-233 469h-180v-469h-250v1229h577q39 0 82 -13t72 -34q11 -9 26.5 -24
t32 -31.5t30.5 -32t22 -25.5q20 -28 29 -64.5t9 -70.5v-174zM707 940q-8 12 -23 26.5t-31 22.5h-327v-280h327q2 0 9 4.5t15.5 12t16.5 16t13 16.5v182z" />
    <glyph glyph-name="Rcommaaccent" unicode="&#x156;" horiz-adv-x="1157" 
d="M977 760q0 -37 -9.5 -70.5t-29.5 -62.5q-7 -11 -21 -26.5t-30.5 -32t-32.5 -30.5t-27 -22q-12 -9 -24 -15.5t-25 -13.5q19 -35 40.5 -74t43.5 -80t44.5 -81.5t42.5 -77.5q48 -87 95 -174h-278l-244 469h-196v-469h-250v1229h598q38 0 81 -13t72 -34q11 -9 27 -24
t32 -31.5t30 -32t22 -25.5q20 -28 29.5 -64.5t9.5 -70.5v-174zM727 940q-8 12 -23 26.5t-30 22.5h-348v-280h348q2 0 9 4.5t15 12t16 16t13 16.5v182zM510 -408h-254l186 328l213 -61z" />
    <glyph glyph-name="rcommaaccent" unicode="&#x157;" horiz-adv-x="1157" 
d="M977 760q0 -37 -9.5 -70.5t-29.5 -62.5q-7 -11 -21 -26.5t-30.5 -32t-32.5 -30.5t-27 -22q-12 -9 -24 -15.5t-25 -13.5q19 -35 40.5 -74t43.5 -80t44.5 -81.5t42.5 -77.5q48 -87 95 -174h-278l-244 469h-196v-469h-250v1229h598q38 0 81 -13t72 -34q11 -9 27 -24
t32 -31.5t30 -32t22 -25.5q20 -28 29.5 -64.5t9.5 -70.5v-174zM727 940q-8 12 -23 26.5t-30 22.5h-348v-280h348q2 0 9 4.5t15 12t16 16t13 16.5v182zM510 -408h-254l186 328l213 -61z" />
    <glyph glyph-name="Rcaron" unicode="&#x158;" horiz-adv-x="1157" 
d="M977 760q0 -37 -9.5 -70.5t-29.5 -62.5q-7 -11 -21 -26.5t-30.5 -32t-32.5 -30.5t-27 -22q-12 -9 -24 -15.5t-25 -13.5q19 -35 40.5 -74t43.5 -80t44.5 -81.5t42.5 -77.5q48 -87 95 -174h-278l-244 469h-196v-469h-250v1229h598q38 0 81 -13t72 -34q11 -9 27 -24
t32 -31.5t30 -32t22 -25.5q20 -28 29.5 -64.5t9.5 -70.5v-174zM727 940q-8 12 -23 26.5t-30 22.5h-348v-280h348q2 0 9 4.5t15 12t16 16t13 16.5v182zM459 1352l-297 278h287l71 -80l70 80h287l-297 -278h-121z" />
    <glyph glyph-name="rcaron" unicode="&#x159;" horiz-adv-x="1157" 
d="M977 760q0 -37 -9.5 -70.5t-29.5 -62.5q-7 -11 -21 -26.5t-30.5 -32t-32.5 -30.5t-27 -22q-12 -9 -24 -15.5t-25 -13.5q19 -35 40.5 -74t43.5 -80t44.5 -81.5t42.5 -77.5q48 -87 95 -174h-278l-244 469h-196v-469h-250v1229h598q38 0 81 -13t72 -34q11 -9 27 -24
t32 -31.5t30 -32t22 -25.5q20 -28 29.5 -64.5t9.5 -70.5v-174zM727 940q-8 12 -23 26.5t-30 22.5h-348v-280h348q2 0 9 4.5t15 12t16 16t13 16.5v182zM459 1352l-297 278h287l71 -80l70 80h287l-297 -278h-121z" />
    <glyph glyph-name="Sacute" unicode="&#x15a;" horiz-adv-x="1157" 
d="M395 997q-12 -6 -25.5 -17.5t-25 -23t-18.5 -20.5t-7 -10v-109q0 -6 3 -9q2 -2 4 -3l520 -141q42 -12 74 -36.5t53 -56.5t32 -70t11 -75v-121q0 -25 -8.5 -60.5t-28.5 -66.5q-10 -15 -28.5 -36.5t-40.5 -43t-43.5 -40.5t-37.5 -29q-24 -14 -61 -26.5t-74 -12.5h-313
q-47 0 -88 17.5t-75.5 43.5t-61.5 56.5t-45 56.5q-20 28 -38 60.5t-32 70.5l231 72q22 -39 48.5 -77.5t58.5 -60.5h311q12 6 25 17.5t24 23t18 20t7 9.5v121q0 4 -1 6l-2 4q-2 2 -3 2q-128 34 -258 69.5t-260 69.5q-43 12 -75 36.5t-53 56.5t-31.5 69.5t-10.5 75.5v113
q0 27 6 62.5t26 66.5q9 13 28 33.5t41 42t44.5 41t40.5 30.5q25 14 60.5 26.5t72.5 12.5h291q47 0 88 -17.5t74.5 -43t60.5 -56t45 -55.5q25 -34 41 -66.5t29 -64.5l-232 -66q-10 21 -20 38.5t-22.5 32.5t-28.5 29t-37 29h-283zM375 1352l190 278h266l-215 -278h-241z" />
    <glyph glyph-name="sacute" unicode="&#x15b;" horiz-adv-x="1104" 
d="M969 303q0 -26 -6.5 -62t-26.5 -67q-7 -11 -25 -31.5t-39.5 -42.5t-42 -41t-30.5 -26q-32 -23 -73 -34t-81 -11h-295q-45 0 -85.5 17t-74.5 42.5t-61.5 56t-46.5 56.5q-12 14 -26 43t-25 51l243 65q16 -37 38.5 -59.5t37.5 -32.5h303q11 6 22.5 17.5t21.5 23t16 20t6 9.5
v123q0 3 -1 5l-2 4l-3 3q-122 34 -245 69.5t-247 69.5q-42 12 -74 36.5t-53 56.5t-32 69.5t-11 75.5v113q0 27 6.5 62.5t26.5 66.5q7 9 24 28.5t37.5 41t41 41t32.5 28.5q31 22 72 35.5t82 13.5h262q45 0 86.5 -16.5t76 -42t61.5 -55.5t44 -56q7 -12 13 -22t12 -20.5
t11.5 -22.5t12.5 -27l-239 -66q-19 38 -43.5 57.5t-42.5 30.5h-242q-15 -8 -30 -20t-27 -23.5t-19.5 -20t-7.5 -9.5v-109q0 -6 3 -9q1 -2 3 -3q122 -35 246 -70.5t248 -70.5q41 -12 72.5 -37t52.5 -57.5t32 -69.5t11 -74v-123zM358 1352l191 278h266l-215 -278h-242z" />
    <glyph glyph-name="Scircumflex" unicode="&#x15c;" horiz-adv-x="1157" 
d="M395 997q-12 -6 -25.5 -17.5t-25 -23t-18.5 -20.5t-7 -10v-109q0 -6 3 -9q2 -2 4 -3l520 -141q42 -12 74 -36.5t53 -56.5t32 -70t11 -75v-121q0 -25 -8.5 -60.5t-28.5 -66.5q-10 -15 -28.5 -36.5t-40.5 -43t-43.5 -40.5t-37.5 -29q-24 -14 -61 -26.5t-74 -12.5h-313
q-47 0 -88 17.5t-75.5 43.5t-61.5 56.5t-45 56.5q-20 28 -38 60.5t-32 70.5l231 72q22 -39 48.5 -77.5t58.5 -60.5h311q12 6 25 17.5t24 23t18 20t7 9.5v121q0 4 -1 6l-2 4q-2 2 -3 2q-128 34 -258 69.5t-260 69.5q-43 12 -75 36.5t-53 56.5t-31.5 69.5t-10.5 75.5v113
q0 27 6 62.5t26 66.5q9 13 28 33.5t41 42t44.5 41t40.5 30.5q25 14 60.5 26.5t72.5 12.5h291q47 0 88 -17.5t74.5 -43t60.5 -56t45 -55.5q25 -34 41 -66.5t29 -64.5l-232 -66q-10 21 -20 38.5t-22.5 32.5t-28.5 29t-37 29h-283zM604 1630l297 -278h-287l-71 80l-70 -80h-287
l297 278h121z" />
    <glyph glyph-name="scircumflex" unicode="&#x15d;" horiz-adv-x="1104" 
d="M969 303q0 -26 -6.5 -62t-26.5 -67q-7 -11 -25 -31.5t-39.5 -42.5t-42 -41t-30.5 -26q-32 -23 -73 -34t-81 -11h-295q-45 0 -85.5 17t-74.5 42.5t-61.5 56t-46.5 56.5q-12 14 -26 43t-25 51l243 65q16 -37 38.5 -59.5t37.5 -32.5h303q11 6 22.5 17.5t21.5 23t16 20t6 9.5
v123q0 3 -1 5l-2 4l-3 3q-122 34 -245 69.5t-247 69.5q-42 12 -74 36.5t-53 56.5t-32 69.5t-11 75.5v113q0 27 6.5 62.5t26.5 66.5q7 9 24 28.5t37.5 41t41 41t32.5 28.5q31 22 72 35.5t82 13.5h262q45 0 86.5 -16.5t76 -42t61.5 -55.5t44 -56q7 -12 13 -22t12 -20.5
t11.5 -22.5t12.5 -27l-239 -66q-19 38 -43.5 57.5t-42.5 30.5h-242q-15 -8 -30 -20t-27 -23.5t-19.5 -20t-7.5 -9.5v-109q0 -6 3 -9q1 -2 3 -3q122 -35 246 -70.5t248 -70.5q41 -12 72.5 -37t52.5 -57.5t32 -69.5t11 -74v-123zM557 1630l297 -278h-287l-71 80l-70 -80h-287
l297 278h121z" />
    <glyph glyph-name="Scedilla" unicode="&#x15e;" horiz-adv-x="1157" 
d="M395 997q-12 -6 -25.5 -17.5t-25 -23t-18.5 -20.5t-7 -10v-109q0 -6 3 -9q2 -2 4 -3l520 -141q42 -12 74 -36.5t53 -56.5t32 -70t11 -75v-121q0 -25 -8.5 -60.5t-28.5 -66.5q-10 -15 -28.5 -36.5t-40.5 -43t-43.5 -40.5t-37.5 -29q-24 -14 -61 -26.5t-74 -12.5h-313
q-47 0 -88 17.5t-75.5 43.5t-61.5 56.5t-45 56.5q-20 28 -38 60.5t-32 70.5l231 72q22 -39 48.5 -77.5t58.5 -60.5h311q12 6 25 17.5t24 23t18 20t7 9.5v121q0 4 -1 6l-2 4q-2 2 -3 2q-128 34 -258 69.5t-260 69.5q-43 12 -75 36.5t-53 56.5t-31.5 69.5t-10.5 75.5v113
q0 27 6 62.5t26 66.5q9 13 28 33.5t41 42t44.5 41t40.5 30.5q25 14 60.5 26.5t72.5 12.5h291q47 0 88 -17.5t74.5 -43t60.5 -56t45 -55.5q25 -34 41 -66.5t29 -64.5l-232 -66q-10 21 -20 38.5t-22.5 32.5t-28.5 29t-37 29h-283zM510 -408h-254l186 328l213 -61z" />
    <glyph glyph-name="scedilla" unicode="&#x15f;" horiz-adv-x="1104" 
d="M969 303q0 -26 -6.5 -62t-26.5 -67q-7 -11 -25 -31.5t-39.5 -42.5t-42 -41t-30.5 -26q-32 -23 -73 -34t-81 -11h-295q-45 0 -85.5 17t-74.5 42.5t-61.5 56t-46.5 56.5q-12 14 -26 43t-25 51l243 65q16 -37 38.5 -59.5t37.5 -32.5h303q11 6 22.5 17.5t21.5 23t16 20t6 9.5
v123q0 3 -1 5l-2 4l-3 3q-122 34 -245 69.5t-247 69.5q-42 12 -74 36.5t-53 56.5t-32 69.5t-11 75.5v113q0 27 6.5 62.5t26.5 66.5q7 9 24 28.5t37.5 41t41 41t32.5 28.5q31 22 72 35.5t82 13.5h262q45 0 86.5 -16.5t76 -42t61.5 -55.5t44 -56q7 -12 13 -22t12 -20.5
t11.5 -22.5t12.5 -27l-239 -66q-19 38 -43.5 57.5t-42.5 30.5h-242q-15 -8 -30 -20t-27 -23.5t-19.5 -20t-7.5 -9.5v-109q0 -6 3 -9q1 -2 3 -3q122 -35 246 -70.5t248 -70.5q41 -12 72.5 -37t52.5 -57.5t32 -69.5t11 -74v-123zM510 -408h-254l186 328l213 -61z" />
    <glyph glyph-name="Scaron" unicode="&#x160;" horiz-adv-x="1157" 
d="M395 997q-12 -6 -25.5 -17.5t-25 -23t-18.5 -20.5t-7 -10v-109q0 -6 3 -9q2 -2 4 -3l520 -141q42 -12 74 -36.5t53 -56.5t32 -70t11 -75v-121q0 -25 -8.5 -60.5t-28.5 -66.5q-10 -15 -28.5 -36.5t-40.5 -43t-43.5 -40.5t-37.5 -29q-24 -14 -61 -26.5t-74 -12.5h-313
q-47 0 -88 17.5t-75.5 43.5t-61.5 56.5t-45 56.5q-20 28 -38 60.5t-32 70.5l231 72q22 -39 48.5 -77.5t58.5 -60.5h311q12 6 25 17.5t24 23t18 20t7 9.5v121q0 4 -1 6l-2 4q-2 2 -3 2q-128 34 -258 69.5t-260 69.5q-43 12 -75 36.5t-53 56.5t-31.5 69.5t-10.5 75.5v113
q0 27 6 62.5t26 66.5q9 13 28 33.5t41 42t44.5 41t40.5 30.5q25 14 60.5 26.5t72.5 12.5h291q47 0 88 -17.5t74.5 -43t60.5 -56t45 -55.5q25 -34 41 -66.5t29 -64.5l-232 -66q-10 21 -20 38.5t-22.5 32.5t-28.5 29t-37 29h-283zM461 1352l-297 278h287l71 -80l70 80h287
l-297 -278h-121z" />
    <glyph glyph-name="scaron" unicode="&#x161;" horiz-adv-x="1104" 
d="M969 303q0 -26 -6.5 -62t-26.5 -67q-7 -11 -25 -31.5t-39.5 -42.5t-42 -41t-30.5 -26q-32 -23 -73 -34t-81 -11h-295q-45 0 -85.5 17t-74.5 42.5t-61.5 56t-46.5 56.5q-12 14 -26 43t-25 51l243 65q16 -37 38.5 -59.5t37.5 -32.5h303q11 6 22.5 17.5t21.5 23t16 20t6 9.5
v123q0 3 -1 5l-2 4l-3 3q-122 34 -245 69.5t-247 69.5q-42 12 -74 36.5t-53 56.5t-32 69.5t-11 75.5v113q0 27 6.5 62.5t26.5 66.5q7 9 24 28.5t37.5 41t41 41t32.5 28.5q31 22 72 35.5t82 13.5h262q45 0 86.5 -16.5t76 -42t61.5 -55.5t44 -56q7 -12 13 -22t12 -20.5
t11.5 -22.5t12.5 -27l-239 -66q-19 38 -43.5 57.5t-42.5 30.5h-242q-15 -8 -30 -20t-27 -23.5t-19.5 -20t-7.5 -9.5v-109q0 -6 3 -9q1 -2 3 -3q122 -35 246 -70.5t248 -70.5q41 -12 72.5 -37t52.5 -57.5t32 -69.5t11 -74v-123zM442 1352l-297 278h287l72 -80l69 80h287
l-297 -278h-121z" />
    <glyph glyph-name="Tcommaaccent" unicode="&#x162;" horiz-adv-x="1055" 
d="M614 989v-989h-252v989h-331v240h913v-240h-330zM485 -426h-266l197 356l225 -71z" />
    <glyph glyph-name="tcommaaccent" unicode="&#x163;" horiz-adv-x="1055" 
d="M614 989v-989h-252v989h-331v240h913v-240h-330zM489 -408h-245l186 328l205 -61z" />
    <glyph glyph-name="Tcaron" unicode="&#x164;" horiz-adv-x="1055" 
d="M614 989v-989h-252v989h-331v240h913v-240h-330zM422 1352l-297 278h287l71 -80l70 80h287l-297 -278h-121z" />
    <glyph glyph-name="tcaron" unicode="&#x165;" horiz-adv-x="1055" 
d="M614 989v-989h-252v989h-331v240h913v-240h-330zM422 1352l-297 278h287l71 -80l70 80h287l-297 -278h-121z" />
    <glyph glyph-name="Tbar" unicode="&#x166;" horiz-adv-x="1055" 
d="M600 512v-512h-252v512h-246v233h246v244h-332v240h914v-240h-330v-244h231v-233h-231z" />
    <glyph glyph-name="tbar" unicode="&#x167;" horiz-adv-x="1055" 
d="M600 512v-512h-252v512h-246v233h246v244h-332v240h914v-240h-330v-244h231v-233h-231z" />
    <glyph glyph-name="Utilde" unicode="&#x168;" horiz-adv-x="1174" 
d="M76 0zM686 1399q-11 28 -29.5 38t-29.5 7q-15 -3 -34 -8.5t-38 -12t-38 -12t-34 -8.5q-44 -8 -87 -2t-83 29.5t-74.5 66.5t-60.5 109l213 43q14 -31 29 -40t25 -7q34 6 73.5 21t73.5 22q44 7 87 0.5t82 -31t73.5 -67.5t60.5 -107zM1006 305q0 -32 -7.5 -65t-27.5 -62
q-9 -13 -27 -34.5t-39.5 -43.5t-43 -41.5t-38.5 -29.5q-28 -16 -63 -27.5t-72 -11.5h-293q-38 0 -73.5 11.5t-61.5 27.5q-17 10 -39 29.5t-43.5 41.5t-39.5 43.5t-27 34.5q-20 29 -27.5 62t-7.5 65v924h250v-922q9 -12 19.5 -24t21 -22.5t19.5 -19t15 -12.5h281
q12 8 34.5 29.5t39.5 46.5v924h250v-924z" />
    <glyph glyph-name="utilde" unicode="&#x169;" horiz-adv-x="1139" 
d="M76 0zM985 305q0 -32 -7.5 -65t-27.5 -62q-9 -13 -27 -34.5t-39 -43.5t-42.5 -41.5t-38.5 -29.5q-28 -16 -63 -27.5t-72 -11.5h-273q-38 0 -73.5 11.5t-61.5 27.5q-17 10 -39 29.5t-43.5 41.5t-39.5 43.5t-27 34.5q-20 29 -27.5 62t-7.5 65v924h250v-922q9 -12 19.5 -24
t21 -22.5t19.5 -19t15 -12.5h261q6 4 15 12t19 18t20.5 22t18.5 24v924h250v-924zM686 1399q-11 28 -29.5 38t-29.5 7q-15 -3 -34 -8.5t-38 -12t-38 -12t-34 -8.5q-44 -8 -87 -2t-83 29.5t-74.5 66.5t-60.5 109l213 43q14 -31 29 -40t25 -7q34 6 73.5 21t73.5 22
q44 7 87 0.5t82 -31t73.5 -67.5t60.5 -107z" />
    <glyph glyph-name="Umacron" unicode="&#x16a;" horiz-adv-x="1174" 
d="M76 0zM1006 305q0 -32 -7.5 -65t-27.5 -62q-9 -13 -27 -34.5t-39.5 -43.5t-43 -41.5t-38.5 -29.5q-28 -16 -63 -27.5t-72 -11.5h-293q-38 0 -73.5 11.5t-61.5 27.5q-17 10 -39 29.5t-43.5 41.5t-39.5 43.5t-27 34.5q-20 29 -27.5 62t-7.5 65v924h250v-922q9 -12 19.5 -24
t21 -22.5t19.5 -19t15 -12.5h281q12 8 34.5 29.5t39.5 46.5v924h250v-924zM309 1399v219h465v-219h-465z" />
    <glyph glyph-name="umacron" unicode="&#x16b;" horiz-adv-x="1139" 
d="M76 0zM985 305q0 -32 -7.5 -65t-27.5 -62q-9 -13 -27 -34.5t-39 -43.5t-42.5 -41.5t-38.5 -29.5q-28 -16 -63 -27.5t-72 -11.5h-273q-38 0 -73.5 11.5t-61.5 27.5q-17 10 -39 29.5t-43.5 41.5t-39.5 43.5t-27 34.5q-20 29 -27.5 62t-7.5 65v924h250v-922q9 -12 19.5 -24
t21 -22.5t19.5 -19t15 -12.5h261q6 4 15 12t19 18t20.5 22t18.5 24v924h250v-924zM299 1399v219h465v-219h-465z" />
    <glyph glyph-name="Ubreve" unicode="&#x16c;" horiz-adv-x="1174" 
d="M76 0zM1006 305q0 -32 -7.5 -65t-27.5 -62q-9 -13 -27 -34.5t-39.5 -43.5t-43 -41.5t-38.5 -29.5q-28 -16 -63 -27.5t-72 -11.5h-293q-38 0 -73.5 11.5t-61.5 27.5q-17 10 -39 29.5t-43.5 41.5t-39.5 43.5t-27 34.5q-20 29 -27.5 62t-7.5 65v924h250v-922q9 -12 19.5 -24
t21 -22.5t19.5 -19t15 -12.5h281q12 8 34.5 29.5t39.5 46.5v924h250v-924zM762 1569q0 -46 -17.5 -86t-47 -69.5t-69 -46.5t-83.5 -17q-45 0 -85.5 17t-71 46.5t-49 69.5t-18.5 86h138q0 -18 7 -33.5t18.5 -27t27 -18.5t33.5 -7q17 0 31.5 7t25.5 18.5t17 27t6 33.5h137z
" />
    <glyph glyph-name="ubreve" unicode="&#x16d;" horiz-adv-x="1139" 
d="M76 0zM985 305q0 -32 -7.5 -65t-27.5 -62q-9 -13 -27 -34.5t-39 -43.5t-42.5 -41.5t-38.5 -29.5q-28 -16 -63 -27.5t-72 -11.5h-273q-38 0 -73.5 11.5t-61.5 27.5q-17 10 -39 29.5t-43.5 41.5t-39.5 43.5t-27 34.5q-20 29 -27.5 62t-7.5 65v924h250v-922q9 -12 19.5 -24
t21 -22.5t19.5 -19t15 -12.5h261q6 4 15 12t19 18t20.5 22t18.5 24v924h250v-924zM754 1569q0 -46 -17.5 -86t-47 -69.5t-69 -46.5t-83.5 -17q-45 0 -85.5 17t-71 46.5t-49 69.5t-18.5 86h138q0 -18 7 -33.5t18.5 -27t27 -18.5t33.5 -7q17 0 31.5 7t25.5 18.5t17 27t6 33.5
h137z" />
    <glyph glyph-name="Uring" unicode="&#x16e;" horiz-adv-x="1153" 
d="M76 0zM1006 305q0 -32 -7.5 -65t-27.5 -62q-9 -13 -27 -34.5t-39.5 -43.5t-43 -41.5t-38.5 -29.5q-28 -16 -63 -27.5t-72 -11.5h-293q-38 0 -73.5 11.5t-61.5 27.5q-17 10 -39 29.5t-43.5 41.5t-39.5 43.5t-27 34.5q-20 29 -27.5 62t-7.5 65v924h250v-922q9 -12 19.5 -24
t21 -22.5t19.5 -19t15 -12.5h281q12 8 34.5 29.5t39.5 46.5v924h250v-924zM762 1493q0 -46 -17.5 -86t-47 -69.5t-69 -46.5t-83.5 -17q-45 0 -85.5 17t-71 46.5t-49 69.5t-18.5 86q0 44 18.5 83.5t49 69t71 47t85.5 17.5q44 0 83.5 -17.5t69 -47t47 -69t17.5 -83.5z
M625 1493q0 16 -6 31t-17 26t-25.5 18t-31.5 7q-18 0 -33.5 -7t-27 -18t-18.5 -26t-7 -31q0 -18 7 -33.5t18.5 -27t27 -18.5t33.5 -7q17 0 31.5 7t25.5 18.5t17 27t6 33.5z" />
    <glyph glyph-name="uring" unicode="&#x16f;" horiz-adv-x="1139" 
d="M76 0zM985 305q0 -32 -7.5 -65t-27.5 -62q-9 -13 -27 -34.5t-39 -43.5t-42.5 -41.5t-38.5 -29.5q-28 -16 -63 -27.5t-72 -11.5h-273q-38 0 -73.5 11.5t-61.5 27.5q-17 10 -39 29.5t-43.5 41.5t-39.5 43.5t-27 34.5q-20 29 -27.5 62t-7.5 65v924h250v-922q9 -12 19.5 -24
t21 -22.5t19.5 -19t15 -12.5h261q6 4 15 12t19 18t20.5 22t18.5 24v924h250v-924zM752 1493q0 -46 -17.5 -86t-47 -69.5t-69 -46.5t-83.5 -17q-45 0 -85.5 17t-71 46.5t-49 69.5t-18.5 86q0 44 18.5 83.5t49 69t71 47t85.5 17.5q44 0 83.5 -17.5t69 -47t47 -69t17.5 -83.5z
M615 1493q0 16 -6 31t-17 26t-25.5 18t-31.5 7q-18 0 -33.5 -7t-27 -18t-18.5 -26t-7 -31q0 -18 7 -33.5t18.5 -27t27 -18.5t33.5 -7q17 0 31.5 7t25.5 18.5t17 27t6 33.5z" />
    <glyph glyph-name="Uhungarumlaut" unicode="&#x170;" horiz-adv-x="1174" 
d="M76 0zM1006 305q0 -32 -7.5 -65t-27.5 -62q-9 -13 -27 -34.5t-39.5 -43.5t-43 -41.5t-38.5 -29.5q-28 -16 -63 -27.5t-72 -11.5h-293q-38 0 -73.5 11.5t-61.5 27.5q-17 10 -39 29.5t-43.5 41.5t-39.5 43.5t-27 34.5q-20 29 -27.5 62t-7.5 65v924h250v-922q9 -12 19.5 -24
t21 -22.5t19.5 -19t15 -12.5h281q12 8 34.5 29.5t39.5 46.5v924h250v-924zM565 1352l150 278h213l-154 -278h-209zM252 1352l149 278h213l-153 -278h-209z" />
    <glyph glyph-name="uhungarumlaut" unicode="&#x171;" horiz-adv-x="1139" 
d="M76 0zM985 305q0 -32 -7.5 -65t-27.5 -62q-9 -13 -27 -34.5t-39 -43.5t-42.5 -41.5t-38.5 -29.5q-28 -16 -63 -27.5t-72 -11.5h-273q-38 0 -73.5 11.5t-61.5 27.5q-17 10 -39 29.5t-43.5 41.5t-39.5 43.5t-27 34.5q-20 29 -27.5 62t-7.5 65v924h250v-922q9 -12 19.5 -24
t21 -22.5t19.5 -19t15 -12.5h261q6 4 15 12t19 18t20.5 22t18.5 24v924h250v-924zM565 1352l150 278h213l-154 -278h-209zM252 1352l149 278h213l-153 -278h-209z" />
    <glyph glyph-name="Uogonek" unicode="&#x172;" horiz-adv-x="1174" 
d="M76 0zM349 -141l213 61l186 -328h-254zM1006 305q0 -32 -7.5 -65t-27.5 -62q-9 -13 -27 -34.5t-39.5 -43.5t-43 -41.5t-38.5 -29.5q-28 -16 -63 -27.5t-72 -11.5h-293q-38 0 -73.5 11.5t-61.5 27.5q-17 10 -39 29.5t-43.5 41.5t-39.5 43.5t-27 34.5q-20 29 -27.5 62
t-7.5 65v924h250v-922q9 -12 19.5 -24t21 -22.5t19.5 -19t15 -12.5h281q12 8 34.5 29.5t39.5 46.5v924h250v-924z" />
    <glyph glyph-name="uogonek" unicode="&#x173;" horiz-adv-x="1139" 
d="M76 0zM345 -141l213 61l186 -328h-254zM985 305q0 -32 -7.5 -65t-27.5 -62q-9 -13 -27 -34.5t-39 -43.5t-42.5 -41.5t-38.5 -29.5q-28 -16 -63 -27.5t-72 -11.5h-273q-38 0 -73.5 11.5t-61.5 27.5q-17 10 -39 29.5t-43.5 41.5t-39.5 43.5t-27 34.5q-20 29 -27.5 62
t-7.5 65v924h250v-922q9 -12 19.5 -24t21 -22.5t19.5 -19t15 -12.5h261q6 4 15 12t19 18t20.5 22t18.5 24v924h250v-924z" />
    <glyph glyph-name="Wcircumflex" unicode="&#x174;" horiz-adv-x="1520" 
d="M1163 0h-268l-178 719q-44 -180 -88.5 -359.5t-87.5 -359.5h-269l-280 1229h258l162 -758q43 189 88.5 380t89.5 378h254l178 -758q40 189 79.5 380t80.5 378h266zM772 1630l297 -278h-287l-71 80l-70 -80h-287l297 278h121z" />
    <glyph glyph-name="wcircumflex" unicode="&#x175;" horiz-adv-x="1520" 
d="M1163 0h-268l-178 719q-44 -180 -88.5 -359.5t-87.5 -359.5h-269l-280 1229h258l162 -758q43 189 88.5 380t89.5 378h254l178 -758q40 189 79.5 380t80.5 378h266zM772 1630l297 -278h-287l-71 80l-70 -80h-287l297 278h121z" />
    <glyph glyph-name="Ycircumflex" unicode="&#x176;" horiz-adv-x="1047" 
d="M606 532v-532h-252v532l-411 697h282l256 -432l260 432h283zM535 1630l296 -278h-286l-72 80l-70 -80h-286l297 278h121z" />
    <glyph glyph-name="ycircumflex" unicode="&#x177;" horiz-adv-x="1047" 
d="M606 532v-532h-252v532l-411 697h282l256 -432l260 432h283zM535 1630l296 -278h-286l-72 80l-70 -80h-286l297 278h121z" />
    <glyph glyph-name="Ydieresis" unicode="&#x178;" horiz-adv-x="1047" 
d="M606 532v-532h-252v532l-411 697h282l256 -432l260 432h283zM561 1364v250h240v-250h-240zM168 1364v250h235v-250h-235z" />
    <glyph glyph-name="Zacute" unicode="&#x179;" horiz-adv-x="1032" 
d="M68 0v182l526 807h-518v240h844v-185l-521 -804h521v-240h-852zM336 1352l190 278h267l-215 -278h-242z" />
    <glyph glyph-name="zacute" unicode="&#x17a;" horiz-adv-x="1032" 
d="M68 0v182l526 807h-518v240h844v-185l-521 -804h521v-240h-852zM336 1352l190 278h267l-215 -278h-242z" />
    <glyph glyph-name="Zdotaccent" unicode="&#x17b;" horiz-adv-x="1032" 
d="M68 0v182l526 807h-518v240h844v-185l-521 -804h521v-240h-852zM375 1401v254h258v-254h-258z" />
    <glyph glyph-name="zdotaccent" unicode="&#x17c;" horiz-adv-x="1032" 
d="M68 0v182l526 807h-518v240h844v-185l-521 -804h521v-240h-852zM375 1401v254h258v-254h-258z" />
    <glyph glyph-name="Zcaron" unicode="&#x17d;" horiz-adv-x="1032" 
d="M68 0v182l526 807h-518v240h844v-185l-521 -804h521v-240h-852zM434 1352l-297 278h287l72 -80l69 80h287l-297 -278h-121z" />
    <glyph glyph-name="zcaron" unicode="&#x17e;" horiz-adv-x="1032" 
d="M68 0v182l526 807h-518v240h844v-185l-521 -804h521v-240h-852zM434 1352l-297 278h287l72 -80l69 80h287l-297 -278h-121z" />
    <glyph glyph-name="longs" unicode="&#x17f;" horiz-adv-x="1104" 
d="M969 303q0 -26 -6.5 -62t-26.5 -67q-7 -11 -25 -31.5t-39.5 -42.5t-42 -41t-30.5 -26q-32 -23 -73 -34t-81 -11h-295q-45 0 -85.5 17t-74.5 42.5t-61.5 56t-46.5 56.5q-12 14 -26 43t-25 51l243 65q16 -37 38.5 -59.5t37.5 -32.5h303q11 6 22.5 17.5t21.5 23t16 20t6 9.5
v123q0 3 -1 5l-2 4l-3 3q-122 34 -245 69.5t-247 69.5q-42 12 -74 36.5t-53 56.5t-32 69.5t-11 75.5v113q0 27 6.5 62.5t26.5 66.5q7 9 24 28.5t37.5 41t41 41t32.5 28.5q31 22 72 35.5t82 13.5h262q45 0 86.5 -16.5t76 -42t61.5 -55.5t44 -56q7 -12 13 -22t12 -20.5
t11.5 -22.5t12.5 -27l-239 -66q-19 38 -43.5 57.5t-42.5 30.5h-242q-15 -8 -30 -20t-27 -23.5t-19.5 -20t-7.5 -9.5v-109q0 -6 3 -9q1 -2 3 -3q122 -35 246 -70.5t248 -70.5q41 -12 72.5 -37t52.5 -57.5t32 -69.5t11 -74v-123z" />
    <glyph glyph-name="florin" unicode="&#x192;" horiz-adv-x="1049" 
 />
    <glyph glyph-name="Scommaaccent" unicode="&#x218;" horiz-adv-x="1157" 
d="M395 997q-12 -6 -25.5 -17.5t-25 -23t-18.5 -20.5t-7 -10v-109q0 -6 3 -9q2 -2 4 -3l520 -141q42 -12 74 -36.5t53 -56.5t32 -70t11 -75v-121q0 -25 -8.5 -60.5t-28.5 -66.5q-10 -15 -28.5 -36.5t-40.5 -43t-43.5 -40.5t-37.5 -29q-24 -14 -61 -26.5t-74 -12.5h-313
q-47 0 -88 17.5t-75.5 43.5t-61.5 56.5t-45 56.5q-20 28 -38 60.5t-32 70.5l231 72q22 -39 48.5 -77.5t58.5 -60.5h311q12 6 25 17.5t24 23t18 20t7 9.5v121q0 4 -1 6l-2 4q-2 2 -3 2q-128 34 -258 69.5t-260 69.5q-43 12 -75 36.5t-53 56.5t-31.5 69.5t-10.5 75.5v113
q0 27 6 62.5t26 66.5q9 13 28 33.5t41 42t44.5 41t40.5 30.5q25 14 60.5 26.5t72.5 12.5h291q47 0 88 -17.5t74.5 -43t60.5 -56t45 -55.5q25 -34 41 -66.5t29 -64.5l-232 -66q-10 21 -20 38.5t-22.5 32.5t-28.5 29t-37 29h-283zM571 -408h-254l186 328l213 -61z" />
    <glyph glyph-name="scommaaccent" unicode="&#x219;" horiz-adv-x="1104" 
d="M969 303q0 -26 -6.5 -62t-26.5 -67q-7 -11 -25 -31.5t-39.5 -42.5t-42 -41t-30.5 -26q-32 -23 -73 -34t-81 -11h-295q-45 0 -85.5 17t-74.5 42.5t-61.5 56t-46.5 56.5q-12 14 -26 43t-25 51l243 65q16 -37 38.5 -59.5t37.5 -32.5h303q11 6 22.5 17.5t21.5 23t16 20t6 9.5
v123q0 3 -1 5l-2 4l-3 3q-122 34 -245 69.5t-247 69.5q-42 12 -74 36.5t-53 56.5t-32 69.5t-11 75.5v113q0 27 6.5 62.5t26.5 66.5q7 9 24 28.5t37.5 41t41 41t32.5 28.5q31 22 72 35.5t82 13.5h262q45 0 86.5 -16.5t76 -42t61.5 -55.5t44 -56q7 -12 13 -22t12 -20.5
t11.5 -22.5t12.5 -27l-239 -66q-19 38 -43.5 57.5t-42.5 30.5h-242q-15 -8 -30 -20t-27 -23.5t-19.5 -20t-7.5 -9.5v-109q0 -6 3 -9q1 -2 3 -3q122 -35 246 -70.5t248 -70.5q41 -12 72.5 -37t52.5 -57.5t32 -69.5t11 -74v-123zM571 -408h-254l186 328l213 -61z" />
    <glyph glyph-name="circumflex" unicode="&#x2c6;" horiz-adv-x="801" 
d="M453 1630l297 -278h-287l-72 80l-69 -80h-287l297 278h121z" />
    <glyph glyph-name="caron" unicode="&#x2c7;" horiz-adv-x="801" 
d="M332 1352l-297 278h287l71 -80l70 80h287l-297 -278h-121z" />
    <glyph glyph-name="breve" unicode="&#x2d8;" horiz-adv-x="909" 
d="M717 1569q0 -46 -17.5 -86t-47 -69.5t-69 -46.5t-83.5 -17q-45 0 -85.5 17t-71 46.5t-49 69.5t-18.5 86h138q0 -18 7 -33.5t18.5 -27t27 -18.5t33.5 -7q17 0 31.5 7t25.5 18.5t17 27t6 33.5h137z" />
    <glyph glyph-name="dotaccent" unicode="&#x2d9;" horiz-adv-x="588" 
d="M137 1401v254h258v-254h-258z" />
    <glyph glyph-name="ring" unicode="&#x2da;" horiz-adv-x="1167" 
d="M717 1493q0 -46 -17.5 -86t-47 -69.5t-69 -46.5t-83.5 -17q-45 0 -85.5 17t-71 46.5t-49 69.5t-18.5 86q0 44 18.5 83.5t49 69t71 47t85.5 17.5q44 0 83.5 -17.5t69 -47t47 -69t17.5 -83.5zM580 1493q0 16 -6 31t-17 26t-25.5 18t-31.5 7q-18 0 -33.5 -7t-27 -18
t-18.5 -26t-7 -31q0 -18 7 -33.5t18.5 -27t27 -18.5t33.5 -7q17 0 31.5 7t25.5 18.5t17 27t6 33.5z" />
    <glyph glyph-name="ogonek" unicode="&#x2db;" horiz-adv-x="768" 
d="M236 -141l213 61l186 -328h-254z" />
    <glyph glyph-name="tilde" unicode="&#x2dc;" horiz-adv-x="965" 
d="M563 1399q-11 28 -29.5 38t-29.5 7q-15 -3 -34 -8.5t-38 -12t-38 -12t-34 -8.5q-44 -8 -87 -2t-83 29.5t-74.5 66.5t-60.5 109l213 43q14 -31 29 -40t25 -7q34 6 73.5 21t73.5 22q44 7 87 0.5t82 -31t73.5 -67.5t60.5 -107z" />
    <glyph glyph-name="hungarumlaut" unicode="&#x2dd;" horiz-adv-x="963" 
d="M483 1352l150 278h213l-154 -278h-209zM170 1352l149 278h213l-153 -278h-209z" />
    <glyph glyph-name="pi" unicode="&#x3c0;" horiz-adv-x="1454" 
d="M485 989v-989h-252v989h-202v240h1272v-240h-203v-989h-252v989h-363z" />
    <glyph glyph-name="afii10023" unicode="&#x401;" 
d="M76 0v1229h807v-240h-557v-252h538v-239h-538v-258h557v-240h-807zM567 1364v250h240v-250h-240zM174 1364v250h236v-250h-236z" />
    <glyph glyph-name="afii10051" unicode="&#x402;" horiz-adv-x="1382" 
d="M614 989v-229h349q40 0 79.5 -11.5t73.5 -35.5q11 -8 27 -22t32.5 -30.5t30.5 -32t21 -26.5q39 -59 39 -133v-174q0 -34 -10.5 -70t-28.5 -65q-8 -10 -22 -26t-30.5 -32.5t-32 -31t-26.5 -23.5q-32 -22 -73.5 -34.5t-79.5 -12.5h-119v240h119q15 8 30 22t23 27v182
q-5 8 -13 16.5t-16 16t-15 12t-9 4.5h-349v-520h-252v989h-331v240h913v-240h-330z" />
    <glyph glyph-name="afii10052" unicode="&#x403;" horiz-adv-x="961" 
d="M870 1229v-242h-544v-987h-250v1229h794zM283 1352l190 278h287l-215 -278h-262z" />
    <glyph glyph-name="afii10053" unicode="&#x404;" horiz-adv-x="1137" 
d="M379 -10q-38 0 -78.5 12.5t-71.5 34.5q-12 8 -28.5 23.5t-33 32.5t-30 33t-20.5 26q-20 29 -29.5 64.5t-9.5 70.5v655q0 34 8.5 69.5t30.5 63.5q8 11 22.5 27t30.5 32.5t32 31t27 22.5q31 22 71.5 35.5t78.5 13.5h278q47 0 88 -17t75 -42.5t61 -55.5t45 -55
q24 -34 40.5 -67.5t28.5 -65.5l-231 -66q-10 21 -20 38.5t-22.5 32.5t-28.5 29t-38 29h-274q-5 0 -22 -16.5t-31 -38.5v-205h329v-233h-329v-221q14 -22 31 -38t22 -16h274q43 29 66 58.5t43 70.5l231 -65q-12 -32 -28.5 -65.5t-40.5 -67.5q-18 -26 -45 -55.5t-61 -55
t-75 -42.5t-88 -17h-278z" />
    <glyph glyph-name="afii10054" unicode="&#x405;" horiz-adv-x="1157" 
d="M395 997q-12 -6 -25.5 -17.5t-25 -23t-18.5 -20.5t-7 -10v-109q0 -6 3 -9q2 -2 4 -3l520 -141q42 -12 74 -36.5t53 -56.5t32 -70t11 -75v-121q0 -25 -8.5 -60.5t-28.5 -66.5q-10 -15 -28.5 -36.5t-40.5 -43t-43.5 -40.5t-37.5 -29q-24 -14 -61 -26.5t-74 -12.5h-313
q-47 0 -88 17.5t-75.5 43.5t-61.5 56.5t-45 56.5q-20 28 -38 60.5t-32 70.5l231 72q22 -39 48.5 -77.5t58.5 -60.5h311q12 6 25 17.5t24 23t18 20t7 9.5v121q0 4 -1 6l-2 4q-2 2 -3 2q-128 34 -258 69.5t-260 69.5q-43 12 -75 36.5t-53 56.5t-31.5 69.5t-10.5 75.5v113
q0 27 6 62.5t26 66.5q9 13 28 33.5t41 42t44.5 41t40.5 30.5q25 14 60.5 26.5t72.5 12.5h291q47 0 88 -17.5t74.5 -43t60.5 -56t45 -55.5q25 -34 41 -66.5t29 -64.5l-232 -66q-10 21 -20 38.5t-22.5 32.5t-28.5 29t-37 29h-283z" />
    <glyph glyph-name="afii10055" unicode="&#x406;" horiz-adv-x="522" 
d="M84 0v1229h252v-1229h-252z" />
    <glyph glyph-name="afii10056" unicode="&#x407;" horiz-adv-x="502" 
d="M279 1364v250h239v-250h-239zM-115 1364v250h236v-250h-236zM84 0v1229h252v-1229h-252z" />
    <glyph glyph-name="afii10057" unicode="&#x408;" horiz-adv-x="952" 
d="M786 301q0 -32 -9 -65t-29 -62q-9 -13 -26.5 -34t-38.5 -43t-42.5 -41t-38.5 -29q-28 -16 -63 -27.5t-72 -11.5h-148q-47 0 -87.5 17t-75 43t-62 56.5t-47.5 57.5q-17 21 -38 65t-40 95l240 61q16 -35 23 -46q4 -7 6 -11q7 -14 17.5 -28.5t22 -27.5t21.5 -24t18 -17h144
q6 0 18.5 9.5t25.5 21.5t22.5 23.5t9.5 15.5v930h249v-928z" />
    <glyph glyph-name="afii10058" unicode="&#x409;" horiz-adv-x="1651" 
d="M1534 295q0 -34 -10 -70t-29 -65q-8 -10 -22 -26t-30 -32.5t-32 -31t-27 -23.5q-32 -22 -73.5 -34.5t-79.5 -12.5h-557v989h-287v-688q0 -32 -9.5 -65t-29.5 -62q-8 -13 -25.5 -34t-38.5 -43t-42.5 -41t-38.5 -29q-28 -16 -63 -27.5t-72 -11.5h-140v241h133q6 0 19 9.5
t25.5 21.5t22 23.5t9.5 15.5v930h787v-469h307q40 0 79.5 -11.5t73.5 -35.5q11 -8 27 -22t32.5 -30.5t30.5 -32t21 -26.5q20 -29 29.5 -62.5t9.5 -70.5v-174zM1284 471q-5 8 -13 16.5t-16 16t-15 12t-9 4.5h-307v-280h307q15 8 30 22t23 27v182z" />
    <glyph glyph-name="afii10059" unicode="&#x40a;" horiz-adv-x="1651" 
d="M1534 295q0 -34 -10 -70t-29 -65q-8 -10 -22 -26t-30 -32.5t-32 -31t-27 -23.5q-32 -22 -73.5 -34.5t-79.5 -12.5h-557v520h-348v-520h-250v1229h250v-469h348v469h250v-469h307q40 0 79.5 -11.5t73.5 -35.5q11 -8 27 -22t32.5 -30.5t30.5 -32t21 -26.5
q20 -29 29.5 -62.5t9.5 -70.5v-174zM1284 471q-5 8 -13 16.5t-16 16t-15 12t-9 4.5h-307v-280h307q15 8 30 22t23 27v182z" />
    <glyph glyph-name="afii10060" unicode="&#x40b;" horiz-adv-x="1362" 
d="M975 -2v473q-5 8 -13 16.5t-16 16t-15 12t-9 4.5h-308v-520h-252v989h-331v240h913v-240h-330v-229h308q40 0 79.5 -11.5t73.5 -35.5q11 -8 27 -22t32.5 -30.5t30.5 -32t21 -26.5q39 -59 39 -133v-471h-250z" />
    <glyph glyph-name="afii10061" unicode="&#x40c;" horiz-adv-x="1087" 
d="M346 1352l191 278h286l-215 -278h-262zM711 0l-385 496v-496h-250v1229h250v-488q0 -2 16.5 18.5t43.5 54.5t61.5 78t70.5 90q84 108 193 247h313l-492 -606q1 -1 23 -28.5t57 -71t79.5 -99.5t90.5 -114q108 -136 244 -310h-315z" />
    <glyph glyph-name="afii10062" unicode="&#x40e;" horiz-adv-x="1038" 
d="M696 1569q0 -46 -17 -86t-46.5 -69.5t-69 -46.5t-84.5 -17t-85 17t-71 46.5t-49 69.5t-18 86h137q0 -18 7 -33.5t18.5 -27t27 -18.5t33.5 -7q17 0 31.5 7t25.5 18.5t17 27t6 33.5h137zM498 0h-258l137 326h-35l-389 903h264l268 -643l265 643h264z" />
    <glyph glyph-name="afii10145" unicode="&#x40f;" horiz-adv-x="1161" 
d="M985 1229v-1229h-344v-225h-227v225h-338v1229h250v-989h409v989h250z" />
    <glyph glyph-name="afii10017" unicode="&#x410;" horiz-adv-x="1188" 
d="M838 0l-82 236h-428q-20 -57 -42 -118t-42 -118h-267l426 1229h277l424 -1229h-266zM541 870q-34 -99 -68.5 -197.5t-69.5 -197.5h277z" />
    <glyph glyph-name="afii10018" unicode="&#x411;" horiz-adv-x="1135" 
d="M977 295q0 -34 -10 -70t-29 -65q-8 -10 -22 -26t-30 -32.5t-32 -31t-27 -23.5q-32 -22 -73.5 -34.5t-79.5 -12.5h-598v1229h794v-242h-544v-227h348q40 0 79.5 -11.5t73.5 -35.5q11 -8 27 -22t32.5 -30.5t30.5 -32t21 -26.5q20 -29 29.5 -62.5t9.5 -70.5v-174zM727 471
q-5 8 -13 16.5t-16 16t-15 12t-9 4.5h-348v-280h348q15 8 30 22t23 27v182z" />
    <glyph glyph-name="afii10019" unicode="&#x412;" horiz-adv-x="1133" 
d="M975 293q0 -35 -8.5 -69.5t-28.5 -63.5q-7 -10 -20.5 -26t-29 -32.5t-31.5 -31t-28 -23.5q-31 -22 -74 -34.5t-81 -12.5h-598v1229h598q42 0 83 -14t72 -35q12 -9 28 -23.5t31.5 -31t29 -32t20.5 -24.5q22 -32 29.5 -68.5t7.5 -68.5v-148q0 -60 -20 -100.5t-48 -71.5
q29 -32 48.5 -71.5t19.5 -100.5v-147zM725 442q-14 23 -32 40.5t-23 17.5h-344v-260h346q2 0 8.5 4t14.5 11.5t16 17t14 20.5v149zM725 932q-14 23 -32 40t-23 17h-344v-258h346q2 0 8.5 4.5t15 12t16.5 16.5t13 18v150z" />
    <glyph glyph-name="afii10020" unicode="&#x413;" horiz-adv-x="961" 
d="M870 1229v-242h-544v-987h-250v1229h794z" />
    <glyph glyph-name="afii10021" unicode="&#x414;" horiz-adv-x="1303" 
d="M1180 -211h-260l18 211h-711v-211h-252v451h117q8 1 20.5 11t24.5 21.5t20.5 22t8.5 14.5l131 920h758v-989h170zM420 311q-3 -20 -9.5 -37t-13.5 -34h408v749h-289z" />
    <glyph glyph-name="afii10022" unicode="&#x415;" 
d="M76 0v1229h807v-240h-557v-252h538v-239h-538v-258h557v-240h-807z" />
    <glyph glyph-name="afii10024" unicode="&#x416;" horiz-adv-x="1671" 
d="M1307 0l-367 508h-20v-508h-250v508h-21l-366 -508h-303q127 174 227 310q43 58 84 114t73 99.5t52.5 71t21.5 28.5l-452 606h295q101 -140 181 -250q34 -47 67 -92t59 -80t42.5 -56.5t18.5 -21.5h21v500h250v-500h20q1 0 18 21.5t43 56.5t59 80t67 92l182 250h295
l-453 -606q1 -1 21.5 -28.5t53 -71t73.5 -99.5t84 -114q100 -136 227 -310h-303z" />
    <glyph glyph-name="afii10025" unicode="&#x417;" horiz-adv-x="1083" 
d="M635 1237q38 0 78 -13.5t71 -35.5q12 -8 27.5 -22.5t32 -31t30.5 -32.5t23 -27q22 -28 30.5 -63.5t8.5 -69.5v-154q0 -58 -23 -98.5t-49 -68.5q13 -15 26 -33t23 -39t16.5 -45.5t6.5 -54.5v-162q0 -35 -9.5 -70.5t-29.5 -64.5q-7 -10 -20.5 -26t-30 -33t-33.5 -32.5
t-29 -23.5q-31 -22 -71 -34.5t-78 -12.5h-283q-47 0 -88 17t-74.5 42.5t-60.5 55t-45 55.5q-25 34 -41 67.5t-29 65.5l232 65q10 -21 20 -38t22.5 -32.5t28.5 -29.5t37 -29h279q5 0 22 16t31 38v168q-5 10 -13 20t-16 17t-14.5 11.5t-9.5 4.5h-277v233h279q5 0 22 16t29 38
v151q-14 22 -31 38.5t-22 16.5h-279q-21 -15 -37 -29t-28.5 -29t-22.5 -32.5t-20 -38.5l-232 66q13 32 29 65.5t41 67.5q18 25 45 55t60.5 55.5t74.5 42.5t88 17h283z" />
    <glyph glyph-name="afii10026" unicode="&#x418;" horiz-adv-x="1153" 
d="M76 0v1229h250v-733l393 733h256v-1229h-250v723l-397 -723h-252z" />
    <glyph glyph-name="afii10027" unicode="&#x419;" horiz-adv-x="1153" 
d="M76 0v1229h250v-733l393 733h256v-1229h-250v723l-397 -723h-252zM739 1569q0 -46 -17 -86t-46.5 -69.5t-69 -46.5t-84.5 -17t-85 17t-71 46.5t-49 69.5t-18 86h137q0 -18 7 -33.5t18.5 -27t27 -18.5t33.5 -7q17 0 31.5 7t25.5 18.5t17 27t6 33.5h137z" />
    <glyph glyph-name="afii10028" unicode="&#x41a;" horiz-adv-x="1077" 
d="M76 0zM713 0l-367 508h-20v-508h-250v1229h250v-500h20q1 0 18 21.5t43 56.5t59 80t67 92l182 250h295l-453 -606q1 -1 21.5 -28.5t53 -71t73.5 -99.5t84 -114q100 -136 227 -310h-303z" />
    <glyph glyph-name="afii10029" unicode="&#x41b;" horiz-adv-x="1202" 
d="M-31 238l133 2q6 0 19 9.5t25.5 21.5t22 23t9.5 15v920h848v-1229h-250v989h-348v-676q0 -32 -9.5 -65t-29.5 -62q-8 -13 -25.5 -33.5t-38.5 -42.5t-42.5 -41.5t-38.5 -29.5q-28 -16 -63 -27.5t-72 -11.5h-140v238z" />
    <glyph glyph-name="afii10030" unicode="&#x41c;" horiz-adv-x="1346" 
d="M913 0v739q-52 -112 -106 -223.5t-107 -222.5h-163l-211 444v-737h-250v1229h272l275 -557q68 139 135 279.5t135 277.5h270v-1229h-250z" />
    <glyph glyph-name="afii10031" unicode="&#x41d;" horiz-adv-x="1161" 
d="M735 0v496h-409v-496h-250v1229h250v-494h409v494h250v-1229h-250z" />
    <glyph glyph-name="afii10032" unicode="&#x41e;" horiz-adv-x="1190" 
d="M72 0zM1022 305q0 -32 -7.5 -65t-27.5 -62q-10 -13 -28 -34.5t-39.5 -43.5t-43 -41.5t-38.5 -29.5q-26 -16 -62 -27.5t-74 -11.5h-311q-38 0 -73.5 11.5t-61.5 27.5q-17 10 -39 29.5t-43.5 41.5t-40 43.5t-27.5 34.5q-20 29 -27 62t-7 65v617q0 34 7 67t27 62
q9 12 27.5 32.5t40 42.5t43.5 42t39 30q26 16 61.5 27.5t73.5 11.5h311q38 0 74 -11.5t62 -27.5q17 -10 38.5 -30t43 -42t39.5 -42.5t28 -32.5q20 -29 27.5 -62t7.5 -67v-617zM772 922q-5 9 -14.5 20t-20 22t-21 19.5t-18.5 13.5h-301q-12 -9 -34.5 -30t-40.5 -47v-615
q8 -12 18.5 -23.5t20.5 -22t19 -18.5t15 -12h301q13 10 36 32t40 44v617z" />
    <glyph glyph-name="afii10033" unicode="&#x41f;" horiz-adv-x="1161" 
d="M735 0v989h-409v-989h-250v1229h909v-1229h-250z" />
    <glyph glyph-name="afii10034" unicode="&#x420;" horiz-adv-x="1094" 
d="M977 760q0 -37 -9.5 -70.5t-29.5 -62.5q-7 -11 -21 -26.5t-30.5 -32t-32.5 -30.5t-27 -22q-34 -25 -73.5 -36t-79.5 -11h-348v-469h-250v1229h598q38 0 81 -13t72 -34q11 -9 27 -24t32 -31.5t30 -32t22 -25.5q20 -28 29.5 -64.5t9.5 -70.5v-174zM727 940q-8 12 -23 26.5
t-30 22.5h-348v-280h348q2 0 9 4.5t15 12t16 16t13 16.5v182z" />
    <glyph glyph-name="afii10035" unicode="&#x421;" horiz-adv-x="1137" 
d="M768 868q-10 21 -20 38.5t-22.5 32.5t-28.5 29t-38 29h-256q-8 -5 -18.5 -14.5t-22 -21t-21.5 -23.5t-17 -23v-610q0 -1 5.5 -9t15.5 -19t25 -24t33 -24h261q32 22 57 53.5t47 69.5l233 -57q-14 -38 -31.5 -70.5t-37.5 -60.5q-18 -26 -45 -56.5t-61.5 -56.5t-76 -43.5
t-87.5 -17.5h-269q-37 0 -73 11.5t-62 27.5q-16 10 -37.5 28.5t-42.5 40t-40 42.5t-29 36q-19 29 -27 62.5t-8 64.5v621q0 34 7.5 66t27.5 61q9 12 27 32.5t40 42t44 41.5t40 31q25 14 60.5 26.5t72.5 12.5h269q46 0 87 -17.5t75 -43t61 -56t45 -55.5q25 -34 41 -66.5
t28 -64.5z" />
    <glyph glyph-name="afii10036" unicode="&#x422;" horiz-adv-x="1055" 
d="M608 989v-989h-252v989h-331v240h913v-240h-330z" />
    <glyph glyph-name="afii10037" unicode="&#x423;" horiz-adv-x="1077" 
d="M498 0h-258l137 326h-35l-389 903h264l268 -643l265 643h264z" />
    <glyph glyph-name="afii10038" unicode="&#x424;" horiz-adv-x="1311" 
d="M498 -225v215h-101q-38 0 -73.5 11.5t-61.5 27.5q-17 10 -39 29.5t-43.5 41.5t-39.5 43.5t-27 34.5q-20 29 -27.5 62t-7.5 65v617q0 34 7.5 67t27.5 62q9 12 27 32.5t39.5 42.5t43.5 42t39 30q26 16 61.5 27.5t73.5 11.5h101v182h227v-182h96q37 0 73 -11.5t62 -27.5
q17 -10 38.5 -30t43 -42t40 -42.5t28.5 -32.5q20 -29 27.5 -62t7.5 -67v-617q0 -32 -7.5 -65t-27.5 -62q-10 -13 -28.5 -34.5t-40 -43.5t-43 -41.5t-38.5 -29.5q-26 -16 -62 -27.5t-73 -11.5h-96v-215h-227zM328 305q8 -12 18.5 -23.5t20.5 -22t19 -18.5t15 -12h97v768h-95
q-12 -9 -34.5 -30t-40.5 -47v-615zM891 922q-5 9 -14.5 20t-20 22t-21 19.5t-18.5 13.5h-92v-768h90q6 5 15.5 13.5t20 18.5t21 21.5t19.5 22.5v617z" />
    <glyph glyph-name="afii10039" unicode="&#x425;" horiz-adv-x="1077" 
d="M0 0zM633 625l373 -625h-279l-231 399l-232 -399h-278l370 625l-356 604h279l217 -379l219 379h276z" />
    <glyph glyph-name="afii10040" unicode="&#x426;" horiz-adv-x="1171" 
d="M1049 -211h-261l9 211h-721v1229h250v-989h348v989h250v-989h166z" />
    <glyph glyph-name="afii10041" unicode="&#x427;" horiz-adv-x="1133" 
d="M305 1229v-471q4 -8 12 -16.5t16.5 -16t15.5 -12t9 -4.5h349v520h249v-1229h-249v469h-349q-40 0 -79.5 11t-73.5 36q-11 8 -27 22t-32.5 30.5t-30.5 32t-21 26.5q-39 58 -39 133v469h250z" />
    <glyph glyph-name="afii10042" unicode="&#x428;" horiz-adv-x="1454" 
d="M801 1229v-989h225v989h250v-1229h-1200v1229h250v-989h225v989h250z" />
    <glyph glyph-name="afii10043" unicode="&#x429;" horiz-adv-x="1524" 
d="M801 1229v-989h225v989h250v-989h166l-41 -449h-260l8 209h-1073v1229h250v-989h225v989h250z" />
    <glyph glyph-name="afii10044" unicode="&#x42a;" horiz-adv-x="1196" 
d="M-45 1229h473v-469h348q40 0 80 -11.5t74 -35.5q10 -8 26 -22t32.5 -30.5t30.5 -32t21 -26.5q20 -29 29.5 -62.5t9.5 -70.5v-174q0 -34 -10 -70t-29 -65q-8 -10 -22 -26t-30 -32.5t-32 -31t-26 -23.5q-32 -22 -74 -34.5t-80 -12.5h-598v987h-223v242zM829 471
q-5 8 -13 16.5t-16 16t-15 12t-9 4.5h-348v-280h348q16 8 30.5 22t22.5 27v182z" />
    <glyph glyph-name="afii10045" unicode="&#x42b;" horiz-adv-x="1563" 
d="M977 295q0 -34 -10 -70t-29 -65q-8 -10 -22 -26t-30 -32.5t-32 -31t-27 -23.5q-32 -22 -73.5 -34.5t-79.5 -12.5h-598v1229h250v-469h348q40 0 79.5 -11.5t73.5 -35.5q11 -8 27 -22t32.5 -30.5t30.5 -32t21 -26.5q20 -29 29.5 -62.5t9.5 -70.5v-174zM727 471
q-5 8 -13 16.5t-16 16t-15 12t-9 4.5h-348v-280h348q15 8 30 22t23 27v182zM1133 0v1229h251v-1229h-251z" />
    <glyph glyph-name="afii10046" unicode="&#x42c;" horiz-adv-x="1094" 
d="M977 295q0 -34 -10 -70t-29 -65q-8 -10 -22 -26t-30 -32.5t-32 -31t-27 -23.5q-32 -22 -73.5 -34.5t-79.5 -12.5h-598v1229h250v-469h348q40 0 79.5 -11.5t73.5 -35.5q11 -8 27 -22t32.5 -30.5t30.5 -32t21 -26.5q20 -29 29.5 -62.5t9.5 -70.5v-174zM727 471
q-5 8 -13 16.5t-16 16t-15 12t-9 4.5h-348v-280h348q15 8 30 22t23 27v182z" />
    <glyph glyph-name="afii10047" unicode="&#x42d;" horiz-adv-x="1094" 
d="M352 -10q-47 0 -88 17t-74.5 42.5t-60.5 55t-45 55.5q-25 34 -41 67.5t-29 65.5l232 65q10 -21 20 -38t22.5 -32.5t28.5 -29.5t37 -29h279q5 0 22 16t31 38v221h-330v233h330v205q-14 22 -31 38.5t-22 16.5h-279q-21 -15 -37 -29t-28.5 -29t-22.5 -32.5t-20 -38.5
l-232 66q13 32 29 65.5t41 67.5q18 25 45 55t60.5 55.5t74.5 42.5t88 17h283q38 0 78 -13.5t71 -35.5q12 -8 27.5 -22.5t32 -31t30.5 -32.5t23 -27q22 -28 30.5 -63.5t8.5 -69.5v-655q0 -35 -9.5 -70.5t-29.5 -64.5q-7 -10 -20.5 -26t-30 -33t-33.5 -32.5t-29 -23.5
q-31 -22 -71 -34.5t-78 -12.5h-283z" />
    <glyph glyph-name="afii10048" unicode="&#x42e;" horiz-adv-x="1593" 
d="M74 0v1229h252v-490h184v183q0 34 7.5 67t27.5 62q9 12 27 32.5t39.5 42.5t43.5 42t39 30q26 16 61.5 27.5t73.5 11.5h279q35 0 72 -11.5t63 -27.5q16 -10 37 -29.5t42 -41.5t39.5 -42.5t29.5 -33.5q20 -29 28 -63t8 -66v-617q0 -31 -8 -64.5t-28 -62.5
q-10 -14 -28.5 -35.5t-39.5 -43.5t-42.5 -41t-37.5 -29q-26 -16 -62 -27.5t-73 -11.5h-279q-38 0 -73.5 11.5t-61.5 27.5q-17 10 -39 29.5t-43.5 41.5t-39.5 43.5t-27 34.5q-20 29 -27.5 62t-7.5 65v197h-184v-502h-252zM1176 922q-6 10 -15 21t-19 21.5t-20.5 19
t-17.5 13.5h-268q-13 -9 -35.5 -30t-40.5 -47v-613q17 -23 39 -45.5t35 -30.5h268q12 8 34.5 29.5t39.5 46.5v615z" />
    <glyph glyph-name="afii10049" unicode="&#x42f;" horiz-adv-x="1161" 
d="M84 934q0 34 9.5 70.5t29.5 64.5q7 10 21.5 25.5t30.5 32t31.5 31.5t26.5 24q29 21 72.5 34t81.5 13h598v-1229h-250v469h-196l-244 -469h-279l96 174q20 37 42 77.5t44.5 81.5t44 80t40.5 74q-13 7 -25 13.5t-25 15.5q-11 8 -26.5 22t-32 30.5t-30.5 32t-21 26.5
q-20 29 -29.5 62.5t-9.5 70.5v174zM334 758q4 -8 12 -16.5t16.5 -16t15.5 -12t9 -4.5h348v280h-348q-15 -8 -30 -22.5t-23 -26.5v-182z" />
    <glyph glyph-name="afii10065" unicode="&#x430;" horiz-adv-x="1188" 
d="M838 0l-82 236h-428q-20 -57 -42 -118t-42 -118h-267l426 1229h277l424 -1229h-266zM541 870q-34 -99 -68.5 -197.5t-69.5 -197.5h277z" />
    <glyph glyph-name="afii10066" unicode="&#x431;" horiz-adv-x="1135" 
d="M977 295q0 -34 -10 -70t-29 -65q-8 -10 -22 -26t-30 -32.5t-32 -31t-27 -23.5q-32 -22 -73.5 -34.5t-79.5 -12.5h-598v1229h794v-242h-544v-227h348q40 0 79.5 -11.5t73.5 -35.5q11 -8 27 -22t32.5 -30.5t30.5 -32t21 -26.5q20 -29 29.5 -62.5t9.5 -70.5v-174zM727 471
q-5 8 -13 16.5t-16 16t-15 12t-9 4.5h-348v-280h348q15 8 30 22t23 27v182z" />
    <glyph glyph-name="afii10067" unicode="&#x432;" horiz-adv-x="1112" 
d="M954 293q0 -35 -8 -69.5t-28 -63.5q-7 -10 -20.5 -26t-29.5 -32.5t-31.5 -31t-27.5 -23.5q-31 -22 -74 -34.5t-82 -12.5h-577v1229h577q42 0 83.5 -14t72.5 -35q12 -9 27.5 -23.5t31.5 -31t29.5 -32t20.5 -24.5q21 -32 28.5 -68.5t7.5 -68.5v-148q0 -60 -19.5 -100.5
t-47.5 -71.5q29 -32 48 -71.5t19 -100.5v-147zM705 442q-7 12 -16 22.5t-17 18.5t-14.5 12.5t-8.5 4.5h-323v-260h325q5 0 23 15.5t31 37.5v149zM705 932q-7 12 -16 22t-17 18t-14.5 12.5t-8.5 4.5h-323v-258h325q2 0 8.5 4.5t15 12t16.5 16.5t14 18v150z" />
    <glyph glyph-name="afii10068" unicode="&#x433;" horiz-adv-x="961" 
d="M870 1229v-242h-544v-987h-250v1229h794z" />
    <glyph glyph-name="afii10069" unicode="&#x434;" horiz-adv-x="1262" 
d="M1139 -211h-260l18 211h-670v-211h-252v451h117q8 1 20.5 11t24.5 21.5t20.5 22t8.5 14.5l131 920h717v-989h170zM420 311q-3 -20 -9.5 -37t-13.5 -34h367v749h-248z" />
    <glyph glyph-name="afii10070" unicode="&#x435;" horiz-adv-x="1036" 
d="M76 0v1229h786v-240h-536v-254h518v-239h-518v-256h536v-240h-786z" />
    <glyph glyph-name="afii10072" unicode="&#x436;" horiz-adv-x="1671" 
d="M1307 0l-367 508h-20v-508h-250v508h-21l-366 -508h-303q127 174 227 310q43 58 84 114t73 99.5t52.5 71t21.5 28.5l-452 606h295q101 -140 181 -250q34 -47 67 -92t59 -80t42.5 -56.5t18.5 -21.5h21v500h250v-500h20q1 0 18 21.5t43 56.5t59 80t67 92l182 250h295
l-453 -606q1 -1 21.5 -28.5t53 -71t73.5 -99.5t84 -114q100 -136 227 -310h-303z" />
    <glyph glyph-name="afii10073" unicode="&#x437;" horiz-adv-x="1067" 
d="M920 287q0 -35 -9.5 -70.5t-29.5 -64.5q-7 -10 -21 -26t-30.5 -33t-33 -32.5t-28.5 -23.5q-31 -22 -71 -34.5t-79 -12.5h-276q-46 0 -87 17t-75 42.5t-61.5 56t-46.5 56.5q-14 18 -27.5 43t-24.5 51l244 66q9 -20 19.5 -35.5t22 -26.5t22 -18.5t18.5 -12.5h270
q5 0 22.5 16t31.5 38v168q-6 10 -13.5 20t-15.5 17t-15 11.5t-10 4.5h-297v233h299q3 0 9 4.5t13.5 12t15.5 17t14 20.5v151q-14 22 -31.5 38.5t-22.5 16.5h-270q-12 -5 -24.5 -14.5t-24.5 -20.5t-22 -24t-15 -25l-10.5 2t-27 6.5t-38.5 9.5t-44 11q-53 13 -120 31
q19 52 52 94q19 25 46 54.5t61 55t75 43t88 17.5h276q39 0 79 -13.5t71 -35.5q12 -8 27.5 -22.5t32 -31t30.5 -32.5t23 -27q21 -28 30 -63.5t9 -69.5v-154q0 -58 -23 -98.5t-49 -68.5q13 -15 26 -33t23 -39t16.5 -45.5t6.5 -54.5v-162z" />
    <glyph glyph-name="afii10074" unicode="&#x438;" horiz-adv-x="1153" 
d="M76 0v1229h250v-733l393 733h256v-1229h-250v723l-397 -723h-252z" />
    <glyph glyph-name="afii10075" unicode="&#x439;" horiz-adv-x="1153" 
d="M76 0v1229h250v-733l393 733h256v-1229h-250v723l-397 -723h-252zM758 1569q0 -46 -17.5 -86t-47 -69.5t-69 -46.5t-83.5 -17q-45 0 -85.5 17t-71 46.5t-49 69.5t-18.5 86h138q0 -18 7 -33.5t18.5 -27t27 -18.5t33.5 -7q17 0 31.5 7t25.5 18.5t17 27t6 33.5h137z" />
    <glyph glyph-name="afii10076" unicode="&#x43a;" horiz-adv-x="1077" 
d="M76 0zM713 0l-367 508h-20v-508h-250v1229h250v-500h20q1 0 18 21.5t43 56.5t59 80t67 92l182 250h295l-453 -606q1 -1 21.5 -28.5t53 -71t73.5 -99.5t84 -114q100 -136 227 -310h-303z" />
    <glyph glyph-name="afii10077" unicode="&#x43b;" horiz-adv-x="1202" 
d="M-31 238l133 2q6 0 19 9.5t25.5 21.5t22 23t9.5 15v920h848v-1229h-250v989h-348v-676q0 -32 -9.5 -65t-29.5 -62q-8 -13 -25.5 -33.5t-38.5 -42.5t-42.5 -41.5t-38.5 -29.5q-28 -16 -63 -27.5t-72 -11.5h-140v238z" />
    <glyph glyph-name="afii10078" unicode="&#x43c;" horiz-adv-x="1346" 
d="M913 0v739q-52 -112 -106 -223.5t-107 -222.5h-163l-211 444v-737h-250v1229h272l275 -557q68 139 135 279.5t135 277.5h270v-1229h-250z" />
    <glyph glyph-name="afii10079" unicode="&#x43d;" horiz-adv-x="1161" 
d="M735 0v496h-409v-496h-250v1229h250v-494h409v494h250v-1229h-250z" />
    <glyph glyph-name="afii10080" unicode="&#x43e;" horiz-adv-x="1161" 
d="M74 0zM991 305q0 -31 -8.5 -64.5t-28.5 -62.5q-10 -14 -28 -35.5t-39 -43.5t-42.5 -41t-37.5 -29q-26 -16 -62 -27.5t-73 -11.5h-279q-38 0 -73.5 11.5t-61.5 27.5q-17 10 -39 29.5t-43.5 41.5t-39.5 43.5t-27 34.5q-20 29 -27.5 62t-7.5 65v617q0 34 7.5 67t27.5 62
q9 12 27 32.5t39.5 42.5t43.5 42t39 30q26 16 61.5 27.5t73.5 11.5h279q35 0 72 -11.5t63 -27.5q16 -10 37 -29.5t42 -41.5t39 -42.5t29 -33.5q20 -29 28.5 -63t8.5 -66v-617zM739 922q-5 10 -14 21t-19 21.5t-20.5 19t-17.5 13.5h-269q-12 -9 -34.5 -30t-40.5 -47v-613
q8 -12 18.5 -23.5t20.5 -22t19 -18.5t15 -12h269q6 4 15 12t19 18t20.5 22t18.5 24v615z" />
    <glyph glyph-name="afii10081" unicode="&#x43f;" horiz-adv-x="1161" 
d="M735 0v989h-409v-989h-250v1229h909v-1229h-250z" />
    <glyph glyph-name="afii10082" unicode="&#x440;" horiz-adv-x="1073" 
d="M956 760q0 -76 -38 -133q-7 -11 -21 -26.5t-30.5 -32t-32.5 -30.5t-27 -22q-34 -25 -73.5 -36t-80.5 -11h-327v-469h-250v1229h577q39 0 80.5 -13t73.5 -34q11 -9 26.5 -24t32 -31.5t30.5 -32t22 -25.5q18 -29 28 -65t10 -70v-174zM707 940q-8 12 -23 26.5t-31 22.5h-327
v-280h327q2 0 9 4.5t15.5 12t16.5 16t13 16.5v182z" />
    <glyph glyph-name="afii10083" unicode="&#x441;" horiz-adv-x="1087" 
d="M963 254q-11 -25 -25 -49.5t-27 -42.5q-18 -27 -45 -57.5t-61.5 -56t-75.5 -42t-86 -16.5h-235q-41 0 -79 8.5t-69 30.5q-16 10 -37.5 28.5t-42.5 40t-40 42.5t-29 36q-19 29 -27 62.5t-8 64.5v615q0 34 7.5 65.5t27.5 60.5q7 10 25.5 30.5t41 42.5t44.5 42t34 29
q31 22 72 35.5t82 13.5h233q46 0 87 -17.5t75 -43t61 -55t45 -54.5q8 -11 23.5 -37.5t26.5 -54.5l-240 -66q-23 45 -44.5 62t-41.5 26h-223q-8 -5 -20 -15.5t-24.5 -23t-23.5 -25.5t-18 -24v-610q0 -2 7 -10t18.5 -18.5t26.5 -22t32 -19.5h227q20 8 42.5 31t41.5 62l240 -66
z" />
    <glyph glyph-name="afii10084" unicode="&#x442;" horiz-adv-x="1055" 
d="M608 989v-989h-252v989h-331v240h913v-240h-330z" />
    <glyph glyph-name="afii10085" unicode="&#x443;" horiz-adv-x="1077" 
d="M498 0h-258l137 326h-35l-389 903h264l268 -643l265 643h264z" />
    <glyph glyph-name="afii10086" unicode="&#x444;" horiz-adv-x="1307" 
d="M498 -225v215h-101q-38 0 -73.5 11.5t-61.5 27.5q-17 10 -39 29.5t-43.5 41.5t-39.5 43.5t-27 34.5q-20 29 -27.5 62t-7.5 65v617q0 34 7.5 67t27.5 62q9 12 27 32.5t39.5 42.5t43.5 42t39 30q26 16 61.5 27.5t73.5 11.5h101v182h227v-182h96q37 0 73 -11.5t62 -27.5
q17 -10 38.5 -30t43 -42t40 -42.5t28.5 -32.5q20 -29 27.5 -62t7.5 -67v-617q0 -32 -7.5 -65t-27.5 -62q-10 -13 -28.5 -34.5t-40 -43.5t-43 -41.5t-38.5 -29.5q-26 -16 -62 -27.5t-73 -11.5h-96v-215h-227zM328 305q8 -12 18.5 -23.5t20.5 -22t19 -18.5t15 -12h97v768h-95
q-12 -9 -34.5 -30t-40.5 -47v-615zM891 922q-5 9 -14.5 20t-20 22t-21 19.5t-18.5 13.5h-92v-768h90q6 5 15.5 13.5t20 18.5t21 21.5t19.5 22.5v617z" />
    <glyph glyph-name="afii10087" unicode="&#x445;" horiz-adv-x="1077" 
d="M0 0zM633 625l373 -625h-279l-231 399l-232 -399h-278l370 625l-356 604h279l217 -379l219 379h276z" />
    <glyph glyph-name="afii10088" unicode="&#x446;" horiz-adv-x="1171" 
d="M1049 -211h-261l9 211h-721v1229h250v-989h348v989h250v-989h166z" />
    <glyph glyph-name="afii10089" unicode="&#x447;" horiz-adv-x="1133" 
d="M305 1229v-471q4 -8 12 -16.5t16.5 -16t15.5 -12t9 -4.5h349v520h249v-1229h-249v469h-349q-40 0 -79.5 11t-73.5 36q-11 8 -27 22t-32.5 30.5t-30.5 32t-21 26.5q-39 58 -39 133v469h250z" />
    <glyph glyph-name="afii10090" unicode="&#x448;" horiz-adv-x="1454" 
d="M801 1229v-989h225v989h250v-1229h-1200v1229h250v-989h225v989h250z" />
    <glyph glyph-name="afii10091" unicode="&#x449;" horiz-adv-x="1524" 
d="M801 1229v-989h225v989h250v-989h166l-41 -449h-260l8 209h-1073v1229h250v-989h225v989h250z" />
    <glyph glyph-name="afii10092" unicode="&#x44a;" horiz-adv-x="1196" 
d="M-45 1229h473v-469h348q40 0 80 -11.5t74 -35.5q10 -8 26 -22t32.5 -30.5t30.5 -32t21 -26.5q20 -29 29.5 -62.5t9.5 -70.5v-174q0 -34 -10 -70t-29 -65q-8 -10 -22 -26t-30 -32.5t-32 -31t-26 -23.5q-32 -22 -74 -34.5t-80 -12.5h-598v987h-223v242zM829 471
q-5 8 -13 16.5t-16 16t-15 12t-9 4.5h-348v-280h348q16 8 30.5 22t22.5 27v182z" />
    <glyph glyph-name="afii10093" unicode="&#x44b;" horiz-adv-x="1563" 
d="M977 295q0 -34 -10 -70t-29 -65q-8 -10 -22 -26t-30 -32.5t-32 -31t-27 -23.5q-32 -22 -73.5 -34.5t-79.5 -12.5h-598v1229h250v-469h348q40 0 79.5 -11.5t73.5 -35.5q11 -8 27 -22t32.5 -30.5t30.5 -32t21 -26.5q20 -29 29.5 -62.5t9.5 -70.5v-174zM727 471
q-5 8 -13 16.5t-16 16t-15 12t-9 4.5h-348v-280h348q15 8 30 22t23 27v182zM1133 0v1229h251v-1229h-251z" />
    <glyph glyph-name="afii10094" unicode="&#x44c;" horiz-adv-x="1094" 
d="M977 295q0 -34 -10 -70t-29 -65q-8 -10 -22 -26t-30 -32.5t-32 -31t-27 -23.5q-32 -22 -73.5 -34.5t-79.5 -12.5h-598v1229h250v-469h348q40 0 79.5 -11.5t73.5 -35.5q11 -8 27 -22t32.5 -30.5t30.5 -32t21 -26.5q20 -29 29.5 -62.5t9.5 -70.5v-174zM727 471
q-5 8 -13 16.5t-16 16t-15 12t-9 4.5h-348v-280h348q15 8 30 22t23 27v182z" />
    <glyph glyph-name="afii10095" unicode="&#x44d;" horiz-adv-x="1077" 
d="M319 504v233h351v205q-14 22 -31.5 38.5t-22.5 16.5h-270q-12 -5 -24.5 -14.5t-24.5 -20.5t-22 -24t-15 -25l-10.5 2t-27 6.5t-38.5 9.5t-44 11q-53 13 -120 31q19 52 52 94q19 25 46 54.5t61 55t75 43t88 17.5h276q39 0 79 -13.5t71 -35.5q12 -8 27.5 -22.5t32 -31
t30.5 -32.5t23 -27q21 -28 30 -63.5t9 -69.5v-655q0 -35 -9.5 -70.5t-29.5 -64.5q-7 -10 -21 -26t-30.5 -33t-33 -32.5t-28.5 -23.5q-31 -22 -71 -34.5t-79 -12.5h-276q-46 0 -87 17t-75 42.5t-61.5 56t-46.5 56.5q-14 18 -27.5 43t-24.5 51l244 66q9 -20 19.5 -35.5
t22 -26.5t22 -18.5t18.5 -12.5h270q5 0 22.5 16t31.5 38v221h-351z" />
    <glyph glyph-name="afii10096" unicode="&#x44e;" horiz-adv-x="1593" 
d="M74 0v1229h252v-490h184v183q0 34 7.5 67t27.5 62q9 12 27 32.5t39.5 42.5t43.5 42t39 30q26 16 61.5 27.5t73.5 11.5h279q35 0 72 -11.5t63 -27.5q16 -10 37 -29.5t42 -41.5t39.5 -42.5t29.5 -33.5q20 -29 28 -63t8 -66v-617q0 -31 -8 -64.5t-28 -62.5
q-10 -14 -28.5 -35.5t-39.5 -43.5t-42.5 -41t-37.5 -29q-26 -16 -62 -27.5t-73 -11.5h-279q-38 0 -73.5 11.5t-61.5 27.5q-17 10 -39 29.5t-43.5 41.5t-39.5 43.5t-27 34.5q-20 29 -27.5 62t-7.5 65v197h-184v-502h-252zM1176 922q-6 10 -15 21t-19 21.5t-20.5 19
t-17.5 13.5h-268q-13 -9 -35.5 -30t-40.5 -47v-613q17 -23 39 -45.5t35 -30.5h268q12 8 34.5 29.5t39.5 46.5v615z" />
    <glyph glyph-name="afii10097" unicode="&#x44f;" horiz-adv-x="1141" 
d="M86 934q0 34 9.5 70.5t29.5 64.5q7 10 21.5 25.5t30.5 32t32 31.5t27 24q14 10 32.5 19t39 15t41.5 9.5t40 3.5h578v-1229h-250v469h-180l-234 -469h-278q46 88 92 175q19 37 40.5 78l43 82t42.5 80t40 74q-13 5 -24.5 12t-22.5 15t-27 22t-32.5 30.5t-30.5 32t-21 26.5
q-20 29 -29.5 62.5t-9.5 70.5v174zM336 758q4 -8 12 -16.5t16.5 -16t15.5 -12t9 -4.5h328v280h-328q-15 -8 -30 -22.5t-23 -26.5v-182z" />
    <glyph glyph-name="afii10071" unicode="&#x451;" horiz-adv-x="1036" 
d="M76 0v1229h786v-240h-536v-254h518v-239h-518v-256h536v-240h-786zM547 1364v250h239v-250h-239zM154 1364v250h235v-250h-235z" />
    <glyph glyph-name="afii10099" unicode="&#x452;" horiz-adv-x="1382" 
d="M614 989v-229h349q40 0 79.5 -11.5t73.5 -35.5q11 -8 27 -22t32.5 -30.5t30.5 -32t21 -26.5q39 -59 39 -133v-174q0 -34 -10.5 -70t-28.5 -65q-8 -10 -22 -26t-30.5 -32.5t-32 -31t-26.5 -23.5q-32 -22 -73.5 -34.5t-79.5 -12.5h-119v240h119q15 8 30 22t23 27v182
q-5 8 -13 16.5t-16 16t-15 12t-9 4.5h-349v-520h-252v989h-331v240h913v-240h-330z" />
    <glyph glyph-name="afii10100" unicode="&#x453;" horiz-adv-x="961" 
d="M870 1229v-242h-544v-987h-250v1229h794zM283 1352l190 278h287l-215 -278h-262z" />
    <glyph glyph-name="afii10101" unicode="&#x454;" horiz-adv-x="1087" 
d="M328 504v-221q14 -22 31 -38t22 -16h270q17 10 41 31t41 62l244 -66q-11 -26 -24 -51t-27 -43q-20 -26 -47 -56.5t-61.5 -56t-75.5 -42.5t-87 -17h-276q-38 0 -78.5 12.5t-71.5 34.5q-12 8 -28.5 23.5t-33 32.5t-30 33t-20.5 26q-20 29 -29.5 64.5t-9.5 70.5v655
q0 34 8.5 69.5t30.5 63.5q8 11 22.5 27t30.5 32.5t32 31t27 22.5q31 22 71.5 35.5t78.5 13.5h276q47 0 88 -17.5t75 -43t61 -55t47 -54.5q15 -20 28.5 -44t22.5 -50q-67 -18 -120 -31q-23 -6 -44.5 -11t-38 -9.5t-27 -6.5l-10.5 -2q-5 12 -15 25t-22 24t-24.5 20.5
t-24.5 14.5h-270q-5 0 -22 -16.5t-31 -38.5v-205h350v-233h-350z" />
    <glyph glyph-name="afii10102" unicode="&#x455;" horiz-adv-x="1104" 
d="M969 303q0 -26 -6.5 -62t-26.5 -67q-7 -11 -25 -31.5t-39.5 -42.5t-42 -41t-30.5 -26q-32 -23 -73 -34t-81 -11h-295q-45 0 -85.5 17t-74.5 42.5t-61.5 56t-46.5 56.5q-12 14 -26 43t-25 51l243 65q16 -37 38.5 -59.5t37.5 -32.5h303q11 6 22.5 17.5t21.5 23t16 20t6 9.5
v123q0 3 -1 5l-2 4l-3 3q-122 34 -245 69.5t-247 69.5q-42 12 -74 36.5t-53 56.5t-32 69.5t-11 75.5v113q0 27 6.5 62.5t26.5 66.5q7 9 24 28.5t37.5 41t41 41t32.5 28.5q31 22 72 35.5t82 13.5h262q45 0 86.5 -16.5t76 -42t61.5 -55.5t44 -56q7 -12 13 -22t12 -20.5
t11.5 -22.5t12.5 -27l-239 -66q-19 38 -43.5 57.5t-42.5 30.5h-242q-15 -8 -30 -20t-27 -23.5t-19.5 -20t-7.5 -9.5v-109q0 -6 3 -9q1 -2 3 -3q122 -35 246 -70.5t248 -70.5q41 -12 72.5 -37t52.5 -57.5t32 -69.5t11 -74v-123z" />
    <glyph glyph-name="afii10103" unicode="&#x456;" horiz-adv-x="522" 
d="M84 0v1229h252v-1229h-252z" />
    <glyph glyph-name="afii10104" unicode="&#x457;" horiz-adv-x="502" 
d="M283 1364v250h239v-250h-239zM-111 1364v250h236v-250h-236zM84 0v1229h252v-1229h-252z" />
    <glyph glyph-name="afii10105" unicode="&#x458;" horiz-adv-x="926" 
d="M760 303q0 -32 -8 -65t-27 -62q-9 -13 -27 -33.5t-39.5 -42.5t-44 -41.5t-41.5 -29.5h2q-26 -16 -60.5 -27.5t-72.5 -11.5h-147q-47 0 -88 17t-76 43t-63 56.5t-48 57.5q-8 11 -17 32.5t-23 59.5l239 66q19 -42 38.5 -62.5t35.5 -30.5h143q1 0 9 5t19.5 14.5t24 22.5
t21.5 28v930h250v-926z" />
    <glyph glyph-name="afii10106" unicode="&#x459;" horiz-adv-x="1651" 
d="M1534 295q0 -34 -10 -70t-29 -65q-8 -10 -22 -26t-30 -32.5t-32 -31t-27 -23.5q-32 -22 -73.5 -34.5t-79.5 -12.5h-557v989h-287v-688q0 -32 -9.5 -65t-29.5 -62q-8 -13 -25.5 -34t-38.5 -43t-42.5 -41t-38.5 -29q-28 -16 -63 -27.5t-72 -11.5h-140v241h133q6 0 19 9.5
t25.5 21.5t22 23.5t9.5 15.5v930h787v-469h307q40 0 79.5 -11.5t73.5 -35.5q11 -8 27 -22t32.5 -30.5t30.5 -32t21 -26.5q20 -29 29.5 -62.5t9.5 -70.5v-174zM1284 471q-5 8 -13 16.5t-16 16t-15 12t-9 4.5h-307v-280h307q15 8 30 22t23 27v182z" />
    <glyph glyph-name="afii10107" unicode="&#x45a;" horiz-adv-x="1651" 
d="M1534 295q0 -34 -10 -70t-29 -65q-8 -10 -22 -26t-30 -32.5t-32 -31t-27 -23.5q-32 -22 -73.5 -34.5t-79.5 -12.5h-557v520h-348v-520h-250v1229h250v-469h348v469h250v-469h307q40 0 79.5 -11.5t73.5 -35.5q11 -8 27 -22t32.5 -30.5t30.5 -32t21 -26.5
q20 -29 29.5 -62.5t9.5 -70.5v-174zM1284 471q-5 8 -13 16.5t-16 16t-15 12t-9 4.5h-307v-280h307q15 8 30 22t23 27v182z" />
    <glyph glyph-name="afii10108" unicode="&#x45b;" horiz-adv-x="1362" 
d="M975 -2v473q-5 8 -13 16.5t-16 16t-15 12t-9 4.5h-308v-520h-252v989h-331v240h913v-240h-330v-229h308q40 0 79.5 -11.5t73.5 -35.5q11 -8 27 -22t32.5 -30.5t30.5 -32t21 -26.5q39 -59 39 -133v-471h-250z" />
    <glyph glyph-name="afii10109" unicode="&#x45c;" horiz-adv-x="1087" 
d="M346 1352l191 278h286l-215 -278h-262zM711 0l-385 496v-496h-250v1229h250v-488q0 -2 16.5 18.5t43.5 54.5t61.5 78t70.5 90q84 108 193 247h313l-492 -606q1 -1 23 -28.5t57 -71t79.5 -99.5t90.5 -114q108 -136 244 -310h-315z" />
    <glyph glyph-name="afii10110" unicode="&#x45e;" horiz-adv-x="1038" 
d="M688 1569q0 -46 -17 -86t-46.5 -69.5t-69 -46.5t-84.5 -17t-85 17t-71 46.5t-49 69.5t-18 86h137q0 -18 7 -33.5t18.5 -27t27 -18.5t33.5 -7q17 0 31.5 7t25.5 18.5t17 27t6 33.5h137zM498 0h-258l137 326h-35l-389 903h264l268 -643l265 643h264z" />
    <glyph glyph-name="afii10193" unicode="&#x45f;" horiz-adv-x="1161" 
d="M985 1229v-1229h-344v-225h-227v225h-338v1229h250v-989h409v989h250z" />
    <glyph glyph-name="afii10050" unicode="&#x490;" horiz-adv-x="961" 
d="M870 1229v-242h-544v-987h-250v1229h794zM637 1419h233v-196h-233v196z" />
    <glyph glyph-name="afii10098" unicode="&#x491;" horiz-adv-x="961" 
d="M637 1229v190h233v-432h-544v-987h-250v1229h561z" />
    <glyph glyph-name="endash" unicode="&#x2013;" horiz-adv-x="973" 
d="M57 395v234h754v-234h-754z" />
    <glyph glyph-name="emdash" unicode="&#x2014;" horiz-adv-x="1145" 
d="M57 395v234h926v-234h-926z" />
    <glyph glyph-name="quoteleft" unicode="&#x2018;" horiz-adv-x="496" 
d="M211 893h-272l200 428l236 -72z" />
    <glyph glyph-name="quoteright" unicode="&#x2019;" horiz-adv-x="496" 
d="M135 1315h273l-201 -428l-236 71z" />
    <glyph glyph-name="quotesinglbase" unicode="&#x201a;" horiz-adv-x="496" 
d="M236 -170h-273l201 428l235 -72z" />
    <glyph glyph-name="quotedblleft" unicode="&#x201c;" horiz-adv-x="907" 
d="M135 1315h273l-201 -428l-236 71zM541 1315h272l-201 -428l-235 71z" />
    <glyph glyph-name="quotedblright" unicode="&#x201d;" horiz-adv-x="913" 
d="M649 893h-272l201 428l235 -72zM244 893h-273l201 428l236 -72z" />
    <glyph glyph-name="quotedblbase" unicode="&#x201e;" horiz-adv-x="918" 
d="M649 -170h-272l201 428l235 -72zM244 -170h-273l201 428l236 -72z" />
    <glyph glyph-name="dagger" unicode="&#x2020;" horiz-adv-x="698" 
d="M449 694v-454h-242v454h-133v232h133v303h242v-303h135v-232h-135z" />
    <glyph glyph-name="daggerdbl" unicode="&#x2021;" horiz-adv-x="698" 
d="M449 694v-159h133v-232h-133v-301h-242v301h-135v232h135v159h-133v232h133v301h242v-301h135v-232h-135z" />
    <glyph glyph-name="bullet" unicode="&#x2022;" horiz-adv-x="918" 
d="M717 500q0 -37 -12 -74.5t-35 -65.5q-9 -9 -22.5 -21l-27 -24t-27 -22.5t-22.5 -16.5q-27 -18 -60.5 -26t-68.5 -8h-49q-35 0 -69 8.5t-60 25.5q-9 6 -23 17t-29 23.5t-29 24.5t-23 21q-26 31 -35.5 67t-9.5 71v32q0 41 13 74t33.5 59.5t47 48.5t53.5 40q29 20 61.5 27
t69.5 7h49q35 0 67.5 -7t61.5 -27q28 -20 54 -41.5t46.5 -48t33 -59t12.5 -73.5v-32z" />
    <glyph glyph-name="ellipsis" unicode="&#x2026;" horiz-adv-x="1411" 
d="M510 0v291h291v-291h-291zM150 0v291h286v-291h-286zM874 0v291h287v-291h-287z" />
    <glyph glyph-name="perthousand" unicode="&#x2030;" horiz-adv-x="2447" 
d="M2304 205q0 -26 -5 -53t-24 -52q-5 -7 -15 -17t-21 -21.5t-23 -21.5t-21 -17q-24 -17 -55.5 -27t-62.5 -10h-119q-31 0 -62.5 10t-54.5 27q-10 7 -22 17t-23.5 21.5t-21 21.5t-15.5 17q-18 25 -23 52t-5 53v274q0 26 5 53t23 52q6 7 15.5 17t21 21.5t23.5 22t22 17.5
q23 17 54.5 26.5t62.5 9.5h119q31 0 62.5 -9.5t55.5 -26.5q9 -7 21 -17.5t23 -22t21 -21.5t15 -17q19 -25 24 -52t5 -53v-274zM2101 438v5.5t-2 7.5q-8 9 -18 18t-21 18q-2 2 -5 2h-5h-68h-5t-5 -2q-11 -8 -22 -18.5t-19 -19.5q-2 -6 -2 -7v-4v-194v-3q0 -1 2 -5
q8 -10 19 -21.5t22 -17.5q2 -2 5 -2h5h68h5t5 2q10 8 21.5 17.5t17.5 18.5q2 4 2 7v4v194zM637 741q0 -26 -5 -52.5t-24 -51.5q-5 -7 -15 -17.5t-21 -21.5t-23 -21.5t-21 -17.5q-24 -17 -55.5 -27t-62.5 -10h-119q-31 0 -62.5 10t-54.5 27q-10 7 -22 17.5t-23.5 21.5
t-21.5 21.5t-15 17.5q-18 25 -23.5 51.5t-5.5 52.5v275q0 26 5.5 52.5t23.5 51.5q5 7 15 17.5t21.5 22t23.5 21.5t22 17q23 17 54.5 27t62.5 10h119q31 0 62.5 -10t55.5 -27q9 -7 21 -17t23 -21.5t21 -22t15 -17.5q19 -25 24 -51.5t5 -52.5v-275zM434 975v5.5t-2 6.5
q-15 17 -39 37q-2 2 -5 2h-5h-68h-5t-5 -2q-11 -8 -22 -19t-19 -20q-2 -4 -2 -7v-3v-195v-3q0 -1 2 -5q8 -9 19 -21t22 -18q2 -2 5 -2h5h68h5t5 2q10 8 21.5 18t17.5 19q2 4 2 6v4v195zM1610 205q0 -26 -5 -53t-24 -52q-5 -7 -15 -17t-21 -21.5t-23 -21.5t-21 -17
q-25 -17 -56.5 -27t-62.5 -10h-118q-31 0 -62.5 10t-54.5 27q-10 7 -22 17t-23.5 21.5l-21.5 21.5t-15 17q-19 25 -24 52t-5 53v274q0 26 5 53t24 52q5 7 15 17l21.5 21.5t23.5 22t22 17.5q23 17 54.5 26.5t62.5 9.5h118q31 0 62.5 -9.5t56.5 -26.5q9 -7 21 -17.5t23 -22
t21 -21.5t15 -17q19 -25 24 -52t5 -53v-274zM1407 438v5.5t-2 7.5q-8 9 -18 18t-21 18q-2 2 -5 2h-5h-68h-5t-5 -2q-11 -8 -22 -18.5t-19 -19.5q-2 -6 -2 -7v-4v-194v-3q0 -1 2 -5q8 -10 19 -21.5t22 -17.5q2 -2 5 -2h5h68h5t5 2q9 8 21 17.5t18 18.5q2 4 2 7v4v194zM629 0
h-258l676 1229h253z" />
    <glyph glyph-name="guilsinglleft" unicode="&#x2039;" horiz-adv-x="838" 
d="M397 180l-352 344l352 353l269 -78l-279 -271l285 -276z" />
    <glyph glyph-name="guilsinglright" unicode="&#x203a;" horiz-adv-x="838" 
d="M45 252l285 276l-279 271l268 78l353 -353l-353 -344z" />
    <glyph glyph-name="fraction" unicode="&#x2044;" horiz-adv-x="1225" 
 />
    <glyph glyph-name="Euro" unicode="&#x20ac;" horiz-adv-x="1163" 
d="M403 356v-57q0 -2 7 -10t18.5 -18.5t26.5 -22t32 -19.5h228q20 8 42.5 31t41.5 62l241 -66q-12 -28 -26 -52.5t-25 -41.5q-18 -27 -45.5 -57.5t-61.5 -56t-75 -42t-86 -16.5h-236q-40 0 -78 8.5t-69 30.5q-16 10 -37.5 28.5t-43.5 40t-40.5 42.5t-28.5 36
q-18 29 -26 62.5t-8 64.5v53h-76v224h76v67h-76v223h76v48q0 34 7 65.5t27 60.5q6 10 25 30.5t42 42.5t45 42t34 29q31 22 72 35.5t81 13.5h234q46 0 86.5 -17.5t74.5 -43t61 -55t46 -54.5q8 -11 23 -37.5t26 -54.5l-239 -66q-23 45 -44.5 62t-41.5 26h-224
q-8 -5 -19.5 -15.5t-24 -23t-24 -25.5t-18.5 -24v-39h312v-223h-312v-67h312v-224h-312z" />
    <glyph glyph-name="afii61352" unicode="&#x2116;" horiz-adv-x="1909" 
d="M723 0l-397 723v-723h-250v1229h256l393 -733v733h250v-1229h-252zM1765 741q0 -26 -5 -52.5t-23 -51.5q-6 -7 -15.5 -17.5t-21 -21.5t-23 -21.5t-20.5 -17.5q-25 -17 -56.5 -27t-62.5 -10h-119q-31 0 -62 10t-54 27q-10 7 -22 17.5t-23.5 21.5t-21.5 21.5t-15 17.5
q-19 25 -24 51.5t-5 52.5v275q0 26 5 52.5t24 51.5q5 7 15 17.5t21.5 22t23.5 21.5t22 17q23 17 54 27t62 10h119q31 0 62.5 -10t56.5 -27q9 -7 20.5 -17t23 -21.5t21 -22t15.5 -17.5q18 -25 23 -51.5t5 -52.5v-275zM1563 975v5.5t-2 6.5q-8 9 -18 18.5t-21 18.5
q-2 2 -5.5 2h-5.5h-67h-5t-5 -2q-11 -8 -22 -19t-19 -20q-2 -4 -2 -7v-3v-195v-3q0 -1 2 -5q8 -9 19 -21t22 -18q2 -2 5 -2h5h67h5.5t5.5 2q9 8 20.5 18t18.5 19q2 4 2 6v4v195z" />
    <glyph glyph-name="trademark" unicode="&#x2122;" horiz-adv-x="1260" 
d="M893 592v221q-3 -9 -7 -20t-7 -19h-131l-15 37v-219h-229v420h-55v-420h-226v420h-147v215h669l64 -123q17 31 36 61.5t36 61.5h235v-635h-223z" />
    <glyph glyph-name="uni2126" unicode="&#x2126;" horiz-adv-x="1313" 
d="M543 0h-492v240h144q-25 15 -43.5 30.5t-26.5 32.5q-17 31 -27 62.5t-10 62.5v494q0 34 7.5 67t27.5 62q9 12 27 32.5t39.5 42.5t43.5 42t39 30q26 16 61.5 27.5t74.5 11.5h403q37 0 73 -11.5t62 -27.5q17 -10 38.5 -30t43 -42t40 -42.5t28.5 -32.5q20 -29 27 -62t7 -67
v-494q0 -31 -9.5 -62.5t-26.5 -62.5q-10 -17 -28.5 -32.5t-43.5 -30.5h145v-240h-491v229q29 27 65 60t67 63t52 52.5t21 27.5v490q-6 9 -15.5 20t-20 22t-21 19.5t-17.5 13.5h-393q-13 -9 -35.5 -30t-40.5 -47v-488q0 -5 21 -27.5t52 -52.5t67 -63t65 -60v-229z" />
    <glyph glyph-name="partialdiff" unicode="&#x2202;" 
d="M266 1237h330q38 0 79.5 -13.5t72.5 -35.5q11 -9 27.5 -24t33 -31t30.5 -31.5t21 -26.5q19 -28 29 -63.5t10 -69.5v-657q0 -34 -10 -69t-29 -64q-8 -12 -22.5 -28.5t-31 -33t-32.5 -31.5t-26 -22q-31 -23 -71.5 -35t-80.5 -12h-238q-38 0 -78 12.5t-71 34.5
q-12 8 -28.5 23.5t-33 32.5t-30.5 33t-21 26q-20 29 -29.5 64.5t-9.5 70.5v293q0 34 10.5 70t28.5 65q9 11 23.5 27.5t31 33t32 30.5t26.5 21q32 23 70.5 34t78.5 11h197q10 0 22.5 -4t25.5 -10.5t25 -14.5t21 -16v119q-14 20 -31 35.5t-22 15.5h-268zM307 283
q7 -10 15 -19.5t15.5 -16.5t13 -11.5t7.5 -4.5h238q2 0 8.5 4.5t14.5 12t16 17t14 20.5v268q-6 9 -16.5 20t-22 21.5t-22.5 19.5t-17 15q-12 6 -22 6h-189q-2 0 -8.5 -5.5t-14.5 -14t-16 -19t-14 -21.5v-292z" />
    <glyph glyph-name="uni2206" unicode="&#x2206;" horiz-adv-x="1167" 
d="M1083 0h-1126l426 1229h276zM520 870q-11 -33 -28.5 -83t-38 -109.5t-43 -122.5t-43 -122.5t-38 -109.5t-28.5 -83h440z" />
    <glyph glyph-name="product" unicode="&#x220f;" horiz-adv-x="1161" 
d="M735 0v989h-409v-989h-250v1229h909v-1229h-250z" />
    <glyph glyph-name="summation" unicode="&#x2211;" horiz-adv-x="1032" 
d="M418 240h502v-240h-844v182l366 443l-360 419v185h840v-240h-504l309 -362z" />
    <glyph glyph-name="minus" unicode="&#x2212;" horiz-adv-x="981" 
d="M57 395v230h754v-230h-754z" />
    <glyph glyph-name="radical" unicode="&#x221a;" horiz-adv-x="1225" 
 />
    <glyph glyph-name="infinity" unicode="&#x221e;" horiz-adv-x="1575" 
d="M1386 524q0 -18 -3.5 -38.5t-10 -40t-15 -37.5t-18.5 -33q-10 -12 -26 -27.5t-33.5 -30t-33.5 -26t-25 -17.5q-31 -20 -65 -28t-73 -8h-161q-39 0 -74 8t-66 28q-8 5 -20.5 13.5t-26.5 19.5q-14 -11 -25.5 -19.5t-19.5 -13.5q-31 -20 -65 -28t-72 -8h-162q-38 0 -73 8
t-66 28q-9 6 -25 17.5t-33.5 26t-34 30t-26.5 27.5q-10 15 -18.5 33t-15 37.5t-10 40t-3.5 38.5v43q0 18 3.5 38.5t10 40.5t15 38t18.5 33q10 12 26.5 27.5t34 30t33.5 26.5t25 18q62 41 139 41h162q75 0 137 -41q8 -6 19.5 -15t25.5 -20q14 11 26.5 20t20.5 15
q62 41 140 41h161q76 0 138 -41q9 -6 25 -18t33.5 -26.5t33.5 -30t26 -27.5q10 -15 18.5 -33t15 -38t10 -40.5t3.5 -38.5v-43zM856 520q0 -5 7.5 -13t18 -15.5t22 -14t18.5 -8.5h161q8 4 19 11t21.5 14.5t18 14t7.5 11.5v49q0 5 -7.5 12t-18 15t-22 15.5t-20.5 13.5h-157
q-2 -1 -12.5 -8t-23 -16t-22.5 -18t-10 -14v-45v-4zM616 567v6q-4 6 -12 13t-17.5 14t-19 13.5t-16.5 11.5h-158q-2 -1 -12.5 -8t-22.5 -16t-22 -18t-10 -14v-49q0 -5 7.5 -13t18 -15.5t21.5 -14t18 -8.5h162q14 8 34.5 22t28.5 23v10v43z" />
    <glyph glyph-name="integral" unicode="&#x222b;" horiz-adv-x="946" 
 />
    <glyph glyph-name="approxequal" unicode="&#x2248;" horiz-adv-x="1022" 
d="M618 246q-11 28 -17.5 37.5t-14.5 9.5q-15 -3 -45 -6t-62.5 -6.5t-62.5 -6.5t-45 -6q-44 -8 -89 -1.5t-86.5 29.5t-78 66t-62.5 109l234 43q13 -31 19 -40t14 -7q17 3 47 6.5t62.5 7t62.5 7t47 6.5q43 7 87.5 0.5t86 -31t77.5 -67.5t62 -107zM618 561q-11 28 -17.5 37.5
t-14.5 9.5q-15 -3 -45 -6t-62.5 -6t-62.5 -6t-45 -6q-44 -8 -89 -2t-86.5 29t-78 66t-62.5 109l234 43q13 -31 19 -40t14 -7q17 3 47 6.5t62.5 7t62.5 7t47 6.5q43 7 87.5 0.5t86 -31t77.5 -67.5t62 -107z" />
    <glyph glyph-name="notequal" unicode="&#x2260;" horiz-adv-x="1022" 
d="M770 801h96v-223h-217l-45 -84h262v-224h-385l-90 -168h-278l92 168h-127v224h248l47 84h-295v223h416l81 149h277z" />
    <glyph glyph-name="lessequal" unicode="&#x2264;" horiz-adv-x="954" 
d="M375 565q109 -59 218.5 -118.5t217.5 -116.5v-275l-786 428v160l788 428v-270z" />
    <glyph glyph-name="greaterequal" unicode="&#x2265;" horiz-adv-x="954" 
d="M49 55v275l436 235q-111 59 -219.5 118t-218.5 118v270l789 -428v-160z" />
    <glyph glyph-name="lozenge" unicode="&#x25ca;" horiz-adv-x="1954" 
d="M193 88q-25 23 -46.5 47t-33.5 41q-19 29 -27 62.5t-8 64.5v617q0 31 8 64.5t27 62.5q12 17 33.5 41t46.5 47l227 211l168 -170l-228 -215q-17 -16 -26.5 -28.5t-9.5 -14.5v-613q0 -2 9.5 -14.5t26.5 -28.5l228 -215l-168 -170zM1444 -123l-168 170l227 215
q17 16 27 28.5t10 14.5v613q0 2 -10 14.5t-27 28.5l-227 215l168 170l227 -211q25 -23 46.5 -47t33.5 -41q19 -29 27 -62.5t8 -64.5v-617q0 -31 -8 -64.5t-27 -62.5q-12 -17 -33.5 -41t-46.5 -47zM1128 489q-42 -29 -85.5 -46t-88.5 -17h-88v-188h-207v725h297q38 0 76 -12
t66 -33q10 -8 24.5 -20.5t29.5 -26.5t28 -28t20 -24q19 -28 23 -52.5t4 -59.5v-27q0 -34 -3.5 -64t-23.5 -59q-11 -14 -30 -32.5t-42 -35.5zM1022 709q-8 11 -24.5 25t-30.5 24h-101v-140h101q3 0 10 4t15 10.5t16.5 14.5t13.5 15v47z" />
    <glyph glyph-name="uniFB01" unicode="&#xfb01;" horiz-adv-x="1534" 
d="M326 989v-254h508v-239h-508v-496h-250v1229h786v-240h-536zM1106 0v1229h252v-1229h-252z" />
    <glyph glyph-name="uniFB02" unicode="&#xfb02;" horiz-adv-x="1966" 
d="M326 989v-254h508v-239h-508v-496h-250v1229h786v-240h-536zM1081 0v1229h250v-989h524v-240h-774z" />
    <glyph glyph-name="glyph9" horiz-adv-x="944" 
 />
    <glyph glyph-name="glyph10" horiz-adv-x="944" 
 />
    <glyph glyph-name="glyph14" 
 />
    <glyph glyph-name="glyph15" 
 />
    <glyph glyph-name="glyph16" 
 />
    <glyph glyph-name="glyph17" 
 />
    <glyph glyph-name="glyph18" horiz-adv-x="627" 
 />
    <glyph glyph-name="glyph26" horiz-adv-x="944" 
 />
    <glyph glyph-name="glyph27" horiz-adv-x="944" 
 />
    <glyph glyph-name="glyph122" horiz-adv-x="944" 
 />
    <glyph glyph-name="glyph472" horiz-adv-x="1143" 
d="M0 0z" />
    </font>
</defs>
</svg>
